<svg width="685" height="1199" viewBox="0 0 685 1199" fill="none" xmlns="http://www.w3.org/2000/svg">
<path d="M507.922 160.459L383.843 38.1787L220.077 83.3313L176.466 246.09L295.327 368.525L464.311 323.218L507.922 160.459Z" fill="#F5F5FA" stroke="#553B92" stroke-width="10"/>
<path d="M366.373 103.379L415.042 288.793M366.373 103.379L507.922 160.459M366.373 103.379L383.843 38.1787M366.373 103.379L220.077 83.3313M366.373 103.379L232.482 239.876M415.042 288.793L507.922 160.459M415.042 288.793L232.482 239.876M415.042 288.793L295.327 368.525M415.042 288.793L464.311 323.218M507.922 160.459L383.843 38.1787M507.922 160.459L464.311 323.218M383.843 38.1787L220.077 83.3313M464.311 323.218L295.327 368.525M295.327 368.525L176.466 246.09M295.327 368.525L232.482 239.876M176.466 246.09L220.077 83.3313M176.466 246.09L232.482 239.876M220.077 83.3313L232.482 239.876" stroke="#553B92" stroke-width="10"/>
<circle cx="366.114" cy="104.344" r="9.5" transform="rotate(15 366.114 104.344)" stroke="#553B92" stroke-width="6"/>
<circle cx="414.465" cy="287.087" r="9.5" transform="rotate(15 414.465 287.087)" stroke="#553B92" stroke-width="6"/>
<circle cx="233.837" cy="238.684" r="9.5" transform="rotate(15 233.837 238.684)" stroke="#553B92" stroke-width="6"/>
<g filter="url(#filter0_d_17_855)">
<path d="M312.302 226.064L323.069 185.882C322.643 185.988 322.067 186.077 321.341 186.148C320.668 186.188 319.921 186.253 319.102 186.343C318.294 186.391 317.527 186.451 316.802 186.521C316.087 186.551 315.522 186.598 315.107 186.664L316.995 179.616C317.556 179.502 318.304 179.349 319.239 179.157C320.215 178.977 321.243 178.767 322.323 178.526C323.403 178.286 324.433 177.987 325.412 177.631C326.432 177.286 327.235 176.927 327.821 176.554L335.239 178.542L321.822 228.615L312.302 226.064ZM344.612 234.722L347.742 223.038L332.535 218.963L334.539 211.483L355.865 184.068L366.993 187.05L358.661 218.145L363.483 219.437L361.528 226.732L356.706 225.44L353.575 237.123L344.612 234.722ZM342.031 213.689L349.697 215.743L355.395 194.477L342.031 213.689Z" fill="#553B92"/>
</g>
<g opacity="0.7">
<path d="M223.58 219.182L204.558 223.475C204.696 223.629 204.858 223.848 205.045 224.134C205.209 224.405 205.399 224.7 205.615 225.021C205.811 225.345 206.003 225.651 206.19 225.936C206.358 226.226 206.501 226.45 206.619 226.608L203.283 227.361C203.113 227.154 202.886 226.877 202.603 226.531C202.316 226.165 202.004 225.784 201.669 225.388C201.333 224.993 200.985 224.63 200.624 224.302C200.258 223.954 199.934 223.699 199.652 223.537L198.859 220.025L222.563 214.675L223.58 219.182ZM220.656 204.321C221.013 205.901 221.004 207.226 220.63 208.294C220.232 209.348 219.543 210.201 218.563 210.852C217.563 211.509 216.36 211.995 214.956 212.312L214.107 212.504L213.09 207.997C213.129 207.989 213.236 207.964 213.412 207.925C213.568 207.89 213.724 207.854 213.88 207.819C214.636 207.628 215.257 207.426 215.742 207.214C216.204 206.987 216.53 206.708 216.722 206.378C216.914 206.047 216.953 205.629 216.839 205.121C216.72 204.595 216.505 204.233 216.194 204.037C215.864 203.845 215.434 203.757 214.904 203.774C214.375 203.791 213.74 203.883 212.999 204.051C211.808 204.319 210.931 204.702 210.367 205.198C209.783 205.699 209.6 206.479 209.818 207.537C209.822 207.556 209.844 207.654 209.884 207.829C209.924 208.005 209.961 208.171 209.996 208.327L206.66 209.08C206.634 208.963 206.607 208.846 206.581 208.728C206.55 208.592 206.524 208.475 206.502 208.377C206.264 207.324 205.82 206.676 205.171 206.433C204.517 206.17 203.585 206.175 202.376 206.448C201.439 206.66 200.739 206.962 200.273 207.354C199.808 207.746 199.66 208.312 199.827 209.054C199.994 209.795 200.397 210.217 201.035 210.319C201.673 210.421 202.453 210.378 203.374 210.19C203.53 210.155 203.706 210.116 203.901 210.072C204.077 210.032 204.252 209.992 204.428 209.953L205.445 214.459L204.157 214.75C202.772 215.063 201.544 215.073 200.474 214.782C199.384 214.495 198.48 213.94 197.761 213.118C197.042 212.296 196.531 211.212 196.227 209.866C195.924 208.52 195.908 207.314 196.18 206.248C196.451 205.182 197.001 204.299 197.827 203.6C198.649 202.881 199.752 202.366 201.138 202.053C202.523 201.741 203.74 201.773 204.789 202.152C205.834 202.51 206.577 203.081 207.02 203.862C207.083 203.233 207.289 202.643 207.636 202.093C207.983 201.543 208.509 201.056 209.213 200.63C209.897 200.209 210.795 199.873 211.907 199.622C213.331 199.301 214.645 199.22 215.85 199.378C217.035 199.541 218.045 200.021 218.881 200.816C219.716 201.612 220.308 202.78 220.656 204.321Z" fill="#553B92"/>
</g>
<g opacity="0.7">
<path d="M339.765 295.539L338.411 300.593L325.513 312.194C324.551 313.063 323.648 313.898 322.804 314.698C321.929 315.491 321.174 316.332 320.538 317.222C319.863 318.134 319.372 319.162 319.065 320.306C318.742 321.511 318.73 322.485 319.028 323.228C319.318 324.001 319.895 324.504 320.761 324.736C321.688 324.984 322.469 324.912 323.105 324.519C323.732 324.157 324.25 323.583 324.659 322.798C325.068 322.014 325.405 321.127 325.67 320.138L326.142 318.376L333.143 320.252L332.646 322.106C332.05 324.332 331.18 326.219 330.036 327.768C328.861 329.308 327.404 330.359 325.663 330.919C323.884 331.502 321.773 331.467 319.331 330.813C316.024 329.926 313.767 328.394 312.562 326.216C311.357 324.038 311.172 321.388 312.009 318.266C312.415 316.751 313.023 315.407 313.835 314.233C314.638 313.09 315.588 312.019 316.683 311.021C317.74 310.045 318.871 309.04 320.076 308.004L330.228 299.047L319.054 296.053L320.57 290.396L339.765 295.539ZM305.775 285.736C308.031 286.341 309.777 287.305 311.012 288.63C312.247 289.955 313.02 291.52 313.332 293.327C313.634 295.164 313.5 297.148 312.929 299.281L308.419 316.111C307.831 318.306 306.962 320.127 305.812 321.575C304.654 323.054 303.209 324.058 301.477 324.587C299.745 325.117 297.719 325.071 295.401 324.45C293.114 323.837 291.368 322.873 290.164 321.556C288.929 320.231 288.179 318.639 287.915 316.779C287.643 314.951 287.801 312.939 288.39 310.745L292.899 293.914C293.471 291.782 294.347 289.995 295.528 288.556C296.7 287.147 298.152 286.178 299.885 285.649C301.617 285.119 303.58 285.148 305.775 285.736ZM304.085 292.042C303.25 291.818 302.577 291.919 302.066 292.345C301.554 292.771 301.141 293.323 300.827 294.001C300.504 294.71 300.26 295.373 300.095 295.991L295.66 312.544C295.477 313.224 295.349 313.951 295.274 314.726C295.168 315.493 295.23 316.188 295.46 316.813C295.682 317.469 296.225 317.913 297.091 318.145C297.956 318.377 298.664 318.268 299.215 317.82C299.727 317.393 300.144 316.826 300.466 316.117C300.758 315.4 300.995 314.702 301.177 314.022L305.612 297.47C305.778 296.852 305.898 296.155 305.973 295.38C306.04 294.636 305.943 293.947 305.682 293.314C305.421 292.681 304.889 292.257 304.085 292.042Z" fill="#553B92"/>
</g>
<g opacity="0.7">
<path d="M420.543 185.034C419.725 182.709 419.568 180.627 420.074 178.787C420.62 176.966 421.676 175.39 423.243 174.058C424.82 172.756 426.771 171.696 429.095 170.877L442.134 166.285C444.518 165.446 446.757 164.963 448.85 164.836C450.953 164.74 452.798 165.21 454.384 166.246C455.97 167.282 457.226 169.113 458.151 171.739C458.948 174.003 459.218 175.926 458.961 177.509C458.746 179.112 458.05 180.46 456.874 181.552C455.698 182.645 454.099 183.547 452.077 184.259C451.986 184.291 451.88 184.328 451.76 184.371C451.68 184.433 451.595 184.48 451.504 184.512L449.176 177.902C450.716 177.36 451.809 176.805 452.458 176.237C453.106 175.67 453.228 174.813 452.824 173.666C452.569 172.941 452.141 172.447 451.539 172.184C450.948 171.951 450.078 171.936 448.927 172.137C447.818 172.358 446.327 172.798 444.456 173.457L440.698 174.781C441.5 174.939 442.226 175.362 442.875 176.05C443.535 176.767 444.071 177.664 444.484 178.74C445.225 180.65 445.329 182.344 444.797 183.82C444.307 185.316 443.336 186.608 441.887 187.695C440.468 188.771 438.748 189.666 436.725 190.378C434.25 191.249 431.941 191.724 429.796 191.8C427.652 191.877 425.782 191.382 424.185 190.316C422.629 189.269 421.415 187.509 420.543 185.034ZM425.782 183.291C426.048 184.045 426.501 184.513 427.141 184.695C427.793 184.906 428.607 184.908 429.586 184.699C430.574 184.52 431.733 184.197 433.061 183.73C434.329 183.283 435.414 182.85 436.318 182.43C437.263 182.029 437.938 181.537 438.343 180.954C438.748 180.37 438.791 179.625 438.472 178.72C438.323 178.297 438.089 177.922 437.77 177.593C437.492 177.284 437.169 177.041 436.801 176.865C436.464 176.679 436.133 176.558 435.808 176.503L429.968 178.559C429.063 178.878 428.229 179.257 427.467 179.695C426.746 180.152 426.219 180.677 425.884 181.27C425.55 181.862 425.516 182.536 425.782 183.291Z" fill="#553B92"/>
</g>
<g opacity="0.7">
<path d="M455.099 261.476L464.244 277.96C464.349 277.791 464.509 277.581 464.723 277.329C464.929 277.104 465.152 276.848 465.391 276.561C465.639 276.29 465.87 276.029 466.084 275.778C466.308 275.543 466.477 275.35 466.592 275.198L468.195 278.089C468.049 278.303 467.853 278.588 467.609 278.945C467.348 279.311 467.079 279.703 466.803 280.122C466.526 280.54 466.285 280.962 466.078 281.386C465.854 281.82 465.706 282.189 465.632 282.496L462.589 284.184L451.194 263.643L455.099 261.476ZM442.082 268.3C443.435 267.55 444.662 267.211 445.764 267.285C446.876 267.376 447.876 267.805 448.766 268.571C449.639 269.347 450.417 270.353 451.102 271.587C451.412 272.145 451.652 272.697 451.822 273.243C451.993 273.79 452.089 274.322 452.111 274.841C452.134 275.359 452.085 275.85 451.967 276.314C451.841 276.804 451.631 277.263 451.338 277.691C452.121 277.787 452.925 278.081 453.751 278.574C454.57 279.093 455.302 279.914 455.947 281.037C456.592 282.16 456.945 283.236 457.007 284.263C457.078 285.307 456.846 286.264 456.312 287.135C455.778 288.006 454.937 288.761 453.787 289.399C452.621 290.046 451.535 290.36 450.53 290.343C449.509 290.335 448.582 290.02 447.751 289.398C446.929 288.793 446.212 287.919 445.6 286.777C444.98 285.618 444.666 284.554 444.659 283.585C444.644 282.642 444.817 281.817 445.176 281.109C444.657 281.132 444.165 281.062 443.7 280.9C443.227 280.765 442.776 280.55 442.348 280.257C441.92 279.964 441.519 279.6 441.146 279.166C440.756 278.742 440.406 278.25 440.096 277.692C439.378 276.477 438.937 275.284 438.775 274.114C438.595 272.954 438.761 271.878 439.272 270.887C439.776 269.922 440.713 269.06 442.082 268.3ZM443.7 271.216C443.21 271.488 442.94 271.859 442.891 272.328C442.842 272.798 442.919 273.296 443.124 273.824C443.328 274.352 443.557 274.844 443.81 275.3C444.093 275.851 444.418 276.356 444.784 276.816C445.133 277.286 445.515 277.616 445.93 277.806C446.345 277.996 446.797 277.955 447.287 277.683C447.761 277.42 448.035 277.058 448.111 276.596C448.169 276.143 448.1 275.64 447.903 275.086C447.699 274.558 447.442 274.015 447.132 273.457C446.879 273.001 446.578 272.538 446.229 272.068C445.889 271.616 445.507 271.286 445.083 271.079C444.651 270.898 444.19 270.944 443.7 271.216ZM449.06 280.878C448.722 281.065 448.522 281.342 448.46 281.708C448.38 282.084 448.422 282.537 448.583 283.066C448.744 283.596 449.003 284.182 449.359 284.824C449.762 285.551 450.204 286.069 450.685 286.377C451.158 286.712 451.648 286.738 452.155 286.457C452.662 286.176 452.916 285.736 452.916 285.139C452.909 284.568 452.709 283.928 452.315 283.218C451.958 282.575 451.602 282.032 451.245 281.589C450.881 281.172 450.519 280.898 450.159 280.766C449.781 280.644 449.415 280.681 449.06 280.878Z" fill="#553B92"/>
</g>
<g opacity="0.7">
<path d="M393.692 316.559L397.385 318.852L400.369 314.045L402.733 315.512L409.945 325.701L407.761 329.218L397.932 323.117L396.986 324.641L394.68 323.209L395.626 321.685L391.933 319.393L393.692 316.559ZM401.195 317.86L399.691 320.283L406.413 324.456L401.195 317.86Z" fill="#553B92"/>
</g>
<g opacity="0.7">
<path d="M239.281 276.894L236.803 277.273L229.229 273.848C228.663 273.593 228.123 273.358 227.609 273.142C227.093 272.91 226.578 272.741 226.065 272.633C225.535 272.513 224.989 272.495 224.428 272.581C223.837 272.671 223.408 272.853 223.139 273.127C222.856 273.403 222.746 273.753 222.811 274.178C222.881 274.632 223.063 274.961 223.358 275.164C223.637 275.37 223.989 275.487 224.412 275.515C224.835 275.544 225.289 275.521 225.774 275.446L226.638 275.314L227.163 278.747L226.254 278.886C225.162 279.053 224.167 279.035 223.267 278.831C222.365 278.612 221.623 278.175 221.042 277.52C220.443 276.851 220.053 275.918 219.87 274.721C219.622 273.099 219.859 271.814 220.583 270.865C221.307 269.917 222.434 269.326 223.965 269.092C224.707 268.978 225.414 268.987 226.086 269.117C226.742 269.249 227.395 269.459 228.044 269.748C228.675 270.024 229.334 270.326 230.021 270.655L235.906 273.385L235.068 267.906L237.842 267.482L239.281 276.894Z" fill="#553B92"/>
</g>
<g opacity="0.7">
<path opacity="0.9" d="M407.329 106.981C405.834 106.869 404.654 106.549 403.791 106.023C402.93 105.477 402.334 104.731 402.004 103.783C401.675 102.816 401.561 101.664 401.662 100.328C401.666 100.268 401.671 100.208 401.675 100.148C401.68 100.089 401.684 100.029 401.689 99.9689L406.056 100.297C405.98 101.314 406.023 102.079 406.185 102.593C406.367 103.108 406.847 103.395 407.624 103.453C408.103 103.489 408.483 103.367 408.765 103.088C409.047 102.808 409.264 102.313 409.418 101.602C409.572 100.892 409.694 99.9283 409.786 98.7117L409.972 96.2287C409.66 96.6465 409.226 96.9548 408.669 97.1537C408.113 97.3526 407.485 97.4358 406.785 97.4033C405.487 97.3259 404.473 96.9389 403.744 96.2423C403.015 95.5257 402.523 94.6062 402.266 93.4839C402.029 92.363 401.961 91.1344 402.061 89.7982C402.186 88.1429 402.503 86.7226 403.013 85.5375C403.523 84.3524 404.283 83.4567 405.291 82.8505C406.319 82.2458 407.621 82.0027 409.196 82.121C410.732 82.2363 411.954 82.659 412.862 83.389C413.771 84.0991 414.402 85.049 414.754 86.2387C415.106 87.4284 415.223 88.8011 415.106 90.3567L414.443 99.1818C414.325 100.757 414.039 102.16 413.586 103.389C413.133 104.619 412.41 105.557 411.419 106.205C410.428 106.853 409.065 107.111 407.329 106.981ZM408.337 93.9699C408.795 94.0043 409.173 93.9124 409.47 93.694C409.789 93.4572 410.037 93.2251 410.215 92.9978L410.505 89.1387C410.551 88.5204 410.544 87.9482 410.483 87.4222C410.422 86.8962 410.274 86.4639 410.039 86.1253C409.804 85.7867 409.437 85.5987 408.938 85.5613C408.439 85.5238 408.048 85.6649 407.763 85.9845C407.478 86.3041 407.263 86.7692 407.117 87.38C406.991 87.9923 406.894 88.7372 406.829 89.6147C406.767 90.4324 406.742 91.1626 406.754 91.8053C406.766 92.448 406.878 92.9578 407.091 93.3348C407.323 93.7132 407.738 93.9249 408.337 93.9699Z" fill="#553B92"/>
</g>
<g opacity="0.7">
<path d="M286.012 144.695L279.48 138.399L271.286 146.901L267.104 142.871L256.851 118.924L262.847 112.703L280.231 129.457L282.83 126.761L286.908 130.692L284.31 133.388L290.842 139.683L286.012 144.695ZM271.271 138.754L275.402 134.469L263.512 123.01L271.271 138.754Z" fill="#553B92"/>
</g>
<g opacity="0.7">
<path d="M320.045 82.7968L328.711 65.3286C328.506 65.3381 328.233 65.3256 327.893 65.2908C327.58 65.2471 327.231 65.2079 326.846 65.1733C326.47 65.1208 326.112 65.0772 325.772 65.0425C325.441 64.9898 325.177 64.9594 324.98 64.951L326.5 61.8874C326.769 61.8865 327.126 61.8854 327.574 61.884C328.039 61.8916 328.531 61.89 329.049 61.8795C329.568 61.8689 330.069 61.8271 330.552 61.7541C331.052 61.6899 331.455 61.5992 331.758 61.482L334.983 63.082L324.183 84.8501L320.045 82.7968ZM333.89 90.0344C332.51 89.35 331.533 88.4854 330.957 87.4407C330.408 86.3869 330.194 85.2204 330.316 83.941C330.455 82.6704 330.867 81.3454 331.551 79.9659L335.391 72.2261C336.093 70.8107 336.886 69.6187 337.768 68.65C338.669 67.6901 339.7 67.0966 340.862 66.8694C342.024 66.6422 343.384 66.9153 344.943 67.6886C346.287 68.3553 347.246 69.0992 347.821 69.9203C348.423 70.7324 348.698 71.6394 348.648 72.6413C348.597 73.6432 348.274 74.7443 347.679 75.9447C347.652 75.9985 347.621 76.0612 347.585 76.1328C347.577 76.1955 347.559 76.2537 347.532 76.3074L343.609 74.3607C344.062 73.447 344.31 72.7218 344.353 72.185C344.396 71.6482 344.077 71.2109 343.397 70.8731C342.967 70.6598 342.56 70.6253 342.175 70.7696C341.809 70.9227 341.412 71.2952 340.985 71.8868C340.584 72.4694 340.108 73.3161 339.557 74.4269L338.45 76.6575C338.879 76.3789 339.388 76.2521 339.979 76.2771C340.587 76.311 341.218 76.479 341.872 76.7811C343.036 77.3141 343.821 78.0273 344.226 78.9204C344.659 79.8046 344.787 80.806 344.611 81.9245C344.445 83.0252 344.064 84.1757 343.468 85.3761C342.739 86.8452 341.911 88.0642 340.984 89.0331C340.057 90.0019 339.003 90.5955 337.823 90.8138C336.67 91.0231 335.359 90.7633 333.89 90.0344ZM335.477 86.9705C335.925 87.1928 336.332 87.2049 336.698 87.007C337.082 86.818 337.448 86.4636 337.795 85.9437C338.16 85.4328 338.538 84.7831 338.929 83.9948C339.303 83.2423 339.6 82.5751 339.822 81.993C340.071 81.4019 340.158 80.8873 340.085 80.4493C340.013 80.0113 339.707 79.6589 339.17 79.3922C338.919 79.2678 338.651 79.2015 338.364 79.1935C338.105 79.1764 337.855 79.2085 337.613 79.2897C337.381 79.353 337.18 79.4431 337.01 79.5599L335.29 83.0267C335.024 83.5642 334.815 84.097 334.665 84.6252C334.541 85.1443 334.534 85.6094 334.642 86.0205C334.751 86.4317 335.029 86.7483 335.477 86.9705Z" fill="#553B92"/>
</g>
<g filter="url(#filter1_ddddd_17_855)">
<rect x="199" y="446.887" width="287" height="56" rx="7.62745" fill="#4414AA"/>
</g>
<path d="M302.632 492V457.052H311.692C314.051 457.052 316.064 457.326 317.733 457.872C319.43 458.39 320.724 459.325 321.616 460.677C322.536 462.028 322.996 463.898 322.996 466.285C322.996 467.724 322.867 469.004 322.608 470.125C322.378 471.218 321.947 472.182 321.314 473.016C320.71 473.821 319.847 474.469 318.725 474.958L323.557 492H316.266L312.253 476.166H309.751V492H302.632ZM309.751 471.937H311.822C312.972 471.937 313.878 471.751 314.54 471.377C315.201 471.003 315.662 470.442 315.921 469.694C316.208 468.917 316.352 467.968 316.352 466.846C316.352 465.236 316.05 464.013 315.446 463.179C314.871 462.316 313.778 461.885 312.167 461.885H309.751V471.937ZM337.284 492.475C334.724 492.475 332.696 492.014 331.2 491.094C329.705 490.174 328.626 488.865 327.964 487.168C327.332 485.442 327.015 483.385 327.015 480.998V467.968C327.015 465.581 327.332 463.539 327.964 461.842C328.626 460.144 329.705 458.85 331.2 457.958C332.696 457.067 334.724 456.621 337.284 456.621C339.873 456.621 341.915 457.081 343.41 458.002C344.935 458.893 346.014 460.188 346.646 461.885C347.308 463.553 347.639 465.581 347.639 467.968V480.998C347.639 483.385 347.308 485.442 346.646 487.168C346.014 488.865 344.935 490.174 343.41 491.094C341.915 492.014 339.873 492.475 337.284 492.475ZM337.284 487.34C338.204 487.34 338.88 487.139 339.312 486.736C339.743 486.305 340.031 485.744 340.175 485.054C340.318 484.335 340.39 483.572 340.39 482.767V466.242C340.39 465.437 340.318 464.689 340.175 463.999C340.031 463.308 339.743 462.762 339.312 462.359C338.88 461.928 338.204 461.712 337.284 461.712C336.421 461.712 335.774 461.928 335.342 462.359C334.911 462.762 334.623 463.308 334.479 463.999C334.336 464.689 334.264 465.437 334.264 466.242V482.767C334.264 483.572 334.321 484.335 334.436 485.054C334.58 485.744 334.868 486.305 335.299 486.736C335.731 487.139 336.392 487.34 337.284 487.34ZM352.392 492V457.052H359.511V487.168H367.709V492H352.392ZM371.057 492V457.052H378.176V487.168H386.374V492H371.057Z" fill="#F5F5FA"/>
<defs>
<filter id="filter0_d_17_855" x="305.069" y="174.052" width="66.7454" height="64.363" filterUnits="userSpaceOnUse" color-interpolation-filters="sRGB">
<feFlood flood-opacity="0" result="BackgroundImageFix"/>
<feColorMatrix in="SourceAlpha" type="matrix" values="0 0 0 0 0 0 0 0 0 0 0 0 0 0 0 0 0 0 127 0" result="hardAlpha"/>
<feOffset/>
<feComposite in2="hardAlpha" operator="out"/>
<feColorMatrix type="matrix" values="0 0 0 0 0.264705 0 0 0 0 0.318651 0 0 0 0 0.804167 0 0 0 0.8 0"/>
<feBlend mode="normal" in2="BackgroundImageFix" result="effect1_dropShadow_17_855"/>
<feBlend mode="normal" in="SourceGraphic" in2="effect1_dropShadow_17_855" result="shape"/>
</filter>
<filter id="filter1_ddddd_17_855" x="0" y="409.887" width="685" height="789" filterUnits="userSpaceOnUse" color-interpolation-filters="sRGB">
<feFlood flood-opacity="0" result="BackgroundImageFix"/>
<feColorMatrix in="SourceAlpha" type="matrix" values="0 0 0 0 0 0 0 0 0 0 0 0 0 0 0 0 0 0 127 0" result="hardAlpha"/>
<feOffset/>
<feColorMatrix type="matrix" values="0 0 0 0 0 0 0 0 0 0 0 0 0 0 0 0 0 0 0.1 0"/>
<feBlend mode="normal" in2="BackgroundImageFix" result="effect1_dropShadow_17_855"/>
<feColorMatrix in="SourceAlpha" type="matrix" values="0 0 0 0 0 0 0 0 0 0 0 0 0 0 0 0 0 0 127 0" result="hardAlpha"/>
<feOffset dy="31"/>
<feGaussianBlur stdDeviation="34"/>
<feColorMatrix type="matrix" values="0 0 0 0 0 0 0 0 0 0 0 0 0 0 0 0 0 0 0.1 0"/>
<feBlend mode="normal" in2="effect1_dropShadow_17_855" result="effect2_dropShadow_17_855"/>
<feColorMatrix in="SourceAlpha" type="matrix" values="0 0 0 0 0 0 0 0 0 0 0 0 0 0 0 0 0 0 127 0" result="hardAlpha"/>
<feOffset dy="124"/>
<feGaussianBlur stdDeviation="62"/>
<feColorMatrix type="matrix" values="0 0 0 0 0 0 0 0 0 0 0 0 0 0 0 0 0 0 0.09 0"/>
<feBlend mode="normal" in2="effect2_dropShadow_17_855" result="effect3_dropShadow_17_855"/>
<feColorMatrix in="SourceAlpha" type="matrix" values="0 0 0 0 0 0 0 0 0 0 0 0 0 0 0 0 0 0 127 0" result="hardAlpha"/>
<feOffset dy="280"/>
<feGaussianBlur stdDeviation="84"/>
<feColorMatrix type="matrix" values="0 0 0 0 0 0 0 0 0 0 0 0 0 0 0 0 0 0 0.05 0"/>
<feBlend mode="normal" in2="effect3_dropShadow_17_855" result="effect4_dropShadow_17_855"/>
<feColorMatrix in="SourceAlpha" type="matrix" values="0 0 0 0 0 0 0 0 0 0 0 0 0 0 0 0 0 0 127 0" result="hardAlpha"/>
<feOffset dy="497"/>
<feGaussianBlur stdDeviation="99.5"/>
<feColorMatrix type="matrix" values="0 0 0 0 0 0 0 0 0 0 0 0 0 0 0 0 0 0 0.01 0"/>
<feBlend mode="normal" in2="effect4_dropShadow_17_855" result="effect5_dropShadow_17_855"/>
<feBlend mode="normal" in="SourceGraphic" in2="effect5_dropShadow_17_855" result="shape"/>
</filter>
</defs>
</svg>
