<svg width="685" height="1199" viewBox="0 0 685 1199" fill="none" xmlns="http://www.w3.org/2000/svg">
<path d="M507.922 160.459L383.843 38.1787L220.077 83.3313L176.466 246.09L295.327 368.525L464.311 323.218L507.922 160.459Z" fill="#F5F5FA" stroke="#553B92" stroke-width="10"/>
<path d="M366.373 103.379L415.042 288.793M366.373 103.379L507.922 160.459M366.373 103.379L383.843 38.1787M366.373 103.379L220.077 83.3313M366.373 103.379L232.482 239.876M415.042 288.793L507.922 160.459M415.042 288.793L232.482 239.876M415.042 288.793L295.327 368.525M415.042 288.793L464.311 323.218M507.922 160.459L383.843 38.1787M507.922 160.459L464.311 323.218M383.843 38.1787L220.077 83.3313M464.311 323.218L295.327 368.525M295.327 368.525L176.466 246.09M295.327 368.525L232.482 239.876M176.466 246.09L220.077 83.3313M176.466 246.09L232.482 239.876M220.077 83.3313L232.482 239.876" stroke="#553B92" stroke-width="10"/>
<circle cx="366.114" cy="104.344" r="9.5" transform="rotate(15 366.114 104.344)" stroke="#553B92" stroke-width="6"/>
<circle cx="414.465" cy="287.087" r="9.5" transform="rotate(15 414.465 287.087)" stroke="#553B92" stroke-width="6"/>
<circle cx="233.837" cy="238.684" r="9.5" transform="rotate(15 233.837 238.684)" stroke="#553B92" stroke-width="6"/>
<g filter="url(#filter0_d_17_512)">
<path d="M322.463 228.787L344.435 188.824L330.773 185.163L332.728 177.869L355.724 184.031L354.035 190.336L331.736 231.272L322.463 228.787Z" fill="#553B92"/>
</g>
<g opacity="0.7">
<path d="M221.947 210.314C222.299 211.874 222.279 213.191 221.885 214.264C221.473 215.341 220.756 216.21 219.737 216.871C218.713 217.512 217.489 217.994 216.065 218.315C215.421 218.46 214.803 218.538 214.211 218.549C213.618 218.56 213.062 218.501 212.541 218.372C212.02 218.244 211.546 218.054 211.12 217.801C210.67 217.534 210.275 217.192 209.936 216.777C209.613 217.526 209.087 218.24 208.358 218.917C207.605 219.579 206.578 220.067 205.275 220.382C203.972 220.696 202.802 220.735 201.764 220.497C200.707 220.264 199.823 219.757 199.114 218.974C198.404 218.191 197.899 217.136 197.6 215.809C197.296 214.463 197.298 213.294 197.608 212.301C197.912 211.29 198.494 210.461 199.353 209.816C200.193 209.176 201.268 208.717 202.58 208.442C203.911 208.162 205.058 208.159 206.022 208.434C206.963 208.693 207.732 209.104 208.33 209.666C208.459 209.145 208.671 208.677 208.967 208.261C209.239 207.831 209.582 207.446 209.998 207.106C210.413 206.766 210.89 206.474 211.43 206.229C211.965 205.965 212.554 205.76 213.198 205.615C214.613 205.254 215.925 205.163 217.134 205.341C218.339 205.5 219.359 205.977 220.194 206.773C221.006 207.553 221.59 208.733 221.947 210.314ZM218.582 211.073C218.454 210.507 218.164 210.132 217.713 209.947C217.261 209.762 216.743 209.694 216.16 209.744C215.576 209.794 215.021 209.878 214.495 209.997C213.866 210.118 213.27 210.294 212.707 210.523C212.139 210.733 211.701 211.017 211.392 211.374C211.083 211.73 210.992 212.192 211.12 212.758C211.243 213.304 211.523 213.681 211.96 213.89C212.392 214.08 212.912 214.157 213.519 214.123C214.102 214.073 214.716 213.976 215.36 213.83C215.887 213.711 216.434 213.547 217.001 213.337C217.55 213.131 217.988 212.847 218.316 212.486C218.621 212.11 218.71 211.639 218.582 211.073ZM207.432 213.59C207.344 213.2 207.127 212.921 206.782 212.752C206.432 212.565 205.971 212.474 205.398 212.481C204.825 212.487 204.168 212.574 203.427 212.741C202.588 212.93 201.946 213.219 201.5 213.606C201.031 213.979 200.862 214.458 200.994 215.043C201.126 215.628 201.489 216.008 202.082 216.182C202.651 216.34 203.345 216.327 204.164 216.142C204.905 215.975 205.548 215.778 206.092 215.553C206.612 215.313 206.989 215.033 207.225 214.713C207.456 214.374 207.525 214 207.432 213.59Z" fill="#553B92"/>
</g>
<g opacity="0.7">
<path d="M331.265 293.262L323.189 323.399C323.509 323.319 323.941 323.252 324.485 323.199C324.99 323.169 325.55 323.12 326.164 323.053C326.77 323.017 327.345 322.972 327.89 322.919C328.426 322.897 328.849 322.861 329.161 322.812L327.744 328.098C327.324 328.184 326.763 328.299 326.062 328.442C325.33 328.577 324.559 328.735 323.749 328.915C322.938 329.096 322.166 329.32 321.432 329.587C320.667 329.846 320.065 330.115 319.625 330.395L314.062 328.904L324.124 291.349L331.265 293.262ZM308.226 286.393C310.854 287.097 312.734 288.114 313.868 289.445C315.003 290.776 315.601 292.378 315.662 294.249C315.693 296.113 315.398 298.204 314.777 300.522L307.868 298.671C308.233 297.311 308.462 296.146 308.556 295.178C308.619 294.201 308.496 293.422 308.188 292.843C307.848 292.255 307.226 291.856 306.321 291.647C305.417 291.438 304.677 291.604 304.101 292.145C303.525 292.687 303.029 293.548 302.614 294.728C302.198 295.909 301.771 297.318 301.332 298.957C300.975 300.286 300.738 301.481 300.619 302.542C300.5 303.604 300.594 304.49 300.9 305.202C301.176 305.905 301.777 306.381 302.704 306.629C303.539 306.853 304.313 306.746 305.027 306.308C305.71 305.861 306.32 305.13 306.857 304.114L312.977 305.754L306.752 326.945L289.505 322.324L291.157 316.157L302.516 319.201L305.157 311.014C304.662 311.378 303.936 311.614 302.98 311.722C301.992 311.822 300.98 311.766 299.944 311.555C297.947 311.218 296.439 310.417 295.42 309.15C294.37 307.875 293.781 306.243 293.651 304.253C293.513 302.295 293.792 300.017 294.488 297.421C295.018 295.443 295.634 293.637 296.337 292.003C297.032 290.4 297.9 289.076 298.942 288.03C299.976 287.015 301.249 286.346 302.76 286.022C304.271 285.698 306.093 285.822 308.226 286.393Z" fill="#553B92"/>
</g>
<g opacity="0.7">
<path d="M420.115 182.228L449.544 171.865C449.297 171.646 448.998 171.328 448.647 170.908C448.337 170.509 447.98 170.075 447.578 169.606C447.205 169.126 446.844 168.677 446.492 168.258C446.171 167.828 445.903 167.498 445.686 167.269L450.848 165.452C451.156 165.75 451.568 166.148 452.082 166.645C452.607 167.173 453.173 167.72 453.78 168.287C454.387 168.853 455.007 169.364 455.643 169.819C456.288 170.304 456.851 170.649 457.33 170.853L459.243 176.286L422.571 189.201L420.115 182.228Z" fill="#553B92"/>
</g>
<g opacity="0.7">
<path d="M454.662 261.719L463.807 278.202C463.912 278.034 464.072 277.823 464.286 277.572C464.492 277.347 464.715 277.09 464.954 276.803C465.202 276.533 465.433 276.272 465.647 276.021C465.871 275.786 466.04 275.593 466.154 275.441L467.758 278.332C467.612 278.546 467.416 278.831 467.172 279.188C466.911 279.554 466.642 279.946 466.366 280.364C466.089 280.783 465.848 281.204 465.641 281.629C465.417 282.062 465.269 282.432 465.195 282.738L462.152 284.426L450.757 263.886L454.662 261.719ZM441.668 268.464C443.037 267.704 444.268 267.353 445.361 267.41C446.446 267.493 447.424 267.901 448.295 268.634C449.176 269.384 449.953 270.367 450.629 271.584L451.037 272.32L447.131 274.486C447.113 274.452 447.061 274.359 446.977 274.207C446.902 274.072 446.827 273.937 446.751 273.802C446.369 273.152 446.013 272.63 445.685 272.238C445.349 271.871 445.002 271.644 444.643 271.555C444.285 271.467 443.885 271.545 443.446 271.788C442.989 272.042 442.712 272.339 442.614 272.681C442.526 273.039 442.561 273.462 442.721 273.948C442.88 274.435 443.138 274.999 443.494 275.642C444.066 276.673 444.659 277.383 445.273 277.772C445.896 278.178 446.669 278.136 447.591 277.647C447.608 277.638 447.693 277.591 447.845 277.506C447.997 277.422 448.141 277.342 448.276 277.267L449.88 280.158C449.778 280.214 449.677 280.271 449.576 280.327C449.457 280.392 449.356 280.449 449.271 280.496C448.358 281.002 447.877 281.59 447.828 282.258C447.762 282.936 448.02 283.799 448.601 284.847C449.051 285.659 449.521 286.227 450.011 286.552C450.501 286.877 451.067 286.862 451.71 286.505C452.352 286.149 452.634 285.661 452.556 285.041C452.477 284.421 452.226 283.709 451.802 282.905C451.727 282.77 451.643 282.618 451.549 282.449C451.464 282.297 451.38 282.145 451.296 281.993L455.201 279.826L455.82 280.942C456.486 282.142 456.829 283.278 456.849 284.351C456.878 285.44 456.609 286.429 456.041 287.319C455.474 288.209 454.607 288.977 453.44 289.624C452.274 290.272 451.159 290.614 450.096 290.65C449.033 290.687 448.065 290.417 447.193 289.84C446.303 289.273 445.525 288.389 444.859 287.188C444.193 285.988 443.893 284.85 443.96 283.774C444.009 282.707 444.336 281.863 444.941 281.239C444.341 281.352 443.738 281.321 443.133 281.148C442.529 280.975 441.934 280.62 441.348 280.082C440.772 279.562 440.216 278.82 439.682 277.856C438.997 276.622 438.565 275.425 438.386 274.264C438.215 273.12 438.386 272.053 438.897 271.062C439.409 270.071 440.332 269.205 441.668 268.464Z" fill="#553B92"/>
</g>
<g opacity="0.7">
<path d="M393.692 316.559L397.385 318.852L400.369 314.045L402.733 315.512L409.945 325.701L407.761 329.218L397.932 323.117L396.986 324.641L394.68 323.209L395.626 321.685L391.933 319.393L393.692 316.559ZM401.195 317.86L399.691 320.283L406.413 324.456L401.195 317.86Z" fill="#553B92"/>
</g>
<g opacity="0.7">
<path d="M238.804 272.098C238.982 273.265 238.87 274.26 238.469 275.081C238.049 275.89 237.412 276.538 236.556 277.026C235.697 277.498 234.684 277.824 233.517 278.002L226.969 279.004C225.772 279.187 224.675 279.215 223.678 279.088C222.679 278.946 221.853 278.561 221.198 277.932C220.543 277.303 220.115 276.329 219.914 275.01C219.74 273.873 219.784 272.944 220.046 272.221C220.29 271.486 220.738 270.913 221.388 270.503C222.039 270.094 222.872 269.811 223.888 269.656C223.933 269.649 223.987 269.641 224.047 269.632C224.09 269.609 224.135 269.595 224.18 269.588L224.688 272.907C223.915 273.026 223.35 273.189 222.995 273.399C222.639 273.608 222.505 274.001 222.593 274.577C222.649 274.941 222.806 275.212 223.066 275.389C223.324 275.551 223.732 275.636 224.292 275.644C224.834 275.638 225.575 275.564 226.514 275.42L228.402 275.132C228.038 274.985 227.734 274.722 227.489 274.34C227.243 273.944 227.07 273.474 226.971 272.93C226.793 271.965 226.894 271.158 227.276 270.511C227.64 269.85 228.212 269.328 228.991 268.945C229.755 268.565 230.645 268.297 231.66 268.142C232.903 267.952 234.033 267.934 235.049 268.089C236.066 268.244 236.902 268.643 237.559 269.287C238.199 269.918 238.614 270.855 238.804 272.098ZM236.182 272.453C236.124 272.074 235.952 271.813 235.667 271.671C235.379 271.513 234.996 271.44 234.516 271.451C234.035 271.447 233.461 271.496 232.794 271.598C232.157 271.695 231.608 271.803 231.145 271.92C230.664 272.024 230.303 272.196 230.06 272.435C229.817 272.674 229.731 273.02 229.8 273.475C229.833 273.687 229.909 273.885 230.031 274.068C230.134 274.238 230.265 274.381 230.422 274.497C230.564 274.615 230.709 274.701 230.857 274.756L233.79 274.308C234.245 274.238 234.671 274.134 235.068 273.996C235.449 273.845 235.744 273.644 235.954 273.395C236.164 273.146 236.24 272.832 236.182 272.453Z" fill="#553B92"/>
</g>
<g opacity="0.7">
<path d="M398.298 107.721L399.758 88.2758C399.571 88.3621 399.314 88.453 398.986 88.5487C398.679 88.626 398.341 88.7209 397.971 88.8336C397.603 88.9263 397.255 89.0205 396.927 89.1162C396.601 89.1919 396.345 89.263 396.159 89.3293L396.415 85.9189C396.664 85.8172 396.995 85.6816 397.409 85.5121C397.842 85.3441 398.298 85.1577 398.774 84.9528C399.251 84.7479 399.699 84.5209 400.119 84.2716C400.559 84.0239 400.897 83.7885 401.135 83.5657L404.725 83.8353L402.905 108.067L398.298 107.721ZM413.43 109.188C411.934 109.076 410.755 108.757 409.892 108.231C409.03 107.685 408.434 106.938 408.104 105.991C407.776 105.023 407.662 103.872 407.762 102.535C407.767 102.475 407.771 102.416 407.776 102.356C407.78 102.296 407.785 102.236 407.789 102.176L412.157 102.504C412.081 103.521 412.123 104.287 412.285 104.8C412.467 105.315 412.947 105.602 413.725 105.661C414.204 105.697 414.584 105.575 414.866 105.295C415.147 105.015 415.365 104.52 415.519 103.81C415.672 103.099 415.795 102.136 415.886 100.919L416.073 98.4361C415.76 98.8539 415.326 99.1623 414.77 99.3612C414.213 99.56 413.585 99.6432 412.886 99.6108C411.588 99.5334 410.574 99.1463 409.844 98.4497C409.116 97.7332 408.623 96.8137 408.366 95.6913C408.13 94.5704 408.062 93.3419 408.162 92.0057C408.286 90.3503 408.603 88.9301 409.114 87.745C409.624 86.5598 410.383 85.6642 411.391 85.058C412.419 84.4533 413.721 84.2101 415.297 84.3284C416.833 84.4438 418.054 84.8664 418.962 85.5965C419.872 86.3066 420.502 87.2565 420.854 88.4462C421.206 89.6359 421.324 91.0085 421.207 92.5641L420.544 101.389C420.426 102.965 420.14 104.367 419.686 105.597C419.233 106.826 418.511 107.765 417.519 108.413C416.528 109.06 415.165 109.319 413.43 109.188ZM414.437 96.1773C414.896 96.2118 415.274 96.1198 415.571 95.9015C415.89 95.6646 416.138 95.4326 416.315 95.2052L416.605 91.3461C416.651 90.7278 416.644 90.1557 416.583 89.6297C416.523 89.1036 416.375 88.6713 416.139 88.3328C415.904 87.9942 415.537 87.8062 415.039 87.7687C414.54 87.7313 414.148 87.8724 413.864 88.1919C413.579 88.5115 413.363 88.9767 413.217 89.5875C413.091 90.1997 412.995 90.9446 412.929 91.8221C412.868 92.6398 412.843 93.37 412.855 94.0127C412.867 94.6554 412.979 95.1653 413.191 95.5422C413.423 95.9207 413.839 96.1324 414.437 96.1773Z" fill="#553B92"/>
</g>
<g opacity="0.7">
<path d="M276.378 154.692L253.913 133.041C253.828 133.359 253.677 133.769 253.46 134.271C253.242 134.728 253.014 135.241 252.776 135.812C252.514 136.36 252.275 136.885 252.058 137.386C251.818 137.866 251.644 138.254 251.536 138.55L247.596 134.753C247.724 134.343 247.895 133.797 248.109 133.114C248.345 132.408 248.58 131.657 248.814 130.861C249.048 130.064 249.226 129.28 249.348 128.508C249.492 127.714 249.547 127.056 249.515 126.536L253.512 122.389L281.507 149.369L276.378 154.692ZM287.025 143.644L268.771 114.719L261.409 122.357L257.331 118.427L269.722 105.569L273.247 108.967L292.021 138.46L287.025 143.644Z" fill="#553B92"/>
</g>
<g opacity="0.7">
<path d="M320.045 82.7968L328.711 65.3286C328.506 65.3381 328.233 65.3256 327.893 65.2908C327.58 65.2471 327.231 65.2079 326.846 65.1733C326.47 65.1208 326.112 65.0772 325.772 65.0425C325.441 64.9898 325.177 64.9594 324.98 64.951L326.5 61.8874C326.769 61.8865 327.126 61.8854 327.574 61.884C328.039 61.8916 328.531 61.89 329.049 61.8795C329.568 61.8689 330.069 61.8271 330.552 61.7541C331.052 61.6899 331.455 61.5992 331.758 61.482L334.983 63.082L324.183 84.8501L320.045 82.7968ZM333.85 90.115C332.542 89.4661 331.591 88.6596 330.998 87.6955C330.405 86.7313 330.124 85.6767 330.156 84.5318C330.198 83.3689 330.525 82.1693 331.138 80.9331L335.978 71.1778C336.609 69.9058 337.366 68.8972 338.25 68.1521C339.142 67.389 340.151 66.9521 341.278 66.8413C342.404 66.7305 343.64 67.0084 344.983 67.6751C346.309 68.3329 347.26 69.1394 347.835 70.0947C348.428 71.0588 348.691 72.1268 348.623 73.2988C348.564 74.4528 348.219 75.6658 347.588 76.9378L342.748 86.6931C342.134 87.9294 341.377 88.9156 340.476 89.6518C339.584 90.3701 338.575 90.7847 337.448 90.8955C336.321 91.0063 335.122 90.7461 333.85 90.115ZM335.663 86.4601C336.147 86.7001 336.572 86.7212 336.938 86.5233C337.304 86.3254 337.625 86.0382 337.901 85.6616C338.186 85.2672 338.418 84.8908 338.595 84.5325L343.355 74.9384C343.551 74.5443 343.72 74.1144 343.861 73.6489C344.021 73.1922 344.069 72.7583 344.005 72.347C343.95 71.9179 343.672 71.5789 343.17 71.33C342.668 71.0811 342.221 71.0601 341.828 71.267C341.462 71.465 341.136 71.7611 340.851 72.1556C340.584 72.5589 340.353 72.9576 340.157 73.3518L335.397 82.9458C335.22 83.3042 335.06 83.7161 334.918 84.1816C334.785 84.6293 334.76 85.0631 334.842 85.4833C334.924 85.9034 335.197 86.229 335.663 86.4601Z" fill="#553B92"/>
</g>
<g filter="url(#filter1_ddddd_17_512)">
<rect x="199" y="446.887" width="287" height="56" rx="7.62745" fill="#4414AA"/>
</g>
<path d="M302.632 492V457.052H311.692C314.051 457.052 316.064 457.326 317.733 457.872C319.43 458.39 320.724 459.325 321.616 460.677C322.536 462.028 322.996 463.898 322.996 466.285C322.996 467.724 322.867 469.004 322.608 470.125C322.378 471.218 321.947 472.182 321.314 473.016C320.71 473.821 319.847 474.469 318.725 474.958L323.557 492H316.266L312.253 476.166H309.751V492H302.632ZM309.751 471.937H311.822C312.972 471.937 313.878 471.751 314.54 471.377C315.201 471.003 315.662 470.442 315.921 469.694C316.208 468.917 316.352 467.968 316.352 466.846C316.352 465.236 316.05 464.013 315.446 463.179C314.871 462.316 313.778 461.885 312.167 461.885H309.751V471.937ZM337.284 492.475C334.724 492.475 332.696 492.014 331.2 491.094C329.705 490.174 328.626 488.865 327.964 487.168C327.332 485.442 327.015 483.385 327.015 480.998V467.968C327.015 465.581 327.332 463.539 327.964 461.842C328.626 460.144 329.705 458.85 331.2 457.958C332.696 457.067 334.724 456.621 337.284 456.621C339.873 456.621 341.915 457.081 343.41 458.002C344.935 458.893 346.014 460.188 346.646 461.885C347.308 463.553 347.639 465.581 347.639 467.968V480.998C347.639 483.385 347.308 485.442 346.646 487.168C346.014 488.865 344.935 490.174 343.41 491.094C341.915 492.014 339.873 492.475 337.284 492.475ZM337.284 487.34C338.204 487.34 338.88 487.139 339.312 486.736C339.743 486.305 340.031 485.744 340.175 485.054C340.318 484.335 340.39 483.572 340.39 482.767V466.242C340.39 465.437 340.318 464.689 340.175 463.999C340.031 463.308 339.743 462.762 339.312 462.359C338.88 461.928 338.204 461.712 337.284 461.712C336.421 461.712 335.774 461.928 335.342 462.359C334.911 462.762 334.623 463.308 334.479 463.999C334.336 464.689 334.264 465.437 334.264 466.242V482.767C334.264 483.572 334.321 484.335 334.436 485.054C334.58 485.744 334.868 486.305 335.299 486.736C335.731 487.139 336.392 487.34 337.284 487.34ZM352.392 492V457.052H359.511V487.168H367.709V492H352.392ZM371.057 492V457.052H378.176V487.168H386.374V492H371.057Z" fill="#F5F5FA"/>
<defs>
<filter id="filter0_d_17_512" x="319.311" y="177.869" width="36.4138" height="56.2356" filterUnits="userSpaceOnUse" color-interpolation-filters="sRGB">
<feFlood flood-opacity="0" result="BackgroundImageFix"/>
<feColorMatrix in="SourceAlpha" type="matrix" values="0 0 0 0 0 0 0 0 0 0 0 0 0 0 0 0 0 0 127 0" result="hardAlpha"/>
<feOffset/>
<feComposite in2="hardAlpha" operator="out"/>
<feColorMatrix type="matrix" values="0 0 0 0 0.264705 0 0 0 0 0.318651 0 0 0 0 0.804167 0 0 0 0.8 0"/>
<feBlend mode="normal" in2="BackgroundImageFix" result="effect1_dropShadow_17_512"/>
<feBlend mode="normal" in="SourceGraphic" in2="effect1_dropShadow_17_512" result="shape"/>
</filter>
<filter id="filter1_ddddd_17_512" x="0" y="409.887" width="685" height="789" filterUnits="userSpaceOnUse" color-interpolation-filters="sRGB">
<feFlood flood-opacity="0" result="BackgroundImageFix"/>
<feColorMatrix in="SourceAlpha" type="matrix" values="0 0 0 0 0 0 0 0 0 0 0 0 0 0 0 0 0 0 127 0" result="hardAlpha"/>
<feOffset/>
<feColorMatrix type="matrix" values="0 0 0 0 0 0 0 0 0 0 0 0 0 0 0 0 0 0 0.1 0"/>
<feBlend mode="normal" in2="BackgroundImageFix" result="effect1_dropShadow_17_512"/>
<feColorMatrix in="SourceAlpha" type="matrix" values="0 0 0 0 0 0 0 0 0 0 0 0 0 0 0 0 0 0 127 0" result="hardAlpha"/>
<feOffset dy="31"/>
<feGaussianBlur stdDeviation="34"/>
<feColorMatrix type="matrix" values="0 0 0 0 0 0 0 0 0 0 0 0 0 0 0 0 0 0 0.1 0"/>
<feBlend mode="normal" in2="effect1_dropShadow_17_512" result="effect2_dropShadow_17_512"/>
<feColorMatrix in="SourceAlpha" type="matrix" values="0 0 0 0 0 0 0 0 0 0 0 0 0 0 0 0 0 0 127 0" result="hardAlpha"/>
<feOffset dy="124"/>
<feGaussianBlur stdDeviation="62"/>
<feColorMatrix type="matrix" values="0 0 0 0 0 0 0 0 0 0 0 0 0 0 0 0 0 0 0.09 0"/>
<feBlend mode="normal" in2="effect2_dropShadow_17_512" result="effect3_dropShadow_17_512"/>
<feColorMatrix in="SourceAlpha" type="matrix" values="0 0 0 0 0 0 0 0 0 0 0 0 0 0 0 0 0 0 127 0" result="hardAlpha"/>
<feOffset dy="280"/>
<feGaussianBlur stdDeviation="84"/>
<feColorMatrix type="matrix" values="0 0 0 0 0 0 0 0 0 0 0 0 0 0 0 0 0 0 0.05 0"/>
<feBlend mode="normal" in2="effect3_dropShadow_17_512" result="effect4_dropShadow_17_512"/>
<feColorMatrix in="SourceAlpha" type="matrix" values="0 0 0 0 0 0 0 0 0 0 0 0 0 0 0 0 0 0 127 0" result="hardAlpha"/>
<feOffset dy="497"/>
<feGaussianBlur stdDeviation="99.5"/>
<feColorMatrix type="matrix" values="0 0 0 0 0 0 0 0 0 0 0 0 0 0 0 0 0 0 0.01 0"/>
<feBlend mode="normal" in2="effect4_dropShadow_17_512" result="effect5_dropShadow_17_512"/>
<feBlend mode="normal" in="SourceGraphic" in2="effect5_dropShadow_17_512" result="shape"/>
</filter>
</defs>
</svg>
