<svg width="685" height="1199" viewBox="0 0 685 1199" fill="none" xmlns="http://www.w3.org/2000/svg">
<path d="M507.922 160.459L383.843 38.1787L220.077 83.3313L176.466 246.09L295.327 368.525L464.311 323.218L507.922 160.459Z" fill="#F5F5FA" stroke="#553B92" stroke-width="10"/>
<path d="M366.373 103.379L415.042 288.793M366.373 103.379L507.922 160.459M366.373 103.379L383.843 38.1787M366.373 103.379L220.077 83.3313M366.373 103.379L232.482 239.876M415.042 288.793L507.922 160.459M415.042 288.793L232.482 239.876M415.042 288.793L295.327 368.525M415.042 288.793L464.311 323.218M507.922 160.459L383.843 38.1787M507.922 160.459L464.311 323.218M383.843 38.1787L220.077 83.3313M464.311 323.218L295.327 368.525M295.327 368.525L176.466 246.09M295.327 368.525L232.482 239.876M176.466 246.09L220.077 83.3313M176.466 246.09L232.482 239.876M220.077 83.3313L232.482 239.876" stroke="#553B92" stroke-width="10"/>
<circle cx="366.114" cy="104.344" r="9.5" transform="rotate(15 366.114 104.344)" stroke="#553B92" stroke-width="6"/>
<circle cx="414.465" cy="287.087" r="9.5" transform="rotate(15 414.465 287.087)" stroke="#553B92" stroke-width="6"/>
<circle cx="233.837" cy="238.684" r="9.5" transform="rotate(15 233.837 238.684)" stroke="#553B92" stroke-width="6"/>
<g filter="url(#filter0_d_17_1027)">
<path d="M312.302 226.064L323.069 185.882C322.643 185.988 322.067 186.077 321.341 186.148C320.668 186.188 319.921 186.253 319.102 186.343C318.294 186.391 317.527 186.451 316.802 186.521C316.087 186.551 315.522 186.598 315.107 186.664L316.995 179.616C317.556 179.502 318.304 179.349 319.239 179.157C320.215 178.977 321.243 178.767 322.323 178.526C323.403 178.286 324.433 177.987 325.412 177.631C326.432 177.286 327.235 176.927 327.821 176.554L335.239 178.542L321.822 228.615L312.302 226.064ZM330.208 230.862L332.013 224.124L349.211 208.656C350.493 207.497 351.697 206.384 352.822 205.317C353.988 204.26 354.996 203.138 355.844 201.952C356.744 200.736 357.398 199.365 357.807 197.84C358.237 196.233 358.254 194.934 357.857 193.944C357.471 192.913 356.7 192.243 355.546 191.934C354.31 191.603 353.268 191.699 352.421 192.223C351.585 192.705 350.894 193.47 350.349 194.517C349.803 195.563 349.354 196.746 349.001 198.065L348.371 200.414L339.037 197.912L339.699 195.44C340.494 192.472 341.654 189.956 343.179 187.891C344.746 185.837 346.689 184.437 349.01 183.689C351.382 182.911 354.197 182.959 357.453 183.831C361.862 185.013 364.871 187.056 366.478 189.96C368.085 192.864 368.331 196.397 367.215 200.56C366.674 202.579 365.863 204.372 364.781 205.937C363.71 207.461 362.444 208.889 360.983 210.22C359.574 211.521 358.066 212.862 356.46 214.242L342.923 226.186L357.822 230.178L355.801 237.72L330.208 230.862Z" fill="#553B92"/>
</g>
<g opacity="0.7">
<path d="M223.69 219.669L204.668 223.963C204.806 224.117 204.968 224.336 205.155 224.622C205.319 224.893 205.509 225.188 205.725 225.508C205.921 225.833 206.113 226.138 206.3 226.424C206.468 226.714 206.611 226.938 206.729 227.096L203.393 227.849C203.223 227.642 202.996 227.365 202.713 227.018C202.426 226.653 202.114 226.272 201.779 225.876C201.443 225.48 201.095 225.118 200.734 224.79C200.368 224.442 200.044 224.187 199.762 224.025L198.969 220.513L222.673 215.163L223.69 219.669ZM220.573 204.361C220.912 205.863 220.858 207.167 220.41 208.272C219.939 209.363 219.168 210.265 218.099 210.978C217.025 211.671 215.737 212.187 214.235 212.526L205.807 214.429C204.266 214.777 202.841 214.914 201.533 214.84C200.22 214.747 199.109 214.321 198.2 213.563C197.29 212.804 196.644 211.576 196.261 209.879C195.931 208.416 195.903 207.202 196.177 206.238C196.428 205.259 196.958 204.473 197.767 203.88C198.577 203.287 199.635 202.844 200.942 202.549C201 202.535 201.069 202.52 201.147 202.502C201.201 202.47 201.257 202.447 201.316 202.433L202.28 206.706C201.285 206.93 200.566 207.195 200.122 207.501C199.678 207.806 199.54 208.329 199.708 209.07C199.813 209.539 200.043 209.876 200.398 210.083C200.747 210.271 201.287 210.344 202.016 210.302C202.72 210.246 203.678 210.081 204.887 209.808L207.316 209.26C206.83 209.103 206.41 208.788 206.057 208.314C205.699 207.82 205.432 207.225 205.254 206.527C204.933 205.287 204.991 204.228 205.429 203.35C205.842 202.457 206.538 201.726 207.517 201.157C208.476 200.592 209.609 200.162 210.916 199.867C212.516 199.505 213.984 199.379 215.321 199.487C216.657 199.596 217.783 200.039 218.696 200.817C219.586 201.58 220.212 202.761 220.573 204.361ZM217.194 205.062C217.084 204.574 216.837 204.251 216.452 204.091C216.063 203.913 215.558 203.852 214.935 203.911C214.308 203.95 213.566 204.066 212.707 204.26C211.888 204.445 211.183 204.635 210.591 204.83C209.976 205.01 209.521 205.266 209.227 205.599C208.933 205.932 208.852 206.391 208.984 206.976C209.046 207.25 209.164 207.5 209.338 207.727C209.489 207.939 209.671 208.113 209.887 208.249C210.082 208.389 210.279 208.488 210.477 208.546L214.252 207.694C214.837 207.562 215.382 207.388 215.887 207.171C216.367 206.94 216.733 206.652 216.984 206.309C217.234 205.965 217.304 205.549 217.194 205.062Z" fill="#553B92"/>
</g>
<g opacity="0.7">
<path d="M327.208 292.175L325.853 297.228L312.955 308.829C311.994 309.698 311.091 310.533 310.247 311.334C309.372 312.126 308.617 312.968 307.981 313.857C307.306 314.77 306.815 315.798 306.508 316.941C306.185 318.147 306.173 319.121 306.471 319.863C306.76 320.636 307.338 321.139 308.204 321.371C309.131 321.619 309.912 321.547 310.548 321.154C311.175 320.792 311.693 320.219 312.102 319.434C312.511 318.649 312.848 317.762 313.113 316.773L313.585 315.011L320.586 316.887L320.089 318.742C319.493 320.967 318.623 322.854 317.479 324.403C316.304 325.943 314.847 326.994 313.106 327.555C311.327 328.138 309.216 328.102 306.774 327.448C303.467 326.562 301.21 325.03 300.005 322.851C298.8 320.673 298.615 318.023 299.452 314.901C299.858 313.387 300.466 312.043 301.278 310.869C302.081 309.725 303.03 308.655 304.126 307.656C305.183 306.681 306.314 305.675 307.519 304.64L317.671 295.682L306.497 292.688L308.013 287.031L327.208 292.175Z" fill="#553B92"/>
</g>
<g opacity="0.7">
<path d="M417.524 174.871L422.459 173.133L439.318 177.222C440.579 177.524 441.777 177.797 442.915 178.041C444.063 178.316 445.184 178.464 446.278 178.486C447.412 178.527 448.537 178.352 449.654 177.958C450.831 177.544 451.642 177.004 452.086 176.339C452.56 175.663 452.649 174.902 452.351 174.057C452.032 173.151 451.531 172.548 450.848 172.245C450.195 171.932 449.429 171.829 448.551 171.935C447.672 172.041 446.75 172.264 445.784 172.604L444.063 173.21L441.656 166.373L443.467 165.735C445.64 164.97 447.689 164.622 449.613 164.691C451.547 164.79 453.238 165.399 454.684 166.518C456.17 167.657 457.333 169.419 458.173 171.803C459.311 175.033 459.321 177.76 458.205 179.985C457.088 182.21 455.006 183.86 451.958 184.933C450.479 185.454 449.026 185.711 447.598 185.705C446.202 185.688 444.782 185.509 443.339 185.169C441.937 184.849 440.468 184.484 438.933 184.075L425.806 180.759L429.649 191.67L424.125 193.615L417.524 174.871Z" fill="#553B92"/>
</g>
<g opacity="0.7">
<path d="M455.099 261.476L464.244 277.96C464.349 277.791 464.509 277.581 464.723 277.329C464.929 277.104 465.152 276.848 465.391 276.561C465.639 276.29 465.87 276.029 466.084 275.778C466.308 275.543 466.477 275.35 466.592 275.198L468.195 278.089C468.049 278.303 467.853 278.588 467.609 278.945C467.348 279.311 467.079 279.703 466.803 280.122C466.526 280.54 466.285 280.962 466.078 281.386C465.854 281.82 465.706 282.189 465.632 282.496L462.589 284.184L451.194 263.643L455.099 261.476ZM442.082 268.3C443.435 267.55 444.662 267.211 445.764 267.285C446.876 267.376 447.876 267.805 448.766 268.571C449.639 269.347 450.417 270.353 451.102 271.587C451.412 272.145 451.652 272.697 451.822 273.243C451.993 273.79 452.089 274.322 452.111 274.841C452.134 275.359 452.085 275.85 451.967 276.314C451.841 276.804 451.631 277.263 451.338 277.691C452.121 277.787 452.925 278.081 453.751 278.574C454.57 279.093 455.302 279.914 455.947 281.037C456.592 282.16 456.945 283.236 457.007 284.263C457.078 285.307 456.846 286.264 456.312 287.135C455.778 288.006 454.937 288.761 453.787 289.399C452.621 290.046 451.535 290.36 450.53 290.343C449.509 290.335 448.582 290.02 447.751 289.398C446.929 288.793 446.212 287.919 445.6 286.777C444.98 285.618 444.666 284.554 444.659 283.585C444.644 282.642 444.817 281.817 445.176 281.109C444.657 281.132 444.165 281.062 443.7 280.9C443.227 280.765 442.776 280.55 442.348 280.257C441.92 279.964 441.519 279.6 441.146 279.166C440.756 278.742 440.406 278.25 440.096 277.692C439.378 276.477 438.937 275.284 438.775 274.114C438.595 272.954 438.761 271.878 439.272 270.887C439.776 269.922 440.713 269.06 442.082 268.3ZM443.7 271.216C443.21 271.488 442.94 271.859 442.891 272.328C442.842 272.798 442.919 273.296 443.124 273.824C443.328 274.352 443.557 274.844 443.81 275.3C444.093 275.851 444.418 276.356 444.784 276.816C445.133 277.286 445.515 277.616 445.93 277.806C446.345 277.996 446.797 277.955 447.287 277.683C447.761 277.42 448.035 277.058 448.111 276.596C448.169 276.143 448.1 275.64 447.903 275.086C447.699 274.558 447.442 274.015 447.132 273.457C446.879 273.001 446.578 272.538 446.229 272.068C445.889 271.616 445.507 271.286 445.083 271.079C444.651 270.898 444.19 270.944 443.7 271.216ZM449.06 280.878C448.722 281.065 448.522 281.342 448.46 281.708C448.38 282.084 448.422 282.537 448.583 283.066C448.744 283.596 449.003 284.182 449.359 284.824C449.762 285.551 450.204 286.069 450.685 286.377C451.158 286.712 451.648 286.738 452.155 286.457C452.662 286.176 452.916 285.736 452.916 285.139C452.909 284.568 452.709 283.928 452.315 283.218C451.958 282.575 451.602 282.032 451.245 281.589C450.881 281.172 450.519 280.898 450.159 280.766C449.781 280.644 449.415 280.681 449.06 280.878Z" fill="#553B92"/>
</g>
<g opacity="0.7">
<path d="M393.692 316.559L397.385 318.852L400.369 314.045L402.733 315.512L409.945 325.701L407.761 329.218L397.932 323.117L396.986 324.641L394.68 323.21L395.626 321.685L391.933 319.393L393.692 316.559ZM401.195 317.86L399.691 320.283L406.413 324.456L401.195 317.86Z" fill="#553B92"/>
</g>
<g opacity="0.7">
<path d="M238.804 272.098C238.982 273.265 238.87 274.26 238.469 275.081C238.049 275.89 237.412 276.538 236.556 277.026C235.697 277.498 234.684 277.824 233.517 278.002L226.969 279.004C225.772 279.187 224.675 279.215 223.678 279.088C222.679 278.946 221.853 278.561 221.198 277.932C220.543 277.303 220.115 276.329 219.914 275.01C219.74 273.873 219.784 272.944 220.046 272.221C220.29 271.486 220.738 270.913 221.388 270.503C222.039 270.094 222.872 269.811 223.888 269.656C223.933 269.649 223.987 269.641 224.047 269.632C224.09 269.609 224.135 269.595 224.18 269.588L224.688 272.907C223.915 273.026 223.35 273.189 222.995 273.399C222.639 273.608 222.505 274.001 222.593 274.577C222.649 274.941 222.806 275.212 223.066 275.389C223.324 275.551 223.732 275.636 224.292 275.644C224.834 275.638 225.575 275.564 226.514 275.42L228.402 275.132C228.038 274.985 227.734 274.722 227.489 274.34C227.243 273.944 227.07 273.474 226.971 272.93C226.793 271.965 226.894 271.158 227.276 270.511C227.64 269.85 228.212 269.328 228.991 268.945C229.755 268.565 230.645 268.297 231.66 268.142C232.903 267.952 234.033 267.934 235.049 268.089C236.066 268.244 236.902 268.643 237.559 269.287C238.199 269.918 238.614 270.855 238.804 272.098ZM236.182 272.453C236.124 272.074 235.952 271.813 235.667 271.671C235.379 271.513 234.996 271.44 234.516 271.451C234.035 271.447 233.461 271.496 232.794 271.598C232.157 271.695 231.608 271.803 231.145 271.92C230.664 272.024 230.303 272.196 230.06 272.435C229.817 272.674 229.731 273.02 229.8 273.475C229.833 273.687 229.909 273.885 230.031 274.068C230.134 274.238 230.265 274.381 230.422 274.497C230.564 274.615 230.709 274.701 230.857 274.756L233.79 274.308C234.245 274.238 234.671 274.134 235.068 273.996C235.449 273.845 235.744 273.644 235.954 273.395C236.164 273.146 236.24 272.832 236.182 272.453Z" fill="#553B92"/>
</g>
<g opacity="0.7">
<path d="M407.143 107.057C405.448 106.93 404.175 106.524 403.324 105.838C402.473 105.152 401.92 104.238 401.664 103.096C401.429 101.955 401.368 100.637 401.48 99.1411L405.938 99.4758C405.872 100.353 405.866 101.095 405.921 101.701C405.996 102.308 406.161 102.772 406.418 103.092C406.695 103.414 407.123 103.586 407.703 103.61C408.283 103.633 408.718 103.445 409.009 103.046C409.3 102.647 409.504 102.06 409.622 101.287C409.741 100.514 409.839 99.5984 409.919 98.5414C409.983 97.6838 409.99 96.9222 409.94 96.2565C409.89 95.5909 409.729 95.0574 409.458 94.656C409.208 94.2561 408.783 94.0337 408.185 93.9887C407.646 93.9483 407.183 94.1041 406.796 94.456C406.428 94.8095 406.139 95.3293 405.927 96.0153L401.978 95.7188L403.34 81.9822L414.469 82.818L414.17 86.7968L406.841 86.2463L406.169 91.581C406.431 91.2999 406.85 91.0705 407.425 90.8931C408.019 90.7172 408.647 90.634 409.309 90.6435C410.574 90.6182 411.593 90.9354 412.366 91.5951C413.159 92.2563 413.71 93.1903 414.021 94.3969C414.333 95.5836 414.426 97.0146 414.3 98.6899C414.204 99.9663 414.035 101.147 413.793 102.232C413.553 103.297 413.173 104.211 412.655 104.974C412.138 105.718 411.434 106.277 410.543 106.651C409.653 107.025 408.519 107.161 407.143 107.057Z" fill="#553B92"/>
</g>
<g opacity="0.7">
<path d="M285.894 145.647C284.117 147.491 282.339 148.621 280.559 149.039C278.756 149.434 276.964 149.241 275.185 148.459C273.427 147.654 271.707 146.441 270.025 144.82C269.265 144.087 268.617 143.33 268.082 142.547C267.548 141.765 267.137 140.969 266.85 140.16C266.564 139.351 266.402 138.55 266.365 137.759C266.327 136.922 266.436 136.094 266.692 135.275C265.406 135.502 263.991 135.426 262.445 135.047C260.898 134.623 259.341 133.679 257.776 132.214C256.21 130.749 255.129 129.219 254.534 127.623C253.915 126.005 253.817 124.378 254.24 122.74C254.662 121.103 255.628 119.501 257.138 117.934C258.671 116.345 260.236 115.32 261.834 114.86C263.455 114.378 265.074 114.427 266.691 115.008C268.286 115.567 269.844 116.602 271.366 118.113C272.91 119.646 273.923 121.178 274.404 122.708C274.884 124.192 275.011 125.582 274.786 126.876C275.596 126.59 276.408 126.461 277.223 126.492C278.038 126.477 278.855 126.597 279.674 126.854C280.494 127.11 281.304 127.491 282.105 127.997C282.929 128.48 283.721 129.087 284.481 129.82C286.208 131.395 287.484 133.069 288.308 134.842C289.155 136.591 289.415 138.374 289.086 140.191C288.757 141.962 287.693 143.781 285.894 145.647ZM281.919 141.817C282.563 141.149 282.81 140.431 282.66 139.664C282.51 138.898 282.146 138.146 281.566 137.41C280.987 136.674 280.386 136.006 279.764 135.407C279.049 134.673 278.29 134.031 277.488 133.48C276.708 132.906 275.944 132.569 275.195 132.47C274.446 132.37 273.75 132.655 273.106 133.323C272.484 133.968 272.226 134.675 272.33 135.442C272.457 136.187 272.811 136.949 273.391 137.731C273.97 138.467 274.64 139.201 275.401 139.934C276.023 140.534 276.724 141.121 277.504 141.695C278.261 142.246 279.025 142.583 279.797 142.705C280.568 142.781 281.275 142.485 281.919 141.817ZM268.751 129.126C269.195 128.665 269.378 128.13 269.299 127.521C269.242 126.888 268.957 126.192 268.445 125.432C267.933 124.672 267.24 123.87 266.364 123.026C265.373 122.071 264.423 121.466 263.513 121.211C262.602 120.911 261.814 121.107 261.148 121.798C260.481 122.489 260.293 123.308 260.582 124.253C260.87 125.153 261.498 126.069 262.466 127.002C263.341 127.845 264.169 128.532 264.948 129.061C265.726 129.544 266.433 129.803 267.067 129.836C267.724 129.847 268.285 129.61 268.751 129.126Z" fill="#553B92"/>
</g>
<g opacity="0.7">
<path d="M320.512 82.8502L329.179 65.382C328.973 65.3916 328.7 65.379 328.36 65.3443C328.047 65.3005 327.698 65.2613 327.313 65.2267C326.938 65.1742 326.58 65.1306 326.24 65.0959C325.909 65.0433 325.645 65.0128 325.448 65.0044L326.968 61.9408C327.236 61.9399 327.594 61.9388 328.041 61.9375C328.506 61.945 328.998 61.9434 329.517 61.9329C330.036 61.9223 330.536 61.8805 331.019 61.8075C331.52 61.7433 331.922 61.6527 332.226 61.5354L335.451 63.1354L324.651 84.9035L320.512 82.8502ZM333.78 89.9018C332.257 89.1462 331.23 88.2907 330.7 87.3353C330.169 86.3799 330 85.325 330.193 84.1706C330.405 83.0251 330.843 81.7805 331.51 80.4367L335.514 82.4234C335.123 83.2117 334.839 83.8968 334.662 84.4788C334.503 85.0696 334.482 85.5616 334.6 85.9548C334.735 86.3569 335.067 86.6778 335.595 86.9177C336.124 87.1576 336.598 87.1471 337.017 86.8865C337.437 86.6258 337.847 86.1594 338.247 85.4873C338.648 84.8153 339.084 84.0045 339.555 83.0549C339.937 82.2845 340.23 81.5815 340.434 80.9458C340.637 80.3101 340.689 79.7554 340.589 79.2817C340.508 78.8168 340.198 78.4511 339.66 78.1844C339.177 77.9444 338.689 77.9146 338.198 78.095C337.724 78.2843 337.26 78.6569 336.806 79.2129L333.258 77.4529L339.687 65.2374L349.685 70.1975L347.911 73.7717L341.327 70.505L338.699 75.1955C339.047 75.0334 339.521 74.9783 340.12 75.0301C340.738 75.0908 341.351 75.2499 341.96 75.5074C343.142 75.9599 343.967 76.6372 344.435 77.5391C344.92 78.4499 345.08 79.5227 344.914 80.7576C344.757 81.9745 344.305 83.3354 343.558 84.8404C342.989 85.987 342.389 87.0174 341.757 87.9317C341.133 88.8281 340.438 89.5323 339.67 90.0445C338.911 90.5388 338.049 90.7919 337.083 90.8039C336.117 90.8158 335.016 90.5151 333.78 89.9018Z" fill="#553B92"/>
</g>
<g filter="url(#filter1_ddddd_17_1027)">
<rect x="199" y="446.887" width="287" height="56" rx="7.62745" fill="#4414AA"/>
</g>
<path d="M302.632 492V457.052H311.692C314.051 457.052 316.064 457.326 317.733 457.872C319.43 458.39 320.724 459.325 321.616 460.677C322.536 462.028 322.996 463.898 322.996 466.285C322.996 467.724 322.867 469.004 322.608 470.125C322.378 471.218 321.947 472.182 321.314 473.016C320.71 473.821 319.847 474.469 318.725 474.958L323.557 492H316.266L312.253 476.166H309.751V492H302.632ZM309.751 471.937H311.822C312.972 471.937 313.878 471.751 314.54 471.377C315.201 471.003 315.662 470.442 315.921 469.694C316.208 468.917 316.352 467.968 316.352 466.846C316.352 465.236 316.05 464.013 315.446 463.179C314.871 462.316 313.778 461.885 312.167 461.885H309.751V471.937ZM337.284 492.475C334.724 492.475 332.696 492.014 331.2 491.094C329.705 490.174 328.626 488.865 327.964 487.168C327.332 485.442 327.015 483.385 327.015 480.998V467.968C327.015 465.581 327.332 463.539 327.964 461.842C328.626 460.144 329.705 458.85 331.2 457.958C332.696 457.067 334.724 456.621 337.284 456.621C339.873 456.621 341.915 457.081 343.41 458.002C344.935 458.893 346.014 460.188 346.646 461.885C347.308 463.553 347.639 465.581 347.639 467.968V480.998C347.639 483.385 347.308 485.442 346.646 487.168C346.014 488.865 344.935 490.174 343.41 491.094C341.915 492.014 339.873 492.475 337.284 492.475ZM337.284 487.34C338.204 487.34 338.88 487.139 339.312 486.736C339.743 486.305 340.031 485.744 340.175 485.054C340.318 484.335 340.39 483.572 340.39 482.767V466.242C340.39 465.437 340.318 464.689 340.175 463.999C340.031 463.308 339.743 462.762 339.312 462.359C338.88 461.928 338.204 461.712 337.284 461.712C336.421 461.712 335.774 461.928 335.342 462.359C334.911 462.762 334.623 463.308 334.479 463.999C334.336 464.689 334.264 465.437 334.264 466.242V482.767C334.264 483.572 334.321 484.335 334.436 485.054C334.58 485.744 334.868 486.305 335.299 486.736C335.731 487.139 336.392 487.34 337.284 487.34ZM352.392 492V457.052H359.511V487.168H367.709V492H352.392ZM371.057 492V457.052H378.176V487.168H386.374V492H371.057Z" fill="#F5F5FA"/>
<defs>
<filter id="filter0_d_17_1027" x="305.069" y="173.434" width="65.6746" height="64.6498" filterUnits="userSpaceOnUse" color-interpolation-filters="sRGB">
<feFlood flood-opacity="0" result="BackgroundImageFix"/>
<feColorMatrix in="SourceAlpha" type="matrix" values="0 0 0 0 0 0 0 0 0 0 0 0 0 0 0 0 0 0 127 0" result="hardAlpha"/>
<feOffset/>
<feComposite in2="hardAlpha" operator="out"/>
<feColorMatrix type="matrix" values="0 0 0 0 0.264705 0 0 0 0 0.318651 0 0 0 0 0.804167 0 0 0 0.8 0"/>
<feBlend mode="normal" in2="BackgroundImageFix" result="effect1_dropShadow_17_1027"/>
<feBlend mode="normal" in="SourceGraphic" in2="effect1_dropShadow_17_1027" result="shape"/>
</filter>
<filter id="filter1_ddddd_17_1027" x="0" y="409.887" width="685" height="789" filterUnits="userSpaceOnUse" color-interpolation-filters="sRGB">
<feFlood flood-opacity="0" result="BackgroundImageFix"/>
<feColorMatrix in="SourceAlpha" type="matrix" values="0 0 0 0 0 0 0 0 0 0 0 0 0 0 0 0 0 0 127 0" result="hardAlpha"/>
<feOffset/>
<feColorMatrix type="matrix" values="0 0 0 0 0 0 0 0 0 0 0 0 0 0 0 0 0 0 0.1 0"/>
<feBlend mode="normal" in2="BackgroundImageFix" result="effect1_dropShadow_17_1027"/>
<feColorMatrix in="SourceAlpha" type="matrix" values="0 0 0 0 0 0 0 0 0 0 0 0 0 0 0 0 0 0 127 0" result="hardAlpha"/>
<feOffset dy="31"/>
<feGaussianBlur stdDeviation="34"/>
<feColorMatrix type="matrix" values="0 0 0 0 0 0 0 0 0 0 0 0 0 0 0 0 0 0 0.1 0"/>
<feBlend mode="normal" in2="effect1_dropShadow_17_1027" result="effect2_dropShadow_17_1027"/>
<feColorMatrix in="SourceAlpha" type="matrix" values="0 0 0 0 0 0 0 0 0 0 0 0 0 0 0 0 0 0 127 0" result="hardAlpha"/>
<feOffset dy="124"/>
<feGaussianBlur stdDeviation="62"/>
<feColorMatrix type="matrix" values="0 0 0 0 0 0 0 0 0 0 0 0 0 0 0 0 0 0 0.09 0"/>
<feBlend mode="normal" in2="effect2_dropShadow_17_1027" result="effect3_dropShadow_17_1027"/>
<feColorMatrix in="SourceAlpha" type="matrix" values="0 0 0 0 0 0 0 0 0 0 0 0 0 0 0 0 0 0 127 0" result="hardAlpha"/>
<feOffset dy="280"/>
<feGaussianBlur stdDeviation="84"/>
<feColorMatrix type="matrix" values="0 0 0 0 0 0 0 0 0 0 0 0 0 0 0 0 0 0 0.05 0"/>
<feBlend mode="normal" in2="effect3_dropShadow_17_1027" result="effect4_dropShadow_17_1027"/>
<feColorMatrix in="SourceAlpha" type="matrix" values="0 0 0 0 0 0 0 0 0 0 0 0 0 0 0 0 0 0 127 0" result="hardAlpha"/>
<feOffset dy="497"/>
<feGaussianBlur stdDeviation="99.5"/>
<feColorMatrix type="matrix" values="0 0 0 0 0 0 0 0 0 0 0 0 0 0 0 0 0 0 0.01 0"/>
<feBlend mode="normal" in2="effect4_dropShadow_17_1027" result="effect5_dropShadow_17_1027"/>
<feBlend mode="normal" in="SourceGraphic" in2="effect5_dropShadow_17_1027" result="shape"/>
</filter>
</defs>
</svg>
