<svg width="378" height="642" viewBox="0 0 378 642" fill="none" xmlns="http://www.w3.org/2000/svg">
<path d="M354.922 160.459L230.843 38.1787L67.0765 83.3313L23.4655 246.09L142.327 368.525L311.311 323.218L354.922 160.459Z" fill="#F5F5FA" stroke="#553B92" stroke-width="10"/>
<path d="M213.373 103.379L262.042 288.793M213.373 103.379L354.922 160.459M213.373 103.379L230.843 38.1787M213.373 103.379L67.0765 83.3313M213.373 103.379L79.4824 239.876M262.042 288.793L354.922 160.459M262.042 288.793L79.4824 239.876M262.042 288.793L142.327 368.525M262.042 288.793L311.311 323.218M354.922 160.459L230.843 38.1787M354.922 160.459L311.311 323.218M230.843 38.1787L67.0765 83.3313M311.311 323.218L142.327 368.525M142.327 368.525L23.4655 246.09M142.327 368.525L79.4824 239.876M23.4655 246.09L67.0765 83.3313M23.4655 246.09L79.4824 239.876M67.0765 83.3313L79.4824 239.876" stroke="#553B92" stroke-width="10"/>
<circle cx="213.114" cy="104.344" r="9.5" transform="rotate(15 213.114 104.344)" stroke="#553B92" stroke-width="6"/>
<circle cx="261.465" cy="287.087" r="9.5" transform="rotate(15 261.465 287.087)" stroke="#553B92" stroke-width="6"/>
<circle cx="80.8369" cy="238.684" r="9.5" transform="rotate(15 80.8369 238.684)" stroke="#553B92" stroke-width="6"/>
<g filter="url(#filter0_d_17_455)">
<path d="M163.166 227.1L173.932 186.917C173.506 187.024 172.93 187.112 172.205 187.183C171.531 187.223 170.785 187.288 169.966 187.378C169.158 187.427 168.391 187.486 167.665 187.557C166.951 187.586 166.386 187.634 165.971 187.699L167.859 180.652C168.42 180.537 169.168 180.384 170.102 180.193C171.078 180.012 172.106 179.802 173.187 179.561C174.267 179.321 175.297 179.023 176.276 178.666C177.296 178.321 178.099 177.962 178.685 177.589L186.103 179.577L172.686 229.65L163.166 227.1ZM187.253 233.554L198.02 193.371C197.594 193.478 197.018 193.567 196.293 193.637C195.619 193.678 194.873 193.743 194.054 193.832C193.246 193.881 192.479 193.941 191.753 194.011C191.038 194.04 190.474 194.088 190.059 194.153L191.947 187.106C192.508 186.991 193.255 186.838 194.19 186.647C195.166 186.467 196.194 186.256 197.275 186.016C198.355 185.775 199.385 185.477 200.364 185.121C201.384 184.776 202.187 184.417 202.772 184.043L210.191 186.031L196.774 236.105L187.253 233.554Z" fill="#553B92"/>
</g>
<g opacity="0.7">
<path d="M70.0294 216.743L66.8396 217.463L56.6714 213.7C55.9113 213.42 55.1869 213.163 54.4985 212.929C53.8056 212.675 53.1206 212.502 52.4435 212.409C51.7424 212.3 51.031 212.328 50.3092 212.491C49.5483 212.662 49.0058 212.939 48.6817 213.319C48.338 213.705 48.2279 214.17 48.3512 214.716C48.4833 215.302 48.7504 215.713 49.1525 215.95C49.5351 216.192 50.003 216.312 50.5562 216.31C51.1093 216.308 51.6981 216.237 52.3224 216.096L53.4344 215.845L54.4318 220.264L53.2613 220.528C51.8566 220.845 50.5596 220.912 49.3702 220.73C48.1764 220.528 47.1714 220.027 46.3552 219.227C45.5152 218.412 44.9212 217.233 44.5733 215.692C44.1021 213.605 44.2939 211.911 45.1486 210.611C46.0033 209.311 47.4159 208.438 49.3863 207.994C50.3423 207.778 51.2629 207.724 52.1484 207.831C53.0143 207.943 53.8828 208.158 54.7537 208.474C55.6007 208.774 56.4859 209.108 57.409 209.473L65.3165 212.486L63.7246 205.434L67.2947 204.628L70.0294 216.743Z" fill="#553B92"/>
</g>
<g opacity="0.7">
<path d="M166.673 290.156L158.598 320.293C158.918 320.213 159.35 320.146 159.894 320.093C160.399 320.063 160.959 320.014 161.573 319.947C162.179 319.911 162.754 319.866 163.299 319.813C163.835 319.791 164.258 319.755 164.57 319.706L163.153 324.992C162.733 325.078 162.172 325.193 161.471 325.336C160.739 325.471 159.968 325.629 159.158 325.81C158.347 325.99 157.575 326.214 156.841 326.481C156.076 326.74 155.474 327.009 155.034 327.289L149.47 325.798L159.533 288.243L166.673 290.156Z" fill="#553B92"/>
</g>
<g opacity="0.7">
<path d="M267.543 185.034C266.725 182.709 266.568 180.627 267.074 178.787C267.62 176.966 268.676 175.39 270.243 174.058C271.82 172.756 273.771 171.696 276.095 170.877L289.134 166.286C291.518 165.446 293.757 164.963 295.85 164.836C297.953 164.74 299.798 165.21 301.384 166.246C302.97 167.282 304.226 169.113 305.151 171.739C305.948 174.003 306.218 175.926 305.961 177.509C305.746 179.112 305.05 180.46 303.874 181.552C302.698 182.645 301.099 183.547 299.077 184.259C298.986 184.291 298.88 184.329 298.76 184.371C298.68 184.433 298.595 184.48 298.504 184.512L296.176 177.902C297.716 177.36 298.809 176.805 299.458 176.237C300.106 175.67 300.228 174.813 299.824 173.666C299.569 172.941 299.141 172.447 298.539 172.184C297.948 171.951 297.078 171.936 295.927 172.137C294.818 172.358 293.327 172.798 291.456 173.457L287.698 174.781C288.5 174.939 289.226 175.362 289.875 176.05C290.535 176.767 291.071 177.664 291.484 178.74C292.225 180.65 292.329 182.344 291.797 183.82C291.307 185.316 290.336 186.608 288.887 187.695C287.468 188.771 285.748 189.666 283.725 190.378C281.25 191.25 278.941 191.724 276.796 191.8C274.652 191.877 272.782 191.382 271.185 190.316C269.629 189.269 268.415 187.509 267.543 185.034ZM272.782 183.291C273.048 184.045 273.501 184.513 274.141 184.695C274.793 184.906 275.607 184.908 276.586 184.699C277.574 184.52 278.733 184.197 280.061 183.73C281.329 183.283 282.414 182.85 283.318 182.43C284.263 182.029 284.938 181.537 285.343 180.954C285.748 180.37 285.791 179.625 285.472 178.72C285.323 178.297 285.089 177.922 284.77 177.593C284.492 177.284 284.169 177.041 283.801 176.865C283.464 176.679 283.133 176.558 282.808 176.503L276.968 178.559C276.063 178.878 275.229 179.257 274.467 179.695C273.746 180.152 273.219 180.677 272.884 181.27C272.55 181.862 272.516 182.536 272.782 183.291Z" fill="#553B92"/>
</g>
<g opacity="0.7">
<path d="M294.168 265.512C295.436 264.808 296.558 264.44 297.535 264.407C298.52 264.39 299.398 264.677 300.168 265.267C300.947 265.874 301.65 266.744 302.279 267.877C302.307 267.928 302.335 267.978 302.363 268.029C302.391 268.08 302.419 268.131 302.448 268.181L298.745 270.235C298.267 269.373 297.826 268.777 297.422 268.449C297.002 268.129 296.462 268.152 295.803 268.518C295.397 268.743 295.155 269.043 295.075 269.419C294.996 269.795 295.083 270.31 295.336 270.966C295.59 271.621 296.002 272.464 296.574 273.496L297.742 275.6C297.772 275.097 297.959 274.618 298.303 274.161C298.647 273.705 299.11 273.305 299.693 272.96C300.782 272.333 301.807 272.107 302.766 272.283C303.735 272.475 304.621 272.956 305.424 273.726C306.211 274.506 306.918 275.462 307.546 276.595C308.325 277.998 308.823 279.314 309.04 280.542C309.257 281.77 309.119 282.897 308.626 283.922C308.117 284.956 307.194 285.844 305.859 286.585C304.557 287.307 303.346 287.614 302.225 287.507C301.113 287.416 300.099 286.983 299.183 286.209C298.267 285.435 297.444 284.389 296.712 283.07L292.562 275.589C291.821 274.253 291.307 272.969 291.021 271.735C290.734 270.501 290.819 269.359 291.276 268.31C291.733 267.26 292.697 266.328 294.168 265.512ZM300.262 276.557C299.874 276.773 299.617 277.048 299.493 277.382C299.361 277.742 299.284 278.061 299.261 278.339L301.076 281.611C301.367 282.135 301.676 282.593 302.005 282.986C302.333 283.378 302.682 283.649 303.052 283.798C303.422 283.946 303.818 283.903 304.241 283.669C304.664 283.434 304.905 283.112 304.965 282.703C305.026 282.294 304.953 281.804 304.747 281.233C304.523 280.671 304.206 280.018 303.793 279.274C303.408 278.581 303.041 277.978 302.69 277.465C302.339 276.952 301.978 276.6 301.606 276.408C301.217 276.226 300.77 276.276 300.262 276.557Z" fill="#553B92"/>
</g>
<g opacity="0.7">
<path d="M240.692 316.559L244.385 318.852L247.369 314.045L249.733 315.512L256.945 325.701L254.761 329.218L244.932 323.117L243.986 324.641L241.68 323.209L242.626 321.685L238.933 319.393L240.692 316.559ZM248.195 317.86L246.691 320.283L253.413 324.456L248.195 317.86Z" fill="#553B92"/>
</g>
<g opacity="0.7">
<path d="M85.8036 272.098C85.982 273.265 85.8704 274.26 85.4686 275.081C85.0494 275.89 84.4117 276.538 83.5556 277.026C82.6971 277.498 81.6843 277.824 80.5172 278.002L73.9694 279.004C72.7719 279.187 71.6749 279.215 70.6783 279.088C69.6794 278.946 68.8526 278.561 68.198 277.932C67.5434 277.303 67.1153 276.329 66.9137 275.01C66.7398 273.873 66.7838 272.944 67.0456 272.221C67.2899 271.486 67.7375 270.913 68.3884 270.503C69.0393 270.094 69.8725 269.811 70.888 269.656C70.9335 269.649 70.9865 269.641 71.0471 269.632C71.0903 269.609 71.1346 269.595 71.1801 269.588L71.6877 272.907C70.9146 273.026 70.3503 273.189 69.9945 273.399C69.6388 273.608 69.5049 274.001 69.593 274.577C69.6486 274.941 69.8063 275.212 70.0661 275.389C70.3236 275.551 70.7322 275.636 71.2917 275.644C71.8338 275.638 72.5747 275.564 73.5145 275.42L75.4015 275.132C75.0379 274.986 74.7339 274.722 74.4895 274.34C74.2427 273.944 74.07 273.474 73.9714 272.93C73.7927 271.965 73.8943 271.158 74.2761 270.511C74.6404 269.85 75.2121 269.328 75.9912 268.945C76.7552 268.565 77.6449 268.297 78.6604 268.142C79.9033 267.952 81.0329 267.934 82.0494 268.089C83.0658 268.244 83.9024 268.643 84.5593 269.287C85.1988 269.918 85.6135 270.855 85.8036 272.098ZM83.182 272.453C83.1241 272.074 82.9524 271.813 82.6669 271.671C82.3791 271.513 81.9956 271.44 81.5165 271.451C81.035 271.447 80.4608 271.496 79.7939 271.598C79.1573 271.695 78.6075 271.803 78.1446 271.92C77.6642 272.025 77.3027 272.196 77.06 272.435C76.8173 272.674 76.7307 273.02 76.8002 273.475C76.8327 273.687 76.9094 273.885 77.0305 274.068C77.1341 274.238 77.2645 274.381 77.4218 274.497C77.5639 274.615 77.709 274.701 77.857 274.756L80.7899 274.308C81.2446 274.238 81.6708 274.134 82.0685 273.996C82.4486 273.845 82.7438 273.644 82.9538 273.395C83.1639 273.146 83.24 272.832 83.182 272.453Z" fill="#553B92"/>
</g>
<g opacity="0.7">
<path d="M245.761 107.61L247.221 88.1649C247.034 88.2512 246.777 88.3421 246.448 88.4378C246.142 88.5151 245.804 88.61 245.434 88.7227C245.066 88.8154 244.718 88.9096 244.39 89.0053C244.064 89.081 243.808 89.1521 243.622 89.2184L243.878 85.808C244.127 85.7063 244.458 85.5707 244.871 85.4012C245.305 85.2332 245.76 85.0468 246.237 84.8419C246.714 84.637 247.162 84.41 247.582 84.1607C248.022 83.9129 248.36 83.6776 248.598 83.4548L252.188 83.7244L250.368 107.956L245.761 107.61ZM254.426 108.261L254.671 105L261.245 96.3782C261.735 95.7331 262.192 95.1156 262.617 94.5258C263.063 93.9375 263.429 93.3332 263.716 92.713C264.025 92.0743 264.207 91.386 264.262 90.6481C264.321 89.8703 264.215 89.2707 263.946 88.8494C263.679 88.4081 263.265 88.1665 262.707 88.1245C262.109 88.0796 261.637 88.2147 261.293 88.5298C260.95 88.8249 260.698 89.2372 260.538 89.7667C260.378 90.2962 260.274 90.8801 260.226 91.5183L260.141 92.6551L255.623 92.3158L255.713 91.1192C255.821 89.6832 256.136 88.4233 256.659 87.3394C257.201 86.257 257.975 85.4426 258.978 84.8962C260.004 84.3314 261.304 84.1082 262.879 84.2265C265.013 84.3868 266.577 85.0658 267.57 86.2635C268.563 87.4612 268.984 89.0673 268.833 91.0816C268.759 92.0588 268.542 92.9551 268.18 93.7702C267.819 94.5655 267.36 95.3333 266.803 96.0736C266.268 96.7955 265.69 97.5444 265.07 98.3201L259.875 105L267.085 105.541L266.811 109.191L254.426 108.261Z" fill="#553B92"/>
</g>
<g opacity="0.7">
<path d="M133.012 144.695L126.48 138.399L118.286 146.901L114.104 142.871L103.851 118.924L109.847 112.703L127.231 129.457L129.83 126.761L133.908 130.692L131.31 133.388L137.842 139.683L133.012 144.695ZM118.271 138.754L122.402 134.469L110.512 123.011L118.271 138.754Z" fill="#553B92"/>
</g>
<g opacity="0.7">
<path d="M167.045 82.7968L175.711 65.3286C175.506 65.3382 175.233 65.3256 174.893 65.2909C174.58 65.2471 174.231 65.208 173.846 65.1734C173.47 65.1209 173.112 65.0772 172.772 65.0425C172.441 64.9899 172.177 64.9594 171.98 64.9511L173.5 61.8874C173.769 61.8866 174.126 61.8855 174.574 61.8841C175.039 61.8916 175.531 61.8901 176.049 61.8795C176.568 61.869 177.069 61.8272 177.552 61.7541C178.052 61.69 178.455 61.5993 178.758 61.4821L181.983 63.0821L171.183 84.8501L167.045 82.7968ZM180.85 90.1151C179.542 89.4662 178.591 88.6596 177.998 87.6955C177.405 86.7313 177.124 85.6768 177.156 84.5318C177.198 83.3689 177.525 82.1694 178.138 80.9332L182.978 71.1778C183.609 69.9058 184.366 68.8972 185.25 68.1521C186.142 67.3891 187.151 66.9522 188.278 66.8413C189.404 66.7305 190.64 67.0085 191.983 67.6751C193.309 68.3329 194.26 69.1394 194.835 70.0947C195.428 71.0588 195.691 72.1269 195.623 73.2988C195.564 74.4528 195.219 75.6658 194.588 76.9379L189.748 86.6932C189.134 87.9294 188.377 88.9156 187.476 89.6518C186.584 90.3701 185.575 90.7847 184.448 90.8955C183.321 91.0063 182.122 90.7462 180.85 90.1151ZM182.663 86.4602C183.147 86.7002 183.572 86.7212 183.938 86.5233C184.304 86.3254 184.625 86.0382 184.901 85.6617C185.186 85.2672 185.418 84.8909 185.595 84.5325L190.355 74.9385C190.551 74.5443 190.72 74.1145 190.861 73.6489C191.021 73.1923 191.069 72.7583 191.005 72.3471C190.95 71.9179 190.672 71.5789 190.17 71.33C189.668 71.0811 189.221 71.0601 188.828 71.2671C188.462 71.465 188.136 71.7612 187.851 72.1556C187.584 72.5589 187.353 72.9576 187.157 73.3518L182.397 82.9459C182.22 83.3042 182.06 83.7161 181.918 84.1817C181.785 84.6293 181.76 85.0632 181.842 85.4833C181.924 85.9034 182.197 86.2291 182.663 86.4602Z" fill="#553B92"/>
</g>
<defs>
<filter id="filter0_d_17_455" x="155.933" y="175.088" width="54.2578" height="61.0168" filterUnits="userSpaceOnUse" color-interpolation-filters="sRGB">
<feFlood flood-opacity="0" result="BackgroundImageFix"/>
<feColorMatrix in="SourceAlpha" type="matrix" values="0 0 0 0 0 0 0 0 0 0 0 0 0 0 0 0 0 0 127 0" result="hardAlpha"/>
<feOffset/>
<feComposite in2="hardAlpha" operator="out"/>
<feColorMatrix type="matrix" values="0 0 0 0 0.264705 0 0 0 0 0.318651 0 0 0 0 0.804167 0 0 0 0.8 0"/>
<feBlend mode="normal" in2="BackgroundImageFix" result="effect1_dropShadow_17_455"/>
<feBlend mode="normal" in="SourceGraphic" in2="effect1_dropShadow_17_455" result="shape"/>
</filter>
</defs>
</svg>
