<svg width="685" height="1199" viewBox="0 0 685 1199" fill="none" xmlns="http://www.w3.org/2000/svg">
<path d="M507.922 160.459L383.843 38.1787L220.077 83.3313L176.466 246.09L295.327 368.525L464.311 323.218L507.922 160.459Z" fill="#F5F5FA" stroke="#553B92" stroke-width="10"/>
<path d="M366.373 103.379L415.042 288.793M366.373 103.379L507.922 160.459M366.373 103.379L383.843 38.1787M366.373 103.379L220.077 83.3313M366.373 103.379L232.482 239.876M415.042 288.793L507.922 160.459M415.042 288.793L232.482 239.876M415.042 288.793L295.327 368.525M415.042 288.793L464.311 323.218M507.922 160.459L383.843 38.1787M507.922 160.459L464.311 323.218M383.843 38.1787L220.077 83.3313M464.311 323.218L295.327 368.525M295.327 368.525L176.466 246.09M295.327 368.525L232.482 239.876M176.466 246.09L220.077 83.3313M176.466 246.09L232.482 239.876M220.077 83.3313L232.482 239.876" stroke="#553B92" stroke-width="10"/>
<circle cx="366.114" cy="104.344" r="9.5" transform="rotate(15 366.114 104.344)" stroke="#553B92" stroke-width="6"/>
<circle cx="414.465" cy="287.087" r="9.5" transform="rotate(15 414.465 287.087)" stroke="#553B92" stroke-width="6"/>
<circle cx="233.837" cy="238.684" r="9.5" transform="rotate(15 233.837 238.684)" stroke="#553B92" stroke-width="6"/>
<g filter="url(#filter0_d_17_1084)">
<path d="M331.41 231.979C328.113 231.096 325.646 229.75 324.011 227.943C322.386 226.094 321.455 223.879 321.219 221.298C321.024 218.728 321.33 215.939 322.136 212.93C322.501 211.57 322.967 210.326 323.534 209.197C324.102 208.068 324.765 207.075 325.525 206.218C326.284 205.362 327.114 204.657 328.013 204.102C328.965 203.518 330.002 203.111 331.123 202.882C330.028 201.528 329.203 199.827 328.647 197.779C328.144 195.701 328.242 193.275 328.941 190.503C329.639 187.731 330.728 185.483 332.206 183.758C333.695 181.993 335.531 180.828 337.713 180.265C339.896 179.701 342.389 179.795 345.191 180.546C348.035 181.308 350.241 182.473 351.808 184.041C353.417 185.621 354.404 187.542 354.77 189.804C355.146 192.025 354.944 194.511 354.163 197.261C353.371 200.053 352.237 202.223 350.762 203.771C349.339 205.289 347.8 206.334 346.145 206.907C347.002 207.666 347.676 208.532 348.166 209.502C348.709 210.443 349.096 211.474 349.325 212.596C349.555 213.717 349.633 214.909 349.56 216.17C349.528 217.443 349.33 218.759 348.966 220.119C348.242 223.15 347.112 225.718 345.576 227.824C344.081 229.942 342.168 231.395 339.836 232.183C337.557 232.942 334.748 232.874 331.41 231.979ZM333.315 224.87C334.51 225.19 335.506 225.016 336.304 224.346C337.102 223.676 337.744 222.766 338.229 221.615C338.714 220.464 339.105 219.332 339.404 218.22C339.798 216.912 340.058 215.612 340.183 214.32C340.35 213.04 340.249 211.931 339.882 210.993C339.515 210.056 338.734 209.427 337.539 209.106C336.385 208.797 335.394 208.951 334.566 209.569C333.779 210.197 333.117 211.102 332.58 212.283C332.094 213.434 331.67 214.69 331.305 216.05C331.007 217.162 330.775 218.359 330.608 219.64C330.453 220.879 330.553 221.988 330.909 222.967C331.318 223.916 332.12 224.55 333.315 224.87ZM339.626 201.317C340.45 201.538 341.192 201.406 341.853 200.92C342.554 200.445 343.183 199.664 343.739 198.576C344.296 197.489 344.784 196.162 345.204 194.596C345.678 192.824 345.771 191.324 345.481 190.098C345.243 188.842 344.506 188.048 343.27 187.717C342.034 187.386 340.957 187.693 340.041 188.641C339.177 189.558 338.513 190.881 338.049 192.612C337.629 194.178 337.363 195.587 337.248 196.837C337.186 198.057 337.341 199.048 337.711 199.81C338.122 200.583 338.76 201.085 339.626 201.317Z" fill="#553B92"/>
</g>
<g opacity="0.7">
<path d="M223.36 218.206L204.338 222.5C204.475 222.653 204.638 222.873 204.825 223.159C204.989 223.429 205.178 223.725 205.394 224.045C205.591 224.37 205.783 224.675 205.97 224.961C206.138 225.251 206.281 225.475 206.399 225.633L203.063 226.386C202.893 226.178 202.666 225.901 202.383 225.555C202.095 225.19 201.784 224.809 201.448 224.413C201.113 224.017 200.765 223.655 200.404 223.326C200.038 222.978 199.714 222.724 199.431 222.562L198.639 219.05L222.342 213.7L223.36 218.206ZM221.248 208.852L199.875 208.448L201.334 214.916L197.881 215.695L195.424 204.809L198.409 204.135L220.257 204.463L221.248 208.852Z" fill="#553B92"/>
</g>
<g opacity="0.7">
<path d="M339.765 295.539L338.411 300.593L325.513 312.194C324.551 313.063 323.648 313.898 322.804 314.698C321.929 315.491 321.174 316.332 320.538 317.222C319.863 318.134 319.372 319.162 319.065 320.306C318.742 321.511 318.73 322.485 319.028 323.228C319.318 324.001 319.895 324.504 320.761 324.736C321.688 324.984 322.469 324.912 323.105 324.519C323.732 324.157 324.25 323.583 324.659 322.798C325.068 322.014 325.405 321.127 325.67 320.138L326.142 318.376L333.143 320.252L332.646 322.106C332.05 324.332 331.18 326.219 330.036 327.768C328.861 329.308 327.404 330.359 325.663 330.919C323.884 331.502 321.773 331.467 319.331 330.813C316.024 329.926 313.767 328.394 312.562 326.216C311.357 324.038 311.172 321.388 312.009 318.266C312.415 316.751 313.023 315.407 313.835 314.233C314.638 313.09 315.588 312.019 316.683 311.021C317.74 310.045 318.871 309.04 320.076 308.004L330.228 299.047L319.054 296.053L320.57 290.396L339.765 295.539ZM305.775 285.736C308.031 286.341 309.777 287.305 311.012 288.63C312.247 289.955 313.02 291.52 313.332 293.327C313.634 295.164 313.5 297.148 312.929 299.281L308.419 316.111C307.831 318.306 306.962 320.127 305.812 321.575C304.654 323.054 303.209 324.058 301.477 324.587C299.745 325.117 297.719 325.071 295.401 324.45C293.114 323.837 291.368 322.873 290.164 321.556C288.929 320.231 288.179 318.639 287.915 316.779C287.643 314.951 287.801 312.939 288.39 310.745L292.899 293.914C293.471 291.782 294.347 289.995 295.528 288.556C296.7 287.147 298.152 286.178 299.885 285.649C301.617 285.119 303.58 285.148 305.775 285.736ZM304.085 292.042C303.25 291.818 302.577 291.919 302.066 292.345C301.554 292.771 301.141 293.323 300.827 294.001C300.504 294.71 300.26 295.373 300.095 295.991L295.66 312.544C295.477 313.224 295.349 313.951 295.274 314.726C295.168 315.493 295.23 316.188 295.46 316.813C295.682 317.469 296.225 317.913 297.091 318.145C297.956 318.377 298.664 318.268 299.215 317.82C299.727 317.393 300.144 316.826 300.466 316.117C300.758 315.4 300.995 314.702 301.177 314.022L305.612 297.47C305.778 296.852 305.898 296.155 305.973 295.38C306.04 294.636 305.943 293.947 305.682 293.314C305.421 292.681 304.889 292.257 304.085 292.042Z" fill="#553B92"/>
</g>
<g opacity="0.7">
<path d="M415.797 169.966L445.226 159.603C444.979 159.384 444.68 159.066 444.329 158.646C444.019 158.247 443.662 157.813 443.26 157.344C442.887 156.864 442.525 156.415 442.174 155.996C441.853 155.566 441.585 155.237 441.368 155.007L446.53 153.19C446.838 153.488 447.25 153.886 447.764 154.383C448.289 154.911 448.855 155.458 449.462 156.025C450.068 156.591 450.689 157.102 451.324 157.557C451.97 158.042 452.533 158.387 453.012 158.591L454.925 164.024L418.253 176.939L415.797 169.966ZM423.6 193.714C422.782 191.39 422.625 189.308 423.131 187.467C423.677 185.647 424.733 184.07 426.3 182.738C427.877 181.436 429.828 180.376 432.152 179.558L445.191 174.966C447.575 174.126 449.814 173.643 451.907 173.517C454.01 173.421 455.855 173.891 457.441 174.927C459.027 175.963 460.283 177.794 461.208 180.419C462.005 182.683 462.275 184.607 462.018 186.19C461.802 187.792 461.107 189.14 459.931 190.233C458.755 191.325 457.156 192.228 455.134 192.94C455.043 192.972 454.937 193.009 454.817 193.051C454.737 193.114 454.652 193.161 454.561 193.192L452.233 186.582C453.773 186.04 454.866 185.485 455.515 184.918C456.163 184.35 456.285 183.493 455.881 182.346C455.626 181.622 455.198 181.128 454.596 180.865C454.005 180.632 453.135 180.616 451.984 180.818C450.875 181.039 449.384 181.479 447.513 182.138L443.755 183.461C444.557 183.62 445.283 184.043 445.932 184.73C446.592 185.448 447.128 186.344 447.541 187.42C448.282 189.331 448.386 191.024 447.854 192.501C447.364 193.997 446.393 195.288 444.944 196.375C443.525 197.452 441.805 198.346 439.782 199.058C437.307 199.93 434.998 200.404 432.853 200.481C430.709 200.557 428.838 200.063 427.242 198.996C425.686 197.95 424.472 196.189 423.6 193.714ZM428.839 191.971C429.105 192.726 429.558 193.194 430.198 193.375C430.85 193.587 431.664 193.588 432.643 193.38C433.631 193.201 434.79 192.878 436.118 192.41C437.386 191.964 438.471 191.53 439.375 191.11C440.32 190.71 440.995 190.218 441.4 189.634C441.805 189.05 441.848 188.306 441.529 187.4C441.38 186.978 441.146 186.602 440.827 186.274C440.549 185.964 440.226 185.722 439.858 185.546C439.521 185.359 439.19 185.238 438.865 185.183L433.025 187.24C432.119 187.559 431.286 187.937 430.524 188.375C429.803 188.833 429.276 189.358 428.941 189.95C428.607 190.543 428.573 191.216 428.839 191.971Z" fill="#553B92"/>
</g>
<g opacity="0.7">
<path opacity="0.6" d="M455.099 261.476L464.244 277.96C464.349 277.791 464.509 277.581 464.723 277.329C464.929 277.104 465.152 276.848 465.391 276.561C465.639 276.29 465.87 276.029 466.084 275.778C466.308 275.543 466.477 275.35 466.592 275.198L468.195 278.089C468.049 278.303 467.853 278.588 467.609 278.945C467.348 279.311 467.079 279.703 466.803 280.122C466.526 280.54 466.285 280.962 466.078 281.386C465.854 281.82 465.706 282.189 465.632 282.496L462.589 284.184L451.194 263.643L455.099 261.476ZM442.082 268.3C443.435 267.55 444.662 267.211 445.764 267.285C446.876 267.376 447.876 267.805 448.766 268.571C449.639 269.347 450.417 270.353 451.102 271.587C451.412 272.145 451.652 272.697 451.822 273.243C451.993 273.79 452.089 274.322 452.111 274.841C452.134 275.359 452.085 275.85 451.967 276.314C451.841 276.804 451.631 277.263 451.338 277.691C452.121 277.787 452.925 278.081 453.751 278.574C454.57 279.093 455.302 279.914 455.947 281.037C456.592 282.16 456.945 283.236 457.007 284.263C457.078 285.307 456.846 286.264 456.312 287.135C455.778 288.006 454.937 288.761 453.787 289.399C452.621 290.046 451.535 290.36 450.53 290.343C449.509 290.335 448.582 290.02 447.751 289.398C446.929 288.793 446.212 287.919 445.6 286.777C444.98 285.618 444.666 284.554 444.659 283.585C444.644 282.642 444.817 281.817 445.176 281.109C444.657 281.132 444.165 281.062 443.7 280.9C443.227 280.765 442.776 280.55 442.348 280.257C441.92 279.964 441.519 279.6 441.146 279.166C440.756 278.742 440.406 278.25 440.096 277.692C439.378 276.477 438.937 275.284 438.775 274.114C438.595 272.954 438.761 271.878 439.272 270.887C439.776 269.922 440.713 269.06 442.082 268.3ZM443.7 271.216C443.21 271.488 442.94 271.859 442.891 272.328C442.842 272.798 442.919 273.296 443.124 273.824C443.328 274.352 443.557 274.844 443.81 275.3C444.093 275.851 444.418 276.356 444.784 276.816C445.133 277.286 445.515 277.616 445.93 277.806C446.345 277.996 446.797 277.955 447.287 277.683C447.761 277.42 448.035 277.058 448.111 276.596C448.169 276.143 448.1 275.64 447.903 275.086C447.699 274.558 447.442 274.015 447.132 273.457C446.879 273.001 446.578 272.538 446.229 272.068C445.889 271.616 445.507 271.286 445.083 271.079C444.651 270.898 444.19 270.944 443.7 271.216ZM449.06 280.878C448.722 281.065 448.522 281.342 448.46 281.708C448.38 282.084 448.422 282.537 448.583 283.066C448.744 283.596 449.003 284.182 449.359 284.824C449.762 285.551 450.204 286.069 450.685 286.377C451.158 286.712 451.648 286.738 452.155 286.457C452.662 286.176 452.916 285.736 452.916 285.139C452.909 284.568 452.709 283.928 452.315 283.218C451.958 282.575 451.602 282.032 451.245 281.589C450.881 281.172 450.519 280.898 450.159 280.766C449.781 280.644 449.415 280.681 449.06 280.878Z" fill="#553B92"/>
</g>
<g opacity="0.7">
<path d="M393.692 316.559L397.385 318.852L400.369 314.045L402.733 315.512L409.945 325.701L407.761 329.218L397.932 323.117L396.986 324.641L394.68 323.209L395.626 321.685L391.933 319.393L393.692 316.559ZM401.195 317.86L399.691 320.283L406.413 324.456L401.195 317.86Z" fill="#553B92"/>
</g>
<g opacity="0.7">
<path d="M239.614 279.069L224.835 281.329C224.932 281.454 225.044 281.63 225.172 281.859C225.283 282.075 225.412 282.311 225.56 282.568C225.693 282.826 225.823 283.07 225.951 283.299C226.064 283.53 226.161 283.709 226.243 283.836L223.651 284.232C223.532 284.064 223.374 283.84 223.176 283.56C222.975 283.265 222.758 282.957 222.523 282.637C222.287 282.316 222.04 282.02 221.782 281.749C221.521 281.463 221.287 281.251 221.08 281.112L220.662 278.384L239.078 275.568L239.614 279.069ZM238.607 272.484L236.128 272.863L228.555 269.437C227.988 269.182 227.448 268.947 226.934 268.731C226.418 268.5 225.904 268.33 225.391 268.222C224.86 268.102 224.315 268.084 223.754 268.17C223.163 268.261 222.733 268.443 222.465 268.716C222.181 268.992 222.072 269.343 222.137 269.767C222.206 270.222 222.388 270.551 222.683 270.754C222.963 270.959 223.314 271.076 223.737 271.104C224.16 271.133 224.615 271.11 225.1 271.036L225.964 270.904L226.489 274.337L225.579 274.476C224.488 274.643 223.492 274.624 222.592 274.421C221.69 274.202 220.949 273.765 220.368 273.109C219.769 272.44 219.378 271.507 219.195 270.31C218.947 268.688 219.185 267.403 219.909 266.455C220.632 265.507 221.759 264.915 223.29 264.681C224.033 264.568 224.74 264.576 225.411 264.706C226.068 264.838 226.72 265.049 227.369 265.337C228.001 265.613 228.66 265.915 229.346 266.245L235.231 268.975L234.394 263.495L237.167 263.071L238.607 272.484Z" fill="#553B92"/>
</g>
<g opacity="0.7">
<path d="M399.687 107.388L401.147 87.9428C400.96 88.0291 400.703 88.12 400.374 88.2157C400.068 88.293 399.73 88.3879 399.36 88.5006C398.992 88.5933 398.644 88.6875 398.316 88.7832C397.99 88.8589 397.734 88.93 397.548 88.9963L397.804 85.5859C398.053 85.4842 398.384 85.3486 398.797 85.1791C399.231 85.0111 399.687 84.8247 400.163 84.6198C400.64 84.4149 401.088 84.1879 401.508 83.9386C401.948 83.6908 402.286 83.4555 402.524 83.2327L406.114 83.5023L404.294 107.734L399.687 107.388ZM409.249 108.106L415.89 87.7864L409.278 87.2899L409.543 83.7599L420.672 84.5956L420.443 87.647L413.737 108.443L409.249 108.106Z" fill="#553B92"/>
</g>
<g opacity="0.7">
<path d="M274.643 156.492L252.178 134.841C252.093 135.159 251.942 135.57 251.725 136.071C251.507 136.528 251.279 137.041 251.041 137.612C250.779 138.16 250.54 138.685 250.323 139.186C250.083 139.666 249.909 140.054 249.801 140.35L245.861 136.553C245.989 136.143 246.16 135.597 246.374 134.914C246.61 134.208 246.845 133.457 247.079 132.661C247.314 131.864 247.491 131.08 247.613 130.308C247.757 129.514 247.812 128.856 247.78 128.336L251.777 124.189L279.772 151.169L274.643 156.492ZM292.469 138.963C290.848 140.645 289.159 141.706 287.402 142.146C285.645 142.586 283.9 142.505 282.169 141.903C280.415 141.279 278.743 140.201 277.153 138.669L264.607 126.578C262.972 125.001 261.798 123.36 261.088 121.653C260.354 119.924 260.175 118.173 260.55 116.401C260.924 114.629 261.944 112.879 263.61 111.151C265.253 109.446 266.942 108.385 268.677 107.968C270.434 107.528 272.19 107.643 273.945 108.312C275.677 108.959 277.361 110.071 278.997 111.647L291.543 123.738C293.133 125.271 294.272 126.902 294.96 128.632C295.625 130.339 295.77 132.079 295.396 133.851C295.021 135.623 294.046 137.327 292.469 138.963ZM287.768 134.433C288.368 133.811 288.605 133.173 288.48 132.519C288.355 131.865 288.072 131.237 287.63 130.634C287.166 130.009 286.704 129.474 286.243 129.03L273.904 117.139C273.397 116.65 272.823 116.186 272.181 115.745C271.562 115.281 270.923 114.999 270.265 114.898C269.583 114.774 268.932 115.035 268.31 115.681C267.688 116.326 267.441 116.998 267.567 117.697C267.692 118.351 267.987 118.991 268.451 119.616C268.937 120.218 269.434 120.763 269.941 121.252L282.279 133.143C282.74 133.587 283.291 134.03 283.933 134.47C284.552 134.889 285.202 135.137 285.882 135.215C286.562 135.293 287.191 135.032 287.768 134.433Z" fill="#553B92"/>
</g>
<g opacity="0.7">
<path d="M328.56 85.3665C327.109 84.6465 326.086 83.8044 325.493 82.8403C324.926 81.8671 324.7 80.7945 324.812 79.6224C324.934 78.4325 325.315 77.1925 325.955 75.9025L326.341 75.1232L330.48 77.1765C330.462 77.2124 330.413 77.3109 330.333 77.4721C330.262 77.6155 330.191 77.7588 330.12 77.9021C329.791 78.6097 329.556 79.2187 329.414 79.7289C329.3 80.2302 329.31 80.6595 329.445 81.0168C329.58 81.3742 329.881 81.6684 330.347 81.8995C330.831 82.1395 331.247 82.2009 331.595 82.0835C331.952 81.9482 332.292 81.6699 332.612 81.2485C332.933 80.8272 333.262 80.2761 333.6 79.5953C334.142 78.5024 334.399 77.5803 334.37 76.8291C334.349 76.0599 333.86 75.4264 332.901 74.9285C332.883 74.9196 332.794 74.8752 332.632 74.7952C332.471 74.7152 332.319 74.6396 332.176 74.5685L333.696 71.5048C333.803 71.5582 333.911 71.6115 334.018 71.6648C334.144 71.7271 334.251 71.7804 334.341 71.8248C335.308 72.3048 336.091 72.3695 336.689 72.0188C337.305 71.677 337.889 70.9507 338.44 69.8399C338.867 68.98 339.075 68.2459 339.064 67.6377C339.053 67.0295 338.707 66.5565 338.026 66.2188C337.345 65.881 336.764 65.9275 336.283 66.3583C335.801 66.7891 335.342 67.4211 334.906 68.2543C334.835 68.3976 334.755 68.5589 334.666 68.738C334.586 68.8993 334.506 69.0605 334.426 69.2218L330.288 67.1684L330.875 65.986C331.506 64.7139 332.272 63.7545 333.173 63.1077C334.084 62.443 335.084 62.0911 336.175 62.052C337.266 62.0128 338.43 62.2999 339.666 62.9132C340.902 63.5266 341.848 64.275 342.504 65.1584C343.16 66.0419 343.498 67.0247 343.519 68.1069C343.559 69.198 343.263 70.3796 342.631 71.6516C342 72.9237 341.207 73.8474 340.252 74.4228C339.315 75.007 338.403 75.2245 337.517 75.0752C337.966 75.521 338.294 76.0522 338.501 76.6687C338.709 77.2852 338.756 78.0006 338.642 78.8149C338.537 79.6113 338.231 80.5201 337.725 81.5413C337.076 82.8492 336.31 83.9204 335.427 84.755C334.553 85.5716 333.544 86.0532 332.399 86.1999C331.255 86.3465 329.975 86.0687 328.56 85.3665Z" fill="#553B92"/>
</g>
<g filter="url(#filter1_ddddd_17_1084)">
<rect x="199" y="446.887" width="287" height="56" rx="7.62745" fill="#4414AA"/>
</g>
<path d="M302.632 492V457.052H311.692C314.051 457.052 316.064 457.326 317.733 457.872C319.43 458.39 320.724 459.325 321.616 460.677C322.536 462.028 322.996 463.898 322.996 466.285C322.996 467.724 322.867 469.004 322.608 470.125C322.378 471.218 321.947 472.182 321.314 473.016C320.71 473.821 319.847 474.469 318.725 474.958L323.557 492H316.266L312.253 476.166H309.751V492H302.632ZM309.751 471.937H311.822C312.972 471.937 313.878 471.751 314.54 471.377C315.201 471.003 315.662 470.442 315.921 469.694C316.208 468.917 316.352 467.968 316.352 466.846C316.352 465.236 316.05 464.013 315.446 463.179C314.871 462.316 313.778 461.885 312.167 461.885H309.751V471.937ZM337.284 492.475C334.724 492.475 332.696 492.014 331.2 491.094C329.705 490.174 328.626 488.865 327.964 487.168C327.332 485.442 327.015 483.385 327.015 480.998V467.968C327.015 465.581 327.332 463.539 327.964 461.842C328.626 460.144 329.705 458.85 331.2 457.958C332.696 457.067 334.724 456.621 337.284 456.621C339.873 456.621 341.915 457.081 343.41 458.002C344.935 458.893 346.014 460.188 346.646 461.885C347.308 463.553 347.639 465.581 347.639 467.968V480.998C347.639 483.385 347.308 485.442 346.646 487.168C346.014 488.865 344.935 490.174 343.41 491.094C341.915 492.014 339.873 492.475 337.284 492.475ZM337.284 487.34C338.204 487.34 338.88 487.139 339.312 486.736C339.743 486.305 340.031 485.744 340.175 485.054C340.318 484.335 340.39 483.572 340.39 482.767V466.242C340.39 465.437 340.318 464.689 340.175 463.999C340.031 463.308 339.743 462.762 339.312 462.359C338.88 461.928 338.204 461.712 337.284 461.712C336.421 461.712 335.774 461.928 335.342 462.359C334.911 462.762 334.623 463.308 334.479 463.999C334.336 464.689 334.264 465.437 334.264 466.242V482.767C334.264 483.572 334.321 484.335 334.436 485.054C334.58 485.744 334.868 486.305 335.299 486.736C335.731 487.139 336.392 487.34 337.284 487.34ZM352.392 492V457.052H359.511V487.168H367.709V492H352.392ZM371.057 492V457.052H378.176V487.168H386.374V492H371.057Z" fill="#F5F5FA"/>
<defs>
<filter id="filter0_d_17_1084" x="317.995" y="176.951" width="40.7349" height="58.6558" filterUnits="userSpaceOnUse" color-interpolation-filters="sRGB">
<feFlood flood-opacity="0" result="BackgroundImageFix"/>
<feColorMatrix in="SourceAlpha" type="matrix" values="0 0 0 0 0 0 0 0 0 0 0 0 0 0 0 0 0 0 127 0" result="hardAlpha"/>
<feOffset/>
<feComposite in2="hardAlpha" operator="out"/>
<feColorMatrix type="matrix" values="0 0 0 0 0.264705 0 0 0 0 0.318651 0 0 0 0 0.804167 0 0 0 0.8 0"/>
<feBlend mode="normal" in2="BackgroundImageFix" result="effect1_dropShadow_17_1084"/>
<feBlend mode="normal" in="SourceGraphic" in2="effect1_dropShadow_17_1084" result="shape"/>
</filter>
<filter id="filter1_ddddd_17_1084" x="0" y="409.887" width="685" height="789" filterUnits="userSpaceOnUse" color-interpolation-filters="sRGB">
<feFlood flood-opacity="0" result="BackgroundImageFix"/>
<feColorMatrix in="SourceAlpha" type="matrix" values="0 0 0 0 0 0 0 0 0 0 0 0 0 0 0 0 0 0 127 0" result="hardAlpha"/>
<feOffset/>
<feColorMatrix type="matrix" values="0 0 0 0 0 0 0 0 0 0 0 0 0 0 0 0 0 0 0.1 0"/>
<feBlend mode="normal" in2="BackgroundImageFix" result="effect1_dropShadow_17_1084"/>
<feColorMatrix in="SourceAlpha" type="matrix" values="0 0 0 0 0 0 0 0 0 0 0 0 0 0 0 0 0 0 127 0" result="hardAlpha"/>
<feOffset dy="31"/>
<feGaussianBlur stdDeviation="34"/>
<feColorMatrix type="matrix" values="0 0 0 0 0 0 0 0 0 0 0 0 0 0 0 0 0 0 0.1 0"/>
<feBlend mode="normal" in2="effect1_dropShadow_17_1084" result="effect2_dropShadow_17_1084"/>
<feColorMatrix in="SourceAlpha" type="matrix" values="0 0 0 0 0 0 0 0 0 0 0 0 0 0 0 0 0 0 127 0" result="hardAlpha"/>
<feOffset dy="124"/>
<feGaussianBlur stdDeviation="62"/>
<feColorMatrix type="matrix" values="0 0 0 0 0 0 0 0 0 0 0 0 0 0 0 0 0 0 0.09 0"/>
<feBlend mode="normal" in2="effect2_dropShadow_17_1084" result="effect3_dropShadow_17_1084"/>
<feColorMatrix in="SourceAlpha" type="matrix" values="0 0 0 0 0 0 0 0 0 0 0 0 0 0 0 0 0 0 127 0" result="hardAlpha"/>
<feOffset dy="280"/>
<feGaussianBlur stdDeviation="84"/>
<feColorMatrix type="matrix" values="0 0 0 0 0 0 0 0 0 0 0 0 0 0 0 0 0 0 0.05 0"/>
<feBlend mode="normal" in2="effect3_dropShadow_17_1084" result="effect4_dropShadow_17_1084"/>
<feColorMatrix in="SourceAlpha" type="matrix" values="0 0 0 0 0 0 0 0 0 0 0 0 0 0 0 0 0 0 127 0" result="hardAlpha"/>
<feOffset dy="497"/>
<feGaussianBlur stdDeviation="99.5"/>
<feColorMatrix type="matrix" values="0 0 0 0 0 0 0 0 0 0 0 0 0 0 0 0 0 0 0.01 0"/>
<feBlend mode="normal" in2="effect4_dropShadow_17_1084" result="effect5_dropShadow_17_1084"/>
<feBlend mode="normal" in="SourceGraphic" in2="effect5_dropShadow_17_1084" result="shape"/>
</filter>
</defs>
</svg>
