<svg width="471" height="672" viewBox="0 0 471 672" fill="none" xmlns="http://www.w3.org/2000/svg">
<g filter="url(#filter0_f_17_4783)">
<path d="M132.048 383.989L305.272 402.48L405.356 265.216L338.197 110.678L168.961 88.8186L64.8896 229.451L132.048 383.989Z" fill="#F5F5FA" stroke="#553B92" stroke-width="10"/>
<path d="M278.368 340.573L124.879 225.734M278.368 340.573L132.048 383.989M278.368 340.573L305.272 402.48M278.368 340.573L405.356 265.216M278.368 340.573L298.218 150.404M124.879 225.734L132.048 383.989M124.879 225.734L298.218 150.404M124.879 225.734L168.961 88.8186M124.879 225.734L64.8896 229.451M132.048 383.989L305.272 402.48M132.048 383.989L64.8896 229.451M305.272 402.48L405.356 265.216M64.8896 229.451L168.961 88.8186M168.961 88.8186L338.197 110.678M168.961 88.8186L298.218 150.404M338.197 110.678L405.356 265.216M338.197 110.678L298.218 150.404M405.356 265.216L298.218 150.404" stroke="#553B92" stroke-width="10"/>
<circle cx="277.97" cy="339.655" r="9.5" transform="rotate(156.511 277.97 339.655)" stroke="#553B92" stroke-width="6"/>
<circle cx="126.393" cy="226.709" r="9.5" transform="rotate(156.511 126.393 226.709)" stroke="#553B92" stroke-width="6"/>
<circle cx="297.9" cy="152.178" r="9.5" transform="rotate(156.511 297.9 152.178)" stroke="#553B92" stroke-width="6"/>
<g filter="url(#filter1_d_17_4783)">
<path d="M190.006 242.89L194.933 237.952L217.556 233.133C219.245 232.769 220.844 232.405 222.352 232.042C223.89 231.708 225.323 231.239 226.65 230.635C228.037 230.03 229.288 229.169 230.403 228.051C231.579 226.874 232.242 225.757 232.391 224.701C232.571 223.614 232.238 222.649 231.393 221.805C230.487 220.901 229.536 220.465 228.541 220.496C227.575 220.497 226.595 220.814 225.6 221.449C224.605 222.084 223.625 222.884 222.661 223.85L220.943 225.572L214.102 218.745L215.911 216.933C218.081 214.759 220.342 213.157 222.694 212.129C225.077 211.131 227.46 210.888 229.844 211.398C232.288 211.909 234.703 213.354 237.089 215.736C240.32 218.961 241.907 222.232 241.85 225.551C241.793 228.87 240.243 232.054 237.199 235.104C235.722 236.584 234.124 237.732 232.405 238.549C230.716 239.335 228.907 239.94 226.976 240.364C225.106 240.788 223.13 241.198 221.049 241.592L203.358 245.185L214.275 256.08L208.76 261.607L190.006 242.89ZM222.752 276.837C220.547 274.637 219.172 272.361 218.627 270.008C218.082 267.655 218.23 265.332 219.073 263.038C219.945 260.714 221.421 258.51 223.501 256.427L239.912 239.983C242.052 237.839 244.268 236.313 246.56 235.406C248.882 234.468 251.22 234.27 253.574 234.81C255.928 235.351 258.237 236.752 260.502 239.012C262.737 241.243 264.112 243.519 264.627 245.842C265.173 248.194 264.979 250.533 264.046 252.857C263.143 255.151 261.622 257.37 259.482 259.514L243.071 275.957C240.991 278.041 238.79 279.522 236.468 280.399C234.176 281.246 231.853 281.399 229.499 280.858C227.145 280.318 224.896 278.977 222.752 276.837ZM228.901 270.677C229.716 271.49 230.561 271.821 231.436 271.67C232.311 271.518 233.155 271.155 233.969 270.581C234.813 269.977 235.537 269.373 236.139 268.769L252.279 252.597C252.943 251.932 253.575 251.178 254.178 250.332C254.811 249.517 255.202 248.672 255.352 247.797C255.532 246.892 255.199 246.017 254.354 245.173C253.508 244.329 252.618 243.983 251.683 244.135C250.808 244.286 249.948 244.664 249.104 245.269C248.29 245.903 247.552 246.552 246.889 247.217L230.749 263.389C230.146 263.993 229.543 264.717 228.941 265.563C228.368 266.378 228.022 267.238 227.902 268.143C227.783 269.049 228.115 269.893 228.901 270.677Z" fill="#553B92"/>
</g>
<g opacity="0.7">
<path d="M124.483 201.172L105.857 195.398C105.899 195.6 105.93 195.871 105.95 196.212C105.957 196.528 105.974 196.879 106.001 197.264C106.009 197.644 106.023 198.004 106.043 198.345C106.043 198.68 106.055 198.946 106.079 199.141L102.812 198.129C102.768 197.864 102.71 197.511 102.638 197.07C102.571 196.609 102.491 196.124 102.398 195.613C102.305 195.103 102.184 194.615 102.035 194.15C101.892 193.666 101.738 193.284 101.574 193.002L102.64 189.564L125.851 196.759L124.483 201.172ZM129.423 186.351C128.967 187.822 128.269 188.924 127.329 189.659C126.376 190.369 125.259 190.766 123.976 190.85C122.7 190.915 121.326 190.719 119.855 190.263L111.603 187.705C110.094 187.237 108.79 186.645 107.694 185.928C106.603 185.192 105.852 184.268 105.443 183.157C105.034 182.046 105.087 180.66 105.602 178.998C106.046 177.565 106.628 176.499 107.347 175.801C108.052 175.077 108.904 174.661 109.901 174.551C110.898 174.442 112.037 174.585 113.317 174.982C113.374 175 113.441 175.02 113.517 175.044C113.581 175.043 113.641 175.051 113.698 175.069L112.401 179.252C111.427 178.95 110.672 178.821 110.135 178.864C109.598 178.907 109.217 179.291 108.992 180.017C108.85 180.476 108.881 180.883 109.084 181.239C109.294 181.576 109.725 181.909 110.377 182.237C111.016 182.539 111.928 182.874 113.112 183.242L115.49 183.979C115.147 183.6 114.941 183.118 114.871 182.531C114.808 181.925 114.873 181.275 115.067 180.581C115.408 179.347 115.987 178.458 116.804 177.916C117.608 177.349 118.577 177.063 119.709 177.058C120.822 177.047 122.018 177.24 123.298 177.636C124.865 178.122 126.2 178.745 127.304 179.507C128.408 180.268 129.162 181.213 129.566 182.343C129.956 183.448 129.908 184.784 129.423 186.351ZM126.145 185.272C126.293 184.794 126.24 184.391 125.987 184.061C125.739 183.712 125.331 183.407 124.762 183.147C124.2 182.868 123.498 182.598 122.658 182.338C121.855 182.089 121.149 181.901 120.539 181.775C119.916 181.624 119.394 181.619 118.973 181.761C118.552 181.902 118.253 182.26 118.075 182.833C117.993 183.1 117.97 183.376 118.008 183.66C118.032 183.919 118.104 184.161 118.222 184.386C118.322 184.605 118.443 184.789 118.585 184.938L122.281 186.084C122.855 186.262 123.414 186.383 123.959 186.447C124.491 186.487 124.952 186.42 125.34 186.247C125.729 186.075 125.997 185.749 126.145 185.272Z" fill="#553B92"/>
</g>
<g opacity="0.7">
<path d="M172.471 310.159L150.431 332.242C150.748 332.332 151.156 332.49 151.654 332.716C152.106 332.942 152.616 333.179 153.182 333.427C153.725 333.698 154.246 333.947 154.744 334.172C155.219 334.421 155.604 334.602 155.898 334.714L152.033 338.587C151.625 338.452 151.082 338.272 150.403 338.046C149.701 337.798 148.954 337.55 148.162 337.302C147.37 337.053 146.589 336.862 145.82 336.727C145.028 336.569 144.371 336.502 143.851 336.525L139.774 332.456L167.239 304.937L172.471 310.159Z" fill="#553B92"/>
</g>
<g opacity="0.7">
<path d="M172.471 310.159L150.431 332.242C150.748 332.332 151.156 332.49 151.654 332.716C152.106 332.942 152.616 333.179 153.182 333.427C153.725 333.698 154.246 333.947 154.744 334.172C155.219 334.421 155.604 334.602 155.898 334.714L152.033 338.587C151.625 338.452 151.082 338.272 150.403 338.046C149.701 337.798 148.954 337.55 148.162 337.302C147.37 337.053 146.589 336.862 145.82 336.727C145.028 336.569 144.371 336.502 143.851 336.525L139.774 332.456L167.239 304.937L172.471 310.159Z" fill="#553B92"/>
</g>
<g opacity="0.7">
<path d="M314.805 259.105L319.948 260.062L332.517 272.019C333.457 272.911 334.36 273.746 335.224 274.525C336.082 275.336 336.979 276.024 337.916 276.589C338.878 277.191 339.941 277.6 341.105 277.817C342.332 278.045 343.304 277.982 344.021 277.627C344.769 277.278 345.226 276.663 345.389 275.782C345.565 274.839 345.432 274.065 344.991 273.462C344.582 272.865 343.97 272.393 343.155 272.047C342.341 271.7 341.431 271.433 340.424 271.245L338.631 270.912L339.957 263.786L341.844 264.137C344.11 264.559 346.059 265.28 347.691 266.3C349.319 267.351 350.479 268.723 351.173 270.414C351.893 272.143 352.022 274.25 351.559 276.735C350.933 280.102 349.581 282.47 347.503 283.841C345.425 285.212 342.797 285.602 339.62 285.01C338.078 284.724 336.69 284.221 335.457 283.503C334.255 282.791 333.114 281.928 332.033 280.913C330.978 279.936 329.888 278.886 328.762 277.765L319.042 268.34L316.926 279.713L311.169 278.641L314.805 259.105Z" fill="#553B92"/>
</g>
<g opacity="0.7">
<path d="M304.135 352.904L303.832 371.752C304.007 371.658 304.251 371.555 304.562 371.444C304.853 371.352 305.174 371.242 305.524 371.112C305.874 371.001 306.205 370.891 306.516 370.78C306.827 370.688 307.07 370.605 307.245 370.53L307.192 373.836C306.958 373.948 306.646 374.098 306.256 374.285C305.847 374.472 305.418 374.678 304.97 374.902C304.522 375.127 304.102 375.372 303.711 375.636C303.301 375.9 302.987 376.147 302.771 376.375L299.291 376.319L299.67 352.832L304.135 352.904ZM289.45 352.319C290.997 352.344 292.229 352.664 293.147 353.278C294.065 353.912 294.718 354.783 295.106 355.891C295.475 356.999 295.648 358.259 295.625 359.67C295.615 360.308 295.548 360.906 295.423 361.465C295.298 362.024 295.115 362.533 294.876 362.993C294.636 363.453 294.35 363.855 294.015 364.197C293.661 364.559 293.251 364.852 292.783 365.077C293.413 365.551 293.964 366.208 294.433 367.047C294.884 367.905 295.108 368.981 295.107 370.277C295.105 371.572 294.874 372.68 294.415 373.601C293.955 374.541 293.276 375.255 292.379 375.744C291.482 376.232 290.376 376.465 289.061 376.444C287.728 376.423 286.63 376.154 285.768 375.637C284.887 375.12 284.241 374.385 283.831 373.431C283.421 372.496 283.236 371.381 283.276 370.086C283.317 368.772 283.576 367.693 284.053 366.85C284.511 366.026 285.072 365.397 285.737 364.963C285.277 364.724 284.885 364.418 284.563 364.045C284.22 363.692 283.937 363.281 283.712 362.813C283.488 362.346 283.322 361.831 283.215 361.268C283.089 360.705 283.031 360.105 283.041 359.467C283.025 358.055 283.239 356.802 283.682 355.707C284.105 354.612 284.786 353.762 285.724 353.158C286.642 352.574 287.884 352.294 289.45 352.319ZM289.396 355.654C288.836 355.645 288.417 355.832 288.14 356.214C287.863 356.596 287.682 357.067 287.595 357.626C287.509 358.186 287.462 358.726 287.453 359.248C287.424 359.866 287.453 360.466 287.54 361.048C287.608 361.629 287.775 362.105 288.039 362.477C288.304 362.849 288.717 363.039 289.277 363.048C289.818 363.057 290.237 362.88 290.533 362.517C290.809 362.154 291.001 361.684 291.107 361.105C291.193 360.546 291.241 359.947 291.252 359.309C291.26 358.787 291.23 358.236 291.162 357.655C291.094 357.093 290.928 356.616 290.663 356.225C290.379 355.853 289.957 355.663 289.396 355.654ZM289.218 366.702C288.832 366.695 288.52 366.835 288.283 367.122C288.027 367.407 287.837 367.82 287.712 368.359C287.588 368.899 287.519 369.536 287.508 370.27C287.494 371.102 287.619 371.771 287.881 372.278C288.124 372.804 288.536 373.071 289.116 373.081C289.695 373.09 290.135 372.836 290.433 372.319C290.712 371.821 290.858 371.166 290.871 370.354C290.883 369.619 290.845 368.971 290.757 368.409C290.65 367.865 290.473 367.447 290.226 367.153C289.96 366.858 289.624 366.708 289.218 366.702Z" fill="#553B92"/>
</g>
<g opacity="0.7">
<path d="M223.431 369.982L225.487 373.812L230.472 371.136L231.788 373.588L232.951 386.016L229.304 387.974L223.832 377.781L222.251 378.63L220.968 376.238L222.548 375.39L220.492 371.56L223.431 369.982ZM229.283 374.855L226.77 376.204L230.512 383.175L229.283 374.855Z" fill="#553B92"/>
</g>
<g opacity="0.7">
<path d="M111.409 254.145C110.982 255.245 110.388 256.051 109.63 256.562C108.863 257.054 107.987 257.297 107.002 257.292C106.022 257.273 104.982 257.05 103.882 256.622L97.7082 254.221C96.5792 253.782 95.6146 253.259 94.8143 252.652C94.0196 252.03 93.4956 251.283 93.2423 250.411C92.989 249.54 93.1041 248.482 93.5876 247.239C94.0044 246.167 94.5065 245.384 95.094 244.888C95.6728 244.373 96.3464 244.1 97.1149 244.07C97.8835 244.04 98.7465 244.211 99.704 244.583C99.7468 244.6 99.7968 244.619 99.854 244.641C99.9024 244.644 99.9481 244.653 99.991 244.67L98.7739 247.8C98.0451 247.516 97.4743 247.377 97.0614 247.381C96.6486 247.385 96.3366 247.658 96.1254 248.201C95.992 248.544 95.9936 248.857 96.1302 249.141C96.2723 249.41 96.5839 249.687 97.065 249.973C97.5374 250.239 98.2166 250.544 99.1027 250.889L100.882 251.581C100.64 251.273 100.508 250.892 100.486 250.44C100.471 249.973 100.556 249.48 100.741 248.96C101.068 248.034 101.559 247.386 102.213 247.015C102.859 246.624 103.614 246.458 104.481 246.515C105.333 246.566 106.237 246.778 107.195 247.151C108.367 247.606 109.354 248.155 110.158 248.796C110.961 249.438 111.487 250.202 111.735 251.088C111.973 251.954 111.865 252.973 111.409 254.145ZM108.961 253.143C109.1 252.786 109.081 252.474 108.905 252.208C108.734 251.928 108.439 251.673 108.018 251.444C107.602 251.2 107.08 250.956 106.452 250.711C105.851 250.478 105.322 250.297 104.862 250.167C104.393 250.018 103.994 249.986 103.665 250.072C103.336 250.158 103.087 250.415 102.921 250.844C102.843 251.044 102.811 251.253 102.824 251.472C102.829 251.672 102.871 251.861 102.949 252.039C103.014 252.212 103.096 252.36 103.197 252.481L105.962 253.556C106.391 253.723 106.812 253.846 107.226 253.924C107.631 253.983 107.986 253.957 108.293 253.846C108.599 253.735 108.822 253.5 108.961 253.143Z" fill="#553B92"/>
</g>
<g opacity="0.7">
<path d="M332.118 191.455L343.09 175.335C342.885 175.316 342.616 175.266 342.284 175.185C341.98 175.099 341.639 175.013 341.263 174.926C340.898 174.823 340.549 174.731 340.217 174.65C339.896 174.552 339.639 174.486 339.445 174.451L341.37 171.624C341.635 171.659 341.99 171.707 342.433 171.767C342.893 171.838 343.381 171.904 343.896 171.964C344.411 172.024 344.913 172.051 345.401 172.045C345.906 172.05 346.317 172.015 346.634 171.94L349.61 173.966L335.938 194.055L332.118 191.455ZM339.302 196.344L341.142 193.641L351.142 189.451C351.888 189.137 352.593 188.83 353.256 188.531C353.935 188.244 354.554 187.903 355.113 187.509C355.699 187.11 356.201 186.604 356.617 185.992C357.056 185.348 357.264 184.775 357.241 184.276C357.229 183.76 356.992 183.344 356.529 183.029C356.033 182.692 355.557 182.573 355.101 182.674C354.656 182.759 354.233 182.991 353.83 183.37C353.427 183.748 353.045 184.202 352.685 184.732L352.043 185.674L348.299 183.125L348.974 182.133C349.784 180.943 350.686 180.008 351.68 179.33C352.69 178.663 353.767 178.343 354.909 178.371C356.079 178.393 357.318 178.849 358.624 179.738C360.393 180.942 361.409 182.31 361.672 183.844C361.934 185.378 361.497 186.979 360.361 188.649C359.809 189.459 359.173 190.127 358.453 190.653C357.743 191.162 356.963 191.598 356.11 191.962C355.286 192.32 354.412 192.681 353.487 193.043L345.652 196.239L351.629 200.306L349.57 203.332L339.302 196.344Z" fill="#553B92"/>
</g>
<g opacity="0.7">
<path d="M215.332 168.078C212.872 168.788 210.767 168.88 209.016 168.354C207.256 167.796 205.8 166.735 204.648 165.169C203.527 163.594 202.642 161.685 201.994 159.44C201.701 158.426 201.518 157.446 201.445 156.501C201.372 155.557 201.413 154.662 201.569 153.818C201.724 152.973 201.984 152.199 202.346 151.494C202.731 150.75 203.239 150.087 203.87 149.505C202.643 149.061 201.453 148.288 200.303 147.188C199.174 146.049 198.297 144.454 197.671 142.403C197.046 140.352 196.873 138.487 197.154 136.807C197.426 135.096 198.153 133.637 199.336 132.429C200.52 131.221 202.157 130.315 204.247 129.711C206.368 129.098 208.236 128.992 209.85 129.391C211.496 129.782 212.874 130.633 213.985 131.944C215.088 133.224 215.922 134.898 216.486 136.967C217.059 139.067 217.172 140.899 216.825 142.465C216.5 143.991 215.917 145.259 215.076 146.268C215.92 146.424 216.688 146.718 217.38 147.151C218.093 147.545 218.741 148.057 219.323 148.688C219.905 149.32 220.417 150.054 220.859 150.893C221.332 151.722 221.714 152.644 222.008 153.658C222.717 155.885 222.987 157.972 222.817 159.92C222.678 161.858 222.013 163.533 220.821 164.943C219.652 166.314 217.822 167.358 215.332 168.078ZM213.799 162.775C214.691 162.517 215.263 162.019 215.516 161.28C215.769 160.54 215.828 159.707 215.693 158.78C215.558 157.853 215.371 156.975 215.131 156.145C214.878 155.152 214.541 154.217 214.121 153.339C213.732 152.452 213.237 151.779 212.638 151.319C212.039 150.859 211.294 150.758 210.402 151.016C209.541 151.264 208.965 151.747 208.672 152.465C208.411 153.173 208.336 154.011 208.449 154.977C208.584 155.905 208.797 156.875 209.091 157.89C209.33 158.72 209.645 159.578 210.034 160.465C210.415 161.321 210.909 161.994 211.517 162.485C212.147 162.936 212.908 163.032 213.799 162.775ZM208.723 145.205C209.338 145.028 209.764 144.655 209.999 144.087C210.266 143.511 210.367 142.765 210.303 141.851C210.238 140.937 210.037 139.896 209.7 138.728C209.318 137.406 208.796 136.407 208.135 135.732C207.496 135.018 206.715 134.794 205.792 135.06C204.87 135.327 204.298 135.942 204.077 136.905C203.878 137.828 203.964 138.936 204.337 140.227C204.675 141.395 205.049 142.403 205.461 143.25C205.894 144.058 206.377 144.634 206.91 144.98C207.473 145.317 208.078 145.392 208.723 145.205Z" fill="#553B92"/>
</g>
<g opacity="0.7">
<path d="M276.295 130.663L292.524 119.852C292.341 119.758 292.111 119.611 291.833 119.411C291.584 119.217 291.301 119.009 290.985 118.787C290.685 118.553 290.397 118.337 290.12 118.137C289.859 117.926 289.646 117.768 289.479 117.663L292.326 115.767C292.559 115.9 292.869 116.078 293.257 116.3C293.657 116.538 294.084 116.782 294.538 117.032C294.993 117.282 295.448 117.496 295.903 117.673C296.369 117.868 296.762 117.99 297.084 118.04L299.08 121.036L278.856 134.508L276.295 130.663ZM284.605 143.895C283.795 142.68 283.374 141.507 283.341 140.375C283.308 139.243 283.592 138.19 284.191 137.213C284.807 136.226 285.689 135.35 286.838 134.585L295.901 128.548C297.083 127.761 298.242 127.265 299.38 127.06C300.534 126.844 301.626 126.969 302.658 127.435C303.689 127.902 304.621 128.759 305.453 130.008C306.273 131.239 306.694 132.413 306.716 133.528C306.749 134.659 306.443 135.716 305.8 136.697C305.172 137.668 304.268 138.547 303.086 139.334L294.023 145.371C292.874 146.136 291.726 146.613 290.578 146.801C289.446 146.978 288.364 146.834 287.333 146.367C286.301 145.901 285.392 145.077 284.605 143.895ZM288 141.633C288.299 142.083 288.657 142.313 289.073 142.324C289.489 142.335 289.911 142.247 290.338 142.058C290.782 141.859 291.17 141.648 291.503 141.426L300.417 135.489C300.783 135.245 301.143 134.957 301.499 134.624C301.865 134.308 302.123 133.956 302.273 133.568C302.439 133.168 302.367 132.736 302.057 132.269C301.746 131.803 301.369 131.562 300.926 131.545C300.51 131.534 300.08 131.628 299.636 131.828C299.203 132.044 298.804 132.274 298.437 132.518L289.524 138.455C289.191 138.677 288.847 138.954 288.492 139.287C288.153 139.609 287.915 139.972 287.776 140.377C287.637 140.782 287.712 141.2 288 141.633Z" fill="#553B92"/>
</g>
</g>
<defs>
<filter id="filter0_f_17_4783" x="0.0148926" y="0.428711" width="470.128" height="701.571" filterUnits="userSpaceOnUse" color-interpolation-filters="sRGB">
<feFlood flood-opacity="0" result="BackgroundImageFix"/>
<feBlend mode="normal" in="SourceGraphic" in2="BackgroundImageFix" result="shape"/>
<feGaussianBlur stdDeviation="15" result="effect1_foregroundBlur_17_4783"/>
</filter>
<filter id="filter1_d_17_4783" x="189.373" y="205.699" width="80.8691" height="80.8589" filterUnits="userSpaceOnUse" color-interpolation-filters="sRGB">
<feFlood flood-opacity="0" result="BackgroundImageFix"/>
<feColorMatrix in="SourceAlpha" type="matrix" values="0 0 0 0 0 0 0 0 0 0 0 0 0 0 0 0 0 0 127 0" result="hardAlpha"/>
<feOffset/>
<feComposite in2="hardAlpha" operator="out"/>
<feColorMatrix type="matrix" values="0 0 0 0 0.264705 0 0 0 0 0.318651 0 0 0 0 0.804167 0 0 0 0.8 0"/>
<feBlend mode="normal" in2="BackgroundImageFix" result="effect1_dropShadow_17_4783"/>
<feBlend mode="normal" in="SourceGraphic" in2="effect1_dropShadow_17_4783" result="shape"/>
</filter>
</defs>
</svg>
