<svg width="685" height="1199" viewBox="0 0 685 1199" fill="none" xmlns="http://www.w3.org/2000/svg">
<path d="M507.922 160.459L383.843 38.1787L220.077 83.3313L176.466 246.09L295.327 368.525L464.311 323.218L507.922 160.459Z" fill="#F5F5FA" stroke="#553B92" stroke-width="10"/>
<path d="M366.373 103.379L415.042 288.793M366.373 103.379L507.922 160.459M366.373 103.379L383.843 38.1787M366.373 103.379L220.077 83.3313M366.373 103.379L232.482 239.876M415.042 288.793L507.922 160.459M415.042 288.793L232.482 239.876M415.042 288.793L295.327 368.525M415.042 288.793L464.311 323.218M507.922 160.459L383.843 38.1787M507.922 160.459L464.311 323.218M383.843 38.1787L220.077 83.3313M464.311 323.218L295.327 368.525M295.327 368.525L176.466 246.09M295.327 368.525L232.482 239.876M176.466 246.09L220.077 83.3313M176.466 246.09L232.482 239.876M220.077 83.3313L232.482 239.876" stroke="#553B92" stroke-width="10"/>
<circle cx="366.114" cy="104.344" r="9.5" transform="rotate(15 366.114 104.344)" stroke="#553B92" stroke-width="6"/>
<circle cx="414.465" cy="287.087" r="9.5" transform="rotate(15 414.465 287.087)" stroke="#553B92" stroke-width="6"/>
<circle cx="233.837" cy="238.684" r="9.5" transform="rotate(15 233.837 238.684)" stroke="#553B92" stroke-width="6"/>
<g filter="url(#filter0_d_17_169)">
<path d="M330.944 231.788C327.853 230.96 325.507 229.823 323.906 228.379C322.317 226.892 321.364 225.091 321.047 222.975C320.742 220.817 320.96 218.357 321.699 215.596C321.733 215.472 321.766 215.349 321.799 215.225C321.832 215.101 321.865 214.978 321.898 214.854L330.924 217.272C330.361 219.374 330.147 220.996 330.283 222.136C330.46 223.288 331.353 224.079 332.96 224.51C333.949 224.775 334.794 224.67 335.496 224.196C336.197 223.721 336.85 222.769 337.453 221.341C338.057 219.913 338.695 217.941 339.369 215.427L340.744 210.296C339.924 211.048 338.891 211.523 337.646 211.719C336.401 211.915 335.052 211.841 333.598 211.496C330.908 210.819 328.936 209.606 327.682 207.857C326.439 206.066 325.771 203.943 325.678 201.489C325.626 199.046 325.97 196.443 326.71 193.682C327.626 190.261 328.854 187.41 330.393 185.128C331.932 182.846 333.879 181.269 336.233 180.398C338.627 179.538 341.453 179.544 344.709 180.416C347.882 181.267 350.276 182.637 351.889 184.527C353.514 186.376 354.46 188.617 354.726 191.25C354.992 193.883 354.695 196.807 353.833 200.022L348.947 218.259C348.074 221.514 346.919 224.341 345.482 226.739C344.044 229.136 342.158 230.818 339.824 231.782C337.489 232.747 334.529 232.749 330.944 231.788ZM338.211 204.913C339.159 205.167 339.987 205.124 340.697 204.784C341.459 204.414 342.071 204.026 342.533 203.62L344.67 195.645C345.012 194.368 345.224 193.165 345.305 192.039C345.386 190.912 345.247 189.947 344.888 189.144C344.529 188.341 343.834 187.802 342.804 187.526C341.773 187.249 340.896 187.39 340.173 187.947C339.449 188.504 338.813 189.394 338.265 190.616C337.758 191.85 337.261 193.373 336.775 195.186C336.323 196.876 335.981 198.397 335.752 199.749C335.522 201.101 335.555 202.214 335.851 203.088C336.188 203.974 336.974 204.582 338.211 204.913Z" fill="#553B92"/>
</g>
<g opacity="0.7">
<path d="M223.69 219.669L204.668 223.963C204.806 224.117 204.968 224.336 205.155 224.622C205.319 224.893 205.509 225.188 205.725 225.508C205.921 225.833 206.113 226.138 206.3 226.424C206.468 226.714 206.611 226.938 206.729 227.096L203.393 227.849C203.223 227.642 202.996 227.365 202.713 227.018C202.426 226.653 202.114 226.272 201.779 225.876C201.443 225.48 201.095 225.118 200.734 224.79C200.368 224.442 200.044 224.187 199.762 224.025L198.969 220.513L222.673 215.163L223.69 219.669ZM220.573 204.361C220.912 205.863 220.858 207.167 220.41 208.272C219.939 209.363 219.168 210.265 218.099 210.978C217.025 211.671 215.737 212.187 214.235 212.526L205.807 214.429C204.266 214.777 202.841 214.914 201.533 214.84C200.22 214.747 199.109 214.321 198.2 213.563C197.29 212.804 196.644 211.576 196.261 209.879C195.931 208.416 195.903 207.202 196.177 206.238C196.428 205.259 196.958 204.473 197.767 203.88C198.577 203.287 199.635 202.844 200.942 202.549C201 202.535 201.069 202.52 201.147 202.502C201.201 202.47 201.257 202.447 201.316 202.433L202.28 206.706C201.285 206.93 200.566 207.195 200.122 207.501C199.678 207.806 199.54 208.329 199.708 209.07C199.813 209.539 200.043 209.876 200.398 210.083C200.747 210.271 201.287 210.344 202.016 210.302C202.72 210.246 203.678 210.081 204.887 209.808L207.316 209.26C206.83 209.103 206.41 208.788 206.057 208.314C205.699 207.82 205.432 207.225 205.254 206.527C204.933 205.287 204.991 204.228 205.429 203.35C205.842 202.457 206.538 201.726 207.517 201.157C208.476 200.592 209.609 200.162 210.916 199.867C212.516 199.505 213.984 199.379 215.321 199.487C216.657 199.596 217.783 200.039 218.696 200.817C219.586 201.58 220.212 202.761 220.573 204.361ZM217.194 205.062C217.084 204.574 216.837 204.251 216.452 204.091C216.063 203.913 215.558 203.852 214.935 203.911C214.308 203.95 213.566 204.066 212.707 204.26C211.888 204.445 211.183 204.635 210.591 204.83C209.976 205.01 209.521 205.266 209.227 205.599C208.933 205.932 208.852 206.391 208.984 206.976C209.046 207.25 209.164 207.5 209.338 207.727C209.489 207.939 209.671 208.113 209.887 208.249C210.082 208.389 210.279 208.488 210.477 208.546L214.252 207.694C214.837 207.562 215.382 207.388 215.887 207.171C216.367 206.94 216.733 206.652 216.984 206.309C217.234 205.965 217.304 205.549 217.194 205.062Z" fill="#553B92"/>
</g>
<g opacity="0.7">
<path d="M331.265 293.262L323.189 323.399C323.509 323.319 323.941 323.252 324.485 323.199C324.99 323.169 325.55 323.12 326.164 323.053C326.77 323.017 327.345 322.972 327.89 322.919C328.426 322.897 328.849 322.861 329.161 322.812L327.744 328.098C327.324 328.184 326.763 328.299 326.062 328.442C325.33 328.577 324.559 328.735 323.749 328.915C322.938 329.096 322.166 329.32 321.432 329.587C320.667 329.846 320.065 330.115 319.625 330.395L314.062 328.904L324.124 291.349L331.265 293.262ZM308.041 286.343C310.544 287.014 312.414 288.012 313.649 289.337C314.845 290.684 315.54 292.295 315.733 294.169C315.919 296.074 315.713 298.139 315.117 300.365L314.757 301.709L307.616 299.796C307.633 299.734 307.679 299.564 307.753 299.286C307.819 299.039 307.886 298.791 307.952 298.544C308.244 297.33 308.42 296.301 308.481 295.456C308.503 294.633 308.351 293.963 308.026 293.446C307.701 292.928 307.137 292.561 306.333 292.346C305.498 292.122 304.826 292.158 304.317 292.452C303.799 292.777 303.355 293.32 302.985 294.083C302.616 294.845 302.273 295.813 301.958 296.988C301.453 298.873 301.342 300.401 301.625 301.57C301.9 302.77 302.868 303.609 304.529 304.087C304.56 304.095 304.714 304.137 304.992 304.211C305.271 304.286 305.533 304.356 305.781 304.422L304.364 309.708C304.179 309.658 303.993 309.609 303.808 309.559C303.592 309.501 303.406 309.451 303.252 309.41C301.582 308.963 300.334 309.108 299.507 309.847C298.648 310.578 297.962 311.902 297.449 313.818C297.051 315.302 296.957 316.519 297.166 317.469C297.375 318.42 298.067 319.053 299.242 319.367C300.416 319.682 301.313 319.425 301.933 318.597C302.552 317.77 303.072 316.633 303.492 315.189C303.558 314.942 303.633 314.663 303.716 314.354C303.79 314.076 303.865 313.798 303.939 313.52L311.079 315.433L310.533 317.473C309.945 319.668 309.046 321.415 307.836 322.714C306.619 324.044 305.16 324.912 303.461 325.318C301.762 325.724 299.846 325.642 297.714 325.07C295.581 324.499 293.861 323.624 292.553 322.445C291.246 321.266 290.404 319.832 290.029 318.141C289.623 316.442 289.714 314.495 290.302 312.301C290.89 310.106 291.842 308.407 293.159 307.202C294.445 305.99 295.806 305.361 297.243 305.315C296.398 304.757 295.716 304.028 295.195 303.127C294.675 302.225 294.375 301.118 294.296 299.805C294.209 298.522 294.402 297 294.874 295.239C295.478 292.982 296.341 291.06 297.463 289.472C298.575 287.915 300.006 286.841 301.755 286.249C303.504 285.658 305.599 285.689 308.041 286.343Z" fill="#553B92"/>
</g>
<g opacity="0.7">
<path d="M415.797 169.967L445.226 159.603C444.979 159.385 444.68 159.066 444.329 158.647C444.019 158.247 443.662 157.813 443.26 157.344C442.887 156.864 442.525 156.415 442.174 155.996C441.853 155.566 441.585 155.237 441.368 155.007L446.53 153.19C446.838 153.488 447.25 153.886 447.764 154.384C448.289 154.911 448.855 155.458 449.462 156.025C450.068 156.592 450.689 157.102 451.324 157.557C451.97 158.042 452.533 158.387 453.012 158.591L454.925 164.024L418.253 176.939L415.797 169.967ZM423.377 193.08C422.58 190.817 422.289 188.883 422.505 187.281C422.751 185.667 423.462 184.314 424.638 183.222C425.844 182.118 427.458 181.211 429.48 180.499C429.571 180.467 429.662 180.435 429.752 180.403C429.843 180.371 429.933 180.339 430.024 180.307L432.352 186.917C430.812 187.459 429.718 188.014 429.07 188.582C428.432 189.18 428.321 190.067 428.735 191.244C428.991 191.969 429.414 192.447 430.005 192.68C430.595 192.913 431.461 192.914 432.601 192.682C433.74 192.45 435.231 192.01 437.072 191.362L440.83 190.039C440.017 189.85 439.286 189.412 438.637 188.724C437.987 188.037 437.462 187.17 437.06 186.125C436.338 184.173 436.254 182.439 436.805 180.922C437.386 179.394 438.417 178.081 439.896 176.983C441.386 175.916 443.142 175.026 445.165 174.314C447.67 173.432 449.955 172.983 452.019 172.969C454.083 172.954 455.884 173.491 457.42 174.578C458.967 175.696 460.161 177.447 461 179.831C461.819 182.155 461.985 184.217 461.499 186.016C461.044 187.805 460.057 189.34 458.541 190.621C457.024 191.901 455.088 192.956 452.734 193.785L439.378 198.488C436.994 199.328 434.755 199.811 432.662 199.938C430.569 200.064 428.73 199.609 427.143 198.573C425.557 197.537 424.302 195.706 423.377 193.08ZM443.088 186.19C443.332 186.884 443.71 187.379 444.221 187.674C444.773 187.988 445.272 188.203 445.719 188.317L451.56 186.26C452.495 185.93 453.329 185.552 454.061 185.125C454.792 184.697 455.331 184.203 455.675 183.64C456.02 183.078 456.06 182.419 455.794 181.665C455.528 180.91 455.07 180.427 454.418 180.215C453.767 180.003 452.947 179.987 451.958 180.165C450.98 180.374 449.827 180.712 448.499 181.18C447.261 181.616 446.175 182.049 445.241 182.48C444.308 182.911 443.633 183.403 443.217 183.956C442.812 184.54 442.769 185.285 443.088 186.19Z" fill="#553B92"/>
</g>
<g opacity="0.7">
<path d="M446.717 265.729C448.069 264.979 449.296 264.64 450.399 264.714C451.51 264.805 452.511 265.234 453.401 266C454.273 266.777 455.052 267.782 455.737 269.016C456.046 269.574 456.286 270.126 456.457 270.672C456.627 271.219 456.724 271.751 456.746 272.27C456.768 272.788 456.72 273.279 456.601 273.743C456.475 274.233 456.266 274.692 455.972 275.12C456.755 275.216 457.56 275.51 458.386 276.003C459.204 276.522 459.936 277.343 460.581 278.466C461.227 279.589 461.58 280.665 461.641 281.692C461.712 282.736 461.481 283.693 460.947 284.564C460.413 285.435 459.571 286.19 458.422 286.828C457.255 287.475 456.169 287.79 455.165 287.772C454.143 287.764 453.217 287.449 452.385 286.827C451.563 286.222 450.846 285.348 450.235 284.206C449.614 283.047 449.3 281.983 449.293 281.014C449.279 280.071 449.451 279.246 449.81 278.538C449.292 278.561 448.8 278.491 448.334 278.329C447.861 278.194 447.411 277.979 446.983 277.686C446.555 277.393 446.154 277.029 445.781 276.595C445.39 276.171 445.04 275.679 444.731 275.121C444.012 273.906 443.572 272.713 443.409 271.543C443.23 270.383 443.395 269.307 443.907 268.316C444.411 267.351 445.347 266.489 446.717 265.729ZM448.335 268.645C447.844 268.917 447.575 269.288 447.525 269.757C447.476 270.227 447.554 270.725 447.758 271.253C447.963 271.781 448.191 272.273 448.445 272.729C448.728 273.28 449.053 273.785 449.418 274.245C449.767 274.715 450.149 275.045 450.564 275.235C450.979 275.425 451.432 275.384 451.922 275.112C452.395 274.849 452.67 274.487 452.745 274.025C452.804 273.572 452.734 273.069 452.538 272.515C452.333 271.987 452.076 271.444 451.767 270.887C451.514 270.43 451.212 269.967 450.863 269.497C450.524 269.045 450.142 268.715 449.718 268.508C449.286 268.327 448.825 268.373 448.335 268.645ZM453.695 278.307C453.356 278.495 453.156 278.771 453.094 279.138C453.015 279.513 453.056 279.966 453.217 280.495C453.378 281.025 453.637 281.611 453.994 282.253C454.397 282.98 454.839 283.498 455.319 283.806C455.792 284.141 456.282 284.167 456.79 283.886C457.297 283.605 457.551 283.165 457.551 282.568C457.544 281.997 457.343 281.357 456.949 280.647C456.593 280.004 456.236 279.461 455.88 279.018C455.516 278.601 455.154 278.327 454.793 278.195C454.416 278.073 454.05 278.11 453.695 278.307Z" fill="#553B92"/>
</g>
<g opacity="0.7">
<path d="M393.692 316.559L397.385 318.852L400.369 314.045L402.733 315.512L409.945 325.701L407.761 329.218L397.932 323.117L396.986 324.641L394.68 323.21L395.626 321.685L391.933 319.393L393.692 316.559ZM401.195 317.86L399.691 320.283L406.413 324.456L401.195 317.86Z" fill="#553B92"/>
</g>
<g opacity="0.7">
<path d="M238.804 272.098C238.982 273.265 238.87 274.26 238.469 275.081C238.049 275.89 237.412 276.538 236.556 277.026C235.697 277.498 234.684 277.824 233.517 278.002L226.969 279.004C225.772 279.187 224.675 279.215 223.678 279.088C222.679 278.946 221.853 278.561 221.198 277.932C220.543 277.303 220.115 276.329 219.914 275.01C219.74 273.873 219.784 272.944 220.046 272.221C220.29 271.486 220.738 270.913 221.388 270.503C222.039 270.094 222.872 269.811 223.888 269.656C223.933 269.649 223.987 269.641 224.047 269.632C224.09 269.609 224.135 269.595 224.18 269.588L224.688 272.907C223.915 273.026 223.35 273.189 222.995 273.399C222.639 273.608 222.505 274.001 222.593 274.577C222.649 274.941 222.806 275.212 223.066 275.389C223.324 275.551 223.732 275.636 224.292 275.644C224.834 275.638 225.575 275.564 226.514 275.42L228.402 275.132C228.038 274.985 227.734 274.722 227.489 274.34C227.243 273.944 227.07 273.474 226.971 272.93C226.793 271.965 226.894 271.158 227.276 270.511C227.64 269.85 228.212 269.328 228.991 268.945C229.755 268.565 230.645 268.297 231.66 268.142C232.903 267.952 234.033 267.934 235.049 268.089C236.066 268.244 236.902 268.643 237.559 269.287C238.199 269.918 238.614 270.855 238.804 272.098ZM236.182 272.453C236.124 272.074 235.952 271.813 235.667 271.671C235.379 271.513 234.996 271.44 234.516 271.451C234.035 271.447 233.461 271.496 232.794 271.598C232.157 271.695 231.608 271.803 231.145 271.92C230.664 272.024 230.303 272.196 230.06 272.435C229.817 272.674 229.731 273.02 229.8 273.475C229.833 273.687 229.909 273.885 230.031 274.068C230.134 274.238 230.265 274.381 230.422 274.497C230.564 274.615 230.709 274.701 230.857 274.756L233.79 274.308C234.245 274.238 234.671 274.134 235.068 273.996C235.449 273.845 235.744 273.644 235.954 273.395C236.164 273.146 236.24 272.832 236.182 272.453Z" fill="#553B92"/>
</g>
<g opacity="0.7">
<path d="M407.263 107.066C405.647 106.945 404.383 106.549 403.471 105.879C402.58 105.19 401.967 104.282 401.63 103.154C401.295 102.005 401.182 100.713 401.289 99.2771L401.355 98.4096L405.962 98.7556C405.959 98.7954 405.95 98.9051 405.937 99.0846C405.925 99.2442 405.913 99.4037 405.901 99.5633C405.862 100.343 405.874 100.995 405.934 101.521C406.017 102.029 406.188 102.423 406.447 102.703C406.707 102.983 407.096 103.143 407.615 103.182C408.153 103.222 408.562 103.123 408.841 102.883C409.121 102.623 409.33 102.238 409.469 101.727C409.608 101.216 409.705 100.581 409.762 99.8232C409.854 98.6066 409.745 97.6558 409.435 96.9707C409.127 96.2656 408.435 95.8627 407.36 95.7619C407.34 95.7604 407.24 95.7529 407.061 95.7394C406.881 95.7259 406.712 95.7132 406.552 95.7012L406.808 92.2908C406.928 92.2998 407.047 92.3088 407.167 92.3178C407.307 92.3282 407.426 92.3372 407.526 92.3447C408.603 92.4256 409.353 92.1911 409.775 91.6412C410.217 91.0928 410.485 90.2003 410.578 88.9638C410.65 88.0065 410.566 87.2481 410.328 86.6886C410.089 86.1292 409.59 85.821 408.833 85.7641C408.075 85.7072 407.554 85.9689 407.269 86.5492C406.985 87.1296 406.798 87.8877 406.707 88.8235C406.696 88.9831 406.682 89.1626 406.667 89.362C406.654 89.5415 406.64 89.721 406.627 89.9005L402.02 89.5545L402.118 88.2382C402.225 86.8222 402.574 85.645 403.166 84.7067C403.759 83.7485 404.554 83.046 405.55 82.5994C406.547 82.1528 407.733 81.9811 409.109 82.0844C410.485 82.1878 411.643 82.5255 412.583 83.0974C413.523 83.6694 414.206 84.4528 414.633 85.4476C415.079 86.4438 415.249 87.6499 415.143 89.0659C415.037 90.482 414.649 91.6362 413.98 92.5286C413.332 93.4225 412.569 93.9669 411.692 94.1618C412.275 94.4062 412.779 94.7749 413.203 95.2681C413.627 95.7612 413.94 96.4065 414.141 97.2037C414.343 97.9811 414.402 98.9381 414.316 100.075C414.207 101.531 413.9 102.811 413.396 103.917C412.893 105.002 412.139 105.828 411.134 106.394C410.129 106.961 408.838 107.185 407.263 107.066Z" fill="#553B92"/>
</g>
<g opacity="0.7">
<path d="M286.012 144.695L279.48 138.399L271.286 146.902L267.104 142.871L256.851 118.924L262.847 112.703L280.231 129.457L282.83 126.762L286.908 130.692L284.31 133.388L290.842 139.683L286.012 144.695ZM271.271 138.755L275.402 134.469L263.512 123.011L271.271 138.755Z" fill="#553B92"/>
</g>
<g opacity="0.7">
<path d="M320.045 82.7968L328.711 65.3286C328.506 65.3381 328.233 65.3256 327.893 65.2908C327.58 65.2471 327.231 65.2079 326.846 65.1733C326.47 65.1208 326.112 65.0772 325.772 65.0425C325.441 64.9898 325.177 64.9594 324.98 64.951L326.5 61.8874C326.769 61.8865 327.126 61.8854 327.574 61.884C328.039 61.8916 328.531 61.89 329.049 61.8795C329.568 61.8689 330.069 61.8271 330.552 61.7541C331.052 61.6899 331.455 61.5992 331.758 61.482L334.983 63.082L324.183 84.8501L320.045 82.7968ZM333.89 90.0344C332.51 89.35 331.533 88.4854 330.957 87.4407C330.408 86.3869 330.194 85.2204 330.316 83.941C330.455 82.6704 330.867 81.3454 331.551 79.9659L335.391 72.2261C336.093 70.8107 336.886 69.6187 337.768 68.65C338.669 67.6901 339.7 67.0966 340.862 66.8694C342.024 66.6422 343.384 66.9153 344.943 67.6886C346.287 68.3553 347.246 69.0992 347.821 69.9203C348.423 70.7324 348.698 71.6394 348.648 72.6413C348.597 73.6432 348.274 74.7443 347.679 75.9447C347.652 75.9985 347.621 76.0612 347.585 76.1328C347.577 76.1955 347.559 76.2537 347.532 76.3074L343.609 74.3607C344.062 73.447 344.31 72.7218 344.353 72.185C344.396 71.6482 344.077 71.2109 343.397 70.8731C342.967 70.6598 342.56 70.6253 342.175 70.7696C341.809 70.9227 341.412 71.2952 340.985 71.8868C340.584 72.4694 340.108 73.3161 339.557 74.4269L338.45 76.6575C338.879 76.3789 339.388 76.2521 339.979 76.2771C340.587 76.311 341.218 76.479 341.872 76.7811C343.036 77.3141 343.821 78.0273 344.226 78.9204C344.659 79.8046 344.787 80.806 344.611 81.9245C344.445 83.0252 344.064 84.1757 343.468 85.3761C342.739 86.8452 341.911 88.0642 340.984 89.0331C340.057 90.0019 339.003 90.5955 337.823 90.8138C336.67 91.0231 335.359 90.7633 333.89 90.0344ZM335.477 86.9705C335.925 87.1928 336.332 87.2049 336.698 87.007C337.082 86.818 337.448 86.4636 337.795 85.9437C338.16 85.4328 338.538 84.7831 338.929 83.9948C339.303 83.2423 339.6 82.5751 339.822 81.993C340.071 81.4019 340.158 80.8873 340.085 80.4493C340.013 80.0113 339.707 79.6589 339.17 79.3922C338.919 79.2678 338.651 79.2015 338.364 79.1935C338.105 79.1764 337.855 79.2085 337.613 79.2897C337.381 79.353 337.18 79.4431 337.01 79.5599L335.29 83.0267C335.024 83.5642 334.815 84.097 334.665 84.6252C334.541 85.1443 334.534 85.6094 334.642 86.0205C334.751 86.4317 335.029 86.7483 335.477 86.9705Z" fill="#553B92"/>
</g>
<g filter="url(#filter1_ddddd_17_169)">
<rect x="199" y="446.887" width="287" height="56" rx="7.62745" fill="#4414AA"/>
</g>
<path d="M302.632 492V457.052H311.692C314.051 457.052 316.064 457.326 317.733 457.872C319.43 458.39 320.724 459.325 321.616 460.677C322.536 462.028 322.996 463.898 322.996 466.285C322.996 467.724 322.867 469.004 322.608 470.125C322.378 471.218 321.947 472.182 321.314 473.016C320.71 473.821 319.847 474.469 318.725 474.958L323.557 492H316.266L312.253 476.166H309.751V492H302.632ZM309.751 471.937H311.822C312.972 471.937 313.878 471.751 314.54 471.377C315.201 471.003 315.662 470.442 315.921 469.694C316.208 468.917 316.352 467.968 316.352 466.846C316.352 465.236 316.05 464.013 315.446 463.179C314.871 462.316 313.778 461.885 312.167 461.885H309.751V471.937ZM337.284 492.475C334.724 492.475 332.696 492.014 331.2 491.094C329.705 490.174 328.626 488.865 327.964 487.168C327.332 485.442 327.015 483.385 327.015 480.998V467.968C327.015 465.581 327.332 463.539 327.964 461.842C328.626 460.144 329.705 458.85 331.2 457.958C332.696 457.067 334.724 456.621 337.284 456.621C339.873 456.621 341.915 457.081 343.41 458.002C344.935 458.893 346.014 460.188 346.646 461.885C347.308 463.553 347.639 465.581 347.639 467.968V480.998C347.639 483.385 347.308 485.442 346.646 487.168C346.014 488.865 344.935 490.174 343.41 491.094C341.915 492.014 339.873 492.475 337.284 492.475ZM337.284 487.34C338.204 487.34 338.88 487.139 339.312 486.736C339.743 486.305 340.031 485.744 340.175 485.054C340.318 484.335 340.39 483.572 340.39 482.767V466.242C340.39 465.437 340.318 464.689 340.175 463.999C340.031 463.308 339.743 462.762 339.312 462.359C338.88 461.928 338.204 461.712 337.284 461.712C336.421 461.712 335.774 461.928 335.342 462.359C334.911 462.762 334.623 463.308 334.479 463.999C334.336 464.689 334.264 465.437 334.264 466.242V482.767C334.264 483.572 334.321 484.335 334.436 485.054C334.58 485.744 334.868 486.305 335.299 486.736C335.731 487.139 336.392 487.34 337.284 487.34ZM352.392 492V457.052H359.511V487.168H367.709V492H352.392ZM371.057 492V457.052H378.176V487.168H386.374V492H371.057Z" fill="#F5F5FA"/>
<rect x="313.129" y="230.152" width="35.5412" height="7.03878" rx="3" transform="rotate(15 313.129 230.152)" fill="#1E1E26" fill-opacity="0.93"/>
<defs>
<filter id="filter0_d_17_169" x="317.467" y="176.805" width="40.6562" height="58.5773" filterUnits="userSpaceOnUse" color-interpolation-filters="sRGB">
<feFlood flood-opacity="0" result="BackgroundImageFix"/>
<feColorMatrix in="SourceAlpha" type="matrix" values="0 0 0 0 0 0 0 0 0 0 0 0 0 0 0 0 0 0 127 0" result="hardAlpha"/>
<feOffset/>
<feComposite in2="hardAlpha" operator="out"/>
<feColorMatrix type="matrix" values="0 0 0 0 0.264705 0 0 0 0 0.318651 0 0 0 0 0.804167 0 0 0 0.8 0"/>
<feBlend mode="normal" in2="BackgroundImageFix" result="effect1_dropShadow_17_169"/>
<feBlend mode="normal" in="SourceGraphic" in2="effect1_dropShadow_17_169" result="shape"/>
</filter>
<filter id="filter1_ddddd_17_169" x="0" y="409.887" width="685" height="789" filterUnits="userSpaceOnUse" color-interpolation-filters="sRGB">
<feFlood flood-opacity="0" result="BackgroundImageFix"/>
<feColorMatrix in="SourceAlpha" type="matrix" values="0 0 0 0 0 0 0 0 0 0 0 0 0 0 0 0 0 0 127 0" result="hardAlpha"/>
<feOffset/>
<feColorMatrix type="matrix" values="0 0 0 0 0 0 0 0 0 0 0 0 0 0 0 0 0 0 0.1 0"/>
<feBlend mode="normal" in2="BackgroundImageFix" result="effect1_dropShadow_17_169"/>
<feColorMatrix in="SourceAlpha" type="matrix" values="0 0 0 0 0 0 0 0 0 0 0 0 0 0 0 0 0 0 127 0" result="hardAlpha"/>
<feOffset dy="31"/>
<feGaussianBlur stdDeviation="34"/>
<feColorMatrix type="matrix" values="0 0 0 0 0 0 0 0 0 0 0 0 0 0 0 0 0 0 0.1 0"/>
<feBlend mode="normal" in2="effect1_dropShadow_17_169" result="effect2_dropShadow_17_169"/>
<feColorMatrix in="SourceAlpha" type="matrix" values="0 0 0 0 0 0 0 0 0 0 0 0 0 0 0 0 0 0 127 0" result="hardAlpha"/>
<feOffset dy="124"/>
<feGaussianBlur stdDeviation="62"/>
<feColorMatrix type="matrix" values="0 0 0 0 0 0 0 0 0 0 0 0 0 0 0 0 0 0 0.09 0"/>
<feBlend mode="normal" in2="effect2_dropShadow_17_169" result="effect3_dropShadow_17_169"/>
<feColorMatrix in="SourceAlpha" type="matrix" values="0 0 0 0 0 0 0 0 0 0 0 0 0 0 0 0 0 0 127 0" result="hardAlpha"/>
<feOffset dy="280"/>
<feGaussianBlur stdDeviation="84"/>
<feColorMatrix type="matrix" values="0 0 0 0 0 0 0 0 0 0 0 0 0 0 0 0 0 0 0.05 0"/>
<feBlend mode="normal" in2="effect3_dropShadow_17_169" result="effect4_dropShadow_17_169"/>
<feColorMatrix in="SourceAlpha" type="matrix" values="0 0 0 0 0 0 0 0 0 0 0 0 0 0 0 0 0 0 127 0" result="hardAlpha"/>
<feOffset dy="497"/>
<feGaussianBlur stdDeviation="99.5"/>
<feColorMatrix type="matrix" values="0 0 0 0 0 0 0 0 0 0 0 0 0 0 0 0 0 0 0.01 0"/>
<feBlend mode="normal" in2="effect4_dropShadow_17_169" result="effect5_dropShadow_17_169"/>
<feBlend mode="normal" in="SourceGraphic" in2="effect5_dropShadow_17_169" result="shape"/>
</filter>
</defs>
</svg>
