<svg width="378" height="642" viewBox="0 0 378 642" fill="none" xmlns="http://www.w3.org/2000/svg">
<path d="M354.922 160.459L230.843 38.1787L67.0765 83.3313L23.4655 246.09L142.327 368.525L311.311 323.218L354.922 160.459Z" fill="#F5F5FA" stroke="#553B92" stroke-width="10"/>
<path d="M213.373 103.379L262.042 288.793M213.373 103.379L354.922 160.459M213.373 103.379L230.843 38.1787M213.373 103.379L67.0765 83.3313M213.373 103.379L79.4824 239.876M262.042 288.793L354.922 160.459M262.042 288.793L79.4824 239.876M262.042 288.793L142.327 368.525M262.042 288.793L311.311 323.218M354.922 160.459L230.843 38.1787M354.922 160.459L311.311 323.218M230.843 38.1787L67.0765 83.3313M311.311 323.218L142.327 368.525M142.327 368.525L23.4655 246.09M142.327 368.525L79.4824 239.876M23.4655 246.09L67.0765 83.3313M23.4655 246.09L79.4824 239.876M67.0765 83.3313L79.4824 239.876" stroke="#553B92" stroke-width="10"/>
<circle cx="213.114" cy="104.344" r="9.5" transform="rotate(15 213.114 104.344)" stroke="#553B92" stroke-width="6"/>
<circle cx="261.465" cy="287.087" r="9.5" transform="rotate(15 261.465 287.087)" stroke="#553B92" stroke-width="6"/>
<circle cx="80.8369" cy="238.684" r="9.5" transform="rotate(15 80.8369 238.684)" stroke="#553B92" stroke-width="6"/>
<g filter="url(#filter0_d_17_169)">
<path d="M177.944 231.788C174.853 230.96 172.507 229.823 170.906 228.379C169.317 226.892 168.364 225.091 168.047 222.975C167.742 220.817 167.96 218.357 168.699 215.596C168.733 215.472 168.766 215.349 168.799 215.225C168.832 215.101 168.865 214.978 168.898 214.854L177.924 217.272C177.361 219.374 177.147 220.996 177.283 222.136C177.46 223.288 178.353 224.079 179.96 224.51C180.949 224.775 181.794 224.67 182.496 224.196C183.197 223.721 183.85 222.769 184.453 221.341C185.057 219.913 185.695 217.941 186.369 215.427L187.744 210.296C186.924 211.048 185.891 211.523 184.646 211.719C183.401 211.915 182.052 211.841 180.598 211.496C177.908 210.819 175.936 209.606 174.682 207.857C173.439 206.066 172.771 203.943 172.678 201.489C172.626 199.046 172.97 196.443 173.71 193.682C174.626 190.261 175.854 187.41 177.393 185.128C178.932 182.846 180.879 181.269 183.233 180.398C185.627 179.538 188.453 179.544 191.709 180.416C194.882 181.267 197.276 182.637 198.889 184.527C200.514 186.376 201.46 188.617 201.726 191.25C201.992 193.883 201.695 196.807 200.833 200.022L195.947 218.259C195.074 221.514 193.919 224.341 192.482 226.739C191.044 229.136 189.158 230.818 186.824 231.782C184.489 232.747 181.529 232.749 177.944 231.788ZM185.211 204.913C186.159 205.167 186.987 205.124 187.697 204.784C188.459 204.414 189.071 204.026 189.533 203.62L191.67 195.645C192.012 194.368 192.224 193.165 192.305 192.039C192.386 190.912 192.247 189.947 191.888 189.144C191.529 188.341 190.834 187.802 189.804 187.526C188.773 187.249 187.896 187.39 187.173 187.947C186.449 188.504 185.813 189.394 185.265 190.616C184.758 191.85 184.261 193.373 183.775 195.186C183.323 196.876 182.981 198.397 182.752 199.749C182.522 201.101 182.555 202.214 182.851 203.088C183.188 203.974 183.974 204.582 185.211 204.913Z" fill="#553B92"/>
</g>
<g opacity="0.7">
<path d="M70.6899 219.669L51.6684 223.963C51.8056 224.117 51.968 224.336 52.1555 224.622C52.3191 224.893 52.5088 225.188 52.7246 225.508C52.921 225.833 53.1129 226.138 53.3004 226.424C53.4684 226.714 53.6112 226.938 53.7289 227.096L50.3928 227.849C50.2229 227.642 49.9964 227.365 49.7132 227.018C49.4257 226.653 49.1142 226.272 48.7788 225.876C48.4434 225.48 48.0951 225.118 47.7339 224.79C47.3683 224.442 47.0442 224.187 46.7617 224.025L45.969 220.513L69.6727 215.163L70.6899 219.669ZM67.5727 204.361C67.9117 205.863 67.8575 207.167 67.41 208.272C66.9385 209.363 66.1682 210.265 65.0989 210.978C64.0252 211.671 62.7373 212.187 61.2351 212.526L52.8071 214.429C51.2659 214.777 49.8411 214.914 48.5328 214.84C47.22 214.747 46.109 214.321 45.1997 213.563C44.2904 212.804 43.6442 211.576 43.2611 209.879C42.9308 208.416 42.9029 207.202 43.1774 206.238C43.4279 205.259 43.9579 204.473 44.7672 203.88C45.5766 203.287 46.6348 202.844 47.9419 202.549C48.0004 202.535 48.0687 202.52 48.1467 202.502C48.2009 202.47 48.2572 202.447 48.3157 202.433L49.2801 206.706C48.2852 206.93 47.5658 207.195 47.1221 207.501C46.6784 207.806 46.5403 208.329 46.7076 209.07C46.8133 209.539 47.0433 209.876 47.3976 210.083C47.7475 210.271 48.2868 210.344 49.0155 210.302C49.7204 210.246 50.6776 210.081 51.8871 209.808L54.316 209.26C53.8296 209.103 53.4098 208.788 53.0568 208.314C52.6994 207.82 52.4317 207.225 52.2537 206.527C51.9328 205.287 51.9911 204.228 52.4286 203.35C52.8421 202.457 53.5382 201.726 54.5168 201.157C55.4759 200.592 56.609 200.162 57.9162 199.867C59.5159 199.505 60.9841 199.379 62.3208 199.487C63.6574 199.596 64.7826 200.039 65.6963 200.817C66.5861 201.58 67.2116 202.761 67.5727 204.361ZM64.1941 205.062C64.084 204.574 63.8367 204.251 63.4522 204.091C63.0633 203.913 62.5577 203.852 61.9353 203.911C61.3085 203.95 60.5659 204.066 59.7075 204.26C58.8881 204.445 58.1826 204.635 57.591 204.83C56.9755 205.01 56.5208 205.266 56.2269 205.599C55.933 205.932 55.8521 206.391 55.9842 206.976C56.0459 207.25 56.1638 207.5 56.3381 207.727C56.4885 207.939 56.6713 208.113 56.8866 208.249C57.0823 208.389 57.2789 208.488 57.4765 208.546L61.2515 207.694C61.8368 207.562 62.3818 207.388 62.8865 207.171C63.3674 206.94 63.733 206.652 63.9835 206.309C64.234 205.965 64.3042 205.549 64.1941 205.062Z" fill="#553B92"/>
</g>
<g opacity="0.7">
<path d="M178.265 293.262L170.189 323.399C170.509 323.319 170.941 323.252 171.485 323.199C171.99 323.169 172.55 323.12 173.164 323.053C173.77 323.017 174.345 322.972 174.89 322.919C175.426 322.897 175.849 322.861 176.161 322.812L174.744 328.098C174.324 328.184 173.763 328.299 173.062 328.442C172.33 328.577 171.559 328.735 170.749 328.915C169.938 329.096 169.166 329.32 168.432 329.587C167.667 329.846 167.065 330.115 166.625 330.395L161.062 328.904L171.124 291.349L178.265 293.262ZM155.041 286.343C157.544 287.014 159.414 288.012 160.649 289.337C161.845 290.684 162.54 292.295 162.733 294.169C162.919 296.074 162.713 298.139 162.117 300.365L161.757 301.709L154.616 299.796C154.633 299.734 154.679 299.564 154.753 299.286C154.819 299.039 154.886 298.791 154.952 298.544C155.244 297.33 155.42 296.301 155.481 295.456C155.503 294.633 155.351 293.963 155.026 293.446C154.701 292.928 154.137 292.561 153.333 292.346C152.498 292.122 151.826 292.158 151.317 292.452C150.799 292.777 150.355 293.32 149.985 294.083C149.616 294.845 149.273 295.813 148.958 296.988C148.453 298.873 148.342 300.401 148.625 301.57C148.9 302.77 149.868 303.609 151.529 304.087C151.56 304.095 151.714 304.137 151.992 304.211C152.271 304.286 152.533 304.356 152.781 304.422L151.364 309.708C151.179 309.658 150.993 309.609 150.808 309.559C150.592 309.501 150.406 309.451 150.252 309.41C148.582 308.963 147.334 309.108 146.507 309.847C145.648 310.578 144.962 311.902 144.449 313.818C144.051 315.302 143.957 316.519 144.166 317.469C144.375 318.42 145.067 319.053 146.242 319.367C147.416 319.682 148.313 319.425 148.933 318.597C149.552 317.77 150.072 316.633 150.492 315.189C150.558 314.942 150.633 314.663 150.716 314.354C150.79 314.076 150.865 313.798 150.939 313.52L158.079 315.433L157.533 317.473C156.945 319.668 156.046 321.415 154.836 322.714C153.619 324.044 152.16 324.912 150.461 325.318C148.762 325.724 146.846 325.642 144.714 325.07C142.581 324.499 140.861 323.624 139.553 322.445C138.246 321.266 137.404 319.832 137.029 318.141C136.623 316.442 136.714 314.495 137.302 312.301C137.89 310.106 138.842 308.407 140.159 307.202C141.445 305.99 142.806 305.361 144.243 305.315C143.398 304.757 142.716 304.028 142.195 303.127C141.675 302.225 141.375 301.118 141.296 299.805C141.209 298.522 141.402 297 141.874 295.239C142.478 292.982 143.341 291.06 144.463 289.472C145.575 287.915 147.006 286.841 148.755 286.249C150.504 285.658 152.599 285.689 155.041 286.343Z" fill="#553B92"/>
</g>
<g opacity="0.7">
<path d="M262.797 169.967L292.226 159.603C291.979 159.385 291.68 159.066 291.329 158.647C291.019 158.247 290.662 157.813 290.26 157.344C289.887 156.864 289.525 156.415 289.174 155.996C288.853 155.566 288.585 155.237 288.368 155.007L293.53 153.19C293.838 153.488 294.25 153.886 294.764 154.384C295.289 154.911 295.855 155.458 296.462 156.025C297.068 156.592 297.689 157.102 298.324 157.557C298.97 158.042 299.533 158.387 300.012 158.591L301.925 164.024L265.253 176.939L262.797 169.967ZM270.377 193.08C269.58 190.817 269.289 188.883 269.505 187.281C269.751 185.667 270.462 184.314 271.638 183.222C272.844 182.118 274.458 181.211 276.48 180.499C276.571 180.467 276.662 180.435 276.752 180.403C276.843 180.371 276.933 180.339 277.024 180.307L279.352 186.917C277.812 187.459 276.718 188.014 276.07 188.582C275.432 189.18 275.321 190.067 275.735 191.244C275.991 191.969 276.414 192.447 277.005 192.68C277.595 192.913 278.461 192.914 279.601 192.682C280.74 192.45 282.231 192.01 284.072 191.362L287.83 190.039C287.017 189.85 286.286 189.412 285.637 188.724C284.987 188.037 284.462 187.17 284.06 186.125C283.338 184.173 283.254 182.439 283.805 180.922C284.386 179.394 285.417 178.081 286.896 176.983C288.386 175.916 290.142 175.026 292.165 174.314C294.67 173.432 296.955 172.983 299.019 172.969C301.083 172.954 302.884 173.491 304.42 174.578C305.967 175.696 307.161 177.447 308 179.831C308.819 182.155 308.985 184.217 308.499 186.016C308.044 187.805 307.057 189.34 305.541 190.621C304.024 191.901 302.088 192.956 299.734 193.785L286.378 198.488C283.994 199.328 281.755 199.811 279.662 199.938C277.569 200.064 275.73 199.609 274.143 198.573C272.557 197.537 271.302 195.706 270.377 193.08ZM290.088 186.19C290.332 186.884 290.71 187.379 291.221 187.674C291.773 187.988 292.272 188.203 292.719 188.317L298.56 186.26C299.495 185.93 300.329 185.552 301.061 185.125C301.792 184.697 302.331 184.203 302.675 183.64C303.02 183.078 303.06 182.419 302.794 181.665C302.528 180.91 302.07 180.427 301.418 180.215C300.767 180.003 299.947 179.987 298.958 180.165C297.98 180.374 296.827 180.712 295.499 181.18C294.261 181.616 293.175 182.049 292.241 182.48C291.308 182.911 290.633 183.403 290.217 183.956C289.812 184.54 289.769 185.285 290.088 186.19Z" fill="#553B92"/>
</g>
<g opacity="0.7">
<path d="M293.717 265.729C295.069 264.979 296.296 264.64 297.399 264.714C298.51 264.805 299.511 265.234 300.401 266C301.273 266.777 302.052 267.782 302.737 269.016C303.046 269.574 303.286 270.126 303.457 270.672C303.627 271.219 303.724 271.751 303.746 272.27C303.768 272.788 303.72 273.279 303.601 273.743C303.475 274.233 303.266 274.692 302.972 275.12C303.755 275.216 304.56 275.51 305.386 276.003C306.204 276.522 306.936 277.343 307.581 278.466C308.227 279.589 308.58 280.665 308.641 281.692C308.712 282.736 308.481 283.693 307.947 284.564C307.413 285.435 306.571 286.19 305.422 286.828C304.255 287.475 303.169 287.79 302.165 287.772C301.143 287.764 300.217 287.449 299.385 286.827C298.563 286.222 297.846 285.348 297.235 284.206C296.614 283.047 296.3 281.983 296.293 281.014C296.279 280.071 296.451 279.246 296.81 278.538C296.292 278.561 295.8 278.491 295.334 278.329C294.861 278.194 294.411 277.979 293.983 277.686C293.555 277.393 293.154 277.029 292.781 276.595C292.39 276.171 292.04 275.679 291.731 275.121C291.012 273.906 290.572 272.713 290.409 271.543C290.23 270.383 290.395 269.307 290.907 268.316C291.411 267.351 292.347 266.489 293.717 265.729ZM295.335 268.645C294.844 268.917 294.575 269.288 294.525 269.757C294.476 270.227 294.554 270.725 294.758 271.253C294.963 271.781 295.191 272.273 295.445 272.729C295.728 273.28 296.053 273.785 296.418 274.245C296.767 274.715 297.149 275.045 297.564 275.235C297.979 275.425 298.432 275.384 298.922 275.112C299.395 274.849 299.67 274.487 299.745 274.025C299.804 273.572 299.734 273.069 299.538 272.515C299.333 271.987 299.076 271.444 298.767 270.887C298.514 270.43 298.212 269.967 297.863 269.497C297.524 269.045 297.142 268.715 296.718 268.508C296.286 268.327 295.825 268.373 295.335 268.645ZM300.695 278.307C300.356 278.495 300.156 278.771 300.094 279.138C300.015 279.513 300.056 279.966 300.217 280.495C300.378 281.025 300.637 281.611 300.994 282.253C301.397 282.98 301.839 283.498 302.319 283.806C302.792 284.141 303.282 284.167 303.79 283.886C304.297 283.605 304.551 283.165 304.551 282.568C304.544 281.997 304.343 281.357 303.949 280.647C303.593 280.004 303.236 279.461 302.88 279.018C302.516 278.601 302.154 278.327 301.793 278.195C301.416 278.073 301.05 278.11 300.695 278.307Z" fill="#553B92"/>
</g>
<g opacity="0.7">
<path d="M240.692 316.559L244.385 318.852L247.369 314.045L249.733 315.512L256.945 325.701L254.761 329.218L244.932 323.117L243.986 324.641L241.68 323.21L242.626 321.685L238.933 319.393L240.692 316.559ZM248.195 317.86L246.691 320.283L253.413 324.456L248.195 317.86Z" fill="#553B92"/>
</g>
<g opacity="0.7">
<path d="M85.8036 272.098C85.982 273.265 85.8704 274.26 85.4686 275.081C85.0494 275.89 84.4117 276.538 83.5556 277.026C82.6971 277.498 81.6843 277.824 80.5172 278.002L73.9694 279.004C72.7719 279.187 71.6749 279.215 70.6783 279.088C69.6794 278.946 68.8526 278.561 68.198 277.932C67.5434 277.303 67.1153 276.329 66.9137 275.01C66.7398 273.873 66.7838 272.944 67.0456 272.221C67.2899 271.486 67.7375 270.913 68.3884 270.503C69.0393 270.094 69.8725 269.811 70.888 269.656C70.9335 269.649 70.9865 269.641 71.0471 269.632C71.0903 269.609 71.1346 269.595 71.1801 269.588L71.6877 272.907C70.9146 273.026 70.3503 273.189 69.9945 273.399C69.6388 273.608 69.5049 274.001 69.593 274.577C69.6486 274.941 69.8063 275.212 70.0661 275.389C70.3236 275.551 70.7322 275.636 71.2917 275.644C71.8338 275.638 72.5747 275.564 73.5145 275.42L75.4015 275.132C75.0379 274.985 74.7339 274.722 74.4895 274.34C74.2427 273.944 74.07 273.474 73.9714 272.93C73.7927 271.965 73.8943 271.158 74.2761 270.511C74.6404 269.85 75.2121 269.328 75.9912 268.945C76.7552 268.565 77.6449 268.297 78.6604 268.142C79.9033 267.952 81.0329 267.934 82.0494 268.089C83.0658 268.244 83.9024 268.643 84.5593 269.287C85.1988 269.918 85.6135 270.855 85.8036 272.098ZM83.182 272.453C83.1241 272.074 82.9524 271.813 82.6669 271.671C82.3791 271.513 81.9956 271.44 81.5165 271.451C81.035 271.447 80.4608 271.496 79.7939 271.598C79.1573 271.695 78.6075 271.803 78.1446 271.92C77.6642 272.024 77.3027 272.196 77.06 272.435C76.8173 272.674 76.7307 273.02 76.8002 273.475C76.8327 273.687 76.9094 273.885 77.0305 274.068C77.1341 274.238 77.2645 274.381 77.4218 274.497C77.5639 274.615 77.709 274.701 77.857 274.756L80.7899 274.308C81.2446 274.238 81.6708 274.134 82.0685 273.996C82.4486 273.845 82.7438 273.644 82.9538 273.395C83.1639 273.146 83.24 272.832 83.182 272.453Z" fill="#553B92"/>
</g>
<g opacity="0.7">
<path d="M254.263 107.066C252.647 106.945 251.383 106.549 250.471 105.879C249.58 105.19 248.967 104.282 248.63 103.154C248.295 102.005 248.182 100.713 248.289 99.2771L248.355 98.4096L252.962 98.7556C252.959 98.7954 252.95 98.9051 252.937 99.0846C252.925 99.2442 252.913 99.4037 252.901 99.5633C252.862 100.343 252.874 100.995 252.934 101.521C253.017 102.029 253.188 102.423 253.447 102.703C253.707 102.983 254.096 103.143 254.615 103.182C255.153 103.222 255.562 103.123 255.841 102.883C256.121 102.623 256.33 102.238 256.469 101.727C256.608 101.216 256.705 100.581 256.762 99.8232C256.854 98.6066 256.745 97.6558 256.435 96.9707C256.127 96.2656 255.435 95.8627 254.36 95.7619C254.34 95.7604 254.24 95.7529 254.061 95.7394C253.881 95.7259 253.712 95.7132 253.552 95.7012L253.808 92.2908C253.928 92.2998 254.047 92.3088 254.167 92.3178C254.307 92.3282 254.426 92.3372 254.526 92.3447C255.603 92.4256 256.353 92.1911 256.775 91.6412C257.217 91.0928 257.485 90.2003 257.578 88.9638C257.65 88.0065 257.566 87.2481 257.328 86.6886C257.089 86.1292 256.59 85.821 255.833 85.7641C255.075 85.7072 254.554 85.9689 254.269 86.5492C253.985 87.1296 253.798 87.8877 253.707 88.8235C253.696 88.9831 253.682 89.1626 253.667 89.362C253.654 89.5415 253.64 89.721 253.627 89.9005L249.02 89.5545L249.118 88.2382C249.225 86.8222 249.574 85.645 250.166 84.7067C250.759 83.7485 251.554 83.046 252.55 82.5994C253.547 82.1528 254.733 81.9811 256.109 82.0844C257.485 82.1878 258.643 82.5255 259.583 83.0974C260.523 83.6694 261.206 84.4528 261.633 85.4476C262.079 86.4438 262.249 87.6499 262.143 89.0659C262.037 90.482 261.649 91.6362 260.98 92.5286C260.332 93.4225 259.569 93.9669 258.692 94.1618C259.275 94.4062 259.779 94.7749 260.203 95.2681C260.627 95.7612 260.94 96.4065 261.141 97.2037C261.343 97.9811 261.402 98.9381 261.316 100.075C261.207 101.531 260.9 102.811 260.396 103.917C259.893 105.002 259.139 105.828 258.134 106.394C257.129 106.961 255.838 107.185 254.263 107.066Z" fill="#553B92"/>
</g>
<g opacity="0.7">
<path d="M133.012 144.695L126.48 138.399L118.286 146.902L114.104 142.871L103.851 118.924L109.847 112.703L127.231 129.457L129.83 126.762L133.908 130.692L131.31 133.388L137.842 139.683L133.012 144.695ZM118.271 138.755L122.402 134.469L110.512 123.011L118.271 138.755Z" fill="#553B92"/>
</g>
<g opacity="0.7">
<path d="M167.045 82.7968L175.711 65.3286C175.506 65.3381 175.233 65.3256 174.893 65.2908C174.58 65.2471 174.231 65.2079 173.846 65.1733C173.47 65.1208 173.112 65.0772 172.772 65.0425C172.441 64.9898 172.177 64.9594 171.98 64.951L173.5 61.8874C173.769 61.8865 174.126 61.8854 174.574 61.884C175.039 61.8916 175.531 61.89 176.049 61.8795C176.568 61.8689 177.069 61.8271 177.552 61.7541C178.052 61.6899 178.455 61.5992 178.758 61.482L181.983 63.082L171.183 84.8501L167.045 82.7968ZM180.89 90.0344C179.51 89.35 178.533 88.4854 177.957 87.4407C177.408 86.3869 177.194 85.2204 177.316 83.941C177.455 82.6704 177.867 81.3454 178.551 79.9659L182.391 72.2261C183.093 70.8107 183.886 69.6187 184.768 68.65C185.669 67.6901 186.7 67.0966 187.862 66.8694C189.024 66.6422 190.384 66.9153 191.943 67.6886C193.287 68.3553 194.246 69.0992 194.821 69.9203C195.423 70.7324 195.698 71.6394 195.648 72.6413C195.597 73.6432 195.274 74.7443 194.679 75.9447C194.652 75.9985 194.621 76.0612 194.585 76.1328C194.577 76.1955 194.559 76.2537 194.532 76.3074L190.609 74.3607C191.062 73.447 191.31 72.7218 191.353 72.185C191.396 71.6482 191.077 71.2109 190.397 70.8731C189.967 70.6598 189.56 70.6253 189.175 70.7696C188.809 70.9227 188.412 71.2952 187.985 71.8868C187.584 72.4694 187.108 73.3161 186.557 74.4269L185.45 76.6575C185.879 76.3789 186.388 76.2521 186.979 76.2771C187.587 76.311 188.218 76.479 188.872 76.7811C190.036 77.3141 190.821 78.0273 191.226 78.9204C191.659 79.8046 191.787 80.806 191.611 81.9245C191.445 83.0252 191.064 84.1757 190.468 85.3761C189.739 86.8452 188.911 88.0642 187.984 89.0331C187.057 90.0019 186.003 90.5955 184.823 90.8138C183.67 91.0231 182.359 90.7633 180.89 90.0344ZM182.477 86.9705C182.925 87.1928 183.332 87.2049 183.698 87.007C184.082 86.818 184.448 86.4636 184.795 85.9437C185.16 85.4328 185.538 84.7831 185.929 83.9948C186.303 83.2423 186.6 82.5751 186.822 81.993C187.071 81.4019 187.158 80.8873 187.085 80.4493C187.013 80.0113 186.707 79.6589 186.17 79.3922C185.919 79.2678 185.651 79.2015 185.364 79.1935C185.105 79.1764 184.855 79.2085 184.613 79.2897C184.381 79.353 184.18 79.4431 184.01 79.5599L182.29 83.0267C182.024 83.5642 181.815 84.097 181.665 84.6252C181.541 85.1443 181.534 85.6094 181.642 86.0205C181.751 86.4317 182.029 86.7483 182.477 86.9705Z" fill="#553B92"/>
</g>
<rect x="160.129" y="230.152" width="35.5412" height="7.03878" rx="3" transform="rotate(15 160.129 230.152)" fill="#1E1E26" fill-opacity="0.93"/>
<defs>
<filter id="filter0_d_17_169" x="164.467" y="176.805" width="40.6562" height="58.5773" filterUnits="userSpaceOnUse" color-interpolation-filters="sRGB">
<feFlood flood-opacity="0" result="BackgroundImageFix"/>
<feColorMatrix in="SourceAlpha" type="matrix" values="0 0 0 0 0 0 0 0 0 0 0 0 0 0 0 0 0 0 127 0" result="hardAlpha"/>
<feOffset/>
<feComposite in2="hardAlpha" operator="out"/>
<feColorMatrix type="matrix" values="0 0 0 0 0.264705 0 0 0 0 0.318651 0 0 0 0 0.804167 0 0 0 0.8 0"/>
<feBlend mode="normal" in2="BackgroundImageFix" result="effect1_dropShadow_17_169"/>
<feBlend mode="normal" in="SourceGraphic" in2="effect1_dropShadow_17_169" result="shape"/>
</filter>
</defs>
</svg>
