<svg width="685" height="1199" viewBox="0 0 685 1199" fill="none" xmlns="http://www.w3.org/2000/svg">
<path d="M507.922 160.459L383.843 38.1787L220.077 83.3313L176.466 246.09L295.327 368.525L464.311 323.218L507.922 160.459Z" fill="#F5F5FA" stroke="#553B92" stroke-width="10"/>
<path d="M366.373 103.379L415.042 288.793M366.373 103.379L507.922 160.459M366.373 103.379L383.843 38.1787M366.373 103.379L220.077 83.3313M366.373 103.379L232.482 239.876M415.042 288.793L507.922 160.459M415.042 288.793L232.482 239.876M415.042 288.793L295.327 368.525M415.042 288.793L464.311 323.218M507.922 160.459L383.843 38.1787M507.922 160.459L464.311 323.218M383.843 38.1787L220.077 83.3313M464.311 323.218L295.327 368.525M295.327 368.525L176.466 246.09M295.327 368.525L232.482 239.876M176.466 246.09L220.077 83.3313M176.466 246.09L232.482 239.876M220.077 83.3313L232.482 239.876" stroke="#553B92" stroke-width="10"/>
<circle cx="366.114" cy="104.344" r="9.5" transform="rotate(15 366.114 104.344)" stroke="#553B92" stroke-width="6"/>
<circle cx="414.465" cy="287.087" r="9.5" transform="rotate(15 414.465 287.087)" stroke="#553B92" stroke-width="6"/>
<circle cx="233.837" cy="238.684" r="9.5" transform="rotate(15 233.837 238.684)" stroke="#553B92" stroke-width="6"/>
<g filter="url(#filter0_d_17_398)">
<path d="M331.253 232.07C327.915 231.175 325.422 229.845 323.775 228.079C322.181 226.282 321.254 224.134 320.996 221.636C320.749 219.096 321.023 216.342 321.818 213.375L322.299 211.582L331.819 214.133C331.797 214.216 331.736 214.442 331.637 214.813C331.548 215.143 331.46 215.473 331.372 215.802C330.982 217.421 330.747 218.793 330.666 219.92C330.637 221.017 330.839 221.91 331.273 222.6C331.706 223.291 332.459 223.779 333.53 224.067C334.643 224.365 335.539 224.318 336.218 223.926C336.909 223.492 337.5 222.767 337.994 221.751C338.487 220.735 338.943 219.443 339.363 217.877C340.036 215.363 340.184 213.327 339.807 211.768C339.441 210.168 338.15 209.049 335.936 208.412C335.895 208.401 335.689 208.346 335.318 208.246C334.947 208.147 334.596 208.053 334.267 207.965L336.155 200.917C336.402 200.983 336.65 201.05 336.897 201.116C337.185 201.193 337.433 201.26 337.639 201.315C339.864 201.911 341.529 201.717 342.632 200.731C343.776 199.757 344.691 197.992 345.376 195.437C345.906 193.459 346.031 191.836 345.753 190.569C345.474 189.301 344.551 188.458 342.985 188.038C341.419 187.618 340.223 187.961 339.397 189.064C338.571 190.168 337.878 191.683 337.318 193.609C337.23 193.939 337.13 194.31 337.02 194.722C336.921 195.093 336.821 195.464 336.722 195.835L327.202 193.284L327.931 190.564C328.715 187.638 329.913 185.308 331.526 183.576C333.149 181.803 335.094 180.645 337.359 180.104C339.624 179.562 342.179 179.672 345.023 180.434C347.866 181.196 350.16 182.363 351.903 183.934C353.647 185.506 354.768 187.419 355.269 189.673C355.81 191.938 355.689 194.534 354.905 197.46C354.121 200.386 352.851 202.652 351.096 204.258C349.381 205.875 347.566 206.713 345.651 206.774C346.777 207.518 347.687 208.49 348.38 209.692C349.074 210.894 349.474 212.371 349.579 214.121C349.695 215.831 349.438 217.86 348.809 220.21C348.003 223.218 346.852 225.781 345.357 227.898C343.874 229.974 341.966 231.407 339.634 232.195C337.303 232.984 334.509 232.942 331.253 232.07Z" fill="#553B92"/>
</g>
<g opacity="0.7">
<path d="M222.501 214.402L201.127 213.998L202.587 220.465L199.134 221.245L196.677 210.358L199.662 209.685L221.51 210.012L222.501 214.402Z" fill="#553B92"/>
</g>
<g opacity="0.7">
<path d="M319.673 290.156L311.598 320.293C311.918 320.213 312.35 320.147 312.894 320.094C313.399 320.063 313.959 320.014 314.573 319.947C315.179 319.911 315.754 319.866 316.299 319.813C316.835 319.791 317.258 319.756 317.57 319.707L316.153 324.992C315.733 325.078 315.172 325.193 314.471 325.336C313.739 325.472 312.968 325.629 312.158 325.81C311.347 325.99 310.575 326.214 309.841 326.481C309.076 326.74 308.474 327.009 308.034 327.289L302.47 325.798L312.533 288.243L319.673 290.156Z" fill="#553B92"/>
</g>
<g opacity="0.7">
<path d="M415.797 169.967L445.226 159.603C444.979 159.385 444.68 159.066 444.329 158.647C444.019 158.247 443.662 157.813 443.26 157.344C442.887 156.864 442.525 156.415 442.174 155.996C441.853 155.566 441.585 155.237 441.368 155.008L446.53 153.19C446.838 153.488 447.25 153.886 447.764 154.384C448.289 154.911 448.855 155.458 449.462 156.025C450.068 156.592 450.689 157.102 451.324 157.557C451.97 158.042 452.533 158.387 453.012 158.592L454.925 164.025L418.253 176.939L415.797 169.967ZM423.377 193.08C422.58 190.817 422.289 188.883 422.505 187.281C422.751 185.667 423.462 184.314 424.638 183.222C425.844 182.119 427.458 181.211 429.48 180.499C429.571 180.467 429.662 180.435 429.752 180.403C429.843 180.371 429.933 180.339 430.024 180.307L432.352 186.918C430.812 187.46 429.718 188.014 429.07 188.582C428.432 189.18 428.321 190.067 428.735 191.244C428.991 191.969 429.414 192.447 430.005 192.68C430.595 192.913 431.461 192.914 432.601 192.682C433.74 192.45 435.231 192.01 437.072 191.362L440.83 190.039C440.017 189.85 439.286 189.412 438.637 188.724C437.987 188.037 437.462 187.17 437.06 186.125C436.338 184.173 436.254 182.439 436.805 180.922C437.386 179.394 438.417 178.081 439.896 176.983C441.386 175.916 443.142 175.026 445.165 174.314C447.67 173.432 449.955 172.983 452.019 172.969C454.083 172.954 455.884 173.491 457.42 174.578C458.967 175.696 460.161 177.447 461 179.831C461.819 182.155 461.985 184.217 461.499 186.017C461.044 187.806 460.057 189.34 458.541 190.621C457.024 191.901 455.088 192.956 452.734 193.785L439.378 198.489C436.994 199.328 434.755 199.811 432.662 199.938C430.569 200.064 428.73 199.609 427.143 198.573C425.557 197.537 424.302 195.706 423.377 193.08ZM443.088 186.19C443.332 186.884 443.71 187.379 444.221 187.674C444.773 187.989 445.272 188.203 445.719 188.317L451.56 186.26C452.495 185.93 453.329 185.552 454.061 185.125C454.792 184.697 455.331 184.203 455.675 183.64C456.02 183.078 456.06 182.419 455.794 181.665C455.528 180.91 455.07 180.427 454.418 180.215C453.767 180.004 452.947 179.987 451.958 180.166C450.98 180.374 449.827 180.713 448.499 181.18C447.261 181.616 446.175 182.049 445.241 182.48C444.308 182.911 443.633 183.403 443.217 183.956C442.812 184.54 442.769 185.285 443.088 186.19Z" fill="#553B92"/>
</g>
<g opacity="0.7">
<path d="M448.541 265.115L457.685 281.598C457.79 281.429 457.95 281.219 458.164 280.968C458.371 280.742 458.594 280.486 458.832 280.199C459.08 279.929 459.312 279.668 459.526 279.416C459.749 279.182 459.919 278.988 460.033 278.836L461.637 281.727C461.49 281.941 461.295 282.227 461.051 282.583C460.789 282.949 460.521 283.342 460.244 283.76C459.968 284.179 459.726 284.6 459.52 285.024C459.296 285.458 459.147 285.828 459.074 286.134L456.031 287.822L444.635 267.281L448.541 265.115Z" fill="#553B92"/>
</g>
<g opacity="0.7">
<path d="M393.692 316.559L397.385 318.852L400.369 314.045L402.733 315.513L409.945 325.701L407.761 329.218L397.932 323.117L396.986 324.641L394.68 323.21L395.626 321.685L391.933 319.393L393.692 316.559ZM401.195 317.86L399.691 320.283L406.413 324.456L401.195 317.86Z" fill="#553B92"/>
</g>
<g opacity="0.7">
<path d="M239.614 279.069L224.835 281.329C224.932 281.453 225.044 281.63 225.172 281.859C225.283 282.075 225.412 282.311 225.56 282.567C225.693 282.826 225.823 283.07 225.951 283.299C226.064 283.53 226.161 283.709 226.243 283.836L223.651 284.232C223.532 284.064 223.374 283.84 223.176 283.56C222.975 283.265 222.758 282.957 222.523 282.636C222.287 282.315 222.04 282.02 221.782 281.749C221.521 281.463 221.287 281.251 221.08 281.112L220.662 278.384L239.078 275.568L239.614 279.069ZM238.191 267.638C238.388 268.926 238.304 269.947 237.939 270.701C237.573 271.455 236.985 272.026 236.176 272.413C235.364 272.785 234.39 273.058 233.253 273.232L232.735 269.845C233.402 269.743 233.957 269.619 234.4 269.474C234.841 269.313 235.159 269.109 235.354 268.863C235.547 268.6 235.602 268.251 235.519 267.813C235.437 267.376 235.222 267.083 234.873 266.935C234.525 266.787 234.051 266.735 233.453 266.78C232.855 266.825 232.155 266.909 231.351 267.032C230.699 267.131 230.129 267.257 229.641 267.409C229.152 267.562 228.781 267.774 228.528 268.045C228.272 268.301 228.179 268.657 228.249 269.111C228.312 269.521 228.508 269.84 228.837 270.068C229.165 270.282 229.603 270.409 230.152 270.449L230.611 273.45L220.114 274.799L218.821 266.342L221.845 265.879L222.697 271.449L226.798 271.032C226.542 270.885 226.299 270.612 226.067 270.213C225.833 269.799 225.663 269.344 225.556 268.848C225.319 267.907 225.381 267.091 225.74 266.4C226.098 265.694 226.7 265.121 227.548 264.681C228.381 264.244 229.434 263.928 230.707 263.733C231.677 263.585 232.588 263.507 233.441 263.501C234.278 263.497 235.026 263.623 235.685 263.879C236.33 264.137 236.869 264.567 237.302 265.168C237.735 265.768 238.031 266.592 238.191 267.638Z" fill="#553B92"/>
</g>
<g opacity="0.7">
<path d="M398.761 107.61L400.221 88.1647C400.034 88.251 399.777 88.342 399.448 88.4377C399.142 88.5149 398.804 88.6099 398.434 88.7225C398.066 88.8152 397.718 88.9094 397.39 89.0051C397.064 89.0809 396.808 89.1519 396.622 89.2182L396.878 85.8078C397.127 85.7061 397.458 85.5705 397.871 85.401C398.305 85.233 398.76 85.0466 399.237 84.8417C399.714 84.6369 400.162 84.4098 400.582 84.1605C401.022 83.9128 401.36 83.6775 401.598 83.4546L405.188 83.7242L403.368 107.956L398.761 107.61ZM407.426 108.261L407.671 105L414.245 96.378C414.735 95.7329 415.192 95.1154 415.617 94.5256C416.063 93.9373 416.429 93.3331 416.716 92.7128C417.025 92.0742 417.207 91.3859 417.262 90.6479C417.321 89.8701 417.215 89.2705 416.946 88.8492C416.679 88.4079 416.265 88.1663 415.707 88.1244C415.109 88.0794 414.637 88.2145 414.293 88.5296C413.95 88.8247 413.698 89.237 413.538 89.7665C413.378 90.296 413.274 90.8799 413.226 91.5181L413.141 92.6549L408.623 92.3156L408.713 91.119C408.821 89.6831 409.136 88.4231 409.659 87.3392C410.201 86.2568 410.975 85.4424 411.978 84.8961C413.004 84.3312 414.304 84.108 415.879 84.2263C418.013 84.3866 419.577 85.0656 420.57 86.2633C421.563 87.4611 421.984 89.0671 421.833 91.0814C421.759 92.0587 421.542 92.9549 421.18 93.7701C420.819 94.5653 420.36 95.3331 419.803 96.0735C419.268 96.7954 418.69 97.5442 418.07 98.32L412.875 105L420.085 105.541L419.811 109.191L407.426 108.261Z" fill="#553B92"/>
</g>
<g opacity="0.7">
<path d="M276.378 154.692L253.913 133.041C253.828 133.359 253.677 133.769 253.46 134.271C253.242 134.728 253.014 135.241 252.776 135.812C252.514 136.36 252.275 136.885 252.058 137.386C251.818 137.866 251.644 138.254 251.536 138.55L247.596 134.753C247.724 134.343 247.895 133.797 248.109 133.114C248.345 132.408 248.58 131.657 248.814 130.861C249.048 130.064 249.226 129.28 249.348 128.508C249.492 127.714 249.547 127.056 249.515 126.536L253.512 122.389L281.507 149.369L276.378 154.692ZM287.025 143.644L268.771 114.719L261.409 122.357L257.331 118.427L269.722 105.569L273.247 108.967L292.021 138.46L287.025 143.644Z" fill="#553B92"/>
</g>
<g opacity="0.7">
<path d="M320.045 82.7968L328.711 65.3286C328.506 65.3381 328.233 65.3256 327.893 65.2908C327.58 65.2471 327.231 65.2079 326.846 65.1733C326.47 65.1208 326.112 65.0772 325.772 65.0425C325.441 64.9898 325.177 64.9594 324.98 64.951L326.5 61.8874C326.769 61.8865 327.126 61.8854 327.574 61.884C328.039 61.8916 328.531 61.89 329.049 61.8795C329.568 61.8689 330.069 61.8271 330.552 61.7541C331.052 61.6899 331.455 61.5992 331.758 61.482L334.983 63.082L324.183 84.8501L320.045 82.7968ZM333.85 90.115C332.542 89.4661 331.591 88.6596 330.998 87.6955C330.405 86.7313 330.124 85.6767 330.156 84.5318C330.198 83.3689 330.525 82.1693 331.138 80.9331L335.978 71.1778C336.609 69.9058 337.366 68.8972 338.25 68.1521C339.142 67.389 340.151 66.9521 341.278 66.8413C342.404 66.7305 343.64 67.0084 344.983 67.6751C346.309 68.3329 347.26 69.1394 347.835 70.0947C348.428 71.0588 348.691 72.1268 348.623 73.2988C348.564 74.4528 348.219 75.6658 347.588 76.9378L342.748 86.6931C342.134 87.9294 341.377 88.9156 340.476 89.6518C339.584 90.3701 338.575 90.7847 337.448 90.8955C336.321 91.0063 335.122 90.7461 333.85 90.115ZM335.663 86.4601C336.147 86.7001 336.572 86.7212 336.938 86.5233C337.304 86.3254 337.625 86.0382 337.901 85.6616C338.186 85.2672 338.418 84.8908 338.595 84.5325L343.355 74.9384C343.551 74.5443 343.72 74.1144 343.861 73.6489C344.021 73.1922 344.069 72.7583 344.005 72.347C343.95 71.9179 343.672 71.5789 343.17 71.33C342.668 71.0811 342.221 71.0601 341.828 71.267C341.462 71.465 341.136 71.7611 340.851 72.1556C340.584 72.5589 340.353 72.9576 340.157 73.3518L335.397 82.9458C335.22 83.3042 335.06 83.7161 334.918 84.1816C334.785 84.6293 334.76 85.0631 334.842 85.4833C334.924 85.9034 335.197 86.229 335.663 86.4601Z" fill="#553B92"/>
</g>
<g filter="url(#filter1_ddddd_17_398)">
<rect x="199" y="446.887" width="287" height="56" rx="7.62745" fill="#4414AA"/>
</g>
<path d="M302.632 492V457.052H311.692C314.051 457.052 316.064 457.326 317.733 457.872C319.43 458.39 320.724 459.325 321.616 460.677C322.536 462.028 322.996 463.898 322.996 466.285C322.996 467.724 322.867 469.004 322.608 470.125C322.378 471.218 321.947 472.182 321.314 473.016C320.71 473.821 319.847 474.469 318.725 474.958L323.557 492H316.266L312.253 476.166H309.751V492H302.632ZM309.751 471.937H311.822C312.972 471.937 313.878 471.751 314.54 471.377C315.201 471.003 315.662 470.442 315.921 469.694C316.208 468.917 316.352 467.968 316.352 466.846C316.352 465.236 316.05 464.013 315.446 463.179C314.871 462.316 313.778 461.885 312.167 461.885H309.751V471.937ZM337.284 492.475C334.724 492.475 332.696 492.014 331.2 491.094C329.705 490.174 328.626 488.865 327.964 487.168C327.332 485.442 327.015 483.385 327.015 480.998V467.968C327.015 465.581 327.332 463.539 327.964 461.842C328.626 460.144 329.705 458.85 331.2 457.958C332.696 457.067 334.724 456.621 337.284 456.621C339.873 456.621 341.915 457.081 343.41 458.002C344.935 458.893 346.014 460.188 346.646 461.885C347.308 463.553 347.639 465.581 347.639 467.968V480.998C347.639 483.385 347.308 485.442 346.646 487.168C346.014 488.865 344.935 490.174 343.41 491.094C341.915 492.014 339.873 492.475 337.284 492.475ZM337.284 487.34C338.204 487.34 338.88 487.139 339.312 486.736C339.743 486.305 340.031 485.744 340.175 485.054C340.318 484.335 340.39 483.572 340.39 482.767V466.242C340.39 465.437 340.318 464.689 340.175 463.999C340.031 463.308 339.743 462.762 339.312 462.359C338.88 461.928 338.204 461.712 337.284 461.712C336.421 461.712 335.774 461.928 335.342 462.359C334.911 462.762 334.623 463.308 334.479 463.999C334.336 464.689 334.264 465.437 334.264 466.242V482.767C334.264 483.572 334.321 484.335 334.436 485.054C334.58 485.744 334.868 486.305 335.299 486.736C335.731 487.139 336.392 487.34 337.284 487.34ZM352.392 492V457.052H359.511V487.168H367.709V492H352.392ZM371.057 492V457.052H378.176V487.168H386.374V492H371.057Z" fill="#F5F5FA"/>
<defs>
<filter id="filter0_d_17_398" x="317.777" y="176.84" width="40.7227" height="58.8247" filterUnits="userSpaceOnUse" color-interpolation-filters="sRGB">
<feFlood flood-opacity="0" result="BackgroundImageFix"/>
<feColorMatrix in="SourceAlpha" type="matrix" values="0 0 0 0 0 0 0 0 0 0 0 0 0 0 0 0 0 0 127 0" result="hardAlpha"/>
<feOffset/>
<feComposite in2="hardAlpha" operator="out"/>
<feColorMatrix type="matrix" values="0 0 0 0 0.264705 0 0 0 0 0.318651 0 0 0 0 0.804167 0 0 0 0.8 0"/>
<feBlend mode="normal" in2="BackgroundImageFix" result="effect1_dropShadow_17_398"/>
<feBlend mode="normal" in="SourceGraphic" in2="effect1_dropShadow_17_398" result="shape"/>
</filter>
<filter id="filter1_ddddd_17_398" x="0" y="409.887" width="685" height="789" filterUnits="userSpaceOnUse" color-interpolation-filters="sRGB">
<feFlood flood-opacity="0" result="BackgroundImageFix"/>
<feColorMatrix in="SourceAlpha" type="matrix" values="0 0 0 0 0 0 0 0 0 0 0 0 0 0 0 0 0 0 127 0" result="hardAlpha"/>
<feOffset/>
<feColorMatrix type="matrix" values="0 0 0 0 0 0 0 0 0 0 0 0 0 0 0 0 0 0 0.1 0"/>
<feBlend mode="normal" in2="BackgroundImageFix" result="effect1_dropShadow_17_398"/>
<feColorMatrix in="SourceAlpha" type="matrix" values="0 0 0 0 0 0 0 0 0 0 0 0 0 0 0 0 0 0 127 0" result="hardAlpha"/>
<feOffset dy="31"/>
<feGaussianBlur stdDeviation="34"/>
<feColorMatrix type="matrix" values="0 0 0 0 0 0 0 0 0 0 0 0 0 0 0 0 0 0 0.1 0"/>
<feBlend mode="normal" in2="effect1_dropShadow_17_398" result="effect2_dropShadow_17_398"/>
<feColorMatrix in="SourceAlpha" type="matrix" values="0 0 0 0 0 0 0 0 0 0 0 0 0 0 0 0 0 0 127 0" result="hardAlpha"/>
<feOffset dy="124"/>
<feGaussianBlur stdDeviation="62"/>
<feColorMatrix type="matrix" values="0 0 0 0 0 0 0 0 0 0 0 0 0 0 0 0 0 0 0.09 0"/>
<feBlend mode="normal" in2="effect2_dropShadow_17_398" result="effect3_dropShadow_17_398"/>
<feColorMatrix in="SourceAlpha" type="matrix" values="0 0 0 0 0 0 0 0 0 0 0 0 0 0 0 0 0 0 127 0" result="hardAlpha"/>
<feOffset dy="280"/>
<feGaussianBlur stdDeviation="84"/>
<feColorMatrix type="matrix" values="0 0 0 0 0 0 0 0 0 0 0 0 0 0 0 0 0 0 0.05 0"/>
<feBlend mode="normal" in2="effect3_dropShadow_17_398" result="effect4_dropShadow_17_398"/>
<feColorMatrix in="SourceAlpha" type="matrix" values="0 0 0 0 0 0 0 0 0 0 0 0 0 0 0 0 0 0 127 0" result="hardAlpha"/>
<feOffset dy="497"/>
<feGaussianBlur stdDeviation="99.5"/>
<feColorMatrix type="matrix" values="0 0 0 0 0 0 0 0 0 0 0 0 0 0 0 0 0 0 0.01 0"/>
<feBlend mode="normal" in2="effect4_dropShadow_17_398" result="effect5_dropShadow_17_398"/>
<feBlend mode="normal" in="SourceGraphic" in2="effect5_dropShadow_17_398" result="shape"/>
</filter>
</defs>
</svg>
