<svg width="378" height="408" viewBox="0 0 378 408" fill="none" xmlns="http://www.w3.org/2000/svg">
<path d="M354.922 160.459L230.843 38.1787L67.0765 83.3313L23.4655 246.09L142.327 368.525L311.311 323.218L354.922 160.459Z" fill="#F5F5FA" stroke="#553B92" stroke-width="10"/>
<path d="M213.373 103.379L262.042 288.793M213.373 103.379L354.922 160.459M213.373 103.379L230.843 38.1787M213.373 103.379L67.0765 83.3313M213.373 103.379L79.4824 239.876M262.042 288.793L354.922 160.459M262.042 288.793L79.4824 239.876M262.042 288.793L142.327 368.525M262.042 288.793L311.311 323.218M354.922 160.459L230.843 38.1787M354.922 160.459L311.311 323.218M230.843 38.1787L67.0765 83.3313M311.311 323.218L142.327 368.525M142.327 368.525L23.4655 246.09M142.327 368.525L79.4824 239.876M23.4655 246.09L67.0765 83.3313M23.4655 246.09L79.4824 239.876M67.0765 83.3313L79.4824 239.876" stroke="#553B92" stroke-width="10"/>
<circle cx="213.114" cy="104.344" r="9.5" transform="rotate(15 213.114 104.344)" stroke="#553B92" stroke-width="6"/>
<circle cx="261.465" cy="287.087" r="9.5" transform="rotate(15 261.465 287.087)" stroke="#553B92" stroke-width="6"/>
<circle cx="80.8369" cy="238.684" r="9.5" transform="rotate(15 80.8369 238.684)" stroke="#553B92" stroke-width="6"/>
<g filter="url(#filter0_d_17_683)">
<path d="M165.194 227.643L166.999 220.905L184.197 205.437C185.479 204.279 186.683 203.165 187.808 202.098C188.975 201.041 189.982 199.919 190.83 198.733C191.73 197.517 192.384 196.146 192.793 194.621C193.224 193.014 193.24 191.715 192.843 190.725C192.457 189.694 191.687 189.024 190.533 188.715C189.296 188.384 188.255 188.48 187.407 189.004C186.571 189.487 185.881 190.251 185.335 191.298C184.79 192.344 184.34 193.527 183.987 194.846L183.357 197.195L174.023 194.693L174.685 192.221C175.48 189.253 176.64 186.737 178.166 184.672C179.732 182.618 181.675 181.218 183.996 180.47C186.369 179.692 189.183 179.74 192.439 180.612C196.849 181.794 199.857 183.837 201.464 186.741C203.071 189.645 203.317 193.178 202.202 197.341C201.661 199.36 200.849 201.153 199.767 202.718C198.696 204.242 197.43 205.67 195.969 207.001C194.56 208.302 193.053 209.643 191.446 211.023L177.909 222.967L192.808 226.959L190.787 234.501L165.194 227.643Z" fill="#553B92"/>
</g>
<g opacity="0.7">
<path d="M70.6899 219.669L51.6684 223.963C51.8056 224.116 51.968 224.336 52.1555 224.622C52.3191 224.892 52.5088 225.188 52.7246 225.508C52.921 225.833 53.1129 226.138 53.3004 226.424C53.4684 226.714 53.6112 226.938 53.7289 227.096L50.3928 227.849C50.2229 227.641 49.9964 227.364 49.7132 227.018C49.4257 226.653 49.1142 226.272 48.7788 225.876C48.4434 225.48 48.0951 225.118 47.7339 224.789C47.3683 224.441 47.0442 224.186 46.7617 224.025L45.969 220.513L69.6727 215.163L70.6899 219.669ZM67.5727 204.36C67.9117 205.863 67.8575 207.167 67.41 208.272C66.9385 209.363 66.1682 210.265 65.0989 210.977C64.0252 211.671 62.7373 212.187 61.2351 212.526L52.8071 214.429C51.2659 214.776 49.8411 214.914 48.5328 214.84C47.22 214.747 46.109 214.321 45.1997 213.562C44.2904 212.804 43.6442 211.576 43.2611 209.879C42.9308 208.416 42.9029 207.202 43.1774 206.238C43.4279 205.259 43.9579 204.473 44.7672 203.88C45.5766 203.287 46.6348 202.843 47.9419 202.548C48.0004 202.535 48.0687 202.52 48.1467 202.502C48.2009 202.469 48.2572 202.446 48.3157 202.433L49.2801 206.706C48.2852 206.93 47.5658 207.195 47.1221 207.5C46.6784 207.805 46.5403 208.329 46.7076 209.07C46.8133 209.538 47.0433 209.876 47.3976 210.083C47.7475 210.271 48.2868 210.344 49.0155 210.302C49.7204 210.246 50.6776 210.081 51.8871 209.808L54.316 209.26C53.8296 209.103 53.4098 208.787 53.0568 208.314C52.6994 207.82 52.4317 207.224 52.2537 206.527C51.9328 205.287 51.9911 204.228 52.4286 203.35C52.8421 202.457 53.5382 201.726 54.5168 201.156C55.4759 200.591 56.609 200.161 57.9162 199.866C59.5159 199.505 60.9841 199.379 62.3208 199.487C63.6574 199.596 64.7826 200.039 65.6963 200.817C66.5861 201.579 67.2116 202.761 67.5727 204.36ZM64.1941 205.061C64.084 204.574 63.8367 204.25 63.4522 204.091C63.0633 203.912 62.5577 203.852 61.9353 203.911C61.3085 203.95 60.5659 204.066 59.7075 204.26C58.8881 204.445 58.1826 204.635 57.591 204.83C56.9755 205.01 56.5208 205.266 56.2269 205.599C55.933 205.932 55.8521 206.391 55.9842 206.976C56.0459 207.249 56.1638 207.499 56.3381 207.727C56.4885 207.939 56.6713 208.113 56.8866 208.249C57.0823 208.389 57.2789 208.488 57.4765 208.546L61.2515 207.694C61.8368 207.562 62.3818 207.388 62.8865 207.171C63.3674 206.94 63.733 206.652 63.9835 206.308C64.234 205.965 64.3042 205.549 64.1941 205.061Z" fill="#553B92"/>
</g>
<g opacity="0.7">
<path d="M186.765 295.54L185.411 300.593L172.513 312.194C171.551 313.063 170.648 313.898 169.804 314.699C168.929 315.491 168.174 316.332 167.538 317.222C166.863 318.134 166.372 319.162 166.065 320.306C165.742 321.512 165.73 322.486 166.028 323.228C166.318 324.001 166.895 324.504 167.761 324.736C168.688 324.984 169.469 324.912 170.105 324.519C170.732 324.157 171.25 323.584 171.659 322.799C172.068 322.014 172.405 321.127 172.67 320.138L173.142 318.376L180.143 320.252L179.646 322.106C179.05 324.332 178.18 326.219 177.036 327.768C175.861 329.308 174.404 330.359 172.663 330.919C170.884 331.503 168.773 331.467 166.331 330.813C163.024 329.927 160.767 328.394 159.562 326.216C158.357 324.038 158.172 321.388 159.009 318.266C159.415 316.752 160.023 315.407 160.835 314.233C161.638 313.09 162.588 312.02 163.683 311.021C164.74 310.045 165.871 309.04 167.076 308.004L177.228 299.047L166.054 296.053L167.57 290.396L186.765 295.54ZM152.775 285.736C155.031 286.341 156.777 287.306 158.012 288.63C159.247 289.955 160.02 291.521 160.332 293.327C160.634 295.164 160.5 297.149 159.929 299.281L155.419 316.112C154.831 318.306 153.962 320.127 152.812 321.575C151.654 323.054 150.209 324.058 148.477 324.588C146.745 325.117 144.719 325.072 142.401 324.451C140.114 323.838 138.368 322.873 137.164 321.556C135.929 320.232 135.179 318.639 134.915 316.78C134.643 314.951 134.801 312.939 135.39 310.745L139.899 293.915C140.471 291.782 141.347 289.996 142.528 288.556C143.7 287.148 145.152 286.179 146.885 285.649C148.617 285.119 150.58 285.148 152.775 285.736ZM151.085 292.042C150.25 291.818 149.577 291.919 149.066 292.346C148.554 292.772 148.141 293.324 147.827 294.001C147.504 294.71 147.26 295.373 147.095 295.992L142.66 312.544C142.477 313.224 142.349 313.951 142.274 314.726C142.168 315.493 142.23 316.189 142.46 316.814C142.682 317.469 143.225 317.913 144.091 318.145C144.956 318.377 145.664 318.268 146.215 317.82C146.727 317.394 147.144 316.826 147.466 316.118C147.758 315.401 147.995 314.702 148.177 314.022L152.612 297.47C152.778 296.852 152.898 296.155 152.973 295.38C153.04 294.636 152.943 293.948 152.682 293.315C152.421 292.681 151.889 292.257 151.085 292.042Z" fill="#553B92"/>
</g>
<g opacity="0.7">
<path d="M262.963 170.438L292.392 160.074C292.145 159.856 291.846 159.537 291.495 159.118C291.185 158.718 290.828 158.284 290.426 157.815C290.053 157.336 289.692 156.886 289.34 156.467C289.019 156.037 288.751 155.708 288.534 155.479L293.696 153.661C294.004 153.96 294.416 154.358 294.93 154.855C295.455 155.382 296.021 155.93 296.628 156.496C297.234 157.063 297.855 157.574 298.49 158.028C299.136 158.514 299.699 158.858 300.178 159.063L302.091 164.496L265.419 177.41L262.963 170.438ZM270.498 193.568C269.648 191.153 269.435 189.056 269.861 187.278C270.316 185.489 271.293 183.975 272.79 182.735C274.298 181.526 276.153 180.533 278.357 179.757C279.353 179.406 280.32 179.167 281.259 179.04C282.199 178.913 283.094 178.903 283.946 179.01C284.798 179.117 285.586 179.332 286.31 179.653C287.075 179.995 287.766 180.464 288.383 181.061C288.757 179.81 289.46 178.578 290.492 177.366C291.565 176.174 293.107 175.207 295.119 174.465C297.13 173.723 298.983 173.443 300.676 173.627C302.399 173.801 303.898 174.443 305.172 175.556C306.445 176.668 307.444 178.25 308.166 180.302C308.9 182.385 309.113 184.244 308.807 185.878C308.511 187.543 307.741 188.968 306.495 190.153C305.28 191.327 303.657 192.255 301.624 192.937C299.561 193.63 297.737 193.847 296.154 193.591C294.612 193.354 293.313 192.844 292.257 192.062C292.15 192.914 291.9 193.698 291.508 194.413C291.156 195.148 290.681 195.823 290.084 196.441C289.487 197.058 288.783 197.611 287.972 198.101C287.171 198.62 286.272 199.055 285.276 199.406C283.094 200.242 281.026 200.632 279.072 200.573C277.128 200.545 275.418 199.977 273.942 198.868C272.507 197.779 271.359 196.012 270.498 193.568ZM275.704 191.734C276.013 192.609 276.543 193.152 277.296 193.362C278.048 193.572 278.883 193.583 279.801 193.396C280.719 193.208 281.585 192.971 282.4 192.684C283.377 192.374 284.291 191.984 285.143 191.514C286.006 191.075 286.65 190.543 287.075 189.918C287.5 189.294 287.558 188.544 287.249 187.668C286.952 186.823 286.437 186.275 285.704 186.024C284.981 185.804 284.141 185.778 283.182 185.945C282.264 186.133 281.308 186.402 280.311 186.753C279.497 187.04 278.658 187.403 277.795 187.843C276.962 188.272 276.318 188.804 275.863 189.439C275.449 190.094 275.396 190.859 275.704 191.734ZM292.954 185.659C293.167 186.263 293.563 186.666 294.143 186.869C294.734 187.102 295.484 187.16 296.393 187.044C297.302 186.927 298.33 186.667 299.477 186.263C300.775 185.806 301.742 185.228 302.378 184.529C303.054 183.85 303.233 183.057 302.915 182.152C302.596 181.246 301.949 180.711 300.975 180.545C300.041 180.399 298.94 180.549 297.673 180.995C296.526 181.399 295.541 181.831 294.719 182.29C293.938 182.769 293.39 183.284 293.075 183.836C292.771 184.418 292.731 185.026 292.954 185.659Z" fill="#553B92"/>
</g>
<g opacity="0.7">
<path d="M302.099 261.477L311.244 277.96C311.349 277.791 311.509 277.581 311.723 277.329C311.929 277.104 312.152 276.848 312.391 276.561C312.639 276.291 312.87 276.03 313.084 275.778C313.308 275.544 313.477 275.35 313.592 275.198L315.195 278.089C315.049 278.303 314.853 278.588 314.609 278.945C314.348 279.311 314.079 279.703 313.803 280.122C313.526 280.541 313.285 280.962 313.078 281.386C312.854 281.82 312.706 282.19 312.632 282.496L309.589 284.184L298.194 263.643L302.099 261.477ZM289.082 268.3C290.435 267.55 291.662 267.212 292.764 267.285C293.876 267.376 294.876 267.805 295.766 268.572C296.639 269.348 297.417 270.353 298.102 271.587C298.412 272.145 298.652 272.697 298.822 273.244C298.993 273.79 299.089 274.323 299.111 274.841C299.134 275.359 299.085 275.85 298.967 276.314C298.841 276.804 298.631 277.263 298.338 277.691C299.121 277.787 299.925 278.082 300.751 278.574C301.57 279.093 302.302 279.914 302.947 281.037C303.592 282.161 303.945 283.236 304.007 284.263C304.078 285.307 303.846 286.265 303.312 287.136C302.778 288.007 301.937 288.761 300.787 289.399C299.621 290.046 298.535 290.361 297.53 290.343C296.509 290.335 295.582 290.02 294.751 289.398C293.929 288.793 293.212 287.919 292.6 286.777C291.98 285.618 291.666 284.554 291.659 283.585C291.644 282.643 291.817 281.817 292.176 281.11C291.657 281.132 291.165 281.062 290.7 280.9C290.227 280.765 289.776 280.55 289.348 280.257C288.92 279.964 288.519 279.6 288.146 279.166C287.756 278.742 287.406 278.251 287.096 277.693C286.378 276.477 285.937 275.285 285.775 274.115C285.595 272.954 285.761 271.878 286.272 270.887C286.776 269.922 287.713 269.06 289.082 268.3ZM290.7 271.216C290.21 271.488 289.94 271.859 289.891 272.328C289.842 272.798 289.919 273.297 290.124 273.824C290.328 274.352 290.557 274.844 290.81 275.301C291.093 275.851 291.418 276.356 291.784 276.817C292.133 277.286 292.515 277.616 292.93 277.806C293.345 277.996 293.797 277.955 294.287 277.683C294.761 277.42 295.035 277.058 295.111 276.596C295.169 276.144 295.1 275.64 294.903 275.086C294.699 274.558 294.442 274.016 294.132 273.458C293.879 273.001 293.578 272.538 293.229 272.069C292.889 271.616 292.507 271.286 292.083 271.079C291.651 270.899 291.19 270.944 290.7 271.216ZM296.06 280.878C295.722 281.066 295.522 281.343 295.46 281.709C295.38 282.084 295.422 282.537 295.583 283.066C295.744 283.596 296.003 284.182 296.359 284.825C296.762 285.552 297.204 286.069 297.685 286.377C298.158 286.712 298.648 286.738 299.155 286.457C299.662 286.176 299.916 285.737 299.916 285.139C299.909 284.568 299.709 283.928 299.315 283.218C298.958 282.576 298.602 282.033 298.245 281.589C297.881 281.172 297.519 280.898 297.159 280.766C296.781 280.644 296.415 280.681 296.06 280.878Z" fill="#553B92"/>
</g>
<g opacity="0.7">
<path d="M241.514 315.235L254.216 323.119C254.223 322.962 254.253 322.754 254.304 322.497C254.36 322.262 254.415 321.998 254.47 321.707C254.537 321.424 254.597 321.154 254.648 320.897C254.712 320.648 254.754 320.449 254.775 320.299L257.003 321.682C256.984 321.887 256.959 322.16 256.927 322.502C256.888 322.856 256.853 323.232 256.824 323.628C256.794 324.025 256.789 324.41 256.81 324.784C256.823 325.171 256.863 325.484 256.93 325.725L255.474 328.069L239.646 318.244L241.514 315.235Z" fill="#553B92"/>
</g>
<g opacity="0.7">
<path d="M86.6891 279.563L71.9109 281.823C72.0075 281.948 72.1198 282.125 72.2479 282.353C72.3584 282.569 72.4876 282.805 72.6354 283.062C72.7681 283.321 72.8984 283.565 73.0265 283.793C73.1393 284.024 73.2365 284.203 73.318 284.33L70.7261 284.727C70.6074 284.559 70.449 284.335 70.2511 284.055C70.0509 283.76 69.8331 283.452 69.5979 283.131C69.3628 282.81 69.1159 282.514 68.8573 282.244C68.5965 281.958 68.3623 281.745 68.1549 281.606L67.7378 278.878L86.1537 276.062L86.6891 279.563ZM85.1973 267.677C85.3665 268.784 85.2794 269.736 84.9359 270.533C84.5924 271.33 84.0544 271.971 83.3219 272.455C82.5742 272.941 81.6774 273.265 80.6316 273.425L72.3785 274.687C71.3023 274.851 70.3359 274.821 69.4793 274.595C68.6075 274.371 67.8886 273.931 67.3227 273.273C66.7567 272.615 66.3868 271.717 66.213 270.58C66.0415 269.459 66.1286 268.507 66.4744 267.725C66.8178 266.928 67.3722 266.293 68.1373 265.819C68.8874 265.347 69.8004 265.029 70.8766 264.865L79.1297 263.603C80.1755 263.443 81.1279 263.483 81.9869 263.724C82.8307 263.968 83.5356 264.418 84.1015 265.076C84.6675 265.734 85.0327 266.601 85.1973 267.677ZM82.1052 268.15C82.0427 267.741 81.8686 267.465 81.5832 267.323C81.2977 267.18 80.976 267.105 80.6181 267.098C80.2451 267.093 79.907 267.114 79.6038 267.16L71.4872 268.401C71.1537 268.452 70.8097 268.536 70.4552 268.652C70.0984 268.753 69.8051 268.914 69.5752 269.136C69.3302 269.359 69.2401 269.683 69.305 270.108C69.3699 270.532 69.5539 270.822 69.8568 270.977C70.1423 271.12 70.4716 271.193 70.8446 271.198C71.2153 271.188 71.5674 271.158 71.9009 271.107L80.0175 269.866C80.3207 269.819 80.6495 269.738 81.004 269.622C81.3433 269.508 81.6268 269.333 81.8543 269.096C82.0819 268.86 82.1655 268.544 82.1052 268.15Z" fill="#553B92"/>
</g>
<g opacity="0.7">
<path d="M254.143 107.057C252.448 106.93 251.175 106.524 250.324 105.838C249.473 105.152 248.92 104.238 248.664 103.096C248.429 101.955 248.368 100.637 248.48 99.1412L252.938 99.4759C252.872 100.353 252.866 101.095 252.921 101.701C252.996 102.308 253.161 102.772 253.418 103.092C253.695 103.414 254.123 103.586 254.703 103.61C255.283 103.633 255.718 103.445 256.009 103.046C256.3 102.647 256.504 102.06 256.622 101.287C256.741 100.514 256.839 99.5985 256.919 98.5414C256.983 97.6838 256.99 96.9222 256.94 96.2566C256.89 95.591 256.729 95.0574 256.458 94.656C256.208 94.2561 255.783 94.0337 255.185 93.9888C254.646 93.9484 254.183 94.1041 253.796 94.4561C253.428 94.8096 253.139 95.3293 252.927 96.0154L248.978 95.7188L250.34 81.9823L261.469 82.818L261.17 86.7968L253.841 86.2464L253.169 91.5811C253.431 91.2999 253.85 91.0706 254.425 90.8932C255.019 90.7172 255.647 90.634 256.309 90.6436C257.574 90.6182 258.593 90.9355 259.366 91.5952C260.159 92.2564 260.71 93.1903 261.021 94.397C261.333 95.5837 261.426 97.0147 261.3 98.69C261.204 99.9664 261.035 101.147 260.793 102.232C260.553 103.297 260.173 104.211 259.655 104.974C259.138 105.718 258.434 106.277 257.543 106.651C256.653 107.025 255.519 107.161 254.143 107.057Z" fill="#553B92"/>
</g>
<g opacity="0.7">
<path d="M122.337 155.772L99.8715 134.121C99.7868 134.439 99.636 134.85 99.419 135.351C99.2011 135.808 98.9729 136.322 98.7345 136.892C98.473 137.44 98.2338 137.965 98.0167 138.467C97.7767 138.946 97.6028 139.334 97.4951 139.63L93.555 135.833C93.6833 135.423 93.8542 134.877 94.0679 134.194C94.3038 133.488 94.5389 132.737 94.7731 131.941C95.0074 131.144 95.1853 130.36 95.3068 129.589C95.4506 128.794 95.5063 128.136 95.4741 127.616L99.4711 123.469L127.466 150.449L122.337 155.772ZM131.985 145.761L128.217 142.13L124.307 125.229C124.012 123.967 123.718 122.773 123.426 121.647C123.156 120.498 122.785 119.43 122.315 118.442C121.843 117.41 121.181 116.483 120.328 115.662C119.43 114.796 118.583 114.313 117.789 114.215C116.972 114.094 116.253 114.356 115.631 115.001C114.965 115.693 114.65 116.411 114.687 117.158C114.7 117.881 114.951 118.612 115.44 119.35C115.929 120.088 116.542 120.812 117.279 121.523L118.593 122.788L113.563 128.007L112.181 126.675C110.522 125.076 109.291 123.402 108.489 121.651C107.71 119.878 107.496 118.094 107.848 116.299C108.198 114.46 109.251 112.63 111.005 110.81C113.381 108.344 115.814 107.111 118.303 107.11C120.793 107.11 123.201 108.231 125.528 110.473C126.657 111.562 127.539 112.745 128.174 114.023C128.785 115.279 129.263 116.628 129.606 118.07C129.949 119.467 130.282 120.943 130.605 122.499L133.53 135.718L141.558 127.389L145.774 131.452L131.985 145.761Z" fill="#553B92"/>
</g>
<g opacity="0.7">
<path d="M167.512 82.85L176.179 65.3818C175.973 65.3914 175.7 65.3788 175.36 65.3441C175.047 65.3003 174.698 65.2611 174.313 65.2266C173.938 65.1741 173.58 65.1304 173.24 65.0957C172.909 65.0431 172.645 65.0126 172.448 65.0042L173.968 61.9406C174.236 61.9398 174.594 61.9387 175.041 61.9373C175.506 61.9448 175.998 61.9433 176.517 61.9327C177.036 61.9222 177.536 61.8804 178.019 61.8073C178.52 61.7432 178.922 61.6525 179.226 61.5353L182.451 63.1353L171.651 84.9033L167.512 82.85ZM180.78 89.9016C179.257 89.146 178.23 88.2905 177.7 87.3351C177.169 86.3797 177 85.3248 177.193 84.1704C177.405 83.0249 177.843 81.7803 178.51 80.4366L182.514 82.4232C182.123 83.2115 181.839 83.8967 181.662 84.4786C181.503 85.0694 181.482 85.5614 181.6 85.9546C181.735 86.3567 182.067 86.6776 182.595 86.9175C183.124 87.1574 183.598 87.147 184.017 86.8863C184.437 86.6256 184.847 86.1592 185.247 85.4872C185.648 84.8151 186.084 84.0043 186.555 83.0547C186.937 82.2843 187.23 81.5813 187.434 80.9456C187.637 80.31 187.689 79.7553 187.589 79.2815C187.508 78.8167 187.198 78.4509 186.66 78.1842C186.177 77.9442 185.689 77.9144 185.198 78.0948C184.724 78.2841 184.26 78.6568 183.806 79.2127L180.258 77.4527L186.687 65.2373L196.685 70.1973L194.911 73.7715L188.327 70.5049L185.699 75.1953C186.047 75.0333 186.521 74.9781 187.12 75.0299C187.738 75.0906 188.351 75.2497 188.96 75.5072C190.142 75.9598 190.967 76.637 191.435 77.5389C191.92 78.4497 192.08 79.5225 191.914 80.7574C191.757 81.9743 191.305 83.3352 190.558 84.8402C189.989 85.9868 189.389 87.0173 188.757 87.9315C188.133 88.8279 187.438 89.5322 186.67 90.0444C185.911 90.5386 185.049 90.7918 184.083 90.8037C183.117 90.8156 182.016 90.5149 180.78 89.9016Z" fill="#553B92"/>
</g>
<defs>
<filter id="filter0_d_17_683" x="165.194" y="176.951" width="40.5361" height="57.9141" filterUnits="userSpaceOnUse" color-interpolation-filters="sRGB">
<feFlood flood-opacity="0" result="BackgroundImageFix"/>
<feColorMatrix in="SourceAlpha" type="matrix" values="0 0 0 0 0 0 0 0 0 0 0 0 0 0 0 0 0 0 127 0" result="hardAlpha"/>
<feOffset/>
<feComposite in2="hardAlpha" operator="out"/>
<feColorMatrix type="matrix" values="0 0 0 0 0.264705 0 0 0 0 0.318651 0 0 0 0 0.804167 0 0 0 0.8 0"/>
<feBlend mode="normal" in2="BackgroundImageFix" result="effect1_dropShadow_17_683"/>
<feBlend mode="normal" in="SourceGraphic" in2="effect1_dropShadow_17_683" result="shape"/>
</filter>
</defs>
</svg>
