<svg width="685" height="1199" viewBox="0 0 685 1199" fill="none" xmlns="http://www.w3.org/2000/svg">
<path d="M507.922 160.459L383.843 38.1787L220.077 83.3313L176.466 246.09L295.327 368.525L464.311 323.218L507.922 160.459Z" fill="#F5F5FA" stroke="#553B92" stroke-width="10"/>
<path d="M366.373 103.379L415.042 288.793M366.373 103.379L507.922 160.459M366.373 103.379L383.843 38.1787M366.373 103.379L220.077 83.3313M366.373 103.379L232.482 239.876M415.042 288.793L507.922 160.459M415.042 288.793L232.482 239.876M415.042 288.793L295.327 368.525M415.042 288.793L464.311 323.218M507.922 160.459L383.843 38.1787M507.922 160.459L464.311 323.218M383.843 38.1787L220.077 83.3313M464.311 323.218L295.327 368.525M295.327 368.525L176.466 246.09M295.327 368.525L232.482 239.876M176.466 246.09L220.077 83.3313M176.466 246.09L232.482 239.876M220.077 83.3313L232.482 239.876" stroke="#553B92" stroke-width="10"/>
<circle cx="366.114" cy="104.344" r="9.5" transform="rotate(15 366.114 104.344)" stroke="#553B92" stroke-width="6"/>
<circle cx="414.465" cy="287.087" r="9.5" transform="rotate(15 414.465 287.087)" stroke="#553B92" stroke-width="6"/>
<circle cx="233.837" cy="238.684" r="9.5" transform="rotate(15 233.837 238.684)" stroke="#553B92" stroke-width="6"/>
<g filter="url(#filter0_d_17_341)">
<path d="M301.29 223.114L303.096 216.376L320.293 200.907C321.575 199.749 322.779 198.636 323.905 197.568C325.071 196.512 326.078 195.39 326.926 194.204C327.826 192.987 328.481 191.617 328.889 190.092C329.32 188.485 329.337 187.186 328.939 186.196C328.553 185.165 327.783 184.495 326.629 184.186C325.393 183.854 324.351 183.951 323.504 184.475C322.668 184.957 321.977 185.722 321.432 186.768C320.886 187.815 320.437 188.997 320.083 190.316L319.454 192.665L310.119 190.164L310.782 187.691C311.577 184.724 312.737 182.208 314.262 180.143C315.828 178.089 317.772 176.688 320.092 175.941C322.465 175.163 325.279 175.21 328.535 176.083C332.945 177.264 335.953 179.307 337.56 182.212C339.168 185.116 339.413 188.649 338.298 192.812C337.757 194.831 336.945 196.623 335.863 198.189C334.793 199.713 333.527 201.14 332.066 202.472C330.657 203.773 329.149 205.114 327.542 206.494L314.006 218.438L328.904 222.43L326.883 229.972L301.29 223.114ZM346.611 236.185C343.602 235.379 341.274 234.093 339.627 232.326C337.98 230.56 336.949 228.472 336.535 226.064C336.131 223.615 336.31 220.968 337.072 218.125L343.085 195.684C343.869 192.758 345.027 190.33 346.561 188.4C348.105 186.428 350.032 185.089 352.341 184.383C354.651 183.677 357.351 183.738 360.442 184.566C363.492 185.383 365.819 186.669 367.425 188.425C369.072 190.191 370.071 192.314 370.423 194.794C370.785 197.232 370.575 199.914 369.791 202.84L363.778 225.281C363.016 228.124 361.848 230.506 360.273 232.425C358.71 234.303 356.773 235.595 354.464 236.302C352.154 237.008 349.537 236.969 346.611 236.185ZM348.863 227.778C349.976 228.076 350.874 227.941 351.556 227.373C352.238 226.805 352.789 226.069 353.207 225.165C353.637 224.22 353.963 223.335 354.184 222.511L360.097 200.442C360.34 199.535 360.512 198.565 360.612 197.532C360.753 196.509 360.67 195.582 360.364 194.749C360.068 193.874 359.343 193.282 358.189 192.973C357.035 192.664 356.091 192.809 355.356 193.407C354.674 193.975 354.118 194.732 353.688 195.676C353.299 196.632 352.984 197.564 352.741 198.47L346.827 220.54C346.606 221.364 346.446 222.293 346.346 223.326C346.256 224.318 346.386 225.236 346.734 226.081C347.082 226.925 347.792 227.49 348.863 227.778Z" fill="#553B92"/>
</g>
<g opacity="0.7">
<path d="M223.69 219.669L204.668 223.963C204.806 224.116 204.968 224.336 205.155 224.622C205.319 224.892 205.509 225.188 205.725 225.508C205.921 225.833 206.113 226.138 206.3 226.424C206.468 226.714 206.611 226.938 206.729 227.096L203.393 227.849C203.223 227.641 202.996 227.364 202.713 227.018C202.426 226.653 202.114 226.272 201.779 225.876C201.443 225.48 201.095 225.118 200.734 224.789C200.368 224.441 200.044 224.186 199.762 224.025L198.969 220.513L222.673 215.163L223.69 219.669ZM220.573 204.36C220.912 205.863 220.858 207.167 220.41 208.272C219.939 209.363 219.168 210.265 218.099 210.977C217.025 211.671 215.737 212.187 214.235 212.526L205.807 214.429C204.266 214.776 202.841 214.914 201.533 214.84C200.22 214.747 199.109 214.321 198.2 213.562C197.29 212.804 196.644 211.576 196.261 209.879C195.931 208.416 195.903 207.202 196.177 206.238C196.428 205.259 196.958 204.473 197.767 203.88C198.577 203.287 199.635 202.843 200.942 202.548C201 202.535 201.069 202.52 201.147 202.502C201.201 202.469 201.257 202.446 201.316 202.433L202.28 206.706C201.285 206.93 200.566 207.195 200.122 207.5C199.678 207.805 199.54 208.329 199.708 209.07C199.813 209.538 200.043 209.876 200.398 210.083C200.747 210.271 201.287 210.344 202.016 210.302C202.72 210.246 203.678 210.081 204.887 209.808L207.316 209.26C206.83 209.103 206.41 208.787 206.057 208.314C205.699 207.82 205.432 207.224 205.254 206.527C204.933 205.287 204.991 204.228 205.429 203.35C205.842 202.457 206.538 201.726 207.517 201.156C208.476 200.591 209.609 200.161 210.916 199.866C212.516 199.505 213.984 199.379 215.321 199.487C216.657 199.596 217.783 200.039 218.696 200.817C219.586 201.579 220.212 202.761 220.573 204.36ZM217.194 205.061C217.084 204.574 216.837 204.25 216.452 204.091C216.063 203.912 215.558 203.852 214.935 203.911C214.308 203.95 213.566 204.066 212.707 204.26C211.888 204.445 211.183 204.635 210.591 204.83C209.976 205.01 209.521 205.266 209.227 205.599C208.933 205.932 208.852 206.391 208.984 206.976C209.046 207.249 209.164 207.499 209.338 207.727C209.489 207.939 209.671 208.113 209.887 208.249C210.082 208.389 210.279 208.488 210.477 208.546L214.252 207.694C214.837 207.562 215.382 207.388 215.887 207.171C216.367 206.94 216.733 206.652 216.984 206.308C217.234 205.965 217.304 205.549 217.194 205.061Z" fill="#553B92"/>
</g>
<g opacity="0.7">
<path d="M319.673 290.156L311.598 320.293C311.918 320.213 312.35 320.147 312.894 320.094C313.399 320.063 313.959 320.014 314.573 319.947C315.179 319.911 315.754 319.866 316.299 319.813C316.835 319.791 317.258 319.756 317.57 319.707L316.153 324.992C315.733 325.078 315.172 325.193 314.471 325.336C313.739 325.472 312.968 325.629 312.158 325.81C311.347 325.99 310.575 326.214 309.841 326.481C309.076 326.74 308.474 327.009 308.034 327.289L302.47 325.798L312.533 288.243L319.673 290.156Z" fill="#553B92"/>
</g>
<g opacity="0.7">
<path d="M417.524 174.871L422.459 173.133L439.318 177.222C440.579 177.524 441.777 177.798 442.915 178.042C444.063 178.316 445.184 178.464 446.278 178.486C447.412 178.527 448.537 178.352 449.654 177.958C450.831 177.544 451.642 177.004 452.086 176.339C452.56 175.663 452.649 174.902 452.351 174.057C452.032 173.151 451.531 172.548 450.848 172.245C450.195 171.932 449.429 171.829 448.551 171.935C447.672 172.041 446.75 172.264 445.784 172.604L444.063 173.21L441.656 166.373L443.467 165.736C445.64 164.97 447.689 164.622 449.613 164.691C451.547 164.79 453.238 165.399 454.684 166.518C456.17 167.657 457.333 169.419 458.173 171.803C459.311 175.033 459.321 177.76 458.205 179.985C457.088 182.21 455.006 183.86 451.958 184.933C450.479 185.454 449.026 185.711 447.598 185.705C446.202 185.688 444.782 185.51 443.339 185.17C441.937 184.849 440.468 184.484 438.933 184.075L425.806 180.759L429.649 191.67L424.125 193.615L417.524 174.871Z" fill="#553B92"/>
</g>
<g opacity="0.7">
<path d="M455.099 261.477L464.244 277.96C464.349 277.791 464.509 277.581 464.723 277.329C464.929 277.104 465.152 276.848 465.391 276.561C465.639 276.291 465.87 276.03 466.084 275.778C466.308 275.544 466.477 275.35 466.592 275.198L468.195 278.089C468.049 278.303 467.853 278.588 467.609 278.945C467.348 279.311 467.079 279.703 466.803 280.122C466.526 280.541 466.285 280.962 466.078 281.386C465.854 281.82 465.706 282.19 465.632 282.496L462.589 284.184L451.194 263.643L455.099 261.477ZM442.082 268.3C443.435 267.55 444.662 267.212 445.764 267.285C446.876 267.376 447.876 267.805 448.766 268.572C449.639 269.348 450.417 270.353 451.102 271.587C451.412 272.145 451.652 272.697 451.822 273.244C451.993 273.79 452.089 274.323 452.111 274.841C452.134 275.359 452.085 275.85 451.967 276.314C451.841 276.804 451.631 277.263 451.338 277.691C452.121 277.787 452.925 278.082 453.751 278.574C454.57 279.093 455.302 279.914 455.947 281.037C456.592 282.161 456.945 283.236 457.007 284.263C457.078 285.307 456.846 286.265 456.312 287.136C455.778 288.007 454.937 288.761 453.787 289.399C452.621 290.046 451.535 290.361 450.53 290.343C449.509 290.335 448.582 290.02 447.751 289.398C446.929 288.793 446.212 287.919 445.6 286.777C444.98 285.618 444.666 284.554 444.659 283.585C444.644 282.643 444.817 281.817 445.176 281.11C444.657 281.132 444.165 281.062 443.7 280.9C443.227 280.765 442.776 280.55 442.348 280.257C441.92 279.964 441.519 279.6 441.146 279.166C440.756 278.742 440.406 278.251 440.096 277.693C439.378 276.477 438.937 275.285 438.775 274.115C438.595 272.954 438.761 271.878 439.272 270.887C439.776 269.922 440.713 269.06 442.082 268.3ZM443.7 271.216C443.21 271.488 442.94 271.859 442.891 272.328C442.842 272.798 442.919 273.297 443.124 273.824C443.328 274.352 443.557 274.844 443.81 275.301C444.093 275.851 444.418 276.356 444.784 276.817C445.133 277.286 445.515 277.616 445.93 277.806C446.345 277.996 446.797 277.955 447.287 277.683C447.761 277.42 448.035 277.058 448.111 276.596C448.169 276.144 448.1 275.64 447.903 275.086C447.699 274.558 447.442 274.016 447.132 273.458C446.879 273.001 446.578 272.538 446.229 272.069C445.889 271.616 445.507 271.286 445.083 271.079C444.651 270.899 444.19 270.944 443.7 271.216ZM449.06 280.878C448.722 281.066 448.522 281.343 448.46 281.709C448.38 282.084 448.422 282.537 448.583 283.066C448.744 283.596 449.003 284.182 449.359 284.825C449.762 285.552 450.204 286.069 450.685 286.377C451.158 286.712 451.648 286.738 452.155 286.457C452.662 286.176 452.916 285.737 452.916 285.139C452.909 284.568 452.709 283.928 452.315 283.218C451.958 282.576 451.602 282.033 451.245 281.589C450.881 281.172 450.519 280.898 450.159 280.766C449.781 280.644 449.415 280.681 449.06 280.878Z" fill="#553B92"/>
</g>
<g opacity="0.7">
<path d="M393.692 316.559L397.385 318.851L400.369 314.044L402.733 315.512L409.945 325.7L407.761 329.218L397.932 323.116L396.986 324.641L394.68 323.209L395.626 321.685L391.933 319.392L393.692 316.559ZM401.195 317.86L399.691 320.283L406.413 324.456L401.195 317.86Z" fill="#553B92"/>
</g>
<g opacity="0.7">
<path d="M238.804 272.099C238.982 273.266 238.87 274.26 238.469 275.082C238.049 275.89 237.412 276.538 236.556 277.026C235.697 277.499 234.684 277.824 233.517 278.002L226.969 279.004C225.772 279.187 224.675 279.215 223.678 279.088C222.679 278.946 221.853 278.561 221.198 277.932C220.543 277.303 220.115 276.329 219.914 275.01C219.74 273.874 219.784 272.944 220.046 272.221C220.29 271.486 220.738 270.913 221.388 270.504C222.039 270.094 222.872 269.811 223.888 269.656C223.933 269.649 223.987 269.641 224.047 269.632C224.09 269.61 224.135 269.595 224.18 269.588L224.688 272.908C223.915 273.026 223.35 273.19 222.995 273.399C222.639 273.609 222.505 274.001 222.593 274.577C222.649 274.941 222.806 275.212 223.066 275.389C223.324 275.551 223.732 275.636 224.292 275.644C224.834 275.639 225.575 275.564 226.514 275.42L228.402 275.132C228.038 274.986 227.734 274.722 227.489 274.341C227.243 273.944 227.07 273.474 226.971 272.931C226.793 271.965 226.894 271.159 227.276 270.511C227.64 269.85 228.212 269.328 228.991 268.946C229.755 268.565 230.645 268.297 231.66 268.142C232.903 267.952 234.033 267.934 235.049 268.089C236.066 268.244 236.902 268.643 237.559 269.287C238.199 269.919 238.614 270.856 238.804 272.099ZM236.182 272.453C236.124 272.074 235.952 271.813 235.667 271.671C235.379 271.513 234.996 271.44 234.516 271.451C234.035 271.447 233.461 271.496 232.794 271.598C232.157 271.696 231.608 271.803 231.145 271.92C230.664 272.025 230.303 272.196 230.06 272.435C229.817 272.674 229.731 273.021 229.8 273.475C229.833 273.688 229.909 273.885 230.031 274.068C230.134 274.239 230.265 274.382 230.422 274.497C230.564 274.615 230.709 274.701 230.857 274.756L233.79 274.308C234.245 274.238 234.671 274.134 235.068 273.996C235.449 273.845 235.744 273.645 235.954 273.395C236.164 273.146 236.24 272.832 236.182 272.453Z" fill="#553B92"/>
</g>
<g opacity="0.7">
<path d="M398.761 107.61L400.221 88.1647C400.034 88.251 399.777 88.342 399.448 88.4377C399.142 88.5149 398.804 88.6099 398.434 88.7225C398.066 88.8152 397.718 88.9094 397.39 89.0051C397.064 89.0809 396.808 89.1519 396.622 89.2182L396.878 85.8078C397.127 85.7061 397.458 85.5705 397.871 85.401C398.305 85.233 398.76 85.0466 399.237 84.8417C399.714 84.6369 400.162 84.4098 400.582 84.1605C401.022 83.9128 401.36 83.6775 401.598 83.4546L405.188 83.7242L403.368 107.956L398.761 107.61ZM407.426 108.261L407.671 105L414.245 96.378C414.735 95.7329 415.192 95.1154 415.617 94.5256C416.063 93.9373 416.429 93.3331 416.716 92.7128C417.025 92.0742 417.207 91.3859 417.262 90.6479C417.321 89.8701 417.215 89.2705 416.946 88.8492C416.679 88.4079 416.265 88.1663 415.707 88.1244C415.109 88.0794 414.637 88.2145 414.293 88.5296C413.95 88.8247 413.698 89.237 413.538 89.7665C413.378 90.296 413.274 90.8799 413.226 91.5181L413.141 92.6549L408.623 92.3156L408.713 91.119C408.821 89.6831 409.136 88.4231 409.659 87.3392C410.201 86.2568 410.975 85.4424 411.978 84.8961C413.004 84.3312 414.304 84.108 415.879 84.2263C418.013 84.3866 419.577 85.0656 420.57 86.2633C421.563 87.4611 421.984 89.0671 421.833 91.0814C421.759 92.0587 421.542 92.9549 421.18 93.7701C420.819 94.5653 420.36 95.3331 419.803 96.0735C419.268 96.7954 418.69 97.5442 418.07 98.32L412.875 105L420.085 105.541L419.811 109.191L407.426 108.261Z" fill="#553B92"/>
</g>
<g opacity="0.7">
<path d="M285.894 145.647C284.117 147.491 282.339 148.621 280.559 149.039C278.756 149.434 276.964 149.241 275.185 148.459C273.427 147.654 271.707 146.441 270.025 144.82C269.265 144.087 268.617 143.33 268.082 142.547C267.548 141.765 267.137 140.969 266.85 140.16C266.564 139.351 266.402 138.55 266.365 137.759C266.327 136.922 266.436 136.094 266.692 135.275C265.406 135.502 263.991 135.426 262.445 135.047C260.898 134.623 259.341 133.679 257.776 132.214C256.21 130.749 255.129 129.219 254.534 127.623C253.915 126.005 253.817 124.378 254.24 122.74C254.662 121.103 255.628 119.501 257.138 117.934C258.671 116.344 260.236 115.32 261.834 114.86C263.455 114.378 265.074 114.427 266.691 115.008C268.286 115.567 269.844 116.602 271.366 118.113C272.91 119.646 273.923 121.178 274.404 122.708C274.884 124.192 275.011 125.582 274.786 126.876C275.596 126.589 276.408 126.461 277.223 126.492C278.038 126.476 278.855 126.597 279.674 126.854C280.494 127.11 281.304 127.491 282.105 127.997C282.929 128.48 283.721 129.087 284.481 129.82C286.208 131.395 287.484 133.069 288.308 134.841C289.155 136.591 289.415 138.374 289.086 140.191C288.757 141.962 287.693 143.781 285.894 145.647ZM281.919 141.817C282.563 141.149 282.81 140.431 282.66 139.664C282.51 138.898 282.146 138.146 281.566 137.41C280.987 136.674 280.386 136.006 279.764 135.407C279.049 134.673 278.29 134.031 277.488 133.48C276.708 132.906 275.944 132.569 275.195 132.47C274.446 132.37 273.75 132.655 273.106 133.323C272.484 133.968 272.226 134.674 272.33 135.442C272.457 136.186 272.811 136.949 273.391 137.731C273.97 138.467 274.64 139.201 275.401 139.934C276.023 140.534 276.724 141.121 277.504 141.695C278.261 142.246 279.025 142.583 279.797 142.705C280.568 142.781 281.275 142.485 281.919 141.817ZM268.751 129.126C269.195 128.665 269.378 128.13 269.299 127.52C269.242 126.888 268.957 126.191 268.445 125.431C267.933 124.671 267.24 123.87 266.364 123.026C265.373 122.071 264.423 121.466 263.513 121.211C262.602 120.911 261.814 121.107 261.148 121.798C260.481 122.489 260.293 123.308 260.582 124.253C260.87 125.153 261.498 126.069 262.466 127.002C263.341 127.845 264.169 128.532 264.948 129.06C265.726 129.544 266.433 129.803 267.067 129.836C267.724 129.847 268.285 129.61 268.751 129.126Z" fill="#553B92"/>
</g>
<g opacity="0.7">
<path d="M320.045 82.7968L328.711 65.3286C328.506 65.3381 328.233 65.3256 327.893 65.2908C327.58 65.2471 327.231 65.2079 326.846 65.1733C326.47 65.1208 326.112 65.0772 325.772 65.0425C325.441 64.9898 325.177 64.9594 324.98 64.951L326.5 61.8874C326.769 61.8865 327.126 61.8854 327.574 61.884C328.039 61.8916 328.531 61.89 329.049 61.8795C329.568 61.8689 330.069 61.8271 330.552 61.7541C331.052 61.6899 331.455 61.5992 331.758 61.482L334.983 63.082L324.183 84.8501L320.045 82.7968ZM333.85 90.115C332.542 89.4661 331.591 88.6596 330.998 87.6955C330.405 86.7313 330.124 85.6767 330.156 84.5318C330.198 83.3689 330.525 82.1693 331.138 80.9331L335.978 71.1778C336.609 69.9058 337.366 68.8972 338.25 68.1521C339.142 67.389 340.151 66.9521 341.278 66.8413C342.404 66.7305 343.64 67.0084 344.983 67.6751C346.309 68.3329 347.26 69.1394 347.835 70.0947C348.428 71.0588 348.691 72.1268 348.623 73.2988C348.564 74.4528 348.219 75.6658 347.588 76.9378L342.748 86.6931C342.134 87.9294 341.377 88.9156 340.476 89.6518C339.584 90.3701 338.575 90.7847 337.448 90.8955C336.321 91.0063 335.122 90.7461 333.85 90.115ZM335.663 86.4601C336.147 86.7001 336.572 86.7212 336.938 86.5233C337.304 86.3254 337.625 86.0382 337.901 85.6616C338.186 85.2672 338.418 84.8908 338.595 84.5325L343.355 74.9384C343.551 74.5443 343.72 74.1144 343.861 73.6489C344.021 73.1922 344.069 72.7583 344.005 72.347C343.95 71.9179 343.672 71.5789 343.17 71.33C342.668 71.0811 342.221 71.0601 341.828 71.267C341.462 71.465 341.136 71.7611 340.851 72.1556C340.584 72.5589 340.353 72.9576 340.157 73.3518L335.397 82.9458C335.22 83.3042 335.06 83.7161 334.918 84.1816C334.785 84.6293 334.76 85.0631 334.842 85.4833C334.924 85.9034 335.197 86.229 335.663 86.4601Z" fill="#553B92"/>
</g>
<g filter="url(#filter1_ddddd_17_341)">
<rect x="199" y="446.887" width="287" height="56" rx="7.62745" fill="#4414AA"/>
</g>
<path d="M302.632 492V457.052H311.692C314.051 457.052 316.064 457.326 317.733 457.872C319.43 458.39 320.724 459.325 321.616 460.677C322.536 462.028 322.996 463.898 322.996 466.285C322.996 467.724 322.867 469.004 322.608 470.125C322.378 471.218 321.947 472.182 321.314 473.016C320.71 473.821 319.847 474.469 318.725 474.958L323.557 492H316.266L312.253 476.166H309.751V492H302.632ZM309.751 471.937H311.822C312.972 471.937 313.878 471.751 314.54 471.377C315.201 471.003 315.662 470.442 315.921 469.694C316.208 468.917 316.352 467.968 316.352 466.846C316.352 465.236 316.05 464.013 315.446 463.179C314.871 462.316 313.778 461.885 312.167 461.885H309.751V471.937ZM337.284 492.475C334.724 492.475 332.696 492.014 331.2 491.094C329.705 490.174 328.626 488.865 327.964 487.168C327.332 485.442 327.015 483.385 327.015 480.998V467.968C327.015 465.581 327.332 463.539 327.964 461.842C328.626 460.144 329.705 458.85 331.2 457.958C332.696 457.067 334.724 456.621 337.284 456.621C339.873 456.621 341.915 457.081 343.41 458.002C344.935 458.893 346.014 460.188 346.646 461.885C347.308 463.553 347.639 465.581 347.639 467.968V480.998C347.639 483.385 347.308 485.442 346.646 487.168C346.014 488.865 344.935 490.174 343.41 491.094C341.915 492.014 339.873 492.475 337.284 492.475ZM337.284 487.34C338.204 487.34 338.88 487.139 339.312 486.736C339.743 486.305 340.031 485.744 340.175 485.054C340.318 484.335 340.39 483.572 340.39 482.767V466.242C340.39 465.437 340.318 464.689 340.175 463.999C340.031 463.308 339.743 462.762 339.312 462.359C338.88 461.928 338.204 461.712 337.284 461.712C336.421 461.712 335.774 461.928 335.342 462.359C334.911 462.762 334.623 463.308 334.479 463.999C334.336 464.689 334.264 465.437 334.264 466.242V482.767C334.264 483.572 334.321 484.335 334.436 485.054C334.58 485.744 334.868 486.305 335.299 486.736C335.731 487.139 336.392 487.34 337.284 487.34ZM352.392 492V457.052H359.511V487.168H367.709V492H352.392ZM371.057 492V457.052H378.176V487.168H386.374V492H371.057Z" fill="#F5F5FA"/>
<defs>
<filter id="filter0_d_17_341" x="301.058" y="172.36" width="72.6746" height="67.3857" filterUnits="userSpaceOnUse" color-interpolation-filters="sRGB">
<feFlood flood-opacity="0" result="BackgroundImageFix"/>
<feColorMatrix in="SourceAlpha" type="matrix" values="0 0 0 0 0 0 0 0 0 0 0 0 0 0 0 0 0 0 127 0" result="hardAlpha"/>
<feOffset/>
<feComposite in2="hardAlpha" operator="out"/>
<feColorMatrix type="matrix" values="0 0 0 0 0.264705 0 0 0 0 0.318651 0 0 0 0 0.804167 0 0 0 0.8 0"/>
<feBlend mode="normal" in2="BackgroundImageFix" result="effect1_dropShadow_17_341"/>
<feBlend mode="normal" in="SourceGraphic" in2="effect1_dropShadow_17_341" result="shape"/>
</filter>
<filter id="filter1_ddddd_17_341" x="0" y="409.887" width="685" height="789" filterUnits="userSpaceOnUse" color-interpolation-filters="sRGB">
<feFlood flood-opacity="0" result="BackgroundImageFix"/>
<feColorMatrix in="SourceAlpha" type="matrix" values="0 0 0 0 0 0 0 0 0 0 0 0 0 0 0 0 0 0 127 0" result="hardAlpha"/>
<feOffset/>
<feColorMatrix type="matrix" values="0 0 0 0 0 0 0 0 0 0 0 0 0 0 0 0 0 0 0.1 0"/>
<feBlend mode="normal" in2="BackgroundImageFix" result="effect1_dropShadow_17_341"/>
<feColorMatrix in="SourceAlpha" type="matrix" values="0 0 0 0 0 0 0 0 0 0 0 0 0 0 0 0 0 0 127 0" result="hardAlpha"/>
<feOffset dy="31"/>
<feGaussianBlur stdDeviation="34"/>
<feColorMatrix type="matrix" values="0 0 0 0 0 0 0 0 0 0 0 0 0 0 0 0 0 0 0.1 0"/>
<feBlend mode="normal" in2="effect1_dropShadow_17_341" result="effect2_dropShadow_17_341"/>
<feColorMatrix in="SourceAlpha" type="matrix" values="0 0 0 0 0 0 0 0 0 0 0 0 0 0 0 0 0 0 127 0" result="hardAlpha"/>
<feOffset dy="124"/>
<feGaussianBlur stdDeviation="62"/>
<feColorMatrix type="matrix" values="0 0 0 0 0 0 0 0 0 0 0 0 0 0 0 0 0 0 0.09 0"/>
<feBlend mode="normal" in2="effect2_dropShadow_17_341" result="effect3_dropShadow_17_341"/>
<feColorMatrix in="SourceAlpha" type="matrix" values="0 0 0 0 0 0 0 0 0 0 0 0 0 0 0 0 0 0 127 0" result="hardAlpha"/>
<feOffset dy="280"/>
<feGaussianBlur stdDeviation="84"/>
<feColorMatrix type="matrix" values="0 0 0 0 0 0 0 0 0 0 0 0 0 0 0 0 0 0 0.05 0"/>
<feBlend mode="normal" in2="effect3_dropShadow_17_341" result="effect4_dropShadow_17_341"/>
<feColorMatrix in="SourceAlpha" type="matrix" values="0 0 0 0 0 0 0 0 0 0 0 0 0 0 0 0 0 0 127 0" result="hardAlpha"/>
<feOffset dy="497"/>
<feGaussianBlur stdDeviation="99.5"/>
<feColorMatrix type="matrix" values="0 0 0 0 0 0 0 0 0 0 0 0 0 0 0 0 0 0 0.01 0"/>
<feBlend mode="normal" in2="effect4_dropShadow_17_341" result="effect5_dropShadow_17_341"/>
<feBlend mode="normal" in="SourceGraphic" in2="effect5_dropShadow_17_341" result="shape"/>
</filter>
</defs>
</svg>
