<svg width="468" height="657" viewBox="0 0 468 657" fill="none" xmlns="http://www.w3.org/2000/svg">
<g filter="url(#filter0_f_17_2823)">
<path d="M113.387 97.0793L69.5288 265.675L190.515 384.925L353.274 341.314L399.875 177.159L276.146 53.4683L113.387 97.0793Z" fill="#F5F5FA" stroke="#553B92" stroke-width="10"/>
<path d="M134.729 248.205L270.968 113.349M134.729 248.205L113.387 97.0793M134.729 248.205L69.5288 265.675M134.729 248.205L190.515 384.925M134.729 248.205L319.884 295.909M270.968 113.349L113.387 97.0793M270.968 113.349L319.884 295.909M270.968 113.349L399.875 177.159M270.968 113.349L276.146 53.4683M113.387 97.0793L69.5288 265.675M113.387 97.0793L276.146 53.4683M69.5288 265.675L190.515 384.925M276.146 53.4683L399.875 177.159M399.875 177.159L353.274 341.314M399.875 177.159L319.884 295.909M353.274 341.314L190.515 384.925M353.274 341.314L319.884 295.909M190.515 384.925L319.884 295.909" stroke="#553B92" stroke-width="10"/>
<circle cx="135.694" cy="247.945" r="9.5" transform="rotate(-105 135.694 247.945)" stroke="#553B92" stroke-width="6"/>
<circle cx="269.778" cy="114.702" r="9.5" transform="rotate(-105 269.778 114.702)" stroke="#553B92" stroke-width="6"/>
<circle cx="318.175" cy="295.331" r="9.5" transform="rotate(-105 318.175 295.331)" stroke="#553B92" stroke-width="6"/>
<g filter="url(#filter1_d_17_2823)">
<path d="M244.386 175.231L248.542 180.834L249.969 203.92C250.08 205.644 250.203 207.279 250.34 208.824C250.443 210.395 250.696 211.881 251.098 213.283C251.491 214.744 252.158 216.109 253.099 217.377C254.09 218.713 255.097 219.533 256.119 219.837C257.167 220.176 258.171 219.989 259.13 219.277C260.158 218.515 260.73 217.639 260.847 216.649C260.988 215.694 260.819 214.678 260.338 213.6C259.857 212.523 259.21 211.435 258.397 210.339L256.948 208.386L264.709 202.628L266.234 204.684C268.065 207.151 269.315 209.624 269.984 212.102C270.62 214.606 270.509 216.999 269.652 219.281C268.786 221.624 267 223.799 264.293 225.807C260.626 228.527 257.156 229.614 253.882 229.067C250.608 228.521 247.687 226.517 245.12 223.056C243.874 221.377 242.975 219.627 242.421 217.807C241.893 216.02 241.561 214.141 241.427 212.169C241.283 210.257 241.17 208.243 241.087 206.126L240.145 188.098L227.758 197.288L223.106 191.017L244.386 175.231ZM205.977 202.608C208.478 200.752 210.933 199.728 213.34 199.536C215.747 199.344 218.023 199.834 220.168 201.005C222.337 202.212 224.299 203.997 226.053 206.361L239.894 225.02C241.699 227.453 242.881 229.87 243.44 232.271C244.024 234.706 243.876 237.048 242.993 239.296C242.111 241.544 240.385 243.621 237.815 245.528C235.279 247.409 232.825 248.433 230.451 248.6C228.044 248.792 225.76 248.255 223.599 246.989C221.464 245.757 219.493 243.925 217.689 241.492L203.848 222.833C202.094 220.469 200.954 218.074 200.429 215.647C199.93 213.255 200.121 210.935 201.004 208.687C201.886 206.439 203.544 204.412 205.977 202.608ZM211.162 209.598C210.237 210.284 209.785 211.071 209.806 211.959C209.827 212.847 210.061 213.735 210.508 214.625C210.981 215.549 211.472 216.354 211.981 217.039L225.593 235.39C226.152 236.144 226.805 236.881 227.552 237.602C228.265 238.348 229.043 238.86 229.887 239.137C230.756 239.449 231.67 239.249 232.629 238.537C233.589 237.826 234.062 236.996 234.05 236.049C234.029 235.161 233.782 234.255 233.309 233.331C232.802 232.432 232.269 231.606 231.71 230.852L218.097 212.502C217.589 211.817 216.961 211.114 216.214 210.393C215.492 209.706 214.693 209.237 213.815 208.985C212.937 208.733 212.053 208.937 211.162 209.598Z" fill="#553B92"/>
</g>
<g opacity="0.7">
<path d="M295.32 116.583L303.78 99.0136C303.574 99.0256 303.301 99.0162 302.961 98.9855C302.647 98.9454 302.298 98.9104 301.913 98.8803C301.536 98.8323 301.178 98.7929 300.837 98.7622C300.506 98.7134 300.241 98.6861 300.045 98.68L301.528 95.5987C301.797 95.5947 302.154 95.5894 302.602 95.5827C303.067 95.5847 303.559 95.5774 304.077 95.5607C304.596 95.5441 305.096 95.4964 305.578 95.4176C306.078 95.3476 306.479 95.2522 306.781 95.1314L310.025 96.6932L299.482 118.587L295.32 116.583ZM309.249 123.657C307.862 122.988 306.874 122.135 306.286 121.098C305.725 120.05 305.497 118.886 305.604 117.606C305.728 116.334 306.124 115.004 306.792 113.616L310.54 105.832C311.226 104.408 312.004 103.207 312.875 102.228C313.764 101.258 314.788 100.652 315.948 100.411C317.107 100.17 318.471 100.427 320.038 101.182C321.39 101.833 322.358 102.565 322.942 103.38C323.554 104.185 323.84 105.088 323.801 106.091C323.762 107.093 323.452 108.198 322.871 109.405C322.845 109.459 322.815 109.522 322.78 109.595C322.772 109.657 322.755 109.716 322.729 109.77L318.783 107.869C319.225 106.95 319.465 106.222 319.501 105.685C319.538 105.148 319.214 104.714 318.529 104.385C318.097 104.176 317.69 104.147 317.307 104.295C316.943 104.453 316.55 104.83 316.13 105.427C315.736 106.014 315.27 106.866 314.732 107.983L313.652 110.227C314.077 109.943 314.585 109.81 315.175 109.828C315.784 109.855 316.417 110.016 317.075 110.31C318.245 110.829 319.038 111.533 319.454 112.422C319.897 113.301 320.037 114.3 319.874 115.421C319.721 116.523 319.353 117.678 318.772 118.886C318.061 120.363 317.247 121.592 316.331 122.572C315.416 123.551 314.369 124.157 313.192 124.39C312.041 124.612 310.727 124.368 309.249 123.657ZM310.8 120.574C311.251 120.791 311.658 120.799 312.022 120.596C312.403 120.403 312.765 120.044 313.106 119.52C313.465 119.005 313.835 118.351 314.217 117.558C314.582 116.801 314.871 116.13 315.086 115.546C315.328 114.952 315.41 114.436 315.331 113.999C315.253 113.562 314.944 113.213 314.404 112.953C314.151 112.831 313.882 112.768 313.596 112.764C313.336 112.75 313.086 112.785 312.846 112.869C312.614 112.935 312.414 113.027 312.246 113.146L310.567 116.633C310.307 117.173 310.105 117.709 309.96 118.239C309.843 118.759 309.841 119.224 309.954 119.634C310.068 120.044 310.35 120.357 310.8 120.574Z" fill="#553B92"/>
</g>
<g opacity="0.7">
<path d="M180.442 147.956L161.854 122.898C161.718 123.198 161.502 123.578 161.205 124.037C160.915 124.452 160.605 124.92 160.276 125.443C159.928 125.941 159.605 126.419 159.308 126.878C158.992 127.312 158.757 127.666 158.602 127.94L155.342 123.545C155.536 123.162 155.795 122.652 156.118 122.013C156.467 121.356 156.823 120.654 157.185 119.907C157.547 119.16 157.852 118.416 158.099 117.675C158.372 116.915 158.535 116.276 158.589 115.758L163.215 112.326L186.379 143.552L180.442 147.956Z" fill="#553B92"/>
</g>
<g opacity="0.7">
<path d="M180.442 147.956L161.854 122.898C161.718 123.198 161.502 123.578 161.205 124.037C160.915 124.452 160.605 124.92 160.276 125.443C159.928 125.941 159.605 126.419 159.308 126.878C158.992 127.312 158.757 127.666 158.602 127.94L155.342 123.545C155.536 123.162 155.795 122.652 156.118 122.013C156.467 121.356 156.823 120.654 157.185 119.907C157.547 119.16 157.852 118.416 158.099 117.675C158.372 116.915 158.535 116.276 158.589 115.758L163.215 112.326L186.379 143.552L180.442 147.956Z" fill="#553B92"/>
</g>
<g opacity="0.7">
<path d="M209.927 296.27L208.221 301.216L194.539 311.882C193.519 312.681 192.559 313.45 191.661 314.189C190.733 314.919 189.92 315.704 189.223 316.547C188.485 317.41 187.924 318.401 187.537 319.52C187.13 320.7 187.05 321.671 187.295 322.432C187.529 323.224 188.07 323.766 188.917 324.058C189.825 324.371 190.609 324.354 191.27 324.007C191.921 323.69 192.479 323.154 192.942 322.4C193.405 321.646 193.804 320.785 194.138 319.817L194.732 318.092L201.584 320.456L200.958 322.271C200.207 324.449 199.206 326.27 197.956 327.735C196.676 329.189 195.148 330.134 193.373 330.571C191.557 331.028 189.454 330.844 187.064 330.02C183.827 328.903 181.684 327.216 180.635 324.958C179.586 322.701 179.588 320.044 180.642 316.989C181.153 315.507 181.855 314.209 182.747 313.095C183.628 312.011 184.651 311.01 185.814 310.091C186.937 309.192 188.135 308.268 189.41 307.32L200.167 299.098L189.232 295.326L191.141 289.79L209.927 296.27Z" fill="#553B92"/>
</g>
<g opacity="0.7">
<path d="M118.729 271.87L100.133 268.788C100.2 268.975 100.265 269.231 100.329 269.555C100.377 269.857 100.44 270.191 100.516 270.556C100.574 270.918 100.634 271.262 100.698 271.586C100.743 271.907 100.789 272.159 100.837 272.344L97.5756 271.803C97.4991 271.555 97.3971 271.225 97.2696 270.812C97.1453 270.38 97.005 269.925 96.8489 269.449C96.6927 268.972 96.5127 268.521 96.3089 268.095C96.1083 267.65 95.9109 267.304 95.7168 267.056L96.2859 263.623L119.46 267.464L118.729 271.87ZM121.475 257.432C121.223 258.958 120.725 260.13 119.982 260.947C119.219 261.762 118.262 262.279 117.108 262.499C115.958 262.7 114.686 262.686 113.294 262.455C112.665 262.351 112.083 262.195 111.549 261.989C111.014 261.783 110.537 261.528 110.118 261.223C109.698 260.918 109.343 260.575 109.054 260.194C108.748 259.791 108.519 259.341 108.366 258.845C107.804 259.399 107.073 259.846 106.174 260.187C105.259 260.506 104.161 260.569 102.88 260.376C101.599 260.183 100.537 259.791 99.694 259.201C98.8321 258.607 98.2259 257.831 97.8755 256.871C97.525 255.912 97.4572 254.783 97.6722 253.486C97.8904 252.17 98.3185 251.124 98.9567 250.348C99.5981 249.553 100.421 249.023 101.425 248.759C102.41 248.491 103.54 248.472 104.815 248.703C106.108 248.937 107.137 249.353 107.9 249.949C108.648 250.524 109.187 251.172 109.518 251.893C109.823 251.473 110.183 251.131 110.6 250.867C111 250.581 111.448 250.361 111.943 250.208C112.439 250.055 112.973 249.967 113.545 249.945C114.12 249.903 114.723 249.934 115.352 250.038C116.751 250.231 117.959 250.627 118.977 251.227C119.997 251.808 120.737 252.606 121.196 253.623C121.638 254.618 121.732 255.887 121.475 257.432ZM118.185 256.887C118.277 256.334 118.154 255.892 117.817 255.562C117.48 255.231 117.041 254.982 116.501 254.814C115.96 254.646 115.432 254.52 114.917 254.434C114.31 254.314 113.713 254.254 113.125 254.255C112.54 254.236 112.044 254.33 111.637 254.537C111.231 254.744 110.982 255.124 110.89 255.677C110.801 256.212 110.915 256.652 111.23 256.998C111.548 257.325 111.985 257.584 112.541 257.774C113.082 257.942 113.667 258.078 114.296 258.182C114.811 258.268 115.361 258.32 115.946 258.338C116.512 258.353 117.007 258.259 117.433 258.056C117.843 257.829 118.094 257.44 118.185 256.887ZM107.285 255.08C107.348 254.698 107.256 254.37 107.008 254.093C106.763 253.798 106.383 253.549 105.868 253.346C105.352 253.143 104.733 252.981 104.008 252.861C103.188 252.725 102.507 252.75 101.967 252.934C101.411 253.097 101.086 253.464 100.991 254.037C100.896 254.609 101.082 255.081 101.55 255.452C102.002 255.801 102.628 256.042 103.429 256.175C104.154 256.295 104.801 256.353 105.37 256.35C105.923 256.324 106.363 256.211 106.69 256.01C107.02 255.791 107.219 255.48 107.285 255.08Z" fill="#553B92"/>
</g>
<g opacity="0.7">
<path d="M113.751 189.527L109.659 190.995L111.57 196.321L108.95 197.26L96.487 196.577L95.0888 192.68L105.978 188.773L105.372 187.084L107.927 186.167L108.533 187.856L112.624 186.388L113.751 189.527ZM108.068 194.596L107.104 191.912L99.6573 194.584L108.068 194.596Z" fill="#553B92"/>
</g>
<g opacity="0.7">
<path d="M244.855 95.835C243.83 95.2493 243.12 94.5438 242.727 93.7185C242.354 92.8874 242.242 91.985 242.392 91.0112C242.556 90.045 242.93 89.0494 243.516 88.0242L246.802 82.2726C247.403 81.2208 248.063 80.3439 248.781 79.642C249.514 78.9478 250.329 78.5397 251.229 78.4179C252.129 78.2961 253.157 78.566 254.316 79.2277C255.314 79.7982 256.015 80.4105 256.419 81.0647C256.843 81.7132 257.013 82.4197 256.929 83.1843C256.846 83.9488 256.549 84.7771 256.04 85.6692C256.017 85.7091 255.99 85.7557 255.96 85.809C255.95 85.8565 255.934 85.9002 255.911 85.9402L252.996 84.2745C253.383 83.5955 253.606 83.0515 253.663 82.6426C253.72 82.2337 253.495 81.8847 252.99 81.5957C252.67 81.4132 252.36 81.3685 252.059 81.4617C251.772 81.5626 251.452 81.8298 251.098 82.2635C250.765 82.6915 250.363 83.3182 249.892 84.1436L248.945 85.8012C249.285 85.6072 249.681 85.533 250.131 85.5786C250.596 85.6318 251.071 85.7886 251.558 86.0491C252.425 86.5093 252.994 87.0902 253.264 87.792C253.555 88.488 253.609 89.2602 253.424 90.1084C253.247 90.9434 252.904 91.8068 252.395 92.6989C251.771 93.7906 251.083 94.6865 250.329 95.3865C249.576 96.0864 248.743 96.4935 247.831 96.6078C246.939 96.7163 245.947 96.4587 244.855 95.835ZM246.207 93.5612C246.54 93.7513 246.851 93.7788 247.14 93.6438C247.442 93.5163 247.738 93.2614 248.027 92.8791C248.329 92.5044 248.648 92.0242 248.983 91.4384C249.302 90.8792 249.56 90.3818 249.755 89.9462C249.972 89.505 250.062 89.1151 250.026 88.7766C249.99 88.438 249.772 88.1547 249.373 87.9265C249.187 87.82 248.984 87.7573 248.765 87.7383C248.567 87.7136 248.374 87.7269 248.186 87.7783C248.005 87.8164 247.848 87.8763 247.713 87.9581L246.241 90.5343C246.013 90.9338 245.829 91.3322 245.69 91.7297C245.573 92.1215 245.546 92.4772 245.611 92.7967C245.675 93.1162 245.874 93.371 246.207 93.5612Z" fill="#553B92"/>
</g>
<g opacity="0.7">
<path d="M274.279 323.38L288.604 336.611C288.653 336.411 288.741 336.152 288.87 335.836C289 335.548 289.136 335.224 289.278 334.864C289.434 334.518 289.576 334.187 289.705 333.871C289.849 333.568 289.952 333.323 290.016 333.137L292.528 335.457C292.453 335.715 292.354 336.058 292.229 336.488C292.091 336.932 291.954 337.405 291.819 337.905C291.683 338.406 291.582 338.898 291.516 339.382C291.437 339.881 291.411 340.292 291.438 340.617L288.995 343.261L271.145 326.774L274.279 323.38ZM268.383 329.763L270.786 331.982L273.453 342.491C273.654 343.275 273.853 344.018 274.051 344.717C274.235 345.432 274.481 346.094 274.788 346.705C275.096 347.344 275.522 347.914 276.066 348.416C276.639 348.946 277.174 349.236 277.672 349.287C278.184 349.351 278.63 349.178 279.01 348.767C279.417 348.326 279.604 347.873 279.571 347.407C279.553 346.955 279.387 346.501 279.072 346.047C278.756 345.592 278.364 345.148 277.893 344.714L277.056 343.94L280.13 340.612L281.011 341.426C282.069 342.404 282.86 343.434 283.384 344.517C283.895 345.615 284.052 346.726 283.856 347.852C283.661 349.007 283.028 350.164 281.956 351.325C280.504 352.897 279 353.699 277.445 353.733C275.889 353.766 274.37 353.098 272.886 351.727C272.166 351.062 271.599 350.335 271.185 349.544C270.787 348.767 270.47 347.931 270.237 347.034C270.004 346.166 269.777 345.248 269.554 344.28L267.551 336.059L262.645 341.37L259.956 338.887L268.383 329.763Z" fill="#553B92"/>
</g>
<g opacity="0.7">
<path d="M314.639 211.322C314.3 208.784 314.52 206.689 315.299 205.034C316.11 203.376 317.375 202.093 319.094 201.185C320.817 200.308 322.836 199.715 325.151 199.405C326.198 199.265 327.194 199.229 328.139 199.296C329.084 199.363 329.963 199.536 330.775 199.815C331.587 200.093 332.315 200.464 332.958 200.927C333.637 201.417 334.218 202.017 334.7 202.727C335.322 201.579 336.261 200.517 337.519 199.541C338.812 198.593 340.519 197.961 342.64 197.645C344.761 197.329 346.631 197.433 348.252 197.959C349.903 198.48 351.239 199.415 352.259 200.764C353.279 202.113 353.934 203.865 354.222 206.022C354.515 208.211 354.345 210.074 353.711 211.611C353.082 213.181 352.037 214.418 350.576 215.324C349.147 216.226 347.368 216.803 345.239 217.056C343.078 217.313 341.249 217.154 339.751 216.58C338.29 216.033 337.122 215.269 336.248 214.288C335.97 215.101 335.565 215.817 335.035 216.436C334.54 217.084 333.938 217.649 333.227 218.131C332.517 218.614 331.715 219.012 330.821 219.325C329.931 219.67 328.962 219.913 327.916 220.053C325.609 220.427 323.505 220.385 321.603 219.93C319.706 219.506 318.148 218.6 316.93 217.214C315.747 215.855 314.983 213.891 314.639 211.322ZM320.111 210.589C320.234 211.509 320.642 212.148 321.336 212.507C322.03 212.867 322.845 213.048 323.782 213.052C324.719 213.055 325.615 213 326.472 212.885C327.491 212.781 328.466 212.586 329.396 212.3C330.33 212.046 331.069 211.656 331.612 211.132C332.156 210.607 332.366 209.885 332.242 208.965C332.123 208.077 331.731 207.435 331.065 207.04C330.402 206.677 329.585 206.479 328.612 206.448C327.676 206.445 326.684 206.513 325.637 206.653C324.781 206.768 323.885 206.952 322.951 207.206C322.048 207.456 321.309 207.846 320.734 208.375C320.195 208.931 319.988 209.669 320.111 210.589ZM338.237 208.162C338.322 208.797 338.628 209.272 339.154 209.589C339.685 209.938 340.408 210.148 341.321 210.219C342.235 210.291 343.294 210.246 344.499 210.084C345.863 209.902 346.928 209.533 347.693 208.979C348.494 208.452 348.831 207.712 348.704 206.761C348.576 205.809 348.052 205.153 347.132 204.792C346.248 204.458 345.14 204.381 343.808 204.559C342.603 204.72 341.551 204.942 340.652 205.224C339.79 205.533 339.148 205.926 338.728 206.402C338.311 206.909 338.148 207.496 338.237 208.162Z" fill="#553B92"/>
</g>
<g opacity="0.7">
<path d="M342.645 277.142L350.942 294.789C351.062 294.622 351.242 294.416 351.48 294.171C351.709 293.953 351.957 293.704 352.223 293.424C352.498 293.162 352.754 292.909 352.993 292.664C353.24 292.438 353.428 292.25 353.557 292.101L355.012 295.196C354.846 295.407 354.624 295.688 354.347 296.039C354.052 296.398 353.748 296.785 353.433 297.198C353.119 297.611 352.841 298.029 352.598 298.452C352.337 298.884 352.158 299.256 352.061 299.567L348.803 301.098L338.464 279.107L342.645 277.142ZM328.331 283.407C329.653 282.786 330.875 282.543 331.999 282.677C333.123 282.812 334.124 283.248 335.001 283.984C335.886 284.74 336.622 285.741 337.209 286.99L341.843 296.846C342.447 298.131 342.766 299.351 342.801 300.506C342.844 301.679 342.559 302.741 341.946 303.692C341.332 304.644 340.347 305.439 338.989 306.077C337.65 306.707 336.427 306.95 335.321 306.807C334.197 306.672 333.197 306.214 332.321 305.432C331.454 304.669 330.718 303.645 330.114 302.36L325.481 292.504C324.894 291.256 324.592 290.049 324.575 288.886C324.567 287.74 324.87 286.692 325.484 285.741C326.097 284.789 327.046 284.011 328.331 283.407ZM330.067 287.1C329.579 287.329 329.298 287.649 329.225 288.059C329.153 288.469 329.178 288.899 329.302 289.349C329.433 289.817 329.584 290.233 329.755 290.595L334.311 300.287C334.499 300.685 334.73 301.084 335.007 301.485C335.266 301.894 335.576 302.201 335.938 302.406C336.308 302.63 336.747 302.623 337.253 302.385C337.76 302.146 338.055 301.809 338.137 301.373C338.209 300.963 338.18 300.524 338.048 300.055C337.898 299.595 337.729 299.166 337.542 298.768L332.985 289.076C332.815 288.714 332.592 288.333 332.315 287.932C332.047 287.55 331.723 287.26 331.343 287.063C330.963 286.866 330.538 286.878 330.067 287.1Z" fill="#553B92"/>
</g>
</g>
<defs>
<filter id="filter0_f_17_2823" x="0.317749" y="0.821289" width="467.475" height="686.179" filterUnits="userSpaceOnUse" color-interpolation-filters="sRGB">
<feFlood flood-opacity="0" result="BackgroundImageFix"/>
<feBlend mode="normal" in="SourceGraphic" in2="BackgroundImageFix" result="shape"/>
<feGaussianBlur stdDeviation="15" result="effect1_foregroundBlur_17_2823"/>
</filter>
<filter id="filter1_d_17_2823" x="194.925" y="174.511" width="80.7654" height="79.2144" filterUnits="userSpaceOnUse" color-interpolation-filters="sRGB">
<feFlood flood-opacity="0" result="BackgroundImageFix"/>
<feColorMatrix in="SourceAlpha" type="matrix" values="0 0 0 0 0 0 0 0 0 0 0 0 0 0 0 0 0 0 127 0" result="hardAlpha"/>
<feOffset/>
<feComposite in2="hardAlpha" operator="out"/>
<feColorMatrix type="matrix" values="0 0 0 0 0.264705 0 0 0 0 0.318651 0 0 0 0 0.804167 0 0 0 0.8 0"/>
<feBlend mode="normal" in2="BackgroundImageFix" result="effect1_dropShadow_17_2823"/>
<feBlend mode="normal" in="SourceGraphic" in2="effect1_dropShadow_17_2823" result="shape"/>
</filter>
</defs>
</svg>
