<svg width="378" height="642" viewBox="0 0 378 642" fill="none" xmlns="http://www.w3.org/2000/svg">
<path d="M354.922 160.459L230.843 38.1787L67.0765 83.3313L23.4655 246.09L142.327 368.525L311.311 323.218L354.922 160.459Z" fill="#F5F5FA" stroke="#553B92" stroke-width="10"/>
<path d="M213.373 103.379L262.042 288.793M213.373 103.379L354.922 160.459M213.373 103.379L230.843 38.1787M213.373 103.379L67.0765 83.3313M213.373 103.379L79.4824 239.876M262.042 288.793L354.922 160.459M262.042 288.793L79.4824 239.876M262.042 288.793L142.327 368.525M262.042 288.793L311.311 323.218M354.922 160.459L230.843 38.1787M354.922 160.459L311.311 323.218M230.843 38.1787L67.0765 83.3313M311.311 323.218L142.327 368.525M142.327 368.525L23.4655 246.09M142.327 368.525L79.4824 239.876M23.4655 246.09L67.0765 83.3313M23.4655 246.09L79.4824 239.876M67.0765 83.3313L79.4824 239.876" stroke="#553B92" stroke-width="10"/>
<circle cx="213.114" cy="104.344" r="9.5" transform="rotate(15 213.114 104.344)" stroke="#553B92" stroke-width="6"/>
<circle cx="261.465" cy="287.087" r="9.5" transform="rotate(15 261.465 287.087)" stroke="#553B92" stroke-width="6"/>
<circle cx="80.8369" cy="238.684" r="9.5" transform="rotate(15 80.8369 238.684)" stroke="#553B92" stroke-width="6"/>
<g filter="url(#filter0_d_17_740)">
<path d="M158.336 225.805L169.103 185.623C168.677 185.73 168.101 185.818 167.375 185.889C166.702 185.929 165.955 185.994 165.136 186.084C164.328 186.133 163.561 186.192 162.836 186.263C162.121 186.292 161.556 186.339 161.141 186.405L163.029 179.358C163.59 179.243 164.338 179.09 165.273 178.898C166.248 178.718 167.277 178.508 168.357 178.267C169.437 178.027 170.467 177.728 171.446 177.372C172.466 177.027 173.269 176.668 173.855 176.295L181.273 178.283L167.856 228.356L158.336 225.805ZM190.29 235.295C187.281 234.489 184.954 233.203 183.307 231.436C181.66 229.67 180.629 227.583 180.214 225.174C179.81 222.725 179.989 220.079 180.751 217.235L186.764 194.795C187.548 191.868 188.707 189.44 190.24 187.51C191.784 185.538 193.711 184.2 196.021 183.493C198.33 182.787 201.03 182.848 204.121 183.676C207.171 184.493 209.499 185.78 211.104 187.535C212.751 189.301 213.751 191.424 214.102 193.904C214.465 196.342 214.254 199.024 213.47 201.95L207.457 224.391C206.695 227.234 205.527 229.616 203.953 231.535C202.389 233.413 200.453 234.705 198.143 235.412C195.834 236.118 193.216 236.079 190.29 235.295ZM192.543 226.888C193.655 227.186 194.553 227.051 195.235 226.483C195.918 225.915 196.468 225.179 196.887 224.275C197.317 223.33 197.642 222.446 197.863 221.621L203.777 199.552C204.02 198.645 204.191 197.675 204.291 196.642C204.433 195.62 204.35 194.692 204.043 193.859C203.747 192.984 203.022 192.393 201.868 192.083C200.715 191.774 199.77 191.919 199.036 192.517C198.353 193.085 197.797 193.842 197.367 194.787C196.979 195.743 196.663 196.674 196.42 197.581L190.507 219.65C190.286 220.474 190.125 221.403 190.025 222.436C189.936 223.428 190.065 224.347 190.413 225.191C190.761 226.035 191.471 226.601 192.543 226.888Z" fill="#553B92"/>
</g>
<g opacity="0.7">
<path d="M70.6899 219.669L51.6684 223.963C51.8056 224.116 51.968 224.336 52.1555 224.622C52.3191 224.892 52.5088 225.188 52.7246 225.508C52.921 225.833 53.1129 226.138 53.3004 226.424C53.4684 226.714 53.6112 226.938 53.7289 227.096L50.3928 227.849C50.2229 227.641 49.9964 227.365 49.7132 227.018C49.4257 226.653 49.1142 226.272 48.7788 225.876C48.4434 225.48 48.0951 225.118 47.7339 224.79C47.3683 224.441 47.0442 224.187 46.7617 224.025L45.969 220.513L69.6727 215.163L70.6899 219.669ZM67.5727 204.361C67.9117 205.863 67.8575 207.167 67.41 208.272C66.9385 209.363 66.1682 210.265 65.0989 210.978C64.0252 211.671 62.7373 212.187 61.2351 212.526L52.8071 214.429C51.2659 214.777 49.8411 214.914 48.5328 214.84C47.22 214.747 46.109 214.321 45.1997 213.563C44.2904 212.804 43.6442 211.576 43.2611 209.879C42.9308 208.416 42.9029 207.202 43.1774 206.238C43.4279 205.259 43.9579 204.473 44.7672 203.88C45.5766 203.287 46.6348 202.843 47.9419 202.548C48.0004 202.535 48.0687 202.52 48.1467 202.502C48.2009 202.469 48.2572 202.447 48.3157 202.433L49.2801 206.706C48.2852 206.93 47.5658 207.195 47.1221 207.5C46.6784 207.806 46.5403 208.329 46.7076 209.07C46.8133 209.538 47.0433 209.876 47.3976 210.083C47.7475 210.271 48.2868 210.344 49.0155 210.302C49.7204 210.246 50.6776 210.081 51.8871 209.808L54.316 209.26C53.8296 209.103 53.4098 208.788 53.0568 208.314C52.6994 207.82 52.4317 207.225 52.2537 206.527C51.9328 205.287 51.9911 204.228 52.4286 203.35C52.8421 202.457 53.5382 201.726 54.5168 201.157C55.4759 200.592 56.609 200.162 57.9162 199.866C59.5159 199.505 60.9841 199.379 62.3208 199.487C63.6574 199.596 64.7826 200.039 65.6963 200.817C66.5861 201.58 67.2116 202.761 67.5727 204.361ZM64.1941 205.062C64.084 204.574 63.8367 204.25 63.4522 204.091C63.0633 203.912 62.5577 203.852 61.9353 203.911C61.3085 203.95 60.5659 204.066 59.7075 204.26C58.8881 204.445 58.1826 204.635 57.591 204.83C56.9755 205.01 56.5208 205.266 56.2269 205.599C55.933 205.932 55.8521 206.391 55.9842 206.976C56.0459 207.249 56.1638 207.5 56.3381 207.727C56.4885 207.939 56.6713 208.113 56.8866 208.249C57.0823 208.389 57.2789 208.488 57.4765 208.546L61.2515 207.694C61.8368 207.562 62.3818 207.388 62.8865 207.171C63.3674 206.94 63.733 206.652 63.9835 206.309C64.234 205.965 64.3042 205.549 64.1941 205.062Z" fill="#553B92"/>
</g>
<g opacity="0.7">
<path d="M164.413 288.855C166.917 289.526 168.786 290.523 170.022 291.848C171.218 293.196 171.912 294.806 172.106 296.68C172.291 298.585 172.086 300.65 171.489 302.876L171.129 304.22L163.989 302.307C164.006 302.245 164.051 302.075 164.126 301.797C164.192 301.55 164.258 301.303 164.324 301.055C164.616 299.842 164.793 298.812 164.854 297.967C164.875 297.145 164.724 296.475 164.399 295.957C164.073 295.439 163.509 295.073 162.705 294.857C161.871 294.634 161.199 294.669 160.689 294.963C160.172 295.288 159.728 295.832 159.358 296.594C158.988 297.356 158.646 298.325 158.331 299.499C157.826 301.385 157.715 302.912 157.998 304.081C158.272 305.281 159.24 306.12 160.901 306.598C160.932 306.607 161.087 306.648 161.365 306.723C161.643 306.797 161.906 306.867 162.153 306.934L160.737 312.219C160.551 312.17 160.366 312.12 160.18 312.07C159.964 312.012 159.779 311.963 159.624 311.921C157.955 311.474 156.707 311.62 155.879 312.359C155.021 313.09 154.335 314.413 153.821 316.329C153.424 317.813 153.33 319.03 153.539 319.981C153.748 320.931 154.44 321.564 155.614 321.879C156.789 322.193 157.686 321.937 158.305 321.109C158.924 320.281 159.444 319.145 159.864 317.7C159.931 317.453 160.005 317.175 160.088 316.866C160.163 316.588 160.237 316.309 160.312 316.031L167.452 317.944L166.905 319.984C166.317 322.179 165.418 323.926 164.209 325.225C162.991 326.555 161.533 327.423 159.834 327.829C158.135 328.236 156.219 328.153 154.086 327.581C151.953 327.01 150.233 326.135 148.926 324.956C147.618 323.778 146.777 322.343 146.402 320.652C145.996 318.953 146.086 317.007 146.675 314.812C147.263 312.617 148.215 310.918 149.531 309.714C150.817 308.501 152.178 307.872 153.615 307.826C152.771 307.269 152.088 306.539 151.568 305.638C151.047 304.736 150.748 303.629 150.669 302.316C150.582 301.034 150.774 299.512 151.246 297.75C151.851 295.494 152.714 293.571 153.835 291.983C154.948 290.426 156.379 289.352 158.127 288.761C159.876 288.169 161.971 288.2 164.413 288.855Z" fill="#553B92"/>
</g>
<g opacity="0.7">
<path d="M263.628 172.325L293.056 161.961C292.81 161.743 292.511 161.424 292.159 161.005C291.849 160.605 291.493 160.171 291.09 159.702C290.718 159.222 290.356 158.773 290.005 158.354C289.684 157.924 289.415 157.595 289.199 157.366L294.36 155.548C294.669 155.846 295.08 156.244 295.594 156.742C296.12 157.269 296.685 157.816 297.292 158.383C297.899 158.95 298.52 159.46 299.155 159.915C299.801 160.4 300.363 160.745 300.842 160.949L302.755 166.382L266.083 179.297L263.628 172.325ZM268.724 186.797L302.764 183.46L299.241 173.454L304.583 171.573L310.514 188.415L305.896 190.042L271.116 193.588L268.724 186.797Z" fill="#553B92"/>
</g>
<g opacity="0.7">
<path d="M302.099 261.476L311.244 277.96C311.349 277.791 311.509 277.581 311.723 277.329C311.929 277.104 312.152 276.848 312.391 276.561C312.639 276.29 312.87 276.029 313.084 275.778C313.308 275.543 313.477 275.35 313.592 275.198L315.195 278.089C315.049 278.303 314.853 278.588 314.609 278.945C314.348 279.311 314.079 279.703 313.803 280.122C313.526 280.54 313.285 280.962 313.078 281.386C312.854 281.82 312.706 282.19 312.632 282.496L309.589 284.184L298.194 263.643L302.099 261.476ZM289.082 268.3C290.435 267.55 291.662 267.211 292.764 267.285C293.876 267.376 294.876 267.805 295.766 268.571C296.639 269.348 297.417 270.353 298.102 271.587C298.412 272.145 298.652 272.697 298.822 273.243C298.993 273.79 299.089 274.322 299.111 274.841C299.134 275.359 299.085 275.85 298.967 276.314C298.841 276.804 298.631 277.263 298.338 277.691C299.121 277.787 299.925 278.081 300.751 278.574C301.57 279.093 302.302 279.914 302.947 281.037C303.592 282.16 303.945 283.236 304.007 284.263C304.078 285.307 303.846 286.264 303.312 287.135C302.778 288.006 301.937 288.761 300.787 289.399C299.621 290.046 298.535 290.361 297.53 290.343C296.509 290.335 295.582 290.02 294.751 289.398C293.929 288.793 293.212 287.919 292.6 286.777C291.98 285.618 291.666 284.554 291.659 283.585C291.644 282.642 291.817 281.817 292.176 281.109C291.657 281.132 291.165 281.062 290.7 280.9C290.227 280.765 289.776 280.55 289.348 280.257C288.92 279.964 288.519 279.6 288.146 279.166C287.756 278.742 287.406 278.25 287.096 277.692C286.378 276.477 285.937 275.284 285.775 274.114C285.595 272.954 285.761 271.878 286.272 270.887C286.776 269.922 287.713 269.06 289.082 268.3ZM290.7 271.216C290.21 271.488 289.94 271.859 289.891 272.328C289.842 272.798 289.919 273.296 290.124 273.824C290.328 274.352 290.557 274.844 290.81 275.3C291.093 275.851 291.418 276.356 291.784 276.816C292.133 277.286 292.515 277.616 292.93 277.806C293.345 277.996 293.797 277.955 294.287 277.683C294.761 277.42 295.035 277.058 295.111 276.596C295.169 276.143 295.1 275.64 294.903 275.086C294.699 274.558 294.442 274.015 294.132 273.458C293.879 273.001 293.578 272.538 293.229 272.068C292.889 271.616 292.507 271.286 292.083 271.079C291.651 270.898 291.19 270.944 290.7 271.216ZM296.06 280.878C295.722 281.066 295.522 281.342 295.46 281.709C295.38 282.084 295.422 282.537 295.583 283.066C295.744 283.596 296.003 284.182 296.359 284.824C296.762 285.551 297.204 286.069 297.685 286.377C298.158 286.712 298.648 286.738 299.155 286.457C299.662 286.176 299.916 285.736 299.916 285.139C299.909 284.568 299.709 283.928 299.315 283.218C298.958 282.575 298.602 282.032 298.245 281.589C297.881 281.172 297.519 280.898 297.159 280.766C296.781 280.644 296.415 280.681 296.06 280.878Z" fill="#553B92"/>
</g>
<g opacity="0.7">
<path d="M240.692 316.559L244.385 318.852L247.369 314.045L249.733 315.512L256.945 325.701L254.761 329.218L244.932 323.117L243.986 324.641L241.68 323.209L242.626 321.685L238.933 319.393L240.692 316.559ZM248.195 317.86L246.691 320.283L253.413 324.456L248.195 317.86Z" fill="#553B92"/>
</g>
<g opacity="0.7">
<path d="M85.8036 272.098C85.982 273.265 85.8704 274.26 85.4686 275.081C85.0494 275.89 84.4117 276.538 83.5556 277.026C82.6971 277.498 81.6843 277.824 80.5172 278.002L73.9694 279.004C72.7719 279.187 71.6749 279.215 70.6783 279.088C69.6794 278.946 68.8526 278.561 68.198 277.932C67.5434 277.303 67.1153 276.329 66.9137 275.01C66.7398 273.873 66.7838 272.944 67.0456 272.221C67.2899 271.486 67.7375 270.913 68.3884 270.503C69.0393 270.094 69.8725 269.811 70.888 269.656C70.9335 269.649 70.9865 269.641 71.0471 269.632C71.0903 269.609 71.1346 269.595 71.1801 269.588L71.6877 272.907C70.9146 273.026 70.3503 273.189 69.9945 273.399C69.6388 273.608 69.5049 274.001 69.593 274.577C69.6486 274.941 69.8063 275.212 70.0661 275.389C70.3236 275.551 70.7322 275.636 71.2917 275.644C71.8338 275.638 72.5747 275.564 73.5145 275.42L75.4015 275.132C75.0379 274.985 74.7339 274.722 74.4895 274.34C74.2427 273.944 74.07 273.474 73.9714 272.93C73.7927 271.965 73.8943 271.158 74.2761 270.511C74.6404 269.85 75.2121 269.328 75.9912 268.945C76.7552 268.565 77.6449 268.297 78.6604 268.142C79.9033 267.952 81.0329 267.934 82.0494 268.089C83.0658 268.244 83.9024 268.643 84.5593 269.287C85.1988 269.918 85.6135 270.855 85.8036 272.098ZM83.182 272.453C83.1241 272.074 82.9524 271.813 82.6669 271.671C82.3791 271.513 81.9956 271.44 81.5165 271.451C81.035 271.447 80.4608 271.496 79.7939 271.598C79.1573 271.695 78.6075 271.803 78.1446 271.92C77.6642 272.024 77.3027 272.196 77.06 272.435C76.8173 272.674 76.7307 273.02 76.8002 273.475C76.8327 273.687 76.9094 273.885 77.0305 274.068C77.1341 274.238 77.2645 274.381 77.4218 274.497C77.5639 274.615 77.709 274.701 77.857 274.756L80.7899 274.308C81.2446 274.238 81.6708 274.134 82.0685 273.996C82.4486 273.845 82.7438 273.644 82.9538 273.395C83.1639 273.146 83.24 272.832 83.182 272.453Z" fill="#553B92"/>
</g>
<g opacity="0.7">
<path d="M247.862 106.165L248.107 102.904L254.681 94.2819C255.171 93.6367 255.629 93.0193 256.054 92.4294C256.499 91.8411 256.866 91.2369 257.153 90.6167C257.462 89.978 257.644 89.2897 257.699 88.5518C257.757 87.7739 257.652 87.1744 257.383 86.753C257.115 86.3117 256.702 86.0701 256.144 86.0282C255.545 85.9833 255.074 86.1183 254.729 86.4334C254.386 86.7285 254.135 87.1409 253.975 87.6704C253.815 88.1999 253.71 88.7837 253.663 89.4219L253.577 90.5587L249.06 90.2195L249.15 89.0228C249.258 87.5869 249.573 86.3269 250.095 85.243C250.638 84.1606 251.411 83.3462 252.415 82.7999C253.44 82.2351 254.741 82.0118 256.316 82.1302C258.45 82.2904 260.014 82.9694 261.007 84.1671C262 85.3649 262.421 86.9709 262.269 88.9852C262.196 89.9625 261.978 90.8587 261.616 91.6739C261.256 92.4691 260.797 93.2369 260.24 93.9773C259.704 94.6992 259.127 95.448 258.507 96.2238L253.312 102.904L260.522 103.445L260.248 107.095L247.862 106.165Z" fill="#553B92"/>
</g>
<g opacity="0.7">
<path d="M132.894 145.647C131.117 147.491 129.339 148.621 127.559 149.039C125.756 149.434 123.964 149.241 122.185 148.459C120.427 147.654 118.707 146.441 117.025 144.82C116.265 144.087 115.617 143.33 115.082 142.547C114.548 141.765 114.137 140.969 113.85 140.16C113.564 139.351 113.402 138.55 113.365 137.759C113.327 136.922 113.436 136.094 113.692 135.275C112.406 135.502 110.991 135.426 109.445 135.047C107.898 134.623 106.341 133.679 104.776 132.214C103.21 130.749 102.129 129.219 101.534 127.623C100.915 126.005 100.817 124.378 101.24 122.74C101.662 121.103 102.628 119.501 104.138 117.934C105.671 116.345 107.236 115.32 108.834 114.86C110.455 114.378 112.074 114.427 113.691 115.008C115.286 115.567 116.844 116.602 118.366 118.113C119.91 119.646 120.923 121.178 121.404 122.708C121.884 124.192 122.011 125.582 121.786 126.876C122.596 126.59 123.408 126.461 124.223 126.492C125.038 126.477 125.855 126.597 126.674 126.854C127.494 127.11 128.304 127.491 129.105 127.997C129.929 128.48 130.721 129.087 131.481 129.82C133.208 131.395 134.484 133.069 135.308 134.842C136.155 136.591 136.415 138.374 136.086 140.191C135.757 141.962 134.693 143.781 132.894 145.647ZM128.919 141.817C129.563 141.149 129.81 140.431 129.66 139.664C129.51 138.898 129.146 138.146 128.566 137.41C127.987 136.674 127.386 136.006 126.764 135.407C126.049 134.673 125.29 134.031 124.488 133.48C123.708 132.906 122.944 132.569 122.195 132.47C121.446 132.37 120.75 132.655 120.106 133.323C119.484 133.968 119.226 134.675 119.33 135.442C119.457 136.187 119.811 136.949 120.391 137.731C120.97 138.467 121.64 139.201 122.401 139.934C123.023 140.534 123.724 141.121 124.504 141.695C125.261 142.246 126.025 142.583 126.797 142.705C127.568 142.781 128.275 142.485 128.919 141.817ZM115.751 129.126C116.195 128.665 116.378 128.13 116.299 127.521C116.242 126.888 115.957 126.192 115.445 125.432C114.933 124.672 114.24 123.87 113.364 123.026C112.373 122.071 111.423 121.466 110.513 121.211C109.602 120.911 108.814 121.107 108.148 121.798C107.481 122.489 107.293 123.308 107.582 124.253C107.87 125.153 108.498 126.069 109.466 127.002C110.341 127.845 111.169 128.532 111.948 129.061C112.726 129.544 113.433 129.803 114.067 129.836C114.724 129.847 115.285 129.61 115.751 129.126Z" fill="#553B92"/>
</g>
<g opacity="0.7">
<path d="M167.045 82.7968L175.711 65.3286C175.506 65.3382 175.233 65.3256 174.893 65.2909C174.58 65.2472 174.231 65.208 173.846 65.1734C173.47 65.1209 173.112 65.0773 172.772 65.0426C172.441 64.9899 172.177 64.9594 171.98 64.9511L173.5 61.8874C173.769 61.8866 174.126 61.8855 174.574 61.8841C175.039 61.8916 175.531 61.8901 176.049 61.8795C176.568 61.869 177.069 61.8272 177.552 61.7542C178.052 61.69 178.455 61.5993 178.758 61.4821L181.983 63.0821L171.183 84.8502L167.045 82.7968ZM180.85 90.1151C179.542 89.4662 178.591 88.6597 177.998 87.6955C177.405 86.7314 177.124 85.6768 177.156 84.5318C177.198 83.3689 177.525 82.1694 178.138 80.9332L182.978 71.1779C183.609 69.9058 184.366 68.8972 185.25 68.1521C186.142 67.3891 187.151 66.9522 188.278 66.8414C189.404 66.7306 190.64 67.0085 191.983 67.6752C193.309 68.3329 194.26 69.1395 194.835 70.0947C195.428 71.0589 195.691 72.1269 195.623 73.2988C195.564 74.4528 195.219 75.6658 194.588 76.9379L189.748 86.6932C189.134 87.9294 188.377 88.9156 187.476 89.6519C186.584 90.3702 185.575 90.7847 184.448 90.8955C183.321 91.0063 182.122 90.7462 180.85 90.1151ZM182.663 86.4602C183.147 86.7002 183.572 86.7212 183.938 86.5233C184.304 86.3254 184.625 86.0382 184.901 85.6617C185.186 85.2673 185.418 84.8909 185.595 84.5326L190.355 74.9385C190.551 74.5443 190.72 74.1145 190.861 73.649C191.021 73.1923 191.069 72.7584 191.005 72.3471C190.95 71.918 190.672 71.5789 190.17 71.33C189.668 71.0811 189.221 71.0602 188.828 71.2671C188.462 71.465 188.136 71.7612 187.851 72.1556C187.584 72.5589 187.353 72.9577 187.157 73.3518L182.397 82.9459C182.22 83.3042 182.06 83.7162 181.918 84.1817C181.785 84.6293 181.76 85.0632 181.842 85.4833C181.924 85.9035 182.197 86.2291 182.663 86.4602Z" fill="#553B92"/>
</g>
<defs>
<filter id="filter0_d_17_740" x="150.871" y="173.114" width="66.5413" height="65.7427" filterUnits="userSpaceOnUse" color-interpolation-filters="sRGB">
<feFlood flood-opacity="0" result="BackgroundImageFix"/>
<feColorMatrix in="SourceAlpha" type="matrix" values="0 0 0 0 0 0 0 0 0 0 0 0 0 0 0 0 0 0 127 0" result="hardAlpha"/>
<feOffset/>
<feComposite in2="hardAlpha" operator="out"/>
<feColorMatrix type="matrix" values="0 0 0 0 0.264705 0 0 0 0 0.318651 0 0 0 0 0.804167 0 0 0 0.8 0"/>
<feBlend mode="normal" in2="BackgroundImageFix" result="effect1_dropShadow_17_740"/>
<feBlend mode="normal" in="SourceGraphic" in2="effect1_dropShadow_17_740" result="shape"/>
</filter>
</defs>
</svg>
