<svg width="504" height="695" viewBox="0 0 504 695" fill="none" xmlns="http://www.w3.org/2000/svg">
<g filter="url(#filter0_f_17_2039)">
<path d="M182.998 414.041L355.913 392.851L422.337 236.499L321.949 101.168L152.157 118.174L82.6102 278.71L182.998 414.041Z" fill="#F5F5FA" stroke="#553B92" stroke-width="10"/>
<path d="M315.698 338.639L140.202 261.513M315.698 338.639L182.998 414.041M315.698 338.639L355.913 392.851M315.698 338.639L422.337 236.499M315.698 338.639L291.997 148.911M140.202 261.513L182.998 414.041M140.202 261.513L291.997 148.911M140.202 261.513L152.157 118.174M140.202 261.513L82.6102 278.71M182.998 414.041L355.913 392.851M182.998 414.041L82.6102 278.71M355.913 392.851L422.337 236.499M82.6102 278.71L152.157 118.174M152.157 118.174L321.949 101.168M152.157 118.174L291.997 148.911M321.949 101.168L422.337 236.499M321.949 101.168L291.997 148.911M422.337 236.499L291.997 148.911" stroke="#553B92" stroke-width="10"/>
<circle cx="315.102" cy="337.834" r="9.5" transform="rotate(143.432 315.102 337.834)" stroke="#553B92" stroke-width="6"/>
<circle cx="141.897" cy="262.119" r="9.5" transform="rotate(143.432 141.897 262.119)" stroke="#553B92" stroke-width="6"/>
<circle cx="292.089" cy="150.713" r="9.5" transform="rotate(143.432 292.089 150.713)" stroke="#553B92" stroke-width="6"/>
<g filter="url(#filter1_d_17_2039)">
<path d="M262.358 213.231L266.514 218.834L267.941 241.92C268.052 243.644 268.176 245.279 268.312 246.824C268.415 248.395 268.668 249.881 269.07 251.283C269.463 252.744 270.13 254.109 271.071 255.377C272.062 256.713 273.069 257.533 274.091 257.837C275.139 258.176 276.143 257.989 277.102 257.277C278.13 256.515 278.702 255.639 278.819 254.649C278.96 253.694 278.791 252.678 278.31 251.6C277.829 250.523 277.182 249.435 276.369 248.339L274.92 246.386L282.681 240.628L284.206 242.684C286.037 245.151 287.287 247.624 287.956 250.102C288.592 252.606 288.481 254.999 287.624 257.281C286.758 259.624 284.972 261.799 282.265 263.807C278.598 266.527 275.128 267.614 271.854 267.067C268.58 266.521 265.659 264.517 263.092 261.056C261.846 259.377 260.947 257.627 260.393 255.807C259.865 254.02 259.533 252.141 259.399 250.169C259.255 248.257 259.142 246.243 259.059 244.126L258.118 226.098L245.73 235.288L241.078 229.017L262.358 213.231ZM223.949 240.608C226.45 238.752 228.905 237.728 231.312 237.536C233.72 237.344 235.995 237.834 238.14 239.005C240.309 240.212 242.271 241.997 244.025 244.361L257.866 263.02C259.671 265.453 260.853 267.87 261.412 270.271C261.997 272.706 261.848 275.048 260.965 277.296C260.083 279.544 258.357 281.621 255.787 283.528C253.251 285.409 250.797 286.433 248.423 286.6C246.016 286.792 243.732 286.255 241.571 284.989C239.436 283.757 237.465 281.925 235.661 279.492L221.82 260.833C220.066 258.469 218.926 256.074 218.401 253.647C217.902 251.255 218.093 248.935 218.976 246.687C219.858 244.439 221.516 242.412 223.949 240.608ZM229.134 247.598C228.209 248.284 227.757 249.071 227.778 249.959C227.799 250.847 228.033 251.735 228.481 252.625C228.954 253.549 229.444 254.354 229.953 255.039L243.565 273.39C244.124 274.144 244.777 274.881 245.524 275.602C246.237 276.348 247.015 276.86 247.859 277.137C248.728 277.449 249.642 277.249 250.601 276.537C251.561 275.826 252.034 274.996 252.022 274.049C252.001 273.161 251.754 272.255 251.281 271.331C250.774 270.432 250.241 269.606 249.682 268.852L236.069 250.502C235.561 249.817 234.933 249.114 234.186 248.393C233.464 247.706 232.665 247.237 231.787 246.985C230.909 246.733 230.025 246.937 229.134 247.598Z" fill="#553B92"/>
</g>
<g opacity="0.7">
<path d="M313.292 154.583L321.752 137.014C321.546 137.026 321.273 137.016 320.933 136.986C320.619 136.945 320.27 136.91 319.885 136.88C319.508 136.832 319.15 136.793 318.81 136.762C318.478 136.713 318.214 136.686 318.017 136.68L319.5 133.599C319.769 133.595 320.126 133.589 320.574 133.583C321.039 133.585 321.531 133.577 322.049 133.561C322.568 133.544 323.068 133.496 323.55 133.418C324.05 133.348 324.451 133.252 324.753 133.131L327.997 134.693L317.454 156.587L313.292 154.583ZM327.221 161.657C325.834 160.988 324.846 160.135 324.258 159.098C323.697 158.05 323.469 156.886 323.576 155.606C323.7 154.334 324.096 153.004 324.764 151.616L328.513 143.832C329.198 142.408 329.976 141.207 330.847 140.228C331.736 139.258 332.76 138.652 333.92 138.411C335.079 138.17 336.443 138.427 338.01 139.182C339.362 139.833 340.33 140.565 340.914 141.38C341.526 142.185 341.812 143.088 341.773 144.091C341.735 145.093 341.424 146.198 340.843 147.405C340.817 147.459 340.787 147.522 340.752 147.595C340.744 147.657 340.727 147.716 340.701 147.77L336.755 145.869C337.197 144.95 337.437 144.222 337.474 143.685C337.51 143.148 337.186 142.714 336.501 142.385C336.069 142.176 335.662 142.147 335.279 142.295C334.915 142.453 334.522 142.83 334.102 143.427C333.708 144.014 333.242 144.866 332.704 145.983L331.624 148.227C332.049 147.943 332.557 147.81 333.148 147.828C333.756 147.855 334.389 148.016 335.047 148.31C336.217 148.829 337.01 149.533 337.426 150.422C337.869 151.301 338.009 152.3 337.847 153.421C337.693 154.523 337.326 155.678 336.744 156.886C336.033 158.363 335.219 159.592 334.303 160.572C333.388 161.551 332.341 162.157 331.164 162.39C330.013 162.612 328.699 162.368 327.221 161.657ZM328.772 158.574C329.223 158.791 329.63 158.799 329.994 158.596C330.375 158.403 330.737 158.044 331.078 157.52C331.437 157.005 331.807 156.351 332.189 155.558C332.554 154.801 332.843 154.13 333.058 153.546C333.3 152.952 333.382 152.436 333.304 151.999C333.225 151.562 332.916 151.213 332.376 150.953C332.123 150.831 331.854 150.768 331.568 150.764C331.308 150.75 331.058 150.785 330.818 150.869C330.586 150.935 330.386 151.027 330.218 151.146L328.539 154.633C328.279 155.173 328.077 155.709 327.932 156.239C327.815 156.759 327.813 157.224 327.926 157.634C328.04 158.044 328.322 158.357 328.772 158.574Z" fill="#553B92"/>
</g>
<g opacity="0.7">
<path d="M198.415 185.956L179.826 160.898C179.69 161.198 179.474 161.578 179.177 162.037C178.887 162.452 178.577 162.92 178.248 163.443C177.9 163.941 177.577 164.419 177.281 164.878C176.965 165.312 176.729 165.666 176.574 165.94L173.314 161.545C173.508 161.162 173.767 160.652 174.09 160.013C174.439 159.356 174.795 158.654 175.157 157.907C175.52 157.16 175.824 156.416 176.071 155.675C176.344 154.915 176.508 154.276 176.562 153.758L181.188 150.326L204.352 181.552L198.415 185.956Z" fill="#553B92"/>
</g>
<g opacity="0.7">
<path d="M198.415 185.956L179.826 160.898C179.69 161.198 179.474 161.578 179.177 162.037C178.887 162.452 178.577 162.92 178.248 163.443C177.9 163.941 177.577 164.419 177.281 164.878C176.965 165.312 176.729 165.666 176.574 165.94L173.314 161.545C173.508 161.162 173.767 160.652 174.09 160.013C174.439 159.356 174.795 158.654 175.157 157.907C175.52 157.16 175.824 156.416 176.071 155.675C176.344 154.915 176.508 154.276 176.562 153.758L181.188 150.326L204.352 181.552L198.415 185.956Z" fill="#553B92"/>
</g>
<g opacity="0.7">
<path d="M227.899 334.27L226.193 339.216L212.511 349.882C211.491 350.681 210.532 351.45 209.633 352.189C208.705 352.919 207.892 353.704 207.195 354.547C206.458 355.41 205.896 356.401 205.51 357.52C205.103 358.7 205.022 359.671 205.267 360.432C205.501 361.224 206.042 361.766 206.889 362.058C207.797 362.371 208.581 362.354 209.243 362.007C209.894 361.69 210.451 361.154 210.914 360.4C211.377 359.646 211.776 358.785 212.11 357.817L212.704 356.092L219.556 358.456L218.93 360.271C218.179 362.449 217.178 364.27 215.928 365.735C214.648 367.189 213.12 368.134 211.345 368.571C209.529 369.028 207.426 368.844 205.036 368.02C201.799 366.903 199.656 365.216 198.607 362.958C197.558 360.701 197.56 358.044 198.614 354.989C199.125 353.507 199.827 352.209 200.719 351.095C201.601 350.011 202.623 349.01 203.786 348.091C204.909 347.192 206.108 346.268 207.382 345.32L218.139 337.098L207.204 333.326L209.113 327.79L227.899 334.27Z" fill="#553B92"/>
</g>
<g opacity="0.7">
<path d="M136.702 309.87L118.105 306.788C118.172 306.975 118.238 307.231 118.302 307.555C118.35 307.857 118.412 308.191 118.488 308.556C118.546 308.918 118.607 309.262 118.67 309.586C118.715 309.907 118.762 310.159 118.809 310.344L115.548 309.803C115.471 309.555 115.369 309.225 115.242 308.812C115.118 308.38 114.977 307.925 114.821 307.449C114.665 306.972 114.485 306.521 114.281 306.095C114.081 305.65 113.883 305.304 113.689 305.056L114.258 301.623L137.432 305.464L136.702 309.87ZM139.448 295.432C139.195 296.958 138.697 298.13 137.954 298.947C137.192 299.762 136.234 300.279 135.08 300.499C133.93 300.7 132.659 300.686 131.266 300.455C130.637 300.351 130.055 300.195 129.521 299.989C128.987 299.783 128.51 299.528 128.09 299.223C127.67 298.918 127.315 298.575 127.026 298.194C126.72 297.791 126.491 297.341 126.338 296.845C125.776 297.399 125.045 297.846 124.146 298.187C123.231 298.506 122.133 298.569 120.852 298.376C119.571 298.183 118.509 297.791 117.666 297.201C116.804 296.607 116.198 295.831 115.848 294.871C115.497 293.912 115.43 292.783 115.645 291.486C115.863 290.17 116.291 289.124 116.929 288.348C117.57 287.553 118.393 287.023 119.397 286.759C120.382 286.491 121.512 286.472 122.787 286.703C124.081 286.937 125.109 287.353 125.873 287.949C126.62 288.524 127.159 289.172 127.491 289.893C127.795 289.473 128.156 289.131 128.572 288.867C128.972 288.581 129.42 288.361 129.916 288.208C130.411 288.055 130.945 287.967 131.517 287.945C132.093 287.903 132.695 287.934 133.324 288.038C134.723 288.231 135.931 288.627 136.949 289.227C137.97 289.808 138.709 290.606 139.168 291.623C139.611 292.618 139.704 293.887 139.448 295.432ZM136.158 294.887C136.249 294.334 136.127 293.892 135.789 293.562C135.452 293.231 135.013 292.982 134.473 292.814C133.932 292.646 133.405 292.52 132.89 292.434C132.282 292.314 131.685 292.254 131.097 292.255C130.512 292.236 130.016 292.33 129.61 292.537C129.203 292.744 128.954 293.124 128.862 293.677C128.774 294.212 128.887 294.652 129.202 294.998C129.52 295.325 129.957 295.584 130.514 295.774C131.054 295.942 131.639 296.078 132.268 296.182C132.783 296.268 133.333 296.32 133.918 296.338C134.484 296.353 134.98 296.259 135.405 296.056C135.815 295.829 136.066 295.44 136.158 294.887ZM125.257 293.08C125.321 292.698 125.228 292.37 124.98 292.093C124.735 291.798 124.355 291.549 123.84 291.346C123.325 291.143 122.705 290.981 121.98 290.861C121.16 290.725 120.48 290.75 119.94 290.934C119.384 291.097 119.058 291.464 118.963 292.037C118.868 292.609 119.055 293.081 119.522 293.452C119.974 293.801 120.6 294.042 121.401 294.175C122.126 294.295 122.773 294.353 123.342 294.35C123.895 294.324 124.335 294.211 124.662 294.01C124.993 293.791 125.191 293.48 125.257 293.08Z" fill="#553B92"/>
</g>
<g opacity="0.7">
<path d="M131.723 227.527L127.631 228.995L129.542 234.321L126.923 235.26L114.459 234.577L113.061 230.68L123.95 226.773L123.344 225.084L125.899 224.167L126.505 225.856L130.596 224.388L131.723 227.527ZM126.04 232.596L125.077 229.912L117.63 232.584L126.04 232.596Z" fill="#553B92"/>
</g>
<g opacity="0.7">
<path d="M262.827 133.835C261.802 133.249 261.093 132.544 260.699 131.718C260.326 130.887 260.215 129.985 260.365 129.011C260.528 128.045 260.903 127.049 261.488 126.024L264.774 120.273C265.375 119.221 266.035 118.344 266.754 117.642C267.486 116.948 268.302 116.54 269.201 116.418C270.101 116.296 271.13 116.566 272.288 117.228C273.287 117.798 273.987 118.41 274.391 119.065C274.815 119.713 274.985 120.42 274.902 121.184C274.818 121.949 274.521 122.777 274.012 123.669C273.989 123.709 273.962 123.756 273.932 123.809C273.922 123.856 273.906 123.9 273.883 123.94L270.968 122.274C271.356 121.595 271.578 121.052 271.635 120.643C271.692 120.234 271.468 119.885 270.962 119.596C270.642 119.413 270.332 119.369 270.032 119.462C269.744 119.563 269.424 119.83 269.07 120.263C268.738 120.691 268.335 121.318 267.864 122.144L266.917 123.801C267.257 123.607 267.653 123.533 268.104 123.579C268.568 123.632 269.043 123.789 269.53 124.049C270.397 124.509 270.966 125.09 271.236 125.792C271.527 126.488 271.581 127.26 271.396 128.108C271.22 128.943 270.876 129.807 270.367 130.699C269.743 131.791 269.055 132.686 268.302 133.386C267.549 134.086 266.716 134.494 265.803 134.608C264.911 134.716 263.919 134.459 262.827 133.835ZM264.179 131.561C264.512 131.751 264.823 131.779 265.112 131.644C265.414 131.516 265.71 131.261 265.999 130.879C266.302 130.504 266.62 130.024 266.955 129.438C267.274 128.879 267.532 128.382 267.728 127.946C267.944 127.505 268.035 127.115 267.998 126.777C267.962 126.438 267.745 126.155 267.345 125.927C267.159 125.82 266.956 125.757 266.737 125.738C266.54 125.714 266.347 125.727 266.158 125.778C265.978 125.816 265.82 125.876 265.685 125.958L264.213 128.534C263.985 128.934 263.801 129.332 263.663 129.73C263.545 130.122 263.518 130.477 263.583 130.797C263.648 131.116 263.846 131.371 264.179 131.561Z" fill="#553B92"/>
</g>
<g opacity="0.7">
<path d="M292.251 361.38L306.576 374.611C306.625 374.411 306.713 374.152 306.842 373.836C306.973 373.548 307.108 373.224 307.25 372.864C307.406 372.518 307.548 372.187 307.677 371.871C307.821 371.568 307.924 371.323 307.988 371.137L310.5 373.457C310.425 373.715 310.326 374.058 310.201 374.488C310.063 374.932 309.926 375.405 309.791 375.905C309.655 376.406 309.554 376.898 309.488 377.382C309.409 377.881 309.383 378.292 309.41 378.617L306.967 381.261L289.117 364.774L292.251 361.38ZM286.356 367.763L288.758 369.982L291.425 380.491C291.626 381.275 291.825 382.018 292.023 382.717C292.207 383.432 292.453 384.094 292.76 384.705C293.069 385.344 293.495 385.914 294.038 386.416C294.611 386.946 295.146 387.236 295.644 387.287C296.156 387.351 296.602 387.178 296.982 386.767C297.389 386.326 297.576 385.873 297.543 385.407C297.525 384.955 297.359 384.501 297.044 384.047C296.728 383.592 296.336 383.148 295.866 382.714L295.028 381.94L298.102 378.612L298.983 379.426C300.041 380.404 300.832 381.434 301.356 382.517C301.867 383.615 302.024 384.726 301.828 385.852C301.634 387.007 301 388.164 299.928 389.325C298.476 390.897 296.972 391.699 295.417 391.733C293.861 391.766 292.342 391.098 290.858 389.727C290.138 389.062 289.571 388.335 289.158 387.544C288.759 386.767 288.442 385.931 288.209 385.034C287.976 384.166 287.749 383.248 287.526 382.28L285.523 374.059L280.617 379.37L277.928 376.887L286.356 367.763Z" fill="#553B92"/>
</g>
<g opacity="0.7">
<path d="M332.612 249.322C332.272 246.784 332.492 244.689 333.271 243.034C334.082 241.376 335.347 240.093 337.066 239.185C338.789 238.308 340.808 237.715 343.123 237.405C344.17 237.265 345.166 237.229 346.111 237.296C347.056 237.363 347.935 237.536 348.747 237.815C349.56 238.093 350.287 238.464 350.93 238.927C351.609 239.417 352.19 240.017 352.673 240.727C353.294 239.579 354.233 238.517 355.491 237.541C356.784 236.593 358.492 235.961 360.612 235.645C362.733 235.329 364.604 235.433 366.224 235.959C367.875 236.48 369.211 237.415 370.231 238.764C371.251 240.113 371.906 241.865 372.194 244.022C372.487 246.211 372.317 248.074 371.684 249.611C371.054 251.181 370.009 252.418 368.549 253.324C367.12 254.226 365.34 254.803 363.211 255.056C361.05 255.313 359.221 255.154 357.723 254.58C356.262 254.033 355.094 253.269 354.22 252.288C353.942 253.101 353.537 253.817 353.007 254.436C352.512 255.084 351.91 255.649 351.2 256.131C350.489 256.614 349.687 257.012 348.793 257.325C347.903 257.67 346.934 257.913 345.888 258.053C343.581 258.427 341.477 258.385 339.576 257.93C337.678 257.506 336.121 256.6 334.902 255.214C333.719 253.855 332.956 251.891 332.612 249.322ZM338.083 248.589C338.206 249.509 338.614 250.148 339.308 250.507C340.002 250.867 340.817 251.048 341.754 251.052C342.691 251.055 343.587 251 344.444 250.885C345.463 250.781 346.438 250.586 347.368 250.3C348.303 250.046 349.041 249.656 349.585 249.132C350.128 248.607 350.338 247.885 350.215 246.965C350.096 246.077 349.703 245.435 349.037 245.04C348.375 244.677 347.557 244.479 346.585 244.448C345.648 244.445 344.656 244.513 343.609 244.653C342.753 244.768 341.858 244.952 340.923 245.206C340.02 245.456 339.281 245.846 338.706 246.375C338.168 246.931 337.96 247.669 338.083 248.589ZM356.209 246.162C356.294 246.797 356.6 247.272 357.127 247.589C357.657 247.938 358.38 248.148 359.293 248.219C360.207 248.291 361.266 248.246 362.472 248.084C363.835 247.902 364.9 247.533 365.665 246.979C366.466 246.452 366.803 245.712 366.676 244.761C366.548 243.809 366.025 243.153 365.105 242.792C364.22 242.458 363.112 242.381 361.78 242.559C360.575 242.72 359.523 242.942 358.624 243.224C357.762 243.533 357.12 243.926 356.7 244.402C356.283 244.909 356.12 245.496 356.209 246.162Z" fill="#553B92"/>
</g>
<g opacity="0.7">
<path d="M360.617 315.142L368.914 332.789C369.034 332.622 369.214 332.416 369.452 332.171C369.681 331.953 369.929 331.704 370.195 331.424C370.47 331.162 370.726 330.909 370.965 330.664C371.212 330.438 371.4 330.25 371.529 330.101L372.984 333.196C372.818 333.407 372.596 333.688 372.319 334.039C372.024 334.398 371.72 334.785 371.406 335.198C371.091 335.611 370.813 336.029 370.57 336.452C370.309 336.884 370.13 337.256 370.033 337.567L366.775 339.098L356.436 317.107L360.617 315.142ZM346.304 321.407C347.625 320.786 348.847 320.543 349.971 320.677C351.096 320.812 352.096 321.248 352.973 321.984C353.858 322.74 354.595 323.741 355.182 324.99L359.815 334.846C360.419 336.131 360.739 337.351 360.773 338.506C360.816 339.679 360.531 340.741 359.918 341.692C359.304 342.644 358.319 343.439 356.961 344.077C355.622 344.707 354.399 344.95 353.293 344.807C352.169 344.672 351.169 344.214 350.294 343.432C349.426 342.669 348.691 341.645 348.086 340.36L343.453 330.504C342.866 329.256 342.564 328.049 342.548 326.886C342.539 325.74 342.842 324.692 343.456 323.741C344.069 322.789 345.018 322.011 346.304 321.407ZM348.039 325.1C347.551 325.329 347.27 325.649 347.198 326.059C347.125 326.469 347.15 326.899 347.274 327.349C347.406 327.817 347.557 328.233 347.727 328.595L352.283 338.287C352.471 338.685 352.703 339.084 352.979 339.485C353.238 339.894 353.548 340.201 353.91 340.406C354.28 340.63 354.719 340.623 355.226 340.385C355.732 340.146 356.027 339.809 356.109 339.373C356.181 338.963 356.152 338.524 356.02 338.055C355.87 337.595 355.701 337.166 355.514 336.768L350.958 327.076C350.787 326.714 350.564 326.333 350.287 325.932C350.019 325.55 349.695 325.26 349.315 325.063C348.935 324.866 348.51 324.878 348.039 325.1Z" fill="#553B92"/>
</g>
</g>
<defs>
<filter id="filter0_f_17_2039" x="0.479736" y="0.892578" width="503.094" height="724.107" filterUnits="userSpaceOnUse" color-interpolation-filters="sRGB">
<feFlood flood-opacity="0" result="BackgroundImageFix"/>
<feBlend mode="normal" in="SourceGraphic" in2="BackgroundImageFix" result="shape"/>
<feGaussianBlur stdDeviation="15" result="effect1_foregroundBlur_17_2039"/>
</filter>
<filter id="filter1_d_17_2039" x="212.897" y="212.511" width="80.7654" height="79.2144" filterUnits="userSpaceOnUse" color-interpolation-filters="sRGB">
<feFlood flood-opacity="0" result="BackgroundImageFix"/>
<feColorMatrix in="SourceAlpha" type="matrix" values="0 0 0 0 0 0 0 0 0 0 0 0 0 0 0 0 0 0 127 0" result="hardAlpha"/>
<feOffset/>
<feComposite in2="hardAlpha" operator="out"/>
<feColorMatrix type="matrix" values="0 0 0 0 0.264705 0 0 0 0 0.318651 0 0 0 0 0.804167 0 0 0 0.8 0"/>
<feBlend mode="normal" in2="BackgroundImageFix" result="effect1_dropShadow_17_2039"/>
<feBlend mode="normal" in="SourceGraphic" in2="effect1_dropShadow_17_2039" result="shape"/>
</filter>
</defs>
</svg>
