<svg width="685" height="1199" viewBox="0 0 685 1199" fill="none" xmlns="http://www.w3.org/2000/svg">
<path d="M507.922 160.459L383.843 38.1787L220.077 83.3313L176.466 246.09L295.327 368.525L464.311 323.218L507.922 160.459Z" fill="#F5F5FA" stroke="#553B92" stroke-width="10"/>
<path d="M366.373 103.379L415.042 288.793M366.373 103.379L507.922 160.459M366.373 103.379L383.843 38.1787M366.373 103.379L220.077 83.3313M366.373 103.379L232.482 239.876M415.042 288.793L507.922 160.459M415.042 288.793L232.482 239.876M415.042 288.793L295.327 368.525M415.042 288.793L464.311 323.218M507.922 160.459L383.843 38.1787M507.922 160.459L464.311 323.218M383.843 38.1787L220.077 83.3313M464.311 323.218L295.327 368.525M295.327 368.525L176.466 246.09M295.327 368.525L232.482 239.876M176.466 246.09L220.077 83.3313M176.466 246.09L232.482 239.876M220.077 83.3313L232.482 239.876" stroke="#553B92" stroke-width="10"/>
<circle cx="366.114" cy="104.344" r="9.5" transform="rotate(15 366.114 104.344)" stroke="#553B92" stroke-width="6"/>
<circle cx="414.465" cy="287.087" r="9.5" transform="rotate(15 414.465 287.087)" stroke="#553B92" stroke-width="6"/>
<circle cx="233.837" cy="238.684" r="9.5" transform="rotate(15 233.837 238.684)" stroke="#553B92" stroke-width="6"/>
<g filter="url(#filter0_d_17_455)">
<path d="M316.166 227.1L326.932 186.917C326.506 187.024 325.93 187.112 325.205 187.183C324.531 187.223 323.785 187.288 322.966 187.378C322.158 187.427 321.391 187.486 320.665 187.557C319.951 187.586 319.386 187.634 318.971 187.699L320.859 180.652C321.42 180.537 322.168 180.384 323.102 180.193C324.078 180.012 325.106 179.802 326.187 179.561C327.267 179.321 328.297 179.023 329.276 178.666C330.296 178.321 331.099 177.962 331.685 177.589L339.103 179.577L325.686 229.65L316.166 227.1ZM340.253 233.554L351.02 193.371C350.594 193.478 350.018 193.567 349.293 193.637C348.619 193.678 347.873 193.743 347.054 193.832C346.246 193.881 345.479 193.941 344.753 194.011C344.038 194.04 343.474 194.088 343.059 194.153L344.947 187.106C345.508 186.991 346.255 186.838 347.19 186.647C348.166 186.467 349.194 186.256 350.275 186.016C351.355 185.775 352.385 185.477 353.364 185.121C354.384 184.776 355.187 184.417 355.772 184.043L363.191 186.031L349.774 236.105L340.253 233.554Z" fill="#553B92"/>
</g>
<g opacity="0.7">
<path d="M223.029 216.743L219.84 217.463L209.671 213.7C208.911 213.42 208.187 213.163 207.498 212.929C206.806 212.675 206.121 212.502 205.443 212.409C204.742 212.3 204.031 212.328 203.309 212.491C202.548 212.662 202.006 212.939 201.682 213.319C201.338 213.705 201.228 214.17 201.351 214.716C201.483 215.302 201.75 215.713 202.153 215.95C202.535 216.192 203.003 216.312 203.556 216.31C204.109 216.308 204.698 216.237 205.322 216.096L206.434 215.845L207.432 220.264L206.261 220.528C204.857 220.845 203.56 220.912 202.37 220.73C201.176 220.528 200.171 220.027 199.355 219.227C198.515 218.412 197.921 217.233 197.573 215.692C197.102 213.605 197.294 211.911 198.149 210.611C199.003 209.311 200.416 208.438 202.386 207.994C203.342 207.778 204.263 207.724 205.148 207.831C206.014 207.943 206.883 208.158 207.754 208.474C208.601 208.774 209.486 209.108 210.409 209.473L218.316 212.486L216.725 205.434L220.295 204.628L223.029 216.743Z" fill="#553B92"/>
</g>
<g opacity="0.7">
<path d="M319.673 290.156L311.598 320.293C311.918 320.213 312.35 320.146 312.894 320.093C313.399 320.063 313.959 320.014 314.573 319.947C315.179 319.911 315.754 319.866 316.299 319.813C316.835 319.791 317.258 319.755 317.57 319.706L316.153 324.992C315.733 325.078 315.172 325.193 314.471 325.336C313.739 325.471 312.968 325.629 312.158 325.81C311.347 325.99 310.575 326.214 309.841 326.481C309.076 326.74 308.474 327.009 308.034 327.289L302.47 325.798L312.533 288.243L319.673 290.156Z" fill="#553B92"/>
</g>
<g opacity="0.7">
<path d="M420.543 185.034C419.725 182.709 419.568 180.627 420.074 178.787C420.62 176.966 421.676 175.39 423.243 174.058C424.82 172.756 426.771 171.696 429.095 170.877L442.134 166.286C444.518 165.446 446.757 164.963 448.85 164.836C450.953 164.74 452.798 165.21 454.384 166.246C455.97 167.282 457.226 169.113 458.151 171.739C458.948 174.003 459.218 175.926 458.961 177.509C458.746 179.112 458.05 180.46 456.874 181.552C455.698 182.645 454.099 183.547 452.077 184.259C451.986 184.291 451.88 184.329 451.76 184.371C451.68 184.433 451.595 184.48 451.504 184.512L449.176 177.902C450.716 177.36 451.809 176.805 452.458 176.237C453.106 175.67 453.228 174.813 452.824 173.666C452.569 172.941 452.141 172.447 451.539 172.184C450.948 171.951 450.078 171.936 448.927 172.137C447.818 172.358 446.327 172.798 444.456 173.457L440.698 174.781C441.5 174.939 442.226 175.362 442.875 176.05C443.535 176.767 444.071 177.664 444.484 178.74C445.225 180.65 445.329 182.344 444.797 183.82C444.307 185.316 443.336 186.608 441.887 187.695C440.468 188.771 438.748 189.666 436.725 190.378C434.25 191.25 431.941 191.724 429.796 191.8C427.652 191.877 425.782 191.382 424.185 190.316C422.629 189.269 421.415 187.509 420.543 185.034ZM425.782 183.291C426.048 184.045 426.501 184.513 427.141 184.695C427.793 184.906 428.607 184.908 429.586 184.699C430.574 184.52 431.733 184.197 433.061 183.73C434.329 183.283 435.414 182.85 436.318 182.43C437.263 182.029 437.938 181.537 438.343 180.954C438.748 180.37 438.791 179.625 438.472 178.72C438.323 178.297 438.089 177.922 437.77 177.593C437.492 177.284 437.169 177.041 436.801 176.865C436.464 176.679 436.133 176.558 435.808 176.503L429.968 178.559C429.063 178.878 428.229 179.257 427.467 179.695C426.746 180.152 426.219 180.677 425.884 181.27C425.55 181.862 425.516 182.536 425.782 183.291Z" fill="#553B92"/>
</g>
<g opacity="0.7">
<path d="M447.168 265.512C448.436 264.808 449.558 264.44 450.535 264.407C451.52 264.39 452.398 264.677 453.168 265.267C453.947 265.874 454.65 266.744 455.279 267.877C455.307 267.928 455.335 267.978 455.363 268.029C455.391 268.08 455.419 268.131 455.448 268.181L451.745 270.235C451.267 269.373 450.826 268.777 450.422 268.449C450.002 268.129 449.462 268.152 448.803 268.518C448.397 268.743 448.155 269.043 448.075 269.419C447.996 269.795 448.083 270.31 448.336 270.966C448.59 271.621 449.002 272.464 449.574 273.496L450.742 275.6C450.772 275.097 450.959 274.618 451.303 274.161C451.647 273.705 452.11 273.305 452.693 272.96C453.782 272.333 454.807 272.107 455.766 272.283C456.735 272.475 457.621 272.956 458.424 273.726C459.211 274.506 459.918 275.462 460.546 276.595C461.325 277.998 461.823 279.314 462.04 280.542C462.257 281.77 462.119 282.897 461.626 283.922C461.117 284.956 460.194 285.844 458.859 286.585C457.557 287.307 456.346 287.614 455.225 287.507C454.113 287.416 453.099 286.983 452.183 286.209C451.267 285.435 450.444 284.389 449.712 283.07L445.562 275.589C444.821 274.253 444.307 272.969 444.021 271.735C443.734 270.501 443.819 269.359 444.276 268.31C444.733 267.26 445.697 266.328 447.168 265.512ZM453.262 276.557C452.874 276.773 452.617 277.048 452.493 277.382C452.361 277.742 452.284 278.061 452.261 278.339L454.076 281.611C454.367 282.135 454.676 282.593 455.005 282.986C455.333 283.378 455.682 283.649 456.052 283.798C456.422 283.946 456.818 283.903 457.241 283.669C457.664 283.434 457.905 283.112 457.965 282.703C458.026 282.294 457.953 281.804 457.747 281.233C457.523 280.671 457.206 280.018 456.793 279.274C456.408 278.581 456.041 277.978 455.69 277.465C455.339 276.952 454.978 276.6 454.606 276.408C454.217 276.226 453.77 276.276 453.262 276.557Z" fill="#553B92"/>
</g>
<g opacity="0.7">
<path d="M393.692 316.559L397.385 318.852L400.369 314.045L402.733 315.512L409.945 325.701L407.761 329.218L397.932 323.117L396.986 324.641L394.68 323.209L395.626 321.685L391.933 319.393L393.692 316.559ZM401.195 317.86L399.691 320.283L406.413 324.456L401.195 317.86Z" fill="#553B92"/>
</g>
<g opacity="0.7">
<path d="M238.804 272.098C238.982 273.265 238.87 274.26 238.469 275.081C238.049 275.89 237.412 276.538 236.556 277.026C235.697 277.498 234.684 277.824 233.517 278.002L226.969 279.004C225.772 279.187 224.675 279.215 223.678 279.088C222.679 278.946 221.853 278.561 221.198 277.932C220.543 277.303 220.115 276.329 219.914 275.01C219.74 273.873 219.784 272.944 220.046 272.221C220.29 271.486 220.738 270.913 221.388 270.503C222.039 270.094 222.872 269.811 223.888 269.656C223.933 269.649 223.987 269.641 224.047 269.632C224.09 269.609 224.135 269.595 224.18 269.588L224.688 272.907C223.915 273.026 223.35 273.189 222.995 273.399C222.639 273.608 222.505 274.001 222.593 274.577C222.649 274.941 222.806 275.212 223.066 275.389C223.324 275.551 223.732 275.636 224.292 275.644C224.834 275.638 225.575 275.564 226.514 275.42L228.402 275.132C228.038 274.986 227.734 274.722 227.489 274.34C227.243 273.944 227.07 273.474 226.971 272.93C226.793 271.965 226.894 271.158 227.276 270.511C227.64 269.85 228.212 269.328 228.991 268.945C229.755 268.565 230.645 268.297 231.66 268.142C232.903 267.952 234.033 267.934 235.049 268.089C236.066 268.244 236.902 268.643 237.559 269.287C238.199 269.918 238.614 270.855 238.804 272.098ZM236.182 272.453C236.124 272.074 235.952 271.813 235.667 271.671C235.379 271.513 234.996 271.44 234.516 271.451C234.035 271.447 233.461 271.496 232.794 271.598C232.157 271.695 231.608 271.803 231.145 271.92C230.664 272.025 230.303 272.196 230.06 272.435C229.817 272.674 229.731 273.02 229.8 273.475C229.833 273.687 229.909 273.885 230.031 274.068C230.134 274.238 230.265 274.381 230.422 274.497C230.564 274.615 230.709 274.701 230.857 274.756L233.79 274.308C234.245 274.238 234.671 274.134 235.068 273.996C235.449 273.845 235.744 273.644 235.954 273.395C236.164 273.146 236.24 272.832 236.182 272.453Z" fill="#553B92"/>
</g>
<g opacity="0.7">
<path d="M398.761 107.61L400.221 88.1649C400.034 88.2512 399.777 88.3421 399.448 88.4378C399.142 88.5151 398.804 88.61 398.434 88.7227C398.066 88.8154 397.718 88.9096 397.39 89.0053C397.064 89.081 396.808 89.1521 396.622 89.2184L396.878 85.808C397.127 85.7063 397.458 85.5707 397.871 85.4012C398.305 85.2332 398.76 85.0468 399.237 84.8419C399.714 84.637 400.162 84.41 400.582 84.1607C401.022 83.9129 401.36 83.6776 401.598 83.4548L405.188 83.7244L403.368 107.956L398.761 107.61ZM407.426 108.261L407.671 105L414.245 96.3782C414.735 95.7331 415.192 95.1156 415.617 94.5258C416.063 93.9375 416.429 93.3332 416.716 92.713C417.025 92.0743 417.207 91.386 417.262 90.6481C417.321 89.8703 417.215 89.2707 416.946 88.8494C416.679 88.4081 416.265 88.1665 415.707 88.1245C415.109 88.0796 414.637 88.2147 414.293 88.5298C413.95 88.8249 413.698 89.2372 413.538 89.7667C413.378 90.2962 413.274 90.8801 413.226 91.5183L413.141 92.6551L408.623 92.3158L408.713 91.1192C408.821 89.6832 409.136 88.4233 409.659 87.3394C410.201 86.257 410.975 85.4426 411.978 84.8962C413.004 84.3314 414.304 84.1082 415.879 84.2265C418.013 84.3868 419.577 85.0658 420.57 86.2635C421.563 87.4612 421.984 89.0673 421.833 91.0816C421.759 92.0588 421.542 92.9551 421.18 93.7702C420.819 94.5655 420.36 95.3333 419.803 96.0736C419.268 96.7955 418.69 97.5444 418.07 98.3201L412.875 105L420.085 105.541L419.811 109.191L407.426 108.261Z" fill="#553B92"/>
</g>
<g opacity="0.7">
<path d="M286.012 144.695L279.48 138.399L271.286 146.901L267.104 142.871L256.851 118.924L262.847 112.703L280.231 129.457L282.83 126.761L286.908 130.692L284.31 133.388L290.842 139.683L286.012 144.695ZM271.271 138.754L275.402 134.469L263.512 123.011L271.271 138.754Z" fill="#553B92"/>
</g>
<g opacity="0.7">
<path d="M320.045 82.7968L328.711 65.3286C328.506 65.3382 328.233 65.3256 327.893 65.2909C327.58 65.2471 327.231 65.208 326.846 65.1734C326.47 65.1209 326.112 65.0772 325.772 65.0425C325.441 64.9899 325.177 64.9594 324.98 64.9511L326.5 61.8874C326.769 61.8866 327.126 61.8855 327.574 61.8841C328.039 61.8916 328.531 61.8901 329.049 61.8795C329.568 61.869 330.069 61.8272 330.552 61.7541C331.052 61.69 331.455 61.5993 331.758 61.4821L334.983 63.0821L324.183 84.8501L320.045 82.7968ZM333.85 90.1151C332.542 89.4662 331.591 88.6596 330.998 87.6955C330.405 86.7313 330.124 85.6768 330.156 84.5318C330.198 83.3689 330.525 82.1694 331.138 80.9332L335.978 71.1778C336.609 69.9058 337.366 68.8972 338.25 68.1521C339.142 67.3891 340.151 66.9522 341.278 66.8413C342.404 66.7305 343.64 67.0085 344.983 67.6751C346.309 68.3329 347.26 69.1394 347.835 70.0947C348.428 71.0588 348.691 72.1269 348.623 73.2988C348.564 74.4528 348.219 75.6658 347.588 76.9379L342.748 86.6932C342.134 87.9294 341.377 88.9156 340.476 89.6518C339.584 90.3701 338.575 90.7847 337.448 90.8955C336.321 91.0063 335.122 90.7462 333.85 90.1151ZM335.663 86.4602C336.147 86.7002 336.572 86.7212 336.938 86.5233C337.304 86.3254 337.625 86.0382 337.901 85.6617C338.186 85.2672 338.418 84.8909 338.595 84.5325L343.355 74.9385C343.551 74.5443 343.72 74.1145 343.861 73.6489C344.021 73.1923 344.069 72.7583 344.005 72.3471C343.95 71.9179 343.672 71.5789 343.17 71.33C342.668 71.0811 342.221 71.0601 341.828 71.2671C341.462 71.465 341.136 71.7612 340.851 72.1556C340.584 72.5589 340.353 72.9576 340.157 73.3518L335.397 82.9459C335.22 83.3042 335.06 83.7161 334.918 84.1817C334.785 84.6293 334.76 85.0632 334.842 85.4833C334.924 85.9034 335.197 86.2291 335.663 86.4602Z" fill="#553B92"/>
</g>
<g filter="url(#filter1_ddddd_17_455)">
<rect x="199" y="446.887" width="287" height="56" rx="7.62745" fill="#4414AA"/>
</g>
<path d="M302.632 492V457.052H311.692C314.051 457.052 316.064 457.326 317.733 457.872C319.43 458.39 320.724 459.325 321.616 460.677C322.536 462.028 322.996 463.898 322.996 466.285C322.996 467.724 322.867 469.004 322.608 470.125C322.378 471.218 321.947 472.182 321.314 473.016C320.71 473.821 319.847 474.469 318.725 474.958L323.557 492H316.266L312.253 476.166H309.751V492H302.632ZM309.751 471.937H311.822C312.972 471.937 313.878 471.751 314.54 471.377C315.201 471.003 315.662 470.442 315.921 469.694C316.208 468.917 316.352 467.968 316.352 466.846C316.352 465.236 316.05 464.013 315.446 463.179C314.871 462.316 313.778 461.885 312.167 461.885H309.751V471.937ZM337.284 492.475C334.724 492.475 332.696 492.014 331.2 491.094C329.705 490.174 328.626 488.865 327.964 487.168C327.332 485.442 327.015 483.385 327.015 480.998V467.968C327.015 465.581 327.332 463.539 327.964 461.842C328.626 460.144 329.705 458.85 331.2 457.958C332.696 457.067 334.724 456.621 337.284 456.621C339.873 456.621 341.915 457.081 343.41 458.002C344.935 458.893 346.014 460.188 346.646 461.885C347.308 463.553 347.639 465.581 347.639 467.968V480.998C347.639 483.385 347.308 485.442 346.646 487.168C346.014 488.865 344.935 490.174 343.41 491.094C341.915 492.014 339.873 492.475 337.284 492.475ZM337.284 487.34C338.204 487.34 338.88 487.139 339.312 486.736C339.743 486.305 340.031 485.744 340.175 485.054C340.318 484.335 340.39 483.572 340.39 482.767V466.242C340.39 465.437 340.318 464.689 340.175 463.999C340.031 463.308 339.743 462.762 339.312 462.359C338.88 461.928 338.204 461.712 337.284 461.712C336.421 461.712 335.774 461.928 335.342 462.359C334.911 462.762 334.623 463.308 334.479 463.999C334.336 464.689 334.264 465.437 334.264 466.242V482.767C334.264 483.572 334.321 484.335 334.436 485.054C334.58 485.744 334.868 486.305 335.299 486.736C335.731 487.139 336.392 487.34 337.284 487.34ZM352.392 492V457.052H359.511V487.168H367.709V492H352.392ZM371.057 492V457.052H378.176V487.168H386.374V492H371.057Z" fill="#F5F5FA"/>
<defs>
<filter id="filter0_d_17_455" x="308.933" y="175.088" width="54.2578" height="61.0168" filterUnits="userSpaceOnUse" color-interpolation-filters="sRGB">
<feFlood flood-opacity="0" result="BackgroundImageFix"/>
<feColorMatrix in="SourceAlpha" type="matrix" values="0 0 0 0 0 0 0 0 0 0 0 0 0 0 0 0 0 0 127 0" result="hardAlpha"/>
<feOffset/>
<feComposite in2="hardAlpha" operator="out"/>
<feColorMatrix type="matrix" values="0 0 0 0 0.264705 0 0 0 0 0.318651 0 0 0 0 0.804167 0 0 0 0.8 0"/>
<feBlend mode="normal" in2="BackgroundImageFix" result="effect1_dropShadow_17_455"/>
<feBlend mode="normal" in="SourceGraphic" in2="effect1_dropShadow_17_455" result="shape"/>
</filter>
<filter id="filter1_ddddd_17_455" x="0" y="409.887" width="685" height="789" filterUnits="userSpaceOnUse" color-interpolation-filters="sRGB">
<feFlood flood-opacity="0" result="BackgroundImageFix"/>
<feColorMatrix in="SourceAlpha" type="matrix" values="0 0 0 0 0 0 0 0 0 0 0 0 0 0 0 0 0 0 127 0" result="hardAlpha"/>
<feOffset/>
<feColorMatrix type="matrix" values="0 0 0 0 0 0 0 0 0 0 0 0 0 0 0 0 0 0 0.1 0"/>
<feBlend mode="normal" in2="BackgroundImageFix" result="effect1_dropShadow_17_455"/>
<feColorMatrix in="SourceAlpha" type="matrix" values="0 0 0 0 0 0 0 0 0 0 0 0 0 0 0 0 0 0 127 0" result="hardAlpha"/>
<feOffset dy="31"/>
<feGaussianBlur stdDeviation="34"/>
<feColorMatrix type="matrix" values="0 0 0 0 0 0 0 0 0 0 0 0 0 0 0 0 0 0 0.1 0"/>
<feBlend mode="normal" in2="effect1_dropShadow_17_455" result="effect2_dropShadow_17_455"/>
<feColorMatrix in="SourceAlpha" type="matrix" values="0 0 0 0 0 0 0 0 0 0 0 0 0 0 0 0 0 0 127 0" result="hardAlpha"/>
<feOffset dy="124"/>
<feGaussianBlur stdDeviation="62"/>
<feColorMatrix type="matrix" values="0 0 0 0 0 0 0 0 0 0 0 0 0 0 0 0 0 0 0.09 0"/>
<feBlend mode="normal" in2="effect2_dropShadow_17_455" result="effect3_dropShadow_17_455"/>
<feColorMatrix in="SourceAlpha" type="matrix" values="0 0 0 0 0 0 0 0 0 0 0 0 0 0 0 0 0 0 127 0" result="hardAlpha"/>
<feOffset dy="280"/>
<feGaussianBlur stdDeviation="84"/>
<feColorMatrix type="matrix" values="0 0 0 0 0 0 0 0 0 0 0 0 0 0 0 0 0 0 0.05 0"/>
<feBlend mode="normal" in2="effect3_dropShadow_17_455" result="effect4_dropShadow_17_455"/>
<feColorMatrix in="SourceAlpha" type="matrix" values="0 0 0 0 0 0 0 0 0 0 0 0 0 0 0 0 0 0 127 0" result="hardAlpha"/>
<feOffset dy="497"/>
<feGaussianBlur stdDeviation="99.5"/>
<feColorMatrix type="matrix" values="0 0 0 0 0 0 0 0 0 0 0 0 0 0 0 0 0 0 0.01 0"/>
<feBlend mode="normal" in2="effect4_dropShadow_17_455" result="effect5_dropShadow_17_455"/>
<feBlend mode="normal" in="SourceGraphic" in2="effect5_dropShadow_17_455" result="shape"/>
</filter>
</defs>
</svg>
