<svg width="685" height="1199" viewBox="0 0 685 1199" fill="none" xmlns="http://www.w3.org/2000/svg">
<path d="M507.922 160.459L383.843 38.1787L220.077 83.3313L176.466 246.09L295.327 368.525L464.311 323.218L507.922 160.459Z" fill="#F5F5FA" stroke="#553B92" stroke-width="10"/>
<path d="M366.373 103.379L415.042 288.793M366.373 103.379L507.922 160.459M366.373 103.379L383.843 38.1787M366.373 103.379L220.077 83.3313M366.373 103.379L232.482 239.876M415.042 288.793L507.922 160.459M415.042 288.793L232.482 239.876M415.042 288.793L295.327 368.525M415.042 288.793L464.311 323.218M507.922 160.459L383.843 38.1787M507.922 160.459L464.311 323.218M383.843 38.1787L220.077 83.3313M464.311 323.218L295.327 368.525M295.327 368.525L176.466 246.09M295.327 368.525L232.482 239.876M176.466 246.09L220.077 83.3313M176.466 246.09L232.482 239.876M220.077 83.3313L232.482 239.876" stroke="#553B92" stroke-width="10"/>
<circle cx="366.114" cy="104.344" r="9.5" transform="rotate(15 366.114 104.344)" stroke="#553B92" stroke-width="6"/>
<circle cx="414.465" cy="287.087" r="9.5" transform="rotate(15 414.465 287.087)" stroke="#553B92" stroke-width="6"/>
<circle cx="233.837" cy="238.684" r="9.5" transform="rotate(15 233.837 238.684)" stroke="#553B92" stroke-width="6"/>
<g filter="url(#filter0_d_17_683)">
<path d="M318.194 227.643L319.999 220.905L337.197 205.437C338.479 204.279 339.683 203.165 340.808 202.098C341.975 201.041 342.982 199.919 343.83 198.733C344.73 197.517 345.384 196.146 345.793 194.621C346.224 193.014 346.24 191.715 345.843 190.725C345.457 189.694 344.687 189.024 343.533 188.715C342.296 188.384 341.255 188.48 340.407 189.004C339.571 189.487 338.881 190.251 338.335 191.298C337.79 192.344 337.34 193.527 336.987 194.846L336.357 197.195L327.023 194.693L327.685 192.221C328.48 189.253 329.64 186.737 331.166 184.672C332.732 182.618 334.675 181.218 336.996 180.47C339.369 179.692 342.183 179.74 345.439 180.612C349.849 181.794 352.857 183.837 354.464 186.741C356.071 189.645 356.317 193.178 355.202 197.341C354.661 199.36 353.849 201.153 352.767 202.718C351.696 204.242 350.43 205.67 348.969 207.001C347.56 208.302 346.053 209.643 344.446 211.023L330.909 222.967L345.808 226.959L343.787 234.501L318.194 227.643Z" fill="#553B92"/>
</g>
<g opacity="0.7">
<path d="M223.69 219.669L204.668 223.963C204.806 224.116 204.968 224.336 205.155 224.622C205.319 224.892 205.509 225.188 205.725 225.508C205.921 225.833 206.113 226.138 206.3 226.424C206.468 226.714 206.611 226.938 206.729 227.096L203.393 227.849C203.223 227.641 202.996 227.364 202.713 227.018C202.426 226.653 202.114 226.272 201.779 225.876C201.443 225.48 201.095 225.118 200.734 224.789C200.368 224.441 200.044 224.186 199.762 224.025L198.969 220.513L222.673 215.163L223.69 219.669ZM220.573 204.36C220.912 205.863 220.858 207.167 220.41 208.272C219.939 209.363 219.168 210.265 218.099 210.977C217.025 211.671 215.737 212.187 214.235 212.526L205.807 214.429C204.266 214.776 202.841 214.914 201.533 214.84C200.22 214.747 199.109 214.321 198.2 213.562C197.29 212.804 196.644 211.576 196.261 209.879C195.931 208.416 195.903 207.202 196.177 206.238C196.428 205.259 196.958 204.473 197.767 203.88C198.577 203.287 199.635 202.843 200.942 202.548C201 202.535 201.069 202.52 201.147 202.502C201.201 202.469 201.257 202.446 201.316 202.433L202.28 206.706C201.285 206.93 200.566 207.195 200.122 207.5C199.678 207.805 199.54 208.329 199.708 209.07C199.813 209.538 200.043 209.876 200.398 210.083C200.747 210.271 201.287 210.344 202.016 210.302C202.72 210.246 203.678 210.081 204.887 209.808L207.316 209.26C206.83 209.103 206.41 208.787 206.057 208.314C205.699 207.82 205.432 207.224 205.254 206.527C204.933 205.287 204.991 204.228 205.429 203.35C205.842 202.457 206.538 201.726 207.517 201.156C208.476 200.591 209.609 200.161 210.916 199.866C212.516 199.505 213.984 199.379 215.321 199.487C216.657 199.596 217.783 200.039 218.696 200.817C219.586 201.579 220.212 202.761 220.573 204.36ZM217.194 205.061C217.084 204.574 216.837 204.25 216.452 204.091C216.063 203.912 215.558 203.852 214.935 203.911C214.308 203.95 213.566 204.066 212.707 204.26C211.888 204.445 211.183 204.635 210.591 204.83C209.976 205.01 209.521 205.266 209.227 205.599C208.933 205.932 208.852 206.391 208.984 206.976C209.046 207.249 209.164 207.499 209.338 207.727C209.489 207.939 209.671 208.113 209.887 208.249C210.082 208.389 210.279 208.488 210.477 208.546L214.252 207.694C214.837 207.562 215.382 207.388 215.887 207.171C216.367 206.94 216.733 206.652 216.984 206.308C217.234 205.965 217.304 205.549 217.194 205.061Z" fill="#553B92"/>
</g>
<g opacity="0.7">
<path d="M339.765 295.54L338.411 300.593L325.513 312.194C324.551 313.063 323.648 313.898 322.804 314.699C321.929 315.491 321.174 316.332 320.538 317.222C319.863 318.134 319.372 319.162 319.065 320.306C318.742 321.512 318.73 322.486 319.028 323.228C319.318 324.001 319.895 324.504 320.761 324.736C321.688 324.984 322.469 324.912 323.105 324.519C323.732 324.157 324.25 323.584 324.659 322.799C325.068 322.014 325.405 321.127 325.67 320.138L326.142 318.376L333.143 320.252L332.646 322.106C332.05 324.332 331.18 326.219 330.036 327.768C328.861 329.308 327.404 330.359 325.663 330.919C323.884 331.503 321.773 331.467 319.331 330.813C316.024 329.927 313.767 328.394 312.562 326.216C311.357 324.038 311.172 321.388 312.009 318.266C312.415 316.752 313.023 315.407 313.835 314.233C314.638 313.09 315.588 312.02 316.683 311.021C317.74 310.045 318.871 309.04 320.076 308.004L330.228 299.047L319.054 296.053L320.57 290.396L339.765 295.54ZM305.775 285.736C308.031 286.341 309.777 287.306 311.012 288.63C312.247 289.955 313.02 291.521 313.332 293.327C313.634 295.164 313.5 297.149 312.929 299.281L308.419 316.112C307.831 318.306 306.962 320.127 305.812 321.575C304.654 323.054 303.209 324.058 301.477 324.588C299.745 325.117 297.719 325.072 295.401 324.451C293.114 323.838 291.368 322.873 290.164 321.556C288.929 320.232 288.179 318.639 287.915 316.78C287.643 314.951 287.801 312.939 288.39 310.745L292.899 293.915C293.471 291.782 294.347 289.996 295.528 288.556C296.7 287.148 298.152 286.179 299.885 285.649C301.617 285.119 303.58 285.148 305.775 285.736ZM304.085 292.042C303.25 291.818 302.577 291.919 302.066 292.346C301.554 292.772 301.141 293.324 300.827 294.001C300.504 294.71 300.26 295.373 300.095 295.992L295.66 312.544C295.477 313.224 295.349 313.951 295.274 314.726C295.168 315.493 295.23 316.189 295.46 316.814C295.682 317.469 296.225 317.913 297.091 318.145C297.956 318.377 298.664 318.268 299.215 317.82C299.727 317.394 300.144 316.826 300.466 316.118C300.758 315.401 300.995 314.702 301.177 314.022L305.612 297.47C305.778 296.852 305.898 296.155 305.973 295.38C306.04 294.636 305.943 293.948 305.682 293.315C305.421 292.681 304.889 292.257 304.085 292.042Z" fill="#553B92"/>
</g>
<g opacity="0.7">
<path d="M415.963 170.438L445.392 160.074C445.145 159.856 444.846 159.537 444.495 159.118C444.185 158.718 443.828 158.284 443.426 157.815C443.053 157.336 442.692 156.886 442.34 156.467C442.019 156.037 441.751 155.708 441.534 155.479L446.696 153.661C447.004 153.96 447.416 154.358 447.93 154.855C448.455 155.382 449.021 155.93 449.628 156.496C450.234 157.063 450.855 157.574 451.49 158.028C452.136 158.514 452.699 158.858 453.178 159.063L455.091 164.496L418.419 177.41L415.963 170.438ZM423.498 193.568C422.648 191.153 422.435 189.056 422.861 187.278C423.316 185.489 424.293 183.975 425.79 182.735C427.298 181.526 429.153 180.533 431.357 179.757C432.353 179.406 433.32 179.167 434.259 179.04C435.199 178.913 436.094 178.903 436.946 179.01C437.798 179.117 438.586 179.332 439.31 179.653C440.075 179.995 440.766 180.464 441.383 181.061C441.757 179.81 442.46 178.578 443.492 177.366C444.565 176.174 446.107 175.207 448.119 174.465C450.13 173.723 451.983 173.443 453.676 173.627C455.399 173.801 456.898 174.443 458.172 175.556C459.445 176.668 460.444 178.25 461.166 180.302C461.9 182.385 462.113 184.244 461.807 185.878C461.511 187.543 460.741 188.968 459.495 190.153C458.28 191.327 456.657 192.255 454.624 192.937C452.561 193.63 450.737 193.847 449.154 193.591C447.612 193.354 446.313 192.844 445.257 192.062C445.15 192.914 444.9 193.698 444.508 194.413C444.156 195.148 443.681 195.823 443.084 196.441C442.487 197.058 441.783 197.611 440.972 198.101C440.171 198.62 439.272 199.055 438.276 199.406C436.094 200.242 434.026 200.632 432.072 200.573C430.128 200.545 428.418 199.977 426.942 198.868C425.507 197.779 424.359 196.012 423.498 193.568ZM428.704 191.734C429.013 192.609 429.543 193.152 430.296 193.362C431.048 193.572 431.883 193.583 432.801 193.396C433.719 193.208 434.585 192.971 435.4 192.684C436.377 192.374 437.291 191.984 438.143 191.514C439.006 191.075 439.65 190.543 440.075 189.918C440.5 189.294 440.558 188.544 440.249 187.668C439.952 186.823 439.437 186.275 438.704 186.024C437.981 185.804 437.141 185.778 436.182 185.945C435.264 186.133 434.308 186.402 433.311 186.753C432.497 187.04 431.658 187.403 430.795 187.843C429.962 188.272 429.318 188.804 428.863 189.439C428.449 190.094 428.396 190.859 428.704 191.734ZM445.954 185.659C446.167 186.263 446.563 186.666 447.143 186.869C447.734 187.102 448.484 187.16 449.393 187.044C450.302 186.927 451.33 186.667 452.477 186.263C453.775 185.806 454.742 185.228 455.378 184.529C456.054 183.85 456.233 183.057 455.915 182.152C455.596 181.246 454.949 180.711 453.975 180.545C453.041 180.399 451.94 180.549 450.673 180.995C449.526 181.399 448.541 181.831 447.719 182.29C446.938 182.769 446.39 183.284 446.075 183.836C445.771 184.418 445.731 185.026 445.954 185.659Z" fill="#553B92"/>
</g>
<g opacity="0.7">
<path d="M455.099 261.477L464.244 277.96C464.349 277.791 464.509 277.581 464.723 277.329C464.929 277.104 465.152 276.848 465.391 276.561C465.639 276.291 465.87 276.03 466.084 275.778C466.308 275.544 466.477 275.35 466.592 275.198L468.195 278.089C468.049 278.303 467.853 278.588 467.609 278.945C467.348 279.311 467.079 279.703 466.803 280.122C466.526 280.541 466.285 280.962 466.078 281.386C465.854 281.82 465.706 282.19 465.632 282.496L462.589 284.184L451.194 263.643L455.099 261.477ZM442.082 268.3C443.435 267.55 444.662 267.212 445.764 267.285C446.876 267.376 447.876 267.805 448.766 268.572C449.639 269.348 450.417 270.353 451.102 271.587C451.412 272.145 451.652 272.697 451.822 273.244C451.993 273.79 452.089 274.323 452.111 274.841C452.134 275.359 452.085 275.85 451.967 276.314C451.841 276.804 451.631 277.263 451.338 277.691C452.121 277.787 452.925 278.082 453.751 278.574C454.57 279.093 455.302 279.914 455.947 281.037C456.592 282.161 456.945 283.236 457.007 284.263C457.078 285.307 456.846 286.265 456.312 287.136C455.778 288.007 454.937 288.761 453.787 289.399C452.621 290.046 451.535 290.361 450.53 290.343C449.509 290.335 448.582 290.02 447.751 289.398C446.929 288.793 446.212 287.919 445.6 286.777C444.98 285.618 444.666 284.554 444.659 283.585C444.644 282.643 444.817 281.817 445.176 281.11C444.657 281.132 444.165 281.062 443.7 280.9C443.227 280.765 442.776 280.55 442.348 280.257C441.92 279.964 441.519 279.6 441.146 279.166C440.756 278.742 440.406 278.251 440.096 277.693C439.378 276.477 438.937 275.285 438.775 274.115C438.595 272.954 438.761 271.878 439.272 270.887C439.776 269.922 440.713 269.06 442.082 268.3ZM443.7 271.216C443.21 271.488 442.94 271.859 442.891 272.328C442.842 272.798 442.919 273.297 443.124 273.824C443.328 274.352 443.557 274.844 443.81 275.301C444.093 275.851 444.418 276.356 444.784 276.817C445.133 277.286 445.515 277.616 445.93 277.806C446.345 277.996 446.797 277.955 447.287 277.683C447.761 277.42 448.035 277.058 448.111 276.596C448.169 276.144 448.1 275.64 447.903 275.086C447.699 274.558 447.442 274.016 447.132 273.458C446.879 273.001 446.578 272.538 446.229 272.069C445.889 271.616 445.507 271.286 445.083 271.079C444.651 270.899 444.19 270.944 443.7 271.216ZM449.06 280.878C448.722 281.066 448.522 281.343 448.46 281.709C448.38 282.084 448.422 282.537 448.583 283.066C448.744 283.596 449.003 284.182 449.359 284.825C449.762 285.552 450.204 286.069 450.685 286.377C451.158 286.712 451.648 286.738 452.155 286.457C452.662 286.176 452.916 285.737 452.916 285.139C452.909 284.568 452.709 283.928 452.315 283.218C451.958 282.576 451.602 282.033 451.245 281.589C450.881 281.172 450.519 280.898 450.159 280.766C449.781 280.644 449.415 280.681 449.06 280.878Z" fill="#553B92"/>
</g>
<g opacity="0.7">
<path d="M394.514 315.235L407.216 323.119C407.223 322.962 407.253 322.754 407.304 322.497C407.36 322.262 407.415 321.998 407.47 321.707C407.537 321.424 407.597 321.154 407.648 320.897C407.712 320.648 407.754 320.449 407.775 320.299L410.003 321.682C409.984 321.887 409.959 322.16 409.927 322.502C409.888 322.856 409.853 323.232 409.824 323.628C409.794 324.025 409.789 324.41 409.81 324.784C409.823 325.171 409.863 325.484 409.93 325.725L408.474 328.069L392.646 318.244L394.514 315.235Z" fill="#553B92"/>
</g>
<g opacity="0.7">
<path d="M239.689 279.563L224.911 281.823C225.008 281.948 225.12 282.125 225.248 282.353C225.358 282.569 225.488 282.805 225.635 283.062C225.768 283.321 225.898 283.565 226.026 283.793C226.139 284.024 226.237 284.203 226.318 284.33L223.726 284.727C223.607 284.559 223.449 284.335 223.251 284.055C223.051 283.76 222.833 283.452 222.598 283.131C222.363 282.81 222.116 282.514 221.857 282.244C221.596 281.958 221.362 281.745 221.155 281.606L220.738 278.878L239.154 276.062L239.689 279.563ZM238.197 267.677C238.366 268.784 238.279 269.736 237.936 270.533C237.592 271.33 237.054 271.971 236.322 272.455C235.574 272.941 234.677 273.265 233.632 273.425L225.378 274.687C224.302 274.851 223.336 274.821 222.479 274.595C221.608 274.371 220.889 273.931 220.323 273.273C219.757 272.615 219.387 271.717 219.213 270.58C219.041 269.459 219.129 268.507 219.474 267.725C219.818 266.928 220.372 266.293 221.137 265.819C221.887 265.347 222.8 265.029 223.877 264.865L232.13 263.603C233.176 263.443 234.128 263.483 234.987 263.724C235.831 263.968 236.536 264.418 237.102 265.076C237.667 265.734 238.033 266.601 238.197 267.677ZM235.105 268.15C235.043 267.741 234.869 267.465 234.583 267.323C234.298 267.18 233.976 267.105 233.618 267.098C233.245 267.093 232.907 267.114 232.604 267.16L224.487 268.401C224.154 268.452 223.81 268.536 223.455 268.652C223.098 268.753 222.805 268.914 222.575 269.136C222.33 269.359 222.24 269.683 222.305 270.108C222.37 270.532 222.554 270.822 222.857 270.977C223.142 271.12 223.472 271.193 223.845 271.198C224.215 271.188 224.567 271.158 224.901 271.107L233.018 269.866C233.321 269.819 233.649 269.738 234.004 269.622C234.343 269.508 234.627 269.333 234.854 269.096C235.082 268.86 235.166 268.544 235.105 268.15Z" fill="#553B92"/>
</g>
<g opacity="0.7">
<path d="M407.143 107.057C405.448 106.93 404.175 106.524 403.324 105.838C402.473 105.152 401.92 104.238 401.664 103.096C401.429 101.955 401.368 100.637 401.48 99.1412L405.938 99.4759C405.872 100.353 405.866 101.095 405.921 101.701C405.996 102.308 406.161 102.772 406.418 103.092C406.695 103.414 407.123 103.586 407.703 103.61C408.283 103.633 408.718 103.445 409.009 103.046C409.3 102.647 409.504 102.06 409.622 101.287C409.741 100.514 409.839 99.5985 409.919 98.5414C409.983 97.6838 409.99 96.9222 409.94 96.2566C409.89 95.591 409.729 95.0574 409.458 94.656C409.208 94.2561 408.783 94.0337 408.185 93.9888C407.646 93.9484 407.183 94.1041 406.796 94.4561C406.428 94.8096 406.139 95.3293 405.927 96.0154L401.978 95.7188L403.34 81.9823L414.469 82.818L414.17 86.7968L406.841 86.2464L406.169 91.5811C406.431 91.2999 406.85 91.0706 407.425 90.8932C408.019 90.7172 408.647 90.634 409.309 90.6436C410.574 90.6182 411.593 90.9355 412.366 91.5952C413.159 92.2564 413.71 93.1903 414.021 94.397C414.333 95.5837 414.426 97.0147 414.3 98.69C414.204 99.9664 414.035 101.147 413.793 102.232C413.553 103.297 413.173 104.211 412.655 104.974C412.138 105.718 411.434 106.277 410.543 106.651C409.653 107.025 408.519 107.161 407.143 107.057Z" fill="#553B92"/>
</g>
<g opacity="0.7">
<path d="M275.337 155.772L252.871 134.121C252.787 134.439 252.636 134.85 252.419 135.351C252.201 135.808 251.973 136.322 251.735 136.892C251.473 137.44 251.234 137.965 251.017 138.467C250.777 138.946 250.603 139.334 250.495 139.63L246.555 135.833C246.683 135.423 246.854 134.877 247.068 134.194C247.304 133.488 247.539 132.737 247.773 131.941C248.007 131.144 248.185 130.36 248.307 129.589C248.451 128.794 248.506 128.136 248.474 127.616L252.471 123.469L280.466 150.449L275.337 155.772ZM284.985 145.761L281.217 142.13L277.307 125.229C277.012 123.967 276.718 122.773 276.426 121.647C276.156 120.498 275.785 119.43 275.315 118.442C274.843 117.41 274.181 116.483 273.328 115.662C272.43 114.796 271.583 114.313 270.789 114.215C269.972 114.094 269.253 114.356 268.631 115.001C267.965 115.693 267.65 116.411 267.687 117.158C267.7 117.881 267.951 118.612 268.44 119.35C268.929 120.088 269.542 120.812 270.279 121.523L271.593 122.788L266.563 128.007L265.181 126.675C263.522 125.076 262.291 123.402 261.489 121.651C260.71 119.878 260.496 118.094 260.848 116.299C261.198 114.46 262.251 112.63 264.005 110.81C266.381 108.344 268.814 107.111 271.303 107.11C273.793 107.11 276.201 108.231 278.528 110.473C279.657 111.562 280.539 112.745 281.174 114.023C281.785 115.279 282.263 116.628 282.606 118.07C282.949 119.467 283.282 120.943 283.605 122.499L286.53 135.718L294.558 127.389L298.774 131.452L284.985 145.761Z" fill="#553B92"/>
</g>
<g opacity="0.7">
<path d="M320.512 82.85L329.179 65.3818C328.973 65.3914 328.7 65.3788 328.36 65.3441C328.047 65.3003 327.698 65.2611 327.313 65.2266C326.938 65.1741 326.58 65.1304 326.24 65.0957C325.909 65.0431 325.645 65.0126 325.448 65.0042L326.968 61.9406C327.236 61.9398 327.594 61.9387 328.041 61.9373C328.506 61.9448 328.998 61.9433 329.517 61.9327C330.036 61.9222 330.536 61.8804 331.019 61.8073C331.52 61.7432 331.922 61.6525 332.226 61.5353L335.451 63.1353L324.651 84.9033L320.512 82.85ZM333.78 89.9016C332.257 89.146 331.23 88.2905 330.7 87.3351C330.169 86.3797 330 85.3248 330.193 84.1704C330.405 83.0249 330.843 81.7803 331.51 80.4366L335.514 82.4232C335.123 83.2115 334.839 83.8967 334.662 84.4786C334.503 85.0694 334.482 85.5614 334.6 85.9546C334.735 86.3567 335.067 86.6776 335.595 86.9175C336.124 87.1574 336.598 87.147 337.017 86.8863C337.437 86.6256 337.847 86.1592 338.247 85.4872C338.648 84.8151 339.084 84.0043 339.555 83.0547C339.937 82.2843 340.23 81.5813 340.434 80.9456C340.637 80.31 340.689 79.7553 340.589 79.2815C340.508 78.8167 340.198 78.4509 339.66 78.1842C339.177 77.9442 338.689 77.9144 338.198 78.0948C337.724 78.2841 337.26 78.6568 336.806 79.2127L333.258 77.4527L339.687 65.2373L349.685 70.1973L347.911 73.7715L341.327 70.5049L338.699 75.1953C339.047 75.0333 339.521 74.9781 340.12 75.0299C340.738 75.0906 341.351 75.2497 341.96 75.5072C343.142 75.9598 343.967 76.637 344.435 77.5389C344.92 78.4497 345.08 79.5225 344.914 80.7574C344.757 81.9743 344.305 83.3352 343.558 84.8402C342.989 85.9868 342.389 87.0173 341.757 87.9315C341.133 88.8279 340.438 89.5322 339.67 90.0444C338.911 90.5386 338.049 90.7918 337.083 90.8037C336.117 90.8156 335.016 90.5149 333.78 89.9016Z" fill="#553B92"/>
</g>
<g filter="url(#filter1_ddddd_17_683)">
<rect x="199" y="446.887" width="287" height="56" rx="7.62745" fill="#4414AA"/>
</g>
<path d="M302.632 492V457.052H311.692C314.051 457.052 316.064 457.326 317.733 457.872C319.43 458.39 320.724 459.325 321.616 460.677C322.536 462.028 322.996 463.898 322.996 466.285C322.996 467.724 322.867 469.004 322.608 470.125C322.378 471.218 321.947 472.182 321.314 473.016C320.71 473.821 319.847 474.469 318.725 474.958L323.557 492H316.266L312.253 476.166H309.751V492H302.632ZM309.751 471.937H311.822C312.972 471.937 313.878 471.751 314.54 471.377C315.201 471.003 315.662 470.442 315.921 469.694C316.208 468.917 316.352 467.968 316.352 466.846C316.352 465.236 316.05 464.013 315.446 463.179C314.871 462.316 313.778 461.885 312.167 461.885H309.751V471.937ZM337.284 492.475C334.724 492.475 332.696 492.014 331.2 491.094C329.705 490.174 328.626 488.865 327.964 487.168C327.332 485.442 327.015 483.385 327.015 480.998V467.968C327.015 465.581 327.332 463.539 327.964 461.842C328.626 460.144 329.705 458.85 331.2 457.958C332.696 457.067 334.724 456.621 337.284 456.621C339.873 456.621 341.915 457.081 343.41 458.002C344.935 458.893 346.014 460.188 346.646 461.885C347.308 463.553 347.639 465.581 347.639 467.968V480.998C347.639 483.385 347.308 485.442 346.646 487.168C346.014 488.865 344.935 490.174 343.41 491.094C341.915 492.014 339.873 492.475 337.284 492.475ZM337.284 487.34C338.204 487.34 338.88 487.139 339.312 486.736C339.743 486.305 340.031 485.744 340.175 485.054C340.318 484.335 340.39 483.572 340.39 482.767V466.242C340.39 465.437 340.318 464.689 340.175 463.999C340.031 463.308 339.743 462.762 339.312 462.359C338.88 461.928 338.204 461.712 337.284 461.712C336.421 461.712 335.774 461.928 335.342 462.359C334.911 462.762 334.623 463.308 334.479 463.999C334.336 464.689 334.264 465.437 334.264 466.242V482.767C334.264 483.572 334.321 484.335 334.436 485.054C334.58 485.744 334.868 486.305 335.299 486.736C335.731 487.139 336.392 487.34 337.284 487.34ZM352.392 492V457.052H359.511V487.168H367.709V492H352.392ZM371.057 492V457.052H378.176V487.168H386.374V492H371.057Z" fill="#F5F5FA"/>
<defs>
<filter id="filter0_d_17_683" x="318.194" y="176.951" width="40.5361" height="57.9141" filterUnits="userSpaceOnUse" color-interpolation-filters="sRGB">
<feFlood flood-opacity="0" result="BackgroundImageFix"/>
<feColorMatrix in="SourceAlpha" type="matrix" values="0 0 0 0 0 0 0 0 0 0 0 0 0 0 0 0 0 0 127 0" result="hardAlpha"/>
<feOffset/>
<feComposite in2="hardAlpha" operator="out"/>
<feColorMatrix type="matrix" values="0 0 0 0 0.264705 0 0 0 0 0.318651 0 0 0 0 0.804167 0 0 0 0.8 0"/>
<feBlend mode="normal" in2="BackgroundImageFix" result="effect1_dropShadow_17_683"/>
<feBlend mode="normal" in="SourceGraphic" in2="effect1_dropShadow_17_683" result="shape"/>
</filter>
<filter id="filter1_ddddd_17_683" x="0" y="409.887" width="685" height="789" filterUnits="userSpaceOnUse" color-interpolation-filters="sRGB">
<feFlood flood-opacity="0" result="BackgroundImageFix"/>
<feColorMatrix in="SourceAlpha" type="matrix" values="0 0 0 0 0 0 0 0 0 0 0 0 0 0 0 0 0 0 127 0" result="hardAlpha"/>
<feOffset/>
<feColorMatrix type="matrix" values="0 0 0 0 0 0 0 0 0 0 0 0 0 0 0 0 0 0 0.1 0"/>
<feBlend mode="normal" in2="BackgroundImageFix" result="effect1_dropShadow_17_683"/>
<feColorMatrix in="SourceAlpha" type="matrix" values="0 0 0 0 0 0 0 0 0 0 0 0 0 0 0 0 0 0 127 0" result="hardAlpha"/>
<feOffset dy="31"/>
<feGaussianBlur stdDeviation="34"/>
<feColorMatrix type="matrix" values="0 0 0 0 0 0 0 0 0 0 0 0 0 0 0 0 0 0 0.1 0"/>
<feBlend mode="normal" in2="effect1_dropShadow_17_683" result="effect2_dropShadow_17_683"/>
<feColorMatrix in="SourceAlpha" type="matrix" values="0 0 0 0 0 0 0 0 0 0 0 0 0 0 0 0 0 0 127 0" result="hardAlpha"/>
<feOffset dy="124"/>
<feGaussianBlur stdDeviation="62"/>
<feColorMatrix type="matrix" values="0 0 0 0 0 0 0 0 0 0 0 0 0 0 0 0 0 0 0.09 0"/>
<feBlend mode="normal" in2="effect2_dropShadow_17_683" result="effect3_dropShadow_17_683"/>
<feColorMatrix in="SourceAlpha" type="matrix" values="0 0 0 0 0 0 0 0 0 0 0 0 0 0 0 0 0 0 127 0" result="hardAlpha"/>
<feOffset dy="280"/>
<feGaussianBlur stdDeviation="84"/>
<feColorMatrix type="matrix" values="0 0 0 0 0 0 0 0 0 0 0 0 0 0 0 0 0 0 0.05 0"/>
<feBlend mode="normal" in2="effect3_dropShadow_17_683" result="effect4_dropShadow_17_683"/>
<feColorMatrix in="SourceAlpha" type="matrix" values="0 0 0 0 0 0 0 0 0 0 0 0 0 0 0 0 0 0 127 0" result="hardAlpha"/>
<feOffset dy="497"/>
<feGaussianBlur stdDeviation="99.5"/>
<feColorMatrix type="matrix" values="0 0 0 0 0 0 0 0 0 0 0 0 0 0 0 0 0 0 0.01 0"/>
<feBlend mode="normal" in2="effect4_dropShadow_17_683" result="effect5_dropShadow_17_683"/>
<feBlend mode="normal" in="SourceGraphic" in2="effect5_dropShadow_17_683" result="shape"/>
</filter>
</defs>
</svg>
