<svg width="378" height="642" viewBox="0 0 378 642" fill="none" xmlns="http://www.w3.org/2000/svg">
<path d="M354.922 160.459L230.843 38.1787L67.0765 83.3313L23.4655 246.09L142.327 368.525L311.311 323.218L354.922 160.459Z" fill="#F5F5FA" stroke="#553B92" stroke-width="10"/>
<path d="M213.373 103.379L262.042 288.793M213.373 103.379L354.922 160.459M213.373 103.379L230.843 38.1787M213.373 103.379L67.0765 83.3313M213.373 103.379L79.4824 239.876M262.042 288.793L354.922 160.459M262.042 288.793L79.4824 239.876M262.042 288.793L142.327 368.525M262.042 288.793L311.311 323.218M354.922 160.459L230.843 38.1787M354.922 160.459L311.311 323.218M230.843 38.1787L67.0765 83.3313M311.311 323.218L142.327 368.525M142.327 368.525L23.4655 246.09M142.327 368.525L79.4824 239.876M23.4655 246.09L67.0765 83.3313M23.4655 246.09L79.4824 239.876M67.0765 83.3313L79.4824 239.876" stroke="#553B92" stroke-width="10"/>
<circle cx="213.114" cy="104.344" r="9.5" transform="rotate(15 213.114 104.344)" stroke="#553B92" stroke-width="6"/>
<circle cx="261.465" cy="287.087" r="9.5" transform="rotate(15 261.465 287.087)" stroke="#553B92" stroke-width="6"/>
<circle cx="80.8369" cy="238.684" r="9.5" transform="rotate(15 80.8369 238.684)" stroke="#553B92" stroke-width="6"/>
<g filter="url(#filter0_d_17_1084)">
<path d="M178.41 231.979C175.113 231.096 172.646 229.75 171.011 227.943C169.386 226.094 168.455 223.879 168.219 221.298C168.024 218.728 168.33 215.939 169.136 212.93C169.501 211.57 169.967 210.326 170.534 209.197C171.102 208.068 171.765 207.075 172.525 206.218C173.284 205.362 174.114 204.657 175.013 204.102C175.965 203.518 177.002 203.111 178.123 202.882C177.028 201.528 176.203 199.827 175.647 197.779C175.144 195.701 175.242 193.275 175.941 190.503C176.639 187.731 177.728 185.483 179.206 183.758C180.695 181.993 182.531 180.828 184.713 180.265C186.896 179.701 189.389 179.795 192.191 180.546C195.035 181.308 197.241 182.473 198.808 184.041C200.417 185.621 201.404 187.542 201.77 189.804C202.146 192.025 201.944 194.511 201.163 197.261C200.371 200.053 199.237 202.223 197.762 203.771C196.339 205.289 194.8 206.334 193.145 206.907C194.002 207.666 194.676 208.532 195.166 209.502C195.709 210.443 196.096 211.474 196.325 212.596C196.555 213.717 196.633 214.909 196.56 216.17C196.528 217.443 196.33 218.759 195.966 220.119C195.242 223.15 194.112 225.718 192.576 227.824C191.081 229.942 189.168 231.395 186.836 232.183C184.557 232.942 181.748 232.874 178.41 231.979ZM180.315 224.87C181.51 225.19 182.506 225.016 183.304 224.346C184.102 223.676 184.744 222.766 185.229 221.615C185.714 220.464 186.105 219.332 186.404 218.22C186.798 216.912 187.058 215.612 187.183 214.32C187.35 213.04 187.249 211.931 186.882 210.993C186.515 210.056 185.734 209.427 184.539 209.106C183.385 208.797 182.394 208.951 181.566 209.569C180.779 210.197 180.117 211.102 179.58 212.283C179.094 213.434 178.67 214.69 178.305 216.05C178.007 217.162 177.775 218.359 177.608 219.64C177.453 220.879 177.553 221.988 177.909 222.967C178.318 223.916 179.12 224.55 180.315 224.87ZM186.626 201.317C187.45 201.538 188.192 201.406 188.853 200.92C189.554 200.445 190.183 199.664 190.739 198.576C191.296 197.489 191.784 196.162 192.204 194.596C192.678 192.824 192.771 191.324 192.481 190.098C192.243 188.842 191.506 188.048 190.27 187.717C189.034 187.386 187.957 187.693 187.041 188.641C186.177 189.558 185.513 190.881 185.049 192.612C184.629 194.178 184.363 195.587 184.248 196.837C184.186 198.057 184.341 199.048 184.711 199.81C185.122 200.583 185.76 201.085 186.626 201.317Z" fill="#553B92"/>
</g>
<g opacity="0.7">
<path d="M70.3596 218.206L51.3381 222.5C51.4753 222.653 51.6377 222.873 51.8252 223.159C51.9888 223.429 52.1785 223.725 52.3943 224.045C52.5906 224.37 52.7825 224.675 52.9701 224.961C53.1381 225.251 53.2809 225.475 53.3986 225.633L50.0625 226.386C49.8926 226.178 49.6661 225.901 49.3829 225.555C49.0953 225.19 48.7839 224.809 48.4485 224.413C48.1131 224.017 47.7648 223.655 47.4036 223.326C47.038 222.978 46.7139 222.724 46.4313 222.562L45.6387 219.05L69.3423 213.7L70.3596 218.206ZM68.2481 208.852L46.8747 208.448L48.3345 214.916L44.8814 215.695L42.4241 204.809L45.409 204.135L67.2573 204.463L68.2481 208.852Z" fill="#553B92"/>
</g>
<g opacity="0.7">
<path d="M186.765 295.539L185.411 300.593L172.513 312.194C171.551 313.063 170.648 313.898 169.804 314.698C168.929 315.491 168.174 316.332 167.538 317.222C166.863 318.134 166.372 319.162 166.065 320.306C165.742 321.511 165.73 322.485 166.028 323.228C166.318 324.001 166.895 324.504 167.761 324.736C168.688 324.984 169.469 324.912 170.105 324.519C170.732 324.157 171.25 323.583 171.659 322.798C172.068 322.014 172.405 321.127 172.67 320.138L173.142 318.376L180.143 320.252L179.646 322.106C179.05 324.332 178.18 326.219 177.036 327.768C175.861 329.308 174.404 330.359 172.663 330.919C170.884 331.502 168.773 331.467 166.331 330.813C163.024 329.926 160.767 328.394 159.562 326.216C158.357 324.038 158.172 321.388 159.009 318.266C159.415 316.751 160.023 315.407 160.835 314.233C161.638 313.09 162.588 312.019 163.683 311.021C164.74 310.045 165.871 309.04 167.076 308.004L177.228 299.047L166.054 296.053L167.57 290.396L186.765 295.539ZM152.775 285.736C155.031 286.341 156.777 287.305 158.012 288.63C159.247 289.955 160.02 291.52 160.332 293.327C160.634 295.164 160.5 297.148 159.929 299.281L155.419 316.111C154.831 318.306 153.962 320.127 152.812 321.575C151.654 323.054 150.209 324.058 148.477 324.587C146.745 325.117 144.719 325.071 142.401 324.45C140.114 323.837 138.368 322.873 137.164 321.556C135.929 320.231 135.179 318.639 134.915 316.779C134.643 314.951 134.801 312.939 135.39 310.745L139.899 293.914C140.471 291.782 141.347 289.995 142.528 288.556C143.7 287.147 145.152 286.178 146.885 285.649C148.617 285.119 150.58 285.148 152.775 285.736ZM151.085 292.042C150.25 291.818 149.577 291.919 149.066 292.345C148.554 292.771 148.141 293.323 147.827 294.001C147.504 294.71 147.26 295.373 147.095 295.991L142.66 312.544C142.477 313.224 142.349 313.951 142.274 314.726C142.168 315.493 142.23 316.188 142.46 316.813C142.682 317.469 143.225 317.913 144.091 318.145C144.956 318.377 145.664 318.268 146.215 317.82C146.727 317.393 147.144 316.826 147.466 316.117C147.758 315.4 147.995 314.702 148.177 314.022L152.612 297.47C152.778 296.852 152.898 296.155 152.973 295.38C153.04 294.636 152.943 293.947 152.682 293.314C152.421 292.681 151.889 292.257 151.085 292.042Z" fill="#553B92"/>
</g>
<g opacity="0.7">
<path d="M262.797 169.966L292.226 159.603C291.979 159.384 291.68 159.066 291.329 158.646C291.019 158.247 290.662 157.813 290.26 157.344C289.887 156.864 289.525 156.415 289.174 155.996C288.853 155.566 288.585 155.237 288.368 155.007L293.53 153.19C293.838 153.488 294.25 153.886 294.764 154.383C295.289 154.911 295.855 155.458 296.462 156.025C297.068 156.591 297.689 157.102 298.324 157.557C298.97 158.042 299.533 158.387 300.012 158.591L301.925 164.024L265.253 176.939L262.797 169.966ZM270.6 193.714C269.782 191.39 269.625 189.308 270.131 187.467C270.677 185.647 271.733 184.07 273.3 182.738C274.877 181.436 276.828 180.376 279.152 179.558L292.191 174.966C294.575 174.126 296.814 173.643 298.907 173.517C301.01 173.421 302.855 173.891 304.441 174.927C306.027 175.963 307.283 177.794 308.208 180.419C309.005 182.683 309.275 184.607 309.018 186.19C308.802 187.792 308.107 189.14 306.931 190.233C305.755 191.325 304.156 192.228 302.134 192.94C302.043 192.972 301.937 193.009 301.817 193.051C301.737 193.114 301.652 193.161 301.561 193.192L299.233 186.582C300.773 186.04 301.866 185.485 302.515 184.918C303.163 184.35 303.285 183.493 302.881 182.346C302.626 181.622 302.198 181.128 301.596 180.865C301.005 180.632 300.135 180.616 298.984 180.818C297.875 181.039 296.384 181.479 294.513 182.138L290.755 183.461C291.557 183.62 292.283 184.043 292.932 184.73C293.592 185.448 294.128 186.344 294.541 187.42C295.282 189.331 295.386 191.024 294.854 192.501C294.364 193.997 293.393 195.288 291.944 196.375C290.525 197.452 288.805 198.346 286.782 199.058C284.307 199.93 281.998 200.404 279.853 200.481C277.709 200.557 275.838 200.063 274.242 198.996C272.686 197.95 271.472 196.189 270.6 193.714ZM275.839 191.971C276.105 192.726 276.558 193.194 277.198 193.375C277.85 193.587 278.664 193.588 279.643 193.38C280.631 193.201 281.79 192.878 283.118 192.41C284.386 191.964 285.471 191.53 286.375 191.11C287.32 190.71 287.995 190.218 288.4 189.634C288.805 189.05 288.848 188.306 288.529 187.4C288.38 186.978 288.146 186.602 287.827 186.274C287.549 185.964 287.226 185.722 286.858 185.546C286.521 185.359 286.19 185.238 285.865 185.183L280.025 187.24C279.119 187.559 278.286 187.937 277.524 188.375C276.803 188.833 276.276 189.358 275.941 189.95C275.607 190.543 275.573 191.216 275.839 191.971Z" fill="#553B92"/>
</g>
<g opacity="0.7">
<path opacity="0.6" d="M302.099 261.476L311.244 277.96C311.349 277.791 311.509 277.581 311.723 277.329C311.929 277.104 312.152 276.848 312.391 276.561C312.639 276.29 312.87 276.029 313.084 275.778C313.308 275.543 313.477 275.35 313.592 275.198L315.195 278.089C315.049 278.303 314.853 278.588 314.609 278.945C314.348 279.311 314.079 279.703 313.803 280.122C313.526 280.54 313.285 280.962 313.078 281.386C312.854 281.82 312.706 282.189 312.632 282.496L309.589 284.184L298.194 263.643L302.099 261.476ZM289.082 268.3C290.435 267.55 291.662 267.211 292.764 267.285C293.876 267.376 294.876 267.805 295.766 268.571C296.639 269.347 297.417 270.353 298.102 271.587C298.412 272.145 298.652 272.697 298.822 273.243C298.993 273.79 299.089 274.322 299.111 274.841C299.134 275.359 299.085 275.85 298.967 276.314C298.841 276.804 298.631 277.263 298.338 277.691C299.121 277.787 299.925 278.081 300.751 278.574C301.57 279.093 302.302 279.914 302.947 281.037C303.592 282.16 303.945 283.236 304.007 284.263C304.078 285.307 303.846 286.264 303.312 287.135C302.778 288.006 301.937 288.761 300.787 289.399C299.621 290.046 298.535 290.36 297.53 290.343C296.509 290.335 295.582 290.02 294.751 289.398C293.929 288.793 293.212 287.919 292.6 286.777C291.98 285.618 291.666 284.554 291.659 283.585C291.644 282.642 291.817 281.817 292.176 281.109C291.657 281.132 291.165 281.062 290.7 280.9C290.227 280.765 289.776 280.55 289.348 280.257C288.92 279.964 288.519 279.6 288.146 279.166C287.756 278.742 287.406 278.25 287.096 277.692C286.378 276.477 285.937 275.284 285.775 274.114C285.595 272.954 285.761 271.878 286.272 270.887C286.776 269.922 287.713 269.06 289.082 268.3ZM290.7 271.216C290.21 271.488 289.94 271.859 289.891 272.328C289.842 272.798 289.919 273.296 290.124 273.824C290.328 274.352 290.557 274.844 290.81 275.3C291.093 275.851 291.418 276.356 291.784 276.816C292.133 277.286 292.515 277.616 292.93 277.806C293.345 277.996 293.797 277.955 294.287 277.683C294.761 277.42 295.035 277.058 295.111 276.596C295.169 276.143 295.1 275.64 294.903 275.086C294.699 274.558 294.442 274.015 294.132 273.457C293.879 273.001 293.578 272.538 293.229 272.068C292.889 271.616 292.507 271.286 292.083 271.079C291.651 270.898 291.19 270.944 290.7 271.216ZM296.06 280.878C295.722 281.065 295.522 281.342 295.46 281.708C295.38 282.084 295.422 282.537 295.583 283.066C295.744 283.596 296.003 284.182 296.359 284.824C296.762 285.551 297.204 286.069 297.685 286.377C298.158 286.712 298.648 286.738 299.155 286.457C299.662 286.176 299.916 285.736 299.916 285.139C299.909 284.568 299.709 283.928 299.315 283.218C298.958 282.575 298.602 282.032 298.245 281.589C297.881 281.172 297.519 280.898 297.159 280.766C296.781 280.644 296.415 280.681 296.06 280.878Z" fill="#553B92"/>
</g>
<g opacity="0.7">
<path d="M240.692 316.559L244.385 318.852L247.369 314.045L249.733 315.512L256.945 325.701L254.761 329.218L244.932 323.117L243.986 324.641L241.68 323.209L242.626 321.685L238.933 319.393L240.692 316.559ZM248.195 317.86L246.691 320.283L253.413 324.456L248.195 317.86Z" fill="#553B92"/>
</g>
<g opacity="0.7">
<path d="M86.6136 279.069L71.8354 281.329C71.9321 281.454 72.0444 281.63 72.1724 281.859C72.283 282.075 72.4122 282.311 72.56 282.568C72.6927 282.826 72.823 283.07 72.951 283.299C73.0639 283.53 73.1611 283.709 73.2426 283.836L70.6507 284.232C70.5319 284.064 70.3736 283.84 70.1757 283.56C69.9754 283.265 69.7577 282.957 69.5225 282.637C69.2873 282.316 69.0404 282.02 68.7819 281.749C68.521 281.463 68.2869 281.251 68.0795 281.112L67.6623 278.384L86.0783 275.568L86.6136 279.069ZM85.6067 272.484L83.1285 272.863L75.5546 269.437C74.9883 269.182 74.4482 268.947 73.9343 268.731C73.4181 268.5 72.9035 268.33 72.3907 268.222C71.8604 268.102 71.3148 268.084 70.754 268.17C70.1629 268.261 69.7331 268.443 69.4647 268.716C69.1812 268.992 69.0719 269.343 69.1368 269.767C69.2063 270.222 69.3884 270.551 69.6832 270.754C69.9628 270.959 70.3142 271.076 70.7373 271.104C71.1605 271.133 71.6146 271.11 72.0996 271.036L72.9635 270.904L73.4885 274.337L72.5791 274.476C71.4878 274.643 70.4922 274.624 69.5924 274.421C68.6903 274.202 67.9487 273.765 67.3676 273.109C66.769 272.44 66.3781 271.507 66.195 270.31C65.947 268.688 66.1849 267.403 66.9085 266.455C67.6321 265.507 68.7594 264.915 70.2903 264.681C71.033 264.568 71.74 264.576 72.4114 264.706C73.0676 264.838 73.7202 265.049 74.3693 265.337C75.0009 265.613 75.6599 265.915 76.3462 266.245L82.2314 268.975L81.3936 263.495L84.1673 263.071L85.6067 272.484Z" fill="#553B92"/>
</g>
<g opacity="0.7">
<path d="M246.687 107.388L248.147 87.9428C247.96 88.0291 247.703 88.12 247.374 88.2157C247.068 88.293 246.73 88.3879 246.36 88.5006C245.992 88.5933 245.644 88.6875 245.316 88.7832C244.99 88.8589 244.734 88.93 244.548 88.9963L244.804 85.5859C245.053 85.4842 245.384 85.3486 245.797 85.1791C246.231 85.0111 246.687 84.8247 247.163 84.6198C247.64 84.4149 248.088 84.1879 248.508 83.9386C248.948 83.6908 249.286 83.4555 249.524 83.2327L253.114 83.5023L251.294 107.734L246.687 107.388ZM256.249 108.106L262.89 87.7864L256.278 87.2899L256.543 83.7599L267.672 84.5956L267.443 87.647L260.737 108.443L256.249 108.106Z" fill="#553B92"/>
</g>
<g opacity="0.7">
<path d="M121.643 156.492L99.1776 134.841C99.093 135.159 98.9422 135.57 98.7251 136.071C98.5072 136.528 98.2791 137.041 98.0407 137.612C97.7792 138.16 97.5399 138.685 97.3229 139.186C97.0828 139.666 96.9089 140.054 96.8012 140.35L92.8612 136.553C92.9894 136.143 93.1604 135.597 93.3741 134.914C93.61 134.208 93.8451 133.457 94.0793 132.661C94.3135 131.864 94.4914 131.08 94.613 130.308C94.7567 129.514 94.8125 128.856 94.7802 128.336L98.7773 124.189L126.772 151.169L121.643 156.492ZM139.469 138.963C137.848 140.645 136.159 141.706 134.402 142.146C132.645 142.586 130.9 142.505 129.169 141.903C127.415 141.279 125.743 140.201 124.153 138.669L111.607 126.578C109.972 125.001 108.798 123.36 108.088 121.653C107.354 119.924 107.175 118.173 107.55 116.401C107.924 114.629 108.944 112.879 110.61 111.151C112.253 109.446 113.942 108.385 115.677 107.968C117.434 107.528 119.19 107.643 120.945 108.312C122.677 108.959 124.361 110.071 125.997 111.647L138.543 123.738C140.133 125.271 141.272 126.902 141.96 128.632C142.625 130.339 142.77 132.079 142.396 133.851C142.021 135.623 141.046 137.327 139.469 138.963ZM134.768 134.433C135.368 133.811 135.605 133.173 135.48 132.519C135.355 131.865 135.072 131.237 134.63 130.634C134.166 130.009 133.704 129.474 133.243 129.03L120.904 117.139C120.397 116.65 119.823 116.186 119.181 115.745C118.562 115.281 117.923 114.999 117.265 114.898C116.583 114.774 115.932 115.035 115.31 115.681C114.688 116.326 114.441 116.998 114.567 117.697C114.692 118.351 114.987 118.991 115.451 119.616C115.937 120.218 116.434 120.763 116.941 121.252L129.279 133.143C129.74 133.587 130.291 134.03 130.933 134.47C131.552 134.889 132.202 135.137 132.882 135.215C133.562 135.293 134.191 135.032 134.768 134.433Z" fill="#553B92"/>
</g>
<g opacity="0.7">
<path d="M175.56 85.3665C174.109 84.6465 173.086 83.8044 172.493 82.8403C171.926 81.8671 171.7 80.7945 171.812 79.6224C171.934 78.4325 172.315 77.1925 172.955 75.9025L173.341 75.1232L177.48 77.1765C177.462 77.2124 177.413 77.3109 177.333 77.4721C177.262 77.6155 177.191 77.7588 177.12 77.9021C176.791 78.6097 176.556 79.2187 176.414 79.7289C176.3 80.2302 176.31 80.6595 176.445 81.0168C176.58 81.3742 176.881 81.6684 177.347 81.8995C177.831 82.1395 178.247 82.2009 178.595 82.0835C178.952 81.9482 179.292 81.6699 179.612 81.2485C179.933 80.8272 180.262 80.2761 180.6 79.5953C181.142 78.5024 181.399 77.5803 181.37 76.8291C181.349 76.0599 180.86 75.4264 179.901 74.9285C179.883 74.9196 179.794 74.8752 179.632 74.7952C179.471 74.7152 179.319 74.6396 179.176 74.5685L180.696 71.5048C180.803 71.5582 180.911 71.6115 181.018 71.6648C181.144 71.7271 181.251 71.7804 181.341 71.8248C182.308 72.3048 183.091 72.3695 183.689 72.0188C184.305 71.677 184.889 70.9507 185.44 69.8399C185.867 68.98 186.075 68.2459 186.064 67.6377C186.053 67.0295 185.707 66.5565 185.026 66.2188C184.345 65.881 183.764 65.9275 183.283 66.3583C182.801 66.7891 182.342 67.4211 181.906 68.2543C181.835 68.3976 181.755 68.5589 181.666 68.738C181.586 68.8993 181.506 69.0605 181.426 69.2218L177.288 67.1684L177.875 65.986C178.506 64.7139 179.272 63.7545 180.173 63.1077C181.084 62.443 182.084 62.0911 183.175 62.052C184.266 62.0128 185.43 62.2999 186.666 62.9132C187.902 63.5266 188.848 64.275 189.504 65.1584C190.16 66.0419 190.498 67.0247 190.519 68.1069C190.559 69.198 190.263 70.3796 189.631 71.6516C189 72.9237 188.207 73.8474 187.252 74.4228C186.315 75.007 185.403 75.2245 184.517 75.0752C184.966 75.521 185.294 76.0522 185.501 76.6687C185.709 77.2852 185.756 78.0006 185.642 78.8149C185.537 79.6113 185.231 80.5201 184.725 81.5413C184.076 82.8492 183.31 83.9204 182.427 84.755C181.553 85.5716 180.544 86.0532 179.399 86.1999C178.255 86.3465 176.975 86.0687 175.56 85.3665Z" fill="#553B92"/>
</g>
<defs>
<filter id="filter0_d_17_1084" x="164.995" y="176.951" width="40.7349" height="58.6558" filterUnits="userSpaceOnUse" color-interpolation-filters="sRGB">
<feFlood flood-opacity="0" result="BackgroundImageFix"/>
<feColorMatrix in="SourceAlpha" type="matrix" values="0 0 0 0 0 0 0 0 0 0 0 0 0 0 0 0 0 0 127 0" result="hardAlpha"/>
<feOffset/>
<feComposite in2="hardAlpha" operator="out"/>
<feColorMatrix type="matrix" values="0 0 0 0 0.264705 0 0 0 0 0.318651 0 0 0 0 0.804167 0 0 0 0.8 0"/>
<feBlend mode="normal" in2="BackgroundImageFix" result="effect1_dropShadow_17_1084"/>
<feBlend mode="normal" in="SourceGraphic" in2="effect1_dropShadow_17_1084" result="shape"/>
</filter>
</defs>
</svg>
