<svg width="378" height="642" viewBox="0 0 378 642" fill="none" xmlns="http://www.w3.org/2000/svg">
<path d="M354.922 160.459L230.843 38.1787L67.0765 83.3313L23.4655 246.09L142.327 368.525L311.311 323.218L354.922 160.459Z" fill="#F5F5FA" stroke="#553B92" stroke-width="10"/>
<path d="M213.373 103.379L262.042 288.793M213.373 103.379L354.922 160.459M213.373 103.379L230.843 38.1787M213.373 103.379L67.0765 83.3313M213.373 103.379L79.4824 239.876M262.042 288.793L354.922 160.459M262.042 288.793L79.4824 239.876M262.042 288.793L142.327 368.525M262.042 288.793L311.311 323.218M354.922 160.459L230.843 38.1787M354.922 160.459L311.311 323.218M230.843 38.1787L67.0765 83.3313M311.311 323.218L142.327 368.525M142.327 368.525L23.4655 246.09M142.327 368.525L79.4824 239.876M23.4655 246.09L67.0765 83.3313M23.4655 246.09L79.4824 239.876M67.0765 83.3313L79.4824 239.876" stroke="#553B92" stroke-width="10"/>
<circle cx="213.114" cy="104.344" r="9.5" transform="rotate(15 213.114 104.344)" stroke="#553B92" stroke-width="6"/>
<circle cx="261.465" cy="287.087" r="9.5" transform="rotate(15 261.465 287.087)" stroke="#553B92" stroke-width="6"/>
<circle cx="80.8369" cy="238.684" r="9.5" transform="rotate(15 80.8369 238.684)" stroke="#553B92" stroke-width="6"/>
<g filter="url(#filter0_d_17_1198)">
<path d="M158.819 225.935L169.586 185.752C169.16 185.859 168.584 185.948 167.858 186.018C167.185 186.059 166.438 186.124 165.619 186.213C164.811 186.262 164.044 186.321 163.319 186.392C162.604 186.421 162.039 186.469 161.624 186.534L163.512 179.487C164.073 179.372 164.821 179.219 165.756 179.028C166.732 178.848 167.76 178.637 168.84 178.397C169.921 178.156 170.95 177.858 171.929 177.502C172.949 177.157 173.752 176.798 174.338 176.424L181.756 178.412L168.339 228.486L158.819 225.935ZM189.957 235.007C186.866 234.179 184.521 233.042 182.92 231.598C181.33 230.112 180.378 228.31 180.061 226.194C179.756 224.036 179.973 221.576 180.713 218.815C180.746 218.691 180.779 218.568 180.813 218.444C180.846 218.32 180.879 218.197 180.912 218.073L189.938 220.491C189.374 222.593 189.161 224.215 189.297 225.355C189.474 226.507 190.366 227.298 191.974 227.729C192.963 227.994 193.808 227.889 194.51 227.415C195.211 226.94 195.863 225.988 196.467 224.56C197.071 223.132 197.709 221.16 198.383 218.646L199.758 213.515C198.938 214.267 197.905 214.742 196.66 214.938C195.415 215.135 194.065 215.06 192.612 214.715C189.922 214.038 187.95 212.825 186.696 211.076C185.453 209.285 184.785 207.162 184.692 204.708C184.64 202.265 184.984 199.662 185.724 196.901C186.64 193.48 187.868 190.629 189.407 188.347C190.946 186.065 192.893 184.488 195.246 183.617C197.641 182.757 200.467 182.763 203.722 183.635C206.896 184.486 209.289 185.856 210.903 187.746C212.528 189.595 213.474 191.836 213.74 194.469C214.006 197.103 213.708 200.026 212.847 203.241L207.96 221.478C207.088 224.734 205.933 227.56 204.496 229.958C203.058 232.356 201.172 234.037 198.837 235.001C196.503 235.966 193.543 235.968 189.957 235.007ZM197.225 208.132C198.173 208.386 199.001 208.343 199.711 208.003C200.473 207.633 201.084 207.245 201.547 206.839L203.684 198.864C204.026 197.587 204.238 196.384 204.319 195.258C204.4 194.131 204.261 193.166 203.902 192.363C203.542 191.56 202.848 191.021 201.817 190.745C200.787 190.469 199.91 190.609 199.187 191.166C198.463 191.723 197.827 192.613 197.279 193.835C196.772 195.069 196.275 196.592 195.789 198.405C195.337 200.095 194.995 201.616 194.766 202.968C194.536 204.32 194.569 205.433 194.865 206.307C195.202 207.193 195.988 207.801 197.225 208.132Z" fill="#553B92"/>
</g>
<g opacity="0.7">
<path d="M68.8254 209.91C69.1645 211.413 69.1103 212.717 68.6628 213.822C68.1913 214.913 67.421 215.815 66.3517 216.527C65.278 217.221 63.9901 217.737 62.4879 218.076L54.0599 219.979C52.5187 220.327 51.0939 220.464 49.7856 220.39C48.4728 220.297 47.3618 219.871 46.4525 219.112C45.5432 218.354 44.897 217.126 44.5139 215.429C44.1836 213.966 44.1557 212.752 44.4301 211.788C44.6807 210.809 45.2106 210.023 46.02 209.43C46.8293 208.837 47.8876 208.393 49.1947 208.098C49.2532 208.085 49.3215 208.07 49.3995 208.052C49.4536 208.019 49.51 207.996 49.5685 207.983L50.5329 212.256C49.5379 212.48 48.8186 212.745 48.3749 213.05C47.9312 213.356 47.793 213.879 47.9604 214.62C48.0661 215.088 48.296 215.426 48.6503 215.633C49.0002 215.821 49.5395 215.894 50.2683 215.852C50.9731 215.796 51.9303 215.631 53.1399 215.358L55.5688 214.81C55.0823 214.653 54.6626 214.337 54.3096 213.864C53.9522 213.37 53.6845 212.774 53.5064 212.077C53.1856 210.837 53.2439 209.778 53.6813 208.9C54.0949 208.007 54.7909 207.276 55.7696 206.706C56.7287 206.141 57.8618 205.711 59.1689 205.416C60.7687 205.055 62.2369 204.929 63.5735 205.037C64.9102 205.146 66.0354 205.589 66.9491 206.367C67.8389 207.129 68.4643 208.311 68.8254 209.91ZM65.4469 210.612C65.3368 210.124 65.0895 209.8 64.705 209.641C64.3161 209.462 63.8104 209.402 63.188 209.461C62.5612 209.5 61.8186 209.616 60.9602 209.81C60.1409 209.995 59.4354 210.185 58.8438 210.38C58.2283 210.56 57.7736 210.816 57.4797 211.149C57.1858 211.482 57.1049 211.941 57.237 212.526C57.2986 212.799 57.4166 213.049 57.5909 213.277C57.7413 213.489 57.9241 213.663 58.1393 213.799C58.335 213.939 58.5317 214.038 58.7293 214.096L62.5043 213.244C63.0896 213.112 63.6346 212.938 64.1393 212.721C64.6201 212.49 64.9858 212.202 65.2363 211.859C65.4868 211.515 65.557 211.099 65.4469 210.612Z" fill="#553B92"/>
</g>
<g opacity="0.7">
<path d="M166.673 290.156L158.598 320.293C158.918 320.213 159.35 320.147 159.894 320.094C160.399 320.063 160.959 320.014 161.573 319.947C162.179 319.911 162.754 319.866 163.299 319.813C163.835 319.791 164.258 319.756 164.57 319.707L163.153 324.992C162.733 325.078 162.172 325.193 161.471 325.336C160.739 325.472 159.968 325.629 159.158 325.81C158.347 325.99 157.575 326.214 156.841 326.481C156.076 326.74 155.474 327.009 155.034 327.289L149.47 325.798L159.533 288.243L166.673 290.156Z" fill="#553B92"/>
</g>
<g opacity="0.7">
<path d="M262.963 170.438L292.392 160.074C292.145 159.856 291.846 159.537 291.495 159.118C291.185 158.718 290.828 158.284 290.426 157.815C290.053 157.336 289.692 156.886 289.34 156.467C289.019 156.037 288.751 155.708 288.534 155.479L293.696 153.661C294.004 153.96 294.416 154.358 294.93 154.855C295.455 155.382 296.021 155.93 296.628 156.496C297.234 157.063 297.855 157.574 298.49 158.028C299.136 158.514 299.699 158.858 300.178 159.063L302.091 164.496L265.419 177.41L262.963 170.438ZM271.296 194.101L279.853 191.087L275.931 179.95L281.409 178.02L307.411 179.602L310.281 187.751L287.507 195.771L288.751 199.302L283.409 201.183L282.165 197.652L273.608 200.665L271.296 194.101ZM283.219 183.592L285.196 189.206L300.77 183.721L283.219 183.592Z" fill="#553B92"/>
</g>
<g opacity="0.7">
<path d="M306.384 259.1L307.917 261.864L307.184 272.319C307.131 273.1 307.09 273.842 307.059 274.544C307.012 275.256 307.037 275.938 307.134 276.592C307.224 277.272 307.442 277.924 307.789 278.55C308.155 279.209 308.558 279.638 309 279.835C309.45 280.049 309.912 280.025 310.385 279.763C310.893 279.481 311.202 279.122 311.313 278.684C311.433 278.264 311.417 277.797 311.266 277.285C311.114 276.772 310.888 276.245 310.588 275.704L310.053 274.74L313.882 272.616L314.445 273.63C315.12 274.848 315.535 276.033 315.688 277.186C315.824 278.348 315.632 279.417 315.111 280.391C314.583 281.391 313.651 282.262 312.316 283.003C310.507 284.007 308.883 284.288 307.445 283.848C306.007 283.408 304.814 282.334 303.867 280.626C303.407 279.798 303.107 278.958 302.967 278.108C302.836 277.274 302.799 276.41 302.856 275.516C302.905 274.649 302.974 273.737 303.063 272.781L303.713 264.627L297.602 268.018L295.885 264.924L306.384 259.1ZM287.501 269.111C288.735 268.426 289.899 268.112 290.991 268.169C292.084 268.226 293.077 268.582 293.971 269.236C294.874 269.907 295.649 270.826 296.296 271.992L301.403 281.197C302.069 282.398 302.456 283.554 302.564 284.666C302.682 285.794 302.475 286.837 301.945 287.795C301.415 288.752 300.516 289.582 299.248 290.286C297.997 290.98 296.834 291.294 295.758 291.227C294.665 291.17 293.671 290.793 292.775 290.096C291.889 289.416 291.114 288.475 290.448 287.275L285.341 278.07C284.694 276.903 284.324 275.759 284.233 274.638C284.151 273.534 284.375 272.503 284.905 271.546C285.435 270.589 286.301 269.777 287.501 269.111ZM289.414 272.56C288.958 272.813 288.708 273.14 288.664 273.54C288.621 273.94 288.673 274.353 288.821 274.779C288.979 275.222 289.151 275.613 289.339 275.951L294.361 285.004C294.568 285.376 294.817 285.746 295.11 286.115C295.386 286.492 295.705 286.768 296.067 286.943C296.439 287.135 296.861 287.1 297.335 286.837C297.808 286.574 298.07 286.23 298.121 285.804C298.165 285.404 298.108 284.982 297.95 284.539C297.776 284.105 297.585 283.702 297.379 283.33L292.357 274.277C292.169 273.939 291.929 273.586 291.636 273.217C291.353 272.866 291.022 272.608 290.642 272.442C290.263 272.277 289.854 272.316 289.414 272.56Z" fill="#553B92"/>
</g>
<g opacity="0.7">
<path d="M244.942 309.712L257.644 317.597C257.651 317.439 257.681 317.232 257.732 316.975C257.788 316.739 257.843 316.476 257.898 316.184C257.965 315.901 258.025 315.631 258.076 315.375C258.14 315.126 258.182 314.926 258.203 314.777L260.431 316.16C260.412 316.364 260.387 316.638 260.355 316.979C260.316 317.333 260.281 317.709 260.252 318.106C260.222 318.502 260.217 318.888 260.238 319.261C260.251 319.648 260.291 319.962 260.358 320.202L258.902 322.547L243.074 312.722L244.942 309.712ZM238.411 319.753C239.034 318.75 239.765 318.067 240.604 317.703C241.448 317.361 242.354 317.283 243.322 317.468C244.281 317.667 245.263 318.077 246.266 318.7L251.894 322.194C252.923 322.832 253.775 323.524 254.45 324.268C255.117 325.025 255.495 325.855 255.584 326.758C255.673 327.662 255.366 328.68 254.662 329.814C254.056 330.791 253.418 331.469 252.75 331.848C252.086 332.248 251.374 332.393 250.613 332.281C249.852 332.17 249.035 331.843 248.162 331.301C248.123 331.277 248.078 331.249 248.026 331.216C247.978 331.205 247.935 331.187 247.896 331.163L249.667 328.31C250.332 328.722 250.867 328.965 251.274 329.037C251.68 329.108 252.037 328.897 252.344 328.402C252.538 328.089 252.594 327.781 252.512 327.477C252.422 327.187 252.167 326.857 251.746 326.487C251.331 326.139 250.719 325.714 249.911 325.213L248.289 324.206C248.471 324.554 248.531 324.952 248.469 325.4C248.398 325.862 248.224 326.332 247.946 326.809C247.455 327.659 246.853 328.206 246.142 328.45C245.436 328.716 244.662 328.741 243.822 328.525C242.994 328.318 242.143 327.944 241.27 327.402C240.202 326.739 239.332 326.018 238.66 325.24C237.988 324.462 237.611 323.615 237.531 322.698C237.455 321.803 237.748 320.821 238.411 319.753ZM240.634 321.187C240.432 321.513 240.393 321.823 240.518 322.116C240.634 322.423 240.878 322.728 241.25 323.031C241.613 323.347 242.081 323.682 242.655 324.038C243.202 324.378 243.689 324.654 244.117 324.865C244.551 325.098 244.937 325.202 245.276 325.179C245.616 325.155 245.907 324.947 246.15 324.557C246.263 324.374 246.333 324.174 246.36 323.956C246.392 323.759 246.386 323.566 246.341 323.376C246.31 323.194 246.256 323.034 246.179 322.896L243.658 321.331C243.267 321.089 242.876 320.891 242.484 320.738C242.096 320.606 241.742 320.566 241.42 320.619C241.099 320.672 240.837 320.861 240.634 321.187Z" fill="#553B92"/>
</g>
<g opacity="0.7">
<path d="M86.2811 276.894L83.8029 277.273L76.2291 273.848C75.6628 273.593 75.1227 273.358 74.6088 273.141C74.0925 272.91 73.578 272.741 73.0652 272.633C72.5348 272.512 71.9893 272.495 71.4285 272.581C70.8373 272.671 70.4076 272.853 70.1392 273.127C69.8557 273.403 69.7463 273.753 69.8112 274.177C69.8808 274.632 70.0629 274.961 70.3577 275.164C70.6373 275.37 70.9886 275.487 71.4118 275.515C71.8349 275.543 72.289 275.52 72.7741 275.446L73.638 275.314L74.163 278.747L73.2536 278.886C72.1622 279.053 71.1667 279.035 70.2669 278.831C69.3648 278.612 68.6232 278.175 68.0421 277.519C67.4435 276.851 67.0526 275.918 66.8695 274.72C66.6215 273.099 66.8593 271.814 67.583 270.865C68.3066 269.917 69.4339 269.326 70.9648 269.092C71.7075 268.978 72.4145 268.986 73.0859 269.116C73.7421 269.249 74.3947 269.459 75.0438 269.748C75.6754 270.023 76.3343 270.326 77.0207 270.655L82.9059 273.385L82.0681 267.906L84.8418 267.482L86.2811 276.894Z" fill="#553B92"/>
</g>
<g opacity="0.7">
<path d="M254.329 106.981C252.834 106.869 251.654 106.55 250.791 106.024C249.93 105.478 249.334 104.731 249.004 103.783C248.675 102.816 248.561 101.664 248.662 100.328C248.666 100.268 248.671 100.208 248.675 100.149C248.68 100.089 248.684 100.029 248.689 99.9691L253.056 100.297C252.98 101.314 253.023 102.08 253.185 102.593C253.367 103.108 253.847 103.395 254.624 103.453C255.103 103.489 255.483 103.367 255.765 103.088C256.047 102.808 256.264 102.313 256.418 101.603C256.572 100.892 256.694 99.9285 256.786 98.7119L256.972 96.2289C256.66 96.6467 256.226 96.9551 255.669 97.154C255.113 97.3528 254.485 97.436 253.785 97.4036C252.487 97.3262 251.473 96.9391 250.744 96.2425C250.015 95.526 249.523 94.6065 249.266 93.4841C249.029 92.3632 248.961 91.1347 249.061 89.7984C249.186 88.1431 249.503 86.7229 250.013 85.5378C250.523 84.3526 251.283 83.457 252.291 82.8508C253.319 82.2461 254.621 82.0029 256.196 82.1212C257.732 82.2366 258.954 82.6592 259.862 83.3893C260.771 84.0994 261.402 85.0493 261.754 86.239C262.106 87.4287 262.223 88.8013 262.106 90.3569L261.443 99.1821C261.325 100.758 261.039 102.16 260.586 103.39C260.133 104.619 259.41 105.558 258.419 106.205C257.428 106.853 256.065 107.112 254.329 106.981ZM255.337 93.9701C255.795 94.0046 256.173 93.9126 256.47 93.6942C256.789 93.4574 257.037 93.2254 257.215 92.998L257.505 89.1389C257.551 88.5206 257.544 87.9485 257.483 87.4225C257.422 86.8964 257.274 86.4641 257.039 86.1256C256.804 85.787 256.437 85.599 255.938 85.5615C255.439 85.5241 255.048 85.6652 254.763 85.9847C254.478 86.3043 254.263 86.7695 254.117 87.3802C253.991 87.9925 253.894 88.7374 253.829 89.6149C253.767 90.4326 253.742 91.1628 253.754 91.8055C253.766 92.4482 253.878 92.9581 254.091 93.335C254.323 93.7135 254.738 93.9252 255.337 93.9701Z" fill="#553B92"/>
</g>
<g opacity="0.7">
<path d="M122.337 155.772L99.8715 134.121C99.7868 134.439 99.636 134.85 99.419 135.351C99.2011 135.808 98.9729 136.322 98.7345 136.892C98.473 137.44 98.2338 137.965 98.0167 138.467C97.7767 138.946 97.6028 139.334 97.4951 139.63L93.555 135.833C93.6833 135.423 93.8542 134.877 94.0679 134.194C94.3038 133.488 94.5389 132.737 94.7731 131.941C95.0074 131.144 95.1853 130.36 95.3068 129.589C95.4506 128.794 95.5063 128.136 95.4741 127.616L99.4711 123.469L127.466 150.449L122.337 155.772ZM131.985 145.761L128.217 142.13L124.307 125.229C124.012 123.967 123.718 122.773 123.426 121.647C123.156 120.498 122.785 119.43 122.315 118.442C121.843 117.41 121.181 116.483 120.328 115.662C119.43 114.796 118.583 114.313 117.789 114.215C116.972 114.094 116.253 114.356 115.631 115.001C114.965 115.693 114.65 116.411 114.687 117.158C114.7 117.881 114.951 118.612 115.44 119.35C115.929 120.088 116.542 120.812 117.279 121.523L118.593 122.788L113.563 128.007L112.181 126.675C110.522 125.076 109.291 123.402 108.489 121.651C107.71 119.878 107.496 118.094 107.848 116.299C108.198 114.46 109.251 112.63 111.005 110.81C113.381 108.344 115.814 107.111 118.303 107.11C120.793 107.11 123.201 108.231 125.528 110.473C126.657 111.562 127.539 112.745 128.174 114.023C128.785 115.279 129.263 116.628 129.606 118.07C129.949 119.467 130.282 120.943 130.605 122.499L133.53 135.718L141.558 127.389L145.774 131.452L131.985 145.761Z" fill="#553B92"/>
</g>
<g opacity="0.7">
<path d="M175.452 85.3132C173.929 84.5576 172.903 83.7021 172.372 82.7467C171.841 81.7913 171.673 80.7364 171.866 79.582C172.077 78.4365 172.516 77.1919 173.182 75.8482L177.187 77.8348C176.796 78.6231 176.511 79.3083 176.334 79.8902C176.175 80.481 176.154 80.973 176.272 81.3662C176.407 81.7683 176.739 82.0892 177.268 82.3291C177.796 82.569 178.27 82.5586 178.69 82.2979C179.109 82.0372 179.519 81.5708 179.92 80.8988C180.32 80.2267 180.756 79.4159 181.227 78.4663C181.609 77.6959 181.902 76.9929 182.106 76.3572C182.31 75.7216 182.362 75.1668 182.262 74.6931C182.18 74.2283 181.87 73.8625 181.333 73.5958C180.849 73.3558 180.361 73.326 179.87 73.5064C179.397 73.6957 178.933 74.0684 178.478 74.6243L174.931 72.8643L181.36 60.6488L191.357 65.6089L189.584 69.1831L182.999 65.9165L180.371 70.6069C180.719 70.4449 181.193 70.3897 181.793 70.4415C182.41 70.5022 183.023 70.6613 183.632 70.9188C184.814 71.3714 185.639 72.0486 186.107 72.9505C186.593 73.8613 186.753 74.9341 186.586 76.169C186.429 77.3859 185.977 78.7468 185.231 80.2518C184.662 81.3984 184.061 82.4289 183.429 83.3431C182.806 84.2395 182.11 84.9438 181.343 85.456C180.584 85.9502 179.721 86.2034 178.755 86.2153C177.79 86.2272 176.688 85.9265 175.452 85.3132Z" fill="#553B92"/>
</g>
<defs>
<filter id="filter0_d_17_1198" x="151.404" y="173.305" width="65.7334" height="65.2964" filterUnits="userSpaceOnUse" color-interpolation-filters="sRGB">
<feFlood flood-opacity="0" result="BackgroundImageFix"/>
<feColorMatrix in="SourceAlpha" type="matrix" values="0 0 0 0 0 0 0 0 0 0 0 0 0 0 0 0 0 0 127 0" result="hardAlpha"/>
<feOffset/>
<feComposite in2="hardAlpha" operator="out"/>
<feColorMatrix type="matrix" values="0 0 0 0 0.264705 0 0 0 0 0.318651 0 0 0 0 0.804167 0 0 0 0.8 0"/>
<feBlend mode="normal" in2="BackgroundImageFix" result="effect1_dropShadow_17_1198"/>
<feBlend mode="normal" in="SourceGraphic" in2="effect1_dropShadow_17_1198" result="shape"/>
</filter>
</defs>
</svg>
