<svg width="378" height="642" viewBox="0 0 378 642" fill="none" xmlns="http://www.w3.org/2000/svg">
<path d="M354.922 160.459L230.843 38.1787L67.0765 83.3313L23.4655 246.09L142.327 368.525L311.311 323.218L354.922 160.459Z" fill="#F5F5FA" stroke="#553B92" stroke-width="10"/>
<path d="M213.373 103.379L262.042 288.793M213.373 103.379L354.922 160.459M213.373 103.379L230.843 38.1787M213.373 103.379L67.0765 83.3313M213.373 103.379L79.4824 239.876M262.042 288.793L354.922 160.459M262.042 288.793L79.4824 239.876M262.042 288.793L142.327 368.525M262.042 288.793L311.311 323.218M354.922 160.459L230.843 38.1787M354.922 160.459L311.311 323.218M230.843 38.1787L67.0765 83.3313M311.311 323.218L142.327 368.525M142.327 368.525L23.4655 246.09M142.327 368.525L79.4824 239.876M23.4655 246.09L67.0765 83.3313M23.4655 246.09L79.4824 239.876M67.0765 83.3313L79.4824 239.876" stroke="#553B92" stroke-width="10"/>
<circle cx="213.114" cy="104.344" r="9.5" transform="rotate(15 213.114 104.344)" stroke="#553B92" stroke-width="6"/>
<circle cx="261.465" cy="287.087" r="9.5" transform="rotate(15 261.465 287.087)" stroke="#553B92" stroke-width="6"/>
<circle cx="80.8369" cy="238.684" r="9.5" transform="rotate(15 80.8369 238.684)" stroke="#553B92" stroke-width="6"/>
<g filter="url(#filter0_d_17_398)">
<path d="M178.253 232.07C174.915 231.175 172.422 229.845 170.775 228.079C169.181 226.282 168.254 224.134 167.996 221.636C167.749 219.096 168.023 216.342 168.818 213.375L169.299 211.582L178.819 214.133C178.797 214.216 178.736 214.442 178.637 214.813C178.548 215.143 178.46 215.473 178.372 215.802C177.982 217.421 177.747 218.793 177.666 219.92C177.637 221.017 177.839 221.91 178.273 222.6C178.706 223.291 179.459 223.779 180.53 224.067C181.643 224.365 182.539 224.318 183.218 223.926C183.909 223.492 184.5 222.767 184.994 221.751C185.487 220.735 185.943 219.443 186.363 217.877C187.036 215.363 187.184 213.327 186.807 211.768C186.441 210.168 185.15 209.049 182.936 208.412C182.895 208.401 182.689 208.346 182.318 208.246C181.947 208.147 181.596 208.053 181.267 207.965L183.155 200.917C183.402 200.983 183.65 201.05 183.897 201.116C184.185 201.193 184.433 201.26 184.639 201.315C186.864 201.911 188.529 201.717 189.632 200.731C190.776 199.757 191.691 197.992 192.376 195.437C192.906 193.459 193.031 191.836 192.753 190.569C192.474 189.301 191.551 188.458 189.985 188.038C188.419 187.618 187.223 187.961 186.397 189.064C185.571 190.168 184.878 191.683 184.318 193.609C184.23 193.939 184.13 194.31 184.02 194.722C183.921 195.093 183.821 195.464 183.722 195.835L174.202 193.284L174.931 190.564C175.715 187.638 176.913 185.308 178.526 183.576C180.149 181.803 182.094 180.645 184.359 180.104C186.624 179.562 189.179 179.672 192.023 180.434C194.866 181.196 197.16 182.363 198.903 183.934C200.647 185.506 201.768 187.419 202.269 189.673C202.81 191.938 202.689 194.534 201.905 197.46C201.121 200.386 199.851 202.652 198.096 204.258C196.381 205.875 194.566 206.713 192.651 206.774C193.777 207.518 194.687 208.49 195.38 209.692C196.074 210.894 196.474 212.371 196.579 214.121C196.695 215.831 196.438 217.86 195.809 220.21C195.003 223.218 193.852 225.781 192.357 227.898C190.874 229.974 188.966 231.407 186.634 232.195C184.303 232.984 181.509 232.942 178.253 232.07Z" fill="#553B92"/>
</g>
<g opacity="0.7">
<path d="M69.5009 214.402L48.1275 213.998L49.5873 220.465L46.1341 221.245L43.6769 210.358L46.6618 209.685L68.5101 210.012L69.5009 214.402Z" fill="#553B92"/>
</g>
<g opacity="0.7">
<path d="M166.673 290.156L158.598 320.293C158.918 320.213 159.35 320.147 159.894 320.094C160.399 320.063 160.959 320.014 161.573 319.947C162.179 319.911 162.754 319.866 163.299 319.813C163.835 319.791 164.258 319.756 164.57 319.707L163.153 324.992C162.733 325.078 162.172 325.193 161.471 325.336C160.739 325.472 159.968 325.629 159.158 325.81C158.347 325.99 157.575 326.214 156.841 326.481C156.076 326.74 155.474 327.009 155.034 327.289L149.47 325.798L159.533 288.243L166.673 290.156Z" fill="#553B92"/>
</g>
<g opacity="0.7">
<path d="M262.797 169.967L292.226 159.603C291.979 159.385 291.68 159.066 291.329 158.647C291.019 158.247 290.662 157.813 290.26 157.344C289.887 156.864 289.525 156.415 289.174 155.996C288.853 155.566 288.585 155.237 288.368 155.008L293.53 153.19C293.838 153.488 294.25 153.886 294.764 154.384C295.289 154.911 295.855 155.458 296.462 156.025C297.068 156.592 297.689 157.102 298.324 157.557C298.97 158.042 299.533 158.387 300.012 158.592L301.925 164.025L265.253 176.939L262.797 169.967ZM270.377 193.08C269.58 190.817 269.289 188.883 269.505 187.281C269.751 185.667 270.462 184.314 271.638 183.222C272.844 182.119 274.458 181.211 276.48 180.499C276.571 180.467 276.662 180.435 276.752 180.403C276.843 180.371 276.933 180.339 277.024 180.307L279.352 186.918C277.812 187.46 276.718 188.014 276.07 188.582C275.432 189.18 275.321 190.067 275.735 191.244C275.991 191.969 276.414 192.447 277.005 192.68C277.595 192.913 278.461 192.914 279.601 192.682C280.74 192.45 282.231 192.01 284.072 191.362L287.83 190.039C287.017 189.85 286.286 189.412 285.637 188.724C284.987 188.037 284.462 187.17 284.06 186.125C283.338 184.173 283.254 182.439 283.805 180.922C284.386 179.394 285.417 178.081 286.896 176.983C288.386 175.916 290.142 175.026 292.165 174.314C294.67 173.432 296.955 172.983 299.019 172.969C301.083 172.954 302.884 173.491 304.42 174.578C305.967 175.696 307.161 177.447 308 179.831C308.819 182.155 308.985 184.217 308.499 186.017C308.044 187.806 307.057 189.34 305.541 190.621C304.024 191.901 302.088 192.956 299.734 193.785L286.378 198.489C283.994 199.328 281.755 199.811 279.662 199.938C277.569 200.064 275.73 199.609 274.143 198.573C272.557 197.537 271.302 195.706 270.377 193.08ZM290.088 186.19C290.332 186.884 290.71 187.379 291.221 187.674C291.773 187.989 292.272 188.203 292.719 188.317L298.56 186.26C299.495 185.93 300.329 185.552 301.061 185.125C301.792 184.697 302.331 184.203 302.675 183.64C303.02 183.078 303.06 182.419 302.794 181.665C302.528 180.91 302.07 180.427 301.418 180.215C300.767 180.004 299.947 179.987 298.958 180.166C297.98 180.374 296.827 180.713 295.499 181.18C294.261 181.616 293.175 182.049 292.241 182.48C291.308 182.911 290.633 183.403 290.217 183.956C289.812 184.54 289.769 185.285 290.088 186.19Z" fill="#553B92"/>
</g>
<g opacity="0.7">
<path d="M295.541 265.115L304.685 281.598C304.79 281.429 304.95 281.219 305.164 280.968C305.371 280.742 305.594 280.486 305.832 280.199C306.08 279.929 306.312 279.668 306.526 279.416C306.749 279.182 306.919 278.988 307.033 278.836L308.637 281.727C308.49 281.941 308.295 282.227 308.051 282.583C307.789 282.949 307.521 283.342 307.244 283.76C306.968 284.179 306.726 284.6 306.52 285.024C306.296 285.458 306.147 285.828 306.074 286.134L303.031 287.822L291.635 267.281L295.541 265.115Z" fill="#553B92"/>
</g>
<g opacity="0.7">
<path d="M240.692 316.559L244.385 318.852L247.369 314.045L249.733 315.513L256.945 325.701L254.761 329.218L244.932 323.117L243.986 324.641L241.68 323.21L242.626 321.685L238.933 319.393L240.692 316.559ZM248.195 317.86L246.691 320.283L253.413 324.456L248.195 317.86Z" fill="#553B92"/>
</g>
<g opacity="0.7">
<path d="M86.6136 279.069L71.8354 281.329C71.9321 281.453 72.0444 281.63 72.1724 281.859C72.283 282.075 72.4122 282.311 72.56 282.567C72.6927 282.826 72.823 283.07 72.951 283.299C73.0639 283.53 73.1611 283.709 73.2426 283.836L70.6507 284.232C70.5319 284.064 70.3736 283.84 70.1757 283.56C69.9754 283.265 69.7577 282.957 69.5225 282.636C69.2873 282.315 69.0404 282.02 68.7819 281.749C68.521 281.463 68.2869 281.251 68.0795 281.112L67.6623 278.384L86.0783 275.568L86.6136 279.069ZM85.1914 267.638C85.3884 268.926 85.3041 269.947 84.9385 270.701C84.573 271.455 83.9855 272.026 83.1761 272.413C82.3644 272.785 81.3901 273.058 80.2533 273.232L79.7353 269.845C80.4022 269.743 80.9573 269.619 81.4004 269.474C81.8412 269.313 82.159 269.109 82.354 268.863C82.5465 268.6 82.6017 268.251 82.5193 267.813C82.4369 267.376 82.2215 267.083 81.8731 266.935C81.5247 266.787 81.0514 266.735 80.4533 266.78C79.8552 266.825 79.1545 266.909 78.3512 267.032C77.6994 267.131 77.1293 267.257 76.6407 267.409C76.1521 267.562 75.7812 267.774 75.5279 268.045C75.2724 268.301 75.1794 268.657 75.2489 269.111C75.3115 269.521 75.5077 269.84 75.8374 270.068C76.1647 270.282 76.603 270.409 77.152 270.449L77.6109 273.45L67.1142 274.799L65.8209 266.342L68.8448 265.879L69.6966 271.449L73.7975 271.032C73.5424 270.885 73.299 270.612 73.0673 270.213C72.8334 269.799 72.663 269.344 72.5562 268.848C72.3193 267.907 72.3806 267.091 72.7403 266.4C73.0977 265.694 73.7003 265.121 74.5483 264.681C75.381 264.244 76.434 263.928 77.7072 263.733C78.6773 263.585 79.5884 263.507 80.4406 263.501C81.2776 263.497 82.0259 263.623 82.6855 263.879C83.3299 264.137 83.8687 264.567 84.3018 265.168C84.735 265.768 85.0315 266.592 85.1914 267.638Z" fill="#553B92"/>
</g>
<g opacity="0.7">
<path d="M245.761 107.61L247.221 88.1647C247.034 88.251 246.777 88.342 246.448 88.4377C246.142 88.5149 245.804 88.6099 245.434 88.7225C245.066 88.8152 244.718 88.9094 244.39 89.0051C244.064 89.0809 243.808 89.1519 243.622 89.2182L243.878 85.8078C244.127 85.7061 244.458 85.5705 244.871 85.401C245.305 85.233 245.76 85.0466 246.237 84.8417C246.714 84.6369 247.162 84.4098 247.582 84.1605C248.022 83.9128 248.36 83.6775 248.598 83.4546L252.188 83.7242L250.368 107.956L245.761 107.61ZM254.426 108.261L254.671 105L261.245 96.378C261.735 95.7329 262.192 95.1154 262.617 94.5256C263.063 93.9373 263.429 93.3331 263.716 92.7128C264.025 92.0742 264.207 91.3859 264.262 90.6479C264.321 89.8701 264.215 89.2705 263.946 88.8492C263.679 88.4079 263.265 88.1663 262.707 88.1244C262.109 88.0794 261.637 88.2145 261.293 88.5296C260.95 88.8247 260.698 89.237 260.538 89.7665C260.378 90.296 260.274 90.8799 260.226 91.5181L260.141 92.6549L255.623 92.3156L255.713 91.119C255.821 89.6831 256.136 88.4231 256.659 87.3392C257.201 86.2568 257.975 85.4424 258.978 84.8961C260.004 84.3312 261.304 84.108 262.879 84.2263C265.013 84.3866 266.577 85.0656 267.57 86.2633C268.563 87.4611 268.984 89.0671 268.833 91.0814C268.759 92.0587 268.542 92.9549 268.18 93.7701C267.819 94.5653 267.36 95.3331 266.803 96.0735C266.268 96.7954 265.69 97.5442 265.07 98.32L259.875 105L267.085 105.541L266.811 109.191L254.426 108.261Z" fill="#553B92"/>
</g>
<g opacity="0.7">
<path d="M123.378 154.692L100.913 133.041C100.828 133.359 100.677 133.769 100.46 134.271C100.242 134.728 100.014 135.241 99.7755 135.812C99.5141 136.36 99.2748 136.885 99.0578 137.386C98.8177 137.866 98.6438 138.254 98.5361 138.55L94.596 134.753C94.7243 134.343 94.8952 133.797 95.1089 133.114C95.3448 132.408 95.5799 131.657 95.8142 130.861C96.0484 130.064 96.2263 129.28 96.3478 128.508C96.4916 127.714 96.5473 127.056 96.5151 126.536L100.512 122.389L128.507 149.369L123.378 154.692ZM134.025 143.644L115.771 114.719L108.409 122.357L104.331 118.427L116.722 105.569L120.247 108.967L139.021 138.46L134.025 143.644Z" fill="#553B92"/>
</g>
<g opacity="0.7">
<path d="M167.045 82.7968L175.711 65.3286C175.506 65.3381 175.233 65.3256 174.893 65.2908C174.58 65.2471 174.231 65.2079 173.846 65.1733C173.47 65.1208 173.112 65.0772 172.772 65.0425C172.441 64.9898 172.177 64.9594 171.98 64.951L173.5 61.8874C173.769 61.8865 174.126 61.8854 174.574 61.884C175.039 61.8916 175.531 61.89 176.049 61.8795C176.568 61.8689 177.069 61.8271 177.552 61.7541C178.052 61.6899 178.455 61.5992 178.758 61.482L181.983 63.082L171.183 84.8501L167.045 82.7968ZM180.85 90.115C179.542 89.4661 178.591 88.6596 177.998 87.6955C177.405 86.7313 177.124 85.6767 177.156 84.5318C177.198 83.3689 177.525 82.1693 178.138 80.9331L182.978 71.1778C183.609 69.9058 184.366 68.8972 185.25 68.1521C186.142 67.389 187.151 66.9521 188.278 66.8413C189.404 66.7305 190.64 67.0084 191.983 67.6751C193.309 68.3329 194.26 69.1394 194.835 70.0947C195.428 71.0588 195.691 72.1268 195.623 73.2988C195.564 74.4528 195.219 75.6658 194.588 76.9378L189.748 86.6931C189.134 87.9294 188.377 88.9156 187.476 89.6518C186.584 90.3701 185.575 90.7847 184.448 90.8955C183.321 91.0063 182.122 90.7461 180.85 90.115ZM182.663 86.4601C183.147 86.7001 183.572 86.7212 183.938 86.5233C184.304 86.3254 184.625 86.0382 184.901 85.6616C185.186 85.2672 185.418 84.8908 185.595 84.5325L190.355 74.9384C190.551 74.5443 190.72 74.1144 190.861 73.6489C191.021 73.1922 191.069 72.7583 191.005 72.347C190.95 71.9179 190.672 71.5789 190.17 71.33C189.668 71.0811 189.221 71.0601 188.828 71.267C188.462 71.465 188.136 71.7611 187.851 72.1556C187.584 72.5589 187.353 72.9576 187.157 73.3518L182.397 82.9458C182.22 83.3042 182.06 83.7161 181.918 84.1816C181.785 84.6293 181.76 85.0631 181.842 85.4833C181.924 85.9034 182.197 86.229 182.663 86.4601Z" fill="#553B92"/>
</g>
<defs>
<filter id="filter0_d_17_398" x="164.777" y="176.84" width="40.7227" height="58.8247" filterUnits="userSpaceOnUse" color-interpolation-filters="sRGB">
<feFlood flood-opacity="0" result="BackgroundImageFix"/>
<feColorMatrix in="SourceAlpha" type="matrix" values="0 0 0 0 0 0 0 0 0 0 0 0 0 0 0 0 0 0 127 0" result="hardAlpha"/>
<feOffset/>
<feComposite in2="hardAlpha" operator="out"/>
<feColorMatrix type="matrix" values="0 0 0 0 0.264705 0 0 0 0 0.318651 0 0 0 0 0.804167 0 0 0 0.8 0"/>
<feBlend mode="normal" in2="BackgroundImageFix" result="effect1_dropShadow_17_398"/>
<feBlend mode="normal" in="SourceGraphic" in2="effect1_dropShadow_17_398" result="shape"/>
</filter>
</defs>
</svg>
