<svg width="378" height="642" viewBox="0 0 378 642" fill="none" xmlns="http://www.w3.org/2000/svg">
<path d="M354.922 160.459L230.843 38.1787L67.0765 83.3313L23.4655 246.09L142.327 368.525L311.311 323.218L354.922 160.459Z" fill="#F5F5FA" stroke="#553B92" stroke-width="10"/>
<path d="M213.373 103.379L262.042 288.793M213.373 103.379L354.922 160.459M213.373 103.379L230.843 38.1787M213.373 103.379L67.0765 83.3313M213.373 103.379L79.4824 239.876M262.042 288.793L354.922 160.459M262.042 288.793L79.4824 239.876M262.042 288.793L142.327 368.525M262.042 288.793L311.311 323.218M354.922 160.459L230.843 38.1787M354.922 160.459L311.311 323.218M230.843 38.1787L67.0765 83.3313M311.311 323.218L142.327 368.525M142.327 368.525L23.4655 246.09M142.327 368.525L79.4824 239.876M23.4655 246.09L67.0765 83.3313M23.4655 246.09L79.4824 239.876M67.0765 83.3313L79.4824 239.876" stroke="#553B92" stroke-width="10"/>
<circle cx="213.114" cy="104.344" r="9.5" transform="rotate(15 213.114 104.344)" stroke="#553B92" stroke-width="6"/>
<circle cx="261.465" cy="287.087" r="9.5" transform="rotate(15 261.465 287.087)" stroke="#553B92" stroke-width="6"/>
<circle cx="80.8369" cy="238.684" r="9.5" transform="rotate(15 80.8369 238.684)" stroke="#553B92" stroke-width="6"/>
<g filter="url(#filter0_d_17_970)">
<path d="M179.598 231.503L182.728 219.819L167.521 215.744L169.525 208.264L190.851 180.849L201.979 183.831L193.647 214.926L198.469 216.218L196.514 223.513L191.692 222.221L188.562 233.904L179.598 231.503ZM177.017 210.47L184.683 212.524L190.381 191.258L177.017 210.47Z" fill="#553B92"/>
</g>
<g opacity="0.7">
<path d="M70.6899 219.669L51.6684 223.963C51.8056 224.116 51.968 224.336 52.1555 224.622C52.3191 224.892 52.5088 225.188 52.7246 225.508C52.921 225.833 53.1129 226.138 53.3004 226.424C53.4684 226.714 53.6112 226.938 53.7289 227.096L50.3928 227.849C50.2229 227.641 49.9964 227.364 49.7132 227.018C49.4257 226.653 49.1142 226.272 48.7788 225.876C48.4434 225.48 48.0951 225.118 47.7339 224.789C47.3683 224.441 47.0442 224.186 46.7617 224.025L45.969 220.513L69.6727 215.163L70.6899 219.669ZM67.5727 204.36C67.9117 205.863 67.8575 207.167 67.41 208.272C66.9385 209.363 66.1682 210.265 65.0989 210.977C64.0252 211.671 62.7373 212.187 61.2351 212.526L52.8071 214.429C51.2659 214.776 49.8411 214.914 48.5328 214.84C47.22 214.747 46.109 214.321 45.1997 213.562C44.2904 212.804 43.6442 211.576 43.2611 209.879C42.9308 208.416 42.9029 207.202 43.1774 206.238C43.4279 205.259 43.9579 204.473 44.7672 203.88C45.5766 203.287 46.6348 202.843 47.9419 202.548C48.0004 202.535 48.0687 202.52 48.1467 202.502C48.2009 202.469 48.2572 202.446 48.3157 202.433L49.2801 206.706C48.2852 206.93 47.5658 207.195 47.1221 207.5C46.6784 207.805 46.5403 208.329 46.7076 209.07C46.8133 209.538 47.0433 209.876 47.3976 210.083C47.7475 210.271 48.2868 210.344 49.0155 210.302C49.7204 210.246 50.6776 210.081 51.8871 209.808L54.316 209.26C53.8296 209.103 53.4098 208.787 53.0568 208.314C52.6994 207.82 52.4317 207.224 52.2537 206.527C51.9328 205.287 51.9911 204.228 52.4286 203.35C52.8421 202.457 53.5382 201.726 54.5168 201.156C55.4759 200.591 56.609 200.161 57.9162 199.866C59.5159 199.505 60.9841 199.379 62.3208 199.487C63.6574 199.596 64.7826 200.039 65.6963 200.817C66.5861 201.579 67.2116 202.761 67.5727 204.36ZM64.1941 205.061C64.084 204.574 63.8367 204.25 63.4522 204.091C63.0633 203.912 62.5577 203.852 61.9353 203.911C61.3085 203.95 60.5659 204.066 59.7075 204.26C58.8881 204.445 58.1826 204.635 57.591 204.83C56.9755 205.01 56.5208 205.266 56.2269 205.599C55.933 205.932 55.8521 206.391 55.9842 206.976C56.0459 207.249 56.1638 207.499 56.3381 207.727C56.4885 207.939 56.6713 208.113 56.8866 208.249C57.0823 208.389 57.2789 208.488 57.4765 208.546L61.2515 207.694C61.8368 207.562 62.3818 207.388 62.8865 207.171C63.3674 206.94 63.733 206.652 63.9835 206.308C64.234 205.965 64.3042 205.549 64.1941 205.061Z" fill="#553B92"/>
</g>
<g opacity="0.7">
<path d="M178.265 293.262L170.189 323.399C170.509 323.318 170.941 323.252 171.485 323.199C171.99 323.169 172.55 323.12 173.164 323.053C173.77 323.016 174.345 322.972 174.89 322.919C175.426 322.897 175.849 322.861 176.161 322.812L174.744 328.098C174.324 328.184 173.763 328.298 173.062 328.442C172.33 328.577 171.559 328.735 170.749 328.915C169.938 329.096 169.166 329.319 168.432 329.586C167.667 329.845 167.065 330.115 166.625 330.394L161.062 328.904L171.124 291.348L178.265 293.262ZM164.835 289.663L163.481 294.717L150.583 306.318C149.621 307.187 148.719 308.021 147.874 308.822C147 309.615 146.244 310.456 145.608 311.346C144.933 312.258 144.442 313.286 144.136 314.43C143.813 315.635 143.8 316.609 144.098 317.352C144.388 318.125 144.966 318.628 145.831 318.859C146.758 319.108 147.54 319.036 148.175 318.643C148.802 318.281 149.32 317.707 149.729 316.922C150.138 316.137 150.475 315.251 150.74 314.261L151.212 312.5L158.214 314.375L157.717 316.23C157.12 318.456 156.25 320.343 155.106 321.891C153.932 323.432 152.474 324.482 150.734 325.043C148.954 325.626 146.843 325.591 144.401 324.937C141.094 324.05 138.838 322.518 137.633 320.34C136.427 318.162 136.243 315.512 137.079 312.39C137.485 310.875 138.094 309.531 138.905 308.357C139.709 307.214 140.658 306.143 141.754 305.145C142.81 304.169 143.941 303.163 145.146 302.128L155.298 293.17L144.125 290.176L145.64 284.52L164.835 289.663Z" fill="#553B92"/>
</g>
<g opacity="0.7">
<path d="M267.318 184.829C266.457 182.384 266.225 180.278 266.62 178.51C267.056 176.762 267.993 175.278 269.429 174.06C270.896 172.831 272.717 171.834 274.89 171.068L276.203 170.606L278.658 177.578C278.598 177.6 278.432 177.658 278.16 177.754C277.919 177.839 277.677 177.924 277.436 178.009C276.269 178.454 275.32 178.89 274.588 179.317C273.898 179.764 273.43 180.267 273.187 180.828C272.943 181.389 272.96 182.062 273.236 182.846C273.523 183.661 273.932 184.196 274.462 184.45C275.023 184.694 275.722 184.753 276.56 184.627C277.398 184.502 278.391 184.237 279.538 183.833C281.379 183.185 282.702 182.414 283.506 181.52C284.341 180.615 284.487 179.342 283.943 177.702C283.933 177.672 283.879 177.521 283.784 177.249C283.688 176.977 283.598 176.721 283.513 176.479L288.674 174.662C288.738 174.843 288.802 175.024 288.865 175.205C288.94 175.416 289.003 175.598 289.057 175.748C289.631 177.378 290.456 178.326 291.533 178.591C292.621 178.887 294.101 178.705 295.972 178.046C297.421 177.536 298.479 176.926 299.145 176.216C299.811 175.507 299.942 174.578 299.538 173.431C299.134 172.284 298.416 171.689 297.383 171.646C296.35 171.603 295.118 171.816 293.689 172.285C293.448 172.37 293.176 172.466 292.874 172.572C292.603 172.668 292.331 172.763 292.059 172.859L289.604 165.887L291.596 165.185C293.739 164.431 295.688 164.185 297.444 164.449C299.229 164.702 300.769 165.415 302.064 166.588C303.359 167.76 304.373 169.388 305.107 171.47C305.84 173.553 306.09 175.467 305.856 177.211C305.623 178.956 304.914 180.461 303.731 181.725C302.559 183.02 300.901 184.045 298.758 184.8C296.615 185.555 294.675 185.729 292.937 185.323C291.21 184.947 289.922 184.18 289.073 183.02C289.09 184.032 288.874 185.007 288.424 185.946C287.974 186.884 287.23 187.757 286.191 188.564C285.182 189.36 283.817 190.061 282.097 190.667C279.894 191.443 277.82 191.817 275.876 191.789C273.963 191.751 272.268 191.177 270.792 190.068C269.316 188.96 268.158 187.213 267.318 184.829Z" fill="#553B92"/>
</g>
<g opacity="0.7">
<path d="M302.099 261.477L311.244 277.96C311.349 277.791 311.509 277.581 311.723 277.329C311.929 277.104 312.152 276.848 312.391 276.561C312.639 276.291 312.87 276.03 313.084 275.778C313.308 275.544 313.477 275.35 313.592 275.198L315.195 278.089C315.049 278.303 314.853 278.588 314.609 278.945C314.348 279.311 314.079 279.703 313.803 280.122C313.526 280.541 313.285 280.962 313.078 281.386C312.854 281.82 312.706 282.19 312.632 282.496L309.589 284.184L298.194 263.643L302.099 261.477ZM289.096 268.325C290.364 267.622 291.486 267.254 292.463 267.22C293.449 267.204 294.326 267.491 295.096 268.081C295.875 268.688 296.579 269.558 297.207 270.691C297.235 270.741 297.263 270.792 297.291 270.843C297.319 270.894 297.348 270.944 297.376 270.995L293.673 273.049C293.195 272.187 292.754 271.591 292.351 271.262C291.93 270.943 291.39 270.966 290.731 271.332C290.325 271.557 290.083 271.857 290.004 272.233C289.925 272.608 290.012 273.124 290.265 273.779C290.518 274.435 290.93 275.278 291.503 276.309L292.67 278.414C292.701 277.911 292.888 277.431 293.232 276.975C293.575 276.519 294.039 276.119 294.621 275.773C295.71 275.147 296.735 274.921 297.694 275.096C298.663 275.288 299.549 275.77 300.353 276.54C301.139 277.32 301.846 278.276 302.475 279.409C303.253 280.812 303.751 282.128 303.968 283.356C304.185 284.584 304.047 285.711 303.555 286.736C303.045 287.77 302.123 288.658 300.787 289.399C299.485 290.121 298.274 290.428 297.153 290.32C296.041 290.23 295.028 289.797 294.112 289.023C293.196 288.249 292.372 287.202 291.64 285.884L287.49 278.403C286.749 277.067 286.236 275.782 285.949 274.549C285.662 273.315 285.748 272.173 286.205 271.124C286.661 270.074 287.625 269.141 289.096 268.325ZM295.191 279.371C294.802 279.586 294.545 279.861 294.421 280.196C294.289 280.556 294.212 280.875 294.19 281.153L296.004 284.424C296.295 284.948 296.605 285.407 296.933 285.799C297.261 286.192 297.611 286.463 297.98 286.611C298.35 286.76 298.747 286.717 299.169 286.482C299.592 286.248 299.833 285.926 299.894 285.517C299.954 285.107 299.881 284.617 299.675 284.046C299.452 283.485 299.134 282.832 298.721 282.088C298.337 281.395 297.969 280.792 297.618 280.279C297.267 279.766 296.906 279.414 296.534 279.222C296.146 279.04 295.698 279.089 295.191 279.371Z" fill="#553B92"/>
</g>
<g opacity="0.7">
<path d="M240.692 316.559L244.385 318.852L247.369 314.045L249.733 315.513L256.945 325.701L254.761 329.218L244.932 323.117L243.986 324.641L241.68 323.21L242.626 321.685L238.933 319.393L240.692 316.559ZM248.195 317.86L246.691 320.283L253.413 324.456L248.195 317.86Z" fill="#553B92"/>
</g>
<g opacity="0.7">
<path d="M85.8036 272.099C85.982 273.266 85.8704 274.26 85.4686 275.082C85.0494 275.89 84.4117 276.538 83.5556 277.026C82.6971 277.499 81.6843 277.824 80.5172 278.002L73.9694 279.004C72.7719 279.187 71.6749 279.215 70.6783 279.088C69.6794 278.946 68.8526 278.561 68.198 277.932C67.5434 277.303 67.1153 276.329 66.9137 275.01C66.7398 273.874 66.7838 272.944 67.0456 272.221C67.2899 271.486 67.7375 270.913 68.3884 270.504C69.0393 270.094 69.8725 269.811 70.888 269.656C70.9335 269.649 70.9865 269.641 71.0471 269.632C71.0903 269.61 71.1346 269.595 71.1801 269.588L71.6877 272.908C70.9146 273.026 70.3503 273.19 69.9945 273.399C69.6388 273.609 69.5049 274.001 69.593 274.577C69.6486 274.941 69.8063 275.212 70.0661 275.389C70.3236 275.551 70.7322 275.636 71.2917 275.644C71.8338 275.639 72.5747 275.564 73.5145 275.42L75.4015 275.132C75.0379 274.986 74.7339 274.722 74.4895 274.341C74.2427 273.944 74.07 273.474 73.9714 272.931C73.7927 271.965 73.8943 271.159 74.2761 270.511C74.6404 269.85 75.2121 269.328 75.9912 268.946C76.7552 268.565 77.6449 268.297 78.6604 268.142C79.9033 267.952 81.0329 267.934 82.0494 268.089C83.0658 268.244 83.9024 268.643 84.5593 269.287C85.1988 269.919 85.6135 270.856 85.8036 272.099ZM83.182 272.453C83.1241 272.074 82.9524 271.813 82.6669 271.671C82.3791 271.513 81.9956 271.44 81.5165 271.451C81.035 271.447 80.4608 271.496 79.7939 271.598C79.1573 271.696 78.6075 271.803 78.1446 271.92C77.6642 272.025 77.3027 272.196 77.06 272.435C76.8173 272.674 76.7307 273.021 76.8002 273.475C76.8327 273.688 76.9094 273.885 77.0305 274.068C77.1341 274.239 77.2645 274.382 77.4218 274.497C77.5639 274.615 77.709 274.701 77.857 274.756L80.7899 274.308C81.2446 274.238 81.6708 274.134 82.0685 273.996C82.4486 273.845 82.7438 273.645 82.9538 273.395C83.1639 273.146 83.24 272.832 83.182 272.453Z" fill="#553B92"/>
</g>
<g opacity="0.7">
<path d="M246.687 107.388L248.147 87.9431C247.96 88.0293 247.703 88.1203 247.374 88.216C247.068 88.2932 246.73 88.3882 246.36 88.5008C245.992 88.5935 245.644 88.6877 245.316 88.7834C244.99 88.8592 244.734 88.9302 244.548 88.9965L244.804 85.5861C245.053 85.4844 245.384 85.3488 245.797 85.1793C246.231 85.0114 246.687 84.8249 247.163 84.6201C247.64 84.4152 248.088 84.1881 248.508 83.9388C248.948 83.6911 249.286 83.4558 249.524 83.2329L253.114 83.5025L251.294 107.734L246.687 107.388ZM256.249 108.106L262.89 87.7867L256.278 87.2902L256.543 83.7601L267.672 84.5959L267.443 87.6473L260.737 108.443L256.249 108.106Z" fill="#553B92"/>
</g>
<g opacity="0.7">
<path d="M132.763 145.921C130.876 147.88 129.075 149.033 127.362 149.382C125.648 149.73 123.957 149.478 122.29 148.627C120.644 147.752 118.957 146.482 117.229 144.816L122.192 139.666C123.206 140.644 124.114 141.408 124.916 141.959C125.741 142.486 126.481 142.756 127.138 142.766C127.816 142.754 128.466 142.402 129.087 141.712C129.708 141.021 129.921 140.293 129.726 139.527C129.531 138.762 129.017 137.911 128.185 136.976C127.353 136.041 126.326 134.985 125.105 133.808C124.114 132.853 123.183 132.067 122.312 131.449C121.441 130.832 120.619 130.485 119.849 130.408C119.1 130.309 118.392 130.605 117.726 131.296C117.127 131.918 116.846 132.648 116.884 133.484C116.944 134.298 117.289 135.185 117.918 136.147L113.521 140.709L97.9889 125.007L110.38 112.15L114.976 116.58L106.816 125.048L112.703 131.321C112.623 130.711 112.768 129.962 113.136 129.072C113.527 128.16 114.065 127.301 114.752 126.497C116.013 124.912 117.444 123.98 119.046 123.702C120.67 123.4 122.383 123.674 124.187 124.523C125.967 125.35 127.825 126.697 129.761 128.562C131.236 129.983 132.518 131.396 133.607 132.802C134.674 134.186 135.413 135.586 135.824 137.005C136.211 138.401 136.181 139.838 135.733 141.317C135.286 142.797 134.295 144.331 132.763 145.921Z" fill="#553B92"/>
</g>
<g opacity="0.7">
<path d="M167.045 82.7968L175.711 65.3286C175.506 65.3381 175.233 65.3256 174.893 65.2908C174.58 65.2471 174.231 65.2079 173.846 65.1733C173.47 65.1208 173.112 65.0772 172.772 65.0425C172.441 64.9898 172.177 64.9594 171.98 64.951L173.5 61.8874C173.769 61.8865 174.126 61.8854 174.574 61.884C175.039 61.8916 175.531 61.89 176.049 61.8795C176.568 61.8689 177.069 61.8271 177.552 61.7541C178.052 61.6899 178.455 61.5992 178.758 61.482L181.983 63.082L171.183 84.8501L167.045 82.7968ZM180.85 90.115C179.542 89.4661 178.591 88.6596 177.998 87.6955C177.405 86.7313 177.124 85.6767 177.156 84.5318C177.198 83.3689 177.525 82.1693 178.138 80.9331L182.978 71.1778C183.609 69.9058 184.366 68.8972 185.25 68.1521C186.142 67.389 187.151 66.9521 188.278 66.8413C189.404 66.7305 190.64 67.0084 191.983 67.6751C193.309 68.3329 194.26 69.1394 194.835 70.0947C195.428 71.0588 195.691 72.1268 195.623 73.2988C195.564 74.4528 195.219 75.6658 194.588 76.9378L189.748 86.6931C189.134 87.9294 188.377 88.9156 187.476 89.6518C186.584 90.3701 185.575 90.7847 184.448 90.8955C183.321 91.0063 182.122 90.7461 180.85 90.115ZM182.663 86.4601C183.147 86.7001 183.572 86.7212 183.938 86.5233C184.304 86.3254 184.625 86.0382 184.901 85.6616C185.186 85.2672 185.418 84.8908 185.595 84.5325L190.355 74.9384C190.551 74.5443 190.72 74.1144 190.861 73.6489C191.021 73.1922 191.069 72.7583 191.005 72.347C190.95 71.9179 190.672 71.5789 190.17 71.33C189.668 71.0811 189.221 71.0601 188.828 71.267C188.462 71.465 188.136 71.7611 187.851 72.1556C187.584 72.5589 187.353 72.9576 187.157 73.3518L182.397 82.9458C182.22 83.3042 182.06 83.7161 181.918 84.1816C181.785 84.6293 181.76 85.0631 181.842 85.4833C181.924 85.9034 182.197 86.229 182.663 86.4601Z" fill="#553B92"/>
</g>
<defs>
<filter id="filter0_d_17_970" x="164.39" y="177.354" width="42.4104" height="57.8423" filterUnits="userSpaceOnUse" color-interpolation-filters="sRGB">
<feFlood flood-opacity="0" result="BackgroundImageFix"/>
<feColorMatrix in="SourceAlpha" type="matrix" values="0 0 0 0 0 0 0 0 0 0 0 0 0 0 0 0 0 0 127 0" result="hardAlpha"/>
<feOffset/>
<feComposite in2="hardAlpha" operator="out"/>
<feColorMatrix type="matrix" values="0 0 0 0 0.264705 0 0 0 0 0.318651 0 0 0 0 0.804167 0 0 0 0.8 0"/>
<feBlend mode="normal" in2="BackgroundImageFix" result="effect1_dropShadow_17_970"/>
<feBlend mode="normal" in="SourceGraphic" in2="effect1_dropShadow_17_970" result="shape"/>
</filter>
</defs>
</svg>
