<svg width="378" height="642" viewBox="0 0 378 642" fill="none" xmlns="http://www.w3.org/2000/svg">
<path d="M354.922 160.459L230.843 38.1787L67.0765 83.3313L23.4655 246.09L142.327 368.525L311.311 323.218L354.922 160.459Z" fill="#F5F5FA" stroke="#553B92" stroke-width="10"/>
<path d="M213.373 103.379L262.042 288.793M213.373 103.379L354.922 160.459M213.373 103.379L230.843 38.1787M213.373 103.379L67.0765 83.3313M213.373 103.379L79.4824 239.876M262.042 288.793L354.922 160.459M262.042 288.793L79.4824 239.876M262.042 288.793L142.327 368.525M262.042 288.793L311.311 323.218M354.922 160.459L230.843 38.1787M354.922 160.459L311.311 323.218M230.843 38.1787L67.0765 83.3313M311.311 323.218L142.327 368.525M142.327 368.525L23.4655 246.09M142.327 368.525L79.4824 239.876M23.4655 246.09L67.0765 83.3313M23.4655 246.09L79.4824 239.876M67.0765 83.3313L79.4824 239.876" stroke="#553B92" stroke-width="10"/>
<circle cx="213.114" cy="104.344" r="9.5" transform="rotate(15 213.114 104.344)" stroke="#553B92" stroke-width="6"/>
<circle cx="261.465" cy="287.087" r="9.5" transform="rotate(15 261.465 287.087)" stroke="#553B92" stroke-width="6"/>
<circle cx="80.8369" cy="238.684" r="9.5" transform="rotate(15 80.8369 238.684)" stroke="#553B92" stroke-width="6"/>
<g filter="url(#filter0_d_17_1027)">
<path d="M159.302 226.064L170.069 185.882C169.643 185.988 169.067 186.077 168.341 186.148C167.668 186.188 166.921 186.253 166.102 186.343C165.294 186.391 164.527 186.451 163.802 186.521C163.087 186.551 162.522 186.598 162.107 186.664L163.995 179.616C164.556 179.502 165.304 179.349 166.239 179.157C167.215 178.977 168.243 178.767 169.323 178.526C170.403 178.286 171.433 177.987 172.412 177.631C173.432 177.286 174.235 176.927 174.821 176.554L182.239 178.542L168.822 228.615L159.302 226.064ZM177.208 230.862L179.013 224.124L196.211 208.656C197.493 207.497 198.697 206.384 199.822 205.317C200.988 204.26 201.996 203.138 202.844 201.952C203.744 200.736 204.398 199.365 204.807 197.84C205.237 196.233 205.254 194.934 204.857 193.944C204.471 192.913 203.7 192.243 202.546 191.934C201.31 191.603 200.268 191.699 199.421 192.223C198.585 192.705 197.894 193.47 197.349 194.517C196.803 195.563 196.354 196.746 196.001 198.065L195.371 200.414L186.037 197.912L186.699 195.44C187.494 192.472 188.654 189.956 190.179 187.891C191.746 185.837 193.689 184.437 196.01 183.689C198.382 182.911 201.197 182.959 204.453 183.831C208.862 185.013 211.871 187.056 213.478 189.96C215.085 192.864 215.331 196.397 214.215 200.56C213.674 202.579 212.863 204.372 211.781 205.937C210.71 207.461 209.444 208.889 207.983 210.22C206.574 211.521 205.066 212.862 203.46 214.242L189.923 226.186L204.822 230.178L202.801 237.72L177.208 230.862Z" fill="#553B92"/>
</g>
<g opacity="0.7">
<path d="M70.6899 219.669L51.6684 223.963C51.8056 224.117 51.968 224.336 52.1555 224.622C52.3191 224.893 52.5088 225.188 52.7246 225.508C52.921 225.833 53.1129 226.138 53.3004 226.424C53.4684 226.714 53.6112 226.938 53.7289 227.096L50.3928 227.849C50.2229 227.642 49.9964 227.365 49.7132 227.018C49.4257 226.653 49.1142 226.272 48.7788 225.876C48.4434 225.48 48.0951 225.118 47.7339 224.79C47.3683 224.442 47.0442 224.187 46.7617 224.025L45.969 220.513L69.6727 215.163L70.6899 219.669ZM67.5727 204.361C67.9117 205.863 67.8575 207.167 67.41 208.272C66.9385 209.363 66.1682 210.265 65.0989 210.978C64.0252 211.671 62.7373 212.187 61.2351 212.526L52.8071 214.429C51.2659 214.777 49.8411 214.914 48.5328 214.84C47.22 214.747 46.109 214.321 45.1997 213.563C44.2904 212.804 43.6442 211.576 43.2611 209.879C42.9308 208.416 42.9029 207.202 43.1774 206.238C43.4279 205.259 43.9579 204.473 44.7672 203.88C45.5766 203.287 46.6348 202.844 47.9419 202.549C48.0004 202.535 48.0687 202.52 48.1467 202.502C48.2009 202.47 48.2572 202.447 48.3157 202.433L49.2801 206.706C48.2852 206.93 47.5658 207.195 47.1221 207.501C46.6784 207.806 46.5403 208.329 46.7076 209.07C46.8133 209.539 47.0433 209.876 47.3976 210.083C47.7475 210.271 48.2868 210.344 49.0155 210.302C49.7204 210.246 50.6776 210.081 51.8871 209.808L54.316 209.26C53.8296 209.103 53.4098 208.788 53.0568 208.314C52.6994 207.82 52.4317 207.225 52.2537 206.527C51.9328 205.287 51.9911 204.228 52.4286 203.35C52.8421 202.457 53.5382 201.726 54.5168 201.157C55.4759 200.592 56.609 200.162 57.9162 199.867C59.5159 199.505 60.9841 199.379 62.3208 199.487C63.6574 199.596 64.7826 200.039 65.6963 200.817C66.5861 201.58 67.2116 202.761 67.5727 204.361ZM64.1941 205.062C64.084 204.574 63.8367 204.251 63.4522 204.091C63.0633 203.913 62.5577 203.852 61.9353 203.911C61.3085 203.95 60.5659 204.066 59.7075 204.26C58.8881 204.445 58.1826 204.635 57.591 204.83C56.9755 205.01 56.5208 205.266 56.2269 205.599C55.933 205.932 55.8521 206.391 55.9842 206.976C56.0459 207.25 56.1638 207.5 56.3381 207.727C56.4885 207.939 56.6713 208.113 56.8866 208.249C57.0823 208.389 57.2789 208.488 57.4765 208.546L61.2515 207.694C61.8368 207.562 62.3818 207.388 62.8865 207.171C63.3674 206.94 63.733 206.652 63.9835 206.309C64.234 205.965 64.3042 205.549 64.1941 205.062Z" fill="#553B92"/>
</g>
<g opacity="0.7">
<path d="M174.208 292.175L172.853 297.228L159.955 308.829C158.994 309.698 158.091 310.533 157.247 311.334C156.372 312.126 155.617 312.968 154.981 313.857C154.306 314.77 153.815 315.798 153.508 316.941C153.185 318.147 153.173 319.121 153.471 319.863C153.76 320.636 154.338 321.139 155.204 321.371C156.131 321.619 156.912 321.547 157.548 321.154C158.175 320.792 158.693 320.219 159.102 319.434C159.511 318.649 159.848 317.762 160.113 316.773L160.585 315.011L167.586 316.887L167.089 318.742C166.493 320.967 165.623 322.854 164.479 324.403C163.304 325.943 161.847 326.994 160.106 327.555C158.327 328.138 156.216 328.102 153.774 327.448C150.467 326.562 148.21 325.03 147.005 322.851C145.8 320.673 145.615 318.023 146.452 314.901C146.858 313.387 147.466 312.043 148.278 310.869C149.081 309.725 150.03 308.655 151.126 307.656C152.183 306.681 153.314 305.675 154.519 304.64L164.671 295.682L153.497 292.688L155.013 287.031L174.208 292.175Z" fill="#553B92"/>
</g>
<g opacity="0.7">
<path d="M264.524 174.871L269.459 173.133L286.318 177.222C287.579 177.524 288.777 177.797 289.915 178.041C291.063 178.316 292.184 178.464 293.278 178.486C294.412 178.527 295.537 178.352 296.654 177.958C297.831 177.544 298.642 177.004 299.086 176.339C299.56 175.663 299.649 174.902 299.351 174.057C299.032 173.151 298.531 172.548 297.848 172.245C297.195 171.932 296.429 171.829 295.551 171.935C294.672 172.041 293.75 172.264 292.784 172.604L291.063 173.21L288.656 166.373L290.467 165.735C292.64 164.97 294.689 164.622 296.613 164.691C298.547 164.79 300.238 165.399 301.684 166.518C303.17 167.657 304.333 169.419 305.173 171.803C306.311 175.033 306.321 177.76 305.205 179.985C304.088 182.21 302.006 183.86 298.958 184.933C297.479 185.454 296.026 185.711 294.598 185.705C293.202 185.688 291.782 185.509 290.339 185.169C288.937 184.849 287.468 184.484 285.933 184.075L272.806 180.759L276.649 191.67L271.125 193.615L264.524 174.871Z" fill="#553B92"/>
</g>
<g opacity="0.7">
<path d="M302.099 261.476L311.244 277.96C311.349 277.791 311.509 277.581 311.723 277.329C311.929 277.104 312.152 276.848 312.391 276.561C312.639 276.29 312.87 276.029 313.084 275.778C313.308 275.543 313.477 275.35 313.592 275.198L315.195 278.089C315.049 278.303 314.853 278.588 314.609 278.945C314.348 279.311 314.079 279.703 313.803 280.122C313.526 280.54 313.285 280.962 313.078 281.386C312.854 281.82 312.706 282.189 312.632 282.496L309.589 284.184L298.194 263.643L302.099 261.476ZM289.082 268.3C290.435 267.55 291.662 267.211 292.764 267.285C293.876 267.376 294.876 267.805 295.766 268.571C296.639 269.347 297.417 270.353 298.102 271.587C298.412 272.145 298.652 272.697 298.822 273.243C298.993 273.79 299.089 274.322 299.111 274.841C299.134 275.359 299.085 275.85 298.967 276.314C298.841 276.804 298.631 277.263 298.338 277.691C299.121 277.787 299.925 278.081 300.751 278.574C301.57 279.093 302.302 279.914 302.947 281.037C303.592 282.16 303.945 283.236 304.007 284.263C304.078 285.307 303.846 286.264 303.312 287.135C302.778 288.006 301.937 288.761 300.787 289.399C299.621 290.046 298.535 290.36 297.53 290.343C296.509 290.335 295.582 290.02 294.751 289.398C293.929 288.793 293.212 287.919 292.6 286.777C291.98 285.618 291.666 284.554 291.659 283.585C291.644 282.642 291.817 281.817 292.176 281.109C291.657 281.132 291.165 281.062 290.7 280.9C290.227 280.765 289.776 280.55 289.348 280.257C288.92 279.964 288.519 279.6 288.146 279.166C287.756 278.742 287.406 278.25 287.096 277.692C286.378 276.477 285.937 275.284 285.775 274.114C285.595 272.954 285.761 271.878 286.272 270.887C286.776 269.922 287.713 269.06 289.082 268.3ZM290.7 271.216C290.21 271.488 289.94 271.859 289.891 272.328C289.842 272.798 289.919 273.296 290.124 273.824C290.328 274.352 290.557 274.844 290.81 275.3C291.093 275.851 291.418 276.356 291.784 276.816C292.133 277.286 292.515 277.616 292.93 277.806C293.345 277.996 293.797 277.955 294.287 277.683C294.761 277.42 295.035 277.058 295.111 276.596C295.169 276.143 295.1 275.64 294.903 275.086C294.699 274.558 294.442 274.015 294.132 273.457C293.879 273.001 293.578 272.538 293.229 272.068C292.889 271.616 292.507 271.286 292.083 271.079C291.651 270.898 291.19 270.944 290.7 271.216ZM296.06 280.878C295.722 281.065 295.522 281.342 295.46 281.708C295.38 282.084 295.422 282.537 295.583 283.066C295.744 283.596 296.003 284.182 296.359 284.824C296.762 285.551 297.204 286.069 297.685 286.377C298.158 286.712 298.648 286.738 299.155 286.457C299.662 286.176 299.916 285.736 299.916 285.139C299.909 284.568 299.709 283.928 299.315 283.218C298.958 282.575 298.602 282.032 298.245 281.589C297.881 281.172 297.519 280.898 297.159 280.766C296.781 280.644 296.415 280.681 296.06 280.878Z" fill="#553B92"/>
</g>
<g opacity="0.7">
<path d="M240.692 316.559L244.385 318.852L247.369 314.045L249.733 315.512L256.945 325.701L254.761 329.218L244.932 323.117L243.986 324.641L241.68 323.21L242.626 321.685L238.933 319.393L240.692 316.559ZM248.195 317.86L246.691 320.283L253.413 324.456L248.195 317.86Z" fill="#553B92"/>
</g>
<g opacity="0.7">
<path d="M85.8036 272.098C85.982 273.265 85.8704 274.26 85.4686 275.081C85.0494 275.89 84.4117 276.538 83.5556 277.026C82.6971 277.498 81.6843 277.824 80.5172 278.002L73.9694 279.004C72.7719 279.187 71.6749 279.215 70.6783 279.088C69.6794 278.946 68.8526 278.561 68.198 277.932C67.5434 277.303 67.1153 276.329 66.9137 275.01C66.7398 273.873 66.7838 272.944 67.0456 272.221C67.2899 271.486 67.7375 270.913 68.3884 270.503C69.0393 270.094 69.8725 269.811 70.888 269.656C70.9335 269.649 70.9865 269.641 71.0471 269.632C71.0903 269.609 71.1346 269.595 71.1801 269.588L71.6877 272.907C70.9146 273.026 70.3503 273.189 69.9945 273.399C69.6388 273.608 69.5049 274.001 69.593 274.577C69.6486 274.941 69.8063 275.212 70.0661 275.389C70.3236 275.551 70.7322 275.636 71.2917 275.644C71.8338 275.638 72.5747 275.564 73.5145 275.42L75.4015 275.132C75.0379 274.985 74.7339 274.722 74.4895 274.34C74.2427 273.944 74.07 273.474 73.9714 272.93C73.7927 271.965 73.8943 271.158 74.2761 270.511C74.6404 269.85 75.2121 269.328 75.9912 268.945C76.7552 268.565 77.6449 268.297 78.6604 268.142C79.9033 267.952 81.0329 267.934 82.0494 268.089C83.0658 268.244 83.9024 268.643 84.5593 269.287C85.1988 269.918 85.6135 270.855 85.8036 272.098ZM83.182 272.453C83.1241 272.074 82.9524 271.813 82.6669 271.671C82.3791 271.513 81.9956 271.44 81.5165 271.451C81.035 271.447 80.4608 271.496 79.7939 271.598C79.1573 271.695 78.6075 271.803 78.1446 271.92C77.6642 272.024 77.3027 272.196 77.06 272.435C76.8173 272.674 76.7307 273.02 76.8002 273.475C76.8327 273.687 76.9094 273.885 77.0305 274.068C77.1341 274.238 77.2645 274.381 77.4218 274.497C77.5639 274.615 77.709 274.701 77.857 274.756L80.7899 274.308C81.2446 274.238 81.6708 274.134 82.0685 273.996C82.4486 273.845 82.7438 273.644 82.9538 273.395C83.1639 273.146 83.24 272.832 83.182 272.453Z" fill="#553B92"/>
</g>
<g opacity="0.7">
<path d="M254.143 107.057C252.448 106.93 251.175 106.524 250.324 105.838C249.473 105.152 248.92 104.238 248.664 103.096C248.429 101.955 248.368 100.637 248.48 99.1411L252.938 99.4758C252.872 100.353 252.866 101.095 252.921 101.701C252.996 102.308 253.161 102.772 253.418 103.092C253.695 103.414 254.123 103.586 254.703 103.61C255.283 103.633 255.718 103.445 256.009 103.046C256.3 102.647 256.504 102.06 256.622 101.287C256.741 100.514 256.839 99.5984 256.919 98.5414C256.983 97.6838 256.99 96.9222 256.94 96.2565C256.89 95.5909 256.729 95.0574 256.458 94.656C256.208 94.2561 255.783 94.0337 255.185 93.9887C254.646 93.9483 254.183 94.1041 253.796 94.456C253.428 94.8095 253.139 95.3293 252.927 96.0153L248.978 95.7188L250.34 81.9822L261.469 82.818L261.17 86.7968L253.841 86.2463L253.169 91.581C253.431 91.2999 253.85 91.0705 254.425 90.8931C255.019 90.7172 255.647 90.634 256.309 90.6435C257.574 90.6182 258.593 90.9354 259.366 91.5951C260.159 92.2563 260.71 93.1903 261.021 94.3969C261.333 95.5836 261.426 97.0146 261.3 98.6899C261.204 99.9663 261.035 101.147 260.793 102.232C260.553 103.297 260.173 104.211 259.655 104.974C259.138 105.718 258.434 106.277 257.543 106.651C256.653 107.025 255.519 107.161 254.143 107.057Z" fill="#553B92"/>
</g>
<g opacity="0.7">
<path d="M132.894 145.647C131.117 147.491 129.339 148.621 127.559 149.039C125.756 149.434 123.964 149.241 122.185 148.459C120.427 147.654 118.707 146.441 117.025 144.82C116.265 144.087 115.617 143.33 115.082 142.547C114.548 141.765 114.137 140.969 113.85 140.16C113.564 139.351 113.402 138.55 113.365 137.759C113.327 136.922 113.436 136.094 113.692 135.275C112.406 135.502 110.991 135.426 109.445 135.047C107.898 134.623 106.341 133.679 104.776 132.214C103.21 130.749 102.129 129.219 101.534 127.623C100.915 126.005 100.817 124.378 101.24 122.74C101.662 121.103 102.628 119.501 104.138 117.934C105.671 116.345 107.236 115.32 108.834 114.86C110.455 114.378 112.074 114.427 113.691 115.008C115.286 115.567 116.844 116.602 118.366 118.113C119.91 119.646 120.923 121.178 121.404 122.708C121.884 124.192 122.011 125.582 121.786 126.876C122.596 126.59 123.408 126.461 124.223 126.492C125.038 126.477 125.855 126.597 126.674 126.854C127.494 127.11 128.304 127.491 129.105 127.997C129.929 128.48 130.721 129.087 131.481 129.82C133.208 131.395 134.484 133.069 135.308 134.842C136.155 136.591 136.415 138.374 136.086 140.191C135.757 141.962 134.693 143.781 132.894 145.647ZM128.919 141.817C129.563 141.149 129.81 140.431 129.66 139.664C129.51 138.898 129.146 138.146 128.566 137.41C127.987 136.674 127.386 136.006 126.764 135.407C126.049 134.673 125.29 134.031 124.488 133.48C123.708 132.906 122.944 132.569 122.195 132.47C121.446 132.37 120.75 132.655 120.106 133.323C119.484 133.968 119.226 134.675 119.33 135.442C119.457 136.187 119.811 136.949 120.391 137.731C120.97 138.467 121.64 139.201 122.401 139.934C123.023 140.534 123.724 141.121 124.504 141.695C125.261 142.246 126.025 142.583 126.797 142.705C127.568 142.781 128.275 142.485 128.919 141.817ZM115.751 129.126C116.195 128.665 116.378 128.13 116.299 127.521C116.242 126.888 115.957 126.192 115.445 125.432C114.933 124.672 114.24 123.87 113.364 123.026C112.373 122.071 111.423 121.466 110.513 121.211C109.602 120.911 108.814 121.107 108.148 121.798C107.481 122.489 107.293 123.308 107.582 124.253C107.87 125.153 108.498 126.069 109.466 127.002C110.341 127.845 111.169 128.532 111.948 129.061C112.726 129.544 113.433 129.803 114.067 129.836C114.724 129.847 115.285 129.61 115.751 129.126Z" fill="#553B92"/>
</g>
<g opacity="0.7">
<path d="M167.512 82.8502L176.179 65.382C175.973 65.3916 175.7 65.379 175.36 65.3443C175.047 65.3005 174.698 65.2613 174.313 65.2267C173.938 65.1742 173.58 65.1306 173.24 65.0959C172.909 65.0433 172.645 65.0128 172.448 65.0044L173.968 61.9408C174.236 61.9399 174.594 61.9388 175.041 61.9375C175.506 61.945 175.998 61.9434 176.517 61.9329C177.036 61.9223 177.536 61.8805 178.019 61.8075C178.52 61.7433 178.922 61.6527 179.226 61.5354L182.451 63.1354L171.651 84.9035L167.512 82.8502ZM180.78 89.9018C179.257 89.1462 178.23 88.2907 177.7 87.3353C177.169 86.3799 177 85.325 177.193 84.1706C177.405 83.0251 177.843 81.7805 178.51 80.4367L182.514 82.4234C182.123 83.2117 181.839 83.8968 181.662 84.4788C181.503 85.0696 181.482 85.5616 181.6 85.9548C181.735 86.3569 182.067 86.6778 182.595 86.9177C183.124 87.1576 183.598 87.1471 184.017 86.8865C184.437 86.6258 184.847 86.1594 185.247 85.4873C185.648 84.8153 186.084 84.0045 186.555 83.0549C186.937 82.2845 187.23 81.5815 187.434 80.9458C187.637 80.3101 187.689 79.7554 187.589 79.2817C187.508 78.8168 187.198 78.4511 186.66 78.1844C186.177 77.9444 185.689 77.9146 185.198 78.095C184.724 78.2843 184.26 78.6569 183.806 79.2129L180.258 77.4529L186.687 65.2374L196.685 70.1975L194.911 73.7717L188.327 70.505L185.699 75.1955C186.047 75.0334 186.521 74.9783 187.12 75.0301C187.738 75.0908 188.351 75.2499 188.96 75.5074C190.142 75.9599 190.967 76.6372 191.435 77.5391C191.92 78.4499 192.08 79.5227 191.914 80.7576C191.757 81.9745 191.305 83.3354 190.558 84.8404C189.989 85.987 189.389 87.0174 188.757 87.9317C188.133 88.8281 187.438 89.5323 186.67 90.0445C185.911 90.5388 185.049 90.7919 184.083 90.8039C183.117 90.8158 182.016 90.5151 180.78 89.9018Z" fill="#553B92"/>
</g>
<defs>
<filter id="filter0_d_17_1027" x="152.069" y="173.434" width="65.6746" height="64.6498" filterUnits="userSpaceOnUse" color-interpolation-filters="sRGB">
<feFlood flood-opacity="0" result="BackgroundImageFix"/>
<feColorMatrix in="SourceAlpha" type="matrix" values="0 0 0 0 0 0 0 0 0 0 0 0 0 0 0 0 0 0 127 0" result="hardAlpha"/>
<feOffset/>
<feComposite in2="hardAlpha" operator="out"/>
<feColorMatrix type="matrix" values="0 0 0 0 0.264705 0 0 0 0 0.318651 0 0 0 0 0.804167 0 0 0 0.8 0"/>
<feBlend mode="normal" in2="BackgroundImageFix" result="effect1_dropShadow_17_1027"/>
<feBlend mode="normal" in="SourceGraphic" in2="effect1_dropShadow_17_1027" result="shape"/>
</filter>
</defs>
</svg>
