<svg width="378" height="642" viewBox="0 0 378 642" fill="none" xmlns="http://www.w3.org/2000/svg">
<path d="M354.922 160.459L230.843 38.1787L67.0765 83.3313L23.4655 246.09L142.327 368.525L311.311 323.218L354.922 160.459Z" fill="#F5F5FA" stroke="#553B92" stroke-width="10"/>
<path d="M213.373 103.379L262.042 288.793M213.373 103.379L354.922 160.459M213.373 103.379L230.843 38.1787M213.373 103.379L67.0765 83.3313M213.373 103.379L79.4824 239.876M262.042 288.793L354.922 160.459M262.042 288.793L79.4824 239.876M262.042 288.793L142.327 368.525M262.042 288.793L311.311 323.218M354.922 160.459L230.843 38.1787M354.922 160.459L311.311 323.218M230.843 38.1787L67.0765 83.3313M311.311 323.218L142.327 368.525M142.327 368.525L23.4655 246.09M142.327 368.525L79.4824 239.876M23.4655 246.09L67.0765 83.3313M23.4655 246.09L79.4824 239.876M67.0765 83.3313L79.4824 239.876" stroke="#553B92" stroke-width="10"/>
<circle cx="213.114" cy="104.344" r="9.5" transform="rotate(15 213.114 104.344)" stroke="#553B92" stroke-width="6"/>
<circle cx="261.465" cy="287.087" r="9.5" transform="rotate(15 261.465 287.087)" stroke="#553B92" stroke-width="6"/>
<circle cx="80.8369" cy="238.684" r="9.5" transform="rotate(15 80.8369 238.684)" stroke="#553B92" stroke-width="6"/>
<g filter="url(#filter0_d_17_512)">
<path d="M169.463 228.787L191.435 188.824L177.773 185.163L179.728 177.869L202.724 184.031L201.035 190.336L178.736 231.272L169.463 228.787Z" fill="#553B92"/>
</g>
<g opacity="0.7">
<path d="M68.9472 210.314C69.2995 211.874 69.2789 213.191 68.8855 214.264C68.4726 215.341 67.7563 216.21 66.7368 216.871C65.7129 217.512 64.4888 217.994 63.0646 218.315C62.4208 218.46 61.8028 218.538 61.2106 218.549C60.6184 218.56 60.0618 218.501 59.5408 218.372C59.0197 218.244 58.5461 218.054 58.1201 217.801C57.6702 217.534 57.2753 217.192 56.9355 216.777C56.6126 217.526 56.0868 218.24 55.358 218.917C54.6052 219.579 53.5775 220.067 52.2748 220.382C50.9721 220.696 49.8019 220.735 48.7642 220.497C47.7069 220.264 46.8234 219.757 46.1136 218.974C45.4038 218.191 44.8992 217.136 44.5997 215.809C44.2959 214.463 44.2985 213.294 44.6076 212.301C44.9122 211.29 45.4941 210.461 46.3532 209.816C47.1927 209.176 48.2683 208.717 49.5798 208.442C50.9108 208.162 52.0584 208.159 53.0225 208.434C53.9626 208.693 54.7319 209.104 55.3304 209.666C55.4588 209.145 55.6709 208.677 55.9667 208.261C56.2386 207.831 56.5823 207.446 56.9976 207.106C57.413 206.766 57.8904 206.474 58.4297 206.229C58.9647 205.965 59.554 205.76 60.1978 205.615C61.6132 205.254 62.9253 205.163 64.1342 205.341C65.3387 205.5 66.3588 205.977 67.1945 206.773C68.0063 207.553 68.5905 208.733 68.9472 210.314ZM65.5818 211.073C65.4541 210.507 65.1644 210.132 64.7125 209.947C64.2607 209.762 63.7431 209.694 63.1597 209.744C62.5763 209.794 62.0213 209.878 61.4945 209.997C60.8658 210.118 60.2698 210.294 59.7066 210.523C59.1389 210.733 58.7006 211.017 58.3916 211.374C58.0825 211.73 57.9919 212.192 58.1196 212.758C58.2429 213.304 58.5229 213.681 58.9596 213.89C59.392 214.08 59.9118 214.157 60.5191 214.123C61.1024 214.073 61.716 213.976 62.3598 213.83C62.8866 213.711 63.4338 213.547 64.0014 213.337C64.5496 213.131 64.9879 212.847 65.3165 212.486C65.6211 212.11 65.7095 211.639 65.5818 211.073ZM54.4323 213.59C54.3443 213.2 54.1275 212.921 53.782 212.752C53.4321 212.565 52.9708 212.474 52.3982 212.481C51.8255 212.487 51.1685 212.574 50.4271 212.741C49.5882 212.93 48.946 213.219 48.5004 213.606C48.0309 213.979 47.8622 214.458 47.9943 215.043C48.1264 215.628 48.4889 216.008 49.0817 216.182C49.6506 216.34 50.3447 216.327 51.1641 216.142C51.9054 215.975 52.548 215.778 53.0917 215.553C53.6116 215.313 53.9892 215.033 54.2246 214.713C54.4556 214.374 54.5248 214 54.4323 213.59Z" fill="#553B92"/>
</g>
<g opacity="0.7">
<path d="M178.265 293.262L170.189 323.399C170.509 323.319 170.941 323.252 171.485 323.199C171.99 323.169 172.55 323.12 173.164 323.053C173.77 323.017 174.345 322.972 174.89 322.919C175.426 322.897 175.849 322.861 176.161 322.812L174.744 328.098C174.324 328.184 173.763 328.299 173.062 328.442C172.33 328.577 171.559 328.735 170.749 328.915C169.938 329.096 169.166 329.32 168.432 329.587C167.667 329.846 167.065 330.115 166.625 330.395L161.062 328.904L171.124 291.349L178.265 293.262ZM155.226 286.393C157.854 287.097 159.734 288.114 160.868 289.445C162.003 290.776 162.601 292.378 162.662 294.249C162.693 296.113 162.398 298.204 161.777 300.522L154.868 298.671C155.233 297.311 155.462 296.146 155.556 295.178C155.619 294.201 155.496 293.422 155.188 292.843C154.848 292.255 154.226 291.856 153.321 291.647C152.417 291.438 151.677 291.604 151.101 292.145C150.525 292.687 150.029 293.548 149.614 294.728C149.198 295.909 148.771 297.318 148.332 298.957C147.975 300.286 147.738 301.481 147.619 302.542C147.5 303.604 147.594 304.49 147.9 305.202C148.176 305.905 148.777 306.381 149.704 306.629C150.539 306.853 151.313 306.746 152.027 306.308C152.71 305.861 153.32 305.13 153.857 304.114L159.977 305.754L153.752 326.945L136.505 322.324L138.157 316.157L149.516 319.201L152.157 311.014C151.662 311.378 150.936 311.614 149.98 311.722C148.992 311.822 147.98 311.766 146.944 311.555C144.947 311.218 143.439 310.417 142.42 309.15C141.37 307.875 140.781 306.243 140.651 304.253C140.513 302.295 140.792 300.017 141.488 297.421C142.018 295.443 142.634 293.637 143.337 292.003C144.032 290.4 144.9 289.076 145.942 288.03C146.976 287.015 148.249 286.346 149.76 286.022C151.271 285.698 153.093 285.822 155.226 286.393Z" fill="#553B92"/>
</g>
<g opacity="0.7">
<path d="M267.115 182.228L296.544 171.865C296.297 171.646 295.998 171.328 295.647 170.908C295.337 170.509 294.98 170.075 294.578 169.606C294.205 169.126 293.844 168.677 293.492 168.258C293.171 167.828 292.903 167.498 292.686 167.269L297.848 165.452C298.156 165.75 298.568 166.148 299.082 166.645C299.607 167.173 300.173 167.72 300.78 168.287C301.387 168.853 302.007 169.364 302.643 169.819C303.288 170.304 303.851 170.649 304.33 170.853L306.243 176.286L269.571 189.201L267.115 182.228Z" fill="#553B92"/>
</g>
<g opacity="0.7">
<path d="M301.662 261.719L310.807 278.202C310.912 278.034 311.072 277.823 311.286 277.572C311.492 277.347 311.715 277.09 311.954 276.803C312.202 276.533 312.433 276.272 312.647 276.021C312.871 275.786 313.04 275.593 313.154 275.441L314.758 278.332C314.612 278.546 314.416 278.831 314.172 279.188C313.911 279.554 313.642 279.946 313.366 280.364C313.089 280.783 312.848 281.204 312.641 281.629C312.417 282.062 312.269 282.432 312.195 282.738L309.152 284.426L297.757 263.886L301.662 261.719ZM288.668 268.464C290.037 267.704 291.268 267.353 292.361 267.41C293.446 267.493 294.424 267.901 295.295 268.634C296.176 269.384 296.953 270.367 297.629 271.584L298.037 272.32L294.131 274.486C294.113 274.452 294.061 274.359 293.977 274.207C293.902 274.072 293.827 273.937 293.751 273.802C293.369 273.152 293.013 272.63 292.685 272.238C292.349 271.871 292.002 271.644 291.643 271.555C291.285 271.467 290.885 271.545 290.446 271.788C289.989 272.042 289.712 272.339 289.614 272.681C289.526 273.039 289.561 273.462 289.721 273.948C289.88 274.435 290.138 274.999 290.494 275.642C291.066 276.673 291.659 277.383 292.273 277.772C292.896 278.178 293.669 278.136 294.591 277.647C294.608 277.638 294.693 277.591 294.845 277.506C294.997 277.422 295.141 277.342 295.276 277.267L296.88 280.158C296.778 280.214 296.677 280.271 296.576 280.327C296.457 280.392 296.356 280.449 296.271 280.496C295.358 281.002 294.877 281.59 294.828 282.258C294.762 282.936 295.02 283.799 295.601 284.847C296.051 285.659 296.521 286.227 297.011 286.552C297.501 286.877 298.067 286.862 298.71 286.505C299.352 286.149 299.634 285.661 299.556 285.041C299.477 284.421 299.226 283.709 298.802 282.905C298.727 282.77 298.643 282.618 298.549 282.449C298.464 282.297 298.38 282.145 298.296 281.993L302.201 279.826L302.82 280.942C303.486 282.142 303.829 283.278 303.849 284.351C303.878 285.44 303.609 286.429 303.041 287.319C302.474 288.209 301.607 288.977 300.44 289.624C299.274 290.272 298.159 290.614 297.096 290.65C296.033 290.687 295.065 290.417 294.193 289.84C293.303 289.273 292.525 288.389 291.859 287.188C291.193 285.988 290.893 284.85 290.96 283.774C291.009 282.707 291.336 281.863 291.941 281.239C291.341 281.352 290.738 281.321 290.133 281.148C289.529 280.975 288.934 280.62 288.348 280.082C287.772 279.562 287.216 278.82 286.682 277.856C285.997 276.622 285.565 275.425 285.386 274.264C285.215 273.12 285.386 272.053 285.897 271.062C286.409 270.071 287.332 269.205 288.668 268.464Z" fill="#553B92"/>
</g>
<g opacity="0.7">
<path d="M240.692 316.559L244.385 318.852L247.369 314.045L249.733 315.512L256.945 325.701L254.761 329.218L244.932 323.117L243.986 324.641L241.68 323.209L242.626 321.685L238.933 319.393L240.692 316.559ZM248.195 317.86L246.691 320.283L253.413 324.456L248.195 317.86Z" fill="#553B92"/>
</g>
<g opacity="0.7">
<path d="M85.8036 272.098C85.982 273.265 85.8704 274.26 85.4686 275.081C85.0494 275.89 84.4117 276.538 83.5556 277.026C82.6971 277.498 81.6843 277.824 80.5172 278.002L73.9694 279.004C72.7719 279.187 71.6749 279.215 70.6783 279.088C69.6794 278.946 68.8526 278.561 68.198 277.932C67.5434 277.303 67.1153 276.329 66.9137 275.01C66.7398 273.873 66.7838 272.944 67.0456 272.221C67.2899 271.486 67.7375 270.913 68.3884 270.503C69.0393 270.094 69.8725 269.811 70.888 269.656C70.9335 269.649 70.9865 269.641 71.0471 269.632C71.0903 269.609 71.1346 269.595 71.1801 269.588L71.6877 272.907C70.9146 273.026 70.3503 273.189 69.9945 273.399C69.6388 273.608 69.5049 274.001 69.593 274.577C69.6486 274.941 69.8063 275.212 70.0661 275.389C70.3236 275.551 70.7322 275.636 71.2917 275.644C71.8338 275.638 72.5747 275.564 73.5145 275.42L75.4015 275.132C75.0379 274.985 74.7339 274.722 74.4895 274.34C74.2427 273.944 74.07 273.474 73.9714 272.93C73.7927 271.965 73.8943 271.158 74.2761 270.511C74.6404 269.85 75.2121 269.328 75.9912 268.945C76.7552 268.565 77.6449 268.297 78.6604 268.142C79.9033 267.952 81.0329 267.934 82.0494 268.089C83.0658 268.244 83.9024 268.643 84.5593 269.287C85.1988 269.918 85.6135 270.855 85.8036 272.098ZM83.182 272.453C83.1241 272.074 82.9524 271.813 82.6669 271.671C82.3791 271.513 81.9956 271.44 81.5165 271.451C81.035 271.447 80.4608 271.496 79.7939 271.598C79.1573 271.695 78.6075 271.803 78.1446 271.92C77.6642 272.024 77.3027 272.196 77.06 272.435C76.8173 272.674 76.7307 273.02 76.8002 273.475C76.8327 273.687 76.9094 273.885 77.0305 274.068C77.1341 274.238 77.2645 274.381 77.4218 274.497C77.5639 274.615 77.709 274.701 77.857 274.756L80.7899 274.308C81.2446 274.238 81.6708 274.134 82.0685 273.996C82.4486 273.845 82.7438 273.644 82.9538 273.395C83.1639 273.146 83.24 272.832 83.182 272.453Z" fill="#553B92"/>
</g>
<g opacity="0.7">
<path d="M245.298 107.721L246.758 88.2758C246.571 88.3621 246.314 88.453 245.986 88.5487C245.679 88.626 245.341 88.7209 244.971 88.8336C244.603 88.9263 244.255 89.0205 243.927 89.1162C243.601 89.1919 243.345 89.263 243.159 89.3293L243.415 85.9189C243.664 85.8172 243.995 85.6816 244.409 85.5121C244.842 85.3441 245.298 85.1577 245.774 84.9528C246.251 84.7479 246.699 84.5209 247.119 84.2716C247.559 84.0239 247.897 83.7885 248.135 83.5657L251.725 83.8353L249.905 108.067L245.298 107.721ZM260.43 109.188C258.934 109.076 257.755 108.757 256.892 108.231C256.03 107.685 255.434 106.938 255.104 105.991C254.776 105.023 254.662 103.872 254.762 102.535C254.767 102.475 254.771 102.416 254.776 102.356C254.78 102.296 254.785 102.236 254.789 102.176L259.157 102.504C259.081 103.521 259.123 104.287 259.285 104.8C259.467 105.315 259.947 105.602 260.725 105.661C261.204 105.697 261.584 105.575 261.866 105.295C262.147 105.015 262.365 104.52 262.519 103.81C262.672 103.099 262.795 102.136 262.886 100.919L263.073 98.4361C262.76 98.8539 262.326 99.1623 261.77 99.3612C261.213 99.56 260.585 99.6432 259.886 99.6108C258.588 99.5334 257.574 99.1463 256.844 98.4497C256.116 97.7332 255.623 96.8137 255.366 95.6913C255.13 94.5704 255.062 93.3419 255.162 92.0057C255.286 90.3503 255.603 88.9301 256.114 87.745C256.624 86.5598 257.383 85.6642 258.391 85.058C259.419 84.4533 260.721 84.2101 262.297 84.3284C263.833 84.4438 265.054 84.8664 265.962 85.5965C266.872 86.3066 267.502 87.2565 267.854 88.4462C268.206 89.6359 268.324 91.0085 268.207 92.5641L267.544 101.389C267.426 102.965 267.14 104.367 266.686 105.597C266.233 106.826 265.511 107.765 264.519 108.413C263.528 109.06 262.165 109.319 260.43 109.188ZM261.437 96.1773C261.896 96.2118 262.274 96.1198 262.571 95.9015C262.89 95.6646 263.138 95.4326 263.315 95.2052L263.605 91.3461C263.651 90.7278 263.644 90.1557 263.583 89.6297C263.523 89.1036 263.375 88.6713 263.139 88.3328C262.904 87.9942 262.537 87.8062 262.039 87.7687C261.54 87.7313 261.148 87.8724 260.864 88.1919C260.579 88.5115 260.363 88.9767 260.217 89.5875C260.091 90.1997 259.995 90.9446 259.929 91.8221C259.868 92.6398 259.843 93.37 259.855 94.0127C259.867 94.6554 259.979 95.1653 260.191 95.5422C260.423 95.9207 260.839 96.1324 261.437 96.1773Z" fill="#553B92"/>
</g>
<g opacity="0.7">
<path d="M123.378 154.692L100.913 133.041C100.828 133.359 100.677 133.769 100.46 134.271C100.242 134.728 100.014 135.241 99.7755 135.812C99.5141 136.36 99.2748 136.885 99.0578 137.386C98.8177 137.866 98.6438 138.254 98.5361 138.55L94.596 134.753C94.7243 134.343 94.8952 133.797 95.1089 133.114C95.3448 132.408 95.5799 131.657 95.8142 130.861C96.0484 130.064 96.2263 129.28 96.3478 128.508C96.4916 127.714 96.5473 127.056 96.5151 126.536L100.512 122.389L128.507 149.369L123.378 154.692ZM134.025 143.644L115.771 114.719L108.409 122.357L104.331 118.427L116.722 105.569L120.247 108.967L139.021 138.46L134.025 143.644Z" fill="#553B92"/>
</g>
<g opacity="0.7">
<path d="M167.045 82.7968L175.711 65.3286C175.506 65.3381 175.233 65.3256 174.893 65.2908C174.58 65.2471 174.231 65.2079 173.846 65.1733C173.47 65.1208 173.112 65.0772 172.772 65.0425C172.441 64.9898 172.177 64.9594 171.98 64.951L173.5 61.8874C173.769 61.8865 174.126 61.8854 174.574 61.884C175.039 61.8916 175.531 61.89 176.049 61.8795C176.568 61.8689 177.069 61.8271 177.552 61.7541C178.052 61.6899 178.455 61.5992 178.758 61.482L181.983 63.082L171.183 84.8501L167.045 82.7968ZM180.85 90.115C179.542 89.4661 178.591 88.6596 177.998 87.6955C177.405 86.7313 177.124 85.6767 177.156 84.5318C177.198 83.3689 177.525 82.1693 178.138 80.9331L182.978 71.1778C183.609 69.9058 184.366 68.8972 185.25 68.1521C186.142 67.389 187.151 66.9521 188.278 66.8413C189.404 66.7305 190.64 67.0084 191.983 67.6751C193.309 68.3329 194.26 69.1394 194.835 70.0947C195.428 71.0588 195.691 72.1268 195.623 73.2988C195.564 74.4528 195.219 75.6658 194.588 76.9378L189.748 86.6931C189.134 87.9294 188.377 88.9156 187.476 89.6518C186.584 90.3701 185.575 90.7847 184.448 90.8955C183.321 91.0063 182.122 90.7461 180.85 90.115ZM182.663 86.4601C183.147 86.7001 183.572 86.7212 183.938 86.5233C184.304 86.3254 184.625 86.0382 184.901 85.6616C185.186 85.2672 185.418 84.8908 185.595 84.5325L190.355 74.9384C190.551 74.5443 190.72 74.1144 190.861 73.6489C191.021 73.1922 191.069 72.7583 191.005 72.347C190.95 71.9179 190.672 71.5789 190.17 71.33C189.668 71.0811 189.221 71.0601 188.828 71.267C188.462 71.465 188.136 71.7611 187.851 72.1556C187.584 72.5589 187.353 72.9576 187.157 73.3518L182.397 82.9458C182.22 83.3042 182.06 83.7161 181.918 84.1816C181.785 84.6293 181.76 85.0631 181.842 85.4833C181.924 85.9034 182.197 86.229 182.663 86.4601Z" fill="#553B92"/>
</g>
<defs>
<filter id="filter0_d_17_512" x="166.311" y="177.869" width="36.4138" height="56.2356" filterUnits="userSpaceOnUse" color-interpolation-filters="sRGB">
<feFlood flood-opacity="0" result="BackgroundImageFix"/>
<feColorMatrix in="SourceAlpha" type="matrix" values="0 0 0 0 0 0 0 0 0 0 0 0 0 0 0 0 0 0 127 0" result="hardAlpha"/>
<feOffset/>
<feComposite in2="hardAlpha" operator="out"/>
<feColorMatrix type="matrix" values="0 0 0 0 0.264705 0 0 0 0 0.318651 0 0 0 0 0.804167 0 0 0 0.8 0"/>
<feBlend mode="normal" in2="BackgroundImageFix" result="effect1_dropShadow_17_512"/>
<feBlend mode="normal" in="SourceGraphic" in2="effect1_dropShadow_17_512" result="shape"/>
</filter>
</defs>
</svg>
