<svg width="685" height="1199" viewBox="0 0 685 1199" fill="none" xmlns="http://www.w3.org/2000/svg">
<path d="M507.922 160.459L383.843 38.1787L220.077 83.3313L176.466 246.09L295.327 368.525L464.311 323.218L507.922 160.459Z" fill="#F5F5FA" stroke="#553B92" stroke-width="10"/>
<path d="M366.373 103.379L415.042 288.793M366.373 103.379L507.922 160.459M366.373 103.379L383.843 38.1787M366.373 103.379L220.077 83.3313M366.373 103.379L232.482 239.876M415.042 288.793L507.922 160.459M415.042 288.793L232.482 239.876M415.042 288.793L295.327 368.525M415.042 288.793L464.311 323.218M507.922 160.459L383.843 38.1787M507.922 160.459L464.311 323.218M383.843 38.1787L220.077 83.3313M464.311 323.218L295.327 368.525M295.327 368.525L176.466 246.09M295.327 368.525L232.482 239.876M176.466 246.09L220.077 83.3313M176.466 246.09L232.482 239.876M220.077 83.3313L232.482 239.876" stroke="#553B92" stroke-width="10"/>
<circle cx="366.114" cy="104.344" r="9.5" transform="rotate(15 366.114 104.344)" stroke="#553B92" stroke-width="6"/>
<circle cx="414.465" cy="287.087" r="9.5" transform="rotate(15 414.465 287.087)" stroke="#553B92" stroke-width="6"/>
<circle cx="233.837" cy="238.684" r="9.5" transform="rotate(15 233.837 238.684)" stroke="#553B92" stroke-width="6"/>
<g filter="url(#filter0_d_17_227)">
<path d="M331.006 232.004C327.503 231.065 324.995 229.708 323.483 227.934C321.971 226.159 321.173 224.024 321.091 221.529C321.05 219.044 321.444 216.256 322.272 213.165L331.483 215.633C330.997 217.447 330.692 218.999 330.566 220.291C330.482 221.593 330.646 222.631 331.057 223.404C331.51 224.188 332.339 224.719 333.546 224.998C334.752 225.277 335.739 225.056 336.506 224.334C337.274 223.612 337.935 222.464 338.489 220.89C339.044 219.316 339.613 217.436 340.199 215.252C340.674 213.48 340.99 211.886 341.148 210.471C341.307 209.056 341.182 207.874 340.773 206.925C340.406 205.988 339.605 205.353 338.368 205.022C337.255 204.724 336.223 204.867 335.272 205.451C334.361 206.046 333.548 207.021 332.832 208.375L324.671 206.189L332.971 177.934L355.968 184.096L353.765 192.318L338.619 188.26L335.098 199.176C335.758 198.69 336.726 198.376 338.001 198.231C339.318 198.098 340.667 198.173 342.049 198.455C344.712 198.903 346.722 199.972 348.081 201.661C349.481 203.361 350.267 205.538 350.439 208.19C350.623 210.801 350.251 213.838 349.324 217.3C348.617 219.937 347.795 222.345 346.858 224.524C345.932 226.661 344.774 228.427 343.385 229.821C342.006 231.174 340.309 232.067 338.294 232.499C336.279 232.931 333.85 232.766 331.006 232.004Z" fill="#553B92"/>
</g>
<g opacity="0.7">
<path d="M223.69 219.669L204.668 223.963C204.806 224.116 204.968 224.336 205.155 224.622C205.319 224.892 205.509 225.188 205.725 225.508C205.921 225.833 206.113 226.138 206.3 226.424C206.468 226.714 206.611 226.938 206.729 227.096L203.393 227.849C203.223 227.641 202.996 227.364 202.713 227.018C202.426 226.653 202.114 226.272 201.779 225.876C201.443 225.48 201.095 225.118 200.734 224.789C200.368 224.441 200.044 224.186 199.762 224.025L198.969 220.513L222.673 215.163L223.69 219.669ZM220.573 204.36C220.912 205.863 220.858 207.167 220.41 208.272C219.939 209.363 219.168 210.265 218.099 210.977C217.025 211.671 215.737 212.187 214.235 212.526L205.807 214.429C204.266 214.776 202.841 214.914 201.533 214.84C200.22 214.747 199.109 214.321 198.2 213.562C197.29 212.804 196.644 211.576 196.261 209.879C195.931 208.416 195.903 207.202 196.177 206.238C196.428 205.259 196.958 204.473 197.767 203.88C198.577 203.287 199.635 202.843 200.942 202.548C201 202.535 201.069 202.52 201.147 202.502C201.201 202.469 201.257 202.446 201.316 202.433L202.28 206.706C201.285 206.93 200.566 207.195 200.122 207.5C199.678 207.805 199.54 208.329 199.708 209.07C199.813 209.538 200.043 209.876 200.398 210.083C200.747 210.271 201.287 210.344 202.016 210.302C202.72 210.246 203.678 210.081 204.887 209.808L207.316 209.26C206.83 209.103 206.41 208.787 206.057 208.314C205.699 207.82 205.432 207.224 205.254 206.527C204.933 205.287 204.991 204.228 205.429 203.35C205.842 202.457 206.538 201.726 207.517 201.156C208.476 200.591 209.609 200.161 210.916 199.866C212.516 199.505 213.984 199.379 215.321 199.487C216.657 199.596 217.783 200.039 218.696 200.817C219.586 201.579 220.212 202.761 220.573 204.36ZM217.194 205.061C217.084 204.574 216.837 204.25 216.452 204.091C216.063 203.912 215.558 203.852 214.935 203.911C214.308 203.95 213.566 204.066 212.707 204.26C211.888 204.445 211.183 204.635 210.591 204.83C209.976 205.01 209.521 205.266 209.227 205.599C208.933 205.932 208.852 206.391 208.984 206.976C209.046 207.249 209.164 207.499 209.338 207.727C209.489 207.939 209.671 208.113 209.887 208.249C210.082 208.389 210.279 208.488 210.477 208.546L214.252 207.694C214.837 207.562 215.382 207.388 215.887 207.171C216.367 206.94 216.733 206.652 216.984 206.308C217.234 205.965 217.304 205.549 217.194 205.061Z" fill="#553B92"/>
</g>
<g opacity="0.7">
<path d="M317.766 289.098C320.084 289.72 321.844 290.572 323.044 291.656C324.236 292.77 324.951 294.121 325.188 295.709C325.417 297.327 325.254 299.172 324.699 301.243C324.674 301.335 324.65 301.428 324.625 301.521C324.6 301.614 324.575 301.706 324.55 301.799L317.781 299.985C318.203 298.409 318.363 297.193 318.261 296.337C318.128 295.473 317.459 294.88 316.254 294.557C315.512 294.358 314.878 294.437 314.352 294.793C313.826 295.149 313.337 295.862 312.884 296.934C312.431 298.005 311.952 299.483 311.447 301.369L310.416 305.217C311.031 304.653 311.805 304.297 312.739 304.15C313.673 304.003 314.685 304.059 315.775 304.318C317.793 304.825 319.272 305.735 320.212 307.047C321.144 308.39 321.645 309.982 321.715 311.823C321.754 313.655 321.496 315.607 320.941 317.678C320.254 320.244 319.333 322.382 318.179 324.094C317.024 325.805 315.565 326.988 313.799 327.641C312.003 328.286 309.884 328.282 307.442 327.627C305.062 326.989 303.267 325.962 302.057 324.544C300.838 323.158 300.129 321.477 299.929 319.502C299.73 317.527 299.953 315.334 300.599 312.923L304.264 299.245C304.918 296.804 305.784 294.684 306.862 292.885C307.941 291.087 309.355 289.826 311.106 289.103C312.857 288.379 315.077 288.378 317.766 289.098ZM312.316 309.254C311.605 309.064 310.983 309.096 310.451 309.351C309.88 309.629 309.421 309.92 309.074 310.225L307.471 316.206C307.215 317.164 307.056 318.065 306.995 318.91C306.934 319.756 307.039 320.479 307.308 321.081C307.577 321.684 308.098 322.088 308.871 322.295C309.644 322.502 310.301 322.397 310.844 321.979C311.387 321.561 311.864 320.894 312.275 319.977C312.655 319.052 313.028 317.91 313.392 316.55C313.732 315.282 313.988 314.142 314.16 313.128C314.332 312.114 314.307 311.279 314.086 310.623C313.833 309.959 313.243 309.503 312.316 309.254Z" fill="#553B92"/>
</g>
<g opacity="0.7">
<path d="M420.441 184.887C419.591 182.473 419.378 180.376 419.804 178.598C420.259 176.809 421.236 175.295 422.733 174.055C424.241 172.845 426.096 171.853 428.3 171.077C429.296 170.726 430.263 170.487 431.202 170.36C432.142 170.233 433.037 170.223 433.889 170.33C434.741 170.437 435.529 170.651 436.253 170.973C437.018 171.314 437.709 171.784 438.326 172.38C438.7 171.129 439.403 169.898 440.435 168.686C441.508 167.494 443.05 166.527 445.062 165.785C447.073 165.042 448.926 164.763 450.619 164.947C452.342 165.12 453.841 165.763 455.115 166.875C456.388 167.987 457.387 169.57 458.109 171.622C458.843 173.705 459.056 175.563 458.75 177.198C458.454 178.863 457.684 180.287 456.438 181.472C455.224 182.647 453.6 183.575 451.567 184.257C449.504 184.949 447.68 185.167 446.097 184.91C444.555 184.673 443.256 184.164 442.2 183.382C442.093 184.234 441.843 185.018 441.451 185.733C441.099 186.467 440.624 187.143 440.027 187.761C439.431 188.378 438.726 188.931 437.915 189.42C437.114 189.94 436.215 190.375 435.219 190.726C433.037 191.562 430.969 191.951 429.015 191.893C427.071 191.865 425.361 191.297 423.885 190.188C422.45 189.099 421.302 187.332 420.441 184.887ZM425.647 183.054C425.956 183.929 426.486 184.472 427.239 184.682C427.991 184.892 428.826 184.903 429.744 184.715C430.662 184.528 431.528 184.291 432.343 184.004C433.32 183.694 434.234 183.304 435.086 182.834C435.949 182.394 436.593 181.862 437.018 181.238C437.443 180.613 437.501 179.863 437.193 178.988C436.895 178.143 436.38 177.595 435.647 177.344C434.924 177.124 434.084 177.097 433.125 177.265C432.208 177.453 431.251 177.722 430.255 178.073C429.44 178.36 428.601 178.723 427.738 179.163C426.905 179.592 426.261 180.124 425.806 180.759C425.392 181.413 425.339 182.178 425.647 183.054ZM442.897 176.979C443.11 177.583 443.506 177.986 444.086 178.189C444.677 178.422 445.427 178.48 446.336 178.363C447.245 178.247 448.273 177.987 449.42 177.583C450.718 177.126 451.685 176.548 452.321 175.849C452.997 175.169 453.176 174.377 452.858 173.472C452.539 172.566 451.892 172.03 450.918 171.865C449.984 171.718 448.883 171.869 447.616 172.315C446.469 172.719 445.484 173.15 444.662 173.61C443.881 174.088 443.333 174.604 443.018 175.155C442.714 175.737 442.674 176.345 442.897 176.979Z" fill="#553B92"/>
</g>
<g opacity="0.7">
<path d="M455.099 261.477L464.244 277.96C464.349 277.791 464.509 277.581 464.723 277.329C464.929 277.104 465.152 276.848 465.391 276.561C465.639 276.291 465.87 276.03 466.084 275.778C466.308 275.544 466.477 275.35 466.592 275.198L468.195 278.089C468.049 278.303 467.853 278.588 467.609 278.945C467.348 279.311 467.079 279.703 466.803 280.122C466.526 280.541 466.285 280.962 466.078 281.386C465.854 281.82 465.706 282.19 465.632 282.496L462.589 284.184L451.194 263.643L455.099 261.477ZM442.082 268.3C443.435 267.55 444.662 267.212 445.764 267.285C446.876 267.376 447.876 267.805 448.766 268.572C449.639 269.348 450.417 270.353 451.102 271.587C451.412 272.145 451.652 272.697 451.822 273.244C451.993 273.79 452.089 274.323 452.111 274.841C452.134 275.359 452.085 275.85 451.967 276.314C451.841 276.804 451.631 277.263 451.338 277.691C452.121 277.787 452.925 278.082 453.751 278.574C454.57 279.093 455.302 279.914 455.947 281.037C456.592 282.161 456.945 283.236 457.007 284.263C457.078 285.307 456.846 286.265 456.312 287.136C455.778 288.007 454.937 288.761 453.787 289.399C452.621 290.046 451.535 290.361 450.53 290.343C449.509 290.335 448.582 290.02 447.751 289.398C446.929 288.793 446.212 287.919 445.6 286.777C444.98 285.618 444.666 284.554 444.659 283.585C444.644 282.643 444.817 281.817 445.176 281.11C444.657 281.132 444.165 281.062 443.7 280.9C443.227 280.765 442.776 280.55 442.348 280.257C441.92 279.964 441.519 279.6 441.146 279.166C440.756 278.742 440.406 278.251 440.096 277.693C439.378 276.477 438.937 275.285 438.775 274.115C438.595 272.954 438.761 271.878 439.272 270.887C439.776 269.922 440.713 269.06 442.082 268.3ZM443.7 271.216C443.21 271.488 442.94 271.859 442.891 272.328C442.842 272.798 442.919 273.297 443.124 273.824C443.328 274.352 443.557 274.844 443.81 275.301C444.093 275.851 444.418 276.356 444.784 276.817C445.133 277.286 445.515 277.616 445.93 277.806C446.345 277.996 446.797 277.955 447.287 277.683C447.761 277.42 448.035 277.058 448.111 276.596C448.169 276.144 448.1 275.64 447.903 275.086C447.699 274.558 447.442 274.016 447.132 273.458C446.879 273.001 446.578 272.538 446.229 272.069C445.889 271.616 445.507 271.286 445.083 271.079C444.651 270.899 444.19 270.944 443.7 271.216ZM449.06 280.878C448.722 281.066 448.522 281.343 448.46 281.709C448.38 282.084 448.422 282.537 448.583 283.066C448.744 283.596 449.003 284.182 449.359 284.825C449.762 285.552 450.204 286.069 450.685 286.377C451.158 286.712 451.648 286.738 452.155 286.457C452.662 286.176 452.916 285.737 452.916 285.139C452.909 284.568 452.709 283.928 452.315 283.218C451.958 282.576 451.602 282.033 451.245 281.589C450.881 281.172 450.519 280.898 450.159 280.766C449.781 280.644 449.415 280.681 449.06 280.878Z" fill="#553B92"/>
</g>
<g opacity="0.7">
<path d="M396.518 312.006L398.648 313.328L402.179 320.853C402.444 321.415 402.702 321.945 402.952 322.443C403.194 322.954 403.475 323.418 403.795 323.833C404.12 324.269 404.523 324.637 405.005 324.936C405.513 325.251 405.958 325.392 406.34 325.358C406.735 325.333 407.046 325.138 407.272 324.773C407.515 324.382 407.59 324.014 407.498 323.668C407.419 323.33 407.228 323.013 406.925 322.716C406.621 322.42 406.261 322.142 405.844 321.883L405.102 321.422L406.933 318.472L407.715 318.957C408.653 319.539 409.398 320.2 409.95 320.939C410.493 321.692 410.773 322.506 410.788 323.382C410.809 324.279 410.5 325.242 409.861 326.272C408.996 327.665 407.98 328.488 406.814 328.738C405.648 328.989 404.407 328.706 403.091 327.889C402.452 327.493 401.92 327.027 401.494 326.492C401.082 325.965 400.722 325.381 400.416 324.74C400.115 324.12 399.811 323.462 399.503 322.766L396.803 316.867L393.88 321.576L391.496 320.096L396.518 312.006Z" fill="#553B92"/>
</g>
<g opacity="0.7">
<path d="M238.804 272.099C238.982 273.266 238.87 274.26 238.469 275.082C238.049 275.89 237.412 276.538 236.556 277.026C235.697 277.499 234.684 277.824 233.517 278.002L226.969 279.004C225.772 279.187 224.675 279.215 223.678 279.088C222.679 278.946 221.853 278.561 221.198 277.932C220.543 277.303 220.115 276.329 219.914 275.01C219.74 273.874 219.784 272.944 220.046 272.221C220.29 271.486 220.738 270.913 221.388 270.504C222.039 270.094 222.872 269.811 223.888 269.656C223.933 269.649 223.987 269.641 224.047 269.632C224.09 269.61 224.135 269.595 224.18 269.588L224.688 272.908C223.915 273.026 223.35 273.19 222.995 273.399C222.639 273.609 222.505 274.001 222.593 274.577C222.649 274.941 222.806 275.212 223.066 275.389C223.324 275.551 223.732 275.636 224.292 275.644C224.834 275.639 225.575 275.564 226.514 275.42L228.402 275.132C228.038 274.986 227.734 274.722 227.489 274.341C227.243 273.944 227.07 273.474 226.971 272.931C226.793 271.965 226.894 271.159 227.276 270.511C227.64 269.85 228.212 269.328 228.991 268.946C229.755 268.565 230.645 268.297 231.66 268.142C232.903 267.952 234.033 267.934 235.049 268.089C236.066 268.244 236.902 268.643 237.559 269.287C238.199 269.919 238.614 270.856 238.804 272.099ZM236.182 272.453C236.124 272.074 235.952 271.813 235.667 271.671C235.379 271.513 234.996 271.44 234.516 271.451C234.035 271.447 233.461 271.496 232.794 271.598C232.157 271.696 231.608 271.803 231.145 271.92C230.664 272.025 230.303 272.196 230.06 272.435C229.817 272.674 229.731 273.021 229.8 273.475C229.833 273.688 229.909 273.885 230.031 274.068C230.134 274.239 230.265 274.382 230.422 274.497C230.564 274.615 230.709 274.701 230.857 274.756L233.79 274.308C234.245 274.238 234.671 274.134 235.068 273.996C235.449 273.845 235.744 273.645 235.954 273.395C236.164 273.146 236.24 272.832 236.182 272.453Z" fill="#553B92"/>
</g>
<g opacity="0.7">
<path d="M405.706 105.945L407.166 86.4997C406.979 86.5859 406.722 86.6769 406.394 86.7726C406.087 86.8499 405.749 86.9448 405.38 87.0575C405.012 87.1502 404.664 87.2444 404.336 87.3401C404.009 87.4158 403.753 87.4868 403.567 87.5531L403.824 84.1427C404.072 84.0411 404.403 83.9055 404.817 83.736C405.251 83.568 405.706 83.3816 406.182 83.1767C406.659 82.9718 407.107 82.7447 407.527 82.4955C407.967 82.2477 408.306 82.0124 408.543 81.7896L412.133 82.0592L410.313 106.291L405.706 105.945Z" fill="#553B92"/>
</g>
<g opacity="0.7">
<path d="M285.736 145.95C284.115 147.632 282.425 148.693 280.668 149.133C278.911 149.573 277.167 149.492 275.436 148.89C273.682 148.266 272.01 147.188 270.42 145.656L257.874 133.565C256.238 131.988 255.065 130.346 254.355 128.64C253.621 126.91 253.442 125.16 253.816 123.388C254.191 121.616 255.211 119.865 256.876 118.137C258.52 116.432 260.209 115.371 261.944 114.955C263.701 114.515 265.457 114.629 267.212 115.299C268.944 115.946 270.628 117.057 272.263 118.634L284.809 130.725C286.399 132.257 287.538 133.888 288.227 135.618C288.892 137.326 289.037 139.066 288.662 140.838C288.288 142.61 287.312 144.314 285.736 145.95ZM281.035 141.42C281.635 140.798 281.872 140.16 281.747 139.506C281.621 138.852 281.338 138.224 280.897 137.621C280.433 136.996 279.97 136.461 279.51 136.017L267.171 124.126C266.664 123.637 266.09 123.172 265.448 122.732C264.828 122.268 264.189 121.985 263.531 121.884C262.85 121.761 262.199 122.022 261.577 122.667C260.955 123.312 260.707 123.985 260.833 124.684C260.958 125.338 261.253 125.977 261.717 126.603C262.204 127.205 262.7 127.75 263.207 128.238L275.546 140.13C276.007 140.574 276.558 141.016 277.2 141.457C277.819 141.876 278.468 142.124 279.149 142.202C279.829 142.28 280.458 142.019 281.035 141.42Z" fill="#553B92"/>
</g>
<g opacity="0.7">
<path d="M328.653 85.3126C327.31 84.6459 326.337 83.9065 325.735 83.0944C325.142 82.2645 324.871 81.3485 324.922 80.3466C324.981 79.3267 325.309 78.2166 325.904 77.0163C325.931 76.9625 325.958 76.9088 325.984 76.855C326.011 76.8013 326.038 76.7475 326.064 76.6938L329.988 78.6404C329.535 79.5542 329.286 80.2794 329.243 80.8162C329.218 81.3619 329.555 81.8081 330.254 82.1547C330.684 82.3681 331.082 82.3981 331.448 82.245C331.814 82.0918 332.202 81.7149 332.612 81.1144C333.021 80.5138 333.497 79.6671 334.039 78.5742L335.146 76.3437C334.7 76.6134 334.181 76.7358 333.591 76.7107C333.001 76.6857 332.387 76.5266 331.751 76.2334C330.578 75.6736 329.784 74.9337 329.37 74.0137C328.964 73.0758 328.854 72.0386 329.038 70.9021C329.24 69.7745 329.639 68.6105 330.235 67.4101C330.973 65.9231 331.801 64.7264 332.719 63.8202C333.638 62.914 334.678 62.3696 335.84 62.1872C337.02 62.0136 338.318 62.2779 339.734 62.9801C341.113 63.6646 342.086 64.5157 342.653 65.5336C343.228 66.5336 343.455 67.651 343.334 68.8857C343.213 70.1203 342.805 71.4364 342.112 72.8339L338.179 80.7618C337.476 82.1771 336.684 83.3692 335.801 84.3379C334.919 85.3066 333.897 85.9046 332.735 86.1318C331.573 86.359 330.212 86.0859 328.653 85.3126ZM334.48 73.6356C334.892 73.8401 335.277 73.897 335.635 73.8065C336.019 73.7069 336.336 73.5852 336.586 73.4413L338.306 69.9745C338.582 69.4191 338.79 68.8863 338.932 68.376C339.073 67.8658 339.099 67.4095 339.008 67.0073C338.917 66.6051 338.648 66.2929 338.2 66.0706C337.752 65.8484 337.336 65.8318 336.952 66.0208C336.568 66.2099 336.194 66.5598 335.829 67.0708C335.481 67.5906 335.112 68.2447 334.721 69.033C334.357 69.7676 334.059 70.4349 333.828 71.0348C333.598 71.6348 333.51 72.1494 333.565 72.5786C333.638 73.0166 333.943 73.369 334.48 73.6356Z" fill="#553B92"/>
</g>
<g filter="url(#filter1_ddddd_17_227)">
<rect x="199" y="446.887" width="287" height="56" rx="7.62745" fill="#4414AA"/>
</g>
<path d="M302.632 492V457.052H311.692C314.051 457.052 316.064 457.326 317.733 457.872C319.43 458.39 320.724 459.325 321.616 460.677C322.536 462.028 322.996 463.898 322.996 466.285C322.996 467.724 322.867 469.004 322.608 470.125C322.378 471.218 321.947 472.182 321.314 473.016C320.71 473.821 319.847 474.469 318.725 474.958L323.557 492H316.266L312.253 476.166H309.751V492H302.632ZM309.751 471.937H311.822C312.972 471.937 313.878 471.751 314.54 471.377C315.201 471.003 315.662 470.442 315.921 469.694C316.208 468.917 316.352 467.968 316.352 466.846C316.352 465.236 316.05 464.013 315.446 463.179C314.871 462.316 313.778 461.885 312.167 461.885H309.751V471.937ZM337.284 492.475C334.724 492.475 332.696 492.014 331.2 491.094C329.705 490.174 328.626 488.865 327.964 487.168C327.332 485.442 327.015 483.385 327.015 480.998V467.968C327.015 465.581 327.332 463.539 327.964 461.842C328.626 460.144 329.705 458.85 331.2 457.958C332.696 457.067 334.724 456.621 337.284 456.621C339.873 456.621 341.915 457.081 343.41 458.002C344.935 458.893 346.014 460.188 346.646 461.885C347.308 463.553 347.639 465.581 347.639 467.968V480.998C347.639 483.385 347.308 485.442 346.646 487.168C346.014 488.865 344.935 490.174 343.41 491.094C341.915 492.014 339.873 492.475 337.284 492.475ZM337.284 487.34C338.204 487.34 338.88 487.139 339.312 486.736C339.743 486.305 340.031 485.744 340.175 485.054C340.318 484.335 340.39 483.572 340.39 482.767V466.242C340.39 465.437 340.318 464.689 340.175 463.999C340.031 463.308 339.743 462.762 339.312 462.359C338.88 461.928 338.204 461.712 337.284 461.712C336.421 461.712 335.774 461.928 335.342 462.359C334.911 462.762 334.623 463.308 334.479 463.999C334.336 464.689 334.264 465.437 334.264 466.242V482.767C334.264 483.572 334.321 484.335 334.436 485.054C334.58 485.744 334.868 486.305 335.299 486.736C335.731 487.139 336.392 487.34 337.284 487.34ZM352.392 492V457.052H359.511V487.168H367.709V492H352.392ZM371.057 492V457.052H378.176V487.168H386.374V492H371.057Z" fill="#F5F5FA"/>
<defs>
<filter id="filter0_d_17_227" x="318.147" y="177.619" width="39.9221" height="57.979" filterUnits="userSpaceOnUse" color-interpolation-filters="sRGB">
<feFlood flood-opacity="0" result="BackgroundImageFix"/>
<feColorMatrix in="SourceAlpha" type="matrix" values="0 0 0 0 0 0 0 0 0 0 0 0 0 0 0 0 0 0 127 0" result="hardAlpha"/>
<feOffset/>
<feComposite in2="hardAlpha" operator="out"/>
<feColorMatrix type="matrix" values="0 0 0 0 0.264705 0 0 0 0 0.318651 0 0 0 0 0.804167 0 0 0 0.8 0"/>
<feBlend mode="normal" in2="BackgroundImageFix" result="effect1_dropShadow_17_227"/>
<feBlend mode="normal" in="SourceGraphic" in2="effect1_dropShadow_17_227" result="shape"/>
</filter>
<filter id="filter1_ddddd_17_227" x="0" y="409.887" width="685" height="789" filterUnits="userSpaceOnUse" color-interpolation-filters="sRGB">
<feFlood flood-opacity="0" result="BackgroundImageFix"/>
<feColorMatrix in="SourceAlpha" type="matrix" values="0 0 0 0 0 0 0 0 0 0 0 0 0 0 0 0 0 0 127 0" result="hardAlpha"/>
<feOffset/>
<feColorMatrix type="matrix" values="0 0 0 0 0 0 0 0 0 0 0 0 0 0 0 0 0 0 0.1 0"/>
<feBlend mode="normal" in2="BackgroundImageFix" result="effect1_dropShadow_17_227"/>
<feColorMatrix in="SourceAlpha" type="matrix" values="0 0 0 0 0 0 0 0 0 0 0 0 0 0 0 0 0 0 127 0" result="hardAlpha"/>
<feOffset dy="31"/>
<feGaussianBlur stdDeviation="34"/>
<feColorMatrix type="matrix" values="0 0 0 0 0 0 0 0 0 0 0 0 0 0 0 0 0 0 0.1 0"/>
<feBlend mode="normal" in2="effect1_dropShadow_17_227" result="effect2_dropShadow_17_227"/>
<feColorMatrix in="SourceAlpha" type="matrix" values="0 0 0 0 0 0 0 0 0 0 0 0 0 0 0 0 0 0 127 0" result="hardAlpha"/>
<feOffset dy="124"/>
<feGaussianBlur stdDeviation="62"/>
<feColorMatrix type="matrix" values="0 0 0 0 0 0 0 0 0 0 0 0 0 0 0 0 0 0 0.09 0"/>
<feBlend mode="normal" in2="effect2_dropShadow_17_227" result="effect3_dropShadow_17_227"/>
<feColorMatrix in="SourceAlpha" type="matrix" values="0 0 0 0 0 0 0 0 0 0 0 0 0 0 0 0 0 0 127 0" result="hardAlpha"/>
<feOffset dy="280"/>
<feGaussianBlur stdDeviation="84"/>
<feColorMatrix type="matrix" values="0 0 0 0 0 0 0 0 0 0 0 0 0 0 0 0 0 0 0.05 0"/>
<feBlend mode="normal" in2="effect3_dropShadow_17_227" result="effect4_dropShadow_17_227"/>
<feColorMatrix in="SourceAlpha" type="matrix" values="0 0 0 0 0 0 0 0 0 0 0 0 0 0 0 0 0 0 127 0" result="hardAlpha"/>
<feOffset dy="497"/>
<feGaussianBlur stdDeviation="99.5"/>
<feColorMatrix type="matrix" values="0 0 0 0 0 0 0 0 0 0 0 0 0 0 0 0 0 0 0.01 0"/>
<feBlend mode="normal" in2="effect4_dropShadow_17_227" result="effect5_dropShadow_17_227"/>
<feBlend mode="normal" in="SourceGraphic" in2="effect5_dropShadow_17_227" result="shape"/>
</filter>
</defs>
</svg>
