<svg width="378" height="408" viewBox="0 0 378 408" fill="none" xmlns="http://www.w3.org/2000/svg">
<path d="M354.922 160.459L230.843 38.1787L67.0765 83.3313L23.4655 246.09L142.327 368.525L311.311 323.218L354.922 160.459Z" fill="#F5F5FA" stroke="#553B92" stroke-width="10"/>
<path d="M213.373 103.379L262.042 288.793M213.373 103.379L354.922 160.459M213.373 103.379L230.843 38.1787M213.373 103.379L67.0765 83.3313M213.373 103.379L79.4824 239.876M262.042 288.793L354.922 160.459M262.042 288.793L79.4824 239.876M262.042 288.793L142.327 368.525M262.042 288.793L311.311 323.218M354.922 160.459L230.843 38.1787M354.922 160.459L311.311 323.218M230.843 38.1787L67.0765 83.3313M311.311 323.218L142.327 368.525M142.327 368.525L23.4655 246.09M142.327 368.525L79.4824 239.876M23.4655 246.09L67.0765 83.3313M23.4655 246.09L79.4824 239.876M67.0765 83.3313L79.4824 239.876" stroke="#553B92" stroke-width="10"/>
<circle cx="213.114" cy="104.344" r="9.5" transform="rotate(15 213.114 104.344)" stroke="#553B92" stroke-width="6"/>
<circle cx="261.465" cy="287.087" r="9.5" transform="rotate(15 261.465 287.087)" stroke="#553B92" stroke-width="6"/>
<circle cx="80.8369" cy="238.684" r="9.5" transform="rotate(15 80.8369 238.684)" stroke="#553B92" stroke-width="6"/>
<g filter="url(#filter0_d_17_112)">
<path d="M175.24 230.335L186.006 190.152C185.58 190.259 185.004 190.348 184.279 190.418C183.605 190.459 182.859 190.524 182.04 190.613C181.232 190.662 180.465 190.721 179.739 190.792C179.025 190.821 178.46 190.869 178.045 190.934L179.933 183.887C180.494 183.772 181.242 183.619 182.176 183.428C183.152 183.248 184.18 183.037 185.261 182.797C186.341 182.556 187.371 182.258 188.35 181.902C189.37 181.556 190.173 181.197 190.759 180.824L198.177 182.812L184.76 232.886L175.24 230.335Z" fill="#553B92"/>
</g>
<g opacity="0.7">
<path d="M70.5798 219.182L51.5583 223.475C51.6955 223.629 51.8579 223.849 52.0454 224.134C52.209 224.405 52.3987 224.7 52.6145 225.021C52.8108 225.346 53.0028 225.651 53.1903 225.937C53.3583 226.227 53.5011 226.451 53.6188 226.609L50.2827 227.362C50.1128 227.154 49.8863 226.877 49.6031 226.531C49.3156 226.165 49.0041 225.785 48.6687 225.389C48.3333 224.993 47.985 224.631 47.6238 224.302C47.2582 223.954 46.9341 223.699 46.6516 223.537L45.8589 220.026L69.5625 214.675L70.5798 219.182ZM67.6825 204.439C68.0568 206.097 68.0406 207.433 67.634 208.448C67.2274 209.462 66.5152 210.258 65.4976 210.837C64.4755 211.395 63.2329 211.84 61.7697 212.17L60.7855 207.81C61.6439 207.616 62.3547 207.404 62.918 207.175C63.4768 206.926 63.8718 206.631 64.1028 206.292C64.3293 205.934 64.369 205.474 64.2218 204.912C64.0746 204.351 63.7675 203.99 63.3006 203.828C62.8336 203.667 62.2131 203.643 61.4391 203.756C60.665 203.87 59.761 204.043 58.727 204.276C57.8881 204.466 57.1577 204.682 56.536 204.925C55.9142 205.168 55.451 205.477 55.1464 205.854C54.8373 206.21 54.7489 206.681 54.881 207.267C54.9999 207.793 55.2843 208.19 55.7342 208.458C56.1798 208.706 56.7616 208.831 57.4796 208.833L58.3515 212.696L44.8176 215.412L42.3603 204.526L46.2524 203.648L47.8707 210.817L53.1684 209.898C52.8229 209.73 52.4812 209.397 52.1433 208.899C51.801 208.382 51.5377 207.806 51.3534 207.171C50.9589 205.968 50.964 204.901 51.3687 203.969C51.769 203.018 52.5007 202.217 53.5637 201.567C54.6071 200.921 55.9482 200.413 57.587 200.044C58.8356 199.762 60.014 199.578 61.1222 199.492C62.211 199.41 63.1961 199.505 64.0778 199.778C64.9399 200.055 65.6803 200.564 66.2988 201.306C66.9174 202.048 67.3786 203.092 67.6825 204.439Z" fill="#553B92"/>
</g>
<g opacity="0.7">
<path d="M166.673 290.156L158.598 320.293C158.918 320.213 159.35 320.147 159.894 320.094C160.399 320.063 160.959 320.014 161.573 319.947C162.179 319.911 162.754 319.866 163.299 319.813C163.835 319.791 164.258 319.756 164.57 319.707L163.153 324.992C162.733 325.078 162.172 325.193 161.471 325.336C160.739 325.472 159.968 325.629 159.158 325.81C158.347 325.99 157.575 326.214 156.841 326.481C156.076 326.74 155.474 327.009 155.034 327.289L149.47 325.798L159.533 288.243L166.673 290.156Z" fill="#553B92"/>
</g>
<g opacity="0.7">
<path d="M262.797 169.967L292.226 159.603C291.979 159.385 291.68 159.066 291.329 158.647C291.019 158.247 290.662 157.813 290.26 157.344C289.887 156.864 289.525 156.415 289.174 155.996C288.853 155.566 288.585 155.237 288.368 155.008L293.53 153.19C293.838 153.488 294.25 153.886 294.764 154.384C295.289 154.911 295.855 155.458 296.462 156.025C297.068 156.592 297.689 157.102 298.324 157.557C298.97 158.042 299.533 158.387 300.012 158.592L301.925 164.025L265.253 176.939L262.797 169.967ZM270.377 193.08C269.58 190.817 269.289 188.883 269.505 187.281C269.751 185.667 270.462 184.314 271.638 183.222C272.844 182.119 274.458 181.211 276.48 180.499C276.571 180.467 276.662 180.435 276.752 180.403C276.843 180.371 276.933 180.339 277.024 180.307L279.352 186.918C277.812 187.46 276.718 188.014 276.07 188.582C275.432 189.18 275.321 190.067 275.735 191.244C275.991 191.969 276.414 192.447 277.005 192.68C277.595 192.913 278.461 192.914 279.601 192.682C280.74 192.45 282.231 192.01 284.072 191.362L287.83 190.039C287.017 189.85 286.286 189.412 285.637 188.724C284.987 188.037 284.462 187.17 284.06 186.125C283.338 184.173 283.254 182.439 283.805 180.922C284.386 179.394 285.417 178.081 286.896 176.983C288.386 175.916 290.142 175.026 292.165 174.314C294.67 173.432 296.955 172.983 299.019 172.969C301.083 172.954 302.884 173.491 304.42 174.578C305.967 175.696 307.161 177.447 308 179.831C308.819 182.155 308.985 184.217 308.499 186.017C308.044 187.806 307.057 189.34 305.541 190.621C304.024 191.901 302.088 192.956 299.734 193.785L286.378 198.489C283.994 199.328 281.755 199.811 279.662 199.938C277.569 200.064 275.73 199.609 274.143 198.573C272.557 197.537 271.302 195.706 270.377 193.08ZM290.088 186.19C290.332 186.884 290.71 187.379 291.221 187.674C291.773 187.989 292.272 188.203 292.719 188.317L298.56 186.26C299.495 185.93 300.329 185.552 301.061 185.125C301.792 184.697 302.331 184.203 302.675 183.64C303.02 183.078 303.06 182.419 302.794 181.665C302.528 180.91 302.07 180.427 301.418 180.215C300.767 180.004 299.947 179.987 298.958 180.166C297.98 180.374 296.827 180.713 295.499 181.18C294.261 181.616 293.175 182.049 292.241 182.48C291.308 182.911 290.633 183.403 290.217 183.956C289.812 184.54 289.769 185.285 290.088 186.19Z" fill="#553B92"/>
</g>
<g opacity="0.7">
<path d="M294.168 265.512C295.436 264.808 296.558 264.44 297.535 264.407C298.52 264.39 299.398 264.677 300.168 265.267C300.947 265.874 301.65 266.744 302.279 267.877C302.307 267.928 302.335 267.978 302.363 268.029C302.391 268.08 302.419 268.131 302.448 268.181L298.745 270.235C298.267 269.373 297.826 268.778 297.422 268.449C297.002 268.129 296.462 268.152 295.803 268.518C295.397 268.743 295.155 269.043 295.075 269.419C294.996 269.795 295.083 270.31 295.336 270.966C295.59 271.621 296.002 272.464 296.574 273.496L297.742 275.601C297.772 275.097 297.959 274.618 298.303 274.162C298.647 273.705 299.11 273.305 299.693 272.96C300.782 272.333 301.807 272.107 302.766 272.283C303.735 272.475 304.621 272.956 305.424 273.726C306.211 274.506 306.918 275.462 307.546 276.595C308.325 277.998 308.823 279.314 309.04 280.542C309.257 281.77 309.119 282.897 308.626 283.922C308.117 284.956 307.194 285.844 305.859 286.585C304.557 287.307 303.346 287.614 302.225 287.507C301.113 287.416 300.099 286.983 299.183 286.209C298.267 285.435 297.444 284.389 296.712 283.07L292.562 275.589C291.821 274.253 291.307 272.969 291.021 271.735C290.734 270.501 290.819 269.359 291.276 268.31C291.733 267.26 292.697 266.328 294.168 265.512ZM300.262 276.557C299.874 276.773 299.617 277.048 299.493 277.382C299.361 277.742 299.284 278.061 299.261 278.339L301.076 281.611C301.367 282.135 301.676 282.593 302.005 282.986C302.333 283.378 302.682 283.649 303.052 283.798C303.422 283.946 303.818 283.903 304.241 283.669C304.664 283.434 304.905 283.112 304.965 282.703C305.026 282.294 304.953 281.804 304.747 281.233C304.523 280.671 304.206 280.018 303.793 279.274C303.408 278.581 303.041 277.978 302.69 277.465C302.339 276.953 301.978 276.6 301.606 276.408C301.217 276.226 300.77 276.276 300.262 276.557Z" fill="#553B92"/>
</g>
<g opacity="0.7">
<path d="M243.887 311.412L256.589 319.296C256.597 319.138 256.626 318.931 256.677 318.674C256.734 318.438 256.789 318.175 256.843 317.884C256.911 317.601 256.97 317.331 257.021 317.074C257.085 316.825 257.128 316.626 257.148 316.476L259.376 317.859C259.357 318.064 259.332 318.337 259.301 318.678C259.261 319.033 259.227 319.408 259.197 319.805C259.167 320.202 259.163 320.587 259.183 320.961C259.196 321.347 259.236 321.661 259.303 321.901L257.848 324.246L242.019 314.421L243.887 311.412ZM239.161 319.026L251.863 326.91C251.87 326.753 251.9 326.545 251.951 326.288C252.007 326.053 252.062 325.789 252.117 325.498C252.184 325.215 252.243 324.945 252.295 324.688C252.359 324.439 252.401 324.24 252.422 324.09L254.65 325.473C254.631 325.678 254.606 325.951 254.574 326.293C254.535 326.647 254.5 327.023 254.47 327.419C254.441 327.816 254.436 328.201 254.457 328.575C254.469 328.962 254.509 329.275 254.577 329.516L253.121 331.86L237.293 322.035L239.161 319.026Z" fill="#553B92"/>
</g>
<g opacity="0.7">
<path d="M85.8659 272.048C86.0629 273.337 85.9786 274.358 85.613 275.112C85.2474 275.866 84.66 276.436 83.8506 276.824C83.0388 277.196 82.0646 277.469 80.9278 277.643L80.4098 274.255C81.0767 274.153 81.6317 274.03 82.0749 273.884C82.5157 273.724 82.8335 273.52 83.0284 273.273C83.221 273.011 83.2761 272.661 83.1938 272.224C83.1114 271.787 82.896 271.494 82.5476 271.346C82.1991 271.197 81.7259 271.146 81.1278 271.191C80.5297 271.236 79.829 271.319 79.0257 271.442C78.3739 271.542 77.8037 271.668 77.3151 271.82C76.8265 271.972 76.4556 272.184 76.2024 272.456C75.9469 272.712 75.8539 273.067 75.9234 273.522C75.986 273.931 76.1821 274.25 76.5118 274.479C76.8392 274.693 77.2774 274.82 77.8265 274.86L78.2854 277.861L67.7887 279.21L66.4954 270.752L69.5193 270.29L70.371 275.86L74.472 275.443C74.2168 275.295 73.9734 275.022 73.7418 274.623C73.5079 274.209 73.3375 273.755 73.2307 273.259C72.9938 272.318 73.0551 271.502 73.4148 270.811C73.7722 270.105 74.3748 269.532 75.2227 269.092C76.0555 268.654 77.1085 268.338 78.3817 268.144C79.3517 267.995 80.2629 267.918 81.115 267.912C81.9521 267.908 82.7004 268.034 83.36 268.29C84.0044 268.548 84.5432 268.978 84.9763 269.578C85.4094 270.179 85.7059 271.002 85.8659 272.048Z" fill="#553B92"/>
</g>
<g opacity="0.7">
<path d="M254.263 107.066C252.647 106.945 251.383 106.549 250.471 105.879C249.58 105.19 248.967 104.282 248.63 103.153C248.295 102.005 248.182 100.713 248.289 99.2768L248.355 98.4092L252.962 98.7552C252.959 98.7951 252.95 98.9048 252.937 99.0843C252.925 99.2438 252.913 99.4034 252.901 99.5629C252.862 100.342 252.874 100.995 252.934 101.521C253.017 102.029 253.188 102.422 253.447 102.703C253.707 102.983 254.096 103.142 254.615 103.181C255.153 103.222 255.562 103.122 255.841 102.882C256.121 102.623 256.33 102.237 256.469 101.726C256.608 101.215 256.705 100.581 256.762 99.8228C256.854 98.6063 256.745 97.6554 256.435 96.9703C256.127 96.2653 255.435 95.8623 254.36 95.7615C254.34 95.76 254.24 95.7525 254.061 95.739C253.881 95.7255 253.712 95.7128 253.552 95.7008L253.808 92.2904C253.928 92.2994 254.047 92.3084 254.167 92.3174C254.307 92.3279 254.426 92.3369 254.526 92.3444C255.603 92.4252 256.353 92.1907 256.775 91.6408C257.217 91.0924 257.485 90.1999 257.578 88.9634C257.65 88.0061 257.566 87.2477 257.328 86.6883C257.089 86.1288 256.59 85.8206 255.833 85.7637C255.075 85.7068 254.554 85.9685 254.269 86.5489C253.985 87.1292 253.798 87.8873 253.707 88.8232C253.696 88.9827 253.682 89.1622 253.667 89.3616C253.654 89.5411 253.64 89.7206 253.627 89.9001L249.02 89.5541L249.118 88.2378C249.225 86.8218 249.574 85.6447 250.166 84.7064C250.759 83.7481 251.554 83.0457 252.55 82.599C253.547 82.1524 254.733 81.9807 256.109 82.0841C257.485 82.1874 258.643 82.5251 259.583 83.0971C260.523 83.6691 261.206 84.4524 261.633 85.4472C262.079 86.4434 262.249 87.6496 262.143 89.0656C262.037 90.4816 261.649 91.6358 260.98 92.5282C260.332 93.4222 259.569 93.9666 258.692 94.1614C259.275 94.4058 259.779 94.7746 260.203 95.2677C260.627 95.7609 260.94 96.4061 261.141 97.2034C261.343 97.9807 261.402 98.9378 261.316 100.075C261.207 101.53 260.9 102.811 260.396 103.916C259.893 105.002 259.139 105.828 258.134 106.394C257.129 106.96 255.838 107.184 254.263 107.066Z" fill="#553B92"/>
</g>
<g opacity="0.7">
<path d="M127.638 150.271L109.384 121.345L102.023 128.984L97.9445 125.053L110.335 112.196L113.861 115.594L132.635 145.086L127.638 150.271Z" fill="#553B92"/>
</g>
<g opacity="0.7">
<path d="M168.915 83.018L177.582 65.5498C177.376 65.5593 177.103 65.5468 176.763 65.512C176.45 65.4683 176.101 65.4291 175.716 65.3945C175.34 65.342 174.983 65.2984 174.643 65.2637C174.311 65.211 174.047 65.1805 173.851 65.1722L175.371 62.1086C175.639 62.1077 175.997 62.1066 176.444 62.1052C176.909 62.1127 177.401 62.1112 177.92 62.1007C178.439 62.0901 178.939 62.0483 179.422 61.9753C179.923 61.9111 180.325 61.8204 180.629 61.7032L183.854 63.3032L173.054 85.0713L168.915 83.018ZM179.386 88.2133L188.053 70.7451C187.847 70.7547 187.575 70.7421 187.235 70.7074C186.921 70.6636 186.572 70.6244 186.188 70.5899C185.812 70.5374 185.454 70.4937 185.114 70.459C184.783 70.4064 184.519 70.3759 184.322 70.3675L185.842 67.3039C186.11 67.3031 186.468 67.302 186.915 67.3006C187.381 67.3081 187.873 67.3066 188.391 67.296C188.91 67.2855 189.411 67.2437 189.894 67.1706C190.394 67.1065 190.796 67.0158 191.1 66.8986L194.325 68.4986L183.525 90.2666L179.386 88.2133Z" fill="#553B92"/>
</g>
<defs>
<filter id="filter0_d_17_112" x="168.007" y="178.323" width="30.1702" height="54.5625" filterUnits="userSpaceOnUse" color-interpolation-filters="sRGB">
<feFlood flood-opacity="0" result="BackgroundImageFix"/>
<feColorMatrix in="SourceAlpha" type="matrix" values="0 0 0 0 0 0 0 0 0 0 0 0 0 0 0 0 0 0 127 0" result="hardAlpha"/>
<feOffset/>
<feComposite in2="hardAlpha" operator="out"/>
<feColorMatrix type="matrix" values="0 0 0 0 0.264705 0 0 0 0 0.318651 0 0 0 0 0.804167 0 0 0 0.8 0"/>
<feBlend mode="normal" in2="BackgroundImageFix" result="effect1_dropShadow_17_112"/>
<feBlend mode="normal" in="SourceGraphic" in2="effect1_dropShadow_17_112" result="shape"/>
</filter>
</defs>
</svg>
