<svg width="685" height="1199" viewBox="0 0 685 1199" fill="none" xmlns="http://www.w3.org/2000/svg">
<path d="M507.922 160.459L383.843 38.1787L220.077 83.3313L176.466 246.09L295.327 368.525L464.311 323.218L507.922 160.459Z" fill="#F5F5FA" stroke="#553B92" stroke-width="10"/>
<path d="M366.373 103.379L415.042 288.793M366.373 103.379L507.922 160.459M366.373 103.379L383.843 38.1787M366.373 103.379L220.077 83.3313M366.373 103.379L232.482 239.876M415.042 288.793L507.922 160.459M415.042 288.793L232.482 239.876M415.042 288.793L295.327 368.525M415.042 288.793L464.311 323.218M507.922 160.459L383.843 38.1787M507.922 160.459L464.311 323.218M383.843 38.1787L220.077 83.3313M464.311 323.218L295.327 368.525M295.327 368.525L176.466 246.09M295.327 368.525L232.482 239.876M176.466 246.09L220.077 83.3313M176.466 246.09L232.482 239.876M220.077 83.3313L232.482 239.876" stroke="#553B92" stroke-width="10"/>
<circle cx="366.114" cy="104.344" r="9.5" transform="rotate(15 366.114 104.344)" stroke="#553B92" stroke-width="6"/>
<circle cx="414.465" cy="287.087" r="9.5" transform="rotate(15 414.465 287.087)" stroke="#553B92" stroke-width="6"/>
<circle cx="233.837" cy="238.684" r="9.5" transform="rotate(15 233.837 238.684)" stroke="#553B92" stroke-width="6"/>
<g filter="url(#filter0_d_17_740)">
<path d="M311.336 225.805L322.103 185.623C321.677 185.73 321.101 185.818 320.375 185.889C319.702 185.929 318.955 185.994 318.136 186.084C317.328 186.133 316.561 186.192 315.836 186.263C315.121 186.292 314.556 186.339 314.141 186.405L316.029 179.358C316.59 179.243 317.338 179.09 318.273 178.898C319.248 178.718 320.277 178.508 321.357 178.267C322.437 178.027 323.467 177.728 324.446 177.372C325.466 177.027 326.269 176.668 326.855 176.295L334.273 178.283L320.856 228.356L311.336 225.805ZM343.29 235.295C340.281 234.489 337.954 233.203 336.307 231.436C334.66 229.67 333.629 227.583 333.214 225.174C332.81 222.725 332.989 220.079 333.751 217.235L339.764 194.795C340.548 191.868 341.707 189.44 343.24 187.51C344.784 185.538 346.711 184.2 349.021 183.493C351.33 182.787 354.03 182.848 357.121 183.676C360.171 184.493 362.499 185.78 364.104 187.535C365.751 189.301 366.751 191.424 367.102 193.904C367.465 196.342 367.254 199.024 366.47 201.95L360.457 224.391C359.695 227.234 358.527 229.616 356.953 231.535C355.389 233.413 353.453 234.705 351.143 235.412C348.834 236.118 346.216 236.079 343.29 235.295ZM345.543 226.888C346.655 227.186 347.553 227.051 348.235 226.483C348.918 225.915 349.468 225.179 349.887 224.275C350.317 223.33 350.642 222.446 350.863 221.621L356.777 199.552C357.02 198.645 357.191 197.675 357.291 196.642C357.433 195.62 357.35 194.692 357.043 193.859C356.747 192.984 356.022 192.393 354.868 192.083C353.715 191.774 352.77 191.919 352.036 192.517C351.353 193.085 350.797 193.842 350.367 194.787C349.979 195.743 349.663 196.674 349.42 197.581L343.507 219.65C343.286 220.474 343.125 221.403 343.025 222.436C342.936 223.428 343.065 224.347 343.413 225.191C343.761 226.035 344.471 226.601 345.543 226.888Z" fill="#553B92"/>
</g>
<g opacity="0.7">
<path d="M223.69 219.669L204.668 223.963C204.806 224.116 204.968 224.336 205.155 224.622C205.319 224.892 205.509 225.188 205.725 225.508C205.921 225.833 206.113 226.138 206.3 226.424C206.468 226.714 206.611 226.938 206.729 227.096L203.393 227.849C203.223 227.641 202.996 227.365 202.713 227.018C202.426 226.653 202.114 226.272 201.779 225.876C201.443 225.48 201.095 225.118 200.734 224.79C200.368 224.441 200.044 224.187 199.762 224.025L198.969 220.513L222.673 215.163L223.69 219.669ZM220.573 204.361C220.912 205.863 220.858 207.167 220.41 208.272C219.939 209.363 219.168 210.265 218.099 210.978C217.025 211.671 215.737 212.187 214.235 212.526L205.807 214.429C204.266 214.777 202.841 214.914 201.533 214.84C200.22 214.747 199.109 214.321 198.2 213.563C197.29 212.804 196.644 211.576 196.261 209.879C195.931 208.416 195.903 207.202 196.177 206.238C196.428 205.259 196.958 204.473 197.767 203.88C198.577 203.287 199.635 202.843 200.942 202.548C201 202.535 201.069 202.52 201.147 202.502C201.201 202.469 201.257 202.447 201.316 202.433L202.28 206.706C201.285 206.93 200.566 207.195 200.122 207.5C199.678 207.806 199.54 208.329 199.708 209.07C199.813 209.538 200.043 209.876 200.398 210.083C200.747 210.271 201.287 210.344 202.016 210.302C202.72 210.246 203.678 210.081 204.887 209.808L207.316 209.26C206.83 209.103 206.41 208.788 206.057 208.314C205.699 207.82 205.432 207.225 205.254 206.527C204.933 205.287 204.991 204.228 205.429 203.35C205.842 202.457 206.538 201.726 207.517 201.157C208.476 200.592 209.609 200.162 210.916 199.866C212.516 199.505 213.984 199.379 215.321 199.487C216.657 199.596 217.783 200.039 218.696 200.817C219.586 201.58 220.212 202.761 220.573 204.361ZM217.194 205.062C217.084 204.574 216.837 204.25 216.452 204.091C216.063 203.912 215.558 203.852 214.935 203.911C214.308 203.95 213.566 204.066 212.707 204.26C211.888 204.445 211.183 204.635 210.591 204.83C209.976 205.01 209.521 205.266 209.227 205.599C208.933 205.932 208.852 206.391 208.984 206.976C209.046 207.249 209.164 207.5 209.338 207.727C209.489 207.939 209.671 208.113 209.887 208.249C210.082 208.389 210.279 208.488 210.477 208.546L214.252 207.694C214.837 207.562 215.382 207.388 215.887 207.171C216.367 206.94 216.733 206.652 216.984 206.309C217.234 205.965 217.304 205.549 217.194 205.062Z" fill="#553B92"/>
</g>
<g opacity="0.7">
<path d="M317.413 288.855C319.917 289.526 321.786 290.523 323.022 291.848C324.218 293.196 324.912 294.806 325.106 296.68C325.291 298.585 325.086 300.65 324.489 302.876L324.129 304.22L316.989 302.307C317.006 302.245 317.051 302.075 317.126 301.797C317.192 301.55 317.258 301.303 317.324 301.055C317.616 299.842 317.793 298.812 317.854 297.967C317.875 297.145 317.724 296.475 317.399 295.957C317.073 295.439 316.509 295.073 315.705 294.857C314.871 294.634 314.199 294.669 313.689 294.963C313.172 295.288 312.728 295.832 312.358 296.594C311.988 297.356 311.646 298.325 311.331 299.499C310.826 301.385 310.715 302.912 310.998 304.081C311.272 305.281 312.24 306.12 313.901 306.598C313.932 306.607 314.087 306.648 314.365 306.723C314.643 306.797 314.906 306.867 315.153 306.934L313.737 312.219C313.551 312.17 313.366 312.12 313.18 312.07C312.964 312.012 312.779 311.963 312.624 311.921C310.955 311.474 309.707 311.62 308.879 312.359C308.021 313.09 307.335 314.413 306.821 316.329C306.424 317.813 306.33 319.03 306.539 319.981C306.748 320.931 307.44 321.564 308.614 321.879C309.789 322.193 310.686 321.937 311.305 321.109C311.924 320.281 312.444 319.145 312.864 317.7C312.931 317.453 313.005 317.175 313.088 316.866C313.163 316.588 313.237 316.309 313.312 316.031L320.452 317.944L319.905 319.984C319.317 322.179 318.418 323.926 317.209 325.225C315.991 326.555 314.533 327.423 312.834 327.829C311.135 328.236 309.219 328.153 307.086 327.581C304.953 327.01 303.233 326.135 301.926 324.956C300.618 323.778 299.777 322.343 299.402 320.652C298.996 318.953 299.086 317.007 299.675 314.812C300.263 312.617 301.215 310.918 302.531 309.714C303.817 308.501 305.178 307.872 306.615 307.826C305.771 307.269 305.088 306.539 304.568 305.638C304.047 304.736 303.748 303.629 303.669 302.316C303.582 301.034 303.774 299.512 304.246 297.75C304.851 295.494 305.714 293.571 306.835 291.983C307.948 290.426 309.379 289.352 311.127 288.761C312.876 288.169 314.971 288.2 317.413 288.855Z" fill="#553B92"/>
</g>
<g opacity="0.7">
<path d="M416.628 172.325L446.056 161.961C445.81 161.743 445.511 161.424 445.159 161.005C444.849 160.605 444.493 160.171 444.09 159.702C443.718 159.222 443.356 158.773 443.005 158.354C442.684 157.924 442.415 157.595 442.199 157.366L447.36 155.548C447.669 155.846 448.08 156.244 448.594 156.742C449.12 157.269 449.685 157.816 450.292 158.383C450.899 158.95 451.52 159.46 452.155 159.915C452.801 160.4 453.363 160.745 453.842 160.949L455.755 166.382L419.083 179.297L416.628 172.325ZM421.724 186.797L455.764 183.46L452.241 173.454L457.583 171.573L463.514 188.415L458.896 190.042L424.116 193.588L421.724 186.797Z" fill="#553B92"/>
</g>
<g opacity="0.7">
<path d="M455.099 261.476L464.244 277.96C464.349 277.791 464.509 277.581 464.723 277.329C464.929 277.104 465.152 276.848 465.391 276.561C465.639 276.29 465.87 276.029 466.084 275.778C466.308 275.543 466.477 275.35 466.592 275.198L468.195 278.089C468.049 278.303 467.853 278.588 467.609 278.945C467.348 279.311 467.079 279.703 466.803 280.122C466.526 280.54 466.285 280.962 466.078 281.386C465.854 281.82 465.706 282.19 465.632 282.496L462.589 284.184L451.194 263.643L455.099 261.476ZM442.082 268.3C443.435 267.55 444.662 267.211 445.764 267.285C446.876 267.376 447.876 267.805 448.766 268.571C449.639 269.348 450.417 270.353 451.102 271.587C451.412 272.145 451.652 272.697 451.822 273.243C451.993 273.79 452.089 274.322 452.111 274.841C452.134 275.359 452.085 275.85 451.967 276.314C451.841 276.804 451.631 277.263 451.338 277.691C452.121 277.787 452.925 278.081 453.751 278.574C454.57 279.093 455.302 279.914 455.947 281.037C456.592 282.16 456.945 283.236 457.007 284.263C457.078 285.307 456.846 286.264 456.312 287.135C455.778 288.006 454.937 288.761 453.787 289.399C452.621 290.046 451.535 290.361 450.53 290.343C449.509 290.335 448.582 290.02 447.751 289.398C446.929 288.793 446.212 287.919 445.6 286.777C444.98 285.618 444.666 284.554 444.659 283.585C444.644 282.642 444.817 281.817 445.176 281.109C444.657 281.132 444.165 281.062 443.7 280.9C443.227 280.765 442.776 280.55 442.348 280.257C441.92 279.964 441.519 279.6 441.146 279.166C440.756 278.742 440.406 278.25 440.096 277.692C439.378 276.477 438.937 275.284 438.775 274.114C438.595 272.954 438.761 271.878 439.272 270.887C439.776 269.922 440.713 269.06 442.082 268.3ZM443.7 271.216C443.21 271.488 442.94 271.859 442.891 272.328C442.842 272.798 442.919 273.296 443.124 273.824C443.328 274.352 443.557 274.844 443.81 275.3C444.093 275.851 444.418 276.356 444.784 276.816C445.133 277.286 445.515 277.616 445.93 277.806C446.345 277.996 446.797 277.955 447.287 277.683C447.761 277.42 448.035 277.058 448.111 276.596C448.169 276.143 448.1 275.64 447.903 275.086C447.699 274.558 447.442 274.015 447.132 273.458C446.879 273.001 446.578 272.538 446.229 272.068C445.889 271.616 445.507 271.286 445.083 271.079C444.651 270.898 444.19 270.944 443.7 271.216ZM449.06 280.878C448.722 281.066 448.522 281.342 448.46 281.709C448.38 282.084 448.422 282.537 448.583 283.066C448.744 283.596 449.003 284.182 449.359 284.824C449.762 285.551 450.204 286.069 450.685 286.377C451.158 286.712 451.648 286.738 452.155 286.457C452.662 286.176 452.916 285.736 452.916 285.139C452.909 284.568 452.709 283.928 452.315 283.218C451.958 282.575 451.602 282.032 451.245 281.589C450.881 281.172 450.519 280.898 450.159 280.766C449.781 280.644 449.415 280.681 449.06 280.878Z" fill="#553B92"/>
</g>
<g opacity="0.7">
<path d="M393.692 316.559L397.385 318.852L400.369 314.045L402.733 315.512L409.945 325.701L407.761 329.218L397.932 323.117L396.986 324.641L394.68 323.209L395.626 321.685L391.933 319.393L393.692 316.559ZM401.195 317.86L399.691 320.283L406.413 324.456L401.195 317.86Z" fill="#553B92"/>
</g>
<g opacity="0.7">
<path d="M238.804 272.098C238.982 273.265 238.87 274.26 238.469 275.081C238.049 275.89 237.412 276.538 236.556 277.026C235.697 277.498 234.684 277.824 233.517 278.002L226.969 279.004C225.772 279.187 224.675 279.215 223.678 279.088C222.679 278.946 221.853 278.561 221.198 277.932C220.543 277.303 220.115 276.329 219.914 275.01C219.74 273.873 219.784 272.944 220.046 272.221C220.29 271.486 220.738 270.913 221.388 270.503C222.039 270.094 222.872 269.811 223.888 269.656C223.933 269.649 223.987 269.641 224.047 269.632C224.09 269.609 224.135 269.595 224.18 269.588L224.688 272.907C223.915 273.026 223.35 273.189 222.995 273.399C222.639 273.608 222.505 274.001 222.593 274.577C222.649 274.941 222.806 275.212 223.066 275.389C223.324 275.551 223.732 275.636 224.292 275.644C224.834 275.638 225.575 275.564 226.514 275.42L228.402 275.132C228.038 274.985 227.734 274.722 227.489 274.34C227.243 273.944 227.07 273.474 226.971 272.93C226.793 271.965 226.894 271.158 227.276 270.511C227.64 269.85 228.212 269.328 228.991 268.945C229.755 268.565 230.645 268.297 231.66 268.142C232.903 267.952 234.033 267.934 235.049 268.089C236.066 268.244 236.902 268.643 237.559 269.287C238.199 269.918 238.614 270.855 238.804 272.098ZM236.182 272.453C236.124 272.074 235.952 271.813 235.667 271.671C235.379 271.513 234.996 271.44 234.516 271.451C234.035 271.447 233.461 271.496 232.794 271.598C232.157 271.695 231.608 271.803 231.145 271.92C230.664 272.024 230.303 272.196 230.06 272.435C229.817 272.674 229.731 273.02 229.8 273.475C229.833 273.687 229.909 273.885 230.031 274.068C230.134 274.238 230.265 274.381 230.422 274.497C230.564 274.615 230.709 274.701 230.857 274.756L233.79 274.308C234.245 274.238 234.671 274.134 235.068 273.996C235.449 273.845 235.744 273.644 235.954 273.395C236.164 273.146 236.24 272.832 236.182 272.453Z" fill="#553B92"/>
</g>
<g opacity="0.7">
<path d="M400.862 106.165L401.107 102.904L407.681 94.2819C408.171 93.6367 408.629 93.0193 409.054 92.4294C409.499 91.8411 409.866 91.2369 410.153 90.6167C410.462 89.978 410.644 89.2897 410.699 88.5518C410.757 87.7739 410.652 87.1744 410.383 86.753C410.115 86.3117 409.702 86.0701 409.144 86.0282C408.545 85.9833 408.074 86.1183 407.729 86.4334C407.386 86.7285 407.135 87.1409 406.975 87.6704C406.815 88.1999 406.71 88.7837 406.663 89.4219L406.577 90.5587L402.06 90.2195L402.15 89.0228C402.258 87.5869 402.573 86.3269 403.095 85.243C403.638 84.1606 404.411 83.3462 405.415 82.7999C406.44 82.2351 407.741 82.0118 409.316 82.1302C411.45 82.2904 413.014 82.9694 414.007 84.1671C415 85.3649 415.421 86.9709 415.269 88.9852C415.196 89.9625 414.978 90.8587 414.616 91.6739C414.256 92.4691 413.797 93.2369 413.24 93.9773C412.704 94.6992 412.127 95.448 411.507 96.2238L406.312 102.904L413.522 103.445L413.248 107.095L400.862 106.165Z" fill="#553B92"/>
</g>
<g opacity="0.7">
<path d="M285.894 145.647C284.117 147.491 282.339 148.621 280.559 149.039C278.756 149.434 276.964 149.241 275.185 148.459C273.427 147.654 271.707 146.441 270.025 144.82C269.265 144.087 268.617 143.33 268.082 142.547C267.548 141.765 267.137 140.969 266.85 140.16C266.564 139.351 266.402 138.55 266.365 137.759C266.327 136.922 266.436 136.094 266.692 135.275C265.406 135.502 263.991 135.426 262.445 135.047C260.898 134.623 259.341 133.679 257.776 132.214C256.21 130.749 255.129 129.219 254.534 127.623C253.915 126.005 253.817 124.378 254.24 122.74C254.662 121.103 255.628 119.501 257.138 117.934C258.671 116.345 260.236 115.32 261.834 114.86C263.455 114.378 265.074 114.427 266.691 115.008C268.286 115.567 269.844 116.602 271.366 118.113C272.91 119.646 273.923 121.178 274.404 122.708C274.884 124.192 275.011 125.582 274.786 126.876C275.596 126.59 276.408 126.461 277.223 126.492C278.038 126.477 278.855 126.597 279.674 126.854C280.494 127.11 281.304 127.491 282.105 127.997C282.929 128.48 283.721 129.087 284.481 129.82C286.208 131.395 287.484 133.069 288.308 134.842C289.155 136.591 289.415 138.374 289.086 140.191C288.757 141.962 287.693 143.781 285.894 145.647ZM281.919 141.817C282.563 141.149 282.81 140.431 282.66 139.664C282.51 138.898 282.146 138.146 281.566 137.41C280.987 136.674 280.386 136.006 279.764 135.407C279.049 134.673 278.29 134.031 277.488 133.48C276.708 132.906 275.944 132.569 275.195 132.47C274.446 132.37 273.75 132.655 273.106 133.323C272.484 133.968 272.226 134.675 272.33 135.442C272.457 136.187 272.811 136.949 273.391 137.731C273.97 138.467 274.64 139.201 275.401 139.934C276.023 140.534 276.724 141.121 277.504 141.695C278.261 142.246 279.025 142.583 279.797 142.705C280.568 142.781 281.275 142.485 281.919 141.817ZM268.751 129.126C269.195 128.665 269.378 128.13 269.299 127.521C269.242 126.888 268.957 126.192 268.445 125.432C267.933 124.672 267.24 123.87 266.364 123.026C265.373 122.071 264.423 121.466 263.513 121.211C262.602 120.911 261.814 121.107 261.148 121.798C260.481 122.489 260.293 123.308 260.582 124.253C260.87 125.153 261.498 126.069 262.466 127.002C263.341 127.845 264.169 128.532 264.948 129.061C265.726 129.544 266.433 129.803 267.067 129.836C267.724 129.847 268.285 129.61 268.751 129.126Z" fill="#553B92"/>
</g>
<g opacity="0.7">
<path d="M320.045 82.7968L328.711 65.3286C328.506 65.3382 328.233 65.3256 327.893 65.2909C327.58 65.2472 327.231 65.208 326.846 65.1734C326.47 65.1209 326.112 65.0773 325.772 65.0426C325.441 64.9899 325.177 64.9594 324.98 64.9511L326.5 61.8874C326.769 61.8866 327.126 61.8855 327.574 61.8841C328.039 61.8916 328.531 61.8901 329.049 61.8795C329.568 61.869 330.069 61.8272 330.552 61.7542C331.052 61.69 331.455 61.5993 331.758 61.4821L334.983 63.0821L324.183 84.8502L320.045 82.7968ZM333.85 90.1151C332.542 89.4662 331.591 88.6597 330.998 87.6955C330.405 86.7314 330.124 85.6768 330.156 84.5318C330.198 83.3689 330.525 82.1694 331.138 80.9332L335.978 71.1779C336.609 69.9058 337.366 68.8972 338.25 68.1521C339.142 67.3891 340.151 66.9522 341.278 66.8414C342.404 66.7306 343.64 67.0085 344.983 67.6752C346.309 68.3329 347.26 69.1395 347.835 70.0947C348.428 71.0589 348.691 72.1269 348.623 73.2988C348.564 74.4528 348.219 75.6658 347.588 76.9379L342.748 86.6932C342.134 87.9294 341.377 88.9156 340.476 89.6519C339.584 90.3702 338.575 90.7847 337.448 90.8955C336.321 91.0063 335.122 90.7462 333.85 90.1151ZM335.663 86.4602C336.147 86.7002 336.572 86.7212 336.938 86.5233C337.304 86.3254 337.625 86.0382 337.901 85.6617C338.186 85.2673 338.418 84.8909 338.595 84.5326L343.355 74.9385C343.551 74.5443 343.72 74.1145 343.861 73.649C344.021 73.1923 344.069 72.7584 344.005 72.3471C343.95 71.918 343.672 71.5789 343.17 71.33C342.668 71.0811 342.221 71.0602 341.828 71.2671C341.462 71.465 341.136 71.7612 340.851 72.1556C340.584 72.5589 340.353 72.9577 340.157 73.3518L335.397 82.9459C335.22 83.3042 335.06 83.7162 334.918 84.1817C334.785 84.6293 334.76 85.0632 334.842 85.4833C334.924 85.9035 335.197 86.2291 335.663 86.4602Z" fill="#553B92"/>
</g>
<g filter="url(#filter1_ddddd_17_740)">
<rect x="199" y="446.887" width="287" height="56" rx="7.62745" fill="#4414AA"/>
</g>
<path d="M302.632 492V457.052H311.692C314.051 457.052 316.064 457.326 317.733 457.872C319.43 458.39 320.724 459.325 321.616 460.677C322.536 462.028 322.996 463.898 322.996 466.285C322.996 467.724 322.867 469.004 322.608 470.125C322.378 471.218 321.947 472.182 321.314 473.016C320.71 473.821 319.847 474.469 318.725 474.958L323.557 492H316.266L312.253 476.166H309.751V492H302.632ZM309.751 471.937H311.822C312.972 471.937 313.878 471.751 314.54 471.377C315.201 471.003 315.662 470.442 315.921 469.694C316.208 468.917 316.352 467.968 316.352 466.846C316.352 465.236 316.05 464.013 315.446 463.179C314.871 462.316 313.778 461.885 312.167 461.885H309.751V471.937ZM337.284 492.475C334.724 492.475 332.696 492.014 331.2 491.094C329.705 490.174 328.626 488.865 327.964 487.168C327.332 485.442 327.015 483.385 327.015 480.998V467.968C327.015 465.581 327.332 463.539 327.964 461.842C328.626 460.144 329.705 458.85 331.2 457.958C332.696 457.067 334.724 456.621 337.284 456.621C339.873 456.621 341.915 457.081 343.41 458.002C344.935 458.893 346.014 460.188 346.646 461.885C347.308 463.553 347.639 465.581 347.639 467.968V480.998C347.639 483.385 347.308 485.442 346.646 487.168C346.014 488.865 344.935 490.174 343.41 491.094C341.915 492.014 339.873 492.475 337.284 492.475ZM337.284 487.34C338.204 487.34 338.88 487.139 339.312 486.736C339.743 486.305 340.031 485.744 340.175 485.054C340.318 484.335 340.39 483.572 340.39 482.767V466.242C340.39 465.437 340.318 464.689 340.175 463.999C340.031 463.308 339.743 462.762 339.312 462.359C338.88 461.928 338.204 461.712 337.284 461.712C336.421 461.712 335.774 461.928 335.342 462.359C334.911 462.762 334.623 463.308 334.479 463.999C334.336 464.689 334.264 465.437 334.264 466.242V482.767C334.264 483.572 334.321 484.335 334.436 485.054C334.58 485.744 334.868 486.305 335.299 486.736C335.731 487.139 336.392 487.34 337.284 487.34ZM352.392 492V457.052H359.511V487.168H367.709V492H352.392ZM371.057 492V457.052H378.176V487.168H386.374V492H371.057Z" fill="#F5F5FA"/>
<defs>
<filter id="filter0_d_17_740" x="303.871" y="173.114" width="66.5413" height="65.7427" filterUnits="userSpaceOnUse" color-interpolation-filters="sRGB">
<feFlood flood-opacity="0" result="BackgroundImageFix"/>
<feColorMatrix in="SourceAlpha" type="matrix" values="0 0 0 0 0 0 0 0 0 0 0 0 0 0 0 0 0 0 127 0" result="hardAlpha"/>
<feOffset/>
<feComposite in2="hardAlpha" operator="out"/>
<feColorMatrix type="matrix" values="0 0 0 0 0.264705 0 0 0 0 0.318651 0 0 0 0 0.804167 0 0 0 0.8 0"/>
<feBlend mode="normal" in2="BackgroundImageFix" result="effect1_dropShadow_17_740"/>
<feBlend mode="normal" in="SourceGraphic" in2="effect1_dropShadow_17_740" result="shape"/>
</filter>
<filter id="filter1_ddddd_17_740" x="0" y="409.887" width="685" height="789" filterUnits="userSpaceOnUse" color-interpolation-filters="sRGB">
<feFlood flood-opacity="0" result="BackgroundImageFix"/>
<feColorMatrix in="SourceAlpha" type="matrix" values="0 0 0 0 0 0 0 0 0 0 0 0 0 0 0 0 0 0 127 0" result="hardAlpha"/>
<feOffset/>
<feColorMatrix type="matrix" values="0 0 0 0 0 0 0 0 0 0 0 0 0 0 0 0 0 0 0.1 0"/>
<feBlend mode="normal" in2="BackgroundImageFix" result="effect1_dropShadow_17_740"/>
<feColorMatrix in="SourceAlpha" type="matrix" values="0 0 0 0 0 0 0 0 0 0 0 0 0 0 0 0 0 0 127 0" result="hardAlpha"/>
<feOffset dy="31"/>
<feGaussianBlur stdDeviation="34"/>
<feColorMatrix type="matrix" values="0 0 0 0 0 0 0 0 0 0 0 0 0 0 0 0 0 0 0.1 0"/>
<feBlend mode="normal" in2="effect1_dropShadow_17_740" result="effect2_dropShadow_17_740"/>
<feColorMatrix in="SourceAlpha" type="matrix" values="0 0 0 0 0 0 0 0 0 0 0 0 0 0 0 0 0 0 127 0" result="hardAlpha"/>
<feOffset dy="124"/>
<feGaussianBlur stdDeviation="62"/>
<feColorMatrix type="matrix" values="0 0 0 0 0 0 0 0 0 0 0 0 0 0 0 0 0 0 0.09 0"/>
<feBlend mode="normal" in2="effect2_dropShadow_17_740" result="effect3_dropShadow_17_740"/>
<feColorMatrix in="SourceAlpha" type="matrix" values="0 0 0 0 0 0 0 0 0 0 0 0 0 0 0 0 0 0 127 0" result="hardAlpha"/>
<feOffset dy="280"/>
<feGaussianBlur stdDeviation="84"/>
<feColorMatrix type="matrix" values="0 0 0 0 0 0 0 0 0 0 0 0 0 0 0 0 0 0 0.05 0"/>
<feBlend mode="normal" in2="effect3_dropShadow_17_740" result="effect4_dropShadow_17_740"/>
<feColorMatrix in="SourceAlpha" type="matrix" values="0 0 0 0 0 0 0 0 0 0 0 0 0 0 0 0 0 0 127 0" result="hardAlpha"/>
<feOffset dy="497"/>
<feGaussianBlur stdDeviation="99.5"/>
<feColorMatrix type="matrix" values="0 0 0 0 0 0 0 0 0 0 0 0 0 0 0 0 0 0 0.01 0"/>
<feBlend mode="normal" in2="effect4_dropShadow_17_740" result="effect5_dropShadow_17_740"/>
<feBlend mode="normal" in="SourceGraphic" in2="effect5_dropShadow_17_740" result="shape"/>
</filter>
</defs>
</svg>
