<svg width="685" height="1199" viewBox="0 0 685 1199" fill="none" xmlns="http://www.w3.org/2000/svg">
<path d="M507.922 160.459L383.843 38.1787L220.077 83.3313L176.466 246.09L295.327 368.525L464.311 323.218L507.922 160.459Z" fill="#F5F5FA" stroke="#553B92" stroke-width="10"/>
<path d="M366.373 103.379L415.042 288.793M366.373 103.379L507.922 160.459M366.373 103.379L383.843 38.1787M366.373 103.379L220.077 83.3313M366.373 103.379L232.482 239.876M415.042 288.793L507.922 160.459M415.042 288.793L232.482 239.876M415.042 288.793L295.327 368.525M415.042 288.793L464.311 323.218M507.922 160.459L383.843 38.1787M507.922 160.459L464.311 323.218M383.843 38.1787L220.077 83.3313M464.311 323.218L295.327 368.525M295.327 368.525L176.466 246.09M295.327 368.525L232.482 239.876M176.466 246.09L220.077 83.3313M176.466 246.09L232.482 239.876M220.077 83.3313L232.482 239.876" stroke="#553B92" stroke-width="10"/>
<circle cx="366.114" cy="104.344" r="9.5" transform="rotate(15 366.114 104.344)" stroke="#553B92" stroke-width="6"/>
<circle cx="414.465" cy="287.087" r="9.5" transform="rotate(15 414.465 287.087)" stroke="#553B92" stroke-width="6"/>
<circle cx="233.837" cy="238.684" r="9.5" transform="rotate(15 233.837 238.684)" stroke="#553B92" stroke-width="6"/>
<g filter="url(#filter0_d_17_1141)">
<path d="M311.819 225.935L322.586 185.752C322.16 185.859 321.584 185.948 320.858 186.018C320.185 186.059 319.438 186.124 318.619 186.213C317.811 186.262 317.044 186.321 316.319 186.392C315.604 186.421 315.039 186.469 314.624 186.534L316.512 179.487C317.073 179.372 317.821 179.219 318.756 179.028C319.732 178.848 320.76 178.637 321.84 178.397C322.921 178.156 323.95 177.858 324.929 177.502C325.949 177.157 326.752 176.798 327.338 176.424L334.756 178.412L321.339 228.486L311.819 225.935ZM343.823 235.239C340.649 234.389 338.241 232.992 336.597 231.05C335.005 229.078 334.067 226.728 333.781 224.001C333.537 221.285 333.84 218.341 334.691 215.168L339.461 197.364C340.333 194.108 341.488 191.281 342.926 188.883C344.405 186.497 346.311 184.821 348.646 183.857C350.98 182.892 353.941 182.89 357.526 183.851C360.617 184.679 362.937 185.831 364.485 187.306C366.086 188.75 367.044 190.531 367.36 192.648C367.677 194.764 367.465 197.203 366.725 199.965C366.692 200.088 366.653 200.233 366.609 200.397C366.617 200.532 366.604 200.661 366.571 200.785L357.546 198.366C358.109 196.265 358.323 194.643 358.186 193.503C358.05 192.362 357.199 191.582 355.633 191.162C354.644 190.897 353.778 190.996 353.036 191.46C352.334 191.934 351.661 192.88 351.016 194.298C350.424 195.685 349.785 197.656 349.1 200.211L347.726 205.342C348.504 204.579 349.516 204.1 350.762 203.903C352.048 203.718 353.439 203.803 354.933 204.16C357.593 204.784 359.535 205.945 360.759 207.642C362.035 209.309 362.725 211.349 362.829 213.762C362.944 216.134 362.632 218.701 361.892 221.462C360.987 224.842 359.768 227.74 358.237 230.157C356.706 232.573 354.753 234.259 352.377 235.212C350.054 236.136 347.202 236.145 343.823 235.239ZM345.851 228.163C346.882 228.439 347.738 228.293 348.42 227.725C349.144 227.168 349.759 226.273 350.266 225.039C350.815 223.817 351.332 222.299 351.818 220.486C352.282 218.755 352.623 217.234 352.841 215.923C353.112 214.582 353.079 213.469 352.742 212.584C352.405 211.698 351.619 211.09 350.382 210.759C349.805 210.604 349.216 210.579 348.614 210.682C348.064 210.756 347.554 210.928 347.084 211.2C346.624 211.43 346.242 211.703 345.937 212.019L343.8 219.994C343.469 221.23 343.257 222.432 343.165 223.6C343.125 224.738 343.305 225.714 343.705 226.528C344.106 227.342 344.821 227.887 345.851 228.163Z" fill="#553B92"/>
</g>
<g opacity="0.7">
<path d="M223.25 217.719L204.228 222.012C204.365 222.166 204.528 222.385 204.715 222.671C204.879 222.942 205.069 223.237 205.284 223.557C205.481 223.882 205.673 224.187 205.86 224.473C206.028 224.763 206.171 224.987 206.289 225.145L202.953 225.898C202.783 225.691 202.556 225.414 202.273 225.068C201.985 224.702 201.674 224.321 201.339 223.925C201.003 223.529 200.655 223.167 200.294 222.839C199.928 222.491 199.604 222.236 199.321 222.074L198.529 218.562L222.232 213.212L223.25 217.719ZM220.676 206.316L201.654 210.609C201.792 210.763 201.954 210.983 202.141 211.268C202.305 211.539 202.495 211.835 202.711 212.155C202.907 212.48 203.099 212.785 203.286 213.071C203.454 213.361 203.597 213.585 203.715 213.743L200.379 214.496C200.209 214.288 199.982 214.011 199.699 213.665C199.412 213.299 199.1 212.919 198.765 212.523C198.429 212.127 198.081 211.765 197.72 211.436C197.354 211.088 197.03 210.833 196.748 210.671L195.955 207.16L219.659 201.809L220.676 206.316Z" fill="#553B92"/>
</g>
<g opacity="0.7">
<path d="M332.23 293.52L324.155 323.657C324.475 323.577 324.907 323.511 325.451 323.458C325.956 323.428 326.516 323.379 327.13 323.311C327.736 323.275 328.311 323.23 328.856 323.177C329.392 323.155 329.815 323.12 330.126 323.071L328.71 328.356C328.29 328.442 327.729 328.557 327.028 328.701C326.296 328.836 325.525 328.994 324.714 329.174C323.904 329.354 323.132 329.578 322.398 329.845C321.633 330.104 321.03 330.373 320.591 330.653L315.027 329.162L325.09 291.607L332.23 293.52ZM308.265 286.403C310.521 287.008 312.267 287.972 313.502 289.297C314.737 290.622 315.51 292.188 315.822 293.994C316.125 295.831 315.99 297.815 315.419 299.948L310.909 316.779C310.321 318.973 309.452 320.794 308.302 322.242C307.144 323.721 305.699 324.725 303.967 325.255C302.235 325.784 300.209 325.739 297.891 325.117C295.604 324.505 293.858 323.54 292.654 322.223C291.419 320.898 290.669 319.306 290.406 317.447C290.134 315.618 290.292 313.606 290.88 311.412L295.389 294.581C295.961 292.449 296.837 290.663 298.018 289.223C299.19 287.815 300.643 286.845 302.375 286.316C304.107 285.786 306.07 285.815 308.265 286.403ZM306.575 292.709C305.741 292.485 305.067 292.586 304.556 293.012C304.044 293.438 303.631 293.99 303.317 294.668C302.995 295.377 302.751 296.04 302.585 296.659L298.15 313.211C297.968 313.891 297.839 314.618 297.764 315.393C297.658 316.16 297.72 316.856 297.95 317.48C298.172 318.136 298.715 318.58 299.581 318.812C300.446 319.044 301.154 318.935 301.705 318.487C302.217 318.061 302.634 317.493 302.957 316.784C303.248 316.068 303.485 315.369 303.667 314.689L308.102 298.137C308.268 297.519 308.388 296.822 308.463 296.047C308.53 295.303 308.433 294.615 308.172 293.981C307.911 293.348 307.379 292.924 306.575 292.709Z" fill="#553B92"/>
</g>
<g opacity="0.7">
<path d="M415.963 170.438L445.392 160.074C445.145 159.856 444.846 159.537 444.495 159.118C444.185 158.718 443.828 158.284 443.426 157.815C443.053 157.336 442.692 156.886 442.34 156.467C442.019 156.037 441.751 155.708 441.534 155.479L446.696 153.661C447.004 153.96 447.416 154.358 447.93 154.855C448.455 155.382 449.021 155.93 449.628 156.496C450.234 157.063 450.855 157.574 451.49 158.028C452.136 158.514 452.699 158.858 453.178 159.063L455.091 164.496L418.419 177.41L415.963 170.438ZM424.296 194.101L432.853 191.087L428.931 179.95L434.409 178.02L460.411 179.602L463.281 187.751L440.507 195.771L441.751 199.302L436.409 201.183L435.165 197.652L426.608 200.665L424.296 194.101ZM436.219 183.592L438.196 189.206L453.77 183.721L436.219 183.592Z" fill="#553B92"/>
</g>
<g opacity="0.7">
<path d="M448.541 265.115L457.685 281.598C457.79 281.429 457.95 281.219 458.164 280.968C458.371 280.742 458.594 280.486 458.832 280.199C459.08 279.929 459.312 279.668 459.526 279.416C459.749 279.182 459.919 278.988 460.033 278.836L461.637 281.727C461.49 281.941 461.295 282.227 461.051 282.583C460.789 282.949 460.521 283.342 460.244 283.76C459.968 284.179 459.726 284.6 459.52 285.024C459.296 285.458 459.147 285.828 459.074 286.134L456.031 287.822L444.635 267.281L448.541 265.115Z" fill="#553B92"/>
</g>
<g opacity="0.7">
<path d="M396.518 312.006L398.648 313.328L402.179 320.853C402.444 321.415 402.702 321.945 402.952 322.443C403.194 322.954 403.475 323.418 403.795 323.833C404.12 324.269 404.523 324.637 405.005 324.936C405.513 325.251 405.958 325.392 406.34 325.358C406.735 325.333 407.046 325.138 407.272 324.773C407.515 324.382 407.59 324.014 407.498 323.668C407.419 323.33 407.228 323.013 406.925 322.716C406.621 322.42 406.261 322.142 405.844 321.883L405.102 321.422L406.933 318.472L407.715 318.957C408.653 319.539 409.398 320.2 409.95 320.939C410.493 321.692 410.773 322.506 410.788 323.382C410.809 324.279 410.5 325.242 409.861 326.272C408.996 327.665 407.98 328.488 406.814 328.738C405.648 328.989 404.407 328.706 403.091 327.889C402.452 327.493 401.92 327.027 401.494 326.492C401.082 325.965 400.722 325.381 400.416 324.74C400.115 324.12 399.811 323.462 399.503 322.766L396.803 316.867L393.88 321.576L391.496 320.096L396.518 312.006Z" fill="#553B92"/>
</g>
<g opacity="0.7">
<path d="M238.852 272.417C239.026 273.554 238.991 274.49 238.747 275.225C238.487 275.963 238.032 276.537 237.381 276.946C236.715 277.358 235.874 277.642 234.859 277.797C234.813 277.804 234.768 277.811 234.722 277.818C234.677 277.825 234.631 277.832 234.586 277.839L234.078 274.52C234.851 274.401 235.416 274.238 235.771 274.028C236.125 273.803 236.256 273.396 236.166 272.804C236.11 272.441 235.954 272.178 235.696 272.015C235.439 271.853 235.031 271.776 234.474 271.783C233.917 271.791 233.176 271.866 232.251 272.007L230.364 272.295C230.73 272.457 231.035 272.728 231.28 273.109C231.524 273.491 231.695 273.946 231.791 274.474C231.957 275.457 231.842 276.281 231.448 276.946C231.038 277.614 230.436 278.14 229.642 278.525C228.845 278.895 227.939 279.158 226.924 279.313C225.666 279.506 224.55 279.513 223.577 279.336C222.603 279.159 221.803 278.747 221.177 278.098C220.548 277.434 220.142 276.503 219.959 275.306C219.78 274.139 219.886 273.153 220.275 272.349C220.648 271.548 221.249 270.913 222.077 270.445C222.906 269.977 223.911 269.653 225.093 269.472L231.8 268.446C232.997 268.263 234.094 268.235 235.091 268.362C236.088 268.489 236.913 268.867 237.568 269.495C238.222 270.124 238.651 271.098 238.852 272.417ZM228.959 273.906C228.905 273.558 228.772 273.291 228.557 273.107C228.325 272.91 228.109 272.764 227.909 272.671L224.976 273.119C224.506 273.191 224.08 273.295 223.697 273.431C223.315 273.567 223.018 273.752 222.805 273.987C222.593 274.221 222.516 274.527 222.573 274.906C222.631 275.285 222.804 275.553 223.092 275.711C223.38 275.869 223.765 275.949 224.246 275.953C224.725 275.942 225.298 275.886 225.965 275.784C226.587 275.689 227.136 275.581 227.614 275.462C228.092 275.342 228.454 275.17 228.699 274.947C228.942 274.708 229.028 274.361 228.959 273.906Z" fill="#553B92"/>
</g>
<g opacity="0.7">
<path d="M398.761 107.61L400.221 88.1647C400.034 88.251 399.777 88.342 399.448 88.4377C399.142 88.5149 398.804 88.6099 398.434 88.7225C398.066 88.8152 397.718 88.9094 397.39 89.0051C397.064 89.0809 396.808 89.1519 396.622 89.2182L396.878 85.8078C397.127 85.7061 397.458 85.5705 397.871 85.401C398.305 85.233 398.76 85.0466 399.237 84.8417C399.714 84.6369 400.162 84.4098 400.582 84.1605C401.022 83.9128 401.36 83.6775 401.598 83.4546L405.188 83.7242L403.368 107.956L398.761 107.61ZM413.707 109.154C412.011 109.026 410.738 108.62 409.887 107.934C409.036 107.248 408.483 106.334 408.228 105.192C407.993 104.051 407.931 102.733 408.044 101.237L412.501 101.572C412.435 102.45 412.429 103.191 412.484 103.797C412.559 104.404 412.725 104.868 412.981 105.188C413.258 105.51 413.686 105.682 414.266 105.706C414.846 105.729 415.281 105.541 415.572 105.142C415.863 104.743 416.067 104.156 416.186 103.383C416.304 102.61 416.403 101.695 416.482 100.638C416.547 99.78 416.554 99.0184 416.503 98.3527C416.453 97.6871 416.292 97.1536 416.022 96.7522C415.771 96.3523 415.347 96.1298 414.748 96.0849C414.21 96.0445 413.747 96.2002 413.359 96.5522C412.992 96.9057 412.702 97.4254 412.49 98.1115L408.541 97.8149L409.904 84.0784L421.032 84.9142L420.734 88.893L413.404 88.3425L412.733 93.6772C412.995 93.396 413.413 93.1667 413.988 92.9893C414.583 92.8133 415.211 92.7301 415.872 92.7397C417.137 92.7144 418.156 93.0316 418.929 93.6913C419.722 94.3525 420.273 95.2865 420.584 96.4931C420.896 97.6798 420.989 99.1108 420.863 100.786C420.767 102.062 420.599 103.243 420.357 104.328C420.116 105.393 419.737 106.307 419.218 107.071C418.701 107.814 417.997 108.373 417.107 108.747C416.216 109.121 415.083 109.257 413.707 109.154Z" fill="#553B92"/>
</g>
<g opacity="0.7">
<path d="M275.337 155.772L252.871 134.121C252.787 134.439 252.636 134.85 252.419 135.351C252.201 135.808 251.973 136.322 251.735 136.892C251.473 137.44 251.234 137.965 251.017 138.467C250.777 138.946 250.603 139.334 250.495 139.63L246.555 135.833C246.683 135.423 246.854 134.877 247.068 134.194C247.304 133.488 247.539 132.737 247.773 131.941C248.007 131.144 248.185 130.36 248.307 129.589C248.451 128.794 248.506 128.136 248.474 127.616L252.471 123.469L280.466 150.449L275.337 155.772ZM284.985 145.761L281.217 142.13L277.307 125.229C277.012 123.967 276.718 122.773 276.426 121.647C276.156 120.498 275.785 119.43 275.315 118.442C274.843 117.41 274.181 116.483 273.328 115.662C272.43 114.796 271.583 114.313 270.789 114.215C269.972 114.094 269.253 114.356 268.631 115.001C267.965 115.693 267.65 116.411 267.687 117.158C267.7 117.881 267.951 118.612 268.44 119.35C268.929 120.088 269.542 120.812 270.279 121.523L271.593 122.788L266.563 128.007L265.181 126.675C263.522 125.076 262.291 123.402 261.489 121.651C260.71 119.878 260.496 118.094 260.848 116.299C261.198 114.46 262.251 112.63 264.005 110.81C266.381 108.344 268.814 107.111 271.303 107.11C273.793 107.11 276.201 108.231 278.528 110.473C279.657 111.562 280.539 112.745 281.174 114.023C281.785 115.279 282.263 116.628 282.606 118.07C282.949 119.467 283.282 120.943 283.605 122.499L286.53 135.718L294.558 127.389L298.774 131.452L284.985 145.761Z" fill="#553B92"/>
</g>
<g opacity="0.7">
<path d="M329.03 85.4992C327.65 84.8148 326.673 83.9502 326.097 82.9055C325.548 81.8518 325.334 80.6852 325.456 79.4058C325.595 78.1353 326.007 76.8102 326.691 75.4307L330.531 67.6909C331.233 66.2755 332.026 65.0835 332.908 64.1148C333.808 63.155 334.84 62.5615 336.002 62.3342C337.164 62.107 338.524 62.3801 340.083 63.1535C341.427 63.8201 342.386 64.564 342.961 65.3851C343.563 66.1972 343.838 67.1042 343.788 68.1061C343.737 69.108 343.414 70.2092 342.819 71.4095C342.792 71.4633 342.761 71.526 342.725 71.5977C342.716 71.6603 342.699 71.7185 342.672 71.7722L338.748 69.8256C339.202 68.9118 339.45 68.1866 339.493 67.6498C339.536 67.113 339.217 66.6757 338.536 66.3379C338.106 66.1246 337.699 66.0901 337.315 66.2344C336.949 66.3876 336.552 66.76 336.125 67.3516C335.724 67.9343 335.248 68.781 334.697 69.8918L333.59 72.1223C334.019 71.8437 334.528 71.7169 335.119 71.7419C335.727 71.7758 336.358 71.9438 337.012 72.2459C338.176 72.779 338.961 73.4921 339.366 74.3853C339.798 75.2694 339.927 76.2708 339.751 77.3894C339.585 78.49 339.204 79.6405 338.608 80.8409C337.879 82.31 337.051 83.529 336.124 84.4979C335.197 85.4667 334.143 86.0603 332.963 86.2786C331.81 86.4879 330.499 86.2281 329.03 85.4992ZM330.617 82.4354C331.065 82.6576 331.472 82.6697 331.838 82.4718C332.222 82.2828 332.587 81.9284 332.935 81.4085C333.3 80.8976 333.678 80.248 334.069 79.4596C334.442 78.7072 334.74 78.0399 334.962 77.4578C335.21 76.8667 335.298 76.3522 335.225 75.9141C335.152 75.4761 334.847 75.1237 334.31 74.8571C334.059 74.7326 333.79 74.6664 333.504 74.6583C333.245 74.6412 332.994 74.6733 332.753 74.7545C332.521 74.8179 332.32 74.9079 332.15 75.0247L330.43 78.4915C330.164 79.029 329.955 79.5618 329.805 80.09C329.681 80.6091 329.673 81.0743 329.782 81.4854C329.891 81.8965 330.169 82.2131 330.617 82.4354Z" fill="#553B92"/>
</g>
<g filter="url(#filter1_ddddd_17_1141)">
<rect x="199" y="446.887" width="287" height="56" rx="7.62745" fill="#4414AA"/>
</g>
<path d="M302.632 492V457.052H311.692C314.051 457.052 316.064 457.326 317.733 457.872C319.43 458.39 320.724 459.325 321.616 460.677C322.536 462.028 322.996 463.898 322.996 466.285C322.996 467.724 322.867 469.004 322.608 470.125C322.378 471.218 321.947 472.182 321.314 473.016C320.71 473.821 319.847 474.469 318.725 474.958L323.557 492H316.266L312.253 476.166H309.751V492H302.632ZM309.751 471.937H311.822C312.972 471.937 313.878 471.751 314.54 471.377C315.201 471.003 315.662 470.442 315.921 469.694C316.208 468.917 316.352 467.968 316.352 466.846C316.352 465.236 316.05 464.013 315.446 463.179C314.871 462.316 313.778 461.885 312.167 461.885H309.751V471.937ZM337.284 492.475C334.724 492.475 332.696 492.014 331.2 491.094C329.705 490.174 328.626 488.865 327.964 487.168C327.332 485.442 327.015 483.385 327.015 480.998V467.968C327.015 465.581 327.332 463.539 327.964 461.842C328.626 460.144 329.705 458.85 331.2 457.958C332.696 457.067 334.724 456.621 337.284 456.621C339.873 456.621 341.915 457.081 343.41 458.002C344.935 458.893 346.014 460.188 346.646 461.885C347.308 463.553 347.639 465.581 347.639 467.968V480.998C347.639 483.385 347.308 485.442 346.646 487.168C346.014 488.865 344.935 490.174 343.41 491.094C341.915 492.014 339.873 492.475 337.284 492.475ZM337.284 487.34C338.204 487.34 338.88 487.139 339.312 486.736C339.743 486.305 340.031 485.744 340.175 485.054C340.318 484.335 340.39 483.572 340.39 482.767V466.242C340.39 465.437 340.318 464.689 340.175 463.999C340.031 463.308 339.743 462.762 339.312 462.359C338.88 461.928 338.204 461.712 337.284 461.712C336.421 461.712 335.774 461.928 335.342 462.359C334.911 462.762 334.623 463.308 334.479 463.999C334.336 464.689 334.264 465.437 334.264 466.242V482.767C334.264 483.572 334.321 484.335 334.436 485.054C334.58 485.744 334.868 486.305 335.299 486.736C335.731 487.139 336.392 487.34 337.284 487.34ZM352.392 492V457.052H359.511V487.168H367.709V492H352.392ZM371.057 492V457.052H378.176V487.168H386.374V492H371.057Z" fill="#F5F5FA"/>
<defs>
<filter id="filter0_d_17_1141" x="304.404" y="173.305" width="66.5989" height="65.5283" filterUnits="userSpaceOnUse" color-interpolation-filters="sRGB">
<feFlood flood-opacity="0" result="BackgroundImageFix"/>
<feColorMatrix in="SourceAlpha" type="matrix" values="0 0 0 0 0 0 0 0 0 0 0 0 0 0 0 0 0 0 127 0" result="hardAlpha"/>
<feOffset/>
<feComposite in2="hardAlpha" operator="out"/>
<feColorMatrix type="matrix" values="0 0 0 0 0.264705 0 0 0 0 0.318651 0 0 0 0 0.804167 0 0 0 0.8 0"/>
<feBlend mode="normal" in2="BackgroundImageFix" result="effect1_dropShadow_17_1141"/>
<feBlend mode="normal" in="SourceGraphic" in2="effect1_dropShadow_17_1141" result="shape"/>
</filter>
<filter id="filter1_ddddd_17_1141" x="0" y="409.887" width="685" height="789" filterUnits="userSpaceOnUse" color-interpolation-filters="sRGB">
<feFlood flood-opacity="0" result="BackgroundImageFix"/>
<feColorMatrix in="SourceAlpha" type="matrix" values="0 0 0 0 0 0 0 0 0 0 0 0 0 0 0 0 0 0 127 0" result="hardAlpha"/>
<feOffset/>
<feColorMatrix type="matrix" values="0 0 0 0 0 0 0 0 0 0 0 0 0 0 0 0 0 0 0.1 0"/>
<feBlend mode="normal" in2="BackgroundImageFix" result="effect1_dropShadow_17_1141"/>
<feColorMatrix in="SourceAlpha" type="matrix" values="0 0 0 0 0 0 0 0 0 0 0 0 0 0 0 0 0 0 127 0" result="hardAlpha"/>
<feOffset dy="31"/>
<feGaussianBlur stdDeviation="34"/>
<feColorMatrix type="matrix" values="0 0 0 0 0 0 0 0 0 0 0 0 0 0 0 0 0 0 0.1 0"/>
<feBlend mode="normal" in2="effect1_dropShadow_17_1141" result="effect2_dropShadow_17_1141"/>
<feColorMatrix in="SourceAlpha" type="matrix" values="0 0 0 0 0 0 0 0 0 0 0 0 0 0 0 0 0 0 127 0" result="hardAlpha"/>
<feOffset dy="124"/>
<feGaussianBlur stdDeviation="62"/>
<feColorMatrix type="matrix" values="0 0 0 0 0 0 0 0 0 0 0 0 0 0 0 0 0 0 0.09 0"/>
<feBlend mode="normal" in2="effect2_dropShadow_17_1141" result="effect3_dropShadow_17_1141"/>
<feColorMatrix in="SourceAlpha" type="matrix" values="0 0 0 0 0 0 0 0 0 0 0 0 0 0 0 0 0 0 127 0" result="hardAlpha"/>
<feOffset dy="280"/>
<feGaussianBlur stdDeviation="84"/>
<feColorMatrix type="matrix" values="0 0 0 0 0 0 0 0 0 0 0 0 0 0 0 0 0 0 0.05 0"/>
<feBlend mode="normal" in2="effect3_dropShadow_17_1141" result="effect4_dropShadow_17_1141"/>
<feColorMatrix in="SourceAlpha" type="matrix" values="0 0 0 0 0 0 0 0 0 0 0 0 0 0 0 0 0 0 127 0" result="hardAlpha"/>
<feOffset dy="497"/>
<feGaussianBlur stdDeviation="99.5"/>
<feColorMatrix type="matrix" values="0 0 0 0 0 0 0 0 0 0 0 0 0 0 0 0 0 0 0.01 0"/>
<feBlend mode="normal" in2="effect4_dropShadow_17_1141" result="effect5_dropShadow_17_1141"/>
<feBlend mode="normal" in="SourceGraphic" in2="effect5_dropShadow_17_1141" result="shape"/>
</filter>
</defs>
</svg>
