<svg width="685" height="1199" viewBox="0 0 685 1199" fill="none" xmlns="http://www.w3.org/2000/svg">
<path d="M507.922 160.459L383.843 38.1787L220.077 83.3313L176.466 246.09L295.327 368.525L464.311 323.218L507.922 160.459Z" fill="#F5F5FA" stroke="#553B92" stroke-width="10"/>
<path d="M366.373 103.379L415.042 288.793M366.373 103.379L507.922 160.459M366.373 103.379L383.843 38.1787M366.373 103.379L220.077 83.3313M366.373 103.379L232.482 239.876M415.042 288.793L507.922 160.459M415.042 288.793L232.482 239.876M415.042 288.793L295.327 368.525M415.042 288.793L464.311 323.218M507.922 160.459L383.843 38.1787M507.922 160.459L464.311 323.218M383.843 38.1787L220.077 83.3313M464.311 323.218L295.327 368.525M295.327 368.525L176.466 246.09M295.327 368.525L232.482 239.876M176.466 246.09L220.077 83.3313M176.466 246.09L232.482 239.876M220.077 83.3313L232.482 239.876" stroke="#553B92" stroke-width="10"/>
<circle cx="366.114" cy="104.344" r="9.5" transform="rotate(15 366.114 104.344)" stroke="#553B92" stroke-width="6"/>
<circle cx="414.465" cy="287.087" r="9.5" transform="rotate(15 414.465 287.087)" stroke="#553B92" stroke-width="6"/>
<circle cx="233.837" cy="238.684" r="9.5" transform="rotate(15 233.837 238.684)" stroke="#553B92" stroke-width="6"/>
<g filter="url(#filter0_d_17_970)">
<path d="M332.598 231.503L335.728 219.819L320.521 215.744L322.525 208.264L343.851 180.849L354.979 183.831L346.647 214.926L351.469 216.218L349.514 223.513L344.692 222.221L341.562 233.904L332.598 231.503ZM330.017 210.47L337.683 212.524L343.381 191.258L330.017 210.47Z" fill="#553B92"/>
</g>
<g opacity="0.7">
<path d="M223.69 219.669L204.668 223.963C204.806 224.116 204.968 224.336 205.155 224.622C205.319 224.892 205.509 225.188 205.725 225.508C205.921 225.833 206.113 226.138 206.3 226.424C206.468 226.714 206.611 226.938 206.729 227.096L203.393 227.849C203.223 227.641 202.996 227.364 202.713 227.018C202.426 226.653 202.114 226.272 201.779 225.876C201.443 225.48 201.095 225.118 200.734 224.789C200.368 224.441 200.044 224.186 199.762 224.025L198.969 220.513L222.673 215.163L223.69 219.669ZM220.573 204.36C220.912 205.863 220.858 207.167 220.41 208.272C219.939 209.363 219.168 210.265 218.099 210.977C217.025 211.671 215.737 212.187 214.235 212.526L205.807 214.429C204.266 214.776 202.841 214.914 201.533 214.84C200.22 214.747 199.109 214.321 198.2 213.562C197.29 212.804 196.644 211.576 196.261 209.879C195.931 208.416 195.903 207.202 196.177 206.238C196.428 205.259 196.958 204.473 197.767 203.88C198.577 203.287 199.635 202.843 200.942 202.548C201 202.535 201.069 202.52 201.147 202.502C201.201 202.469 201.257 202.446 201.316 202.433L202.28 206.706C201.285 206.93 200.566 207.195 200.122 207.5C199.678 207.805 199.54 208.329 199.708 209.07C199.813 209.538 200.043 209.876 200.398 210.083C200.747 210.271 201.287 210.344 202.016 210.302C202.72 210.246 203.678 210.081 204.887 209.808L207.316 209.26C206.83 209.103 206.41 208.787 206.057 208.314C205.699 207.82 205.432 207.224 205.254 206.527C204.933 205.287 204.991 204.228 205.429 203.35C205.842 202.457 206.538 201.726 207.517 201.156C208.476 200.591 209.609 200.161 210.916 199.866C212.516 199.505 213.984 199.379 215.321 199.487C216.657 199.596 217.783 200.039 218.696 200.817C219.586 201.579 220.212 202.761 220.573 204.36ZM217.194 205.061C217.084 204.574 216.837 204.25 216.452 204.091C216.063 203.912 215.558 203.852 214.935 203.911C214.308 203.95 213.566 204.066 212.707 204.26C211.888 204.445 211.183 204.635 210.591 204.83C209.976 205.01 209.521 205.266 209.227 205.599C208.933 205.932 208.852 206.391 208.984 206.976C209.046 207.249 209.164 207.499 209.338 207.727C209.489 207.939 209.671 208.113 209.887 208.249C210.082 208.389 210.279 208.488 210.477 208.546L214.252 207.694C214.837 207.562 215.382 207.388 215.887 207.171C216.367 206.94 216.733 206.652 216.984 206.308C217.234 205.965 217.304 205.549 217.194 205.061Z" fill="#553B92"/>
</g>
<g opacity="0.7">
<path d="M331.265 293.262L323.189 323.399C323.509 323.318 323.941 323.252 324.485 323.199C324.99 323.169 325.55 323.12 326.164 323.053C326.77 323.016 327.345 322.972 327.89 322.919C328.426 322.897 328.849 322.861 329.161 322.812L327.744 328.098C327.324 328.184 326.763 328.298 326.062 328.442C325.33 328.577 324.559 328.735 323.749 328.915C322.938 329.096 322.166 329.319 321.432 329.586C320.667 329.845 320.065 330.115 319.625 330.394L314.062 328.904L324.124 291.348L331.265 293.262ZM317.835 289.663L316.481 294.717L303.583 306.318C302.621 307.187 301.719 308.021 300.874 308.822C300 309.615 299.244 310.456 298.608 311.346C297.933 312.258 297.442 313.286 297.136 314.43C296.813 315.635 296.8 316.609 297.098 317.352C297.388 318.125 297.966 318.628 298.831 318.859C299.758 319.108 300.54 319.036 301.175 318.643C301.802 318.281 302.32 317.707 302.729 316.922C303.138 316.137 303.475 315.251 303.74 314.261L304.212 312.5L311.214 314.375L310.717 316.23C310.12 318.456 309.25 320.343 308.106 321.891C306.932 323.432 305.474 324.482 303.734 325.043C301.954 325.626 299.843 325.591 297.401 324.937C294.094 324.05 291.838 322.518 290.633 320.34C289.427 318.162 289.243 315.512 290.079 312.39C290.485 310.875 291.094 309.531 291.905 308.357C292.709 307.214 293.658 306.143 294.754 305.145C295.81 304.169 296.941 303.163 298.146 302.128L308.298 293.17L297.125 290.176L298.64 284.52L317.835 289.663Z" fill="#553B92"/>
</g>
<g opacity="0.7">
<path d="M420.318 184.829C419.457 182.384 419.225 180.278 419.62 178.51C420.056 176.762 420.993 175.278 422.429 174.06C423.896 172.831 425.717 171.834 427.89 171.068L429.203 170.606L431.658 177.578C431.598 177.6 431.432 177.658 431.16 177.754C430.919 177.839 430.677 177.924 430.436 178.009C429.269 178.454 428.32 178.89 427.588 179.317C426.898 179.764 426.43 180.267 426.187 180.828C425.943 181.389 425.96 182.062 426.236 182.846C426.523 183.661 426.932 184.196 427.462 184.45C428.023 184.694 428.722 184.753 429.56 184.627C430.398 184.502 431.391 184.237 432.538 183.833C434.379 183.185 435.702 182.414 436.506 181.52C437.341 180.615 437.487 179.342 436.943 177.702C436.933 177.672 436.879 177.521 436.784 177.249C436.688 176.977 436.598 176.721 436.513 176.479L441.674 174.662C441.738 174.843 441.802 175.024 441.865 175.205C441.94 175.416 442.003 175.598 442.057 175.748C442.631 177.378 443.456 178.326 444.533 178.591C445.621 178.887 447.101 178.705 448.972 178.046C450.421 177.536 451.479 176.926 452.145 176.216C452.811 175.507 452.942 174.578 452.538 173.431C452.134 172.284 451.416 171.689 450.383 171.646C449.35 171.603 448.118 171.816 446.689 172.285C446.448 172.37 446.176 172.466 445.874 172.572C445.603 172.668 445.331 172.763 445.059 172.859L442.604 165.887L444.596 165.185C446.739 164.431 448.688 164.185 450.444 164.449C452.229 164.702 453.769 165.415 455.064 166.588C456.359 167.76 457.373 169.388 458.107 171.47C458.84 173.553 459.09 175.467 458.856 177.211C458.623 178.956 457.914 180.461 456.731 181.725C455.559 183.02 453.901 184.045 451.758 184.8C449.615 185.555 447.675 185.729 445.937 185.323C444.21 184.947 442.922 184.18 442.073 183.02C442.09 184.032 441.874 185.007 441.424 185.946C440.974 186.884 440.23 187.757 439.191 188.564C438.182 189.36 436.817 190.061 435.097 190.667C432.894 191.443 430.82 191.817 428.876 191.789C426.963 191.751 425.268 191.177 423.792 190.068C422.316 188.96 421.158 187.213 420.318 184.829Z" fill="#553B92"/>
</g>
<g opacity="0.7">
<path d="M455.099 261.477L464.244 277.96C464.349 277.791 464.509 277.581 464.723 277.329C464.929 277.104 465.152 276.848 465.391 276.561C465.639 276.291 465.87 276.03 466.084 275.778C466.308 275.544 466.477 275.35 466.592 275.198L468.195 278.089C468.049 278.303 467.853 278.588 467.609 278.945C467.348 279.311 467.079 279.703 466.803 280.122C466.526 280.541 466.285 280.962 466.078 281.386C465.854 281.82 465.706 282.19 465.632 282.496L462.589 284.184L451.194 263.643L455.099 261.477ZM442.096 268.325C443.364 267.622 444.486 267.254 445.463 267.22C446.449 267.204 447.326 267.491 448.096 268.081C448.875 268.688 449.579 269.558 450.207 270.691C450.235 270.741 450.263 270.792 450.291 270.843C450.319 270.894 450.348 270.944 450.376 270.995L446.673 273.049C446.195 272.187 445.754 271.591 445.351 271.262C444.93 270.943 444.39 270.966 443.731 271.332C443.325 271.557 443.083 271.857 443.004 272.233C442.925 272.608 443.012 273.124 443.265 273.779C443.518 274.435 443.93 275.278 444.503 276.309L445.67 278.414C445.701 277.911 445.888 277.431 446.232 276.975C446.575 276.519 447.039 276.119 447.621 275.773C448.71 275.147 449.735 274.921 450.694 275.096C451.663 275.288 452.549 275.77 453.353 276.54C454.139 277.32 454.846 278.276 455.475 279.409C456.253 280.812 456.751 282.128 456.968 283.356C457.185 284.584 457.047 285.711 456.555 286.736C456.045 287.77 455.123 288.658 453.787 289.399C452.485 290.121 451.274 290.428 450.153 290.32C449.041 290.23 448.028 289.797 447.112 289.023C446.196 288.249 445.372 287.202 444.64 285.884L440.49 278.403C439.749 277.067 439.236 275.782 438.949 274.549C438.662 273.315 438.748 272.173 439.205 271.124C439.661 270.074 440.625 269.141 442.096 268.325ZM448.191 279.371C447.802 279.586 447.545 279.861 447.421 280.196C447.289 280.556 447.212 280.875 447.19 281.153L449.004 284.424C449.295 284.948 449.605 285.407 449.933 285.799C450.261 286.192 450.611 286.463 450.98 286.611C451.35 286.76 451.747 286.717 452.169 286.482C452.592 286.248 452.833 285.926 452.894 285.517C452.954 285.107 452.881 284.617 452.675 284.046C452.452 283.485 452.134 282.832 451.721 282.088C451.337 281.395 450.969 280.792 450.618 280.279C450.267 279.766 449.906 279.414 449.534 279.222C449.146 279.04 448.698 279.089 448.191 279.371Z" fill="#553B92"/>
</g>
<g opacity="0.7">
<path d="M393.692 316.559L397.385 318.852L400.369 314.045L402.733 315.513L409.945 325.701L407.761 329.218L397.932 323.117L396.986 324.641L394.68 323.21L395.626 321.685L391.933 319.393L393.692 316.559ZM401.195 317.86L399.691 320.283L406.413 324.456L401.195 317.86Z" fill="#553B92"/>
</g>
<g opacity="0.7">
<path d="M238.804 272.099C238.982 273.266 238.87 274.26 238.469 275.082C238.049 275.89 237.412 276.538 236.556 277.026C235.697 277.499 234.684 277.824 233.517 278.002L226.969 279.004C225.772 279.187 224.675 279.215 223.678 279.088C222.679 278.946 221.853 278.561 221.198 277.932C220.543 277.303 220.115 276.329 219.914 275.01C219.74 273.874 219.784 272.944 220.046 272.221C220.29 271.486 220.738 270.913 221.388 270.504C222.039 270.094 222.872 269.811 223.888 269.656C223.933 269.649 223.987 269.641 224.047 269.632C224.09 269.61 224.135 269.595 224.18 269.588L224.688 272.908C223.915 273.026 223.35 273.19 222.995 273.399C222.639 273.609 222.505 274.001 222.593 274.577C222.649 274.941 222.806 275.212 223.066 275.389C223.324 275.551 223.732 275.636 224.292 275.644C224.834 275.639 225.575 275.564 226.514 275.42L228.402 275.132C228.038 274.986 227.734 274.722 227.489 274.341C227.243 273.944 227.07 273.474 226.971 272.931C226.793 271.965 226.894 271.159 227.276 270.511C227.64 269.85 228.212 269.328 228.991 268.946C229.755 268.565 230.645 268.297 231.66 268.142C232.903 267.952 234.033 267.934 235.049 268.089C236.066 268.244 236.902 268.643 237.559 269.287C238.199 269.919 238.614 270.856 238.804 272.099ZM236.182 272.453C236.124 272.074 235.952 271.813 235.667 271.671C235.379 271.513 234.996 271.44 234.516 271.451C234.035 271.447 233.461 271.496 232.794 271.598C232.157 271.696 231.608 271.803 231.145 271.92C230.664 272.025 230.303 272.196 230.06 272.435C229.817 272.674 229.731 273.021 229.8 273.475C229.833 273.688 229.909 273.885 230.031 274.068C230.134 274.239 230.265 274.382 230.422 274.497C230.564 274.615 230.709 274.701 230.857 274.756L233.79 274.308C234.245 274.238 234.671 274.134 235.068 273.996C235.449 273.845 235.744 273.645 235.954 273.395C236.164 273.146 236.24 272.832 236.182 272.453Z" fill="#553B92"/>
</g>
<g opacity="0.7">
<path d="M399.687 107.388L401.147 87.9431C400.96 88.0293 400.703 88.1203 400.374 88.216C400.068 88.2932 399.73 88.3882 399.36 88.5008C398.992 88.5935 398.644 88.6877 398.316 88.7834C397.99 88.8592 397.734 88.9302 397.548 88.9965L397.804 85.5861C398.053 85.4844 398.384 85.3488 398.797 85.1793C399.231 85.0114 399.687 84.8249 400.163 84.6201C400.64 84.4152 401.088 84.1881 401.508 83.9388C401.948 83.6911 402.286 83.4558 402.524 83.2329L406.114 83.5025L404.294 107.734L399.687 107.388ZM409.249 108.106L415.89 87.7867L409.278 87.2902L409.543 83.7601L420.672 84.5959L420.443 87.6473L413.737 108.443L409.249 108.106Z" fill="#553B92"/>
</g>
<g opacity="0.7">
<path d="M285.763 145.921C283.876 147.88 282.075 149.033 280.362 149.382C278.648 149.73 276.957 149.478 275.29 148.627C273.644 147.752 271.957 146.482 270.229 144.816L275.192 139.666C276.206 140.644 277.114 141.408 277.916 141.959C278.741 142.486 279.481 142.756 280.138 142.766C280.816 142.754 281.466 142.402 282.087 141.712C282.708 141.021 282.921 140.293 282.726 139.527C282.531 138.762 282.017 137.911 281.185 136.976C280.353 136.041 279.326 134.985 278.105 133.808C277.114 132.853 276.183 132.067 275.312 131.449C274.441 130.832 273.619 130.485 272.849 130.408C272.1 130.309 271.392 130.605 270.726 131.296C270.127 131.918 269.846 132.648 269.884 133.484C269.944 134.298 270.289 135.185 270.918 136.147L266.521 140.709L250.989 125.007L263.38 112.15L267.976 116.58L259.816 125.048L265.703 131.321C265.623 130.711 265.768 129.962 266.136 129.072C266.527 128.16 267.065 127.301 267.752 126.497C269.013 124.912 270.444 123.98 272.046 123.702C273.67 123.4 275.383 123.674 277.187 124.523C278.967 125.35 280.825 126.697 282.761 128.562C284.236 129.983 285.518 131.396 286.607 132.802C287.674 134.186 288.413 135.586 288.824 137.005C289.211 138.401 289.181 139.838 288.733 141.317C288.286 142.797 287.295 144.331 285.763 145.921Z" fill="#553B92"/>
</g>
<g opacity="0.7">
<path d="M320.045 82.7968L328.711 65.3286C328.506 65.3381 328.233 65.3256 327.893 65.2908C327.58 65.2471 327.231 65.2079 326.846 65.1733C326.47 65.1208 326.112 65.0772 325.772 65.0425C325.441 64.9898 325.177 64.9594 324.98 64.951L326.5 61.8874C326.769 61.8865 327.126 61.8854 327.574 61.884C328.039 61.8916 328.531 61.89 329.049 61.8795C329.568 61.8689 330.069 61.8271 330.552 61.7541C331.052 61.6899 331.455 61.5992 331.758 61.482L334.983 63.082L324.183 84.8501L320.045 82.7968ZM333.85 90.115C332.542 89.4661 331.591 88.6596 330.998 87.6955C330.405 86.7313 330.124 85.6767 330.156 84.5318C330.198 83.3689 330.525 82.1693 331.138 80.9331L335.978 71.1778C336.609 69.9058 337.366 68.8972 338.25 68.1521C339.142 67.389 340.151 66.9521 341.278 66.8413C342.404 66.7305 343.64 67.0084 344.983 67.6751C346.309 68.3329 347.26 69.1394 347.835 70.0947C348.428 71.0588 348.691 72.1268 348.623 73.2988C348.564 74.4528 348.219 75.6658 347.588 76.9378L342.748 86.6931C342.134 87.9294 341.377 88.9156 340.476 89.6518C339.584 90.3701 338.575 90.7847 337.448 90.8955C336.321 91.0063 335.122 90.7461 333.85 90.115ZM335.663 86.4601C336.147 86.7001 336.572 86.7212 336.938 86.5233C337.304 86.3254 337.625 86.0382 337.901 85.6616C338.186 85.2672 338.418 84.8908 338.595 84.5325L343.355 74.9384C343.551 74.5443 343.72 74.1144 343.861 73.6489C344.021 73.1922 344.069 72.7583 344.005 72.347C343.95 71.9179 343.672 71.5789 343.17 71.33C342.668 71.0811 342.221 71.0601 341.828 71.267C341.462 71.465 341.136 71.7611 340.851 72.1556C340.584 72.5589 340.353 72.9576 340.157 73.3518L335.397 82.9458C335.22 83.3042 335.06 83.7161 334.918 84.1816C334.785 84.6293 334.76 85.0631 334.842 85.4833C334.924 85.9034 335.197 86.229 335.663 86.4601Z" fill="#553B92"/>
</g>
<g filter="url(#filter1_ddddd_17_970)">
<rect x="199" y="446.887" width="287" height="56" rx="7.62745" fill="#4414AA"/>
</g>
<path d="M302.632 492V457.052H311.692C314.051 457.052 316.064 457.326 317.733 457.872C319.43 458.39 320.724 459.325 321.616 460.677C322.536 462.028 322.996 463.898 322.996 466.285C322.996 467.724 322.867 469.004 322.608 470.125C322.378 471.218 321.947 472.182 321.314 473.016C320.71 473.821 319.847 474.469 318.725 474.958L323.557 492H316.266L312.253 476.166H309.751V492H302.632ZM309.751 471.937H311.822C312.972 471.937 313.878 471.751 314.54 471.377C315.201 471.003 315.662 470.442 315.921 469.694C316.208 468.917 316.352 467.968 316.352 466.846C316.352 465.236 316.05 464.013 315.446 463.179C314.871 462.316 313.778 461.885 312.167 461.885H309.751V471.937ZM337.284 492.475C334.724 492.475 332.696 492.014 331.2 491.094C329.705 490.174 328.626 488.865 327.964 487.168C327.332 485.442 327.015 483.385 327.015 480.998V467.968C327.015 465.581 327.332 463.539 327.964 461.842C328.626 460.144 329.705 458.85 331.2 457.958C332.696 457.067 334.724 456.621 337.284 456.621C339.873 456.621 341.915 457.081 343.41 458.002C344.935 458.893 346.014 460.188 346.646 461.885C347.308 463.553 347.639 465.581 347.639 467.968V480.998C347.639 483.385 347.308 485.442 346.646 487.168C346.014 488.865 344.935 490.174 343.41 491.094C341.915 492.014 339.873 492.475 337.284 492.475ZM337.284 487.34C338.204 487.34 338.88 487.139 339.312 486.736C339.743 486.305 340.031 485.744 340.175 485.054C340.318 484.335 340.39 483.572 340.39 482.767V466.242C340.39 465.437 340.318 464.689 340.175 463.999C340.031 463.308 339.743 462.762 339.312 462.359C338.88 461.928 338.204 461.712 337.284 461.712C336.421 461.712 335.774 461.928 335.342 462.359C334.911 462.762 334.623 463.308 334.479 463.999C334.336 464.689 334.264 465.437 334.264 466.242V482.767C334.264 483.572 334.321 484.335 334.436 485.054C334.58 485.744 334.868 486.305 335.299 486.736C335.731 487.139 336.392 487.34 337.284 487.34ZM352.392 492V457.052H359.511V487.168H367.709V492H352.392ZM371.057 492V457.052H378.176V487.168H386.374V492H371.057Z" fill="#F5F5FA"/>
<defs>
<filter id="filter0_d_17_970" x="317.39" y="177.354" width="42.4104" height="57.8423" filterUnits="userSpaceOnUse" color-interpolation-filters="sRGB">
<feFlood flood-opacity="0" result="BackgroundImageFix"/>
<feColorMatrix in="SourceAlpha" type="matrix" values="0 0 0 0 0 0 0 0 0 0 0 0 0 0 0 0 0 0 127 0" result="hardAlpha"/>
<feOffset/>
<feComposite in2="hardAlpha" operator="out"/>
<feColorMatrix type="matrix" values="0 0 0 0 0.264705 0 0 0 0 0.318651 0 0 0 0 0.804167 0 0 0 0.8 0"/>
<feBlend mode="normal" in2="BackgroundImageFix" result="effect1_dropShadow_17_970"/>
<feBlend mode="normal" in="SourceGraphic" in2="effect1_dropShadow_17_970" result="shape"/>
</filter>
<filter id="filter1_ddddd_17_970" x="0" y="409.887" width="685" height="789" filterUnits="userSpaceOnUse" color-interpolation-filters="sRGB">
<feFlood flood-opacity="0" result="BackgroundImageFix"/>
<feColorMatrix in="SourceAlpha" type="matrix" values="0 0 0 0 0 0 0 0 0 0 0 0 0 0 0 0 0 0 127 0" result="hardAlpha"/>
<feOffset/>
<feColorMatrix type="matrix" values="0 0 0 0 0 0 0 0 0 0 0 0 0 0 0 0 0 0 0.1 0"/>
<feBlend mode="normal" in2="BackgroundImageFix" result="effect1_dropShadow_17_970"/>
<feColorMatrix in="SourceAlpha" type="matrix" values="0 0 0 0 0 0 0 0 0 0 0 0 0 0 0 0 0 0 127 0" result="hardAlpha"/>
<feOffset dy="31"/>
<feGaussianBlur stdDeviation="34"/>
<feColorMatrix type="matrix" values="0 0 0 0 0 0 0 0 0 0 0 0 0 0 0 0 0 0 0.1 0"/>
<feBlend mode="normal" in2="effect1_dropShadow_17_970" result="effect2_dropShadow_17_970"/>
<feColorMatrix in="SourceAlpha" type="matrix" values="0 0 0 0 0 0 0 0 0 0 0 0 0 0 0 0 0 0 127 0" result="hardAlpha"/>
<feOffset dy="124"/>
<feGaussianBlur stdDeviation="62"/>
<feColorMatrix type="matrix" values="0 0 0 0 0 0 0 0 0 0 0 0 0 0 0 0 0 0 0.09 0"/>
<feBlend mode="normal" in2="effect2_dropShadow_17_970" result="effect3_dropShadow_17_970"/>
<feColorMatrix in="SourceAlpha" type="matrix" values="0 0 0 0 0 0 0 0 0 0 0 0 0 0 0 0 0 0 127 0" result="hardAlpha"/>
<feOffset dy="280"/>
<feGaussianBlur stdDeviation="84"/>
<feColorMatrix type="matrix" values="0 0 0 0 0 0 0 0 0 0 0 0 0 0 0 0 0 0 0.05 0"/>
<feBlend mode="normal" in2="effect3_dropShadow_17_970" result="effect4_dropShadow_17_970"/>
<feColorMatrix in="SourceAlpha" type="matrix" values="0 0 0 0 0 0 0 0 0 0 0 0 0 0 0 0 0 0 127 0" result="hardAlpha"/>
<feOffset dy="497"/>
<feGaussianBlur stdDeviation="99.5"/>
<feColorMatrix type="matrix" values="0 0 0 0 0 0 0 0 0 0 0 0 0 0 0 0 0 0 0.01 0"/>
<feBlend mode="normal" in2="effect4_dropShadow_17_970" result="effect5_dropShadow_17_970"/>
<feBlend mode="normal" in="SourceGraphic" in2="effect5_dropShadow_17_970" result="shape"/>
</filter>
</defs>
</svg>
