<svg width="378" height="642" viewBox="0 0 378 642" fill="none" xmlns="http://www.w3.org/2000/svg">
<path d="M354.922 160.459L230.843 38.1787L67.0765 83.3313L23.4655 246.09L142.327 368.525L311.311 323.218L354.922 160.459Z" fill="#F5F5FA" stroke="#553B92" stroke-width="10"/>
<path d="M213.373 103.379L262.042 288.793M213.373 103.379L354.922 160.459M213.373 103.379L230.843 38.1787M213.373 103.379L67.0765 83.3313M213.373 103.379L79.4824 239.876M262.042 288.793L354.922 160.459M262.042 288.793L79.4824 239.876M262.042 288.793L142.327 368.525M262.042 288.793L311.311 323.218M354.922 160.459L230.843 38.1787M354.922 160.459L311.311 323.218M230.843 38.1787L67.0765 83.3313M311.311 323.218L142.327 368.525M142.327 368.525L23.4655 246.09M142.327 368.525L79.4824 239.876M23.4655 246.09L67.0765 83.3313M23.4655 246.09L79.4824 239.876M67.0765 83.3313L79.4824 239.876" stroke="#553B92" stroke-width="10"/>
<circle cx="213.114" cy="104.344" r="9.5" transform="rotate(15 213.114 104.344)" stroke="#553B92" stroke-width="6"/>
<circle cx="261.465" cy="287.087" r="9.5" transform="rotate(15 261.465 287.087)" stroke="#553B92" stroke-width="6"/>
<circle cx="80.8369" cy="238.684" r="9.5" transform="rotate(15 80.8369 238.684)" stroke="#553B92" stroke-width="6"/>
<g filter="url(#filter0_d_17_1141)">
<path d="M158.819 225.935L169.586 185.752C169.16 185.859 168.584 185.948 167.858 186.018C167.185 186.059 166.438 186.124 165.619 186.213C164.811 186.262 164.044 186.321 163.319 186.392C162.604 186.421 162.039 186.469 161.624 186.534L163.512 179.487C164.073 179.372 164.821 179.219 165.756 179.028C166.732 178.848 167.76 178.637 168.84 178.397C169.921 178.156 170.95 177.858 171.929 177.502C172.949 177.157 173.752 176.798 174.338 176.424L181.756 178.412L168.339 228.486L158.819 225.935ZM190.823 235.239C187.649 234.389 185.241 232.992 183.597 231.05C182.005 229.078 181.067 226.728 180.781 224.001C180.537 221.285 180.84 218.341 181.691 215.168L186.461 197.364C187.333 194.108 188.488 191.281 189.926 188.883C191.405 186.497 193.311 184.821 195.646 183.857C197.98 182.892 200.941 182.89 204.526 183.851C207.617 184.679 209.937 185.831 211.485 187.306C213.086 188.75 214.044 190.531 214.36 192.648C214.677 194.764 214.465 197.203 213.725 199.965C213.692 200.088 213.653 200.233 213.609 200.397C213.617 200.532 213.604 200.661 213.571 200.785L204.546 198.366C205.109 196.265 205.323 194.643 205.186 193.503C205.05 192.362 204.199 191.582 202.633 191.162C201.644 190.897 200.778 190.996 200.036 191.46C199.334 191.934 198.661 192.88 198.016 194.298C197.424 195.685 196.785 197.656 196.1 200.211L194.726 205.342C195.504 204.579 196.516 204.1 197.762 203.903C199.048 203.718 200.439 203.803 201.933 204.16C204.593 204.784 206.535 205.945 207.759 207.642C209.035 209.309 209.725 211.349 209.829 213.762C209.944 216.134 209.632 218.701 208.892 221.462C207.987 224.842 206.768 227.74 205.237 230.157C203.706 232.573 201.753 234.259 199.377 235.212C197.054 236.136 194.202 236.145 190.823 235.239ZM192.851 228.163C193.882 228.439 194.738 228.293 195.42 227.725C196.144 227.168 196.759 226.273 197.266 225.039C197.815 223.817 198.332 222.299 198.818 220.486C199.282 218.755 199.623 217.234 199.841 215.923C200.112 214.582 200.079 213.469 199.742 212.584C199.405 211.698 198.619 211.09 197.382 210.759C196.805 210.604 196.216 210.579 195.614 210.682C195.064 210.756 194.554 210.928 194.084 211.2C193.624 211.43 193.242 211.703 192.937 212.019L190.8 219.994C190.469 221.23 190.257 222.432 190.165 223.6C190.125 224.738 190.305 225.714 190.705 226.528C191.106 227.342 191.821 227.887 192.851 228.163Z" fill="#553B92"/>
</g>
<g opacity="0.7">
<path d="M70.2497 217.719L51.2283 222.012C51.3654 222.166 51.5278 222.385 51.7153 222.671C51.8789 222.942 52.0686 223.237 52.2844 223.557C52.4808 223.882 52.6727 224.187 52.8602 224.473C53.0282 224.763 53.171 224.987 53.2887 225.145L49.9526 225.898C49.7827 225.691 49.5562 225.414 49.273 225.068C48.9855 224.702 48.674 224.321 48.3386 223.925C48.0032 223.529 47.6549 223.167 47.2937 222.839C46.9281 222.491 46.604 222.236 46.3215 222.074L45.5288 218.562L69.2325 213.212L70.2497 217.719ZM67.6759 206.316L48.6544 210.609C48.7916 210.763 48.954 210.983 49.1415 211.268C49.3051 211.539 49.4948 211.835 49.7106 212.155C49.907 212.48 50.0989 212.785 50.2864 213.071C50.4544 213.361 50.5972 213.585 50.7149 213.743L47.3788 214.496C47.2089 214.288 46.9824 214.011 46.6992 213.665C46.4117 213.299 46.1002 212.919 45.7648 212.523C45.4294 212.127 45.0811 211.765 44.7199 211.436C44.3543 211.088 44.0302 210.833 43.7477 210.671L42.955 207.16L66.6587 201.809L67.6759 206.316Z" fill="#553B92"/>
</g>
<g opacity="0.7">
<path d="M179.23 293.52L171.155 323.657C171.475 323.577 171.907 323.511 172.451 323.458C172.956 323.428 173.516 323.379 174.13 323.311C174.736 323.275 175.311 323.23 175.856 323.177C176.392 323.155 176.815 323.12 177.126 323.071L175.71 328.356C175.29 328.442 174.729 328.557 174.028 328.701C173.296 328.836 172.525 328.994 171.714 329.174C170.904 329.354 170.132 329.578 169.398 329.845C168.633 330.104 168.03 330.373 167.591 330.653L162.027 329.162L172.09 291.607L179.23 293.52ZM155.265 286.403C157.521 287.008 159.267 287.972 160.502 289.297C161.737 290.622 162.51 292.188 162.822 293.994C163.125 295.831 162.99 297.815 162.419 299.948L157.909 316.779C157.321 318.973 156.452 320.794 155.302 322.242C154.144 323.721 152.699 324.725 150.967 325.255C149.235 325.784 147.209 325.739 144.891 325.117C142.604 324.505 140.858 323.54 139.654 322.223C138.419 320.898 137.669 319.306 137.406 317.447C137.134 315.618 137.292 313.606 137.88 311.412L142.389 294.581C142.961 292.449 143.837 290.663 145.018 289.223C146.19 287.815 147.643 286.845 149.375 286.316C151.107 285.786 153.07 285.815 155.265 286.403ZM153.575 292.709C152.741 292.485 152.067 292.586 151.556 293.012C151.044 293.438 150.631 293.99 150.317 294.668C149.995 295.377 149.751 296.04 149.585 296.659L145.15 313.211C144.968 313.891 144.839 314.618 144.764 315.393C144.658 316.16 144.72 316.856 144.95 317.48C145.172 318.136 145.715 318.58 146.581 318.812C147.446 319.044 148.154 318.935 148.705 318.487C149.217 318.061 149.634 317.493 149.957 316.784C150.248 316.068 150.485 315.369 150.667 314.689L155.102 298.137C155.268 297.519 155.388 296.822 155.463 296.047C155.53 295.303 155.433 294.615 155.172 293.981C154.911 293.348 154.379 292.924 153.575 292.709Z" fill="#553B92"/>
</g>
<g opacity="0.7">
<path d="M262.963 170.438L292.392 160.074C292.145 159.856 291.846 159.537 291.495 159.118C291.185 158.718 290.828 158.284 290.426 157.815C290.053 157.336 289.692 156.886 289.34 156.467C289.019 156.037 288.751 155.708 288.534 155.479L293.696 153.661C294.004 153.96 294.416 154.358 294.93 154.855C295.455 155.382 296.021 155.93 296.628 156.496C297.234 157.063 297.855 157.574 298.49 158.028C299.136 158.514 299.699 158.858 300.178 159.063L302.091 164.496L265.419 177.41L262.963 170.438ZM271.296 194.101L279.853 191.087L275.931 179.95L281.409 178.02L307.411 179.602L310.281 187.751L287.507 195.771L288.751 199.302L283.409 201.183L282.165 197.652L273.608 200.665L271.296 194.101ZM283.219 183.592L285.196 189.206L300.77 183.721L283.219 183.592Z" fill="#553B92"/>
</g>
<g opacity="0.7">
<path d="M295.541 265.115L304.685 281.598C304.79 281.429 304.95 281.219 305.164 280.968C305.371 280.742 305.594 280.486 305.832 280.199C306.08 279.929 306.312 279.668 306.526 279.416C306.749 279.182 306.919 278.988 307.033 278.836L308.637 281.727C308.49 281.941 308.295 282.227 308.051 282.583C307.789 282.949 307.521 283.342 307.244 283.76C306.968 284.179 306.726 284.6 306.52 285.024C306.296 285.458 306.147 285.828 306.074 286.134L303.031 287.822L291.635 267.281L295.541 265.115Z" fill="#553B92"/>
</g>
<g opacity="0.7">
<path d="M243.518 312.006L245.648 313.328L249.179 320.853C249.444 321.415 249.702 321.945 249.952 322.443C250.194 322.954 250.475 323.418 250.795 323.833C251.12 324.269 251.523 324.637 252.005 324.936C252.513 325.251 252.958 325.392 253.34 325.358C253.735 325.333 254.046 325.138 254.272 324.773C254.515 324.382 254.59 324.014 254.498 323.668C254.419 323.33 254.228 323.013 253.925 322.716C253.621 322.42 253.261 322.142 252.844 321.883L252.102 321.422L253.933 318.472L254.715 318.957C255.653 319.539 256.398 320.2 256.95 320.939C257.493 321.692 257.773 322.506 257.788 323.382C257.809 324.279 257.5 325.242 256.861 326.272C255.996 327.665 254.98 328.488 253.814 328.738C252.648 328.989 251.407 328.706 250.091 327.889C249.452 327.493 248.92 327.027 248.494 326.492C248.082 325.965 247.722 325.381 247.416 324.74C247.115 324.12 246.811 323.462 246.503 322.766L243.803 316.867L240.88 321.576L238.496 320.096L243.518 312.006Z" fill="#553B92"/>
</g>
<g opacity="0.7">
<path d="M85.8522 272.417C86.0261 273.554 85.9908 274.49 85.7465 275.225C85.487 275.963 85.0319 276.537 84.381 276.946C83.715 277.358 82.8742 277.642 81.8586 277.797C81.8132 277.804 81.7677 277.811 81.7222 277.818C81.6768 277.825 81.6313 277.832 81.5858 277.839L81.0782 274.52C81.8513 274.401 82.4156 274.238 82.7714 274.028C83.1248 273.803 83.2563 273.396 83.166 272.804C83.1103 272.441 82.9538 272.178 82.6963 272.015C82.4388 271.853 82.0314 271.776 81.4742 271.783C80.9169 271.791 80.176 271.866 79.2514 272.007L77.3644 272.295C77.7303 272.457 78.0355 272.728 78.2799 273.109C78.5244 273.491 78.6948 273.946 78.791 274.474C78.9568 275.457 78.8424 276.281 78.4478 276.946C78.038 277.614 77.436 278.14 76.6417 278.525C75.8452 278.895 74.9391 279.158 73.9236 279.313C72.6656 279.506 71.5499 279.513 70.5767 279.336C69.6034 279.159 68.8035 278.747 68.1769 278.098C67.548 277.434 67.142 276.503 66.9589 275.306C66.7804 274.139 66.8856 273.153 67.2746 272.349C67.6483 271.548 68.2493 270.913 69.0774 270.445C69.9055 269.977 70.9107 269.653 72.093 269.472L78.8 268.446C79.9974 268.263 81.0945 268.235 82.0911 268.362C83.0877 268.489 83.9133 268.867 84.5679 269.495C85.2225 270.124 85.6506 271.098 85.8522 272.417ZM75.9587 273.906C75.9054 273.558 75.7716 273.291 75.5573 273.107C75.3255 272.91 75.1093 272.764 74.9089 272.671L71.976 273.119C71.5061 273.191 71.0799 273.295 70.6974 273.431C70.3149 273.567 70.0175 273.752 69.8051 273.987C69.5927 274.221 69.5155 274.527 69.5735 274.906C69.6314 275.285 69.8043 275.553 70.0921 275.711C70.3799 275.869 70.7645 275.949 71.246 275.953C71.7251 275.942 72.2981 275.886 72.9651 275.784C73.5865 275.689 74.1363 275.581 74.6143 275.462C75.0924 275.342 75.454 275.17 75.699 274.947C75.9417 274.708 76.0283 274.361 75.9587 273.906Z" fill="#553B92"/>
</g>
<g opacity="0.7">
<path d="M245.761 107.61L247.221 88.1647C247.034 88.251 246.777 88.342 246.448 88.4377C246.142 88.5149 245.804 88.6099 245.434 88.7225C245.066 88.8152 244.718 88.9094 244.39 89.0051C244.064 89.0809 243.808 89.1519 243.622 89.2182L243.878 85.8078C244.127 85.7061 244.458 85.5705 244.871 85.401C245.305 85.233 245.76 85.0466 246.237 84.8417C246.714 84.6369 247.162 84.4098 247.582 84.1605C248.022 83.9128 248.36 83.6775 248.598 83.4546L252.188 83.7242L250.368 107.956L245.761 107.61ZM260.707 109.154C259.011 109.026 257.738 108.62 256.887 107.934C256.036 107.248 255.483 106.334 255.228 105.192C254.993 104.051 254.931 102.733 255.044 101.237L259.501 101.572C259.435 102.45 259.429 103.191 259.484 103.797C259.559 104.404 259.725 104.868 259.981 105.188C260.258 105.51 260.686 105.682 261.266 105.706C261.846 105.729 262.281 105.541 262.572 105.142C262.863 104.743 263.067 104.156 263.186 103.383C263.304 102.61 263.403 101.695 263.482 100.638C263.547 99.78 263.554 99.0184 263.503 98.3527C263.453 97.6871 263.292 97.1536 263.022 96.7522C262.771 96.3523 262.347 96.1298 261.748 96.0849C261.21 96.0445 260.747 96.2002 260.359 96.5522C259.992 96.9057 259.702 97.4254 259.49 98.1115L255.541 97.8149L256.904 84.0784L268.032 84.9142L267.734 88.893L260.404 88.3425L259.733 93.6772C259.995 93.396 260.413 93.1667 260.988 92.9893C261.583 92.8133 262.211 92.7301 262.872 92.7397C264.137 92.7144 265.156 93.0316 265.929 93.6913C266.722 94.3525 267.273 95.2865 267.584 96.4931C267.896 97.6798 267.989 99.1108 267.863 100.786C267.767 102.062 267.599 103.243 267.357 104.328C267.116 105.393 266.737 106.307 266.218 107.071C265.701 107.814 264.997 108.373 264.107 108.747C263.216 109.121 262.083 109.257 260.707 109.154Z" fill="#553B92"/>
</g>
<g opacity="0.7">
<path d="M122.337 155.772L99.8715 134.121C99.7868 134.439 99.636 134.85 99.419 135.351C99.2011 135.808 98.9729 136.322 98.7345 136.892C98.473 137.44 98.2338 137.965 98.0167 138.467C97.7767 138.946 97.6028 139.334 97.4951 139.63L93.555 135.833C93.6833 135.423 93.8542 134.877 94.0679 134.194C94.3038 133.488 94.5389 132.737 94.7731 131.941C95.0074 131.144 95.1853 130.36 95.3068 129.589C95.4506 128.794 95.5063 128.136 95.4741 127.616L99.4711 123.469L127.466 150.449L122.337 155.772ZM131.985 145.761L128.217 142.13L124.307 125.229C124.012 123.967 123.718 122.773 123.426 121.647C123.156 120.498 122.785 119.43 122.315 118.442C121.843 117.41 121.181 116.483 120.328 115.662C119.43 114.796 118.583 114.313 117.789 114.215C116.972 114.094 116.253 114.356 115.631 115.001C114.965 115.693 114.65 116.411 114.687 117.158C114.7 117.881 114.951 118.612 115.44 119.35C115.929 120.088 116.542 120.812 117.279 121.523L118.593 122.788L113.563 128.007L112.181 126.675C110.522 125.076 109.291 123.402 108.489 121.651C107.71 119.878 107.496 118.094 107.848 116.299C108.198 114.46 109.251 112.63 111.005 110.81C113.381 108.344 115.814 107.111 118.303 107.11C120.793 107.11 123.201 108.231 125.528 110.473C126.657 111.562 127.539 112.745 128.174 114.023C128.785 115.279 129.263 116.628 129.606 118.07C129.949 119.467 130.282 120.943 130.605 122.499L133.53 135.718L141.558 127.389L145.774 131.452L131.985 145.761Z" fill="#553B92"/>
</g>
<g opacity="0.7">
<path d="M176.03 85.4992C174.65 84.8148 173.673 83.9502 173.097 82.9055C172.548 81.8518 172.334 80.6852 172.456 79.4058C172.595 78.1353 173.007 76.8102 173.691 75.4307L177.531 67.6909C178.233 66.2755 179.026 65.0835 179.908 64.1148C180.808 63.155 181.84 62.5615 183.002 62.3342C184.164 62.107 185.524 62.3801 187.083 63.1535C188.427 63.8201 189.386 64.564 189.961 65.3851C190.563 66.1972 190.838 67.1042 190.788 68.1061C190.737 69.108 190.414 70.2092 189.819 71.4095C189.792 71.4633 189.761 71.526 189.725 71.5977C189.716 71.6603 189.699 71.7185 189.672 71.7722L185.748 69.8256C186.202 68.9118 186.45 68.1866 186.493 67.6498C186.536 67.113 186.217 66.6757 185.536 66.3379C185.106 66.1246 184.699 66.0901 184.315 66.2344C183.949 66.3876 183.552 66.76 183.125 67.3516C182.724 67.9343 182.248 68.781 181.697 69.8918L180.59 72.1223C181.019 71.8437 181.528 71.7169 182.119 71.7419C182.727 71.7758 183.358 71.9438 184.012 72.2459C185.176 72.779 185.961 73.4921 186.366 74.3853C186.798 75.2694 186.927 76.2708 186.751 77.3894C186.585 78.49 186.204 79.6405 185.608 80.8409C184.879 82.31 184.051 83.529 183.124 84.4979C182.197 85.4667 181.143 86.0603 179.963 86.2786C178.81 86.4879 177.499 86.2281 176.03 85.4992ZM177.617 82.4354C178.065 82.6576 178.472 82.6697 178.838 82.4718C179.222 82.2828 179.587 81.9284 179.935 81.4085C180.3 80.8976 180.678 80.248 181.069 79.4596C181.442 78.7072 181.74 78.0399 181.962 77.4578C182.21 76.8667 182.298 76.3522 182.225 75.9141C182.152 75.4761 181.847 75.1237 181.31 74.8571C181.059 74.7326 180.79 74.6664 180.504 74.6583C180.245 74.6412 179.994 74.6733 179.753 74.7545C179.521 74.8179 179.32 74.9079 179.15 75.0247L177.43 78.4915C177.164 79.029 176.955 79.5618 176.805 80.09C176.681 80.6091 176.673 81.0743 176.782 81.4854C176.891 81.8965 177.169 82.2131 177.617 82.4354Z" fill="#553B92"/>
</g>
<defs>
<filter id="filter0_d_17_1141" x="151.404" y="173.305" width="66.5989" height="65.5283" filterUnits="userSpaceOnUse" color-interpolation-filters="sRGB">
<feFlood flood-opacity="0" result="BackgroundImageFix"/>
<feColorMatrix in="SourceAlpha" type="matrix" values="0 0 0 0 0 0 0 0 0 0 0 0 0 0 0 0 0 0 127 0" result="hardAlpha"/>
<feOffset/>
<feComposite in2="hardAlpha" operator="out"/>
<feColorMatrix type="matrix" values="0 0 0 0 0.264705 0 0 0 0 0.318651 0 0 0 0 0.804167 0 0 0 0.8 0"/>
<feBlend mode="normal" in2="BackgroundImageFix" result="effect1_dropShadow_17_1141"/>
<feBlend mode="normal" in="SourceGraphic" in2="effect1_dropShadow_17_1141" result="shape"/>
</filter>
</defs>
</svg>
