<svg width="504" height="695" viewBox="0 0 504 695" fill="none" xmlns="http://www.w3.org/2000/svg">
<g filter="url(#filter0_f_17_2431)">
<path d="M183.297 414.041L356.211 392.851L422.636 236.499L322.247 101.168L152.455 118.174L82.9085 278.71L183.297 414.041Z" fill="#F5F5FA" stroke="#553B92" stroke-width="10"/>
<path d="M315.996 338.639L140.5 261.513M315.996 338.639L183.297 414.041M315.996 338.639L356.211 392.851M315.996 338.639L422.636 236.499M315.996 338.639L292.295 148.911M140.5 261.513L183.297 414.041M140.5 261.513L292.295 148.911M140.5 261.513L152.455 118.174M140.5 261.513L82.9085 278.71M183.297 414.041L356.211 392.851M183.297 414.041L82.9085 278.71M356.211 392.851L422.636 236.499M82.9085 278.71L152.455 118.174M152.455 118.174L322.247 101.168M152.455 118.174L292.295 148.911M322.247 101.168L422.636 236.499M322.247 101.168L292.295 148.911M422.636 236.499L292.295 148.911" stroke="#553B92" stroke-width="10"/>
<circle cx="315.4" cy="337.834" r="9.5" transform="rotate(143.432 315.4 337.834)" stroke="#553B92" stroke-width="6"/>
<circle cx="142.196" cy="262.119" r="9.5" transform="rotate(143.432 142.196 262.119)" stroke="#553B92" stroke-width="6"/>
<circle cx="292.387" cy="150.713" r="9.5" transform="rotate(143.432 292.387 150.713)" stroke="#553B92" stroke-width="6"/>
<g filter="url(#filter1_d_17_2431)">
<path d="M262.657 213.231L266.813 218.834L268.24 241.92C268.35 243.644 268.474 245.279 268.611 246.824C268.714 248.395 268.966 249.881 269.368 251.283C269.762 252.744 270.428 254.109 271.369 255.377C272.36 256.713 273.367 257.533 274.39 257.837C275.438 258.176 276.441 257.989 277.401 257.277C278.429 256.515 279.001 255.639 279.117 254.649C279.259 253.694 279.089 252.678 278.608 251.6C278.127 250.523 277.48 249.435 276.667 248.339L275.218 246.386L282.98 240.628L284.505 242.684C286.335 245.151 287.585 247.624 288.255 250.102C288.89 252.606 288.779 254.999 287.922 257.281C287.057 259.624 285.27 261.799 282.563 263.807C278.897 266.527 275.426 267.614 272.152 267.067C268.878 266.521 265.958 264.517 263.39 261.056C262.145 259.377 261.245 257.627 260.691 255.807C260.163 254.02 259.832 252.141 259.697 250.169C259.554 248.257 259.44 246.243 259.358 244.126L258.416 226.098L246.028 235.288L241.376 229.017L262.657 213.231ZM224.247 240.608C226.749 238.752 229.203 237.728 231.61 237.536C234.018 237.344 236.294 237.834 238.438 239.005C240.608 240.212 242.57 241.997 244.323 244.361L258.165 263.02C259.969 265.453 261.151 267.87 261.71 270.271C262.295 272.706 262.146 275.048 261.264 277.296C260.382 279.544 258.655 281.621 256.085 283.528C253.549 285.409 251.095 286.433 248.722 286.6C246.314 286.792 244.03 286.255 241.869 284.989C239.734 283.757 237.764 281.925 235.959 279.492L222.118 260.833C220.364 258.469 219.225 256.074 218.7 253.647C218.2 251.255 218.392 248.935 219.274 246.687C220.156 244.439 221.814 242.412 224.247 240.608ZM229.433 247.598C228.507 248.284 228.055 249.071 228.076 249.959C228.097 250.847 228.331 251.735 228.779 252.625C229.252 253.549 229.743 254.354 230.251 255.039L243.863 273.39C244.423 274.144 245.076 274.881 245.823 275.602C246.536 276.348 247.314 276.86 248.157 277.137C249.026 277.449 249.94 277.249 250.9 276.537C251.859 275.826 252.333 274.996 252.321 274.049C252.3 273.161 252.053 272.255 251.58 271.331C251.073 270.432 250.539 269.606 249.98 268.852L236.368 250.502C235.859 249.817 235.232 249.114 234.485 248.393C233.763 247.706 232.963 247.237 232.085 246.985C231.208 246.733 230.324 246.937 229.433 247.598Z" fill="#553B92"/>
</g>
<g opacity="0.7">
<path d="M313.59 154.583L322.05 137.014C321.845 137.026 321.572 137.016 321.231 136.986C320.918 136.945 320.568 136.91 320.183 136.88C319.807 136.832 319.448 136.793 319.108 136.762C318.776 136.713 318.512 136.686 318.315 136.68L319.799 133.599C320.067 133.595 320.425 133.589 320.872 133.583C321.337 133.585 321.829 133.577 322.348 133.561C322.866 133.544 323.366 133.496 323.848 133.418C324.348 133.348 324.749 133.252 325.052 133.131L328.295 134.693L317.753 156.587L313.59 154.583ZM327.52 161.657C326.132 160.988 325.145 160.135 324.557 159.098C323.995 158.05 323.768 156.886 323.874 155.606C323.998 154.334 324.394 153.004 325.062 151.616L328.811 143.832C329.496 142.408 330.275 141.207 331.146 140.228C332.035 139.258 333.059 138.652 334.218 138.411C335.377 138.17 336.741 138.427 338.309 139.182C339.66 139.833 340.628 140.565 341.213 141.38C341.824 142.185 342.11 143.088 342.072 144.091C342.033 145.093 341.723 146.198 341.142 147.405C341.115 147.459 341.085 147.522 341.05 147.595C341.042 147.657 341.025 147.716 340.999 147.77L337.053 145.869C337.496 144.95 337.735 144.222 337.772 143.685C337.809 143.148 337.485 142.714 336.8 142.385C336.367 142.176 335.96 142.147 335.578 142.295C335.213 142.453 334.821 142.83 334.4 143.427C334.006 144.014 333.54 144.866 333.003 145.983L331.922 148.227C332.347 147.943 332.855 147.81 333.446 147.828C334.055 147.855 334.688 148.016 335.345 148.31C336.516 148.829 337.309 149.533 337.725 150.422C338.167 151.301 338.307 152.3 338.145 153.421C337.991 154.523 337.624 155.678 337.043 156.886C336.331 158.363 335.517 159.592 334.602 160.572C333.686 161.551 332.639 162.157 331.462 162.39C330.312 162.612 328.997 162.368 327.52 161.657ZM329.071 158.574C329.521 158.791 329.928 158.799 330.292 158.596C330.674 158.403 331.035 158.044 331.376 157.52C331.735 157.005 332.106 156.351 332.488 155.558C332.852 154.801 333.142 154.13 333.357 153.546C333.598 152.952 333.68 152.436 333.602 151.999C333.524 151.562 333.215 151.213 332.674 150.953C332.422 150.831 332.152 150.768 331.866 150.764C331.606 150.75 331.356 150.785 331.116 150.869C330.885 150.935 330.685 151.027 330.517 151.146L328.838 154.633C328.577 155.173 328.375 155.709 328.231 156.239C328.113 156.759 328.111 157.224 328.225 157.634C328.338 158.044 328.62 158.357 329.071 158.574Z" fill="#553B92"/>
</g>
<g opacity="0.7">
<path d="M198.713 185.956L180.124 160.898C179.988 161.198 179.772 161.578 179.475 162.037C179.185 162.452 178.875 162.92 178.546 163.443C178.198 163.941 177.875 164.419 177.579 164.878C177.263 165.312 177.027 165.666 176.872 165.94L173.612 161.545C173.806 161.162 174.065 160.652 174.388 160.013C174.737 159.356 175.093 158.654 175.455 157.907C175.818 157.16 176.122 156.416 176.37 155.675C176.642 154.915 176.806 154.276 176.86 153.758L181.486 150.326L204.65 181.552L198.713 185.956Z" fill="#553B92"/>
</g>
<g opacity="0.7">
<path d="M198.713 185.956L180.124 160.898C179.988 161.198 179.772 161.578 179.475 162.037C179.185 162.452 178.875 162.92 178.546 163.443C178.198 163.941 177.875 164.419 177.579 164.878C177.263 165.312 177.027 165.666 176.872 165.94L173.612 161.545C173.806 161.162 174.065 160.652 174.388 160.013C174.737 159.356 175.093 158.654 175.455 157.907C175.818 157.16 176.122 156.416 176.37 155.675C176.642 154.915 176.806 154.276 176.86 153.758L181.486 150.326L204.65 181.552L198.713 185.956Z" fill="#553B92"/>
</g>
<g opacity="0.7">
<path d="M228.198 334.27L226.491 339.216L212.81 349.882C211.789 350.681 210.83 351.45 209.932 352.189C209.003 352.919 208.19 353.704 207.494 354.547C206.756 355.41 206.194 356.401 205.808 357.52C205.401 358.7 205.32 359.671 205.565 360.432C205.8 361.224 206.341 361.766 207.188 362.058C208.095 362.371 208.88 362.354 209.541 362.007C210.192 361.69 210.749 361.154 211.212 360.4C211.676 359.646 212.074 358.785 212.408 357.817L213.003 356.092L219.855 358.456L219.229 360.271C218.477 362.449 217.477 364.27 216.227 365.735C214.947 367.189 213.419 368.134 211.643 368.571C209.827 369.028 207.724 368.844 205.334 368.02C202.097 366.903 199.954 365.216 198.905 362.958C197.856 360.701 197.858 358.044 198.912 354.989C199.424 353.507 200.125 352.209 201.017 351.095C201.899 350.011 202.921 349.01 204.085 348.091C205.207 347.192 206.406 346.268 207.681 345.32L218.438 337.098L207.502 333.326L209.412 327.79L228.198 334.27Z" fill="#553B92"/>
</g>
<g opacity="0.7">
<path d="M137 309.87L118.404 306.788C118.471 306.975 118.536 307.231 118.6 307.555C118.648 307.857 118.71 308.191 118.787 308.556C118.844 308.918 118.905 309.262 118.969 309.586C119.014 309.907 119.06 310.159 119.108 310.344L115.846 309.803C115.77 309.555 115.668 309.225 115.54 308.812C115.416 308.38 115.276 307.925 115.119 307.449C114.963 306.972 114.783 306.521 114.58 306.095C114.379 305.65 114.182 305.304 113.987 305.056L114.557 301.623L137.73 305.464L137 309.87ZM139.746 295.432C139.493 296.958 138.995 298.13 138.252 298.947C137.49 299.762 136.532 300.279 135.379 300.499C134.228 300.7 132.957 300.686 131.565 300.455C130.935 300.351 130.353 300.195 129.819 299.989C129.285 299.783 128.808 299.528 128.388 299.223C127.968 298.918 127.614 298.575 127.324 298.194C127.019 297.791 126.789 297.341 126.636 296.845C126.074 297.399 125.344 297.846 124.445 298.187C123.529 298.506 122.431 298.569 121.15 298.376C119.869 298.183 118.807 297.791 117.965 297.201C117.103 296.607 116.496 295.831 116.146 294.871C115.796 293.912 115.728 292.783 115.943 291.486C116.161 290.17 116.589 289.124 117.227 288.348C117.869 287.553 118.691 287.023 119.695 286.759C120.681 286.491 121.81 286.472 123.085 286.703C124.379 286.937 125.408 287.353 126.171 287.949C126.918 288.524 127.458 289.172 127.789 289.893C128.094 289.473 128.454 289.131 128.87 288.867C129.27 288.581 129.718 288.361 130.214 288.208C130.71 288.055 131.244 287.967 131.816 287.945C132.391 287.903 132.993 287.934 133.623 288.038C135.021 288.231 136.229 288.627 137.247 289.227C138.268 289.808 139.008 290.606 139.466 291.623C139.909 292.618 140.002 293.887 139.746 295.432ZM136.456 294.887C136.548 294.334 136.425 293.892 136.088 293.562C135.75 293.231 135.312 292.982 134.771 292.814C134.231 292.646 133.703 292.52 133.188 292.434C132.581 292.314 131.983 292.254 131.395 292.255C130.81 292.236 130.315 292.33 129.908 292.537C129.501 292.744 129.252 293.124 129.16 293.677C129.072 294.212 129.185 294.652 129.5 294.998C129.818 295.325 130.255 295.584 130.812 295.774C131.352 295.942 131.937 296.078 132.567 296.182C133.082 296.268 133.632 296.32 134.216 296.338C134.782 296.353 135.278 296.259 135.704 296.056C136.113 295.829 136.364 295.44 136.456 294.887ZM125.556 293.08C125.619 292.698 125.526 292.37 125.278 292.093C125.033 291.798 124.653 291.549 124.138 291.346C123.623 291.143 123.003 290.981 122.278 290.861C121.458 290.725 120.778 290.75 120.238 290.934C119.682 291.097 119.356 291.464 119.262 292.037C119.167 292.609 119.353 293.081 119.821 293.452C120.272 293.801 120.899 294.042 121.7 294.175C122.424 294.295 123.071 294.353 123.64 294.35C124.193 294.324 124.633 294.211 124.961 294.01C125.291 293.791 125.489 293.48 125.556 293.08Z" fill="#553B92"/>
</g>
<g opacity="0.7">
<path d="M132.021 227.527L127.929 228.995L129.84 234.321L127.221 235.26L114.758 234.577L113.359 230.68L124.249 226.773L123.643 225.084L126.197 224.167L126.803 225.856L130.895 224.388L132.021 227.527ZM126.338 232.596L125.375 229.912L117.928 232.584L126.338 232.596Z" fill="#553B92"/>
</g>
<g opacity="0.7">
<path d="M263.125 133.835C262.1 133.249 261.391 132.544 260.997 131.718C260.624 130.887 260.513 129.985 260.663 129.011C260.826 128.045 261.201 127.049 261.787 126.024L265.072 120.273C265.673 119.221 266.333 118.344 267.052 117.642C267.784 116.948 268.6 116.54 269.499 116.418C270.399 116.296 271.428 116.566 272.586 117.228C273.585 117.798 274.286 118.41 274.689 119.065C275.113 119.713 275.283 120.42 275.2 121.184C275.116 121.949 274.82 122.777 274.31 123.669C274.287 123.709 274.261 123.756 274.23 123.809C274.221 123.856 274.205 123.9 274.182 123.94L271.266 122.274C271.654 121.595 271.876 121.052 271.933 120.643C271.99 120.234 271.766 119.885 271.26 119.596C270.94 119.413 270.63 119.369 270.33 119.462C270.043 119.563 269.722 119.83 269.369 120.263C269.036 120.691 268.634 121.318 268.162 122.144L267.215 123.801C267.556 123.607 267.951 123.533 268.402 123.579C268.866 123.632 269.341 123.789 269.828 124.049C270.696 124.509 271.264 125.09 271.535 125.792C271.826 126.488 271.879 127.26 271.695 128.108C271.518 128.943 271.175 129.807 270.665 130.699C270.041 131.791 269.353 132.686 268.6 133.386C267.847 134.086 267.014 134.494 266.101 134.608C265.209 134.716 264.217 134.459 263.125 133.835ZM264.477 131.561C264.81 131.751 265.121 131.779 265.41 131.644C265.713 131.516 266.008 131.261 266.297 130.879C266.6 130.504 266.918 130.024 267.253 129.438C267.572 128.879 267.83 128.382 268.026 127.946C268.243 127.505 268.333 127.115 268.297 126.777C268.261 126.438 268.043 126.155 267.643 125.927C267.457 125.82 267.254 125.757 267.036 125.738C266.838 125.714 266.645 125.727 266.457 125.778C266.276 125.816 266.118 125.876 265.983 125.958L264.511 128.534C264.283 128.934 264.1 129.332 263.961 129.73C263.843 130.122 263.816 130.477 263.881 130.797C263.946 131.116 264.145 131.371 264.477 131.561Z" fill="#553B92"/>
</g>
<g opacity="0.7">
<path d="M292.55 361.38L306.874 374.611C306.923 374.411 307.012 374.152 307.141 373.836C307.271 373.548 307.407 373.224 307.548 372.864C307.704 372.518 307.847 372.187 307.976 371.871C308.119 371.568 308.223 371.323 308.286 371.137L310.799 373.457C310.724 373.715 310.624 374.058 310.5 374.488C310.362 374.932 310.225 375.405 310.089 375.905C309.953 376.406 309.853 376.898 309.787 377.382C309.708 377.881 309.681 378.292 309.708 378.617L307.266 381.261L289.415 364.774L292.55 361.38ZM286.654 367.763L289.056 369.982L291.724 380.491C291.925 381.275 292.124 382.018 292.322 382.717C292.506 383.432 292.751 384.094 293.059 384.705C293.367 385.344 293.793 385.914 294.337 386.416C294.91 386.946 295.445 387.236 295.942 387.287C296.454 387.351 296.9 387.178 297.28 386.767C297.687 386.326 297.875 385.873 297.842 385.407C297.824 384.955 297.657 384.501 297.342 384.047C297.027 383.592 296.634 383.148 296.164 382.714L295.327 381.94L298.4 378.612L299.282 379.426C300.339 380.404 301.131 381.434 301.655 382.517C302.165 383.615 302.323 384.726 302.127 385.852C301.932 387.007 301.299 388.164 300.227 389.325C298.775 390.897 297.271 391.699 295.715 391.733C294.16 391.766 292.64 391.098 291.156 389.727C290.436 389.062 289.87 388.335 289.456 387.544C289.057 386.767 288.741 385.931 288.507 385.034C288.275 384.166 288.047 383.248 287.825 382.28L285.821 374.059L280.916 379.37L278.227 376.887L286.654 367.763Z" fill="#553B92"/>
</g>
<g opacity="0.7">
<path d="M332.91 249.322C332.57 246.784 332.79 244.689 333.569 243.034C334.38 241.376 335.645 240.093 337.364 239.185C339.087 238.308 341.106 237.715 343.421 237.405C344.468 237.265 345.464 237.229 346.409 237.296C347.355 237.363 348.233 237.536 349.045 237.815C349.858 238.093 350.585 238.464 351.228 238.927C351.907 239.417 352.488 240.017 352.971 240.727C353.592 239.579 354.531 238.517 355.789 237.541C357.082 236.593 358.79 235.961 360.91 235.645C363.031 235.329 364.902 235.433 366.522 235.959C368.174 236.48 369.509 237.415 370.529 238.764C371.549 240.113 372.204 241.865 372.493 244.022C372.786 246.211 372.615 248.074 371.982 249.611C371.352 251.181 370.307 252.418 368.847 253.324C367.418 254.226 365.639 254.803 363.509 255.056C361.348 255.313 359.519 255.154 358.022 254.58C356.56 254.033 355.392 253.269 354.519 252.288C354.24 253.101 353.835 253.817 353.305 254.436C352.81 255.084 352.208 255.649 351.498 256.131C350.788 256.614 349.985 257.012 349.091 257.325C348.201 257.67 347.232 257.913 346.186 258.053C343.879 258.427 341.775 258.385 339.874 257.93C337.977 257.506 336.419 256.6 335.2 255.214C334.017 253.855 333.254 251.891 332.91 249.322ZM338.381 248.589C338.504 249.509 338.913 250.148 339.606 250.507C340.3 250.867 341.115 251.048 342.052 251.052C342.989 251.055 343.886 251 344.742 250.885C345.761 250.781 346.736 250.586 347.666 250.3C348.601 250.046 349.339 249.656 349.883 249.132C350.426 248.607 350.636 247.885 350.513 246.965C350.394 246.077 350.001 245.435 349.335 245.04C348.673 244.677 347.855 244.479 346.883 244.448C345.946 244.445 344.954 244.513 343.907 244.653C343.051 244.768 342.156 244.952 341.221 245.206C340.318 245.456 339.579 245.846 339.005 246.375C338.466 246.931 338.258 247.669 338.381 248.589ZM356.507 246.162C356.592 246.797 356.898 247.272 357.425 247.589C357.956 247.938 358.678 248.148 359.591 248.219C360.505 248.291 361.564 248.246 362.77 248.084C364.133 247.902 365.198 247.533 365.963 246.979C366.764 246.452 367.101 245.712 366.974 244.761C366.846 243.809 366.323 243.153 365.403 242.792C364.519 242.458 363.41 242.381 362.078 242.559C360.873 242.72 359.821 242.942 358.923 243.224C358.06 243.533 357.418 243.926 356.998 244.402C356.582 244.909 356.418 245.496 356.507 246.162Z" fill="#553B92"/>
</g>
<g opacity="0.7">
<path d="M360.916 315.142L369.213 332.789C369.333 332.622 369.512 332.416 369.751 332.171C369.98 331.953 370.227 331.704 370.494 331.424C370.768 331.162 371.025 330.909 371.264 330.664C371.511 330.438 371.699 330.25 371.827 330.101L373.283 333.196C373.116 333.407 372.895 333.688 372.618 334.039C372.323 334.398 372.018 334.785 371.704 335.198C371.39 335.611 371.111 336.029 370.869 336.452C370.608 336.884 370.429 337.256 370.332 337.567L367.074 339.098L356.735 317.107L360.916 315.142ZM346.602 321.407C347.923 320.786 349.146 320.543 350.27 320.677C351.394 320.812 352.395 321.248 353.271 321.984C354.157 322.74 354.893 323.741 355.48 324.99L360.114 334.846C360.718 336.131 361.037 337.351 361.072 338.506C361.115 339.679 360.83 340.741 360.216 341.692C359.603 342.644 358.617 343.439 357.26 344.077C355.921 344.707 354.698 344.95 353.592 344.807C352.468 344.672 351.468 344.214 350.592 343.432C349.725 342.669 348.989 341.645 348.385 340.36L343.752 330.504C343.165 329.256 342.863 328.049 342.846 326.886C342.838 325.74 343.141 324.692 343.754 323.741C344.368 322.789 345.317 322.011 346.602 321.407ZM348.338 325.1C347.849 325.329 347.569 325.649 347.496 326.059C347.424 326.469 347.449 326.899 347.572 327.349C347.704 327.817 347.855 328.233 348.025 328.595L352.582 338.287C352.769 338.685 353.001 339.084 353.278 339.485C353.536 339.894 353.847 340.201 354.208 340.406C354.579 340.63 355.017 340.623 355.524 340.385C356.031 340.146 356.325 339.809 356.407 339.373C356.48 338.963 356.45 338.524 356.319 338.055C356.169 337.595 356 337.166 355.813 336.768L351.256 327.076C351.086 326.714 350.863 326.333 350.586 325.932C350.318 325.55 349.994 325.26 349.614 325.063C349.234 324.866 348.809 324.878 348.338 325.1Z" fill="#553B92"/>
</g>
</g>
<defs>
<filter id="filter0_f_17_2431" x="0.778137" y="0.892578" width="503.094" height="724.107" filterUnits="userSpaceOnUse" color-interpolation-filters="sRGB">
<feFlood flood-opacity="0" result="BackgroundImageFix"/>
<feBlend mode="normal" in="SourceGraphic" in2="BackgroundImageFix" result="shape"/>
<feGaussianBlur stdDeviation="15" result="effect1_foregroundBlur_17_2431"/>
</filter>
<filter id="filter1_d_17_2431" x="213.196" y="212.511" width="80.7654" height="79.2144" filterUnits="userSpaceOnUse" color-interpolation-filters="sRGB">
<feFlood flood-opacity="0" result="BackgroundImageFix"/>
<feColorMatrix in="SourceAlpha" type="matrix" values="0 0 0 0 0 0 0 0 0 0 0 0 0 0 0 0 0 0 127 0" result="hardAlpha"/>
<feOffset/>
<feComposite in2="hardAlpha" operator="out"/>
<feColorMatrix type="matrix" values="0 0 0 0 0.264705 0 0 0 0 0.318651 0 0 0 0 0.804167 0 0 0 0.8 0"/>
<feBlend mode="normal" in2="BackgroundImageFix" result="effect1_dropShadow_17_2431"/>
<feBlend mode="normal" in="SourceGraphic" in2="effect1_dropShadow_17_2431" result="shape"/>
</filter>
</defs>
</svg>
