<svg width="685" height="1199" viewBox="0 0 685 1199" fill="none" xmlns="http://www.w3.org/2000/svg">
<path d="M507.922 160.459L383.843 38.1787L220.077 83.3313L176.466 246.09L295.327 368.525L464.311 323.218L507.922 160.459Z" fill="#F5F5FA" stroke="#553B92" stroke-width="10"/>
<path d="M366.373 103.379L415.042 288.793M366.373 103.379L507.922 160.459M366.373 103.379L383.843 38.1787M366.373 103.379L220.077 83.3313M366.373 103.379L232.482 239.876M415.042 288.793L507.922 160.459M415.042 288.793L232.482 239.876M415.042 288.793L295.327 368.525M415.042 288.793L464.311 323.218M507.922 160.459L383.843 38.1787M507.922 160.459L464.311 323.218M383.843 38.1787L220.077 83.3313M464.311 323.218L295.327 368.525M295.327 368.525L176.466 246.09M295.327 368.525L232.482 239.876M176.466 246.09L220.077 83.3313M176.466 246.09L232.482 239.876M220.077 83.3313L232.482 239.876" stroke="#553B92" stroke-width="10"/>
<circle cx="366.114" cy="104.344" r="9.5" transform="rotate(15 366.114 104.344)" stroke="#553B92" stroke-width="6"/>
<circle cx="414.465" cy="287.087" r="9.5" transform="rotate(15 414.465 287.087)" stroke="#553B92" stroke-width="6"/>
<circle cx="233.837" cy="238.684" r="9.5" transform="rotate(15 233.837 238.684)" stroke="#553B92" stroke-width="6"/>
<g filter="url(#filter0_d_17_112)">
<path d="M328.24 230.335L339.006 190.152C338.58 190.259 338.004 190.348 337.279 190.418C336.605 190.459 335.859 190.524 335.04 190.613C334.232 190.662 333.465 190.721 332.739 190.792C332.025 190.821 331.46 190.869 331.045 190.934L332.933 183.887C333.494 183.772 334.242 183.619 335.176 183.428C336.152 183.248 337.18 183.037 338.261 182.797C339.341 182.556 340.371 182.258 341.35 181.902C342.37 181.556 343.173 181.197 343.759 180.824L351.177 182.812L337.76 232.886L328.24 230.335Z" fill="#553B92"/>
</g>
<g opacity="0.7">
<path d="M223.58 219.182L204.558 223.475C204.696 223.629 204.858 223.849 205.045 224.134C205.209 224.405 205.399 224.7 205.615 225.021C205.811 225.346 206.003 225.651 206.19 225.937C206.358 226.227 206.501 226.451 206.619 226.609L203.283 227.362C203.113 227.154 202.886 226.877 202.603 226.531C202.316 226.165 202.004 225.785 201.669 225.389C201.333 224.993 200.985 224.631 200.624 224.302C200.258 223.954 199.934 223.699 199.652 223.537L198.859 220.026L222.563 214.675L223.58 219.182ZM220.682 204.439C221.057 206.097 221.041 207.433 220.634 208.448C220.227 209.462 219.515 210.258 218.498 210.837C217.476 211.395 216.233 211.84 214.77 212.17L213.786 207.81C214.644 207.616 215.355 207.404 215.918 207.175C216.477 206.926 216.872 206.631 217.103 206.292C217.329 205.934 217.369 205.474 217.222 204.912C217.075 204.351 216.768 203.99 216.301 203.828C215.834 203.667 215.213 203.643 214.439 203.756C213.665 203.87 212.761 204.043 211.727 204.276C210.888 204.466 210.158 204.682 209.536 204.925C208.914 205.168 208.451 205.477 208.146 205.854C207.837 206.21 207.749 206.681 207.881 207.267C208 207.793 208.284 208.19 208.734 208.458C209.18 208.706 209.762 208.831 210.48 208.833L211.352 212.696L197.818 215.412L195.36 204.526L199.252 203.648L200.871 210.817L206.168 209.898C205.823 209.73 205.481 209.397 205.143 208.899C204.801 208.382 204.538 207.806 204.353 207.171C203.959 205.968 203.964 204.901 204.369 203.969C204.769 203.018 205.501 202.217 206.564 201.567C207.607 200.921 208.948 200.413 210.587 200.044C211.836 199.762 213.014 199.578 214.122 199.492C215.211 199.41 216.196 199.505 217.078 199.778C217.94 200.055 218.68 200.564 219.299 201.306C219.917 202.048 220.379 203.092 220.682 204.439Z" fill="#553B92"/>
</g>
<g opacity="0.7">
<path d="M319.673 290.156L311.598 320.293C311.918 320.213 312.35 320.147 312.894 320.094C313.399 320.063 313.959 320.014 314.573 319.947C315.179 319.911 315.754 319.866 316.299 319.813C316.835 319.791 317.258 319.756 317.57 319.707L316.153 324.992C315.733 325.078 315.172 325.193 314.471 325.336C313.739 325.472 312.968 325.629 312.158 325.81C311.347 325.99 310.575 326.214 309.841 326.481C309.076 326.74 308.474 327.009 308.034 327.289L302.47 325.798L312.533 288.243L319.673 290.156Z" fill="#553B92"/>
</g>
<g opacity="0.7">
<path d="M415.797 169.967L445.226 159.603C444.979 159.385 444.68 159.066 444.329 158.647C444.019 158.247 443.662 157.813 443.26 157.344C442.887 156.864 442.525 156.415 442.174 155.996C441.853 155.566 441.585 155.237 441.368 155.008L446.53 153.19C446.838 153.488 447.25 153.886 447.764 154.384C448.289 154.911 448.855 155.458 449.462 156.025C450.068 156.592 450.689 157.102 451.324 157.557C451.97 158.042 452.533 158.387 453.012 158.592L454.925 164.025L418.253 176.939L415.797 169.967ZM423.377 193.08C422.58 190.817 422.289 188.883 422.505 187.281C422.751 185.667 423.462 184.314 424.638 183.222C425.844 182.119 427.458 181.211 429.48 180.499C429.571 180.467 429.662 180.435 429.752 180.403C429.843 180.371 429.933 180.339 430.024 180.307L432.352 186.918C430.812 187.46 429.718 188.014 429.07 188.582C428.432 189.18 428.321 190.067 428.735 191.244C428.991 191.969 429.414 192.447 430.005 192.68C430.595 192.913 431.461 192.914 432.601 192.682C433.74 192.45 435.231 192.01 437.072 191.362L440.83 190.039C440.017 189.85 439.286 189.412 438.637 188.724C437.987 188.037 437.462 187.17 437.06 186.125C436.338 184.173 436.254 182.439 436.805 180.922C437.386 179.394 438.417 178.081 439.896 176.983C441.386 175.916 443.142 175.026 445.165 174.314C447.67 173.432 449.955 172.983 452.019 172.969C454.083 172.954 455.884 173.491 457.42 174.578C458.967 175.696 460.161 177.447 461 179.831C461.819 182.155 461.985 184.217 461.499 186.017C461.044 187.806 460.057 189.34 458.541 190.621C457.024 191.901 455.088 192.956 452.734 193.785L439.378 198.489C436.994 199.328 434.755 199.811 432.662 199.938C430.569 200.064 428.73 199.609 427.143 198.573C425.557 197.537 424.302 195.706 423.377 193.08ZM443.088 186.19C443.332 186.884 443.71 187.379 444.221 187.674C444.773 187.989 445.272 188.203 445.719 188.317L451.56 186.26C452.495 185.93 453.329 185.552 454.061 185.125C454.792 184.697 455.331 184.203 455.675 183.64C456.02 183.078 456.06 182.419 455.794 181.665C455.528 180.91 455.07 180.427 454.418 180.215C453.767 180.004 452.947 179.987 451.958 180.166C450.98 180.374 449.827 180.713 448.499 181.18C447.261 181.616 446.175 182.049 445.241 182.48C444.308 182.911 443.633 183.403 443.217 183.956C442.812 184.54 442.769 185.285 443.088 186.19Z" fill="#553B92"/>
</g>
<g opacity="0.7">
<path d="M447.168 265.512C448.436 264.808 449.558 264.44 450.535 264.407C451.52 264.39 452.398 264.677 453.168 265.267C453.947 265.874 454.65 266.744 455.279 267.877C455.307 267.928 455.335 267.978 455.363 268.029C455.391 268.08 455.419 268.131 455.448 268.181L451.745 270.235C451.267 269.373 450.826 268.778 450.422 268.449C450.002 268.129 449.462 268.152 448.803 268.518C448.397 268.743 448.155 269.043 448.075 269.419C447.996 269.795 448.083 270.31 448.336 270.966C448.59 271.621 449.002 272.464 449.574 273.496L450.742 275.601C450.772 275.097 450.959 274.618 451.303 274.162C451.647 273.705 452.11 273.305 452.693 272.96C453.782 272.333 454.807 272.107 455.766 272.283C456.735 272.475 457.621 272.956 458.424 273.726C459.211 274.506 459.918 275.462 460.546 276.595C461.325 277.998 461.823 279.314 462.04 280.542C462.257 281.77 462.119 282.897 461.626 283.922C461.117 284.956 460.194 285.844 458.859 286.585C457.557 287.307 456.346 287.614 455.225 287.507C454.113 287.416 453.099 286.983 452.183 286.209C451.267 285.435 450.444 284.389 449.712 283.07L445.562 275.589C444.821 274.253 444.307 272.969 444.021 271.735C443.734 270.501 443.819 269.359 444.276 268.31C444.733 267.26 445.697 266.328 447.168 265.512ZM453.262 276.557C452.874 276.773 452.617 277.048 452.493 277.382C452.361 277.742 452.284 278.061 452.261 278.339L454.076 281.611C454.367 282.135 454.676 282.593 455.005 282.986C455.333 283.378 455.682 283.649 456.052 283.798C456.422 283.946 456.818 283.903 457.241 283.669C457.664 283.434 457.905 283.112 457.965 282.703C458.026 282.294 457.953 281.804 457.747 281.233C457.523 280.671 457.206 280.018 456.793 279.274C456.408 278.581 456.041 277.978 455.69 277.465C455.339 276.953 454.978 276.6 454.606 276.408C454.217 276.226 453.77 276.276 453.262 276.557Z" fill="#553B92"/>
</g>
<g opacity="0.7">
<path d="M396.887 311.412L409.589 319.296C409.597 319.138 409.626 318.931 409.677 318.674C409.734 318.438 409.789 318.175 409.843 317.884C409.911 317.601 409.97 317.331 410.021 317.074C410.085 316.825 410.128 316.626 410.148 316.476L412.376 317.859C412.357 318.064 412.332 318.337 412.301 318.678C412.261 319.033 412.227 319.408 412.197 319.805C412.167 320.202 412.163 320.587 412.183 320.961C412.196 321.347 412.236 321.661 412.303 321.901L410.848 324.246L395.019 314.421L396.887 311.412ZM392.161 319.026L404.863 326.91C404.87 326.753 404.9 326.545 404.951 326.288C405.007 326.053 405.062 325.789 405.117 325.498C405.184 325.215 405.243 324.945 405.295 324.688C405.359 324.439 405.401 324.24 405.422 324.09L407.65 325.473C407.631 325.678 407.606 325.951 407.574 326.293C407.535 326.647 407.5 327.023 407.47 327.419C407.441 327.816 407.436 328.201 407.457 328.575C407.469 328.962 407.509 329.275 407.577 329.516L406.121 331.86L390.293 322.035L392.161 319.026Z" fill="#553B92"/>
</g>
<g opacity="0.7">
<path d="M238.866 272.048C239.063 273.337 238.979 274.358 238.613 275.112C238.247 275.866 237.66 276.436 236.851 276.824C236.039 277.196 235.065 277.469 233.928 277.643L233.41 274.255C234.077 274.153 234.632 274.03 235.075 273.884C235.516 273.724 235.834 273.52 236.028 273.273C236.221 273.011 236.276 272.661 236.194 272.224C236.111 271.787 235.896 271.494 235.548 271.346C235.199 271.197 234.726 271.146 234.128 271.191C233.53 271.236 232.829 271.319 232.026 271.442C231.374 271.542 230.804 271.668 230.315 271.82C229.827 271.972 229.456 272.184 229.202 272.456C228.947 272.712 228.854 273.067 228.923 273.522C228.986 273.931 229.182 274.25 229.512 274.479C229.839 274.693 230.277 274.82 230.826 274.86L231.285 277.861L220.789 279.21L219.495 270.752L222.519 270.29L223.371 275.86L227.472 275.443C227.217 275.295 226.973 275.022 226.742 274.623C226.508 274.209 226.338 273.755 226.231 273.259C225.994 272.318 226.055 271.502 226.415 270.811C226.772 270.105 227.375 269.532 228.223 269.092C229.055 268.654 230.108 268.338 231.382 268.144C232.352 267.995 233.263 267.918 234.115 267.912C234.952 267.908 235.7 268.034 236.36 268.29C237.004 268.548 237.543 268.978 237.976 269.578C238.409 270.179 238.706 271.002 238.866 272.048Z" fill="#553B92"/>
</g>
<g opacity="0.7">
<path d="M407.263 107.066C405.647 106.945 404.383 106.549 403.471 105.879C402.58 105.19 401.967 104.282 401.63 103.153C401.295 102.005 401.182 100.713 401.289 99.2768L401.355 98.4092L405.962 98.7552C405.959 98.7951 405.95 98.9048 405.937 99.0843C405.925 99.2438 405.913 99.4034 405.901 99.5629C405.862 100.342 405.874 100.995 405.934 101.521C406.017 102.029 406.188 102.422 406.447 102.703C406.707 102.983 407.096 103.142 407.615 103.181C408.153 103.222 408.562 103.122 408.841 102.882C409.121 102.623 409.33 102.237 409.469 101.726C409.608 101.215 409.705 100.581 409.762 99.8228C409.854 98.6063 409.745 97.6554 409.435 96.9703C409.127 96.2653 408.435 95.8623 407.36 95.7615C407.34 95.76 407.24 95.7525 407.061 95.739C406.881 95.7255 406.712 95.7128 406.552 95.7008L406.808 92.2904C406.928 92.2994 407.047 92.3084 407.167 92.3174C407.307 92.3279 407.426 92.3369 407.526 92.3444C408.603 92.4252 409.353 92.1907 409.775 91.6408C410.217 91.0924 410.485 90.1999 410.578 88.9634C410.65 88.0061 410.566 87.2477 410.328 86.6883C410.089 86.1288 409.59 85.8206 408.833 85.7637C408.075 85.7068 407.554 85.9685 407.269 86.5489C406.985 87.1292 406.798 87.8873 406.707 88.8232C406.696 88.9827 406.682 89.1622 406.667 89.3616C406.654 89.5411 406.64 89.7206 406.627 89.9001L402.02 89.5541L402.118 88.2378C402.225 86.8218 402.574 85.6447 403.166 84.7064C403.759 83.7481 404.554 83.0457 405.55 82.599C406.547 82.1524 407.733 81.9807 409.109 82.0841C410.485 82.1874 411.643 82.5251 412.583 83.0971C413.523 83.6691 414.206 84.4524 414.633 85.4472C415.079 86.4434 415.249 87.6496 415.143 89.0656C415.037 90.4816 414.649 91.6358 413.98 92.5282C413.332 93.4222 412.569 93.9666 411.692 94.1614C412.275 94.4058 412.779 94.7746 413.203 95.2677C413.627 95.7609 413.94 96.4061 414.141 97.2034C414.343 97.9807 414.402 98.9378 414.316 100.075C414.207 101.53 413.9 102.811 413.396 103.916C412.893 105.002 412.139 105.828 411.134 106.394C410.129 106.96 408.838 107.184 407.263 107.066Z" fill="#553B92"/>
</g>
<g opacity="0.7">
<path d="M280.638 150.271L262.384 121.345L255.023 128.984L250.945 125.053L263.335 112.196L266.861 115.594L285.635 145.086L280.638 150.271Z" fill="#553B92"/>
</g>
<g opacity="0.7">
<path d="M321.915 83.018L330.582 65.5498C330.376 65.5593 330.103 65.5468 329.763 65.512C329.45 65.4683 329.101 65.4291 328.716 65.3945C328.34 65.342 327.983 65.2984 327.643 65.2637C327.311 65.211 327.047 65.1805 326.851 65.1722L328.371 62.1086C328.639 62.1077 328.997 62.1066 329.444 62.1052C329.909 62.1127 330.401 62.1112 330.92 62.1007C331.439 62.0901 331.939 62.0483 332.422 61.9753C332.923 61.9111 333.325 61.8204 333.629 61.7032L336.854 63.3032L326.054 85.0713L321.915 83.018ZM332.386 88.2133L341.053 70.7451C340.847 70.7547 340.575 70.7421 340.235 70.7074C339.921 70.6636 339.572 70.6244 339.188 70.5899C338.812 70.5374 338.454 70.4937 338.114 70.459C337.783 70.4064 337.519 70.3759 337.322 70.3675L338.842 67.3039C339.11 67.3031 339.468 67.302 339.915 67.3006C340.381 67.3081 340.873 67.3066 341.391 67.296C341.91 67.2855 342.411 67.2437 342.894 67.1706C343.394 67.1065 343.796 67.0158 344.1 66.8986L347.325 68.4986L336.525 90.2666L332.386 88.2133Z" fill="#553B92"/>
</g>
<g filter="url(#filter1_ddddd_17_112)">
<rect x="199" y="446.887" width="287" height="56" rx="7.62745" fill="#4414AA"/>
</g>
<path d="M302.632 492V457.052H311.692C314.051 457.052 316.064 457.326 317.733 457.872C319.43 458.39 320.724 459.325 321.616 460.677C322.536 462.028 322.996 463.898 322.996 466.285C322.996 467.724 322.867 469.004 322.608 470.125C322.378 471.218 321.947 472.182 321.314 473.016C320.71 473.821 319.847 474.469 318.725 474.958L323.557 492H316.266L312.253 476.166H309.751V492H302.632ZM309.751 471.937H311.822C312.972 471.937 313.878 471.751 314.54 471.377C315.201 471.003 315.662 470.442 315.921 469.694C316.208 468.917 316.352 467.968 316.352 466.846C316.352 465.236 316.05 464.013 315.446 463.179C314.871 462.316 313.778 461.885 312.167 461.885H309.751V471.937ZM337.284 492.475C334.724 492.475 332.696 492.014 331.2 491.094C329.705 490.174 328.626 488.865 327.964 487.168C327.332 485.442 327.015 483.385 327.015 480.998V467.968C327.015 465.581 327.332 463.539 327.964 461.842C328.626 460.144 329.705 458.85 331.2 457.958C332.696 457.067 334.724 456.621 337.284 456.621C339.873 456.621 341.915 457.081 343.41 458.002C344.935 458.893 346.014 460.188 346.646 461.885C347.308 463.553 347.639 465.581 347.639 467.968V480.998C347.639 483.385 347.308 485.442 346.646 487.168C346.014 488.865 344.935 490.174 343.41 491.094C341.915 492.014 339.873 492.475 337.284 492.475ZM337.284 487.34C338.204 487.34 338.88 487.139 339.312 486.736C339.743 486.305 340.031 485.744 340.175 485.054C340.318 484.335 340.39 483.572 340.39 482.767V466.242C340.39 465.437 340.318 464.689 340.175 463.999C340.031 463.308 339.743 462.762 339.312 462.359C338.88 461.928 338.204 461.712 337.284 461.712C336.421 461.712 335.774 461.928 335.342 462.359C334.911 462.762 334.623 463.308 334.479 463.999C334.336 464.689 334.264 465.437 334.264 466.242V482.767C334.264 483.572 334.321 484.335 334.436 485.054C334.58 485.744 334.868 486.305 335.299 486.736C335.731 487.139 336.392 487.34 337.284 487.34ZM352.392 492V457.052H359.511V487.168H367.709V492H352.392ZM371.057 492V457.052H378.176V487.168H386.374V492H371.057Z" fill="#F5F5FA"/>
<defs>
<filter id="filter0_d_17_112" x="321.007" y="178.323" width="30.1702" height="54.5625" filterUnits="userSpaceOnUse" color-interpolation-filters="sRGB">
<feFlood flood-opacity="0" result="BackgroundImageFix"/>
<feColorMatrix in="SourceAlpha" type="matrix" values="0 0 0 0 0 0 0 0 0 0 0 0 0 0 0 0 0 0 127 0" result="hardAlpha"/>
<feOffset/>
<feComposite in2="hardAlpha" operator="out"/>
<feColorMatrix type="matrix" values="0 0 0 0 0.264705 0 0 0 0 0.318651 0 0 0 0 0.804167 0 0 0 0.8 0"/>
<feBlend mode="normal" in2="BackgroundImageFix" result="effect1_dropShadow_17_112"/>
<feBlend mode="normal" in="SourceGraphic" in2="effect1_dropShadow_17_112" result="shape"/>
</filter>
<filter id="filter1_ddddd_17_112" x="0" y="409.887" width="685" height="789" filterUnits="userSpaceOnUse" color-interpolation-filters="sRGB">
<feFlood flood-opacity="0" result="BackgroundImageFix"/>
<feColorMatrix in="SourceAlpha" type="matrix" values="0 0 0 0 0 0 0 0 0 0 0 0 0 0 0 0 0 0 127 0" result="hardAlpha"/>
<feOffset/>
<feColorMatrix type="matrix" values="0 0 0 0 0 0 0 0 0 0 0 0 0 0 0 0 0 0 0.1 0"/>
<feBlend mode="normal" in2="BackgroundImageFix" result="effect1_dropShadow_17_112"/>
<feColorMatrix in="SourceAlpha" type="matrix" values="0 0 0 0 0 0 0 0 0 0 0 0 0 0 0 0 0 0 127 0" result="hardAlpha"/>
<feOffset dy="31"/>
<feGaussianBlur stdDeviation="34"/>
<feColorMatrix type="matrix" values="0 0 0 0 0 0 0 0 0 0 0 0 0 0 0 0 0 0 0.1 0"/>
<feBlend mode="normal" in2="effect1_dropShadow_17_112" result="effect2_dropShadow_17_112"/>
<feColorMatrix in="SourceAlpha" type="matrix" values="0 0 0 0 0 0 0 0 0 0 0 0 0 0 0 0 0 0 127 0" result="hardAlpha"/>
<feOffset dy="124"/>
<feGaussianBlur stdDeviation="62"/>
<feColorMatrix type="matrix" values="0 0 0 0 0 0 0 0 0 0 0 0 0 0 0 0 0 0 0.09 0"/>
<feBlend mode="normal" in2="effect2_dropShadow_17_112" result="effect3_dropShadow_17_112"/>
<feColorMatrix in="SourceAlpha" type="matrix" values="0 0 0 0 0 0 0 0 0 0 0 0 0 0 0 0 0 0 127 0" result="hardAlpha"/>
<feOffset dy="280"/>
<feGaussianBlur stdDeviation="84"/>
<feColorMatrix type="matrix" values="0 0 0 0 0 0 0 0 0 0 0 0 0 0 0 0 0 0 0.05 0"/>
<feBlend mode="normal" in2="effect3_dropShadow_17_112" result="effect4_dropShadow_17_112"/>
<feColorMatrix in="SourceAlpha" type="matrix" values="0 0 0 0 0 0 0 0 0 0 0 0 0 0 0 0 0 0 127 0" result="hardAlpha"/>
<feOffset dy="497"/>
<feGaussianBlur stdDeviation="99.5"/>
<feColorMatrix type="matrix" values="0 0 0 0 0 0 0 0 0 0 0 0 0 0 0 0 0 0 0.01 0"/>
<feBlend mode="normal" in2="effect4_dropShadow_17_112" result="effect5_dropShadow_17_112"/>
<feBlend mode="normal" in="SourceGraphic" in2="effect5_dropShadow_17_112" result="shape"/>
</filter>
</defs>
</svg>
