<svg width="685" height="1199" viewBox="0 0 685 1199" fill="none" xmlns="http://www.w3.org/2000/svg">
<path d="M507.922 160.459L383.843 38.1787L220.077 83.3313L176.466 246.09L295.327 368.525L464.311 323.218L507.922 160.459Z" fill="#F5F5FA" stroke="#553B92" stroke-width="10"/>
<path d="M366.373 103.379L415.042 288.793M366.373 103.379L507.922 160.459M366.373 103.379L383.843 38.1787M366.373 103.379L220.077 83.3313M366.373 103.379L232.482 239.876M415.042 288.793L507.922 160.459M415.042 288.793L232.482 239.876M415.042 288.793L295.327 368.525M415.042 288.793L464.311 323.218M507.922 160.459L383.843 38.1787M507.922 160.459L464.311 323.218M383.843 38.1787L220.077 83.3313M464.311 323.218L295.327 368.525M295.327 368.525L176.466 246.09M295.327 368.525L232.482 239.876M176.466 246.09L220.077 83.3313M176.466 246.09L232.482 239.876M220.077 83.3313L232.482 239.876" stroke="#553B92" stroke-width="10"/>
<circle cx="366.114" cy="104.344" r="9.5" transform="rotate(15 366.114 104.344)" stroke="#553B92" stroke-width="6"/>
<circle cx="414.465" cy="287.087" r="9.5" transform="rotate(15 414.465 287.087)" stroke="#553B92" stroke-width="6"/>
<circle cx="233.837" cy="238.684" r="9.5" transform="rotate(15 233.837 238.684)" stroke="#553B92" stroke-width="6"/>
<g filter="url(#filter0_d_17_284)">
<path d="M312.302 226.064L323.069 185.882C322.643 185.988 322.067 186.077 321.341 186.148C320.668 186.188 319.921 186.253 319.102 186.343C318.294 186.391 317.527 186.451 316.802 186.521C316.087 186.551 315.522 186.598 315.107 186.664L316.995 179.616C317.556 179.502 318.304 179.349 319.239 179.157C320.215 178.977 321.243 178.767 322.323 178.526C323.403 178.286 324.433 177.987 325.412 177.631C326.432 177.286 327.235 176.927 327.821 176.554L335.239 178.542L321.822 228.615L312.302 226.064ZM343.267 235.289C339.929 234.394 337.436 233.064 335.789 231.298C334.194 229.501 333.268 227.353 333.01 224.855C332.763 222.315 333.037 219.561 333.832 216.594L334.312 214.801L343.833 217.352C343.81 217.435 343.75 217.661 343.65 218.032C343.562 218.362 343.474 218.692 343.385 219.021C342.996 220.64 342.761 222.012 342.68 223.139C342.651 224.235 342.853 225.129 343.286 225.819C343.72 226.51 344.472 226.998 345.544 227.286C346.657 227.584 347.553 227.537 348.232 227.144C348.922 226.711 349.514 225.986 350.007 224.97C350.501 223.954 350.957 222.662 351.377 221.096C352.05 218.582 352.198 216.546 351.821 214.987C351.455 213.387 350.164 212.268 347.95 211.631C347.908 211.62 347.702 211.564 347.331 211.465C346.961 211.366 346.61 211.272 346.281 211.184L348.169 204.136C348.416 204.202 348.663 204.269 348.911 204.335C349.199 204.412 349.446 204.478 349.653 204.534C351.878 205.13 353.542 204.935 354.646 203.95C355.79 202.976 356.705 201.211 357.389 198.656C357.92 196.678 358.045 195.055 357.766 193.788C357.488 192.52 356.565 191.677 354.999 191.257C353.433 190.837 352.237 191.18 351.411 192.283C350.585 193.387 349.892 194.902 349.332 196.828C349.244 197.158 349.144 197.529 349.034 197.941C348.934 198.312 348.835 198.683 348.736 199.054L339.215 196.503L339.944 193.783C340.728 190.857 341.927 188.527 343.539 186.795C345.163 185.021 347.108 183.864 349.373 183.323C351.638 182.781 354.193 182.891 357.036 183.653C359.88 184.415 362.174 185.582 363.917 187.153C365.66 188.725 366.782 190.638 367.282 192.892C367.824 195.157 367.703 197.753 366.919 200.679C366.134 203.605 364.865 205.871 363.109 207.477C361.395 209.094 359.58 209.932 357.664 209.993C358.79 210.737 359.7 211.709 360.394 212.911C361.088 214.113 361.488 215.59 361.593 217.34C361.709 219.05 361.452 221.079 360.823 223.429C360.017 226.437 358.866 229 357.371 231.117C355.887 233.193 353.98 234.626 351.648 235.414C349.316 236.203 346.523 236.161 343.267 235.289Z" fill="#553B92"/>
</g>
<g opacity="0.7">
<path d="M223.69 219.669L204.668 223.963C204.806 224.117 204.968 224.336 205.155 224.622C205.319 224.893 205.509 225.188 205.725 225.508C205.921 225.833 206.113 226.138 206.3 226.424C206.468 226.714 206.611 226.938 206.729 227.096L203.393 227.849C203.223 227.642 202.996 227.365 202.713 227.018C202.426 226.653 202.114 226.272 201.779 225.876C201.443 225.48 201.095 225.118 200.734 224.79C200.368 224.442 200.044 224.187 199.762 224.025L198.969 220.513L222.673 215.163L223.69 219.669ZM220.573 204.361C220.912 205.863 220.858 207.167 220.41 208.272C219.939 209.363 219.168 210.265 218.099 210.978C217.025 211.671 215.737 212.187 214.235 212.526L205.807 214.429C204.266 214.777 202.841 214.914 201.533 214.84C200.22 214.747 199.109 214.321 198.2 213.563C197.29 212.804 196.644 211.576 196.261 209.879C195.931 208.416 195.903 207.202 196.177 206.238C196.428 205.259 196.958 204.473 197.767 203.88C198.577 203.287 199.635 202.844 200.942 202.549C201 202.535 201.069 202.52 201.147 202.502C201.201 202.47 201.257 202.447 201.316 202.433L202.28 206.706C201.285 206.93 200.566 207.195 200.122 207.501C199.678 207.806 199.54 208.329 199.708 209.07C199.813 209.539 200.043 209.876 200.398 210.083C200.747 210.271 201.287 210.344 202.016 210.302C202.72 210.246 203.678 210.081 204.887 209.808L207.316 209.26C206.83 209.103 206.41 208.788 206.057 208.314C205.699 207.82 205.432 207.225 205.254 206.527C204.933 205.287 204.991 204.228 205.429 203.35C205.842 202.457 206.538 201.726 207.517 201.157C208.476 200.592 209.609 200.162 210.916 199.867C212.516 199.505 213.984 199.379 215.321 199.487C216.657 199.596 217.783 200.039 218.696 200.817C219.586 201.58 220.212 202.761 220.573 204.361ZM217.194 205.062C217.084 204.574 216.837 204.251 216.452 204.091C216.063 203.913 215.558 203.852 214.935 203.911C214.308 203.95 213.566 204.066 212.707 204.26C211.888 204.445 211.183 204.635 210.591 204.83C209.976 205.01 209.521 205.266 209.227 205.599C208.933 205.932 208.852 206.391 208.984 206.976C209.046 207.25 209.164 207.5 209.338 207.727C209.489 207.939 209.671 208.113 209.887 208.249C210.082 208.389 210.279 208.488 210.477 208.546L214.252 207.694C214.837 207.562 215.382 207.388 215.887 207.171C216.367 206.94 216.733 206.652 216.984 206.309C217.234 205.965 217.304 205.549 217.194 205.062Z" fill="#553B92"/>
</g>
<g opacity="0.7">
<path d="M331.265 293.262L323.189 323.399C323.509 323.319 323.941 323.252 324.485 323.199C324.99 323.169 325.55 323.12 326.164 323.053C326.77 323.017 327.345 322.972 327.89 322.919C328.426 322.897 328.849 322.861 329.161 322.812L327.744 328.098C327.324 328.184 326.763 328.299 326.062 328.442C325.33 328.577 324.559 328.735 323.749 328.915C322.938 329.096 322.166 329.32 321.432 329.587C320.667 329.846 320.065 330.115 319.625 330.395L314.062 328.904L324.124 291.349L331.265 293.262ZM317.835 289.663L316.481 294.717L303.583 306.318C302.621 307.187 301.719 308.022 300.874 308.823C300 309.615 299.244 310.456 298.608 311.346C297.933 312.258 297.442 313.286 297.136 314.43C296.813 315.635 296.8 316.609 297.098 317.352C297.388 318.125 297.966 318.628 298.831 318.86C299.758 319.108 300.54 319.036 301.175 318.643C301.802 318.281 302.32 317.707 302.729 316.923C303.138 316.138 303.475 315.251 303.74 314.262L304.212 312.5L311.214 314.376L310.717 316.23C310.12 318.456 309.25 320.343 308.106 321.892C306.932 323.432 305.474 324.483 303.734 325.043C301.954 325.627 299.843 325.591 297.401 324.937C294.094 324.051 291.838 322.518 290.633 320.34C289.427 318.162 289.243 315.512 290.079 312.39C290.485 310.876 291.094 309.531 291.905 308.357C292.709 307.214 293.658 306.143 294.754 305.145C295.81 304.169 296.941 303.164 298.146 302.128L308.298 293.171L297.125 290.177L298.64 284.52L317.835 289.663Z" fill="#553B92"/>
</g>
<g opacity="0.7">
<path d="M415.963 170.438L445.392 160.075C445.145 159.856 444.846 159.537 444.495 159.118C444.185 158.719 443.828 158.284 443.426 157.815C443.053 157.336 442.692 156.887 442.34 156.467C442.019 156.038 441.751 155.708 441.534 155.479L446.696 153.661C447.004 153.96 447.416 154.358 447.93 154.855C448.455 155.383 449.021 155.93 449.628 156.496C450.234 157.063 450.855 157.574 451.49 158.029C452.136 158.514 452.699 158.859 453.178 159.063L455.091 164.496L418.419 177.41L415.963 170.438ZM424.296 194.101L432.853 191.087L428.931 179.95L434.409 178.021L460.411 179.602L463.281 187.751L440.507 195.771L441.751 199.302L436.409 201.184L435.165 197.652L426.608 200.666L424.296 194.101ZM436.219 183.592L438.196 189.206L453.77 183.721L436.219 183.592Z" fill="#553B92"/>
</g>
<g opacity="0.7">
<path d="M455.099 261.476L464.244 277.96C464.349 277.791 464.509 277.581 464.723 277.329C464.929 277.104 465.152 276.848 465.391 276.561C465.639 276.29 465.87 276.029 466.084 275.778C466.308 275.543 466.477 275.35 466.592 275.198L468.195 278.089C468.049 278.303 467.853 278.588 467.609 278.945C467.348 279.311 467.079 279.703 466.803 280.122C466.526 280.54 466.285 280.962 466.078 281.386C465.854 281.82 465.706 282.189 465.632 282.496L462.589 284.184L451.194 263.643L455.099 261.476ZM442.082 268.3C443.435 267.55 444.662 267.211 445.764 267.285C446.876 267.376 447.876 267.805 448.766 268.571C449.639 269.347 450.417 270.353 451.102 271.587C451.412 272.145 451.652 272.697 451.822 273.243C451.993 273.79 452.089 274.322 452.111 274.841C452.134 275.359 452.085 275.85 451.967 276.314C451.841 276.804 451.631 277.263 451.338 277.691C452.121 277.787 452.925 278.081 453.751 278.574C454.57 279.093 455.302 279.914 455.947 281.037C456.592 282.16 456.945 283.236 457.007 284.263C457.078 285.307 456.846 286.264 456.312 287.135C455.778 288.006 454.937 288.761 453.787 289.399C452.621 290.046 451.535 290.36 450.53 290.343C449.509 290.335 448.582 290.02 447.751 289.398C446.929 288.793 446.212 287.919 445.6 286.777C444.98 285.618 444.666 284.554 444.659 283.585C444.644 282.642 444.817 281.817 445.176 281.109C444.657 281.132 444.165 281.062 443.7 280.9C443.227 280.765 442.776 280.55 442.348 280.257C441.92 279.964 441.519 279.6 441.146 279.166C440.756 278.742 440.406 278.25 440.096 277.692C439.378 276.477 438.937 275.284 438.775 274.114C438.595 272.954 438.761 271.878 439.272 270.887C439.776 269.922 440.713 269.06 442.082 268.3ZM443.7 271.216C443.21 271.488 442.94 271.859 442.891 272.328C442.842 272.798 442.919 273.296 443.124 273.824C443.328 274.352 443.557 274.844 443.81 275.3C444.093 275.851 444.418 276.356 444.784 276.816C445.133 277.286 445.515 277.616 445.93 277.806C446.345 277.996 446.797 277.955 447.287 277.683C447.761 277.42 448.035 277.058 448.111 276.596C448.169 276.143 448.1 275.64 447.903 275.086C447.699 274.558 447.442 274.015 447.132 273.457C446.879 273.001 446.578 272.538 446.229 272.068C445.889 271.616 445.507 271.286 445.083 271.079C444.651 270.898 444.19 270.944 443.7 271.216ZM449.06 280.878C448.722 281.065 448.522 281.342 448.46 281.708C448.38 282.084 448.422 282.537 448.583 283.066C448.744 283.596 449.003 284.182 449.359 284.824C449.762 285.551 450.204 286.069 450.685 286.377C451.158 286.712 451.648 286.738 452.155 286.457C452.662 286.176 452.916 285.736 452.916 285.139C452.909 284.568 452.709 283.928 452.315 283.218C451.958 282.575 451.602 282.032 451.245 281.589C450.881 281.172 450.519 280.898 450.159 280.766C449.781 280.644 449.415 280.681 449.06 280.878Z" fill="#553B92"/>
</g>
<g opacity="0.7">
<path d="M393.692 316.559L397.385 318.852L400.369 314.045L402.733 315.512L409.945 325.701L407.761 329.218L397.932 323.117L396.986 324.641L394.68 323.209L395.626 321.685L391.933 319.393L393.692 316.559ZM401.195 317.86L399.691 320.283L406.413 324.456L401.195 317.86Z" fill="#553B92"/>
</g>
<g opacity="0.7">
<path d="M238.8 271.919C238.985 273.132 238.898 274.138 238.54 274.937C238.166 275.739 237.571 276.365 236.756 276.815C235.939 277.25 234.977 277.553 233.87 277.722C233.37 277.798 232.893 277.825 232.44 277.801C231.986 277.777 231.564 277.702 231.172 277.576C230.78 277.45 230.428 277.279 230.116 277.063C229.787 276.834 229.503 276.552 229.265 276.216C228.978 276.771 228.538 277.289 227.944 277.767C227.332 278.233 226.52 278.551 225.507 278.721C224.494 278.892 223.597 278.858 222.816 278.621C222.02 278.386 221.372 277.95 220.871 277.313C220.37 276.676 220.041 275.842 219.883 274.812C219.723 273.766 219.788 272.872 220.078 272.129C220.366 271.372 220.855 270.77 221.547 270.323C222.224 269.878 223.071 269.585 224.089 269.445C225.122 269.303 225.999 269.362 226.722 269.624C227.427 269.873 227.993 270.229 228.421 270.691C228.547 270.299 228.734 269.953 228.983 269.651C229.214 269.336 229.498 269.06 229.833 268.823C230.169 268.585 230.55 268.387 230.976 268.229C231.399 268.056 231.861 267.931 232.361 267.855C233.463 267.655 234.471 267.656 235.386 267.857C236.299 268.043 237.053 268.463 237.65 269.117C238.229 269.757 238.612 270.691 238.8 271.919ZM236.185 272.319C236.118 271.879 235.916 271.577 235.581 271.411C235.245 271.245 234.853 271.165 234.404 271.172C233.955 271.178 233.526 271.213 233.117 271.276C232.63 271.335 232.164 271.437 231.721 271.582C231.276 271.712 230.925 271.905 230.67 272.162C230.414 272.418 230.32 272.766 230.387 273.205C230.452 273.63 230.646 273.934 230.969 274.117C231.289 274.285 231.683 274.372 232.149 274.379C232.598 274.372 233.072 274.33 233.572 274.254C233.982 274.191 234.409 274.095 234.854 273.965C235.285 273.837 235.635 273.644 235.906 273.385C236.159 273.114 236.252 272.758 236.185 272.319ZM227.523 273.643C227.476 273.34 227.326 273.115 227.07 272.968C226.813 272.806 226.465 272.712 226.027 272.686C225.588 272.66 225.081 272.691 224.505 272.779C223.853 272.878 223.347 273.064 222.985 273.337C222.606 273.596 222.451 273.954 222.521 274.408C222.59 274.863 222.847 275.173 223.291 275.338C223.718 275.489 224.249 275.517 224.886 275.419C225.462 275.331 225.964 275.216 226.392 275.073C226.802 274.917 227.106 274.723 227.303 274.491C227.498 274.244 227.571 273.962 227.523 273.643Z" fill="#553B92"/>
</g>
<g opacity="0.7">
<path d="M407.748 107.012C406.213 106.897 404.982 106.464 404.055 105.712C403.15 104.942 402.514 103.942 402.145 102.711C401.796 101.481 401.679 100.098 401.794 98.5628L402.441 89.9471C402.56 88.3715 402.846 86.969 403.299 85.7395C403.772 84.5115 404.504 83.5737 405.496 82.9261C406.487 82.2785 407.85 82.0199 409.585 82.1502C411.081 82.2625 412.25 82.591 413.091 83.1355C413.954 83.6616 414.551 84.3984 414.881 85.3457C415.211 86.2931 415.326 87.4349 415.225 88.7712C415.221 88.831 415.216 88.9008 415.21 88.9806C415.225 89.0419 415.231 89.1025 415.226 89.1623L410.858 88.8343C410.935 87.8172 410.892 87.0518 410.73 86.5382C410.568 86.0247 410.108 85.7394 409.35 85.6825C408.871 85.6465 408.481 85.7677 408.18 86.0459C407.898 86.3255 407.67 86.8199 407.497 87.5289C407.345 88.2194 407.222 89.183 407.129 90.4195L406.943 92.9025C407.235 92.4832 407.659 92.1741 408.216 91.9752C408.792 91.7778 409.44 91.6961 410.16 91.7301C411.439 91.7861 412.434 92.1516 413.146 92.8268C413.879 93.4835 414.374 94.3631 414.632 95.4655C414.892 96.548 414.972 97.7574 414.871 99.0936C414.748 100.729 414.44 102.17 413.945 103.416C413.45 104.663 412.697 105.609 411.686 106.255C410.696 106.883 409.384 107.135 407.748 107.012ZM408.066 103.577C408.565 103.614 408.947 103.472 409.212 103.151C409.496 102.832 409.702 102.366 409.828 101.753C409.974 101.143 410.08 100.398 410.146 99.521C410.209 98.6833 410.234 97.9531 410.22 97.3304C410.228 96.6892 410.116 96.1793 409.884 95.8009C409.652 95.4224 409.236 95.2107 408.638 95.1658C408.359 95.1448 408.085 95.1844 407.817 95.2846C407.57 95.3664 407.35 95.4902 407.157 95.6563C406.966 95.8023 406.813 95.9614 406.7 96.1334L406.41 99.9925C406.365 100.591 406.372 101.163 406.432 101.709C406.512 102.236 406.68 102.67 406.936 103.01C407.191 103.35 407.568 103.539 408.066 103.577Z" fill="#553B92"/>
</g>
<g opacity="0.7">
<path d="M275.337 155.772L252.871 134.121C252.787 134.439 252.636 134.85 252.419 135.351C252.201 135.808 251.973 136.322 251.735 136.892C251.473 137.44 251.234 137.965 251.017 138.467C250.777 138.946 250.603 139.334 250.495 139.63L246.555 135.833C246.683 135.423 246.854 134.877 247.068 134.194C247.304 133.488 247.539 132.737 247.773 131.941C248.007 131.144 248.185 130.36 248.307 129.589C248.451 128.794 248.506 128.136 248.474 127.616L252.471 123.469L280.466 150.449L275.337 155.772ZM284.985 145.761L281.217 142.13L277.307 125.229C277.012 123.967 276.718 122.773 276.426 121.647C276.156 120.498 275.785 119.43 275.315 118.442C274.843 117.41 274.181 116.483 273.328 115.662C272.43 114.796 271.583 114.313 270.789 114.215C269.972 114.094 269.253 114.356 268.631 115.001C267.965 115.693 267.65 116.411 267.687 117.158C267.7 117.881 267.951 118.612 268.44 119.35C268.929 120.088 269.542 120.812 270.279 121.523L271.593 122.788L266.563 128.007L265.181 126.675C263.522 125.076 262.291 123.402 261.489 121.651C260.71 119.878 260.496 118.094 260.848 116.299C261.198 114.46 262.251 112.63 264.005 110.81C266.381 108.344 268.814 107.111 271.303 107.11C273.793 107.11 276.201 108.231 278.528 110.473C279.657 111.562 280.539 112.745 281.174 114.023C281.785 115.279 282.263 116.628 282.606 118.07C282.949 119.467 283.282 120.943 283.605 122.499L286.53 135.718L294.558 127.389L298.774 131.452L284.985 145.761Z" fill="#553B92"/>
</g>
<g opacity="0.7">
<path d="M320.045 82.7968L328.711 65.3286C328.506 65.3381 328.233 65.3256 327.893 65.2908C327.58 65.2471 327.231 65.2079 326.846 65.1733C326.47 65.1208 326.112 65.0772 325.772 65.0425C325.441 64.9898 325.177 64.9594 324.98 64.951L326.5 61.8874C326.769 61.8865 327.126 61.8854 327.574 61.884C328.039 61.8916 328.531 61.89 329.049 61.8795C329.568 61.8689 330.069 61.8271 330.552 61.7541C331.052 61.6899 331.455 61.5992 331.758 61.482L334.983 63.082L324.183 84.8501L320.045 82.7968ZM333.85 90.115C332.542 89.4661 331.591 88.6596 330.998 87.6955C330.405 86.7313 330.124 85.6767 330.156 84.5318C330.198 83.3689 330.525 82.1693 331.138 80.9331L335.978 71.1778C336.609 69.9058 337.366 68.8972 338.25 68.1521C339.142 67.389 340.151 66.9521 341.278 66.8413C342.404 66.7305 343.64 67.0084 344.983 67.6751C346.309 68.3329 347.26 69.1394 347.835 70.0947C348.428 71.0588 348.691 72.1268 348.623 73.2988C348.564 74.4528 348.219 75.6658 347.588 76.9378L342.748 86.6931C342.134 87.9294 341.377 88.9156 340.476 89.6518C339.584 90.3701 338.575 90.7847 337.448 90.8955C336.321 91.0063 335.122 90.7461 333.85 90.115ZM335.663 86.4601C336.147 86.7001 336.572 86.7212 336.938 86.5233C337.304 86.3254 337.625 86.0382 337.901 85.6616C338.186 85.2672 338.418 84.8908 338.595 84.5325L343.355 74.9384C343.551 74.5443 343.72 74.1144 343.861 73.6489C344.021 73.1922 344.069 72.7583 344.005 72.347C343.95 71.9179 343.672 71.5789 343.17 71.33C342.668 71.0811 342.221 71.0601 341.828 71.267C341.462 71.465 341.136 71.7611 340.851 72.1556C340.584 72.5589 340.353 72.9576 340.157 73.3518L335.397 82.9458C335.22 83.3042 335.06 83.7161 334.918 84.1816C334.785 84.6293 334.76 85.0631 334.842 85.4833C334.924 85.9034 335.197 86.229 335.663 86.4601Z" fill="#553B92"/>
</g>
<g filter="url(#filter1_ddddd_17_284)">
<rect x="199" y="446.887" width="287" height="56" rx="7.62745" fill="#4414AA"/>
</g>
<path d="M302.632 492V457.052H311.692C314.051 457.052 316.064 457.326 317.733 457.872C319.43 458.39 320.724 459.325 321.616 460.677C322.536 462.028 322.996 463.898 322.996 466.285C322.996 467.724 322.867 469.004 322.608 470.125C322.378 471.218 321.947 472.182 321.314 473.016C320.71 473.821 319.847 474.469 318.725 474.958L323.557 492H316.266L312.253 476.166H309.751V492H302.632ZM309.751 471.937H311.822C312.972 471.937 313.878 471.751 314.54 471.377C315.201 471.003 315.662 470.442 315.921 469.694C316.208 468.917 316.352 467.968 316.352 466.846C316.352 465.236 316.05 464.013 315.446 463.179C314.871 462.316 313.778 461.885 312.167 461.885H309.751V471.937ZM337.284 492.475C334.724 492.475 332.696 492.014 331.2 491.094C329.705 490.174 328.626 488.865 327.964 487.168C327.332 485.442 327.015 483.385 327.015 480.998V467.968C327.015 465.581 327.332 463.539 327.964 461.842C328.626 460.144 329.705 458.85 331.2 457.958C332.696 457.067 334.724 456.621 337.284 456.621C339.873 456.621 341.915 457.081 343.41 458.002C344.935 458.893 346.014 460.188 346.646 461.885C347.308 463.553 347.639 465.581 347.639 467.968V480.998C347.639 483.385 347.308 485.442 346.646 487.168C346.014 488.865 344.935 490.174 343.41 491.094C341.915 492.014 339.873 492.475 337.284 492.475ZM337.284 487.34C338.204 487.34 338.88 487.139 339.312 486.736C339.743 486.305 340.031 485.744 340.175 485.054C340.318 484.335 340.39 483.572 340.39 482.767V466.242C340.39 465.437 340.318 464.689 340.175 463.999C340.031 463.308 339.743 462.762 339.312 462.359C338.88 461.928 338.204 461.712 337.284 461.712C336.421 461.712 335.774 461.928 335.342 462.359C334.911 462.762 334.623 463.308 334.479 463.999C334.336 464.689 334.264 465.437 334.264 466.242V482.767C334.264 483.572 334.321 484.335 334.436 485.054C334.58 485.744 334.868 486.305 335.299 486.736C335.731 487.139 336.392 487.34 337.284 487.34ZM352.392 492V457.052H359.511V487.168H367.709V492H352.392ZM371.057 492V457.052H378.176V487.168H386.374V492H371.057Z" fill="#F5F5FA"/>
<defs>
<filter id="filter0_d_17_284" x="304.837" y="173.373" width="65.6758" height="65.5107" filterUnits="userSpaceOnUse" color-interpolation-filters="sRGB">
<feFlood flood-opacity="0" result="BackgroundImageFix"/>
<feColorMatrix in="SourceAlpha" type="matrix" values="0 0 0 0 0 0 0 0 0 0 0 0 0 0 0 0 0 0 127 0" result="hardAlpha"/>
<feOffset/>
<feComposite in2="hardAlpha" operator="out"/>
<feColorMatrix type="matrix" values="0 0 0 0 0.264705 0 0 0 0 0.318651 0 0 0 0 0.804167 0 0 0 0.8 0"/>
<feBlend mode="normal" in2="BackgroundImageFix" result="effect1_dropShadow_17_284"/>
<feBlend mode="normal" in="SourceGraphic" in2="effect1_dropShadow_17_284" result="shape"/>
</filter>
<filter id="filter1_ddddd_17_284" x="0" y="409.887" width="685" height="789" filterUnits="userSpaceOnUse" color-interpolation-filters="sRGB">
<feFlood flood-opacity="0" result="BackgroundImageFix"/>
<feColorMatrix in="SourceAlpha" type="matrix" values="0 0 0 0 0 0 0 0 0 0 0 0 0 0 0 0 0 0 127 0" result="hardAlpha"/>
<feOffset/>
<feColorMatrix type="matrix" values="0 0 0 0 0 0 0 0 0 0 0 0 0 0 0 0 0 0 0.1 0"/>
<feBlend mode="normal" in2="BackgroundImageFix" result="effect1_dropShadow_17_284"/>
<feColorMatrix in="SourceAlpha" type="matrix" values="0 0 0 0 0 0 0 0 0 0 0 0 0 0 0 0 0 0 127 0" result="hardAlpha"/>
<feOffset dy="31"/>
<feGaussianBlur stdDeviation="34"/>
<feColorMatrix type="matrix" values="0 0 0 0 0 0 0 0 0 0 0 0 0 0 0 0 0 0 0.1 0"/>
<feBlend mode="normal" in2="effect1_dropShadow_17_284" result="effect2_dropShadow_17_284"/>
<feColorMatrix in="SourceAlpha" type="matrix" values="0 0 0 0 0 0 0 0 0 0 0 0 0 0 0 0 0 0 127 0" result="hardAlpha"/>
<feOffset dy="124"/>
<feGaussianBlur stdDeviation="62"/>
<feColorMatrix type="matrix" values="0 0 0 0 0 0 0 0 0 0 0 0 0 0 0 0 0 0 0.09 0"/>
<feBlend mode="normal" in2="effect2_dropShadow_17_284" result="effect3_dropShadow_17_284"/>
<feColorMatrix in="SourceAlpha" type="matrix" values="0 0 0 0 0 0 0 0 0 0 0 0 0 0 0 0 0 0 127 0" result="hardAlpha"/>
<feOffset dy="280"/>
<feGaussianBlur stdDeviation="84"/>
<feColorMatrix type="matrix" values="0 0 0 0 0 0 0 0 0 0 0 0 0 0 0 0 0 0 0.05 0"/>
<feBlend mode="normal" in2="effect3_dropShadow_17_284" result="effect4_dropShadow_17_284"/>
<feColorMatrix in="SourceAlpha" type="matrix" values="0 0 0 0 0 0 0 0 0 0 0 0 0 0 0 0 0 0 127 0" result="hardAlpha"/>
<feOffset dy="497"/>
<feGaussianBlur stdDeviation="99.5"/>
<feColorMatrix type="matrix" values="0 0 0 0 0 0 0 0 0 0 0 0 0 0 0 0 0 0 0.01 0"/>
<feBlend mode="normal" in2="effect4_dropShadow_17_284" result="effect5_dropShadow_17_284"/>
<feBlend mode="normal" in="SourceGraphic" in2="effect5_dropShadow_17_284" result="shape"/>
</filter>
</defs>
</svg>
