<svg width="685" height="1199" viewBox="0 0 685 1199" fill="none" xmlns="http://www.w3.org/2000/svg">
<path d="M507.922 160.459L383.843 38.1787L220.077 83.3313L176.466 246.09L295.327 368.525L464.311 323.218L507.922 160.459Z" fill="#F5F5FA" stroke="#553B92" stroke-width="10"/>
<path d="M366.373 103.379L415.042 288.793M366.373 103.379L507.922 160.459M366.373 103.379L383.843 38.1787M366.373 103.379L220.077 83.3313M366.373 103.379L232.482 239.876M415.042 288.793L507.922 160.459M415.042 288.793L232.482 239.876M415.042 288.793L295.327 368.525M415.042 288.793L464.311 323.218M507.922 160.459L383.843 38.1787M507.922 160.459L464.311 323.218M383.843 38.1787L220.077 83.3313M464.311 323.218L295.327 368.525M295.327 368.525L176.466 246.09M295.327 368.525L232.482 239.876M176.466 246.09L220.077 83.3313M176.466 246.09L232.482 239.876M220.077 83.3313L232.482 239.876" stroke="#553B92" stroke-width="10"/>
<circle cx="366.114" cy="104.344" r="9.5" transform="rotate(15 366.114 104.344)" stroke="#553B92" stroke-width="6"/>
<circle cx="414.465" cy="287.087" r="9.5" transform="rotate(15 414.465 287.087)" stroke="#553B92" stroke-width="6"/>
<circle cx="233.837" cy="238.684" r="9.5" transform="rotate(15 233.837 238.684)" stroke="#553B92" stroke-width="6"/>
<g filter="url(#filter0_d_17_569)">
<path d="M312.302 226.064L323.069 185.882C322.643 185.988 322.067 186.077 321.341 186.148C320.668 186.188 319.921 186.253 319.102 186.343C318.294 186.391 317.527 186.451 316.802 186.521C316.087 186.551 315.522 186.598 315.107 186.664L316.995 179.616C317.556 179.502 318.304 179.349 319.239 179.157C320.215 178.977 321.243 178.767 322.323 178.526C323.403 178.286 324.433 177.987 325.412 177.631C326.432 177.286 327.235 176.927 327.821 176.554L335.239 178.542L321.822 228.615L312.302 226.064ZM343.02 235.223C339.517 234.284 337.009 232.927 335.497 231.153C333.984 229.378 333.187 227.243 333.105 224.748C333.064 222.263 333.458 219.475 334.286 216.384L343.497 218.852C343.011 220.666 342.705 222.218 342.58 223.51C342.496 224.812 342.66 225.85 343.071 226.623C343.524 227.407 344.353 227.938 345.559 228.217C346.766 228.496 347.752 228.275 348.52 227.553C349.288 226.831 349.949 225.683 350.503 224.109C351.057 222.535 351.627 220.655 352.212 218.471C352.687 216.699 353.004 215.105 353.162 213.69C353.321 212.275 353.196 211.093 352.787 210.144C352.42 209.207 351.618 208.572 350.382 208.241C349.269 207.943 348.237 208.086 347.285 208.67C346.375 209.265 345.562 210.24 344.845 211.594L336.685 209.408L344.985 181.153L367.982 187.315L365.779 195.537L350.633 191.479L347.111 202.395C347.772 201.909 348.739 201.595 350.015 201.45C351.332 201.317 352.681 201.392 354.063 201.674C356.726 202.122 358.736 203.191 360.095 204.88C361.494 206.58 362.281 208.757 362.453 211.409C362.637 214.02 362.265 217.057 361.337 220.519C360.631 223.156 359.809 225.564 358.872 227.743C357.946 229.88 356.788 231.646 355.398 233.04C354.02 234.393 352.323 235.286 350.308 235.718C348.293 236.15 345.863 235.985 343.02 235.223Z" fill="#553B92"/>
</g>
<g opacity="0.7">
<path d="M223.58 219.182L204.558 223.475C204.696 223.629 204.858 223.848 205.045 224.134C205.209 224.405 205.399 224.7 205.615 225.021C205.811 225.345 206.003 225.651 206.19 225.936C206.358 226.226 206.501 226.45 206.619 226.608L203.283 227.361C203.113 227.154 202.886 226.877 202.603 226.531C202.316 226.165 202.004 225.784 201.669 225.388C201.333 224.993 200.985 224.63 200.624 224.302C200.258 223.954 199.934 223.699 199.652 223.537L198.859 220.025L222.563 214.675L223.58 219.182ZM221.667 210.705L218.477 211.425L208.309 207.662C207.548 207.382 206.824 207.126 206.136 206.891C205.443 206.638 204.758 206.464 204.081 206.371C203.38 206.263 202.668 206.29 201.946 206.453C201.185 206.625 200.643 206.901 200.319 207.282C199.975 207.667 199.865 208.133 199.988 208.679C200.12 209.264 200.388 209.675 200.79 209.913C201.172 210.154 201.64 210.274 202.193 210.272C202.746 210.271 203.335 210.199 203.959 210.058L205.072 209.807L206.069 214.226L204.898 214.49C203.494 214.807 202.197 214.875 201.007 214.692C199.814 214.49 198.809 213.989 197.992 213.189C197.152 212.374 196.558 211.196 196.21 209.655C195.739 207.567 195.931 205.873 196.786 204.573C197.64 203.273 199.053 202.401 201.023 201.956C201.979 201.74 202.9 201.686 203.786 201.794C204.651 201.906 205.52 202.12 206.391 202.436C207.238 202.737 208.123 203.07 209.046 203.436L216.954 206.449L215.362 199.396L218.932 198.59L221.667 210.705Z" fill="#553B92"/>
</g>
<g opacity="0.7">
<path d="M317.296 288.923C319.768 289.585 321.618 290.594 322.845 291.95C324.064 293.337 324.762 294.998 324.939 296.934C325.085 298.861 324.855 300.953 324.251 303.21C323.978 304.23 323.628 305.163 323.202 306.01C322.777 306.856 322.279 307.601 321.709 308.243C321.14 308.886 320.518 309.415 319.843 309.83C319.129 310.269 318.352 310.574 317.511 310.746C318.332 311.761 318.951 313.037 319.367 314.573C319.745 316.132 319.672 317.951 319.148 320.03C318.624 322.109 317.807 323.795 316.699 325.088C315.582 326.413 314.205 327.286 312.568 327.709C310.931 328.131 309.061 328.061 306.959 327.498C304.827 326.926 303.172 326.052 301.997 324.876C300.79 323.691 300.05 322.251 299.776 320.554C299.493 318.888 299.645 317.024 300.231 314.961C300.825 312.868 301.675 311.24 302.781 310.079C303.848 308.94 305.003 308.156 306.244 307.727C305.602 307.157 305.096 306.508 304.728 305.78C304.321 305.075 304.031 304.302 303.859 303.46C303.687 302.619 303.628 301.725 303.683 300.779C303.707 299.825 303.855 298.838 304.129 297.818C304.671 295.545 305.519 293.619 306.671 292.039C307.792 290.451 309.227 289.361 310.976 288.77C312.685 288.201 314.792 288.252 317.296 288.923ZM315.867 294.255C314.971 294.014 314.223 294.145 313.625 294.648C313.026 295.15 312.545 295.833 312.182 296.696C311.818 297.559 311.524 298.408 311.3 299.243C311.004 300.223 310.809 301.198 310.716 302.167C310.591 303.127 310.666 303.959 310.941 304.662C311.217 305.366 311.803 305.837 312.699 306.077C313.564 306.309 314.308 306.194 314.929 305.731C315.519 305.259 316.015 304.581 316.418 303.695C316.782 302.832 317.101 301.89 317.374 300.87C317.598 300.035 317.772 299.138 317.897 298.178C318.013 297.248 317.938 296.416 317.671 295.682C317.365 294.971 316.763 294.495 315.867 294.255ZM311.134 311.919C310.515 311.754 309.959 311.853 309.464 312.217C308.938 312.573 308.466 313.159 308.049 313.975C307.631 314.791 307.265 315.786 306.95 316.96C306.594 318.29 306.525 319.414 306.742 320.334C306.92 321.276 307.473 321.871 308.401 322.12C309.328 322.368 310.135 322.137 310.822 321.427C311.47 320.739 311.968 319.746 312.316 318.448C312.631 317.273 312.831 316.217 312.917 315.279C312.963 314.364 312.848 313.621 312.57 313.05C312.262 312.47 311.783 312.093 311.134 311.919Z" fill="#553B92"/>
</g>
<g opacity="0.7">
<path d="M416.129 170.91L445.558 160.546C445.311 160.328 445.012 160.009 444.661 159.59C444.351 159.19 443.994 158.756 443.592 158.287C443.219 157.808 442.858 157.358 442.506 156.939C442.185 156.509 441.917 156.18 441.7 155.951L446.862 154.133C447.17 154.432 447.582 154.829 448.096 155.327C448.621 155.854 449.187 156.401 449.794 156.968C450.4 157.535 451.021 158.046 451.656 158.5C452.302 158.985 452.865 159.33 453.344 159.535L455.257 164.968L418.585 177.882L416.129 170.91ZM420.747 184.024L425.682 182.286L442.541 186.374C443.802 186.676 445 186.95 446.138 187.194C447.286 187.468 448.407 187.616 449.501 187.638C450.635 187.68 451.76 187.504 452.877 187.111C454.054 186.696 454.865 186.156 455.309 185.491C455.783 184.815 455.872 184.054 455.574 183.209C455.255 182.304 454.754 181.7 454.071 181.398C453.418 181.085 452.652 180.981 451.774 181.087C450.895 181.193 449.973 181.416 449.007 181.756L447.286 182.362L444.879 175.525L446.69 174.888C448.863 174.122 450.912 173.774 452.836 173.843C454.77 173.942 456.461 174.551 457.907 175.67C459.393 176.809 460.556 178.571 461.396 180.955C462.534 184.185 462.544 186.912 461.428 189.137C460.311 191.363 458.229 193.012 455.181 194.085C453.702 194.606 452.249 194.863 450.821 194.857C449.424 194.84 448.005 194.662 446.562 194.322C445.16 194.001 443.691 193.636 442.156 193.227L429.029 189.911L432.872 200.822L427.348 202.767L420.747 184.024Z" fill="#553B92"/>
</g>
<g opacity="0.7">
<path d="M452.388 262.98L453.922 265.744L453.189 276.2C453.136 276.981 453.094 277.722 453.064 278.425C453.016 279.136 453.041 279.819 453.138 280.473C453.228 281.152 453.446 281.805 453.793 282.431C454.159 283.09 454.563 283.518 455.004 283.716C455.454 283.93 455.916 283.906 456.39 283.643C456.897 283.362 457.206 283.003 457.317 282.565C457.438 282.145 457.422 281.678 457.27 281.165C457.118 280.652 456.892 280.126 456.592 279.585L456.058 278.621L459.887 276.497L460.45 277.511C461.125 278.728 461.539 279.913 461.692 281.066C461.829 282.229 461.637 283.297 461.116 284.271C460.588 285.272 459.656 286.143 458.32 286.884C456.511 287.887 454.888 288.169 453.449 287.729C452.011 287.288 450.819 286.214 449.871 284.507C449.412 283.679 449.112 282.839 448.972 281.988C448.841 281.154 448.804 280.291 448.86 279.397C448.91 278.529 448.979 277.618 449.068 276.662L449.718 268.508L443.606 271.898L441.89 268.805L452.388 262.98Z" fill="#553B92"/>
</g>
<g opacity="0.7">
<path d="M393.692 316.559L397.385 318.852L400.369 314.045L402.733 315.512L409.945 325.701L407.761 329.218L397.932 323.117L396.986 324.641L394.68 323.209L395.626 321.685L391.933 319.393L393.692 316.559ZM401.195 317.86L399.691 320.283L406.413 324.456L401.195 317.86Z" fill="#553B92"/>
</g>
<g opacity="0.7">
<path d="M238.804 272.098C238.982 273.265 238.87 274.26 238.469 275.081C238.049 275.89 237.412 276.538 236.556 277.026C235.697 277.498 234.684 277.824 233.517 278.002L226.969 279.004C225.772 279.187 224.675 279.215 223.678 279.088C222.679 278.946 221.853 278.561 221.198 277.932C220.543 277.303 220.115 276.329 219.914 275.01C219.74 273.873 219.784 272.944 220.046 272.221C220.29 271.486 220.738 270.913 221.388 270.503C222.039 270.094 222.872 269.811 223.888 269.656C223.933 269.649 223.987 269.641 224.047 269.632C224.09 269.609 224.135 269.595 224.18 269.588L224.688 272.907C223.915 273.026 223.35 273.189 222.995 273.399C222.639 273.608 222.505 274.001 222.593 274.577C222.649 274.941 222.806 275.212 223.066 275.389C223.324 275.551 223.732 275.636 224.292 275.644C224.834 275.638 225.575 275.564 226.514 275.42L228.402 275.132C228.038 274.985 227.734 274.722 227.489 274.34C227.243 273.944 227.07 273.474 226.971 272.93C226.793 271.965 226.894 271.158 227.276 270.511C227.64 269.85 228.212 269.328 228.991 268.945C229.755 268.565 230.645 268.297 231.66 268.142C232.903 267.952 234.033 267.934 235.049 268.089C236.066 268.244 236.902 268.643 237.559 269.287C238.199 269.918 238.614 270.855 238.804 272.098ZM236.182 272.453C236.124 272.074 235.952 271.813 235.667 271.671C235.379 271.513 234.996 271.44 234.516 271.451C234.035 271.447 233.461 271.496 232.794 271.598C232.157 271.695 231.608 271.803 231.145 271.92C230.664 272.024 230.303 272.196 230.06 272.435C229.817 272.674 229.731 273.02 229.8 273.475C229.833 273.687 229.909 273.885 230.031 274.068C230.134 274.238 230.265 274.381 230.422 274.497C230.564 274.615 230.709 274.701 230.857 274.756L233.79 274.308C234.245 274.238 234.671 274.134 235.068 273.996C235.449 273.845 235.744 273.644 235.954 273.395C236.164 273.146 236.24 272.832 236.182 272.453Z" fill="#553B92"/>
</g>
<g opacity="0.7">
<path d="M403.149 105.899L409.789 85.5792L403.178 85.0827L403.443 81.5527L414.572 82.3884L414.342 85.4398L407.636 106.236L403.149 105.899Z" fill="#553B92"/>
</g>
<g opacity="0.7">
<path d="M275.337 155.772L252.871 134.121C252.787 134.439 252.636 134.85 252.419 135.351C252.201 135.808 251.973 136.322 251.735 136.892C251.473 137.44 251.234 137.965 251.017 138.467C250.777 138.946 250.603 139.334 250.495 139.63L246.555 135.833C246.683 135.423 246.854 134.877 247.068 134.194C247.304 133.488 247.539 132.737 247.773 131.941C248.007 131.144 248.185 130.36 248.307 129.589C248.451 128.794 248.506 128.136 248.474 127.616L252.471 123.469L280.466 150.449L275.337 155.772ZM292.497 138.935C290.609 140.893 288.809 142.047 287.095 142.395C285.381 142.744 283.691 142.492 282.023 141.64C280.377 140.765 278.691 139.495 276.962 137.83L281.925 132.68C282.939 133.657 283.847 134.421 284.65 134.972C285.474 135.5 286.215 135.769 286.871 135.78C287.55 135.767 288.2 135.416 288.82 134.725C289.441 134.035 289.654 133.307 289.459 132.541C289.264 131.775 288.75 130.924 287.918 129.989C287.086 129.054 286.06 127.998 284.839 126.821C283.848 125.866 282.917 125.08 282.045 124.463C281.174 123.845 280.353 123.498 279.582 123.422C278.833 123.322 278.126 123.618 277.46 124.31C276.86 124.932 276.579 125.661 276.617 126.498C276.678 127.311 277.022 128.199 277.651 129.16L273.254 133.723L257.722 118.02L270.113 105.163L274.71 109.593L266.549 118.061L272.436 124.334C272.357 123.725 272.501 122.975 272.87 122.086C273.26 121.174 273.799 120.315 274.486 119.51C275.746 117.925 277.177 116.994 278.779 116.715C280.403 116.414 282.117 116.687 283.92 117.537C285.701 118.364 287.559 119.71 289.494 121.575C290.969 122.997 292.251 124.41 293.341 125.816C294.407 127.199 295.146 128.6 295.557 130.018C295.945 131.414 295.915 132.852 295.467 134.331C295.019 135.81 294.029 137.345 292.497 138.935Z" fill="#553B92"/>
</g>
<g opacity="0.7">
<path d="M328.56 85.3665C327.109 84.6465 326.086 83.8044 325.493 82.8403C324.926 81.8671 324.7 80.7945 324.812 79.6224C324.934 78.4325 325.315 77.1925 325.955 75.9025L326.341 75.1232L330.48 77.1765C330.462 77.2124 330.413 77.3109 330.333 77.4721C330.262 77.6155 330.191 77.7588 330.12 77.9021C329.791 78.6097 329.556 79.2187 329.414 79.7289C329.3 80.2302 329.31 80.6595 329.445 81.0168C329.58 81.3742 329.881 81.6684 330.347 81.8995C330.831 82.1395 331.247 82.2009 331.595 82.0835C331.952 81.9482 332.292 81.6699 332.612 81.2485C332.933 80.8272 333.262 80.2761 333.6 79.5953C334.142 78.5024 334.399 77.5803 334.37 76.8291C334.349 76.0599 333.86 75.4264 332.901 74.9285C332.883 74.9196 332.794 74.8752 332.632 74.7952C332.471 74.7152 332.319 74.6396 332.176 74.5685L333.696 71.5048C333.803 71.5582 333.911 71.6115 334.018 71.6648C334.144 71.7271 334.251 71.7804 334.341 71.8248C335.308 72.3048 336.091 72.3695 336.689 72.0188C337.305 71.677 337.889 70.9507 338.44 69.8399C338.867 68.98 339.075 68.2459 339.064 67.6377C339.053 67.0295 338.707 66.5565 338.026 66.2188C337.345 65.881 336.764 65.9275 336.283 66.3583C335.801 66.7891 335.342 67.4211 334.906 68.2543C334.835 68.3976 334.755 68.5589 334.666 68.738C334.586 68.8993 334.506 69.0605 334.426 69.2218L330.288 67.1684L330.875 65.986C331.506 64.7139 332.272 63.7545 333.173 63.1077C334.084 62.443 335.084 62.0911 336.175 62.052C337.266 62.0128 338.43 62.2999 339.666 62.9132C340.902 63.5266 341.848 64.275 342.504 65.1584C343.16 66.0419 343.498 67.0247 343.519 68.1069C343.559 69.198 343.263 70.3796 342.631 71.6516C342 72.9237 341.207 73.8474 340.252 74.4228C339.315 75.007 338.403 75.2245 337.517 75.0752C337.966 75.521 338.294 76.0522 338.501 76.6687C338.709 77.2852 338.756 78.0006 338.642 78.8149C338.537 79.6113 338.231 80.5201 337.725 81.5413C337.076 82.8492 336.31 83.9204 335.427 84.755C334.553 85.5716 333.544 86.0532 332.399 86.1999C331.255 86.3465 329.975 86.0687 328.56 85.3665Z" fill="#553B92"/>
</g>
<g filter="url(#filter1_ddddd_17_569)">
<rect x="199" y="446.887" width="287" height="56" rx="7.62745" fill="#4414AA"/>
</g>
<path d="M302.632 492V457.052H311.692C314.051 457.052 316.064 457.326 317.733 457.872C319.43 458.39 320.724 459.325 321.616 460.677C322.536 462.028 322.996 463.898 322.996 466.285C322.996 467.724 322.867 469.004 322.608 470.125C322.378 471.218 321.947 472.182 321.314 473.016C320.71 473.821 319.847 474.469 318.725 474.958L323.557 492H316.266L312.253 476.166H309.751V492H302.632ZM309.751 471.937H311.822C312.972 471.937 313.878 471.751 314.54 471.377C315.201 471.003 315.662 470.442 315.921 469.694C316.208 468.917 316.352 467.968 316.352 466.846C316.352 465.236 316.05 464.013 315.446 463.179C314.871 462.316 313.778 461.885 312.167 461.885H309.751V471.937ZM337.284 492.475C334.724 492.475 332.696 492.014 331.2 491.094C329.705 490.174 328.626 488.865 327.964 487.168C327.332 485.442 327.015 483.385 327.015 480.998V467.968C327.015 465.581 327.332 463.539 327.964 461.842C328.626 460.144 329.705 458.85 331.2 457.958C332.696 457.067 334.724 456.621 337.284 456.621C339.873 456.621 341.915 457.081 343.41 458.002C344.935 458.893 346.014 460.188 346.646 461.885C347.308 463.553 347.639 465.581 347.639 467.968V480.998C347.639 483.385 347.308 485.442 346.646 487.168C346.014 488.865 344.935 490.174 343.41 491.094C341.915 492.014 339.873 492.475 337.284 492.475ZM337.284 487.34C338.204 487.34 338.88 487.139 339.312 486.736C339.743 486.305 340.031 485.744 340.175 485.054C340.318 484.335 340.39 483.572 340.39 482.767V466.242C340.39 465.437 340.318 464.689 340.175 463.999C340.031 463.308 339.743 462.762 339.312 462.359C338.88 461.928 338.204 461.712 337.284 461.712C336.421 461.712 335.774 461.928 335.342 462.359C334.911 462.762 334.623 463.308 334.479 463.999C334.336 464.689 334.264 465.437 334.264 466.242V482.767C334.264 483.572 334.321 484.335 334.436 485.054C334.58 485.744 334.868 486.305 335.299 486.736C335.731 487.139 336.392 487.34 337.284 487.34ZM352.392 492V457.052H359.511V487.168H367.709V492H352.392ZM371.057 492V457.052H378.176V487.168H386.374V492H371.057Z" fill="#F5F5FA"/>
<defs>
<filter id="filter0_d_17_569" x="304.837" y="174.052" width="65.2463" height="64.7646" filterUnits="userSpaceOnUse" color-interpolation-filters="sRGB">
<feFlood flood-opacity="0" result="BackgroundImageFix"/>
<feColorMatrix in="SourceAlpha" type="matrix" values="0 0 0 0 0 0 0 0 0 0 0 0 0 0 0 0 0 0 127 0" result="hardAlpha"/>
<feOffset/>
<feComposite in2="hardAlpha" operator="out"/>
<feColorMatrix type="matrix" values="0 0 0 0 0.264705 0 0 0 0 0.318651 0 0 0 0 0.804167 0 0 0 0.8 0"/>
<feBlend mode="normal" in2="BackgroundImageFix" result="effect1_dropShadow_17_569"/>
<feBlend mode="normal" in="SourceGraphic" in2="effect1_dropShadow_17_569" result="shape"/>
</filter>
<filter id="filter1_ddddd_17_569" x="0" y="409.887" width="685" height="789" filterUnits="userSpaceOnUse" color-interpolation-filters="sRGB">
<feFlood flood-opacity="0" result="BackgroundImageFix"/>
<feColorMatrix in="SourceAlpha" type="matrix" values="0 0 0 0 0 0 0 0 0 0 0 0 0 0 0 0 0 0 127 0" result="hardAlpha"/>
<feOffset/>
<feColorMatrix type="matrix" values="0 0 0 0 0 0 0 0 0 0 0 0 0 0 0 0 0 0 0.1 0"/>
<feBlend mode="normal" in2="BackgroundImageFix" result="effect1_dropShadow_17_569"/>
<feColorMatrix in="SourceAlpha" type="matrix" values="0 0 0 0 0 0 0 0 0 0 0 0 0 0 0 0 0 0 127 0" result="hardAlpha"/>
<feOffset dy="31"/>
<feGaussianBlur stdDeviation="34"/>
<feColorMatrix type="matrix" values="0 0 0 0 0 0 0 0 0 0 0 0 0 0 0 0 0 0 0.1 0"/>
<feBlend mode="normal" in2="effect1_dropShadow_17_569" result="effect2_dropShadow_17_569"/>
<feColorMatrix in="SourceAlpha" type="matrix" values="0 0 0 0 0 0 0 0 0 0 0 0 0 0 0 0 0 0 127 0" result="hardAlpha"/>
<feOffset dy="124"/>
<feGaussianBlur stdDeviation="62"/>
<feColorMatrix type="matrix" values="0 0 0 0 0 0 0 0 0 0 0 0 0 0 0 0 0 0 0.09 0"/>
<feBlend mode="normal" in2="effect2_dropShadow_17_569" result="effect3_dropShadow_17_569"/>
<feColorMatrix in="SourceAlpha" type="matrix" values="0 0 0 0 0 0 0 0 0 0 0 0 0 0 0 0 0 0 127 0" result="hardAlpha"/>
<feOffset dy="280"/>
<feGaussianBlur stdDeviation="84"/>
<feColorMatrix type="matrix" values="0 0 0 0 0 0 0 0 0 0 0 0 0 0 0 0 0 0 0.05 0"/>
<feBlend mode="normal" in2="effect3_dropShadow_17_569" result="effect4_dropShadow_17_569"/>
<feColorMatrix in="SourceAlpha" type="matrix" values="0 0 0 0 0 0 0 0 0 0 0 0 0 0 0 0 0 0 127 0" result="hardAlpha"/>
<feOffset dy="497"/>
<feGaussianBlur stdDeviation="99.5"/>
<feColorMatrix type="matrix" values="0 0 0 0 0 0 0 0 0 0 0 0 0 0 0 0 0 0 0.01 0"/>
<feBlend mode="normal" in2="effect4_dropShadow_17_569" result="effect5_dropShadow_17_569"/>
<feBlend mode="normal" in="SourceGraphic" in2="effect5_dropShadow_17_569" result="shape"/>
</filter>
</defs>
</svg>
