<svg width="378" height="642" viewBox="0 0 378 642" fill="none" xmlns="http://www.w3.org/2000/svg">
<path d="M354.922 160.459L230.843 38.1787L67.0765 83.3313L23.4655 246.09L142.327 368.525L311.311 323.218L354.922 160.459Z" fill="#F5F5FA" stroke="#553B92" stroke-width="10"/>
<path d="M213.373 103.379L262.042 288.793M213.373 103.379L354.922 160.459M213.373 103.379L230.843 38.1787M213.373 103.379L67.0765 83.3313M213.373 103.379L79.4824 239.876M262.042 288.793L354.922 160.459M262.042 288.793L79.4824 239.876M262.042 288.793L142.327 368.525M262.042 288.793L311.311 323.218M354.922 160.459L230.843 38.1787M354.922 160.459L311.311 323.218M230.843 38.1787L67.0765 83.3313M311.311 323.218L142.327 368.525M142.327 368.525L23.4655 246.09M142.327 368.525L79.4824 239.876M23.4655 246.09L67.0765 83.3313M23.4655 246.09L79.4824 239.876M67.0765 83.3313L79.4824 239.876" stroke="#553B92" stroke-width="10"/>
<circle cx="213.114" cy="104.344" r="9.5" transform="rotate(15 213.114 104.344)" stroke="#553B92" stroke-width="6"/>
<circle cx="261.465" cy="287.087" r="9.5" transform="rotate(15 261.465 287.087)" stroke="#553B92" stroke-width="6"/>
<circle cx="80.8369" cy="238.684" r="9.5" transform="rotate(15 80.8369 238.684)" stroke="#553B92" stroke-width="6"/>
<g filter="url(#filter0_d_17_855)">
<path d="M159.302 226.064L170.069 185.882C169.643 185.988 169.067 186.077 168.341 186.148C167.668 186.188 166.921 186.253 166.102 186.343C165.294 186.391 164.527 186.451 163.802 186.521C163.087 186.551 162.522 186.598 162.107 186.664L163.995 179.616C164.556 179.502 165.304 179.349 166.239 179.157C167.215 178.977 168.243 178.767 169.323 178.526C170.403 178.286 171.433 177.987 172.412 177.631C173.432 177.286 174.235 176.927 174.821 176.554L182.239 178.542L168.822 228.615L159.302 226.064ZM191.612 234.722L194.742 223.038L179.535 218.963L181.539 211.483L202.865 184.068L213.993 187.05L205.661 218.145L210.483 219.437L208.528 226.732L203.706 225.44L200.575 237.123L191.612 234.722ZM189.031 213.689L196.697 215.743L202.395 194.477L189.031 213.689Z" fill="#553B92"/>
</g>
<g opacity="0.7">
<path d="M70.5798 219.182L51.5583 223.475C51.6955 223.629 51.8579 223.848 52.0454 224.134C52.209 224.405 52.3987 224.7 52.6145 225.021C52.8108 225.345 53.0028 225.651 53.1903 225.936C53.3583 226.226 53.5011 226.45 53.6188 226.608L50.2827 227.361C50.1128 227.154 49.8863 226.877 49.6031 226.531C49.3156 226.165 49.0041 225.784 48.6687 225.388C48.3333 224.993 47.985 224.63 47.6238 224.302C47.2582 223.954 46.9341 223.699 46.6516 223.537L45.8589 220.025L69.5625 214.675L70.5798 219.182ZM67.656 204.321C68.0127 205.901 68.0041 207.226 67.6302 208.294C67.2324 209.348 66.5432 210.201 65.5627 210.852C64.5627 211.509 63.3603 211.995 61.9557 212.312L61.107 212.504L60.0898 207.997C60.1288 207.989 60.2361 207.964 60.4117 207.925C60.5678 207.89 60.7238 207.854 60.8799 207.819C61.6364 207.628 62.2572 207.426 62.7424 207.214C63.2037 206.987 63.5304 206.708 63.7223 206.378C63.9143 206.047 63.953 205.629 63.8385 205.121C63.7196 204.595 63.5048 204.233 63.1939 204.037C62.8635 203.845 62.4337 203.757 61.9044 203.774C61.3752 203.791 60.7399 203.883 59.9985 204.051C58.8085 204.319 57.9312 204.702 57.3666 205.198C56.7826 205.699 56.5997 206.479 56.818 207.537C56.8224 207.556 56.8444 207.654 56.8841 207.829C56.9237 208.005 56.9611 208.171 56.9963 208.327L53.6603 209.08C53.6339 208.963 53.6074 208.846 53.581 208.728C53.5502 208.592 53.5238 208.475 53.5017 208.377C53.2639 207.324 52.8203 206.676 52.1709 206.433C51.5171 206.17 50.5854 206.175 49.3758 206.448C48.4393 206.66 47.7386 206.962 47.2735 207.354C46.8084 207.746 46.6595 208.312 46.8268 209.054C46.9942 209.795 47.3969 210.217 48.035 210.319C48.6731 210.421 49.4529 210.378 50.3742 210.19C50.5303 210.155 50.7059 210.116 50.901 210.072C51.0765 210.032 51.2521 209.992 51.4277 209.953L52.445 214.459L51.1573 214.75C49.7722 215.063 48.5444 215.073 47.4739 214.782C46.384 214.495 45.4797 213.94 44.7611 213.118C44.0425 212.296 43.5313 211.212 43.2274 209.866C42.9235 208.52 42.9076 207.314 43.1795 206.248C43.4515 205.182 44.0006 204.299 44.827 203.6C45.6489 202.881 46.7525 202.366 48.1376 202.053C49.5228 201.741 50.7399 201.773 51.7889 202.152C52.8336 202.51 53.5774 203.081 54.0204 203.862C54.0833 203.233 54.2885 202.643 54.636 202.093C54.9834 201.543 55.5089 201.056 56.2125 200.63C56.8966 200.209 57.7947 199.873 58.9067 199.622C60.3309 199.301 61.6452 199.22 62.8497 199.378C64.0347 199.541 65.045 200.021 65.8807 200.816C66.7164 201.612 67.3081 202.78 67.656 204.321Z" fill="#553B92"/>
</g>
<g opacity="0.7">
<path d="M186.765 295.539L185.411 300.593L172.513 312.194C171.551 313.063 170.648 313.898 169.804 314.698C168.929 315.491 168.174 316.332 167.538 317.222C166.863 318.134 166.372 319.162 166.065 320.306C165.742 321.511 165.73 322.485 166.028 323.228C166.318 324.001 166.895 324.504 167.761 324.736C168.688 324.984 169.469 324.912 170.105 324.519C170.732 324.157 171.25 323.583 171.659 322.798C172.068 322.014 172.405 321.127 172.67 320.138L173.142 318.376L180.143 320.252L179.646 322.106C179.05 324.332 178.18 326.219 177.036 327.768C175.861 329.308 174.404 330.359 172.663 330.919C170.884 331.502 168.773 331.467 166.331 330.813C163.024 329.926 160.767 328.394 159.562 326.216C158.357 324.038 158.172 321.388 159.009 318.266C159.415 316.751 160.023 315.407 160.835 314.233C161.638 313.09 162.588 312.019 163.683 311.021C164.74 310.045 165.871 309.04 167.076 308.004L177.228 299.047L166.054 296.053L167.57 290.396L186.765 295.539ZM152.775 285.736C155.031 286.341 156.777 287.305 158.012 288.63C159.247 289.955 160.02 291.52 160.332 293.327C160.634 295.164 160.5 297.148 159.929 299.281L155.419 316.111C154.831 318.306 153.962 320.127 152.812 321.575C151.654 323.054 150.209 324.058 148.477 324.587C146.745 325.117 144.719 325.071 142.401 324.45C140.114 323.837 138.368 322.873 137.164 321.556C135.929 320.231 135.179 318.639 134.915 316.779C134.643 314.951 134.801 312.939 135.39 310.745L139.899 293.914C140.471 291.782 141.347 289.995 142.528 288.556C143.7 287.147 145.152 286.178 146.885 285.649C148.617 285.119 150.58 285.148 152.775 285.736ZM151.085 292.042C150.25 291.818 149.577 291.919 149.066 292.345C148.554 292.771 148.141 293.323 147.827 294.001C147.504 294.71 147.26 295.373 147.095 295.991L142.66 312.544C142.477 313.224 142.349 313.951 142.274 314.726C142.168 315.493 142.23 316.188 142.46 316.813C142.682 317.469 143.225 317.913 144.091 318.145C144.956 318.377 145.664 318.268 146.215 317.82C146.727 317.393 147.144 316.826 147.466 316.117C147.758 315.4 147.995 314.702 148.177 314.022L152.612 297.47C152.778 296.852 152.898 296.155 152.973 295.38C153.04 294.636 152.943 293.947 152.682 293.314C152.421 292.681 151.889 292.257 151.085 292.042Z" fill="#553B92"/>
</g>
<g opacity="0.7">
<path d="M267.543 185.034C266.725 182.709 266.568 180.627 267.074 178.787C267.62 176.966 268.676 175.39 270.243 174.058C271.82 172.756 273.771 171.696 276.095 170.877L289.134 166.285C291.518 165.446 293.757 164.963 295.85 164.836C297.953 164.74 299.798 165.21 301.384 166.246C302.97 167.282 304.226 169.113 305.151 171.739C305.948 174.003 306.218 175.926 305.961 177.509C305.746 179.112 305.05 180.46 303.874 181.552C302.698 182.645 301.099 183.547 299.077 184.259C298.986 184.291 298.88 184.328 298.76 184.371C298.68 184.433 298.595 184.48 298.504 184.512L296.176 177.902C297.716 177.36 298.809 176.805 299.458 176.237C300.106 175.67 300.228 174.813 299.824 173.666C299.569 172.941 299.141 172.447 298.539 172.184C297.948 171.951 297.078 171.936 295.927 172.137C294.818 172.358 293.327 172.798 291.456 173.457L287.698 174.781C288.5 174.939 289.226 175.362 289.875 176.05C290.535 176.767 291.071 177.664 291.484 178.74C292.225 180.65 292.329 182.344 291.797 183.82C291.307 185.316 290.336 186.608 288.887 187.695C287.468 188.771 285.748 189.666 283.725 190.378C281.25 191.249 278.941 191.724 276.796 191.8C274.652 191.877 272.782 191.382 271.185 190.316C269.629 189.269 268.415 187.509 267.543 185.034ZM272.782 183.291C273.048 184.045 273.501 184.513 274.141 184.695C274.793 184.906 275.607 184.908 276.586 184.699C277.574 184.52 278.733 184.197 280.061 183.73C281.329 183.283 282.414 182.85 283.318 182.43C284.263 182.029 284.938 181.537 285.343 180.954C285.748 180.37 285.791 179.625 285.472 178.72C285.323 178.297 285.089 177.922 284.77 177.593C284.492 177.284 284.169 177.041 283.801 176.865C283.464 176.679 283.133 176.558 282.808 176.503L276.968 178.559C276.063 178.878 275.229 179.257 274.467 179.695C273.746 180.152 273.219 180.677 272.884 181.27C272.55 181.862 272.516 182.536 272.782 183.291Z" fill="#553B92"/>
</g>
<g opacity="0.7">
<path d="M302.099 261.476L311.244 277.96C311.349 277.791 311.509 277.581 311.723 277.329C311.929 277.104 312.152 276.848 312.391 276.561C312.639 276.29 312.87 276.029 313.084 275.778C313.308 275.543 313.477 275.35 313.592 275.198L315.195 278.089C315.049 278.303 314.853 278.588 314.609 278.945C314.348 279.311 314.079 279.703 313.803 280.122C313.526 280.54 313.285 280.962 313.078 281.386C312.854 281.82 312.706 282.189 312.632 282.496L309.589 284.184L298.194 263.643L302.099 261.476ZM289.082 268.3C290.435 267.55 291.662 267.211 292.764 267.285C293.876 267.376 294.876 267.805 295.766 268.571C296.639 269.347 297.417 270.353 298.102 271.587C298.412 272.145 298.652 272.697 298.822 273.243C298.993 273.79 299.089 274.322 299.111 274.841C299.134 275.359 299.085 275.85 298.967 276.314C298.841 276.804 298.631 277.263 298.338 277.691C299.121 277.787 299.925 278.081 300.751 278.574C301.57 279.093 302.302 279.914 302.947 281.037C303.592 282.16 303.945 283.236 304.007 284.263C304.078 285.307 303.846 286.264 303.312 287.135C302.778 288.006 301.937 288.761 300.787 289.399C299.621 290.046 298.535 290.36 297.53 290.343C296.509 290.335 295.582 290.02 294.751 289.398C293.929 288.793 293.212 287.919 292.6 286.777C291.98 285.618 291.666 284.554 291.659 283.585C291.644 282.642 291.817 281.817 292.176 281.109C291.657 281.132 291.165 281.062 290.7 280.9C290.227 280.765 289.776 280.55 289.348 280.257C288.92 279.964 288.519 279.6 288.146 279.166C287.756 278.742 287.406 278.25 287.096 277.692C286.378 276.477 285.937 275.284 285.775 274.114C285.595 272.954 285.761 271.878 286.272 270.887C286.776 269.922 287.713 269.06 289.082 268.3ZM290.7 271.216C290.21 271.488 289.94 271.859 289.891 272.328C289.842 272.798 289.919 273.296 290.124 273.824C290.328 274.352 290.557 274.844 290.81 275.3C291.093 275.851 291.418 276.356 291.784 276.816C292.133 277.286 292.515 277.616 292.93 277.806C293.345 277.996 293.797 277.955 294.287 277.683C294.761 277.42 295.035 277.058 295.111 276.596C295.169 276.143 295.1 275.64 294.903 275.086C294.699 274.558 294.442 274.015 294.132 273.457C293.879 273.001 293.578 272.538 293.229 272.068C292.889 271.616 292.507 271.286 292.083 271.079C291.651 270.898 291.19 270.944 290.7 271.216ZM296.06 280.878C295.722 281.065 295.522 281.342 295.46 281.708C295.38 282.084 295.422 282.537 295.583 283.066C295.744 283.596 296.003 284.182 296.359 284.824C296.762 285.551 297.204 286.069 297.685 286.377C298.158 286.712 298.648 286.738 299.155 286.457C299.662 286.176 299.916 285.736 299.916 285.139C299.909 284.568 299.709 283.928 299.315 283.218C298.958 282.575 298.602 282.032 298.245 281.589C297.881 281.172 297.519 280.898 297.159 280.766C296.781 280.644 296.415 280.681 296.06 280.878Z" fill="#553B92"/>
</g>
<g opacity="0.7">
<path d="M240.692 316.559L244.385 318.852L247.369 314.045L249.733 315.512L256.945 325.701L254.761 329.218L244.932 323.117L243.986 324.641L241.68 323.209L242.626 321.685L238.933 319.393L240.692 316.559ZM248.195 317.86L246.691 320.283L253.413 324.456L248.195 317.86Z" fill="#553B92"/>
</g>
<g opacity="0.7">
<path d="M86.2811 276.894L83.8029 277.273L76.2291 273.848C75.6628 273.593 75.1227 273.358 74.6088 273.142C74.0925 272.91 73.578 272.741 73.0652 272.633C72.5348 272.513 71.9893 272.495 71.4285 272.581C70.8373 272.671 70.4076 272.853 70.1392 273.127C69.8557 273.403 69.7463 273.753 69.8112 274.178C69.8808 274.632 70.0629 274.961 70.3577 275.164C70.6373 275.37 70.9886 275.487 71.4118 275.515C71.8349 275.544 72.289 275.521 72.7741 275.446L73.638 275.314L74.163 278.747L73.2536 278.886C72.1622 279.053 71.1667 279.035 70.2669 278.831C69.3648 278.612 68.6232 278.175 68.0421 277.52C67.4435 276.851 67.0526 275.918 66.8695 274.721C66.6215 273.099 66.8593 271.814 67.583 270.865C68.3066 269.917 69.4339 269.326 70.9648 269.092C71.7075 268.978 72.4145 268.987 73.0859 269.117C73.7421 269.249 74.3947 269.459 75.0438 269.748C75.6754 270.024 76.3343 270.326 77.0207 270.655L82.9059 273.385L82.0681 267.906L84.8418 267.482L86.2811 276.894Z" fill="#553B92"/>
</g>
<g opacity="0.7">
<path opacity="0.9" d="M254.329 106.981C252.834 106.869 251.654 106.549 250.791 106.023C249.93 105.477 249.334 104.731 249.004 103.783C248.675 102.816 248.561 101.664 248.662 100.328C248.666 100.268 248.671 100.208 248.675 100.148C248.68 100.089 248.684 100.029 248.689 99.9689L253.056 100.297C252.98 101.314 253.023 102.079 253.185 102.593C253.367 103.108 253.847 103.395 254.624 103.453C255.103 103.489 255.483 103.367 255.765 103.088C256.047 102.808 256.264 102.313 256.418 101.602C256.572 100.892 256.694 99.9283 256.786 98.7117L256.972 96.2287C256.66 96.6465 256.226 96.9548 255.669 97.1537C255.113 97.3526 254.485 97.4358 253.785 97.4033C252.487 97.3259 251.473 96.9389 250.744 96.2423C250.015 95.5257 249.523 94.6062 249.266 93.4839C249.029 92.363 248.961 91.1344 249.061 89.7982C249.186 88.1429 249.503 86.7226 250.013 85.5375C250.523 84.3524 251.283 83.4567 252.291 82.8505C253.319 82.2458 254.621 82.0027 256.196 82.121C257.732 82.2363 258.954 82.659 259.862 83.389C260.771 84.0991 261.402 85.049 261.754 86.2387C262.106 87.4284 262.223 88.8011 262.106 90.3567L261.443 99.1818C261.325 100.757 261.039 102.16 260.586 103.389C260.133 104.619 259.41 105.557 258.419 106.205C257.428 106.853 256.065 107.111 254.329 106.981ZM255.337 93.9699C255.795 94.0043 256.173 93.9124 256.47 93.694C256.789 93.4572 257.037 93.2251 257.215 92.9978L257.505 89.1387C257.551 88.5204 257.544 87.9482 257.483 87.4222C257.422 86.8962 257.274 86.4639 257.039 86.1253C256.804 85.7867 256.437 85.5987 255.938 85.5613C255.439 85.5238 255.048 85.6649 254.763 85.9845C254.478 86.3041 254.263 86.7692 254.117 87.38C253.991 87.9923 253.894 88.7372 253.829 89.6147C253.767 90.4324 253.742 91.1626 253.754 91.8053C253.766 92.448 253.878 92.9578 254.091 93.3348C254.323 93.7132 254.738 93.9249 255.337 93.9699Z" fill="#553B92"/>
</g>
<g opacity="0.7">
<path d="M133.012 144.695L126.48 138.399L118.286 146.901L114.104 142.871L103.851 118.924L109.847 112.703L127.231 129.457L129.83 126.761L133.908 130.692L131.31 133.388L137.842 139.683L133.012 144.695ZM118.271 138.754L122.402 134.469L110.512 123.01L118.271 138.754Z" fill="#553B92"/>
</g>
<g opacity="0.7">
<path d="M167.045 82.7968L175.711 65.3286C175.506 65.3381 175.233 65.3256 174.893 65.2908C174.58 65.2471 174.231 65.2079 173.846 65.1733C173.47 65.1208 173.112 65.0772 172.772 65.0425C172.441 64.9898 172.177 64.9594 171.98 64.951L173.5 61.8874C173.769 61.8865 174.126 61.8854 174.574 61.884C175.039 61.8916 175.531 61.89 176.049 61.8795C176.568 61.8689 177.069 61.8271 177.552 61.7541C178.052 61.6899 178.455 61.5992 178.758 61.482L181.983 63.082L171.183 84.8501L167.045 82.7968ZM180.89 90.0344C179.51 89.35 178.533 88.4854 177.957 87.4407C177.408 86.3869 177.194 85.2204 177.316 83.941C177.455 82.6704 177.867 81.3454 178.551 79.9659L182.391 72.2261C183.093 70.8107 183.886 69.6187 184.768 68.65C185.669 67.6901 186.7 67.0966 187.862 66.8694C189.024 66.6422 190.384 66.9153 191.943 67.6886C193.287 68.3553 194.246 69.0992 194.821 69.9203C195.423 70.7324 195.698 71.6394 195.648 72.6413C195.597 73.6432 195.274 74.7443 194.679 75.9447C194.652 75.9985 194.621 76.0612 194.585 76.1328C194.577 76.1955 194.559 76.2537 194.532 76.3074L190.609 74.3607C191.062 73.447 191.31 72.7218 191.353 72.185C191.396 71.6482 191.077 71.2109 190.397 70.8731C189.967 70.6598 189.56 70.6253 189.175 70.7696C188.809 70.9227 188.412 71.2952 187.985 71.8868C187.584 72.4694 187.108 73.3161 186.557 74.4269L185.45 76.6575C185.879 76.3789 186.388 76.2521 186.979 76.2771C187.587 76.311 188.218 76.479 188.872 76.7811C190.036 77.3141 190.821 78.0273 191.226 78.9204C191.659 79.8046 191.787 80.806 191.611 81.9245C191.445 83.0252 191.064 84.1757 190.468 85.3761C189.739 86.8452 188.911 88.0642 187.984 89.0331C187.057 90.0019 186.003 90.5955 184.823 90.8138C183.67 91.0231 182.359 90.7633 180.89 90.0344ZM182.477 86.9705C182.925 87.1928 183.332 87.2049 183.698 87.007C184.082 86.818 184.448 86.4636 184.795 85.9437C185.16 85.4328 185.538 84.7831 185.929 83.9948C186.303 83.2423 186.6 82.5751 186.822 81.993C187.071 81.4019 187.158 80.8873 187.085 80.4493C187.013 80.0113 186.707 79.6589 186.17 79.3922C185.919 79.2678 185.651 79.2015 185.364 79.1935C185.105 79.1764 184.855 79.2085 184.613 79.2897C184.381 79.353 184.18 79.4431 184.01 79.5599L182.29 83.0267C182.024 83.5642 181.815 84.097 181.665 84.6252C181.541 85.1443 181.534 85.6094 181.642 86.0205C181.751 86.4317 182.029 86.7483 182.477 86.9705Z" fill="#553B92"/>
</g>
<defs>
<filter id="filter0_d_17_855" x="152.069" y="174.052" width="66.7454" height="64.363" filterUnits="userSpaceOnUse" color-interpolation-filters="sRGB">
<feFlood flood-opacity="0" result="BackgroundImageFix"/>
<feColorMatrix in="SourceAlpha" type="matrix" values="0 0 0 0 0 0 0 0 0 0 0 0 0 0 0 0 0 0 127 0" result="hardAlpha"/>
<feOffset/>
<feComposite in2="hardAlpha" operator="out"/>
<feColorMatrix type="matrix" values="0 0 0 0 0.264705 0 0 0 0 0.318651 0 0 0 0 0.804167 0 0 0 0.8 0"/>
<feBlend mode="normal" in2="BackgroundImageFix" result="effect1_dropShadow_17_855"/>
<feBlend mode="normal" in="SourceGraphic" in2="effect1_dropShadow_17_855" result="shape"/>
</filter>
</defs>
</svg>
