<svg width="378" height="642" viewBox="0 0 378 642" fill="none" xmlns="http://www.w3.org/2000/svg">
<path d="M354.922 160.459L230.843 38.1787L67.0765 83.3313L23.4655 246.09L142.327 368.525L311.311 323.218L354.922 160.459Z" fill="#F5F5FA" stroke="#553B92" stroke-width="10"/>
<path d="M213.373 103.379L262.042 288.793M213.373 103.379L354.922 160.459M213.373 103.379L230.843 38.1787M213.373 103.379L67.0765 83.3313M213.373 103.379L79.4824 239.876M262.042 288.793L354.922 160.459M262.042 288.793L79.4824 239.876M262.042 288.793L142.327 368.525M262.042 288.793L311.311 323.218M354.922 160.459L230.843 38.1787M354.922 160.459L311.311 323.218M230.843 38.1787L67.0765 83.3313M311.311 323.218L142.327 368.525M142.327 368.525L23.4655 246.09M142.327 368.525L79.4824 239.876M23.4655 246.09L67.0765 83.3313M23.4655 246.09L79.4824 239.876M67.0765 83.3313L79.4824 239.876" stroke="#553B92" stroke-width="10"/>
<circle cx="213.114" cy="104.344" r="9.5" transform="rotate(15 213.114 104.344)" stroke="#553B92" stroke-width="6"/>
<circle cx="261.465" cy="287.087" r="9.5" transform="rotate(15 261.465 287.087)" stroke="#553B92" stroke-width="6"/>
<circle cx="80.8369" cy="238.684" r="9.5" transform="rotate(15 80.8369 238.684)" stroke="#553B92" stroke-width="6"/>
<g filter="url(#filter0_d_17_626)">
<path d="M159.302 226.064L170.069 185.882C169.643 185.988 169.067 186.077 168.341 186.148C167.668 186.188 166.921 186.253 166.102 186.343C165.294 186.391 164.527 186.451 163.802 186.521C163.087 186.551 162.522 186.598 162.107 186.664L163.995 179.616C164.556 179.502 165.304 179.349 166.239 179.157C167.215 178.977 168.243 178.767 169.323 178.526C170.403 178.286 171.433 177.987 172.412 177.631C173.432 177.286 174.235 176.927 174.821 176.554L182.239 178.542L168.822 228.615L159.302 226.064ZM190.424 235.198C187.127 234.315 184.66 232.969 183.024 231.162C181.399 229.313 180.469 227.098 180.233 224.517C180.038 221.947 180.344 219.158 181.15 216.149C181.514 214.789 181.98 213.545 182.548 212.416C183.115 211.287 183.779 210.294 184.539 209.437C185.298 208.581 186.128 207.875 187.027 207.321C187.979 206.737 189.015 206.33 190.137 206.101C189.042 204.747 188.217 203.046 187.661 200.998C187.158 198.92 187.256 196.494 187.954 193.722C188.653 190.95 189.741 188.701 191.219 186.977C192.708 185.212 194.544 184.047 196.727 183.484C198.91 182.92 201.403 183.014 204.205 183.765C207.049 184.527 209.255 185.692 210.822 187.26C212.431 188.84 213.418 190.761 213.783 193.023C214.16 195.244 213.958 197.73 213.177 200.48C212.385 203.272 211.251 205.442 209.776 206.99C208.353 208.508 206.814 209.553 205.159 210.126C206.016 210.885 206.689 211.751 207.18 212.721C207.723 213.662 208.109 214.693 208.339 215.815C208.569 216.936 208.647 218.128 208.574 219.389C208.542 220.662 208.344 221.978 207.98 223.338C207.256 226.369 206.126 228.937 204.59 231.043C203.095 233.161 201.182 234.613 198.85 235.402C196.571 236.161 193.762 236.093 190.424 235.198ZM192.329 228.089C193.524 228.409 194.52 228.235 195.318 227.565C196.116 226.895 196.757 225.985 197.243 224.834C197.728 223.683 198.119 222.551 198.417 221.438C198.812 220.131 199.072 218.831 199.197 217.539C199.364 216.259 199.263 215.15 198.896 214.212C198.529 213.274 197.748 212.646 196.553 212.325C195.399 212.016 194.408 212.17 193.58 212.788C192.793 213.416 192.131 214.321 191.593 215.502C191.108 216.653 190.683 217.909 190.319 219.269C190.021 220.381 189.789 221.578 189.622 222.858C189.467 224.098 189.567 225.207 189.923 226.186C190.332 227.134 191.133 227.769 192.329 228.089ZM198.64 204.536C199.464 204.757 200.206 204.624 200.866 204.139C201.568 203.664 202.197 202.883 202.753 201.795C203.31 200.708 203.798 199.381 204.217 197.815C204.692 196.042 204.785 194.543 204.495 193.317C204.257 192.061 203.52 191.267 202.284 190.936C201.047 190.605 199.971 190.912 199.055 191.86C198.191 192.776 197.527 194.1 197.063 195.831C196.643 197.397 196.376 198.806 196.262 200.056C196.2 201.276 196.354 202.267 196.724 203.029C197.136 203.802 197.774 204.304 198.64 204.536Z" fill="#553B92"/>
</g>
<g opacity="0.7">
<path d="M68.4903 209.925L62.9595 211.173L64.5844 218.372L61.0435 219.171L45.0179 216.299L43.8289 211.032L58.5486 207.709L58.0333 205.427L61.4864 204.647L62.0017 206.93L67.5325 205.681L68.4903 209.925ZM60.3254 215.581L59.5063 211.952L49.4396 214.225L60.3254 215.581Z" fill="#553B92"/>
</g>
<g opacity="0.7">
<path d="M164.599 288.904C167.226 289.608 169.107 290.626 170.241 291.957C171.375 293.288 171.973 294.889 172.035 296.761C172.065 298.624 171.77 300.715 171.149 303.033L164.241 301.182C164.605 299.822 164.834 298.658 164.928 297.689C164.991 296.712 164.869 295.934 164.56 295.354C164.221 294.766 163.599 294.368 162.694 294.158C161.789 293.949 161.049 294.115 160.473 294.657C159.898 295.198 159.402 296.059 158.986 297.24C158.57 298.42 158.143 299.83 157.704 301.468C157.348 302.797 157.11 303.992 156.992 305.054C156.873 306.115 156.967 307.002 157.273 307.713C157.548 308.417 158.15 308.892 159.077 309.141C159.911 309.364 160.686 309.257 161.399 308.819C162.082 308.372 162.692 307.641 163.229 306.626L169.349 308.266L163.125 329.457L145.877 324.835L147.529 318.669L158.889 321.712L161.53 313.525C161.035 313.889 160.309 314.126 159.352 314.234C158.365 314.333 157.353 314.278 156.316 314.066C154.319 313.73 152.811 312.928 151.792 311.661C150.743 310.386 150.153 308.754 150.023 306.765C149.886 304.806 150.165 302.529 150.86 299.932C151.39 297.954 152.007 296.148 152.71 294.514C153.404 292.912 154.272 291.587 155.315 290.541C156.349 289.526 157.621 288.857 159.133 288.533C160.644 288.209 162.466 288.333 164.599 288.904Z" fill="#553B92"/>
</g>
<g opacity="0.7">
<path d="M264.524 174.871L269.459 173.133L286.318 177.222C287.579 177.524 288.777 177.798 289.915 178.042C291.063 178.316 292.184 178.464 293.278 178.486C294.412 178.527 295.537 178.352 296.654 177.958C297.831 177.544 298.642 177.004 299.086 176.339C299.56 175.663 299.649 174.902 299.351 174.057C299.032 173.151 298.531 172.548 297.848 172.245C297.195 171.932 296.429 171.829 295.551 171.935C294.672 172.041 293.75 172.264 292.784 172.604L291.063 173.21L288.656 166.373L290.467 165.736C292.64 164.97 294.689 164.622 296.613 164.691C298.547 164.79 300.238 165.399 301.684 166.518C303.17 167.657 304.333 169.419 305.173 171.803C306.311 175.033 306.321 177.76 305.205 179.985C304.088 182.21 302.006 183.86 298.958 184.933C297.479 185.454 296.026 185.711 294.598 185.705C293.202 185.688 291.782 185.51 290.339 185.17C288.937 184.849 287.468 184.484 285.933 184.075L272.806 180.759L276.649 191.67L271.125 193.615L264.524 174.871Z" fill="#553B92"/>
</g>
<g opacity="0.7">
<path d="M301.662 261.719L310.807 278.202C310.912 278.033 311.072 277.823 311.286 277.572C311.492 277.346 311.715 277.09 311.954 276.803C312.202 276.533 312.433 276.272 312.647 276.02C312.871 275.786 313.04 275.592 313.154 275.44L314.758 278.331C314.612 278.545 314.416 278.831 314.172 279.187C313.911 279.553 313.642 279.946 313.366 280.364C313.089 280.783 312.848 281.204 312.641 281.628C312.417 282.062 312.269 282.432 312.195 282.738L309.152 284.426L297.757 263.885L301.662 261.719ZM288.668 268.463C290.037 267.704 291.268 267.352 292.361 267.409C293.446 267.493 294.424 267.901 295.295 268.634C296.176 269.383 296.953 270.367 297.629 271.584L298.037 272.32L294.131 274.486C294.113 274.452 294.061 274.359 293.977 274.207C293.902 274.072 293.827 273.937 293.751 273.801C293.369 273.151 293.013 272.63 292.685 272.237C292.349 271.871 292.002 271.644 291.643 271.555C291.285 271.467 290.885 271.544 290.446 271.788C289.989 272.041 289.712 272.339 289.614 272.681C289.526 273.039 289.561 273.462 289.721 273.948C289.88 274.435 290.138 274.999 290.494 275.642C291.066 276.673 291.659 277.383 292.273 277.772C292.896 278.178 293.669 278.136 294.591 277.647C294.608 277.637 294.693 277.59 294.845 277.506C294.997 277.422 295.141 277.342 295.276 277.267L296.88 280.158C296.778 280.214 296.677 280.27 296.576 280.327C296.457 280.392 296.356 280.449 296.271 280.495C295.358 281.002 294.877 281.589 294.828 282.258C294.762 282.936 295.02 283.799 295.601 284.847C296.051 285.658 296.521 286.227 297.011 286.552C297.501 286.877 298.067 286.861 298.71 286.505C299.352 286.149 299.634 285.66 299.556 285.041C299.477 284.421 299.226 283.709 298.802 282.905C298.727 282.77 298.643 282.618 298.549 282.449C298.464 282.297 298.38 282.144 298.296 281.992L302.201 279.826L302.82 280.942C303.486 282.142 303.829 283.278 303.849 284.35C303.878 285.44 303.609 286.429 303.041 287.319C302.474 288.209 301.607 288.977 300.44 289.624C299.274 290.271 298.159 290.613 297.096 290.65C296.033 290.687 295.065 290.417 294.193 289.84C293.303 289.272 292.525 288.388 291.859 287.188C291.193 285.988 290.893 284.85 290.96 283.774C291.009 282.707 291.336 281.862 291.941 281.239C291.341 281.352 290.738 281.321 290.133 281.148C289.529 280.975 288.934 280.62 288.348 280.082C287.772 279.562 287.216 278.82 286.682 277.856C285.997 276.622 285.565 275.424 285.386 274.264C285.215 273.12 285.386 272.053 285.897 271.062C286.409 270.07 287.332 269.204 288.668 268.463Z" fill="#553B92"/>
</g>
<g opacity="0.7">
<path d="M244.942 309.712L257.644 317.597C257.651 317.439 257.681 317.232 257.732 316.975C257.788 316.739 257.843 316.476 257.898 316.184C257.965 315.901 258.025 315.631 258.076 315.375C258.14 315.126 258.182 314.926 258.203 314.777L260.431 316.16C260.412 316.364 260.387 316.638 260.355 316.979C260.316 317.333 260.281 317.709 260.252 318.106C260.222 318.502 260.217 318.888 260.238 319.261C260.251 319.648 260.291 319.962 260.358 320.202L258.902 322.547L243.074 312.722L244.942 309.712ZM238.581 319.479C239.188 318.502 239.823 317.814 240.486 317.414C241.163 317.021 241.882 316.881 242.643 316.992C243.417 317.112 244.24 317.443 245.113 317.984C245.152 318.009 245.191 318.033 245.23 318.057C245.269 318.081 245.308 318.106 245.347 318.13L243.576 320.983C242.912 320.571 242.377 320.328 241.97 320.257C241.555 320.198 241.19 320.422 240.875 320.93C240.681 321.243 240.629 321.545 240.719 321.835C240.81 322.126 241.069 322.449 241.498 322.806C241.926 323.162 242.538 323.587 243.332 324.08L244.954 325.087C244.781 324.727 244.725 324.322 244.787 323.873C244.849 323.424 245.015 322.968 245.285 322.504C245.798 321.649 246.42 321.097 247.153 320.848C247.898 320.607 248.698 320.598 249.552 320.821C250.397 321.057 251.257 321.446 252.13 321.988C253.211 322.659 254.064 323.378 254.689 324.145C255.314 324.912 255.654 325.746 255.708 326.646C255.755 327.559 255.459 328.53 254.82 329.56C254.197 330.563 253.477 331.243 252.659 331.602C251.854 331.968 250.985 332.061 250.051 331.878C249.118 331.696 248.143 331.289 247.127 330.658L241.362 327.08C240.333 326.441 239.481 325.75 238.805 325.006C238.13 324.262 237.748 323.438 237.659 322.535C237.57 321.631 237.878 320.613 238.581 319.479ZM247.07 324.776C246.884 325.075 246.812 325.365 246.855 325.644C246.903 325.945 246.973 326.196 247.065 326.397L249.586 327.962C249.99 328.212 250.381 328.41 250.76 328.555C251.139 328.7 251.486 328.753 251.799 328.713C252.113 328.673 252.371 328.49 252.573 328.165C252.775 327.839 252.818 327.523 252.702 327.216C252.585 326.909 252.345 326.598 251.982 326.282C251.61 325.979 251.138 325.65 250.565 325.294C250.031 324.962 249.543 324.687 249.102 324.467C248.661 324.247 248.274 324.143 247.943 324.154C247.603 324.177 247.312 324.385 247.07 324.776Z" fill="#553B92"/>
</g>
<g opacity="0.7">
<path d="M86.2811 276.894L83.8029 277.273L76.2291 273.848C75.6628 273.593 75.1227 273.358 74.6088 273.141C74.0925 272.91 73.578 272.741 73.0652 272.633C72.5348 272.512 71.9893 272.495 71.4285 272.581C70.8373 272.671 70.4076 272.853 70.1392 273.127C69.8557 273.403 69.7463 273.753 69.8112 274.177C69.8808 274.632 70.0629 274.961 70.3577 275.164C70.6373 275.37 70.9886 275.487 71.4118 275.515C71.8349 275.543 72.289 275.52 72.7741 275.446L73.638 275.314L74.163 278.747L73.2536 278.886C72.1622 279.053 71.1667 279.035 70.2669 278.831C69.3648 278.612 68.6232 278.175 68.0421 277.519C67.4435 276.851 67.0526 275.918 66.8695 274.72C66.6215 273.099 66.8593 271.814 67.583 270.865C68.3066 269.917 69.4339 269.326 70.9648 269.092C71.7075 268.978 72.4145 268.986 73.0859 269.116C73.7421 269.249 74.3947 269.459 75.0438 269.748C75.6754 270.023 76.3343 270.326 77.0207 270.655L82.9059 273.385L82.0681 267.906L84.8418 267.482L86.2811 276.894Z" fill="#553B92"/>
</g>
<g opacity="0.7">
<path d="M250.149 105.899L256.789 85.5792L250.178 85.0827L250.443 81.5527L261.572 82.3884L261.342 85.4398L254.636 106.236L250.149 105.899Z" fill="#553B92"/>
</g>
<g opacity="0.7">
<path d="M122.337 155.772L99.8715 134.121C99.7868 134.439 99.636 134.85 99.419 135.351C99.2011 135.808 98.9729 136.322 98.7345 136.892C98.473 137.44 98.2338 137.965 98.0167 138.467C97.7767 138.946 97.6028 139.334 97.4951 139.63L93.555 135.833C93.6833 135.423 93.8542 134.877 94.0679 134.194C94.3038 133.488 94.5389 132.737 94.7731 131.941C95.0074 131.144 95.1853 130.36 95.3068 129.589C95.4506 128.794 95.5063 128.136 95.4741 127.616L99.4711 123.469L127.466 150.449L122.337 155.772ZM131.985 145.761L128.217 142.13L124.307 125.229C124.012 123.967 123.718 122.773 123.426 121.647C123.156 120.498 122.785 119.43 122.315 118.442C121.843 117.41 121.181 116.483 120.328 115.662C119.43 114.796 118.583 114.313 117.789 114.215C116.972 114.094 116.253 114.356 115.631 115.001C114.965 115.693 114.65 116.411 114.687 117.158C114.7 117.881 114.951 118.612 115.44 119.35C115.929 120.088 116.542 120.812 117.279 121.523L118.593 122.788L113.563 128.007L112.181 126.675C110.522 125.076 109.291 123.402 108.489 121.651C107.71 119.878 107.496 118.094 107.848 116.299C108.198 114.46 109.251 112.63 111.005 110.81C113.381 108.344 115.814 107.111 118.303 107.11C120.793 107.11 123.201 108.231 125.528 110.473C126.657 111.562 127.539 112.745 128.174 114.023C128.785 115.279 129.263 116.628 129.606 118.07C129.949 119.467 130.282 120.943 130.605 122.499L133.53 135.718L141.558 127.389L145.774 131.452L131.985 145.761Z" fill="#553B92"/>
</g>
<g opacity="0.7">
<path d="M167.045 82.7968L175.711 65.3286C175.506 65.3381 175.233 65.3256 174.893 65.2908C174.58 65.2471 174.231 65.2079 173.846 65.1733C173.47 65.1208 173.112 65.0772 172.772 65.0425C172.441 64.9898 172.177 64.9594 171.98 64.951L173.5 61.8874C173.769 61.8865 174.126 61.8854 174.574 61.884C175.039 61.8916 175.531 61.89 176.049 61.8795C176.568 61.8689 177.069 61.8271 177.552 61.7541C178.052 61.6899 178.455 61.5992 178.758 61.482L181.983 63.082L171.183 84.8501L167.045 82.7968ZM180.85 90.115C179.542 89.4661 178.591 88.6596 177.998 87.6955C177.405 86.7313 177.124 85.6767 177.156 84.5318C177.198 83.3689 177.525 82.1693 178.138 80.9331L182.978 71.1778C183.609 69.9058 184.366 68.8972 185.25 68.1521C186.142 67.389 187.151 66.9521 188.278 66.8413C189.404 66.7305 190.64 67.0084 191.983 67.6751C193.309 68.3329 194.26 69.1394 194.835 70.0947C195.428 71.0588 195.691 72.1268 195.623 73.2988C195.564 74.4528 195.219 75.6658 194.588 76.9378L189.748 86.6931C189.134 87.9294 188.377 88.9156 187.476 89.6518C186.584 90.3701 185.575 90.7847 184.448 90.8955C183.321 91.0063 182.122 90.7461 180.85 90.115ZM182.663 86.4601C183.147 86.7001 183.572 86.7212 183.938 86.5233C184.304 86.3254 184.625 86.0382 184.901 85.6616C185.186 85.2672 185.418 84.8908 185.595 84.5325L190.355 74.9384C190.551 74.5443 190.72 74.1144 190.861 73.6489C191.021 73.1922 191.069 72.7583 191.005 72.347C190.95 71.9179 190.672 71.5789 190.17 71.33C189.668 71.0811 189.221 71.0601 188.828 71.267C188.462 71.465 188.136 71.7611 187.851 72.1556C187.584 72.5589 187.353 72.9576 187.157 73.3518L182.397 82.9458C182.22 83.3042 182.06 83.7161 181.918 84.1816C181.785 84.6293 181.76 85.0631 181.842 85.4833C181.924 85.9034 182.197 86.229 182.663 86.4601Z" fill="#553B92"/>
</g>
<defs>
<filter id="filter0_d_17_626" x="151.87" y="173.435" width="65.8735" height="65.3916" filterUnits="userSpaceOnUse" color-interpolation-filters="sRGB">
<feFlood flood-opacity="0" result="BackgroundImageFix"/>
<feColorMatrix in="SourceAlpha" type="matrix" values="0 0 0 0 0 0 0 0 0 0 0 0 0 0 0 0 0 0 127 0" result="hardAlpha"/>
<feOffset/>
<feComposite in2="hardAlpha" operator="out"/>
<feColorMatrix type="matrix" values="0 0 0 0 0.264705 0 0 0 0 0.318651 0 0 0 0 0.804167 0 0 0 0.8 0"/>
<feBlend mode="normal" in2="BackgroundImageFix" result="effect1_dropShadow_17_626"/>
<feBlend mode="normal" in="SourceGraphic" in2="effect1_dropShadow_17_626" result="shape"/>
</filter>
</defs>
</svg>
