<svg width="378" height="642" viewBox="0 0 378 642" fill="none" xmlns="http://www.w3.org/2000/svg">
<path d="M354.922 160.459L230.843 38.1787L67.0765 83.3313L23.4655 246.09L142.327 368.525L311.311 323.218L354.922 160.459Z" fill="#F5F5FA" stroke="#553B92" stroke-width="10"/>
<path d="M213.373 103.379L262.042 288.793M213.373 103.379L354.922 160.459M213.373 103.379L230.843 38.1787M213.373 103.379L67.0765 83.3313M213.373 103.379L79.4824 239.876M262.042 288.793L354.922 160.459M262.042 288.793L79.4824 239.876M262.042 288.793L142.327 368.525M262.042 288.793L311.311 323.218M354.922 160.459L230.843 38.1787M354.922 160.459L311.311 323.218M230.843 38.1787L67.0765 83.3313M311.311 323.218L142.327 368.525M142.327 368.525L23.4655 246.09M142.327 368.525L79.4824 239.876M23.4655 246.09L67.0765 83.3313M23.4655 246.09L79.4824 239.876M67.0765 83.3313L79.4824 239.876" stroke="#553B92" stroke-width="10"/>
<circle cx="213.114" cy="104.344" r="9.5" transform="rotate(15 213.114 104.344)" stroke="#553B92" stroke-width="6"/>
<circle cx="261.465" cy="287.087" r="9.5" transform="rotate(15 261.465 287.087)" stroke="#553B92" stroke-width="6"/>
<circle cx="80.8369" cy="238.684" r="9.5" transform="rotate(15 80.8369 238.684)" stroke="#553B92" stroke-width="6"/>
<g filter="url(#filter0_d_17_227)">
<path d="M178.006 232.004C174.503 231.065 171.995 229.708 170.483 227.934C168.971 226.159 168.173 224.024 168.091 221.529C168.05 219.044 168.444 216.256 169.272 213.165L178.483 215.633C177.997 217.447 177.692 218.999 177.566 220.291C177.482 221.593 177.646 222.631 178.057 223.404C178.51 224.188 179.339 224.719 180.546 224.998C181.752 225.277 182.739 225.056 183.506 224.334C184.274 223.612 184.935 222.464 185.489 220.89C186.044 219.316 186.613 217.436 187.199 215.252C187.674 213.48 187.99 211.886 188.148 210.471C188.307 209.056 188.182 207.874 187.773 206.925C187.406 205.988 186.605 205.353 185.368 205.022C184.255 204.724 183.223 204.867 182.272 205.451C181.361 206.046 180.548 207.021 179.832 208.375L171.671 206.189L179.971 177.934L202.968 184.096L200.765 192.318L185.619 188.26L182.098 199.176C182.758 198.69 183.726 198.376 185.001 198.231C186.318 198.098 187.667 198.173 189.049 198.455C191.712 198.903 193.722 199.972 195.081 201.661C196.481 203.361 197.267 205.538 197.439 208.19C197.623 210.801 197.251 213.838 196.324 217.3C195.617 219.937 194.795 222.345 193.858 224.524C192.932 226.661 191.774 228.427 190.385 229.821C189.006 231.174 187.309 232.067 185.294 232.499C183.279 232.931 180.85 232.766 178.006 232.004Z" fill="#553B92"/>
</g>
<g opacity="0.7">
<path d="M70.6899 219.669L51.6684 223.963C51.8056 224.116 51.968 224.336 52.1555 224.622C52.3191 224.892 52.5088 225.188 52.7246 225.508C52.921 225.833 53.1129 226.138 53.3004 226.424C53.4684 226.714 53.6112 226.938 53.7289 227.096L50.3928 227.849C50.2229 227.641 49.9964 227.364 49.7132 227.018C49.4257 226.653 49.1142 226.272 48.7788 225.876C48.4434 225.48 48.0951 225.118 47.7339 224.789C47.3683 224.441 47.0442 224.186 46.7617 224.025L45.969 220.513L69.6727 215.163L70.6899 219.669ZM67.5727 204.36C67.9117 205.863 67.8575 207.167 67.41 208.272C66.9385 209.363 66.1682 210.265 65.0989 210.977C64.0252 211.671 62.7373 212.187 61.2351 212.526L52.8071 214.429C51.2659 214.776 49.8411 214.914 48.5328 214.84C47.22 214.747 46.109 214.321 45.1997 213.562C44.2904 212.804 43.6442 211.576 43.2611 209.879C42.9308 208.416 42.9029 207.202 43.1774 206.238C43.4279 205.259 43.9579 204.473 44.7672 203.88C45.5766 203.287 46.6348 202.843 47.9419 202.548C48.0004 202.535 48.0687 202.52 48.1467 202.502C48.2009 202.469 48.2572 202.446 48.3157 202.433L49.2801 206.706C48.2852 206.93 47.5658 207.195 47.1221 207.5C46.6784 207.805 46.5403 208.329 46.7076 209.07C46.8133 209.538 47.0433 209.876 47.3976 210.083C47.7475 210.271 48.2868 210.344 49.0155 210.302C49.7204 210.246 50.6776 210.081 51.8871 209.808L54.316 209.26C53.8296 209.103 53.4098 208.787 53.0568 208.314C52.6994 207.82 52.4317 207.224 52.2537 206.527C51.9328 205.287 51.9911 204.228 52.4286 203.35C52.8421 202.457 53.5382 201.726 54.5168 201.156C55.4759 200.591 56.609 200.161 57.9162 199.866C59.5159 199.505 60.9841 199.379 62.3208 199.487C63.6574 199.596 64.7826 200.039 65.6963 200.817C66.5861 201.579 67.2116 202.761 67.5727 204.36ZM64.1941 205.061C64.084 204.574 63.8367 204.25 63.4522 204.091C63.0633 203.912 62.5577 203.852 61.9353 203.911C61.3085 203.95 60.5659 204.066 59.7075 204.26C58.8881 204.445 58.1826 204.635 57.591 204.83C56.9755 205.01 56.5208 205.266 56.2269 205.599C55.933 205.932 55.8521 206.391 55.9842 206.976C56.0459 207.249 56.1638 207.499 56.3381 207.727C56.4885 207.939 56.6713 208.113 56.8866 208.249C57.0823 208.389 57.2789 208.488 57.4765 208.546L61.2515 207.694C61.8368 207.562 62.3818 207.388 62.8865 207.171C63.3674 206.94 63.733 206.652 63.9835 206.308C64.234 205.965 64.3042 205.549 64.1941 205.061Z" fill="#553B92"/>
</g>
<g opacity="0.7">
<path d="M164.766 289.098C167.084 289.72 168.844 290.572 170.044 291.656C171.236 292.77 171.951 294.121 172.188 295.709C172.417 297.327 172.254 299.172 171.699 301.243C171.674 301.335 171.65 301.428 171.625 301.521C171.6 301.614 171.575 301.706 171.55 301.799L164.781 299.985C165.203 298.409 165.363 297.193 165.261 296.337C165.128 295.473 164.459 294.88 163.254 294.557C162.512 294.358 161.878 294.437 161.352 294.793C160.826 295.149 160.337 295.862 159.884 296.934C159.431 298.005 158.952 299.483 158.447 301.369L157.416 305.217C158.031 304.653 158.805 304.297 159.739 304.15C160.673 304.003 161.685 304.059 162.775 304.318C164.793 304.825 166.272 305.735 167.212 307.047C168.144 308.39 168.645 309.982 168.715 311.823C168.754 313.655 168.496 315.607 167.941 317.678C167.254 320.244 166.333 322.382 165.179 324.094C164.024 325.805 162.565 326.988 160.799 327.641C159.003 328.286 156.884 328.282 154.442 327.627C152.062 326.989 150.267 325.962 149.057 324.544C147.838 323.158 147.129 321.477 146.929 319.502C146.73 317.527 146.953 315.334 147.599 312.923L151.264 299.245C151.918 296.804 152.784 294.684 153.862 292.885C154.941 291.087 156.355 289.826 158.106 289.103C159.857 288.379 162.077 288.378 164.766 289.098ZM159.316 309.254C158.605 309.064 157.983 309.096 157.451 309.351C156.88 309.629 156.421 309.92 156.074 310.225L154.471 316.206C154.215 317.164 154.056 318.065 153.995 318.91C153.934 319.756 154.039 320.479 154.308 321.081C154.577 321.684 155.098 322.088 155.871 322.295C156.644 322.502 157.301 322.397 157.844 321.979C158.387 321.561 158.864 320.894 159.275 319.977C159.655 319.052 160.028 317.91 160.392 316.55C160.732 315.282 160.988 314.142 161.16 313.128C161.332 312.114 161.307 311.279 161.086 310.623C160.833 309.959 160.243 309.503 159.316 309.254Z" fill="#553B92"/>
</g>
<g opacity="0.7">
<path d="M267.441 184.887C266.591 182.473 266.378 180.376 266.804 178.598C267.259 176.809 268.236 175.295 269.733 174.055C271.241 172.845 273.096 171.853 275.3 171.077C276.296 170.726 277.263 170.487 278.202 170.36C279.142 170.233 280.037 170.223 280.889 170.33C281.741 170.437 282.529 170.651 283.253 170.973C284.018 171.314 284.709 171.784 285.326 172.38C285.7 171.129 286.403 169.898 287.435 168.686C288.508 167.494 290.05 166.527 292.062 165.785C294.073 165.042 295.926 164.763 297.619 164.947C299.342 165.12 300.841 165.763 302.115 166.875C303.388 167.987 304.387 169.57 305.109 171.622C305.843 173.705 306.056 175.563 305.75 177.198C305.454 178.863 304.684 180.287 303.438 181.472C302.224 182.647 300.6 183.575 298.567 184.257C296.504 184.949 294.68 185.167 293.097 184.91C291.555 184.673 290.256 184.164 289.2 183.382C289.093 184.234 288.843 185.018 288.451 185.733C288.099 186.467 287.624 187.143 287.027 187.761C286.431 188.378 285.726 188.931 284.915 189.42C284.114 189.94 283.215 190.375 282.219 190.726C280.037 191.562 277.969 191.951 276.015 191.893C274.071 191.865 272.361 191.297 270.885 190.188C269.45 189.099 268.302 187.332 267.441 184.887ZM272.647 183.054C272.956 183.929 273.486 184.472 274.239 184.682C274.991 184.892 275.826 184.903 276.744 184.715C277.662 184.528 278.528 184.291 279.343 184.004C280.32 183.694 281.234 183.304 282.086 182.834C282.949 182.394 283.593 181.862 284.018 181.238C284.443 180.613 284.501 179.863 284.193 178.988C283.895 178.143 283.38 177.595 282.647 177.344C281.924 177.124 281.084 177.097 280.125 177.265C279.208 177.453 278.251 177.722 277.255 178.073C276.44 178.36 275.601 178.723 274.738 179.163C273.905 179.592 273.261 180.124 272.806 180.759C272.392 181.413 272.339 182.178 272.647 183.054ZM289.897 176.979C290.11 177.583 290.506 177.986 291.086 178.189C291.677 178.422 292.427 178.48 293.336 178.363C294.245 178.247 295.273 177.987 296.42 177.583C297.718 177.126 298.685 176.548 299.321 175.849C299.997 175.169 300.176 174.377 299.858 173.472C299.539 172.566 298.892 172.03 297.918 171.865C296.984 171.718 295.883 171.869 294.616 172.315C293.469 172.719 292.484 173.15 291.662 173.61C290.881 174.088 290.333 174.604 290.018 175.155C289.714 175.737 289.674 176.345 289.897 176.979Z" fill="#553B92"/>
</g>
<g opacity="0.7">
<path d="M302.099 261.477L311.244 277.96C311.349 277.791 311.509 277.581 311.723 277.329C311.929 277.104 312.152 276.848 312.391 276.561C312.639 276.291 312.87 276.03 313.084 275.778C313.308 275.544 313.477 275.35 313.592 275.198L315.195 278.089C315.049 278.303 314.853 278.588 314.609 278.945C314.348 279.311 314.079 279.703 313.803 280.122C313.526 280.541 313.285 280.962 313.078 281.386C312.854 281.82 312.706 282.19 312.632 282.496L309.589 284.184L298.194 263.643L302.099 261.477ZM289.082 268.3C290.435 267.55 291.662 267.212 292.764 267.285C293.876 267.376 294.876 267.805 295.766 268.572C296.639 269.348 297.417 270.353 298.102 271.587C298.412 272.145 298.652 272.697 298.822 273.244C298.993 273.79 299.089 274.323 299.111 274.841C299.134 275.359 299.085 275.85 298.967 276.314C298.841 276.804 298.631 277.263 298.338 277.691C299.121 277.787 299.925 278.082 300.751 278.574C301.57 279.093 302.302 279.914 302.947 281.037C303.592 282.161 303.945 283.236 304.007 284.263C304.078 285.307 303.846 286.265 303.312 287.136C302.778 288.007 301.937 288.761 300.787 289.399C299.621 290.046 298.535 290.361 297.53 290.343C296.509 290.335 295.582 290.02 294.751 289.398C293.929 288.793 293.212 287.919 292.6 286.777C291.98 285.618 291.666 284.554 291.659 283.585C291.644 282.643 291.817 281.817 292.176 281.11C291.657 281.132 291.165 281.062 290.7 280.9C290.227 280.765 289.776 280.55 289.348 280.257C288.92 279.964 288.519 279.6 288.146 279.166C287.756 278.742 287.406 278.251 287.096 277.693C286.378 276.477 285.937 275.285 285.775 274.115C285.595 272.954 285.761 271.878 286.272 270.887C286.776 269.922 287.713 269.06 289.082 268.3ZM290.7 271.216C290.21 271.488 289.94 271.859 289.891 272.328C289.842 272.798 289.919 273.297 290.124 273.824C290.328 274.352 290.557 274.844 290.81 275.301C291.093 275.851 291.418 276.356 291.784 276.817C292.133 277.286 292.515 277.616 292.93 277.806C293.345 277.996 293.797 277.955 294.287 277.683C294.761 277.42 295.035 277.058 295.111 276.596C295.169 276.144 295.1 275.64 294.903 275.086C294.699 274.558 294.442 274.016 294.132 273.458C293.879 273.001 293.578 272.538 293.229 272.069C292.889 271.616 292.507 271.286 292.083 271.079C291.651 270.899 291.19 270.944 290.7 271.216ZM296.06 280.878C295.722 281.066 295.522 281.343 295.46 281.709C295.38 282.084 295.422 282.537 295.583 283.066C295.744 283.596 296.003 284.182 296.359 284.825C296.762 285.552 297.204 286.069 297.685 286.377C298.158 286.712 298.648 286.738 299.155 286.457C299.662 286.176 299.916 285.737 299.916 285.139C299.909 284.568 299.709 283.928 299.315 283.218C298.958 282.576 298.602 282.033 298.245 281.589C297.881 281.172 297.519 280.898 297.159 280.766C296.781 280.644 296.415 280.681 296.06 280.878Z" fill="#553B92"/>
</g>
<g opacity="0.7">
<path d="M243.518 312.006L245.648 313.328L249.179 320.853C249.444 321.415 249.702 321.945 249.952 322.443C250.194 322.954 250.475 323.418 250.795 323.833C251.12 324.269 251.523 324.637 252.005 324.936C252.513 325.251 252.958 325.392 253.34 325.358C253.735 325.333 254.046 325.138 254.272 324.773C254.515 324.382 254.59 324.014 254.498 323.668C254.419 323.33 254.228 323.013 253.925 322.716C253.621 322.42 253.261 322.142 252.844 321.883L252.102 321.422L253.933 318.472L254.715 318.957C255.653 319.539 256.398 320.2 256.95 320.939C257.493 321.692 257.773 322.506 257.788 323.382C257.809 324.279 257.5 325.242 256.861 326.272C255.996 327.665 254.98 328.488 253.814 328.738C252.648 328.989 251.407 328.706 250.091 327.889C249.452 327.493 248.92 327.027 248.494 326.492C248.082 325.965 247.722 325.381 247.416 324.74C247.115 324.12 246.811 323.462 246.503 322.766L243.803 316.867L240.88 321.576L238.496 320.096L243.518 312.006Z" fill="#553B92"/>
</g>
<g opacity="0.7">
<path d="M85.8036 272.099C85.982 273.266 85.8704 274.26 85.4686 275.082C85.0494 275.89 84.4117 276.538 83.5556 277.026C82.6971 277.499 81.6843 277.824 80.5172 278.002L73.9694 279.004C72.7719 279.187 71.6749 279.215 70.6783 279.088C69.6794 278.946 68.8526 278.561 68.198 277.932C67.5434 277.303 67.1153 276.329 66.9137 275.01C66.7398 273.874 66.7838 272.944 67.0456 272.221C67.2899 271.486 67.7375 270.913 68.3884 270.504C69.0393 270.094 69.8725 269.811 70.888 269.656C70.9335 269.649 70.9865 269.641 71.0471 269.632C71.0903 269.61 71.1346 269.595 71.1801 269.588L71.6877 272.908C70.9146 273.026 70.3503 273.19 69.9945 273.399C69.6388 273.609 69.5049 274.001 69.593 274.577C69.6486 274.941 69.8063 275.212 70.0661 275.389C70.3236 275.551 70.7322 275.636 71.2917 275.644C71.8338 275.639 72.5747 275.564 73.5145 275.42L75.4015 275.132C75.0379 274.986 74.7339 274.722 74.4895 274.341C74.2427 273.944 74.07 273.474 73.9714 272.931C73.7927 271.965 73.8943 271.159 74.2761 270.511C74.6404 269.85 75.2121 269.328 75.9912 268.946C76.7552 268.565 77.6449 268.297 78.6604 268.142C79.9033 267.952 81.0329 267.934 82.0494 268.089C83.0658 268.244 83.9024 268.643 84.5593 269.287C85.1988 269.919 85.6135 270.856 85.8036 272.099ZM83.182 272.453C83.1241 272.074 82.9524 271.813 82.6669 271.671C82.3791 271.513 81.9956 271.44 81.5165 271.451C81.035 271.447 80.4608 271.496 79.7939 271.598C79.1573 271.696 78.6075 271.803 78.1446 271.92C77.6642 272.025 77.3027 272.196 77.06 272.435C76.8173 272.674 76.7307 273.021 76.8002 273.475C76.8327 273.688 76.9094 273.885 77.0305 274.068C77.1341 274.239 77.2645 274.382 77.4218 274.497C77.5639 274.615 77.709 274.701 77.857 274.756L80.7899 274.308C81.2446 274.238 81.6708 274.134 82.0685 273.996C82.4486 273.845 82.7438 273.645 82.9538 273.395C83.1639 273.146 83.24 272.832 83.182 272.453Z" fill="#553B92"/>
</g>
<g opacity="0.7">
<path d="M252.706 105.945L254.166 86.4997C253.979 86.5859 253.722 86.6769 253.394 86.7726C253.087 86.8499 252.749 86.9448 252.38 87.0575C252.012 87.1502 251.664 87.2444 251.336 87.3401C251.009 87.4158 250.753 87.4868 250.567 87.5531L250.824 84.1427C251.072 84.0411 251.403 83.9055 251.817 83.736C252.251 83.568 252.706 83.3816 253.182 83.1767C253.659 82.9718 254.107 82.7447 254.527 82.4955C254.967 82.2477 255.306 82.0124 255.543 81.7896L259.133 82.0592L257.313 106.291L252.706 105.945Z" fill="#553B92"/>
</g>
<g opacity="0.7">
<path d="M132.736 145.95C131.115 147.632 129.425 148.693 127.668 149.133C125.911 149.573 124.167 149.492 122.436 148.89C120.682 148.266 119.01 147.188 117.42 145.656L104.874 133.565C103.238 131.988 102.065 130.346 101.355 128.64C100.621 126.91 100.442 125.16 100.816 123.388C101.191 121.616 102.211 119.865 103.876 118.137C105.52 116.432 107.209 115.371 108.944 114.955C110.701 114.515 112.457 114.629 114.212 115.299C115.944 115.946 117.628 117.057 119.263 118.634L131.809 130.725C133.399 132.257 134.538 133.888 135.227 135.618C135.892 137.326 136.037 139.066 135.662 140.838C135.288 142.61 134.312 144.314 132.736 145.95ZM128.035 141.42C128.635 140.798 128.872 140.16 128.747 139.506C128.621 138.852 128.338 138.224 127.897 137.621C127.433 136.996 126.97 136.461 126.51 136.017L114.171 124.126C113.664 123.637 113.09 123.172 112.448 122.732C111.828 122.268 111.189 121.985 110.531 121.884C109.85 121.761 109.199 122.022 108.577 122.667C107.955 123.312 107.707 123.985 107.833 124.684C107.958 125.338 108.253 125.977 108.717 126.603C109.204 127.205 109.7 127.75 110.207 128.238L122.546 140.13C123.007 140.574 123.558 141.016 124.2 141.457C124.819 141.876 125.468 142.124 126.149 142.202C126.829 142.28 127.458 142.019 128.035 141.42Z" fill="#553B92"/>
</g>
<g opacity="0.7">
<path d="M175.653 85.3126C174.31 84.6459 173.337 83.9065 172.735 83.0944C172.142 82.2645 171.871 81.3485 171.922 80.3466C171.981 79.3267 172.309 78.2166 172.904 77.0163C172.931 76.9625 172.958 76.9088 172.984 76.855C173.011 76.8013 173.038 76.7475 173.064 76.6938L176.988 78.6404C176.535 79.5542 176.286 80.2794 176.243 80.8162C176.218 81.3619 176.555 81.8081 177.254 82.1547C177.684 82.3681 178.082 82.3981 178.448 82.245C178.814 82.0918 179.202 81.7149 179.612 81.1144C180.021 80.5138 180.497 79.6671 181.039 78.5742L182.146 76.3437C181.7 76.6134 181.181 76.7358 180.591 76.7107C180.001 76.6857 179.387 76.5266 178.751 76.2334C177.578 75.6736 176.784 74.9337 176.37 74.0137C175.964 73.0758 175.854 72.0386 176.038 70.9021C176.24 69.7745 176.639 68.6105 177.235 67.4101C177.973 65.9231 178.801 64.7264 179.719 63.8202C180.638 62.914 181.678 62.3696 182.84 62.1872C184.02 62.0136 185.318 62.2779 186.734 62.9801C188.113 63.6646 189.086 64.5157 189.653 65.5336C190.228 66.5336 190.455 67.651 190.334 68.8857C190.213 70.1203 189.805 71.4364 189.112 72.8339L185.179 80.7618C184.476 82.1771 183.684 83.3692 182.801 84.3379C181.919 85.3066 180.897 85.9046 179.735 86.1318C178.573 86.359 177.212 86.0859 175.653 85.3126ZM181.48 73.6356C181.892 73.8401 182.277 73.897 182.635 73.8065C183.019 73.7069 183.336 73.5852 183.586 73.4413L185.306 69.9745C185.582 69.4191 185.79 68.8863 185.932 68.376C186.073 67.8658 186.099 67.4095 186.008 67.0073C185.917 66.6051 185.648 66.2929 185.2 66.0706C184.752 65.8484 184.336 65.8318 183.952 66.0208C183.568 66.2099 183.194 66.5598 182.829 67.0708C182.481 67.5906 182.112 68.2447 181.721 69.033C181.357 69.7676 181.059 70.4349 180.828 71.0348C180.598 71.6348 180.51 72.1494 180.565 72.5786C180.638 73.0166 180.943 73.369 181.48 73.6356Z" fill="#553B92"/>
</g>
<defs>
<filter id="filter0_d_17_227" x="165.147" y="177.619" width="39.9221" height="57.979" filterUnits="userSpaceOnUse" color-interpolation-filters="sRGB">
<feFlood flood-opacity="0" result="BackgroundImageFix"/>
<feColorMatrix in="SourceAlpha" type="matrix" values="0 0 0 0 0 0 0 0 0 0 0 0 0 0 0 0 0 0 127 0" result="hardAlpha"/>
<feOffset/>
<feComposite in2="hardAlpha" operator="out"/>
<feColorMatrix type="matrix" values="0 0 0 0 0.264705 0 0 0 0 0.318651 0 0 0 0 0.804167 0 0 0 0.8 0"/>
<feBlend mode="normal" in2="BackgroundImageFix" result="effect1_dropShadow_17_227"/>
<feBlend mode="normal" in="SourceGraphic" in2="effect1_dropShadow_17_227" result="shape"/>
</filter>
</defs>
</svg>
