<svg width="685" height="1199" viewBox="0 0 685 1199" fill="none" xmlns="http://www.w3.org/2000/svg">
<path d="M507.922 160.459L383.843 38.1787L220.077 83.3313L176.466 246.09L295.327 368.525L464.311 323.218L507.922 160.459Z" fill="#F5F5FA" stroke="#553B92" stroke-width="10"/>
<path d="M366.373 103.379L415.042 288.793M366.373 103.379L507.922 160.459M366.373 103.379L383.843 38.1787M366.373 103.379L220.077 83.3313M366.373 103.379L232.482 239.876M415.042 288.793L507.922 160.459M415.042 288.793L232.482 239.876M415.042 288.793L295.327 368.525M415.042 288.793L464.311 323.218M507.922 160.459L383.843 38.1787M507.922 160.459L464.311 323.218M383.843 38.1787L220.077 83.3313M464.311 323.218L295.327 368.525M295.327 368.525L176.466 246.09M295.327 368.525L232.482 239.876M176.466 246.09L220.077 83.3313M176.466 246.09L232.482 239.876M220.077 83.3313L232.482 239.876" stroke="#553B92" stroke-width="10"/>
<circle cx="366.114" cy="104.344" r="9.5" transform="rotate(15 366.114 104.344)" stroke="#553B92" stroke-width="6"/>
<circle cx="414.465" cy="287.087" r="9.5" transform="rotate(15 414.465 287.087)" stroke="#553B92" stroke-width="6"/>
<circle cx="233.837" cy="238.684" r="9.5" transform="rotate(15 233.837 238.684)" stroke="#553B92" stroke-width="6"/>
<g filter="url(#filter0_d_17_626)">
<path d="M312.302 226.064L323.069 185.882C322.643 185.988 322.067 186.077 321.341 186.148C320.668 186.188 319.921 186.253 319.102 186.343C318.294 186.391 317.527 186.451 316.802 186.521C316.087 186.551 315.522 186.598 315.107 186.664L316.995 179.616C317.556 179.502 318.304 179.349 319.239 179.157C320.215 178.977 321.243 178.767 322.323 178.526C323.403 178.286 324.433 177.987 325.412 177.631C326.432 177.286 327.235 176.927 327.821 176.554L335.239 178.542L321.822 228.615L312.302 226.064ZM343.424 235.198C340.127 234.315 337.66 232.969 336.024 231.162C334.399 229.313 333.469 227.098 333.233 224.517C333.038 221.947 333.344 219.158 334.15 216.149C334.514 214.789 334.98 213.545 335.548 212.416C336.115 211.287 336.779 210.294 337.539 209.437C338.298 208.581 339.128 207.875 340.027 207.321C340.979 206.737 342.015 206.33 343.137 206.101C342.042 204.747 341.217 203.046 340.661 200.998C340.158 198.92 340.256 196.494 340.954 193.722C341.653 190.95 342.741 188.701 344.219 186.977C345.708 185.212 347.544 184.047 349.727 183.484C351.91 182.92 354.403 183.014 357.205 183.765C360.049 184.527 362.255 185.692 363.822 187.26C365.431 188.84 366.418 190.761 366.783 193.023C367.16 195.244 366.958 197.73 366.177 200.48C365.385 203.272 364.251 205.442 362.776 206.99C361.353 208.508 359.814 209.553 358.159 210.126C359.016 210.885 359.689 211.751 360.18 212.721C360.723 213.662 361.109 214.693 361.339 215.815C361.569 216.936 361.647 218.128 361.574 219.389C361.542 220.662 361.344 221.978 360.98 223.338C360.256 226.369 359.126 228.937 357.59 231.043C356.095 233.161 354.182 234.613 351.85 235.402C349.571 236.161 346.762 236.093 343.424 235.198ZM345.329 228.089C346.524 228.409 347.52 228.235 348.318 227.565C349.116 226.895 349.757 225.985 350.243 224.834C350.728 223.683 351.119 222.551 351.417 221.438C351.812 220.131 352.072 218.831 352.197 217.539C352.364 216.259 352.263 215.15 351.896 214.212C351.529 213.274 350.748 212.646 349.553 212.325C348.399 212.016 347.408 212.17 346.58 212.788C345.793 213.416 345.131 214.321 344.593 215.502C344.108 216.653 343.683 217.909 343.319 219.269C343.021 220.381 342.789 221.578 342.622 222.858C342.467 224.098 342.567 225.207 342.923 226.186C343.332 227.134 344.133 227.769 345.329 228.089ZM351.64 204.536C352.464 204.757 353.206 204.624 353.866 204.139C354.568 203.664 355.197 202.883 355.753 201.795C356.31 200.708 356.798 199.381 357.217 197.815C357.692 196.042 357.785 194.543 357.495 193.317C357.257 192.061 356.52 191.267 355.284 190.936C354.047 190.605 352.971 190.912 352.055 191.86C351.191 192.776 350.527 194.1 350.063 195.831C349.643 197.397 349.376 198.806 349.262 200.056C349.2 201.276 349.354 202.267 349.724 203.029C350.136 203.802 350.774 204.304 351.64 204.536Z" fill="#553B92"/>
</g>
<g opacity="0.7">
<path d="M221.49 209.925L215.959 211.173L217.584 218.372L214.044 219.171L198.018 216.299L196.829 211.032L211.549 207.709L211.033 205.427L214.486 204.647L215.002 206.93L220.533 205.681L221.49 209.925ZM213.325 215.581L212.506 211.952L202.44 214.225L213.325 215.581Z" fill="#553B92"/>
</g>
<g opacity="0.7">
<path d="M317.599 288.904C320.226 289.608 322.107 290.626 323.241 291.957C324.375 293.288 324.973 294.889 325.035 296.761C325.065 298.624 324.77 300.715 324.149 303.033L317.241 301.182C317.605 299.822 317.834 298.658 317.928 297.689C317.991 296.712 317.869 295.934 317.56 295.354C317.221 294.766 316.599 294.368 315.694 294.158C314.789 293.949 314.049 294.115 313.473 294.657C312.898 295.198 312.402 296.059 311.986 297.24C311.57 298.42 311.143 299.83 310.704 301.468C310.348 302.797 310.11 303.992 309.992 305.054C309.873 306.115 309.967 307.002 310.273 307.713C310.548 308.417 311.15 308.892 312.077 309.141C312.911 309.364 313.686 309.257 314.399 308.819C315.082 308.372 315.692 307.641 316.229 306.626L322.349 308.266L316.125 329.457L298.877 324.835L300.529 318.669L311.889 321.712L314.53 313.525C314.035 313.889 313.309 314.126 312.352 314.234C311.365 314.333 310.353 314.278 309.316 314.066C307.319 313.73 305.811 312.928 304.792 311.661C303.743 310.386 303.153 308.754 303.023 306.765C302.886 304.806 303.165 302.529 303.86 299.932C304.39 297.954 305.007 296.148 305.71 294.514C306.404 292.912 307.272 291.587 308.315 290.541C309.349 289.526 310.621 288.857 312.133 288.533C313.644 288.209 315.466 288.333 317.599 288.904Z" fill="#553B92"/>
</g>
<g opacity="0.7">
<path d="M417.524 174.871L422.459 173.133L439.318 177.222C440.579 177.524 441.777 177.798 442.915 178.042C444.063 178.316 445.184 178.464 446.278 178.486C447.412 178.527 448.537 178.352 449.654 177.958C450.831 177.544 451.642 177.004 452.086 176.339C452.56 175.663 452.649 174.902 452.351 174.057C452.032 173.151 451.531 172.548 450.848 172.245C450.195 171.932 449.429 171.829 448.551 171.935C447.672 172.041 446.75 172.264 445.784 172.604L444.063 173.21L441.656 166.373L443.467 165.736C445.64 164.97 447.689 164.622 449.613 164.691C451.547 164.79 453.238 165.399 454.684 166.518C456.17 167.657 457.333 169.419 458.173 171.803C459.311 175.033 459.321 177.76 458.205 179.985C457.088 182.21 455.006 183.86 451.958 184.933C450.479 185.454 449.026 185.711 447.598 185.705C446.202 185.688 444.782 185.51 443.339 185.17C441.937 184.849 440.468 184.484 438.933 184.075L425.806 180.759L429.649 191.67L424.125 193.615L417.524 174.871Z" fill="#553B92"/>
</g>
<g opacity="0.7">
<path d="M454.662 261.719L463.807 278.202C463.912 278.033 464.072 277.823 464.286 277.572C464.492 277.346 464.715 277.09 464.954 276.803C465.202 276.533 465.433 276.272 465.647 276.02C465.871 275.786 466.04 275.592 466.154 275.44L467.758 278.331C467.612 278.545 467.416 278.831 467.172 279.187C466.911 279.553 466.642 279.946 466.366 280.364C466.089 280.783 465.848 281.204 465.641 281.628C465.417 282.062 465.269 282.432 465.195 282.738L462.152 284.426L450.757 263.885L454.662 261.719ZM441.668 268.463C443.037 267.704 444.268 267.352 445.361 267.409C446.446 267.493 447.424 267.901 448.295 268.634C449.176 269.383 449.953 270.367 450.629 271.584L451.037 272.32L447.131 274.486C447.113 274.452 447.061 274.359 446.977 274.207C446.902 274.072 446.827 273.937 446.751 273.801C446.369 273.151 446.013 272.63 445.685 272.237C445.349 271.871 445.002 271.644 444.643 271.555C444.285 271.467 443.885 271.544 443.446 271.788C442.989 272.041 442.712 272.339 442.614 272.681C442.526 273.039 442.561 273.462 442.721 273.948C442.88 274.435 443.138 274.999 443.494 275.642C444.066 276.673 444.659 277.383 445.273 277.772C445.896 278.178 446.669 278.136 447.591 277.647C447.608 277.637 447.693 277.59 447.845 277.506C447.997 277.422 448.141 277.342 448.276 277.267L449.88 280.158C449.778 280.214 449.677 280.27 449.576 280.327C449.457 280.392 449.356 280.449 449.271 280.495C448.358 281.002 447.877 281.589 447.828 282.258C447.762 282.936 448.02 283.799 448.601 284.847C449.051 285.658 449.521 286.227 450.011 286.552C450.501 286.877 451.067 286.861 451.71 286.505C452.352 286.149 452.634 285.66 452.556 285.041C452.477 284.421 452.226 283.709 451.802 282.905C451.727 282.77 451.643 282.618 451.549 282.449C451.464 282.297 451.38 282.144 451.296 281.992L455.201 279.826L455.82 280.942C456.486 282.142 456.829 283.278 456.849 284.35C456.878 285.44 456.609 286.429 456.041 287.319C455.474 288.209 454.607 288.977 453.44 289.624C452.274 290.271 451.159 290.613 450.096 290.65C449.033 290.687 448.065 290.417 447.193 289.84C446.303 289.272 445.525 288.388 444.859 287.188C444.193 285.988 443.893 284.85 443.96 283.774C444.009 282.707 444.336 281.862 444.941 281.239C444.341 281.352 443.738 281.321 443.133 281.148C442.529 280.975 441.934 280.62 441.348 280.082C440.772 279.562 440.216 278.82 439.682 277.856C438.997 276.622 438.565 275.424 438.386 274.264C438.215 273.12 438.386 272.053 438.897 271.062C439.409 270.07 440.332 269.204 441.668 268.463Z" fill="#553B92"/>
</g>
<g opacity="0.7">
<path d="M397.942 309.712L410.644 317.597C410.651 317.439 410.681 317.232 410.732 316.975C410.788 316.739 410.843 316.476 410.898 316.184C410.965 315.901 411.025 315.631 411.076 315.375C411.14 315.126 411.182 314.926 411.203 314.777L413.431 316.16C413.412 316.364 413.387 316.638 413.355 316.979C413.316 317.333 413.281 317.709 413.252 318.106C413.222 318.502 413.217 318.888 413.238 319.261C413.251 319.648 413.291 319.962 413.358 320.202L411.902 322.547L396.074 312.722L397.942 309.712ZM391.581 319.479C392.188 318.502 392.823 317.814 393.486 317.414C394.163 317.021 394.882 316.881 395.643 316.992C396.417 317.112 397.24 317.443 398.113 317.984C398.152 318.009 398.191 318.033 398.23 318.057C398.269 318.081 398.308 318.106 398.347 318.13L396.576 320.983C395.912 320.571 395.377 320.328 394.97 320.257C394.555 320.198 394.19 320.422 393.875 320.93C393.681 321.243 393.629 321.545 393.719 321.835C393.81 322.126 394.069 322.449 394.498 322.806C394.926 323.162 395.538 323.587 396.332 324.08L397.954 325.087C397.781 324.727 397.725 324.322 397.787 323.873C397.849 323.424 398.015 322.968 398.285 322.504C398.798 321.649 399.42 321.097 400.153 320.848C400.898 320.607 401.698 320.598 402.552 320.821C403.397 321.057 404.257 321.446 405.13 321.988C406.211 322.659 407.064 323.378 407.689 324.145C408.314 324.912 408.654 325.746 408.708 326.646C408.755 327.559 408.459 328.53 407.82 329.56C407.197 330.563 406.477 331.243 405.659 331.602C404.854 331.968 403.985 332.061 403.051 331.878C402.118 331.696 401.143 331.289 400.127 330.658L394.362 327.08C393.333 326.441 392.481 325.75 391.805 325.006C391.13 324.262 390.748 323.438 390.659 322.535C390.57 321.631 390.878 320.613 391.581 319.479ZM400.07 324.776C399.884 325.075 399.812 325.365 399.855 325.644C399.903 325.945 399.973 326.196 400.065 326.397L402.586 327.962C402.99 328.212 403.381 328.41 403.76 328.555C404.139 328.7 404.486 328.753 404.799 328.713C405.113 328.673 405.371 328.49 405.573 328.165C405.775 327.839 405.818 327.523 405.702 327.216C405.585 326.909 405.345 326.598 404.982 326.282C404.61 325.979 404.138 325.65 403.565 325.294C403.031 324.962 402.543 324.687 402.102 324.467C401.661 324.247 401.274 324.143 400.943 324.154C400.603 324.177 400.312 324.385 400.07 324.776Z" fill="#553B92"/>
</g>
<g opacity="0.7">
<path d="M239.281 276.894L236.803 277.273L229.229 273.848C228.663 273.593 228.123 273.358 227.609 273.141C227.093 272.91 226.578 272.741 226.065 272.633C225.535 272.512 224.989 272.495 224.428 272.581C223.837 272.671 223.408 272.853 223.139 273.127C222.856 273.403 222.746 273.753 222.811 274.177C222.881 274.632 223.063 274.961 223.358 275.164C223.637 275.37 223.989 275.487 224.412 275.515C224.835 275.543 225.289 275.52 225.774 275.446L226.638 275.314L227.163 278.747L226.254 278.886C225.162 279.053 224.167 279.035 223.267 278.831C222.365 278.612 221.623 278.175 221.042 277.519C220.443 276.851 220.053 275.918 219.87 274.72C219.622 273.099 219.859 271.814 220.583 270.865C221.307 269.917 222.434 269.326 223.965 269.092C224.707 268.978 225.414 268.986 226.086 269.116C226.742 269.249 227.395 269.459 228.044 269.748C228.675 270.023 229.334 270.326 230.021 270.655L235.906 273.385L235.068 267.906L237.842 267.482L239.281 276.894Z" fill="#553B92"/>
</g>
<g opacity="0.7">
<path d="M403.149 105.899L409.789 85.5792L403.178 85.0827L403.443 81.5527L414.572 82.3884L414.342 85.4398L407.636 106.236L403.149 105.899Z" fill="#553B92"/>
</g>
<g opacity="0.7">
<path d="M275.337 155.772L252.871 134.121C252.787 134.439 252.636 134.85 252.419 135.351C252.201 135.808 251.973 136.322 251.735 136.892C251.473 137.44 251.234 137.965 251.017 138.467C250.777 138.946 250.603 139.334 250.495 139.63L246.555 135.833C246.683 135.423 246.854 134.877 247.068 134.194C247.304 133.488 247.539 132.737 247.773 131.941C248.007 131.144 248.185 130.36 248.307 129.589C248.451 128.794 248.506 128.136 248.474 127.616L252.471 123.469L280.466 150.449L275.337 155.772ZM284.985 145.761L281.217 142.13L277.307 125.229C277.012 123.967 276.718 122.773 276.426 121.647C276.156 120.498 275.785 119.43 275.315 118.442C274.843 117.41 274.181 116.483 273.328 115.662C272.43 114.796 271.583 114.313 270.789 114.215C269.972 114.094 269.253 114.356 268.631 115.001C267.965 115.693 267.65 116.411 267.687 117.158C267.7 117.881 267.951 118.612 268.44 119.35C268.929 120.088 269.542 120.812 270.279 121.523L271.593 122.788L266.563 128.007L265.181 126.675C263.522 125.076 262.291 123.402 261.489 121.651C260.71 119.878 260.496 118.094 260.848 116.299C261.198 114.46 262.251 112.63 264.005 110.81C266.381 108.344 268.814 107.111 271.303 107.11C273.793 107.11 276.201 108.231 278.528 110.473C279.657 111.562 280.539 112.745 281.174 114.023C281.785 115.279 282.263 116.628 282.606 118.07C282.949 119.467 283.282 120.943 283.605 122.499L286.53 135.718L294.558 127.389L298.774 131.452L284.985 145.761Z" fill="#553B92"/>
</g>
<g opacity="0.7">
<path d="M320.045 82.7968L328.711 65.3286C328.506 65.3381 328.233 65.3256 327.893 65.2908C327.58 65.2471 327.231 65.2079 326.846 65.1733C326.47 65.1208 326.112 65.0772 325.772 65.0425C325.441 64.9898 325.177 64.9594 324.98 64.951L326.5 61.8874C326.769 61.8865 327.126 61.8854 327.574 61.884C328.039 61.8916 328.531 61.89 329.049 61.8795C329.568 61.8689 330.069 61.8271 330.552 61.7541C331.052 61.6899 331.455 61.5992 331.758 61.482L334.983 63.082L324.183 84.8501L320.045 82.7968ZM333.85 90.115C332.542 89.4661 331.591 88.6596 330.998 87.6955C330.405 86.7313 330.124 85.6767 330.156 84.5318C330.198 83.3689 330.525 82.1693 331.138 80.9331L335.978 71.1778C336.609 69.9058 337.366 68.8972 338.25 68.1521C339.142 67.389 340.151 66.9521 341.278 66.8413C342.404 66.7305 343.64 67.0084 344.983 67.6751C346.309 68.3329 347.26 69.1394 347.835 70.0947C348.428 71.0588 348.691 72.1268 348.623 73.2988C348.564 74.4528 348.219 75.6658 347.588 76.9378L342.748 86.6931C342.134 87.9294 341.377 88.9156 340.476 89.6518C339.584 90.3701 338.575 90.7847 337.448 90.8955C336.321 91.0063 335.122 90.7461 333.85 90.115ZM335.663 86.4601C336.147 86.7001 336.572 86.7212 336.938 86.5233C337.304 86.3254 337.625 86.0382 337.901 85.6616C338.186 85.2672 338.418 84.8908 338.595 84.5325L343.355 74.9384C343.551 74.5443 343.72 74.1144 343.861 73.6489C344.021 73.1922 344.069 72.7583 344.005 72.347C343.95 71.9179 343.672 71.5789 343.17 71.33C342.668 71.0811 342.221 71.0601 341.828 71.267C341.462 71.465 341.136 71.7611 340.851 72.1556C340.584 72.5589 340.353 72.9576 340.157 73.3518L335.397 82.9458C335.22 83.3042 335.06 83.7161 334.918 84.1816C334.785 84.6293 334.76 85.0631 334.842 85.4833C334.924 85.9034 335.197 86.229 335.663 86.4601Z" fill="#553B92"/>
</g>
<g filter="url(#filter1_ddddd_17_626)">
<rect x="199" y="446.887" width="287" height="56" rx="7.62745" fill="#4414AA"/>
</g>
<path d="M302.632 492V457.052H311.692C314.051 457.052 316.064 457.326 317.733 457.872C319.43 458.39 320.724 459.325 321.616 460.677C322.536 462.028 322.996 463.898 322.996 466.285C322.996 467.724 322.867 469.004 322.608 470.125C322.378 471.218 321.947 472.182 321.314 473.016C320.71 473.821 319.847 474.469 318.725 474.958L323.557 492H316.266L312.253 476.166H309.751V492H302.632ZM309.751 471.937H311.822C312.972 471.937 313.878 471.751 314.54 471.377C315.201 471.003 315.662 470.442 315.921 469.694C316.208 468.917 316.352 467.968 316.352 466.846C316.352 465.236 316.05 464.013 315.446 463.179C314.871 462.316 313.778 461.885 312.167 461.885H309.751V471.937ZM337.284 492.475C334.724 492.475 332.696 492.014 331.2 491.094C329.705 490.174 328.626 488.865 327.964 487.168C327.332 485.442 327.015 483.385 327.015 480.998V467.968C327.015 465.581 327.332 463.539 327.964 461.842C328.626 460.144 329.705 458.85 331.2 457.958C332.696 457.067 334.724 456.621 337.284 456.621C339.873 456.621 341.915 457.081 343.41 458.002C344.935 458.893 346.014 460.188 346.646 461.885C347.308 463.553 347.639 465.581 347.639 467.968V480.998C347.639 483.385 347.308 485.442 346.646 487.168C346.014 488.865 344.935 490.174 343.41 491.094C341.915 492.014 339.873 492.475 337.284 492.475ZM337.284 487.34C338.204 487.34 338.88 487.139 339.312 486.736C339.743 486.305 340.031 485.744 340.175 485.054C340.318 484.335 340.39 483.572 340.39 482.767V466.242C340.39 465.437 340.318 464.689 340.175 463.999C340.031 463.308 339.743 462.762 339.312 462.359C338.88 461.928 338.204 461.712 337.284 461.712C336.421 461.712 335.774 461.928 335.342 462.359C334.911 462.762 334.623 463.308 334.479 463.999C334.336 464.689 334.264 465.437 334.264 466.242V482.767C334.264 483.572 334.321 484.335 334.436 485.054C334.58 485.744 334.868 486.305 335.299 486.736C335.731 487.139 336.392 487.34 337.284 487.34ZM352.392 492V457.052H359.511V487.168H367.709V492H352.392ZM371.057 492V457.052H378.176V487.168H386.374V492H371.057Z" fill="#F5F5FA"/>
<defs>
<filter id="filter0_d_17_626" x="304.87" y="173.435" width="65.8735" height="65.3916" filterUnits="userSpaceOnUse" color-interpolation-filters="sRGB">
<feFlood flood-opacity="0" result="BackgroundImageFix"/>
<feColorMatrix in="SourceAlpha" type="matrix" values="0 0 0 0 0 0 0 0 0 0 0 0 0 0 0 0 0 0 127 0" result="hardAlpha"/>
<feOffset/>
<feComposite in2="hardAlpha" operator="out"/>
<feColorMatrix type="matrix" values="0 0 0 0 0.264705 0 0 0 0 0.318651 0 0 0 0 0.804167 0 0 0 0.8 0"/>
<feBlend mode="normal" in2="BackgroundImageFix" result="effect1_dropShadow_17_626"/>
<feBlend mode="normal" in="SourceGraphic" in2="effect1_dropShadow_17_626" result="shape"/>
</filter>
<filter id="filter1_ddddd_17_626" x="0" y="409.887" width="685" height="789" filterUnits="userSpaceOnUse" color-interpolation-filters="sRGB">
<feFlood flood-opacity="0" result="BackgroundImageFix"/>
<feColorMatrix in="SourceAlpha" type="matrix" values="0 0 0 0 0 0 0 0 0 0 0 0 0 0 0 0 0 0 127 0" result="hardAlpha"/>
<feOffset/>
<feColorMatrix type="matrix" values="0 0 0 0 0 0 0 0 0 0 0 0 0 0 0 0 0 0 0.1 0"/>
<feBlend mode="normal" in2="BackgroundImageFix" result="effect1_dropShadow_17_626"/>
<feColorMatrix in="SourceAlpha" type="matrix" values="0 0 0 0 0 0 0 0 0 0 0 0 0 0 0 0 0 0 127 0" result="hardAlpha"/>
<feOffset dy="31"/>
<feGaussianBlur stdDeviation="34"/>
<feColorMatrix type="matrix" values="0 0 0 0 0 0 0 0 0 0 0 0 0 0 0 0 0 0 0.1 0"/>
<feBlend mode="normal" in2="effect1_dropShadow_17_626" result="effect2_dropShadow_17_626"/>
<feColorMatrix in="SourceAlpha" type="matrix" values="0 0 0 0 0 0 0 0 0 0 0 0 0 0 0 0 0 0 127 0" result="hardAlpha"/>
<feOffset dy="124"/>
<feGaussianBlur stdDeviation="62"/>
<feColorMatrix type="matrix" values="0 0 0 0 0 0 0 0 0 0 0 0 0 0 0 0 0 0 0.09 0"/>
<feBlend mode="normal" in2="effect2_dropShadow_17_626" result="effect3_dropShadow_17_626"/>
<feColorMatrix in="SourceAlpha" type="matrix" values="0 0 0 0 0 0 0 0 0 0 0 0 0 0 0 0 0 0 127 0" result="hardAlpha"/>
<feOffset dy="280"/>
<feGaussianBlur stdDeviation="84"/>
<feColorMatrix type="matrix" values="0 0 0 0 0 0 0 0 0 0 0 0 0 0 0 0 0 0 0.05 0"/>
<feBlend mode="normal" in2="effect3_dropShadow_17_626" result="effect4_dropShadow_17_626"/>
<feColorMatrix in="SourceAlpha" type="matrix" values="0 0 0 0 0 0 0 0 0 0 0 0 0 0 0 0 0 0 127 0" result="hardAlpha"/>
<feOffset dy="497"/>
<feGaussianBlur stdDeviation="99.5"/>
<feColorMatrix type="matrix" values="0 0 0 0 0 0 0 0 0 0 0 0 0 0 0 0 0 0 0.01 0"/>
<feBlend mode="normal" in2="effect4_dropShadow_17_626" result="effect5_dropShadow_17_626"/>
<feBlend mode="normal" in="SourceGraphic" in2="effect5_dropShadow_17_626" result="shape"/>
</filter>
</defs>
</svg>
