<svg width="378" height="642" viewBox="0 0 378 642" fill="none" xmlns="http://www.w3.org/2000/svg">
<path d="M354.922 160.459L230.843 38.1787L67.0765 83.3313L23.4655 246.09L142.327 368.525L311.311 323.218L354.922 160.459Z" fill="#F5F5FA" stroke="#553B92" stroke-width="10"/>
<path d="M213.373 103.379L262.042 288.793M213.373 103.379L354.922 160.459M213.373 103.379L230.843 38.1787M213.373 103.379L67.0765 83.3313M213.373 103.379L79.4824 239.876M262.042 288.793L354.922 160.459M262.042 288.793L79.4824 239.876M262.042 288.793L142.327 368.525M262.042 288.793L311.311 323.218M354.922 160.459L230.843 38.1787M354.922 160.459L311.311 323.218M230.843 38.1787L67.0765 83.3313M311.311 323.218L142.327 368.525M142.327 368.525L23.4655 246.09M142.327 368.525L79.4824 239.876M23.4655 246.09L67.0765 83.3313M23.4655 246.09L79.4824 239.876M67.0765 83.3313L79.4824 239.876" stroke="#553B92" stroke-width="10"/>
<circle cx="213.114" cy="104.344" r="9.5" transform="rotate(15 213.114 104.344)" stroke="#553B92" stroke-width="6"/>
<circle cx="261.465" cy="287.087" r="9.5" transform="rotate(15 261.465 287.087)" stroke="#553B92" stroke-width="6"/>
<circle cx="80.8369" cy="238.684" r="9.5" transform="rotate(15 80.8369 238.684)" stroke="#553B92" stroke-width="6"/>
<g filter="url(#filter0_d_17_569)">
<path d="M159.302 226.064L170.069 185.882C169.643 185.988 169.067 186.077 168.341 186.148C167.668 186.188 166.921 186.253 166.102 186.343C165.294 186.391 164.527 186.451 163.802 186.521C163.087 186.551 162.522 186.598 162.107 186.664L163.995 179.616C164.556 179.502 165.304 179.349 166.239 179.157C167.215 178.977 168.243 178.767 169.323 178.526C170.403 178.286 171.433 177.987 172.412 177.631C173.432 177.286 174.235 176.927 174.821 176.554L182.239 178.542L168.822 228.615L159.302 226.064ZM190.02 235.223C186.517 234.284 184.009 232.927 182.497 231.153C180.984 229.378 180.187 227.243 180.105 224.748C180.064 222.263 180.458 219.475 181.286 216.384L190.497 218.852C190.011 220.666 189.705 222.218 189.58 223.51C189.496 224.812 189.66 225.85 190.071 226.623C190.524 227.407 191.353 227.938 192.559 228.217C193.766 228.496 194.752 228.275 195.52 227.553C196.288 226.831 196.949 225.683 197.503 224.109C198.057 222.535 198.627 220.655 199.212 218.471C199.687 216.699 200.004 215.105 200.162 213.69C200.321 212.275 200.196 211.093 199.787 210.144C199.42 209.207 198.618 208.572 197.382 208.241C196.269 207.943 195.237 208.086 194.285 208.67C193.375 209.265 192.562 210.24 191.845 211.594L183.685 209.408L191.985 181.153L214.982 187.315L212.779 195.537L197.633 191.479L194.111 202.395C194.772 201.909 195.739 201.595 197.015 201.45C198.332 201.317 199.681 201.392 201.063 201.674C203.726 202.122 205.736 203.191 207.095 204.88C208.494 206.58 209.281 208.757 209.453 211.409C209.637 214.02 209.265 217.057 208.337 220.519C207.631 223.156 206.809 225.564 205.872 227.743C204.946 229.88 203.788 231.646 202.398 233.04C201.02 234.393 199.323 235.286 197.308 235.718C195.293 236.15 192.863 235.985 190.02 235.223Z" fill="#553B92"/>
</g>
<g opacity="0.7">
<path d="M70.5798 219.182L51.5583 223.475C51.6955 223.629 51.8579 223.848 52.0454 224.134C52.209 224.405 52.3987 224.7 52.6145 225.021C52.8108 225.345 53.0028 225.651 53.1903 225.936C53.3583 226.226 53.5011 226.45 53.6188 226.608L50.2827 227.361C50.1128 227.154 49.8863 226.877 49.6031 226.531C49.3156 226.165 49.0041 225.784 48.6687 225.388C48.3333 224.993 47.985 224.63 47.6238 224.302C47.2582 223.954 46.9341 223.699 46.6516 223.537L45.8589 220.025L69.5625 214.675L70.5798 219.182ZM68.6665 210.705L65.4768 211.425L55.3086 207.662C54.5484 207.382 53.8241 207.126 53.1356 206.891C52.4427 206.638 51.7577 206.464 51.0806 206.371C50.3796 206.263 49.6681 206.29 48.9463 206.453C48.1854 206.625 47.6429 206.901 47.3188 207.282C46.9752 207.667 46.865 208.133 46.9883 208.679C47.1204 209.264 47.3875 209.675 47.7896 209.913C48.1722 210.154 48.6401 210.274 49.1933 210.272C49.7465 210.271 50.3352 210.199 50.9595 210.058L52.0715 209.807L53.0689 214.226L51.8984 214.49C50.4937 214.807 49.1967 214.875 48.0073 214.692C46.8135 214.49 45.8085 213.989 44.9924 213.189C44.1523 212.374 43.5583 211.196 43.2104 209.655C42.7392 207.567 42.931 205.873 43.7857 204.573C44.6404 203.273 46.053 202.401 48.0234 201.956C48.9794 201.74 49.9001 201.686 50.7855 201.794C51.6514 201.906 52.5199 202.12 53.3908 202.436C54.2379 202.737 55.123 203.07 56.0462 203.436L63.9536 206.449L62.3617 199.396L65.9319 198.59L68.6665 210.705Z" fill="#553B92"/>
</g>
<g opacity="0.7">
<path d="M164.296 288.923C166.768 289.585 168.618 290.594 169.845 291.95C171.064 293.337 171.762 294.998 171.939 296.934C172.085 298.861 171.855 300.953 171.251 303.21C170.978 304.23 170.628 305.163 170.202 306.01C169.777 306.856 169.279 307.601 168.709 308.243C168.14 308.886 167.518 309.415 166.843 309.83C166.129 310.269 165.352 310.574 164.511 310.746C165.332 311.761 165.951 313.037 166.367 314.573C166.745 316.132 166.672 317.951 166.148 320.03C165.624 322.109 164.807 323.795 163.699 325.088C162.582 326.413 161.205 327.286 159.568 327.709C157.931 328.131 156.061 328.061 153.959 327.498C151.827 326.926 150.172 326.052 148.997 324.876C147.79 323.691 147.05 322.251 146.776 320.554C146.493 318.888 146.645 317.024 147.231 314.961C147.825 312.868 148.675 311.24 149.781 310.079C150.848 308.94 152.003 308.156 153.244 307.727C152.602 307.157 152.096 306.508 151.728 305.78C151.321 305.075 151.031 304.302 150.859 303.46C150.687 302.619 150.628 301.725 150.683 300.779C150.707 299.825 150.855 298.838 151.129 297.818C151.671 295.545 152.519 293.619 153.671 292.039C154.792 290.451 156.227 289.361 157.976 288.77C159.685 288.201 161.792 288.252 164.296 288.923ZM162.867 294.255C161.971 294.014 161.223 294.145 160.625 294.648C160.026 295.15 159.545 295.833 159.182 296.696C158.818 297.559 158.524 298.408 158.3 299.243C158.004 300.223 157.809 301.198 157.716 302.167C157.591 303.127 157.666 303.959 157.941 304.662C158.217 305.366 158.803 305.837 159.699 306.077C160.564 306.309 161.308 306.194 161.929 305.731C162.519 305.259 163.015 304.581 163.418 303.695C163.782 302.832 164.101 301.89 164.374 300.87C164.598 300.035 164.772 299.138 164.897 298.178C165.013 297.248 164.938 296.416 164.671 295.682C164.365 294.971 163.763 294.495 162.867 294.255ZM158.134 311.919C157.515 311.754 156.959 311.853 156.464 312.217C155.938 312.573 155.466 313.159 155.049 313.975C154.631 314.791 154.265 315.786 153.95 316.96C153.594 318.29 153.525 319.414 153.742 320.334C153.92 321.276 154.473 321.871 155.401 322.12C156.328 322.368 157.135 322.137 157.822 321.427C158.47 320.739 158.968 319.746 159.316 318.448C159.631 317.273 159.831 316.217 159.917 315.279C159.963 314.364 159.848 313.621 159.57 313.05C159.262 312.47 158.783 312.093 158.134 311.919Z" fill="#553B92"/>
</g>
<g opacity="0.7">
<path d="M263.129 170.91L292.558 160.546C292.311 160.328 292.012 160.009 291.661 159.59C291.351 159.19 290.994 158.756 290.592 158.287C290.219 157.808 289.858 157.358 289.506 156.939C289.185 156.509 288.917 156.18 288.7 155.951L293.862 154.133C294.17 154.432 294.582 154.829 295.096 155.327C295.621 155.854 296.187 156.401 296.794 156.968C297.4 157.535 298.021 158.046 298.656 158.5C299.302 158.985 299.865 159.33 300.344 159.535L302.257 164.968L265.585 177.882L263.129 170.91ZM267.747 184.024L272.682 182.286L289.541 186.374C290.802 186.676 292 186.95 293.138 187.194C294.286 187.468 295.407 187.616 296.501 187.638C297.635 187.68 298.76 187.504 299.877 187.111C301.054 186.696 301.865 186.156 302.309 185.491C302.783 184.815 302.872 184.054 302.574 183.209C302.255 182.304 301.754 181.7 301.071 181.398C300.418 181.085 299.652 180.981 298.774 181.087C297.895 181.193 296.973 181.416 296.007 181.756L294.286 182.362L291.879 175.525L293.69 174.888C295.863 174.122 297.912 173.774 299.836 173.843C301.77 173.942 303.461 174.551 304.907 175.67C306.393 176.809 307.556 178.571 308.396 180.955C309.534 184.185 309.544 186.912 308.428 189.137C307.311 191.363 305.229 193.012 302.181 194.085C300.702 194.606 299.249 194.863 297.821 194.857C296.424 194.84 295.005 194.662 293.562 194.322C292.16 194.001 290.691 193.636 289.156 193.227L276.029 189.911L279.872 200.822L274.348 202.767L267.747 184.024Z" fill="#553B92"/>
</g>
<g opacity="0.7">
<path d="M299.388 262.98L300.922 265.744L300.189 276.2C300.136 276.981 300.094 277.722 300.064 278.425C300.016 279.136 300.041 279.819 300.138 280.473C300.228 281.152 300.446 281.805 300.793 282.431C301.159 283.09 301.563 283.518 302.004 283.716C302.454 283.93 302.916 283.906 303.39 283.643C303.897 283.362 304.206 283.003 304.317 282.565C304.438 282.145 304.422 281.678 304.27 281.165C304.118 280.652 303.892 280.126 303.592 279.585L303.058 278.621L306.887 276.497L307.45 277.511C308.125 278.728 308.539 279.913 308.692 281.066C308.829 282.229 308.637 283.297 308.116 284.271C307.588 285.272 306.656 286.143 305.32 286.884C303.511 287.887 301.888 288.169 300.449 287.729C299.011 287.288 297.819 286.214 296.871 284.507C296.412 283.679 296.112 282.839 295.972 281.988C295.841 281.154 295.804 280.291 295.86 279.397C295.91 278.529 295.979 277.618 296.068 276.662L296.718 268.508L290.606 271.898L288.89 268.805L299.388 262.98Z" fill="#553B92"/>
</g>
<g opacity="0.7">
<path d="M240.692 316.559L244.385 318.852L247.369 314.045L249.733 315.512L256.945 325.701L254.761 329.218L244.932 323.117L243.986 324.641L241.68 323.209L242.626 321.685L238.933 319.393L240.692 316.559ZM248.195 317.86L246.691 320.283L253.413 324.456L248.195 317.86Z" fill="#553B92"/>
</g>
<g opacity="0.7">
<path d="M85.8036 272.098C85.982 273.265 85.8704 274.26 85.4686 275.081C85.0494 275.89 84.4117 276.538 83.5556 277.026C82.6971 277.498 81.6843 277.824 80.5172 278.002L73.9694 279.004C72.7719 279.187 71.6749 279.215 70.6783 279.088C69.6794 278.946 68.8526 278.561 68.198 277.932C67.5434 277.303 67.1153 276.329 66.9137 275.01C66.7398 273.873 66.7838 272.944 67.0456 272.221C67.2899 271.486 67.7375 270.913 68.3884 270.503C69.0393 270.094 69.8725 269.811 70.888 269.656C70.9335 269.649 70.9865 269.641 71.0471 269.632C71.0903 269.609 71.1346 269.595 71.1801 269.588L71.6877 272.907C70.9146 273.026 70.3503 273.189 69.9945 273.399C69.6388 273.608 69.5049 274.001 69.593 274.577C69.6486 274.941 69.8063 275.212 70.0661 275.389C70.3236 275.551 70.7322 275.636 71.2917 275.644C71.8338 275.638 72.5747 275.564 73.5145 275.42L75.4015 275.132C75.0379 274.985 74.7339 274.722 74.4895 274.34C74.2427 273.944 74.07 273.474 73.9714 272.93C73.7927 271.965 73.8943 271.158 74.2761 270.511C74.6404 269.85 75.2121 269.328 75.9912 268.945C76.7552 268.565 77.6449 268.297 78.6604 268.142C79.9033 267.952 81.0329 267.934 82.0494 268.089C83.0658 268.244 83.9024 268.643 84.5593 269.287C85.1988 269.918 85.6135 270.855 85.8036 272.098ZM83.182 272.453C83.1241 272.074 82.9524 271.813 82.6669 271.671C82.3791 271.513 81.9956 271.44 81.5165 271.451C81.035 271.447 80.4608 271.496 79.7939 271.598C79.1573 271.695 78.6075 271.803 78.1446 271.92C77.6642 272.024 77.3027 272.196 77.06 272.435C76.8173 272.674 76.7307 273.02 76.8002 273.475C76.8327 273.687 76.9094 273.885 77.0305 274.068C77.1341 274.238 77.2645 274.381 77.4218 274.497C77.5639 274.615 77.709 274.701 77.857 274.756L80.7899 274.308C81.2446 274.238 81.6708 274.134 82.0685 273.996C82.4486 273.845 82.7438 273.644 82.9538 273.395C83.1639 273.146 83.24 272.832 83.182 272.453Z" fill="#553B92"/>
</g>
<g opacity="0.7">
<path d="M250.149 105.899L256.789 85.5792L250.178 85.0827L250.443 81.5527L261.572 82.3884L261.342 85.4398L254.636 106.236L250.149 105.899Z" fill="#553B92"/>
</g>
<g opacity="0.7">
<path d="M122.337 155.772L99.8715 134.121C99.7868 134.439 99.636 134.85 99.419 135.351C99.2011 135.808 98.9729 136.322 98.7345 136.892C98.473 137.44 98.2338 137.965 98.0167 138.467C97.7767 138.946 97.6028 139.334 97.4951 139.63L93.555 135.833C93.6833 135.423 93.8542 134.877 94.0679 134.194C94.3038 133.488 94.5389 132.737 94.7731 131.941C95.0074 131.144 95.1853 130.36 95.3068 129.589C95.4506 128.794 95.5063 128.136 95.4741 127.616L99.4711 123.469L127.466 150.449L122.337 155.772ZM139.497 138.935C137.609 140.893 135.809 142.047 134.095 142.395C132.381 142.744 130.691 142.492 129.023 141.64C127.377 140.765 125.691 139.495 123.962 137.83L128.925 132.68C129.939 133.657 130.847 134.421 131.65 134.972C132.474 135.5 133.215 135.769 133.871 135.78C134.55 135.767 135.2 135.416 135.82 134.725C136.441 134.035 136.654 133.307 136.459 132.541C136.264 131.775 135.75 130.924 134.918 129.989C134.086 129.054 133.06 127.998 131.839 126.821C130.848 125.866 129.917 125.08 129.045 124.463C128.174 123.845 127.353 123.498 126.582 123.422C125.833 123.322 125.126 123.618 124.46 124.31C123.86 124.932 123.579 125.661 123.617 126.498C123.678 127.311 124.022 128.199 124.651 129.16L120.254 133.723L104.722 118.02L117.113 105.163L121.71 109.593L113.549 118.061L119.436 124.334C119.357 123.725 119.501 122.975 119.87 122.086C120.26 121.174 120.799 120.315 121.486 119.51C122.746 117.925 124.177 116.994 125.779 116.715C127.403 116.414 129.117 116.687 130.92 117.537C132.701 118.364 134.559 119.71 136.494 121.575C137.969 122.997 139.251 124.41 140.341 125.816C141.407 127.199 142.146 128.6 142.557 130.018C142.945 131.414 142.915 132.852 142.467 134.331C142.019 135.81 141.029 137.345 139.497 138.935Z" fill="#553B92"/>
</g>
<g opacity="0.7">
<path d="M175.56 85.3665C174.109 84.6465 173.086 83.8044 172.493 82.8403C171.926 81.8671 171.7 80.7945 171.812 79.6224C171.934 78.4325 172.315 77.1925 172.955 75.9025L173.341 75.1232L177.48 77.1765C177.462 77.2124 177.413 77.3109 177.333 77.4721C177.262 77.6155 177.191 77.7588 177.12 77.9021C176.791 78.6097 176.556 79.2187 176.414 79.7289C176.3 80.2302 176.31 80.6595 176.445 81.0168C176.58 81.3742 176.881 81.6684 177.347 81.8995C177.831 82.1395 178.247 82.2009 178.595 82.0835C178.952 81.9482 179.292 81.6699 179.612 81.2485C179.933 80.8272 180.262 80.2761 180.6 79.5953C181.142 78.5024 181.399 77.5803 181.37 76.8291C181.349 76.0599 180.86 75.4264 179.901 74.9285C179.883 74.9196 179.794 74.8752 179.632 74.7952C179.471 74.7152 179.319 74.6396 179.176 74.5685L180.696 71.5048C180.803 71.5582 180.911 71.6115 181.018 71.6648C181.144 71.7271 181.251 71.7804 181.341 71.8248C182.308 72.3048 183.091 72.3695 183.689 72.0188C184.305 71.677 184.889 70.9507 185.44 69.8399C185.867 68.98 186.075 68.2459 186.064 67.6377C186.053 67.0295 185.707 66.5565 185.026 66.2188C184.345 65.881 183.764 65.9275 183.283 66.3583C182.801 66.7891 182.342 67.4211 181.906 68.2543C181.835 68.3976 181.755 68.5589 181.666 68.738C181.586 68.8993 181.506 69.0605 181.426 69.2218L177.288 67.1684L177.875 65.986C178.506 64.7139 179.272 63.7545 180.173 63.1077C181.084 62.443 182.084 62.0911 183.175 62.052C184.266 62.0128 185.43 62.2999 186.666 62.9132C187.902 63.5266 188.848 64.275 189.504 65.1584C190.16 66.0419 190.498 67.0247 190.519 68.1069C190.559 69.198 190.263 70.3796 189.631 71.6516C189 72.9237 188.207 73.8474 187.252 74.4228C186.315 75.007 185.403 75.2245 184.517 75.0752C184.966 75.521 185.294 76.0522 185.501 76.6687C185.709 77.2852 185.756 78.0006 185.642 78.8149C185.537 79.6113 185.231 80.5201 184.725 81.5413C184.076 82.8492 183.31 83.9204 182.427 84.755C181.553 85.5716 180.544 86.0532 179.399 86.1999C178.255 86.3465 176.975 86.0687 175.56 85.3665Z" fill="#553B92"/>
</g>
<defs>
<filter id="filter0_d_17_569" x="151.837" y="174.052" width="65.2463" height="64.7646" filterUnits="userSpaceOnUse" color-interpolation-filters="sRGB">
<feFlood flood-opacity="0" result="BackgroundImageFix"/>
<feColorMatrix in="SourceAlpha" type="matrix" values="0 0 0 0 0 0 0 0 0 0 0 0 0 0 0 0 0 0 127 0" result="hardAlpha"/>
<feOffset/>
<feComposite in2="hardAlpha" operator="out"/>
<feColorMatrix type="matrix" values="0 0 0 0 0.264705 0 0 0 0 0.318651 0 0 0 0 0.804167 0 0 0 0.8 0"/>
<feBlend mode="normal" in2="BackgroundImageFix" result="effect1_dropShadow_17_569"/>
<feBlend mode="normal" in="SourceGraphic" in2="effect1_dropShadow_17_569" result="shape"/>
</filter>
</defs>
</svg>
