<svg width="378" height="642" viewBox="0 0 378 642" fill="none" xmlns="http://www.w3.org/2000/svg">
<path d="M354.922 160.459L230.843 38.1787L67.0765 83.3313L23.4655 246.09L142.327 368.525L311.311 323.218L354.922 160.459Z" fill="#F5F5FA" stroke="#553B92" stroke-width="10"/>
<path d="M213.373 103.379L262.042 288.793M213.373 103.379L354.922 160.459M213.373 103.379L230.843 38.1787M213.373 103.379L67.0765 83.3313M213.373 103.379L79.4824 239.876M262.042 288.793L354.922 160.459M262.042 288.793L79.4824 239.876M262.042 288.793L142.327 368.525M262.042 288.793L311.311 323.218M354.922 160.459L230.843 38.1787M354.922 160.459L311.311 323.218M230.843 38.1787L67.0765 83.3313M311.311 323.218L142.327 368.525M142.327 368.525L23.4655 246.09M142.327 368.525L79.4824 239.876M23.4655 246.09L67.0765 83.3313M23.4655 246.09L79.4824 239.876M67.0765 83.3313L79.4824 239.876" stroke="#553B92" stroke-width="10"/>
<circle cx="213.114" cy="104.344" r="9.5" transform="rotate(15 213.114 104.344)" stroke="#553B92" stroke-width="6"/>
<circle cx="261.465" cy="287.087" r="9.5" transform="rotate(15 261.465 287.087)" stroke="#553B92" stroke-width="6"/>
<circle cx="80.8369" cy="238.684" r="9.5" transform="rotate(15 80.8369 238.684)" stroke="#553B92" stroke-width="6"/>
<g filter="url(#filter0_d_17_797)">
<path d="M178.809 232.02C175.636 231.17 173.227 229.774 171.583 227.831C169.991 225.859 169.053 223.509 168.767 220.782C168.523 218.067 168.826 215.122 169.677 211.949L174.447 194.145C175.32 190.889 176.475 188.062 177.912 185.664C179.391 183.278 181.298 181.602 183.632 180.638C185.967 179.673 188.927 179.671 192.512 180.632C195.603 181.46 197.923 182.612 199.471 184.087C201.072 185.531 202.03 187.312 202.346 189.429C202.663 191.545 202.451 193.984 201.711 196.746C201.678 196.869 201.639 197.014 201.595 197.178C201.603 197.313 201.591 197.442 201.558 197.566L192.532 195.147C193.095 193.046 193.309 191.424 193.173 190.284C193.037 189.143 192.186 188.363 190.619 187.943C189.63 187.678 188.764 187.777 188.022 188.241C187.32 188.715 186.647 189.662 186.002 191.079C185.41 192.466 184.771 194.437 184.087 196.993L182.712 202.124C183.491 201.36 184.502 200.881 185.748 200.684C187.034 200.499 188.425 200.584 189.92 200.941C192.579 201.565 194.521 202.726 195.745 204.423C197.021 206.09 197.711 208.13 197.815 210.543C197.931 212.916 197.618 215.482 196.878 218.243C195.973 221.623 194.755 224.521 193.224 226.938C191.693 229.354 189.739 231.04 187.363 231.993C185.04 232.917 182.188 232.926 178.809 232.02ZM180.838 224.944C181.868 225.22 182.724 225.074 183.406 224.506C184.13 223.949 184.745 223.054 185.252 221.82C185.801 220.598 186.318 219.08 186.804 217.267C187.268 215.536 187.609 214.015 187.828 212.704C188.099 211.363 188.066 210.25 187.729 209.365C187.392 208.479 186.605 207.871 185.369 207.54C184.792 207.385 184.202 207.36 183.6 207.463C183.05 207.537 182.54 207.709 182.07 207.981C181.611 208.211 181.228 208.484 180.923 208.8L178.786 216.775C178.455 218.011 178.243 219.213 178.151 220.381C178.111 221.519 178.291 222.495 178.692 223.309C179.092 224.123 179.807 224.668 180.838 224.944Z" fill="#553B92"/>
</g>
<g opacity="0.7">
<path d="M70.6899 219.669L51.6684 223.963C51.8056 224.117 51.968 224.336 52.1555 224.622C52.3191 224.893 52.5088 225.188 52.7246 225.508C52.921 225.833 53.1129 226.138 53.3004 226.424C53.4684 226.714 53.6112 226.938 53.7289 227.096L50.3928 227.849C50.2229 227.642 49.9964 227.365 49.7132 227.018C49.4257 226.653 49.1142 226.272 48.7788 225.876C48.4434 225.48 48.0951 225.118 47.7339 224.79C47.3683 224.442 47.0442 224.187 46.7617 224.025L45.969 220.513L69.6727 215.163L70.6899 219.669ZM67.5727 204.361C67.9117 205.863 67.8575 207.167 67.41 208.272C66.9385 209.363 66.1682 210.265 65.0989 210.978C64.0252 211.671 62.7373 212.187 61.2351 212.526L52.8071 214.429C51.2659 214.777 49.8411 214.914 48.5328 214.84C47.22 214.747 46.109 214.321 45.1997 213.563C44.2904 212.804 43.6442 211.576 43.2611 209.879C42.9308 208.416 42.9029 207.202 43.1774 206.238C43.4279 205.259 43.9579 204.473 44.7672 203.88C45.5766 203.287 46.6348 202.844 47.9419 202.549C48.0004 202.535 48.0687 202.52 48.1467 202.502C48.2009 202.47 48.2572 202.447 48.3157 202.433L49.2801 206.706C48.2852 206.93 47.5658 207.195 47.1221 207.501C46.6784 207.806 46.5403 208.329 46.7076 209.07C46.8133 209.539 47.0433 209.876 47.3976 210.083C47.7475 210.271 48.2868 210.344 49.0155 210.302C49.7204 210.246 50.6776 210.081 51.8871 209.808L54.316 209.26C53.8296 209.103 53.4098 208.788 53.0568 208.314C52.6994 207.82 52.4317 207.225 52.2537 206.527C51.9328 205.287 51.9911 204.228 52.4286 203.35C52.8421 202.457 53.5382 201.726 54.5168 201.157C55.4759 200.592 56.609 200.162 57.9162 199.867C59.5159 199.505 60.9841 199.379 62.3208 199.487C63.6574 199.596 64.7826 200.039 65.6963 200.817C66.5861 201.58 67.2116 202.761 67.5727 204.361ZM64.1941 205.062C64.084 204.574 63.8367 204.251 63.4522 204.091C63.0633 203.913 62.5577 203.852 61.9353 203.911C61.3085 203.95 60.5659 204.066 59.7075 204.26C58.8881 204.445 58.1826 204.635 57.591 204.83C56.9755 205.01 56.5208 205.266 56.2269 205.599C55.933 205.932 55.8521 206.391 55.9842 206.976C56.0459 207.25 56.1638 207.5 56.3381 207.727C56.4885 207.939 56.6713 208.113 56.8866 208.249C57.0823 208.389 57.2789 208.488 57.4765 208.546L61.2515 207.694C61.8368 207.562 62.3818 207.388 62.8865 207.171C63.3674 206.94 63.733 206.652 63.9835 206.309C64.234 205.965 64.3042 205.549 64.1941 205.062Z" fill="#553B92"/>
</g>
<g opacity="0.7">
<path d="M166.673 290.156L158.598 320.293C158.918 320.213 159.35 320.146 159.894 320.093C160.399 320.063 160.959 320.014 161.573 319.947C162.179 319.911 162.754 319.866 163.299 319.813C163.835 319.791 164.258 319.755 164.57 319.706L163.153 324.992C162.733 325.078 162.172 325.193 161.471 325.336C160.739 325.471 159.968 325.629 159.158 325.81C158.347 325.99 157.575 326.214 156.841 326.481C156.076 326.74 155.474 327.009 155.034 327.289L149.47 325.798L159.533 288.243L166.673 290.156Z" fill="#553B92"/>
</g>
<g opacity="0.7">
<path d="M264.524 174.871L269.459 173.133L286.318 177.222C287.579 177.524 288.777 177.798 289.915 178.042C291.063 178.316 292.184 178.464 293.278 178.486C294.412 178.527 295.537 178.352 296.654 177.958C297.831 177.544 298.642 177.004 299.086 176.339C299.56 175.663 299.649 174.902 299.351 174.057C299.032 173.151 298.531 172.548 297.848 172.245C297.195 171.932 296.429 171.829 295.551 171.935C294.672 172.041 293.75 172.264 292.784 172.604L291.063 173.21L288.656 166.373L290.467 165.736C292.64 164.97 294.689 164.622 296.613 164.691C298.547 164.79 300.238 165.399 301.684 166.518C303.17 167.657 304.333 169.419 305.173 171.803C306.311 175.033 306.321 177.76 305.205 179.985C304.088 182.21 302.006 183.86 298.958 184.933C297.479 185.454 296.026 185.711 294.598 185.705C293.202 185.688 291.782 185.51 290.339 185.17C288.937 184.849 287.468 184.484 285.933 184.075L272.806 180.759L276.649 191.67L271.125 193.615L264.524 174.871Z" fill="#553B92"/>
</g>
<g opacity="0.7">
<path d="M302.099 261.476L311.244 277.96C311.349 277.791 311.509 277.581 311.723 277.329C311.929 277.104 312.152 276.848 312.391 276.561C312.639 276.29 312.87 276.029 313.084 275.778C313.308 275.543 313.477 275.35 313.592 275.198L315.195 278.089C315.049 278.303 314.853 278.588 314.609 278.945C314.348 279.311 314.079 279.703 313.803 280.122C313.526 280.54 313.285 280.962 313.078 281.386C312.854 281.82 312.706 282.189 312.632 282.496L309.589 284.184L298.194 263.643L302.099 261.476ZM289.082 268.3C290.435 267.55 291.662 267.211 292.764 267.285C293.876 267.376 294.876 267.805 295.766 268.571C296.639 269.347 297.417 270.353 298.102 271.587C298.412 272.145 298.652 272.697 298.822 273.243C298.993 273.79 299.089 274.322 299.111 274.841C299.134 275.359 299.085 275.85 298.967 276.314C298.841 276.804 298.631 277.263 298.338 277.691C299.121 277.787 299.925 278.081 300.751 278.574C301.57 279.093 302.302 279.914 302.947 281.037C303.592 282.16 303.945 283.236 304.007 284.263C304.078 285.307 303.846 286.264 303.312 287.135C302.778 288.006 301.937 288.761 300.787 289.399C299.621 290.046 298.535 290.36 297.53 290.343C296.509 290.335 295.582 290.02 294.751 289.398C293.929 288.793 293.212 287.919 292.6 286.777C291.98 285.618 291.666 284.554 291.659 283.585C291.644 282.642 291.817 281.817 292.176 281.109C291.657 281.132 291.165 281.062 290.7 280.9C290.227 280.765 289.776 280.55 289.348 280.257C288.92 279.964 288.519 279.6 288.146 279.166C287.756 278.742 287.406 278.25 287.096 277.692C286.378 276.477 285.937 275.284 285.775 274.114C285.595 272.954 285.761 271.878 286.272 270.887C286.776 269.922 287.713 269.06 289.082 268.3ZM290.7 271.216C290.21 271.488 289.94 271.859 289.891 272.328C289.842 272.798 289.919 273.296 290.124 273.824C290.328 274.352 290.557 274.844 290.81 275.3C291.093 275.851 291.418 276.356 291.784 276.816C292.133 277.286 292.515 277.616 292.93 277.806C293.345 277.996 293.797 277.955 294.287 277.683C294.761 277.42 295.035 277.058 295.111 276.596C295.169 276.143 295.1 275.64 294.903 275.086C294.699 274.558 294.442 274.015 294.132 273.457C293.879 273.001 293.578 272.538 293.229 272.068C292.889 271.616 292.507 271.286 292.083 271.079C291.651 270.898 291.19 270.944 290.7 271.216ZM296.06 280.878C295.722 281.065 295.522 281.342 295.46 281.708C295.38 282.084 295.422 282.537 295.583 283.066C295.744 283.596 296.003 284.182 296.359 284.824C296.762 285.551 297.204 286.069 297.685 286.377C298.158 286.712 298.648 286.738 299.155 286.457C299.662 286.176 299.916 285.736 299.916 285.139C299.909 284.568 299.709 283.928 299.315 283.218C298.958 282.575 298.602 282.032 298.245 281.589C297.881 281.172 297.519 280.898 297.159 280.766C296.781 280.644 296.415 280.681 296.06 280.878Z" fill="#553B92"/>
</g>
<g opacity="0.7">
<path d="M240.692 316.559L244.385 318.852L247.369 314.045L249.733 315.512L256.945 325.701L254.761 329.218L244.932 323.117L243.986 324.641L241.68 323.209L242.626 321.685L238.933 319.393L240.692 316.559ZM248.195 317.86L246.691 320.283L253.413 324.456L248.195 317.86Z" fill="#553B92"/>
</g>
<g opacity="0.7">
<path d="M85.8036 272.098C85.982 273.265 85.8704 274.26 85.4686 275.081C85.0494 275.89 84.4117 276.538 83.5556 277.026C82.6971 277.498 81.6843 277.824 80.5172 278.002L73.9694 279.004C72.7719 279.187 71.6749 279.215 70.6783 279.088C69.6794 278.946 68.8526 278.561 68.198 277.932C67.5434 277.303 67.1153 276.329 66.9137 275.01C66.7398 273.873 66.7838 272.944 67.0456 272.221C67.2899 271.486 67.7375 270.913 68.3884 270.503C69.0393 270.094 69.8725 269.811 70.888 269.656C70.9335 269.649 70.9865 269.641 71.0471 269.632C71.0903 269.609 71.1346 269.595 71.1801 269.588L71.6877 272.907C70.9146 273.026 70.3503 273.189 69.9945 273.399C69.6388 273.608 69.5049 274.001 69.593 274.577C69.6486 274.941 69.8063 275.212 70.0661 275.389C70.3236 275.551 70.7322 275.636 71.2917 275.644C71.8338 275.638 72.5747 275.564 73.5145 275.42L75.4015 275.132C75.0379 274.985 74.7339 274.722 74.4895 274.34C74.2427 273.944 74.07 273.474 73.9714 272.93C73.7927 271.965 73.8943 271.158 74.2761 270.511C74.6404 269.85 75.2121 269.328 75.9912 268.945C76.7552 268.565 77.6449 268.297 78.6604 268.142C79.9033 267.952 81.0329 267.934 82.0494 268.089C83.0658 268.244 83.9024 268.643 84.5593 269.287C85.1988 269.918 85.6135 270.855 85.8036 272.098ZM83.182 272.453C83.1241 272.074 82.9524 271.813 82.6669 271.671C82.3791 271.513 81.9956 271.44 81.5165 271.451C81.035 271.447 80.4608 271.496 79.7939 271.598C79.1573 271.695 78.6075 271.803 78.1446 271.92C77.6642 272.024 77.3027 272.196 77.06 272.435C76.8173 272.674 76.7307 273.02 76.8002 273.475C76.8327 273.687 76.9094 273.885 77.0305 274.068C77.1341 274.238 77.2645 274.381 77.4218 274.497C77.5639 274.615 77.709 274.701 77.857 274.756L80.7899 274.308C81.2446 274.238 81.6708 274.134 82.0685 273.996C82.4486 273.845 82.7438 273.644 82.9538 273.395C83.1639 273.146 83.24 272.832 83.182 272.453Z" fill="#553B92"/>
</g>
<g opacity="0.7">
<path d="M245.761 107.61L247.221 88.1647C247.034 88.251 246.777 88.342 246.448 88.4377C246.142 88.5149 245.804 88.6099 245.434 88.7225C245.066 88.8152 244.718 88.9094 244.39 89.0051C244.064 89.0809 243.808 89.1519 243.622 89.2182L243.878 85.8078C244.127 85.7061 244.458 85.5705 244.871 85.401C245.305 85.233 245.76 85.0466 246.237 84.8417C246.714 84.6369 247.162 84.4098 247.582 84.1605C248.022 83.9128 248.36 83.6775 248.598 83.4546L252.188 83.7242L250.368 107.956L245.761 107.61ZM254.426 108.261L254.671 105L261.245 96.378C261.735 95.7329 262.192 95.1154 262.617 94.5256C263.063 93.9373 263.429 93.3331 263.716 92.7128C264.025 92.0742 264.207 91.3859 264.262 90.6479C264.321 89.8701 264.215 89.2705 263.946 88.8492C263.679 88.4079 263.265 88.1663 262.707 88.1244C262.109 88.0794 261.637 88.2145 261.293 88.5296C260.95 88.8247 260.698 89.237 260.538 89.7665C260.378 90.296 260.274 90.8799 260.226 91.5181L260.141 92.6549L255.623 92.3156L255.713 91.119C255.821 89.6831 256.136 88.4231 256.659 87.3392C257.201 86.2568 257.975 85.4424 258.978 84.8961C260.004 84.3312 261.304 84.108 262.879 84.2263C265.013 84.3866 266.577 85.0656 267.57 86.2633C268.563 87.4611 268.984 89.0671 268.833 91.0814C268.759 92.0587 268.542 92.9549 268.18 93.7701C267.819 94.5653 267.36 95.3331 266.803 96.0735C266.268 96.7954 265.69 97.5442 265.07 98.32L259.875 105L267.085 105.541L266.811 109.191L254.426 108.261Z" fill="#553B92"/>
</g>
<g opacity="0.7">
<path opacity="0.9" d="M132.512 145.974C130.847 147.702 129.25 148.829 127.72 149.355C126.168 149.859 124.64 149.831 123.136 149.27C121.609 148.687 120.074 147.652 118.53 146.164C118.461 146.098 118.392 146.031 118.322 145.964C118.253 145.898 118.184 145.831 118.115 145.765L122.978 140.719C124.153 141.851 125.14 142.58 125.938 142.904C126.758 143.206 127.601 142.908 128.467 142.009C129 141.456 129.238 140.863 129.181 140.231C129.125 139.598 128.737 138.824 128.018 137.91C127.3 136.995 126.238 135.861 124.832 134.506L121.964 131.741C122.16 132.552 122.096 133.402 121.773 134.291C121.45 135.179 120.912 136.038 120.157 136.867C118.737 138.387 117.225 139.241 115.622 139.429C113.995 139.594 112.36 139.263 110.715 138.433C109.093 137.58 107.509 136.41 105.966 134.922C104.053 133.079 102.627 131.238 101.688 129.4C100.749 127.562 100.421 125.712 100.703 123.851C101.008 121.967 102.037 120.115 103.792 118.294C105.501 116.52 107.269 115.447 109.096 115.073C110.899 114.678 112.713 114.871 114.538 115.652C116.363 116.433 118.174 117.689 119.971 119.421L130.167 129.248C131.987 131.002 133.423 132.786 134.475 134.6C135.527 136.413 135.946 138.261 135.732 140.144C135.517 142.026 134.444 143.969 132.512 145.974ZM117.511 131.45C118.022 130.92 118.295 130.361 118.329 129.772C118.363 129.137 118.33 128.595 118.231 128.144L113.773 123.847C113.058 123.159 112.346 122.584 111.636 122.121C110.926 121.659 110.242 121.4 109.585 121.345C108.928 121.289 108.321 121.549 107.766 122.125C107.211 122.701 106.985 123.327 107.088 124.005C107.191 124.682 107.544 125.422 108.147 126.225C108.773 127.006 109.592 127.885 110.606 128.862C111.551 129.772 112.425 130.548 113.229 131.19C114.033 131.831 114.776 132.214 115.457 132.337C116.16 132.437 116.845 132.141 117.511 131.45Z" fill="#553B92"/>
</g>
<g opacity="0.7">
<path d="M167.045 82.7968L175.711 65.3286C175.506 65.3381 175.233 65.3256 174.893 65.2908C174.58 65.2471 174.231 65.2079 173.846 65.1733C173.47 65.1208 173.112 65.0772 172.772 65.0425C172.441 64.9898 172.177 64.9594 171.98 64.951L173.5 61.8874C173.769 61.8865 174.126 61.8854 174.574 61.884C175.039 61.8916 175.531 61.89 176.049 61.8795C176.568 61.8689 177.069 61.8271 177.552 61.7541C178.052 61.6899 178.455 61.5992 178.758 61.482L181.983 63.082L171.183 84.8501L167.045 82.7968ZM180.85 90.115C179.542 89.4661 178.591 88.6596 177.998 87.6955C177.405 86.7313 177.124 85.6767 177.156 84.5318C177.198 83.3689 177.525 82.1693 178.138 80.9331L182.978 71.1778C183.609 69.9058 184.366 68.8972 185.25 68.1521C186.142 67.389 187.151 66.9521 188.278 66.8413C189.404 66.7305 190.64 67.0084 191.983 67.6751C193.309 68.3329 194.26 69.1394 194.835 70.0947C195.428 71.0588 195.691 72.1268 195.623 73.2988C195.564 74.4528 195.219 75.6658 194.588 76.9378L189.748 86.6931C189.134 87.9294 188.377 88.9156 187.476 89.6518C186.584 90.3701 185.575 90.7847 184.448 90.8955C183.321 91.0063 182.122 90.7461 180.85 90.115ZM182.663 86.4601C183.147 86.7001 183.572 86.7212 183.938 86.5233C184.304 86.3254 184.625 86.0382 184.901 85.6616C185.186 85.2672 185.418 84.8908 185.595 84.5325L190.355 74.9384C190.551 74.5443 190.72 74.1144 190.861 73.6489C191.021 73.1922 191.069 72.7583 191.005 72.347C190.95 71.9179 190.672 71.5789 190.17 71.33C189.668 71.0811 189.221 71.0601 188.828 71.267C188.462 71.465 188.136 71.7611 187.851 72.1556C187.584 72.5589 187.353 72.9576 187.157 73.3518L182.397 82.9458C182.22 83.3042 182.06 83.7161 181.918 84.1816C181.785 84.6293 181.76 85.0631 181.842 85.4833C181.924 85.9034 182.197 86.229 182.663 86.4601Z" fill="#553B92"/>
</g>
<rect x="159.957" y="233.57" width="36.1048" height="7.03878" rx="3" transform="rotate(15 159.957 233.57)" fill="#1E1E26" fill-opacity="0.93"/>
<defs>
<filter id="filter0_d_17_797" x="165.271" y="177.021" width="40.7183" height="58.5938" filterUnits="userSpaceOnUse" color-interpolation-filters="sRGB">
<feFlood flood-opacity="0" result="BackgroundImageFix"/>
<feColorMatrix in="SourceAlpha" type="matrix" values="0 0 0 0 0 0 0 0 0 0 0 0 0 0 0 0 0 0 127 0" result="hardAlpha"/>
<feOffset/>
<feComposite in2="hardAlpha" operator="out"/>
<feColorMatrix type="matrix" values="0 0 0 0 0.264705 0 0 0 0 0.318651 0 0 0 0 0.804167 0 0 0 0.8 0"/>
<feBlend mode="normal" in2="BackgroundImageFix" result="effect1_dropShadow_17_797"/>
<feBlend mode="normal" in="SourceGraphic" in2="effect1_dropShadow_17_797" result="shape"/>
</filter>
</defs>
</svg>
