<svg width="685" height="1199" viewBox="0 0 685 1199" fill="none" xmlns="http://www.w3.org/2000/svg">
<path d="M507.922 160.459L383.843 38.1787L220.077 83.3313L176.466 246.09L295.327 368.525L464.311 323.218L507.922 160.459Z" fill="#F5F5FA" stroke="#553B92" stroke-width="10"/>
<path d="M366.373 103.379L415.042 288.793M366.373 103.379L507.922 160.459M366.373 103.379L383.843 38.1787M366.373 103.379L220.077 83.3313M366.373 103.379L232.482 239.876M415.042 288.793L507.922 160.459M415.042 288.793L232.482 239.876M415.042 288.793L295.327 368.525M415.042 288.793L464.311 323.218M507.922 160.459L383.843 38.1787M507.922 160.459L464.311 323.218M383.843 38.1787L220.077 83.3313M464.311 323.218L295.327 368.525M295.327 368.525L176.466 246.09M295.327 368.525L232.482 239.876M176.466 246.09L220.077 83.3313M176.466 246.09L232.482 239.876M220.077 83.3313L232.482 239.876" stroke="#553B92" stroke-width="10"/>
<circle cx="366.114" cy="104.344" r="9.5" transform="rotate(15 366.114 104.344)" stroke="#553B92" stroke-width="6"/>
<circle cx="414.465" cy="287.087" r="9.5" transform="rotate(15 414.465 287.087)" stroke="#553B92" stroke-width="6"/>
<circle cx="233.837" cy="238.684" r="9.5" transform="rotate(15 233.837 238.684)" stroke="#553B92" stroke-width="6"/>
<g filter="url(#filter0_d_17_1198)">
<path d="M311.819 225.935L322.586 185.752C322.16 185.859 321.584 185.948 320.858 186.018C320.185 186.059 319.438 186.124 318.619 186.213C317.811 186.262 317.044 186.321 316.319 186.392C315.604 186.421 315.039 186.469 314.624 186.534L316.512 179.487C317.073 179.372 317.821 179.219 318.756 179.028C319.732 178.848 320.76 178.637 321.84 178.397C322.921 178.156 323.95 177.858 324.929 177.502C325.949 177.157 326.752 176.798 327.338 176.424L334.756 178.412L321.339 228.486L311.819 225.935ZM342.957 235.007C339.866 234.179 337.521 233.042 335.92 231.598C334.33 230.112 333.378 228.31 333.061 226.194C332.756 224.036 332.973 221.576 333.713 218.815C333.746 218.691 333.779 218.568 333.813 218.444C333.846 218.32 333.879 218.197 333.912 218.073L342.938 220.491C342.374 222.593 342.161 224.215 342.297 225.355C342.474 226.507 343.366 227.298 344.974 227.729C345.963 227.994 346.808 227.889 347.51 227.415C348.211 226.94 348.863 225.988 349.467 224.56C350.071 223.132 350.709 221.16 351.383 218.646L352.758 213.515C351.938 214.267 350.905 214.742 349.66 214.938C348.415 215.135 347.065 215.06 345.612 214.715C342.922 214.038 340.95 212.825 339.696 211.076C338.453 209.285 337.785 207.162 337.692 204.708C337.64 202.265 337.984 199.662 338.724 196.901C339.64 193.48 340.868 190.629 342.407 188.347C343.946 186.065 345.893 184.488 348.246 183.617C350.641 182.757 353.467 182.763 356.722 183.635C359.896 184.486 362.289 185.856 363.903 187.746C365.528 189.595 366.474 191.836 366.74 194.469C367.006 197.103 366.708 200.026 365.847 203.241L360.96 221.478C360.088 224.734 358.933 227.56 357.496 229.958C356.058 232.356 354.172 234.037 351.837 235.001C349.503 235.966 346.543 235.968 342.957 235.007ZM350.225 208.132C351.173 208.386 352.001 208.343 352.711 208.003C353.473 207.633 354.084 207.245 354.547 206.839L356.684 198.864C357.026 197.587 357.238 196.384 357.319 195.258C357.4 194.131 357.261 193.166 356.902 192.363C356.542 191.56 355.848 191.021 354.817 190.745C353.787 190.469 352.91 190.609 352.187 191.166C351.463 191.723 350.827 192.613 350.279 193.835C349.772 195.069 349.275 196.592 348.789 198.405C348.337 200.095 347.995 201.616 347.766 202.968C347.536 204.32 347.569 205.433 347.865 206.307C348.202 207.193 348.988 207.801 350.225 208.132Z" fill="#553B92"/>
</g>
<g opacity="0.7">
<path d="M221.825 209.91C222.165 211.413 222.11 212.717 221.663 213.822C221.191 214.913 220.421 215.815 219.352 216.527C218.278 217.221 216.99 217.737 215.488 218.076L207.06 219.979C205.519 220.327 204.094 220.464 202.786 220.39C201.473 220.297 200.362 219.871 199.452 219.112C198.543 218.354 197.897 217.126 197.514 215.429C197.184 213.966 197.156 212.752 197.43 211.788C197.681 210.809 198.211 210.023 199.02 209.43C199.829 208.837 200.888 208.393 202.195 208.098C202.253 208.085 202.321 208.07 202.4 208.052C202.454 208.019 202.51 207.996 202.568 207.983L203.533 212.256C202.538 212.48 201.819 212.745 201.375 213.05C200.931 213.356 200.793 213.879 200.96 214.62C201.066 215.088 201.296 215.426 201.65 215.633C202 215.821 202.54 215.894 203.268 215.852C203.973 215.796 204.93 215.631 206.14 215.358L208.569 214.81C208.082 214.653 207.663 214.337 207.31 213.864C206.952 213.37 206.684 212.774 206.506 212.077C206.186 210.837 206.244 209.778 206.681 208.9C207.095 208.007 207.791 207.276 208.77 206.706C209.729 206.141 210.862 205.711 212.169 205.416C213.769 205.055 215.237 204.929 216.574 205.037C217.91 205.146 219.035 205.589 219.949 206.367C220.839 207.129 221.464 208.311 221.825 209.91ZM218.447 210.612C218.337 210.124 218.09 209.8 217.705 209.641C217.316 209.462 216.81 209.402 216.188 209.461C215.561 209.5 214.819 209.616 213.96 209.81C213.141 209.995 212.435 210.185 211.844 210.38C211.228 210.56 210.774 210.816 210.48 211.149C210.186 211.482 210.105 211.941 210.237 212.526C210.299 212.799 210.417 213.049 210.591 213.277C210.741 213.489 210.924 213.663 211.139 213.799C211.335 213.939 211.532 214.038 211.729 214.096L215.504 213.244C216.09 213.112 216.635 212.938 217.139 212.721C217.62 212.49 217.986 212.202 218.236 211.859C218.487 211.515 218.557 211.099 218.447 210.612Z" fill="#553B92"/>
</g>
<g opacity="0.7">
<path d="M319.673 290.156L311.598 320.293C311.918 320.213 312.35 320.147 312.894 320.094C313.399 320.063 313.959 320.014 314.573 319.947C315.179 319.911 315.754 319.866 316.299 319.813C316.835 319.791 317.258 319.756 317.57 319.707L316.153 324.992C315.733 325.078 315.172 325.193 314.471 325.336C313.739 325.472 312.968 325.629 312.158 325.81C311.347 325.99 310.575 326.214 309.841 326.481C309.076 326.74 308.474 327.009 308.034 327.289L302.47 325.798L312.533 288.243L319.673 290.156Z" fill="#553B92"/>
</g>
<g opacity="0.7">
<path d="M415.963 170.438L445.392 160.074C445.145 159.856 444.846 159.537 444.495 159.118C444.185 158.718 443.828 158.284 443.426 157.815C443.053 157.336 442.692 156.886 442.34 156.467C442.019 156.037 441.751 155.708 441.534 155.479L446.696 153.661C447.004 153.96 447.416 154.358 447.93 154.855C448.455 155.382 449.021 155.93 449.628 156.496C450.234 157.063 450.855 157.574 451.49 158.028C452.136 158.514 452.699 158.858 453.178 159.063L455.091 164.496L418.419 177.41L415.963 170.438ZM424.296 194.101L432.853 191.087L428.931 179.95L434.409 178.02L460.411 179.602L463.281 187.751L440.507 195.771L441.751 199.302L436.409 201.183L435.165 197.652L426.608 200.665L424.296 194.101ZM436.219 183.592L438.196 189.206L453.77 183.721L436.219 183.592Z" fill="#553B92"/>
</g>
<g opacity="0.7">
<path d="M459.384 259.1L460.917 261.864L460.184 272.319C460.131 273.1 460.09 273.842 460.059 274.544C460.012 275.256 460.037 275.938 460.134 276.592C460.224 277.272 460.442 277.924 460.789 278.55C461.155 279.209 461.558 279.638 462 279.835C462.45 280.049 462.912 280.025 463.385 279.763C463.893 279.481 464.202 279.122 464.313 278.684C464.433 278.264 464.417 277.797 464.266 277.285C464.114 276.772 463.888 276.245 463.588 275.704L463.053 274.74L466.882 272.616L467.445 273.63C468.12 274.848 468.535 276.033 468.688 277.186C468.824 278.348 468.632 279.417 468.111 280.391C467.583 281.391 466.651 282.262 465.316 283.003C463.507 284.007 461.883 284.288 460.445 283.848C459.007 283.408 457.814 282.334 456.867 280.626C456.407 279.798 456.107 278.958 455.967 278.108C455.836 277.274 455.799 276.41 455.856 275.516C455.905 274.649 455.974 273.737 456.063 272.781L456.713 264.627L450.602 268.018L448.885 264.924L459.384 259.1ZM440.501 269.111C441.735 268.426 442.899 268.112 443.991 268.169C445.084 268.226 446.077 268.582 446.971 269.236C447.874 269.907 448.649 270.826 449.296 271.992L454.403 281.197C455.069 282.398 455.456 283.554 455.564 284.666C455.682 285.794 455.475 286.837 454.945 287.795C454.415 288.752 453.516 289.582 452.248 290.286C450.997 290.98 449.834 291.294 448.758 291.227C447.665 291.17 446.671 290.793 445.775 290.096C444.889 289.416 444.114 288.475 443.448 287.275L438.341 278.07C437.694 276.903 437.324 275.759 437.233 274.638C437.151 273.534 437.375 272.503 437.905 271.546C438.435 270.589 439.301 269.777 440.501 269.111ZM442.414 272.56C441.958 272.813 441.708 273.14 441.664 273.54C441.621 273.94 441.673 274.353 441.821 274.779C441.979 275.222 442.151 275.613 442.339 275.951L447.361 285.004C447.568 285.376 447.817 285.746 448.11 286.115C448.386 286.492 448.705 286.768 449.067 286.943C449.439 287.135 449.861 287.1 450.335 286.837C450.808 286.574 451.07 286.23 451.121 285.804C451.165 285.404 451.108 284.982 450.95 284.539C450.776 284.105 450.585 283.702 450.379 283.33L445.357 274.277C445.169 273.939 444.929 273.586 444.636 273.217C444.353 272.866 444.022 272.608 443.642 272.442C443.263 272.277 442.854 272.316 442.414 272.56Z" fill="#553B92"/>
</g>
<g opacity="0.7">
<path d="M397.942 309.712L410.644 317.597C410.651 317.439 410.681 317.232 410.732 316.975C410.788 316.739 410.843 316.476 410.898 316.184C410.965 315.901 411.025 315.631 411.076 315.375C411.14 315.126 411.182 314.926 411.203 314.777L413.431 316.16C413.412 316.364 413.387 316.638 413.355 316.979C413.316 317.333 413.281 317.709 413.252 318.106C413.222 318.502 413.217 318.888 413.238 319.261C413.251 319.648 413.291 319.962 413.358 320.202L411.902 322.547L396.074 312.722L397.942 309.712ZM391.411 319.753C392.034 318.75 392.765 318.067 393.604 317.703C394.448 317.361 395.354 317.283 396.322 317.468C397.281 317.667 398.263 318.077 399.266 318.7L404.894 322.194C405.923 322.832 406.775 323.524 407.45 324.268C408.117 325.025 408.495 325.855 408.584 326.758C408.673 327.662 408.366 328.68 407.662 329.814C407.056 330.791 406.418 331.469 405.75 331.848C405.086 332.248 404.374 332.393 403.613 332.281C402.852 332.17 402.035 331.843 401.162 331.301C401.123 331.277 401.078 331.249 401.026 331.216C400.978 331.205 400.935 331.187 400.896 331.163L402.667 328.31C403.332 328.722 403.867 328.965 404.274 329.037C404.68 329.108 405.037 328.897 405.344 328.402C405.538 328.089 405.594 327.781 405.512 327.477C405.422 327.187 405.167 326.857 404.746 326.487C404.331 326.139 403.719 325.714 402.911 325.213L401.289 324.206C401.471 324.554 401.531 324.952 401.469 325.4C401.398 325.862 401.224 326.332 400.946 326.809C400.455 327.659 399.853 328.206 399.142 328.45C398.436 328.716 397.662 328.741 396.822 328.525C395.994 328.318 395.143 327.944 394.27 327.402C393.202 326.739 392.332 326.018 391.66 325.24C390.988 324.462 390.611 323.615 390.531 322.698C390.455 321.803 390.748 320.821 391.411 319.753ZM393.634 321.187C393.432 321.513 393.393 321.823 393.518 322.116C393.634 322.423 393.878 322.728 394.25 323.031C394.613 323.347 395.081 323.682 395.655 324.038C396.202 324.378 396.689 324.654 397.117 324.865C397.551 325.098 397.937 325.202 398.276 325.179C398.616 325.155 398.907 324.947 399.15 324.557C399.263 324.374 399.333 324.174 399.36 323.956C399.392 323.759 399.386 323.566 399.341 323.376C399.31 323.194 399.256 323.034 399.179 322.896L396.658 321.331C396.267 321.089 395.876 320.891 395.484 320.738C395.096 320.606 394.742 320.566 394.42 320.619C394.099 320.672 393.837 320.861 393.634 321.187Z" fill="#553B92"/>
</g>
<g opacity="0.7">
<path d="M239.281 276.894L236.803 277.273L229.229 273.848C228.663 273.593 228.123 273.358 227.609 273.141C227.093 272.91 226.578 272.741 226.065 272.633C225.535 272.512 224.989 272.495 224.428 272.581C223.837 272.671 223.408 272.853 223.139 273.127C222.856 273.403 222.746 273.753 222.811 274.177C222.881 274.632 223.063 274.961 223.358 275.164C223.637 275.37 223.989 275.487 224.412 275.515C224.835 275.543 225.289 275.52 225.774 275.446L226.638 275.314L227.163 278.747L226.254 278.886C225.162 279.053 224.167 279.035 223.267 278.831C222.365 278.612 221.623 278.175 221.042 277.519C220.443 276.851 220.053 275.918 219.87 274.72C219.622 273.099 219.859 271.814 220.583 270.865C221.307 269.917 222.434 269.326 223.965 269.092C224.707 268.978 225.414 268.986 226.086 269.116C226.742 269.249 227.395 269.459 228.044 269.748C228.675 270.023 229.334 270.326 230.021 270.655L235.906 273.385L235.068 267.906L237.842 267.482L239.281 276.894Z" fill="#553B92"/>
</g>
<g opacity="0.7">
<path d="M407.329 106.981C405.834 106.869 404.654 106.55 403.791 106.024C402.93 105.478 402.334 104.731 402.004 103.783C401.675 102.816 401.561 101.664 401.662 100.328C401.666 100.268 401.671 100.208 401.675 100.149C401.68 100.089 401.684 100.029 401.689 99.9691L406.056 100.297C405.98 101.314 406.023 102.08 406.185 102.593C406.367 103.108 406.847 103.395 407.624 103.453C408.103 103.489 408.483 103.367 408.765 103.088C409.047 102.808 409.264 102.313 409.418 101.603C409.572 100.892 409.694 99.9285 409.786 98.7119L409.972 96.2289C409.66 96.6467 409.226 96.9551 408.669 97.154C408.113 97.3528 407.485 97.436 406.785 97.4036C405.487 97.3262 404.473 96.9391 403.744 96.2425C403.015 95.526 402.523 94.6065 402.266 93.4841C402.029 92.3632 401.961 91.1347 402.061 89.7984C402.186 88.1431 402.503 86.7229 403.013 85.5378C403.523 84.3526 404.283 83.457 405.291 82.8508C406.319 82.2461 407.621 82.0029 409.196 82.1212C410.732 82.2366 411.954 82.6592 412.862 83.3893C413.771 84.0994 414.402 85.0493 414.754 86.239C415.106 87.4287 415.223 88.8013 415.106 90.3569L414.443 99.1821C414.325 100.758 414.039 102.16 413.586 103.39C413.133 104.619 412.41 105.558 411.419 106.205C410.428 106.853 409.065 107.112 407.329 106.981ZM408.337 93.9701C408.795 94.0046 409.173 93.9126 409.47 93.6942C409.789 93.4574 410.037 93.2254 410.215 92.998L410.505 89.1389C410.551 88.5206 410.544 87.9485 410.483 87.4225C410.422 86.8964 410.274 86.4641 410.039 86.1256C409.804 85.787 409.437 85.599 408.938 85.5615C408.439 85.5241 408.048 85.6652 407.763 85.9847C407.478 86.3043 407.263 86.7695 407.117 87.3802C406.991 87.9925 406.894 88.7374 406.829 89.6149C406.767 90.4326 406.742 91.1628 406.754 91.8055C406.766 92.4482 406.878 92.9581 407.091 93.335C407.323 93.7135 407.738 93.9252 408.337 93.9701Z" fill="#553B92"/>
</g>
<g opacity="0.7">
<path d="M275.337 155.772L252.871 134.121C252.787 134.439 252.636 134.85 252.419 135.351C252.201 135.808 251.973 136.322 251.735 136.892C251.473 137.44 251.234 137.965 251.017 138.467C250.777 138.946 250.603 139.334 250.495 139.63L246.555 135.833C246.683 135.423 246.854 134.877 247.068 134.194C247.304 133.488 247.539 132.737 247.773 131.941C248.007 131.144 248.185 130.36 248.307 129.589C248.451 128.794 248.506 128.136 248.474 127.616L252.471 123.469L280.466 150.449L275.337 155.772ZM284.985 145.761L281.217 142.13L277.307 125.229C277.012 123.967 276.718 122.773 276.426 121.647C276.156 120.498 275.785 119.43 275.315 118.442C274.843 117.41 274.181 116.483 273.328 115.662C272.43 114.796 271.583 114.313 270.789 114.215C269.972 114.094 269.253 114.356 268.631 115.001C267.965 115.693 267.65 116.411 267.687 117.158C267.7 117.881 267.951 118.612 268.44 119.35C268.929 120.088 269.542 120.812 270.279 121.523L271.593 122.788L266.563 128.007L265.181 126.675C263.522 125.076 262.291 123.402 261.489 121.651C260.71 119.878 260.496 118.094 260.848 116.299C261.198 114.46 262.251 112.63 264.005 110.81C266.381 108.344 268.814 107.111 271.303 107.11C273.793 107.11 276.201 108.231 278.528 110.473C279.657 111.562 280.539 112.745 281.174 114.023C281.785 115.279 282.263 116.628 282.606 118.07C282.949 119.467 283.282 120.943 283.605 122.499L286.53 135.718L294.558 127.389L298.774 131.452L284.985 145.761Z" fill="#553B92"/>
</g>
<g opacity="0.7">
<path d="M328.452 85.3132C326.929 84.5576 325.903 83.7021 325.372 82.7467C324.841 81.7913 324.673 80.7364 324.866 79.582C325.077 78.4365 325.516 77.1919 326.182 75.8482L330.187 77.8348C329.796 78.6231 329.511 79.3083 329.334 79.8902C329.175 80.481 329.154 80.973 329.272 81.3662C329.407 81.7683 329.739 82.0892 330.268 82.3291C330.796 82.569 331.27 82.5586 331.69 82.2979C332.109 82.0372 332.519 81.5708 332.92 80.8988C333.32 80.2267 333.756 79.4159 334.227 78.4663C334.609 77.6959 334.902 76.9929 335.106 76.3572C335.31 75.7216 335.362 75.1668 335.262 74.6931C335.18 74.2283 334.87 73.8625 334.333 73.5958C333.849 73.3558 333.361 73.326 332.87 73.5064C332.397 73.6957 331.933 74.0684 331.478 74.6243L327.931 72.8643L334.36 60.6488L344.357 65.6089L342.584 69.1831L335.999 65.9165L333.371 70.6069C333.719 70.4449 334.193 70.3897 334.793 70.4415C335.41 70.5022 336.023 70.6613 336.632 70.9188C337.814 71.3714 338.639 72.0486 339.107 72.9505C339.593 73.8613 339.753 74.9341 339.586 76.169C339.429 77.3859 338.977 78.7468 338.231 80.2518C337.662 81.3984 337.061 82.4289 336.429 83.3431C335.806 84.2395 335.11 84.9438 334.343 85.456C333.584 85.9502 332.721 86.2034 331.755 86.2153C330.79 86.2272 329.688 85.9265 328.452 85.3132Z" fill="#553B92"/>
</g>
<g filter="url(#filter1_ddddd_17_1198)">
<rect x="199" y="446.887" width="287" height="56" rx="7.62745" fill="#4414AA"/>
</g>
<path d="M302.632 492V457.052H311.692C314.051 457.052 316.064 457.326 317.733 457.872C319.43 458.39 320.724 459.325 321.616 460.677C322.536 462.028 322.996 463.898 322.996 466.285C322.996 467.724 322.867 469.004 322.608 470.125C322.378 471.218 321.947 472.182 321.314 473.016C320.71 473.821 319.847 474.469 318.725 474.958L323.557 492H316.266L312.253 476.166H309.751V492H302.632ZM309.751 471.937H311.822C312.972 471.937 313.878 471.751 314.54 471.377C315.201 471.003 315.662 470.442 315.921 469.694C316.208 468.917 316.352 467.968 316.352 466.846C316.352 465.236 316.05 464.013 315.446 463.179C314.871 462.316 313.778 461.885 312.167 461.885H309.751V471.937ZM337.284 492.475C334.724 492.475 332.696 492.014 331.2 491.094C329.705 490.174 328.626 488.865 327.964 487.168C327.332 485.442 327.015 483.385 327.015 480.998V467.968C327.015 465.581 327.332 463.539 327.964 461.842C328.626 460.144 329.705 458.85 331.2 457.958C332.696 457.067 334.724 456.621 337.284 456.621C339.873 456.621 341.915 457.081 343.41 458.002C344.935 458.893 346.014 460.188 346.646 461.885C347.308 463.553 347.639 465.581 347.639 467.968V480.998C347.639 483.385 347.308 485.442 346.646 487.168C346.014 488.865 344.935 490.174 343.41 491.094C341.915 492.014 339.873 492.475 337.284 492.475ZM337.284 487.34C338.204 487.34 338.88 487.139 339.312 486.736C339.743 486.305 340.031 485.744 340.175 485.054C340.318 484.335 340.39 483.572 340.39 482.767V466.242C340.39 465.437 340.318 464.689 340.175 463.999C340.031 463.308 339.743 462.762 339.312 462.359C338.88 461.928 338.204 461.712 337.284 461.712C336.421 461.712 335.774 461.928 335.342 462.359C334.911 462.762 334.623 463.308 334.479 463.999C334.336 464.689 334.264 465.437 334.264 466.242V482.767C334.264 483.572 334.321 484.335 334.436 485.054C334.58 485.744 334.868 486.305 335.299 486.736C335.731 487.139 336.392 487.34 337.284 487.34ZM352.392 492V457.052H359.511V487.168H367.709V492H352.392ZM371.057 492V457.052H378.176V487.168H386.374V492H371.057Z" fill="#F5F5FA"/>
<defs>
<filter id="filter0_d_17_1198" x="304.404" y="173.305" width="65.7334" height="65.2964" filterUnits="userSpaceOnUse" color-interpolation-filters="sRGB">
<feFlood flood-opacity="0" result="BackgroundImageFix"/>
<feColorMatrix in="SourceAlpha" type="matrix" values="0 0 0 0 0 0 0 0 0 0 0 0 0 0 0 0 0 0 127 0" result="hardAlpha"/>
<feOffset/>
<feComposite in2="hardAlpha" operator="out"/>
<feColorMatrix type="matrix" values="0 0 0 0 0.264705 0 0 0 0 0.318651 0 0 0 0 0.804167 0 0 0 0.8 0"/>
<feBlend mode="normal" in2="BackgroundImageFix" result="effect1_dropShadow_17_1198"/>
<feBlend mode="normal" in="SourceGraphic" in2="effect1_dropShadow_17_1198" result="shape"/>
</filter>
<filter id="filter1_ddddd_17_1198" x="0" y="409.887" width="685" height="789" filterUnits="userSpaceOnUse" color-interpolation-filters="sRGB">
<feFlood flood-opacity="0" result="BackgroundImageFix"/>
<feColorMatrix in="SourceAlpha" type="matrix" values="0 0 0 0 0 0 0 0 0 0 0 0 0 0 0 0 0 0 127 0" result="hardAlpha"/>
<feOffset/>
<feColorMatrix type="matrix" values="0 0 0 0 0 0 0 0 0 0 0 0 0 0 0 0 0 0 0.1 0"/>
<feBlend mode="normal" in2="BackgroundImageFix" result="effect1_dropShadow_17_1198"/>
<feColorMatrix in="SourceAlpha" type="matrix" values="0 0 0 0 0 0 0 0 0 0 0 0 0 0 0 0 0 0 127 0" result="hardAlpha"/>
<feOffset dy="31"/>
<feGaussianBlur stdDeviation="34"/>
<feColorMatrix type="matrix" values="0 0 0 0 0 0 0 0 0 0 0 0 0 0 0 0 0 0 0.1 0"/>
<feBlend mode="normal" in2="effect1_dropShadow_17_1198" result="effect2_dropShadow_17_1198"/>
<feColorMatrix in="SourceAlpha" type="matrix" values="0 0 0 0 0 0 0 0 0 0 0 0 0 0 0 0 0 0 127 0" result="hardAlpha"/>
<feOffset dy="124"/>
<feGaussianBlur stdDeviation="62"/>
<feColorMatrix type="matrix" values="0 0 0 0 0 0 0 0 0 0 0 0 0 0 0 0 0 0 0.09 0"/>
<feBlend mode="normal" in2="effect2_dropShadow_17_1198" result="effect3_dropShadow_17_1198"/>
<feColorMatrix in="SourceAlpha" type="matrix" values="0 0 0 0 0 0 0 0 0 0 0 0 0 0 0 0 0 0 127 0" result="hardAlpha"/>
<feOffset dy="280"/>
<feGaussianBlur stdDeviation="84"/>
<feColorMatrix type="matrix" values="0 0 0 0 0 0 0 0 0 0 0 0 0 0 0 0 0 0 0.05 0"/>
<feBlend mode="normal" in2="effect3_dropShadow_17_1198" result="effect4_dropShadow_17_1198"/>
<feColorMatrix in="SourceAlpha" type="matrix" values="0 0 0 0 0 0 0 0 0 0 0 0 0 0 0 0 0 0 127 0" result="hardAlpha"/>
<feOffset dy="497"/>
<feGaussianBlur stdDeviation="99.5"/>
<feColorMatrix type="matrix" values="0 0 0 0 0 0 0 0 0 0 0 0 0 0 0 0 0 0 0.01 0"/>
<feBlend mode="normal" in2="effect4_dropShadow_17_1198" result="effect5_dropShadow_17_1198"/>
<feBlend mode="normal" in="SourceGraphic" in2="effect5_dropShadow_17_1198" result="shape"/>
</filter>
</defs>
</svg>
