<svg width="378" height="642" viewBox="0 0 378 642" fill="none" xmlns="http://www.w3.org/2000/svg">
<path d="M354.922 160.459L230.843 38.1787L67.0765 83.3313L23.4655 246.09L142.327 368.525L311.311 323.218L354.922 160.459Z" fill="#F5F5FA" stroke="#553B92" stroke-width="10"/>
<path d="M213.373 103.379L262.042 288.793M213.373 103.379L354.922 160.459M213.373 103.379L230.843 38.1787M213.373 103.379L67.0765 83.3313M213.373 103.379L79.4824 239.876M262.042 288.793L354.922 160.459M262.042 288.793L79.4824 239.876M262.042 288.793L142.327 368.525M262.042 288.793L311.311 323.218M354.922 160.459L230.843 38.1787M354.922 160.459L311.311 323.218M230.843 38.1787L67.0765 83.3313M311.311 323.218L142.327 368.525M142.327 368.525L23.4655 246.09M142.327 368.525L79.4824 239.876M23.4655 246.09L67.0765 83.3313M23.4655 246.09L79.4824 239.876M67.0765 83.3313L79.4824 239.876" stroke="#553B92" stroke-width="10"/>
<circle cx="213.114" cy="104.344" r="9.5" transform="rotate(15 213.114 104.344)" stroke="#553B92" stroke-width="6"/>
<circle cx="261.465" cy="287.087" r="9.5" transform="rotate(15 261.465 287.087)" stroke="#553B92" stroke-width="6"/>
<circle cx="80.8369" cy="238.684" r="9.5" transform="rotate(15 80.8369 238.684)" stroke="#553B92" stroke-width="6"/>
<g filter="url(#filter0_d_17_284)">
<path d="M159.302 226.064L170.069 185.882C169.643 185.988 169.067 186.077 168.341 186.148C167.668 186.188 166.921 186.253 166.102 186.343C165.294 186.391 164.527 186.451 163.802 186.521C163.087 186.551 162.522 186.598 162.107 186.664L163.995 179.616C164.556 179.502 165.304 179.349 166.239 179.157C167.215 178.977 168.243 178.767 169.323 178.526C170.403 178.286 171.433 177.987 172.412 177.631C173.432 177.286 174.235 176.927 174.821 176.554L182.239 178.542L168.822 228.615L159.302 226.064ZM190.267 235.289C186.929 234.394 184.436 233.064 182.789 231.298C181.194 229.501 180.268 227.353 180.01 224.855C179.763 222.315 180.037 219.561 180.832 216.594L181.312 214.801L190.833 217.352C190.81 217.435 190.75 217.661 190.65 218.032C190.562 218.362 190.474 218.692 190.385 219.021C189.996 220.64 189.761 222.012 189.68 223.139C189.651 224.235 189.853 225.129 190.286 225.819C190.72 226.51 191.472 226.998 192.544 227.286C193.657 227.584 194.553 227.537 195.232 227.144C195.922 226.711 196.514 225.986 197.007 224.97C197.501 223.954 197.957 222.662 198.377 221.096C199.05 218.582 199.198 216.546 198.821 214.987C198.455 213.387 197.164 212.268 194.95 211.631C194.908 211.62 194.702 211.564 194.331 211.465C193.961 211.366 193.61 211.272 193.281 211.184L195.169 204.136C195.416 204.202 195.663 204.269 195.911 204.335C196.199 204.412 196.446 204.478 196.653 204.534C198.878 205.13 200.542 204.935 201.646 203.95C202.79 202.976 203.705 201.211 204.389 198.656C204.92 196.678 205.045 195.055 204.766 193.788C204.488 192.52 203.565 191.677 201.999 191.257C200.433 190.837 199.237 191.18 198.411 192.283C197.585 193.387 196.892 194.902 196.332 196.828C196.244 197.158 196.144 197.529 196.034 197.941C195.934 198.312 195.835 198.683 195.736 199.054L186.215 196.503L186.944 193.783C187.728 190.857 188.927 188.527 190.539 186.795C192.163 185.021 194.108 183.864 196.373 183.323C198.638 182.781 201.193 182.891 204.036 183.653C206.88 184.415 209.174 185.582 210.917 187.153C212.66 188.725 213.782 190.638 214.282 192.892C214.824 195.157 214.703 197.753 213.919 200.679C213.134 203.605 211.865 205.871 210.109 207.477C208.395 209.094 206.58 209.932 204.664 209.993C205.79 210.737 206.7 211.709 207.394 212.911C208.088 214.113 208.488 215.59 208.593 217.34C208.709 219.05 208.452 221.079 207.823 223.429C207.017 226.437 205.866 229 204.371 231.117C202.887 233.193 200.98 234.626 198.648 235.414C196.316 236.203 193.523 236.161 190.267 235.289Z" fill="#553B92"/>
</g>
<g opacity="0.7">
<path d="M70.6899 219.669L51.6684 223.963C51.8056 224.117 51.968 224.336 52.1555 224.622C52.3191 224.893 52.5088 225.188 52.7246 225.508C52.921 225.833 53.1129 226.138 53.3004 226.424C53.4684 226.714 53.6112 226.938 53.7289 227.096L50.3928 227.849C50.2229 227.642 49.9964 227.365 49.7132 227.018C49.4257 226.653 49.1142 226.272 48.7788 225.876C48.4434 225.48 48.0951 225.118 47.7339 224.79C47.3683 224.442 47.0442 224.187 46.7617 224.025L45.969 220.513L69.6727 215.163L70.6899 219.669ZM67.5727 204.361C67.9117 205.863 67.8575 207.167 67.41 208.272C66.9385 209.363 66.1682 210.265 65.0989 210.978C64.0252 211.671 62.7373 212.187 61.2351 212.526L52.8071 214.429C51.2659 214.777 49.8411 214.914 48.5328 214.84C47.22 214.747 46.109 214.321 45.1997 213.563C44.2904 212.804 43.6442 211.576 43.2611 209.879C42.9308 208.416 42.9029 207.202 43.1774 206.238C43.4279 205.259 43.9579 204.473 44.7672 203.88C45.5766 203.287 46.6348 202.844 47.9419 202.549C48.0004 202.535 48.0687 202.52 48.1467 202.502C48.2009 202.47 48.2572 202.447 48.3157 202.433L49.2801 206.706C48.2852 206.93 47.5658 207.195 47.1221 207.501C46.6784 207.806 46.5403 208.329 46.7076 209.07C46.8133 209.539 47.0433 209.876 47.3976 210.083C47.7475 210.271 48.2868 210.344 49.0155 210.302C49.7204 210.246 50.6776 210.081 51.8871 209.808L54.316 209.26C53.8296 209.103 53.4098 208.788 53.0568 208.314C52.6994 207.82 52.4317 207.225 52.2537 206.527C51.9328 205.287 51.9911 204.228 52.4286 203.35C52.8421 202.457 53.5382 201.726 54.5168 201.157C55.4759 200.592 56.609 200.162 57.9162 199.867C59.5159 199.505 60.9841 199.379 62.3208 199.487C63.6574 199.596 64.7826 200.039 65.6963 200.817C66.5861 201.58 67.2116 202.761 67.5727 204.361ZM64.1941 205.062C64.084 204.574 63.8367 204.251 63.4522 204.091C63.0633 203.913 62.5577 203.852 61.9353 203.911C61.3085 203.95 60.5659 204.066 59.7075 204.26C58.8881 204.445 58.1826 204.635 57.591 204.83C56.9755 205.01 56.5208 205.266 56.2269 205.599C55.933 205.932 55.8521 206.391 55.9842 206.976C56.0459 207.25 56.1638 207.5 56.3381 207.727C56.4885 207.939 56.6713 208.113 56.8866 208.249C57.0823 208.389 57.2789 208.488 57.4765 208.546L61.2515 207.694C61.8368 207.562 62.3818 207.388 62.8865 207.171C63.3674 206.94 63.733 206.652 63.9835 206.309C64.234 205.965 64.3042 205.549 64.1941 205.062Z" fill="#553B92"/>
</g>
<g opacity="0.7">
<path d="M178.265 293.262L170.189 323.399C170.509 323.319 170.941 323.252 171.485 323.199C171.99 323.169 172.55 323.12 173.164 323.053C173.77 323.017 174.345 322.972 174.89 322.919C175.426 322.897 175.849 322.861 176.161 322.812L174.744 328.098C174.324 328.184 173.763 328.299 173.062 328.442C172.33 328.577 171.559 328.735 170.749 328.915C169.938 329.096 169.166 329.32 168.432 329.587C167.667 329.846 167.065 330.115 166.625 330.395L161.062 328.904L171.124 291.349L178.265 293.262ZM164.835 289.663L163.481 294.717L150.583 306.318C149.621 307.187 148.719 308.022 147.874 308.823C147 309.615 146.244 310.456 145.608 311.346C144.933 312.258 144.442 313.286 144.136 314.43C143.813 315.635 143.8 316.609 144.098 317.352C144.388 318.125 144.966 318.628 145.831 318.86C146.758 319.108 147.54 319.036 148.175 318.643C148.802 318.281 149.32 317.707 149.729 316.923C150.138 316.138 150.475 315.251 150.74 314.262L151.212 312.5L158.214 314.376L157.717 316.23C157.12 318.456 156.25 320.343 155.106 321.892C153.932 323.432 152.474 324.483 150.734 325.043C148.954 325.627 146.843 325.591 144.401 324.937C141.094 324.051 138.838 322.518 137.633 320.34C136.427 318.162 136.243 315.512 137.079 312.39C137.485 310.876 138.094 309.531 138.905 308.357C139.709 307.214 140.658 306.143 141.754 305.145C142.81 304.169 143.941 303.164 145.146 302.128L155.298 293.171L144.125 290.177L145.64 284.52L164.835 289.663Z" fill="#553B92"/>
</g>
<g opacity="0.7">
<path d="M262.963 170.438L292.392 160.075C292.145 159.856 291.846 159.537 291.495 159.118C291.185 158.719 290.828 158.284 290.426 157.815C290.053 157.336 289.692 156.887 289.34 156.467C289.019 156.038 288.751 155.708 288.534 155.479L293.696 153.661C294.004 153.96 294.416 154.358 294.93 154.855C295.455 155.383 296.021 155.93 296.628 156.496C297.234 157.063 297.855 157.574 298.49 158.029C299.136 158.514 299.699 158.859 300.178 159.063L302.091 164.496L265.419 177.41L262.963 170.438ZM271.296 194.101L279.853 191.087L275.931 179.95L281.409 178.021L307.411 179.602L310.281 187.751L287.507 195.771L288.751 199.302L283.409 201.184L282.165 197.652L273.608 200.666L271.296 194.101ZM283.219 183.592L285.196 189.206L300.77 183.721L283.219 183.592Z" fill="#553B92"/>
</g>
<g opacity="0.7">
<path d="M302.099 261.476L311.244 277.96C311.349 277.791 311.509 277.581 311.723 277.329C311.929 277.104 312.152 276.848 312.391 276.561C312.639 276.29 312.87 276.029 313.084 275.778C313.308 275.543 313.477 275.35 313.592 275.198L315.195 278.089C315.049 278.303 314.853 278.588 314.609 278.945C314.348 279.311 314.079 279.703 313.803 280.122C313.526 280.54 313.285 280.962 313.078 281.386C312.854 281.82 312.706 282.189 312.632 282.496L309.589 284.184L298.194 263.643L302.099 261.476ZM289.082 268.3C290.435 267.55 291.662 267.211 292.764 267.285C293.876 267.376 294.876 267.805 295.766 268.571C296.639 269.347 297.417 270.353 298.102 271.587C298.412 272.145 298.652 272.697 298.822 273.243C298.993 273.79 299.089 274.322 299.111 274.841C299.134 275.359 299.085 275.85 298.967 276.314C298.841 276.804 298.631 277.263 298.338 277.691C299.121 277.787 299.925 278.081 300.751 278.574C301.57 279.093 302.302 279.914 302.947 281.037C303.592 282.16 303.945 283.236 304.007 284.263C304.078 285.307 303.846 286.264 303.312 287.135C302.778 288.006 301.937 288.761 300.787 289.399C299.621 290.046 298.535 290.36 297.53 290.343C296.509 290.335 295.582 290.02 294.751 289.398C293.929 288.793 293.212 287.919 292.6 286.777C291.98 285.618 291.666 284.554 291.659 283.585C291.644 282.642 291.817 281.817 292.176 281.109C291.657 281.132 291.165 281.062 290.7 280.9C290.227 280.765 289.776 280.55 289.348 280.257C288.92 279.964 288.519 279.6 288.146 279.166C287.756 278.742 287.406 278.25 287.096 277.692C286.378 276.477 285.937 275.284 285.775 274.114C285.595 272.954 285.761 271.878 286.272 270.887C286.776 269.922 287.713 269.06 289.082 268.3ZM290.7 271.216C290.21 271.488 289.94 271.859 289.891 272.328C289.842 272.798 289.919 273.296 290.124 273.824C290.328 274.352 290.557 274.844 290.81 275.3C291.093 275.851 291.418 276.356 291.784 276.816C292.133 277.286 292.515 277.616 292.93 277.806C293.345 277.996 293.797 277.955 294.287 277.683C294.761 277.42 295.035 277.058 295.111 276.596C295.169 276.143 295.1 275.64 294.903 275.086C294.699 274.558 294.442 274.015 294.132 273.457C293.879 273.001 293.578 272.538 293.229 272.068C292.889 271.616 292.507 271.286 292.083 271.079C291.651 270.898 291.19 270.944 290.7 271.216ZM296.06 280.878C295.722 281.065 295.522 281.342 295.46 281.708C295.38 282.084 295.422 282.537 295.583 283.066C295.744 283.596 296.003 284.182 296.359 284.824C296.762 285.551 297.204 286.069 297.685 286.377C298.158 286.712 298.648 286.738 299.155 286.457C299.662 286.176 299.916 285.736 299.916 285.139C299.909 284.568 299.709 283.928 299.315 283.218C298.958 282.575 298.602 282.032 298.245 281.589C297.881 281.172 297.519 280.898 297.159 280.766C296.781 280.644 296.415 280.681 296.06 280.878Z" fill="#553B92"/>
</g>
<g opacity="0.7">
<path d="M240.692 316.559L244.385 318.852L247.369 314.045L249.733 315.512L256.945 325.701L254.761 329.218L244.932 323.117L243.986 324.641L241.68 323.209L242.626 321.685L238.933 319.393L240.692 316.559ZM248.195 317.86L246.691 320.283L253.413 324.456L248.195 317.86Z" fill="#553B92"/>
</g>
<g opacity="0.7">
<path d="M85.7995 271.919C85.985 273.132 85.8984 274.138 85.5397 274.937C85.166 275.739 84.5714 276.365 83.7561 276.815C82.9385 277.25 81.9765 277.553 80.87 277.722C80.3698 277.798 79.893 277.825 79.4396 277.801C78.9861 277.777 78.5636 277.702 78.172 277.576C77.7804 277.45 77.4285 277.279 77.1163 277.063C76.7866 276.834 76.5029 276.552 76.2654 276.216C75.9781 276.771 75.5376 277.289 74.9438 277.767C74.3325 278.233 73.5202 278.551 72.507 278.721C71.4938 278.892 70.5968 278.858 69.8159 278.621C69.0199 278.386 68.3716 277.95 67.8709 277.313C67.3702 276.676 67.041 275.842 66.8834 274.812C66.7235 273.766 66.7884 272.872 67.0782 272.129C67.3657 271.372 67.8553 270.77 68.547 270.323C69.2235 269.878 70.0707 269.585 71.0886 269.445C72.1216 269.303 72.9994 269.362 73.7219 269.624C74.427 269.873 74.9932 270.229 75.4206 270.691C75.5469 270.299 75.7343 269.953 75.9829 269.651C76.214 269.336 76.4975 269.06 76.8335 268.823C77.1695 268.585 77.5503 268.387 77.9759 268.229C78.3992 268.056 78.861 267.931 79.3612 267.855C80.463 267.655 81.4714 267.656 82.3864 267.857C83.299 268.043 84.0534 268.463 84.6497 269.117C85.2285 269.757 85.6118 270.691 85.7995 271.919ZM83.1849 272.319C83.1177 271.879 82.9163 271.577 82.5807 271.411C82.2451 271.245 81.8529 271.165 81.4041 271.172C80.9553 271.178 80.5262 271.213 80.117 271.276C79.6296 271.335 79.1644 271.437 78.7213 271.582C78.2758 271.712 77.9253 271.905 77.6698 272.162C77.4143 272.418 77.3201 272.766 77.3873 273.205C77.4522 273.63 77.646 273.934 77.9688 274.117C78.2892 274.285 78.6826 274.372 79.1489 274.379C79.5977 274.372 80.0722 274.33 80.5724 274.254C80.9817 274.191 81.409 274.095 81.8545 273.965C82.2847 273.837 82.6352 273.644 82.9059 273.385C83.1591 273.114 83.2521 272.758 83.1849 272.319ZM74.5226 273.643C74.4763 273.34 74.3255 273.115 74.0703 272.968C73.8128 272.806 73.4649 272.712 73.0266 272.686C72.5883 272.66 72.0812 272.691 71.5052 272.779C70.8535 272.878 70.3468 273.064 69.9851 273.337C69.606 273.596 69.4512 273.954 69.5208 274.408C69.5903 274.863 69.8471 275.173 70.2911 275.338C70.7176 275.489 71.2492 275.517 71.8858 275.419C72.4617 275.331 72.9637 275.216 73.3917 275.073C73.8022 274.917 74.106 274.723 74.3033 274.491C74.4982 274.244 74.5713 273.962 74.5226 273.643Z" fill="#553B92"/>
</g>
<g opacity="0.7">
<path d="M254.748 107.012C253.213 106.897 251.982 106.464 251.055 105.712C250.15 104.942 249.514 103.942 249.145 102.711C248.796 101.481 248.679 100.098 248.794 98.5628L249.441 89.9471C249.56 88.3715 249.846 86.969 250.299 85.7395C250.772 84.5115 251.504 83.5737 252.496 82.9261C253.487 82.2785 254.85 82.0199 256.585 82.1502C258.081 82.2625 259.25 82.591 260.091 83.1355C260.954 83.6616 261.551 84.3984 261.881 85.3457C262.211 86.2931 262.326 87.4349 262.225 88.7712C262.221 88.831 262.216 88.9008 262.21 88.9806C262.225 89.0419 262.231 89.1025 262.226 89.1623L257.858 88.8343C257.935 87.8172 257.892 87.0518 257.73 86.5382C257.568 86.0247 257.108 85.7394 256.35 85.6825C255.871 85.6465 255.481 85.7677 255.18 86.0459C254.898 86.3255 254.67 86.8199 254.497 87.5289C254.345 88.2194 254.222 89.183 254.129 90.4195L253.943 92.9025C254.235 92.4832 254.659 92.1741 255.216 91.9752C255.792 91.7778 256.44 91.6961 257.16 91.7301C258.439 91.7861 259.434 92.1516 260.146 92.8268C260.879 93.4835 261.374 94.3631 261.632 95.4655C261.892 96.548 261.972 97.7574 261.871 99.0936C261.748 100.729 261.44 102.17 260.945 103.416C260.45 104.663 259.697 105.609 258.686 106.255C257.696 106.883 256.384 107.135 254.748 107.012ZM255.066 103.577C255.565 103.614 255.947 103.472 256.212 103.151C256.496 102.832 256.702 102.366 256.828 101.753C256.974 101.143 257.08 100.398 257.146 99.521C257.209 98.6833 257.234 97.9531 257.22 97.3304C257.228 96.6892 257.116 96.1793 256.884 95.8009C256.652 95.4224 256.236 95.2107 255.638 95.1658C255.359 95.1448 255.085 95.1844 254.817 95.2846C254.57 95.3664 254.35 95.4902 254.157 95.6563C253.966 95.8023 253.813 95.9614 253.7 96.1334L253.41 99.9925C253.365 100.591 253.372 101.163 253.432 101.709C253.512 102.236 253.68 102.67 253.936 103.01C254.191 103.35 254.568 103.539 255.066 103.577Z" fill="#553B92"/>
</g>
<g opacity="0.7">
<path d="M122.337 155.772L99.8715 134.121C99.7868 134.439 99.636 134.85 99.419 135.351C99.2011 135.808 98.9729 136.322 98.7345 136.892C98.473 137.44 98.2338 137.965 98.0167 138.467C97.7767 138.946 97.6028 139.334 97.4951 139.63L93.555 135.833C93.6833 135.423 93.8542 134.877 94.0679 134.194C94.3038 133.488 94.5389 132.737 94.7731 131.941C95.0074 131.144 95.1853 130.36 95.3068 129.589C95.4506 128.794 95.5063 128.136 95.4741 127.616L99.4711 123.469L127.466 150.449L122.337 155.772ZM131.985 145.761L128.217 142.13L124.307 125.229C124.012 123.967 123.718 122.773 123.426 121.647C123.156 120.498 122.785 119.43 122.315 118.442C121.843 117.41 121.181 116.483 120.328 115.662C119.43 114.796 118.583 114.313 117.789 114.215C116.972 114.094 116.253 114.356 115.631 115.001C114.965 115.693 114.65 116.411 114.687 117.158C114.7 117.881 114.951 118.612 115.44 119.35C115.929 120.088 116.542 120.812 117.279 121.523L118.593 122.788L113.563 128.007L112.181 126.675C110.522 125.076 109.291 123.402 108.489 121.651C107.71 119.878 107.496 118.094 107.848 116.299C108.198 114.46 109.251 112.63 111.005 110.81C113.381 108.344 115.814 107.111 118.303 107.11C120.793 107.11 123.201 108.231 125.528 110.473C126.657 111.562 127.539 112.745 128.174 114.023C128.785 115.279 129.263 116.628 129.606 118.07C129.949 119.467 130.282 120.943 130.605 122.499L133.53 135.718L141.558 127.389L145.774 131.452L131.985 145.761Z" fill="#553B92"/>
</g>
<g opacity="0.7">
<path d="M167.045 82.7968L175.711 65.3286C175.506 65.3381 175.233 65.3256 174.893 65.2908C174.58 65.2471 174.231 65.2079 173.846 65.1733C173.47 65.1208 173.112 65.0772 172.772 65.0425C172.441 64.9898 172.177 64.9594 171.98 64.951L173.5 61.8874C173.769 61.8865 174.126 61.8854 174.574 61.884C175.039 61.8916 175.531 61.89 176.049 61.8795C176.568 61.8689 177.069 61.8271 177.552 61.7541C178.052 61.6899 178.455 61.5992 178.758 61.482L181.983 63.082L171.183 84.8501L167.045 82.7968ZM180.85 90.115C179.542 89.4661 178.591 88.6596 177.998 87.6955C177.405 86.7313 177.124 85.6767 177.156 84.5318C177.198 83.3689 177.525 82.1693 178.138 80.9331L182.978 71.1778C183.609 69.9058 184.366 68.8972 185.25 68.1521C186.142 67.389 187.151 66.9521 188.278 66.8413C189.404 66.7305 190.64 67.0084 191.983 67.6751C193.309 68.3329 194.26 69.1394 194.835 70.0947C195.428 71.0588 195.691 72.1268 195.623 73.2988C195.564 74.4528 195.219 75.6658 194.588 76.9378L189.748 86.6931C189.134 87.9294 188.377 88.9156 187.476 89.6518C186.584 90.3701 185.575 90.7847 184.448 90.8955C183.321 91.0063 182.122 90.7461 180.85 90.115ZM182.663 86.4601C183.147 86.7001 183.572 86.7212 183.938 86.5233C184.304 86.3254 184.625 86.0382 184.901 85.6616C185.186 85.2672 185.418 84.8908 185.595 84.5325L190.355 74.9384C190.551 74.5443 190.72 74.1144 190.861 73.6489C191.021 73.1922 191.069 72.7583 191.005 72.347C190.95 71.9179 190.672 71.5789 190.17 71.33C189.668 71.0811 189.221 71.0601 188.828 71.267C188.462 71.465 188.136 71.7611 187.851 72.1556C187.584 72.5589 187.353 72.9576 187.157 73.3518L182.397 82.9458C182.22 83.3042 182.06 83.7161 181.918 84.1816C181.785 84.6293 181.76 85.0631 181.842 85.4833C181.924 85.9034 182.197 86.229 182.663 86.4601Z" fill="#553B92"/>
</g>
<defs>
<filter id="filter0_d_17_284" x="151.837" y="173.373" width="65.6758" height="65.5107" filterUnits="userSpaceOnUse" color-interpolation-filters="sRGB">
<feFlood flood-opacity="0" result="BackgroundImageFix"/>
<feColorMatrix in="SourceAlpha" type="matrix" values="0 0 0 0 0 0 0 0 0 0 0 0 0 0 0 0 0 0 127 0" result="hardAlpha"/>
<feOffset/>
<feComposite in2="hardAlpha" operator="out"/>
<feColorMatrix type="matrix" values="0 0 0 0 0.264705 0 0 0 0 0.318651 0 0 0 0 0.804167 0 0 0 0.8 0"/>
<feBlend mode="normal" in2="BackgroundImageFix" result="effect1_dropShadow_17_284"/>
<feBlend mode="normal" in="SourceGraphic" in2="effect1_dropShadow_17_284" result="shape"/>
</filter>
</defs>
</svg>
